<?xml version="1.0"?>
<svg xmlns="http://www.w3.org/2000/svg" xmlns:xlink="http://www.w3.org/1999/xlink" viewBox="0 0 1082.000000 140.000000" width="541.000000mm" height="70.000000mm" version="1.1">
<a xlink:href="P-0x7fa5fd14e2b0.svg">
<rect x="1.000000" y="1.000000" width="1081.000000" height="139.000000" rx="0" ry="0" style="stroke:none;fill:#cccccc;"/>
<rect x="0.000000" y="0.000000" width="1081.000000" height="139.000000" rx="0" ry="0" style="stroke:none;fill:#ffffff;"/>
</a>
<text x="10.000000" y="7.000000" font-family="Arial" font-size="7"></text>
<rect x="55.000000" y="59.000000" width="219.300000" height="24.000000" rx="0" ry="0" style="stroke:none;fill:#cccccc;"/>
<rect x="54.000000" y="58.000000" width="219.300000" height="24.000000" rx="0" ry="0" style="stroke:none;fill:#477881;"/>
<text x="163.650000" y="72.000000" font-family="Arial" font-size="7" text-anchor="middle" fill="#FFFFFF">nentry(pitch, 48.9994f, 48.9994f, 2093.0f, 0.001f)</text>
<circle cx="56.000000" cy="60.000000" r="1"/>
<line x1="45.000000" y1="49.000000" x2="45.000000" y2="91.000000"  style="stroke: black; stroke-linecap:round; stroke-width:0.25; stroke-dasharray:3,3;"/>
<line x1="45.000000" y1="91.000000" x2="282.300000" y2="91.000000"  style="stroke: black; stroke-linecap:round; stroke-width:0.25; stroke-dasharray:3,3;"/>
<line x1="282.300000" y1="91.000000" x2="282.300000" y2="49.000000"  style="stroke: black; stroke-linecap:round; stroke-width:0.25; stroke-dasharray:3,3;"/>
<line x1="45.000000" y1="49.000000" x2="50.000000" y2="49.000000"  style="stroke: black; stroke-linecap:round; stroke-width:0.25; stroke-dasharray:3,3;"/>
<line x1="91.925000" y1="49.000000" x2="282.300000" y2="49.000000"  style="stroke: black; stroke-linecap:round; stroke-width:0.25; stroke-dasharray:3,3;"/>
<text x="50.000000" y="51.000000" font-family="Arial" font-size="7">hgroup(OSC)</text>
<line x1="35.000000" y1="39.000000" x2="35.000000" y2="101.000000"  style="stroke: black; stroke-linecap:round; stroke-width:0.25; stroke-dasharray:3,3;"/>
<line x1="35.000000" y1="101.000000" x2="292.300000" y2="101.000000"  style="stroke: black; stroke-linecap:round; stroke-width:0.25; stroke-dasharray:3,3;"/>
<line x1="292.300000" y1="101.000000" x2="292.300000" y2="39.000000"  style="stroke: black; stroke-linecap:round; stroke-width:0.25; stroke-dasharray:3,3;"/>
<line x1="35.000000" y1="39.000000" x2="40.000000" y2="39.000000"  style="stroke: black; stroke-linecap:round; stroke-width:0.25; stroke-dasharray:3,3;"/>
<line x1="110.950000" y1="39.000000" x2="292.300000" y2="39.000000"  style="stroke: black; stroke-linecap:round; stroke-width:0.25; stroke-dasharray:3,3;"/>
<text x="40.000000" y="41.000000" font-family="Arial" font-size="7">vgroup(VoiceOfFaust)</text>
<line x1="25.000000" y1="29.000000" x2="25.000000" y2="111.000000"  style="stroke: black; stroke-linecap:round; stroke-width:0.25; stroke-dasharray:3,3;"/>
<line x1="25.000000" y1="111.000000" x2="302.300000" y2="111.000000"  style="stroke: black; stroke-linecap:round; stroke-width:0.25; stroke-dasharray:3,3;"/>
<line x1="302.300000" y1="111.000000" x2="302.300000" y2="29.000000"  style="stroke: black; stroke-linecap:round; stroke-width:0.25; stroke-dasharray:3,3;"/>
<line x1="25.000000" y1="29.000000" x2="30.000000" y2="29.000000"  style="stroke: black; stroke-linecap:round; stroke-width:0.25; stroke-dasharray:3,3;"/>
<line x1="62.250000" y1="29.000000" x2="302.300000" y2="29.000000"  style="stroke: black; stroke-linecap:round; stroke-width:0.25; stroke-dasharray:3,3;"/>
<text x="30.000000" y="31.000000" font-family="Arial" font-size="7">OSCpitch</text>
<a xlink:href="smoother-0x7fa5fd14dac0.svg">
<rect x="312.300000" y="59.000000" width="38.700000" height="24.000000" rx="0" ry="0" style="stroke:none;fill:#cccccc;"/>
<rect x="311.300000" y="58.000000" width="38.700000" height="24.000000" rx="0" ry="0" style="stroke:none;fill:#003366;"/>
</a>
<a xlink:href="smoother-0x7fa5fd14dac0.svg">
<text x="330.650000" y="72.000000" font-family="Arial" font-size="7" text-anchor="middle" fill="#FFFFFF">smoother</text>
</a>
<circle cx="313.300000" cy="60.000000" r="1"/>
<line x1="308.300000" y1="69.000000" x2="311.300000" y2="70.000000"  transform="rotate(0.000000,311.300000,70.000000)" style="stroke: black; stroke-width:0.25;"/>
<line x1="308.300000" y1="71.000000" x2="311.300000" y2="70.000000"  transform="rotate(0.000000,311.300000,70.000000)" style="stroke: black; stroke-width:0.25;"/>
<rect x="397.000000" y="63.000000" width="232.200000" height="24.000000" rx="0" ry="0" style="stroke:none;fill:#cccccc;"/>
<rect x="396.000000" y="62.000000" width="232.200000" height="24.000000" rx="0" ry="0" style="stroke:none;fill:#477881;"/>
<text x="512.100000" y="76.000000" font-family="Arial" font-size="7" text-anchor="middle" fill="#FFFFFF">nentry(min pitch, 48.9994f, 48.9994f, 2093.0f, 0.001f)</text>
<circle cx="398.000000" cy="64.000000" r="1"/>
<line x1="387.000000" y1="53.000000" x2="387.000000" y2="95.000000"  style="stroke: black; stroke-linecap:round; stroke-width:0.25; stroke-dasharray:3,3;"/>
<line x1="387.000000" y1="95.000000" x2="637.200000" y2="95.000000"  style="stroke: black; stroke-linecap:round; stroke-width:0.25; stroke-dasharray:3,3;"/>
<line x1="637.200000" y1="95.000000" x2="637.200000" y2="53.000000"  style="stroke: black; stroke-linecap:round; stroke-width:0.25; stroke-dasharray:3,3;"/>
<line x1="387.000000" y1="53.000000" x2="392.000000" y2="53.000000"  style="stroke: black; stroke-linecap:round; stroke-width:0.25; stroke-dasharray:3,3;"/>
<line x1="433.925000" y1="53.000000" x2="637.200000" y2="53.000000"  style="stroke: black; stroke-linecap:round; stroke-width:0.25; stroke-dasharray:3,3;"/>
<text x="392.000000" y="55.000000" font-family="Arial" font-size="7">hgroup(OSC)</text>
<line x1="377.000000" y1="43.000000" x2="377.000000" y2="105.000000"  style="stroke: black; stroke-linecap:round; stroke-width:0.25; stroke-dasharray:3,3;"/>
<line x1="377.000000" y1="105.000000" x2="647.200000" y2="105.000000"  style="stroke: black; stroke-linecap:round; stroke-width:0.25; stroke-dasharray:3,3;"/>
<line x1="647.200000" y1="105.000000" x2="647.200000" y2="43.000000"  style="stroke: black; stroke-linecap:round; stroke-width:0.25; stroke-dasharray:3,3;"/>
<line x1="377.000000" y1="43.000000" x2="382.000000" y2="43.000000"  style="stroke: black; stroke-linecap:round; stroke-width:0.25; stroke-dasharray:3,3;"/>
<line x1="452.950000" y1="43.000000" x2="647.200000" y2="43.000000"  style="stroke: black; stroke-linecap:round; stroke-width:0.25; stroke-dasharray:3,3;"/>
<text x="382.000000" y="45.000000" font-family="Arial" font-size="7">vgroup(VoiceOfFaust)</text>
<line x1="367.000000" y1="33.000000" x2="367.000000" y2="115.000000"  style="stroke: black; stroke-linecap:round; stroke-width:0.25; stroke-dasharray:3,3;"/>
<line x1="367.000000" y1="115.000000" x2="657.200000" y2="115.000000"  style="stroke: black; stroke-linecap:round; stroke-width:0.25; stroke-dasharray:3,3;"/>
<line x1="657.200000" y1="115.000000" x2="657.200000" y2="33.000000"  style="stroke: black; stroke-linecap:round; stroke-width:0.25; stroke-dasharray:3,3;"/>
<line x1="367.000000" y1="33.000000" x2="372.000000" y2="33.000000"  style="stroke: black; stroke-linecap:round; stroke-width:0.25; stroke-dasharray:3,3;"/>
<line x1="413.925000" y1="33.000000" x2="657.200000" y2="33.000000"  style="stroke: black; stroke-linecap:round; stroke-width:0.25; stroke-dasharray:3,3;"/>
<text x="372.000000" y="35.000000" font-family="Arial" font-size="7">OSCminPitch</text>
<rect x="675.200000" y="59.000000" width="25.800000" height="24.000000" rx="0" ry="0" style="stroke:none;fill:#cccccc;"/>
<rect x="674.200000" y="58.000000" width="25.800000" height="24.000000" rx="0" ry="0" style="stroke:none;fill:#4B71A1;"/>
<text x="687.100000" y="72.000000" font-family="Arial" font-size="7" text-anchor="middle" fill="#FFFFFF">attach</text>
<circle cx="676.200000" cy="60.000000" r="1"/>
<line x1="671.200000" y1="65.000000" x2="674.200000" y2="66.000000"  transform="rotate(0.000000,674.200000,66.000000)" style="stroke: black; stroke-width:0.25;"/>
<line x1="671.200000" y1="67.000000" x2="674.200000" y2="66.000000"  transform="rotate(0.000000,674.200000,66.000000)" style="stroke: black; stroke-width:0.25;"/>
<line x1="671.200000" y1="73.000000" x2="674.200000" y2="74.000000"  transform="rotate(0.000000,674.200000,74.000000)" style="stroke: black; stroke-width:0.25;"/>
<line x1="671.200000" y1="75.000000" x2="674.200000" y2="74.000000"  transform="rotate(0.000000,674.200000,74.000000)" style="stroke: black; stroke-width:0.25;"/>
<rect x="747.000000" y="63.000000" width="232.200000" height="24.000000" rx="0" ry="0" style="stroke:none;fill:#cccccc;"/>
<rect x="746.000000" y="62.000000" width="232.200000" height="24.000000" rx="0" ry="0" style="stroke:none;fill:#477881;"/>
<text x="862.100000" y="76.000000" font-family="Arial" font-size="7" text-anchor="middle" fill="#FFFFFF">nentry(max pitch, 4.4e+02f, 48.9994f, 2093.0f, 0.001f)</text>
<circle cx="748.000000" cy="64.000000" r="1"/>
<line x1="737.000000" y1="53.000000" x2="737.000000" y2="95.000000"  style="stroke: black; stroke-linecap:round; stroke-width:0.25; stroke-dasharray:3,3;"/>
<line x1="737.000000" y1="95.000000" x2="987.200000" y2="95.000000"  style="stroke: black; stroke-linecap:round; stroke-width:0.25; stroke-dasharray:3,3;"/>
<line x1="987.200000" y1="95.000000" x2="987.200000" y2="53.000000"  style="stroke: black; stroke-linecap:round; stroke-width:0.25; stroke-dasharray:3,3;"/>
<line x1="737.000000" y1="53.000000" x2="742.000000" y2="53.000000"  style="stroke: black; stroke-linecap:round; stroke-width:0.25; stroke-dasharray:3,3;"/>
<line x1="783.925000" y1="53.000000" x2="987.200000" y2="53.000000"  style="stroke: black; stroke-linecap:round; stroke-width:0.25; stroke-dasharray:3,3;"/>
<text x="742.000000" y="55.000000" font-family="Arial" font-size="7">hgroup(OSC)</text>
<line x1="727.000000" y1="43.000000" x2="727.000000" y2="105.000000"  style="stroke: black; stroke-linecap:round; stroke-width:0.25; stroke-dasharray:3,3;"/>
<line x1="727.000000" y1="105.000000" x2="997.200000" y2="105.000000"  style="stroke: black; stroke-linecap:round; stroke-width:0.25; stroke-dasharray:3,3;"/>
<line x1="997.200000" y1="105.000000" x2="997.200000" y2="43.000000"  style="stroke: black; stroke-linecap:round; stroke-width:0.25; stroke-dasharray:3,3;"/>
<line x1="727.000000" y1="43.000000" x2="732.000000" y2="43.000000"  style="stroke: black; stroke-linecap:round; stroke-width:0.25; stroke-dasharray:3,3;"/>
<line x1="802.950000" y1="43.000000" x2="997.200000" y2="43.000000"  style="stroke: black; stroke-linecap:round; stroke-width:0.25; stroke-dasharray:3,3;"/>
<text x="732.000000" y="45.000000" font-family="Arial" font-size="7">vgroup(VoiceOfFaust)</text>
<line x1="717.000000" y1="33.000000" x2="717.000000" y2="115.000000"  style="stroke: black; stroke-linecap:round; stroke-width:0.25; stroke-dasharray:3,3;"/>
<line x1="717.000000" y1="115.000000" x2="1007.200000" y2="115.000000"  style="stroke: black; stroke-linecap:round; stroke-width:0.25; stroke-dasharray:3,3;"/>
<line x1="1007.200000" y1="115.000000" x2="1007.200000" y2="33.000000"  style="stroke: black; stroke-linecap:round; stroke-width:0.25; stroke-dasharray:3,3;"/>
<line x1="717.000000" y1="33.000000" x2="722.000000" y2="33.000000"  style="stroke: black; stroke-linecap:round; stroke-width:0.25; stroke-dasharray:3,3;"/>
<line x1="763.925000" y1="33.000000" x2="1007.200000" y2="33.000000"  style="stroke: black; stroke-linecap:round; stroke-width:0.25; stroke-dasharray:3,3;"/>
<text x="722.000000" y="35.000000" font-family="Arial" font-size="7">OSCmaxPitch</text>
<rect x="1025.200000" y="59.000000" width="25.800000" height="24.000000" rx="0" ry="0" style="stroke:none;fill:#cccccc;"/>
<rect x="1024.200000" y="58.000000" width="25.800000" height="24.000000" rx="0" ry="0" style="stroke:none;fill:#4B71A1;"/>
<text x="1037.100000" y="72.000000" font-family="Arial" font-size="7" text-anchor="middle" fill="#FFFFFF">attach</text>
<circle cx="1026.200000" cy="60.000000" r="1"/>
<line x1="1021.200000" y1="65.000000" x2="1024.200000" y2="66.000000"  transform="rotate(0.000000,1024.200000,66.000000)" style="stroke: black; stroke-width:0.25;"/>
<line x1="1021.200000" y1="67.000000" x2="1024.200000" y2="66.000000"  transform="rotate(0.000000,1024.200000,66.000000)" style="stroke: black; stroke-width:0.25;"/>
<line x1="1021.200000" y1="73.000000" x2="1024.200000" y2="74.000000"  transform="rotate(0.000000,1024.200000,74.000000)" style="stroke: black; stroke-width:0.25;"/>
<line x1="1021.200000" y1="75.000000" x2="1024.200000" y2="74.000000"  transform="rotate(0.000000,1024.200000,74.000000)" style="stroke: black; stroke-width:0.25;"/>
<line x1="15.000000" y1="15.000000" x2="15.000000" y2="125.000000"  style="stroke: black; stroke-linecap:round; stroke-width:0.25; stroke-dasharray:3,3;"/>
<line x1="15.000000" y1="125.000000" x2="1067.000000" y2="125.000000"  style="stroke: black; stroke-linecap:round; stroke-width:0.25; stroke-dasharray:3,3;"/>
<line x1="1067.000000" y1="125.000000" x2="1067.000000" y2="15.000000"  style="stroke: black; stroke-linecap:round; stroke-width:0.25; stroke-dasharray:3,3;"/>
<line x1="15.000000" y1="15.000000" x2="20.000000" y2="15.000000"  style="stroke: black; stroke-linecap:round; stroke-width:0.25; stroke-dasharray:3,3;"/>
<line x1="39.350000" y1="15.000000" x2="1067.000000" y2="15.000000"  style="stroke: black; stroke-linecap:round; stroke-width:0.25; stroke-dasharray:3,3;"/>
<text x="20.000000" y="17.000000" font-family="Arial" font-size="7">freq</text>
<line x1="1069.000000" y1="69.000000" x2="1072.000000" y2="70.000000"  transform="rotate(0.000000,1072.000000,70.000000)" style="stroke: black; stroke-width:0.25;"/>
<line x1="1069.000000" y1="71.000000" x2="1072.000000" y2="70.000000"  transform="rotate(0.000000,1072.000000,70.000000)" style="stroke: black; stroke-width:0.25;"/>
<line x1="273.300000" y1="70.000000" x2="277.300000" y2="70.000000"  style="stroke:black; stroke-linecap:round; stroke-width:0.25;"/>
<line x1="277.300000" y1="70.000000" x2="287.300000" y2="70.000000"  style="stroke:black; stroke-linecap:round; stroke-width:0.25;"/>
<line x1="287.300000" y1="70.000000" x2="297.300000" y2="70.000000"  style="stroke:black; stroke-linecap:round; stroke-width:0.25;"/>
<line x1="297.300000" y1="70.000000" x2="307.300000" y2="70.000000"  style="stroke:black; stroke-linecap:round; stroke-width:0.25;"/>
<line x1="307.300000" y1="70.000000" x2="307.300000" y2="70.000000"  style="stroke:black; stroke-linecap:round; stroke-width:0.25;"/>
<line x1="307.300000" y1="70.000000" x2="311.300000" y2="70.000000"  style="stroke:black; stroke-linecap:round; stroke-width:0.25;"/>
<line x1="350.000000" y1="70.000000" x2="354.000000" y2="70.000000"  style="stroke:black; stroke-linecap:round; stroke-width:0.25;"/>
<line x1="354.000000" y1="24.000000" x2="362.000000" y2="24.000000"  style="stroke:black; stroke-linecap:round; stroke-width:0.25;"/>
<line x1="354.000000" y1="70.000000" x2="354.000000" y2="24.000000"  style="stroke:black; stroke-linecap:round; stroke-width:0.25;"/>
<line x1="354.000000" y1="70.000000" x2="354.000000" y2="70.000000"  style="stroke:black; stroke-linecap:round; stroke-width:0.25;"/>
<line x1="362.000000" y1="24.000000" x2="512.100000" y2="24.000000"  style="stroke:black; stroke-linecap:round; stroke-width:0.25;"/>
<line x1="512.100000" y1="24.000000" x2="662.200000" y2="24.000000"  style="stroke:black; stroke-linecap:round; stroke-width:0.25;"/>
<line x1="628.200000" y1="74.000000" x2="632.200000" y2="74.000000"  style="stroke:black; stroke-linecap:round; stroke-width:0.25;"/>
<line x1="632.200000" y1="74.000000" x2="642.200000" y2="74.000000"  style="stroke:black; stroke-linecap:round; stroke-width:0.25;"/>
<line x1="642.200000" y1="74.000000" x2="652.200000" y2="74.000000"  style="stroke:black; stroke-linecap:round; stroke-width:0.25;"/>
<line x1="652.200000" y1="74.000000" x2="662.200000" y2="74.000000"  style="stroke:black; stroke-linecap:round; stroke-width:0.25;"/>
<line x1="662.200000" y1="24.000000" x2="670.200000" y2="24.000000"  style="stroke:black; stroke-linecap:round; stroke-width:0.25;"/>
<line x1="662.200000" y1="74.000000" x2="670.200000" y2="74.000000"  style="stroke:black; stroke-linecap:round; stroke-width:0.25;"/>
<line x1="670.200000" y1="24.000000" x2="670.200000" y2="66.000000"  style="stroke:black; stroke-linecap:round; stroke-width:0.25;"/>
<line x1="670.200000" y1="66.000000" x2="670.200000" y2="66.000000"  style="stroke:black; stroke-linecap:round; stroke-width:0.25;"/>
<line x1="670.200000" y1="66.000000" x2="674.200000" y2="66.000000"  style="stroke:black; stroke-linecap:round; stroke-width:0.25;"/>
<line x1="670.200000" y1="74.000000" x2="674.200000" y2="74.000000"  style="stroke:black; stroke-linecap:round; stroke-width:0.25;"/>
<line x1="700.000000" y1="70.000000" x2="704.000000" y2="70.000000"  style="stroke:black; stroke-linecap:round; stroke-width:0.25;"/>
<line x1="704.000000" y1="24.000000" x2="712.000000" y2="24.000000"  style="stroke:black; stroke-linecap:round; stroke-width:0.25;"/>
<line x1="704.000000" y1="70.000000" x2="704.000000" y2="24.000000"  style="stroke:black; stroke-linecap:round; stroke-width:0.25;"/>
<line x1="704.000000" y1="70.000000" x2="704.000000" y2="70.000000"  style="stroke:black; stroke-linecap:round; stroke-width:0.25;"/>
<line x1="712.000000" y1="24.000000" x2="862.100000" y2="24.000000"  style="stroke:black; stroke-linecap:round; stroke-width:0.25;"/>
<line x1="862.100000" y1="24.000000" x2="1012.200000" y2="24.000000"  style="stroke:black; stroke-linecap:round; stroke-width:0.25;"/>
<line x1="978.200000" y1="74.000000" x2="982.200000" y2="74.000000"  style="stroke:black; stroke-linecap:round; stroke-width:0.25;"/>
<line x1="982.200000" y1="74.000000" x2="992.200000" y2="74.000000"  style="stroke:black; stroke-linecap:round; stroke-width:0.25;"/>
<line x1="992.200000" y1="74.000000" x2="1002.200000" y2="74.000000"  style="stroke:black; stroke-linecap:round; stroke-width:0.25;"/>
<line x1="1002.200000" y1="74.000000" x2="1012.200000" y2="74.000000"  style="stroke:black; stroke-linecap:round; stroke-width:0.25;"/>
<line x1="1012.200000" y1="24.000000" x2="1020.200000" y2="24.000000"  style="stroke:black; stroke-linecap:round; stroke-width:0.25;"/>
<line x1="1012.200000" y1="74.000000" x2="1020.200000" y2="74.000000"  style="stroke:black; stroke-linecap:round; stroke-width:0.25;"/>
<line x1="1020.200000" y1="24.000000" x2="1020.200000" y2="66.000000"  style="stroke:black; stroke-linecap:round; stroke-width:0.25;"/>
<line x1="1020.200000" y1="66.000000" x2="1020.200000" y2="66.000000"  style="stroke:black; stroke-linecap:round; stroke-width:0.25;"/>
<line x1="1020.200000" y1="66.000000" x2="1024.200000" y2="66.000000"  style="stroke:black; stroke-linecap:round; stroke-width:0.25;"/>
<line x1="1020.200000" y1="74.000000" x2="1024.200000" y2="74.000000"  style="stroke:black; stroke-linecap:round; stroke-width:0.25;"/>
<line x1="1050.000000" y1="70.000000" x2="1054.000000" y2="70.000000"  style="stroke:black; stroke-linecap:round; stroke-width:0.25;"/>
<line x1="1054.000000" y1="70.000000" x2="1054.000000" y2="70.000000"  style="stroke:black; stroke-linecap:round; stroke-width:0.25;"/>
<line x1="1054.000000" y1="70.000000" x2="1058.000000" y2="70.000000"  style="stroke:black; stroke-linecap:round; stroke-width:0.25;"/>
<line x1="1058.000000" y1="70.000000" x2="1062.000000" y2="70.000000"  style="stroke:black; stroke-linecap:round; stroke-width:0.25;"/>
<line x1="1062.000000" y1="70.000000" x2="1072.000000" y2="70.000000"  style="stroke:black; stroke-linecap:round; stroke-width:0.25;"/>
</svg>
