<?xml version="1.0"?>
<svg xmlns="http://www.w3.org/2000/svg" xmlns:xlink="http://www.w3.org/1999/xlink" viewBox="0 0 260.100000 156.000000" width="130.050000mm" height="78.000000mm" version="1.1">
<a xlink:href="A-0x7fa623acb8c0.svg">
<rect x="1.000000" y="1.000000" width="259.100000" height="155.000000" rx="0" ry="0" style="stroke:none;fill:#cccccc;"/>
<rect x="0.000000" y="0.000000" width="259.100000" height="155.000000" rx="0" ry="0" style="stroke:none;fill:#ffffff;"/>
</a>
<text x="10.000000" y="7.000000" font-family="Arial" font-size="7"></text>
<rect x="95.050000" y="25.000000" width="24.000000" height="24.000000" rx="0" ry="0" style="stroke:none;fill:#cccccc;"/>
<rect x="94.050000" y="24.000000" width="24.000000" height="24.000000" rx="0" ry="0" style="stroke:none;fill:#f44800;"/>
<text x="106.050000" y="38.000000" font-family="Arial" font-size="7" text-anchor="middle" fill="#FFFFFF">20</text>
<circle cx="96.050000" cy="26.000000" r="1"/>
<rect x="44.350000" y="67.000000" width="51.600000" height="24.000000" rx="0" ry="0" style="stroke:none;fill:#cccccc;"/>
<rect x="43.350000" y="66.000000" width="51.600000" height="24.000000" rx="0" ry="0" style="stroke:none;fill:#f44800;"/>
<text x="69.150000" y="80.000000" font-family="Arial" font-size="7" text-anchor="middle" fill="#FFFFFF">1.17549e-38</text>
<circle cx="45.350000" cy="68.000000" r="1"/>
<line x1="34.350000" y1="57.000000" x2="34.350000" y2="99.000000"  style="stroke: black; stroke-linecap:round; stroke-width:0.25; stroke-dasharray:3,3;"/>
<line x1="34.350000" y1="99.000000" x2="103.950000" y2="99.000000"  style="stroke: black; stroke-linecap:round; stroke-width:0.25; stroke-dasharray:3,3;"/>
<line x1="103.950000" y1="99.000000" x2="103.950000" y2="57.000000"  style="stroke: black; stroke-linecap:round; stroke-width:0.25; stroke-dasharray:3,3;"/>
<line x1="34.350000" y1="57.000000" x2="39.350000" y2="57.000000"  style="stroke: black; stroke-linecap:round; stroke-width:0.25; stroke-dasharray:3,3;"/>
<line x1="55.475000" y1="57.000000" x2="103.950000" y2="57.000000"  style="stroke: black; stroke-linecap:round; stroke-width:0.25; stroke-dasharray:3,3;"/>
<text x="39.350000" y="59.000000" font-family="Arial" font-size="7">MIN</text>
<a xlink:href="rA-0x7fa623ab8820.svg">
<rect x="25.000000" y="109.000000" width="90.300000" height="24.000000" rx="0" ry="0" style="stroke:none;fill:#cccccc;"/>
<rect x="24.000000" y="108.000000" width="90.300000" height="24.000000" rx="0" ry="0" style="stroke:none;fill:#003366;"/>
</a>
<a xlink:href="rA-0x7fa623ab8820.svg">
<text x="69.150000" y="122.000000" font-family="Arial" font-size="7" text-anchor="middle" fill="#FFFFFF">rA((_,1 : +)~_,1 : -)</text>
</a>
<circle cx="26.000000" cy="110.000000" r="1"/>
<rect x="131.300000" y="83.000000" width="24.000000" height="24.000000" rx="0" ry="0" style="stroke:none;fill:#cccccc;"/>
<rect x="130.300000" y="82.000000" width="24.000000" height="24.000000" rx="0" ry="0" style="stroke:none;fill:#4B71A1;"/>
<text x="142.300000" y="96.000000" font-family="Arial" font-size="7" text-anchor="middle" fill="#FFFFFF">max</text>
<circle cx="132.300000" cy="84.000000" r="1"/>
<line x1="127.300000" y1="89.000000" x2="130.300000" y2="90.000000"  transform="rotate(0.000000,130.300000,90.000000)" style="stroke: black; stroke-width:0.25;"/>
<line x1="127.300000" y1="91.000000" x2="130.300000" y2="90.000000"  transform="rotate(0.000000,130.300000,90.000000)" style="stroke: black; stroke-width:0.25;"/>
<line x1="127.300000" y1="97.000000" x2="130.300000" y2="98.000000"  transform="rotate(0.000000,130.300000,98.000000)" style="stroke: black; stroke-width:0.25;"/>
<line x1="127.300000" y1="99.000000" x2="130.300000" y2="98.000000"  transform="rotate(0.000000,130.300000,98.000000)" style="stroke: black; stroke-width:0.25;"/>
<rect x="163.300000" y="83.000000" width="25.800000" height="24.000000" rx="0" ry="0" style="stroke:none;fill:#cccccc;"/>
<rect x="162.300000" y="82.000000" width="25.800000" height="24.000000" rx="0" ry="0" style="stroke:none;fill:#4B71A1;"/>
<text x="175.200000" y="96.000000" font-family="Arial" font-size="7" text-anchor="middle" fill="#FFFFFF">log10</text>
<circle cx="164.300000" cy="84.000000" r="1"/>
<line x1="159.300000" y1="93.000000" x2="162.300000" y2="94.000000"  transform="rotate(0.000000,162.300000,94.000000)" style="stroke: black; stroke-width:0.25;"/>
<line x1="159.300000" y1="95.000000" x2="162.300000" y2="94.000000"  transform="rotate(0.000000,162.300000,94.000000)" style="stroke: black; stroke-width:0.25;"/>
<rect x="205.100000" y="67.000000" width="24.000000" height="24.000000" rx="0" ry="0" style="stroke:none;fill:#cccccc;"/>
<rect x="204.100000" y="66.000000" width="24.000000" height="24.000000" rx="0" ry="0" style="stroke:none;fill:#4B71A1;"/>
<text x="216.100000" y="80.000000" font-family="Arial" font-size="7" text-anchor="middle" fill="#FFFFFF">*</text>
<circle cx="206.100000" cy="68.000000" r="1"/>
<line x1="201.100000" y1="73.000000" x2="204.100000" y2="74.000000"  transform="rotate(0.000000,204.100000,74.000000)" style="stroke: black; stroke-width:0.25;"/>
<line x1="201.100000" y1="75.000000" x2="204.100000" y2="74.000000"  transform="rotate(0.000000,204.100000,74.000000)" style="stroke: black; stroke-width:0.25;"/>
<line x1="201.100000" y1="81.000000" x2="204.100000" y2="82.000000"  transform="rotate(0.000000,204.100000,82.000000)" style="stroke: black; stroke-width:0.25;"/>
<line x1="201.100000" y1="83.000000" x2="204.100000" y2="82.000000"  transform="rotate(0.000000,204.100000,82.000000)" style="stroke: black; stroke-width:0.25;"/>
<line x1="15.000000" y1="15.000000" x2="15.000000" y2="141.000000"  style="stroke: black; stroke-linecap:round; stroke-width:0.25; stroke-dasharray:3,3;"/>
<line x1="15.000000" y1="141.000000" x2="245.100000" y2="141.000000"  style="stroke: black; stroke-linecap:round; stroke-width:0.25; stroke-dasharray:3,3;"/>
<line x1="245.100000" y1="141.000000" x2="245.100000" y2="15.000000"  style="stroke: black; stroke-linecap:round; stroke-width:0.25; stroke-dasharray:3,3;"/>
<line x1="15.000000" y1="15.000000" x2="20.000000" y2="15.000000"  style="stroke: black; stroke-linecap:round; stroke-width:0.25; stroke-dasharray:3,3;"/>
<line x1="119.975000" y1="15.000000" x2="245.100000" y2="15.000000"  style="stroke: black; stroke-linecap:round; stroke-width:0.25; stroke-dasharray:3,3;"/>
<text x="20.000000" y="17.000000" font-family="Arial" font-size="7">linear2db(((1... +) : *) : /)</text>
<line x1="247.100000" y1="77.000000" x2="250.100000" y2="78.000000"  transform="rotate(0.000000,250.100000,78.000000)" style="stroke: black; stroke-width:0.25;"/>
<line x1="247.100000" y1="79.000000" x2="250.100000" y2="78.000000"  transform="rotate(0.000000,250.100000,78.000000)" style="stroke: black; stroke-width:0.25;"/>
<line x1="94.950000" y1="78.000000" x2="98.950000" y2="78.000000"  style="stroke:black; stroke-linecap:round; stroke-width:0.25;"/>
<line x1="98.950000" y1="78.000000" x2="108.950000" y2="78.000000"  style="stroke:black; stroke-linecap:round; stroke-width:0.25;"/>
<line x1="108.950000" y1="78.000000" x2="118.300000" y2="78.000000"  style="stroke:black; stroke-linecap:round; stroke-width:0.25;"/>
<line x1="114.300000" y1="120.000000" x2="118.300000" y2="120.000000"  style="stroke:black; stroke-linecap:round; stroke-width:0.25;"/>
<line x1="118.050000" y1="36.000000" x2="122.050000" y2="36.000000"  style="stroke:black; stroke-linecap:round; stroke-width:0.25;"/>
<line x1="118.300000" y1="78.000000" x2="126.300000" y2="78.000000"  style="stroke:black; stroke-linecap:round; stroke-width:0.25;"/>
<line x1="118.300000" y1="98.000000" x2="126.300000" y2="98.000000"  style="stroke:black; stroke-linecap:round; stroke-width:0.25;"/>
<line x1="118.300000" y1="120.000000" x2="118.300000" y2="98.000000"  style="stroke:black; stroke-linecap:round; stroke-width:0.25;"/>
<line x1="118.300000" y1="120.000000" x2="118.300000" y2="120.000000"  style="stroke:black; stroke-linecap:round; stroke-width:0.25;"/>
<line x1="122.050000" y1="36.000000" x2="192.100000" y2="36.000000"  style="stroke:black; stroke-linecap:round; stroke-width:0.25;"/>
<line x1="126.300000" y1="78.000000" x2="126.300000" y2="90.000000"  style="stroke:black; stroke-linecap:round; stroke-width:0.25;"/>
<line x1="126.300000" y1="90.000000" x2="126.300000" y2="90.000000"  style="stroke:black; stroke-linecap:round; stroke-width:0.25;"/>
<line x1="126.300000" y1="90.000000" x2="130.300000" y2="90.000000"  style="stroke:black; stroke-linecap:round; stroke-width:0.25;"/>
<line x1="126.300000" y1="98.000000" x2="130.300000" y2="98.000000"  style="stroke:black; stroke-linecap:round; stroke-width:0.25;"/>
<line x1="154.300000" y1="94.000000" x2="158.300000" y2="94.000000"  style="stroke:black; stroke-linecap:round; stroke-width:0.25;"/>
<line x1="158.300000" y1="94.000000" x2="158.300000" y2="94.000000"  style="stroke:black; stroke-linecap:round; stroke-width:0.25;"/>
<line x1="158.300000" y1="94.000000" x2="162.300000" y2="94.000000"  style="stroke:black; stroke-linecap:round; stroke-width:0.25;"/>
<line x1="188.100000" y1="94.000000" x2="192.100000" y2="94.000000"  style="stroke:black; stroke-linecap:round; stroke-width:0.25;"/>
<line x1="192.100000" y1="36.000000" x2="200.100000" y2="36.000000"  style="stroke:black; stroke-linecap:round; stroke-width:0.25;"/>
<line x1="192.100000" y1="82.000000" x2="200.100000" y2="82.000000"  style="stroke:black; stroke-linecap:round; stroke-width:0.25;"/>
<line x1="192.100000" y1="94.000000" x2="192.100000" y2="82.000000"  style="stroke:black; stroke-linecap:round; stroke-width:0.25;"/>
<line x1="192.100000" y1="94.000000" x2="192.100000" y2="94.000000"  style="stroke:black; stroke-linecap:round; stroke-width:0.25;"/>
<line x1="200.100000" y1="36.000000" x2="200.100000" y2="74.000000"  style="stroke:black; stroke-linecap:round; stroke-width:0.25;"/>
<line x1="200.100000" y1="74.000000" x2="200.100000" y2="74.000000"  style="stroke:black; stroke-linecap:round; stroke-width:0.25;"/>
<line x1="200.100000" y1="74.000000" x2="204.100000" y2="74.000000"  style="stroke:black; stroke-linecap:round; stroke-width:0.25;"/>
<line x1="200.100000" y1="82.000000" x2="204.100000" y2="82.000000"  style="stroke:black; stroke-linecap:round; stroke-width:0.25;"/>
<line x1="228.100000" y1="78.000000" x2="232.100000" y2="78.000000"  style="stroke:black; stroke-linecap:round; stroke-width:0.25;"/>
<line x1="232.100000" y1="78.000000" x2="232.100000" y2="78.000000"  style="stroke:black; stroke-linecap:round; stroke-width:0.25;"/>
<line x1="232.100000" y1="78.000000" x2="236.100000" y2="78.000000"  style="stroke:black; stroke-linecap:round; stroke-width:0.25;"/>
<line x1="236.100000" y1="78.000000" x2="240.100000" y2="78.000000"  style="stroke:black; stroke-linecap:round; stroke-width:0.25;"/>
<line x1="240.100000" y1="78.000000" x2="250.100000" y2="78.000000"  style="stroke:black; stroke-linecap:round; stroke-width:0.25;"/>
</svg>
