<?xml version="1.0"?>
<svg xmlns="http://www.w3.org/2000/svg" xmlns:xlink="http://www.w3.org/1999/xlink" viewBox="0 0 444.700000 184.000000" width="222.350000mm" height="92.000000mm" version="1.1">
<a xlink:href="freq-0x7fa5fba12190.svg">
<rect x="1.000000" y="1.000000" width="443.700000" height="183.000000" rx="0" ry="0" style="stroke:none;fill:#cccccc;"/>
<rect x="0.000000" y="0.000000" width="443.700000" height="183.000000" rx="0" ry="0" style="stroke:none;fill:#ffffff;"/>
</a>
<text x="10.000000" y="7.000000" font-family="Arial" font-size="7"></text>
<a xlink:href="hz2pianokey-0x7fa5fb9ff9b0.svg">
<rect x="33.000000" y="81.000000" width="51.600000" height="24.000000" rx="0" ry="0" style="stroke:none;fill:#cccccc;"/>
<rect x="32.000000" y="80.000000" width="51.600000" height="24.000000" rx="0" ry="0" style="stroke:none;fill:#003366;"/>
</a>
<a xlink:href="hz2pianokey-0x7fa5fb9ff9b0.svg">
<text x="57.800000" y="94.000000" font-family="Arial" font-size="7" text-anchor="middle" fill="#FFFFFF">hz2pianokey</text>
</a>
<circle cx="34.000000" cy="82.000000" r="1"/>
<line x1="29.000000" y1="91.000000" x2="32.000000" y2="92.000000"  transform="rotate(0.000000,32.000000,92.000000)" style="stroke: black; stroke-width:0.25;"/>
<line x1="29.000000" y1="93.000000" x2="32.000000" y2="92.000000"  transform="rotate(0.000000,32.000000,92.000000)" style="stroke: black; stroke-width:0.25;"/>
<rect x="202.000000" y="35.000000" width="24.000000" height="24.000000" rx="0" ry="0" style="stroke:none;fill:#cccccc;"/>
<rect x="201.000000" y="34.000000" width="24.000000" height="24.000000" rx="0" ry="0" style="stroke:none;fill:#f44800;"/>
<text x="213.000000" y="48.000000" font-family="Arial" font-size="7" text-anchor="middle" fill="#FFFFFF">1</text>
<circle cx="203.000000" cy="36.000000" r="1"/>
<line x1="192.000000" y1="25.000000" x2="192.000000" y2="67.000000"  style="stroke: black; stroke-linecap:round; stroke-width:0.25; stroke-dasharray:3,3;"/>
<line x1="192.000000" y1="67.000000" x2="234.000000" y2="67.000000"  style="stroke: black; stroke-linecap:round; stroke-width:0.25; stroke-dasharray:3,3;"/>
<line x1="234.000000" y1="67.000000" x2="234.000000" y2="25.000000"  style="stroke: black; stroke-linecap:round; stroke-width:0.25; stroke-dasharray:3,3;"/>
<line x1="192.000000" y1="25.000000" x2="197.000000" y2="25.000000"  style="stroke: black; stroke-linecap:round; stroke-width:0.25; stroke-dasharray:3,3;"/>
<line x1="229.250000" y1="25.000000" x2="234.000000" y2="25.000000"  style="stroke: black; stroke-linecap:round; stroke-width:0.25; stroke-dasharray:3,3;"/>
<text x="197.000000" y="27.000000" font-family="Arial" font-size="7">clipCond</text>
<rect x="178.000000" y="91.000000" width="24.000000" height="24.000000" rx="0" ry="0" style="stroke:none;fill:#cccccc;"/>
<rect x="177.000000" y="90.000000" width="24.000000" height="24.000000" rx="0" ry="0" style="stroke:none;fill:#47945E;"/>
<text x="189.000000" y="104.000000" font-family="Arial" font-size="7" text-anchor="middle" fill="#FFFFFF">x</text>
<circle cx="179.000000" cy="92.000000" r="1"/>
<line x1="174.000000" y1="101.000000" x2="177.000000" y2="102.000000"  transform="rotate(0.000000,177.000000,102.000000)" style="stroke: black; stroke-width:0.25;"/>
<line x1="174.000000" y1="103.000000" x2="177.000000" y2="102.000000"  transform="rotate(0.000000,177.000000,102.000000)" style="stroke: black; stroke-width:0.25;"/>
<a xlink:href="fb-0x7fa5fba06070.svg">
<rect x="218.000000" y="95.000000" width="24.000000" height="24.000000" rx="0" ry="0" style="stroke:none;fill:#cccccc;"/>
<rect x="217.000000" y="94.000000" width="24.000000" height="24.000000" rx="0" ry="0" style="stroke:none;fill:#003366;"/>
</a>
<a xlink:href="fb-0x7fa5fba06070.svg">
<text x="229.000000" y="108.000000" font-family="Arial" font-size="7" text-anchor="middle" fill="#FFFFFF">fb</text>
</a>
<circle cx="219.000000" cy="96.000000" r="1"/>
<line x1="214.000000" y1="105.000000" x2="217.000000" y2="106.000000"  transform="rotate(0.000000,217.000000,106.000000)" style="stroke: black; stroke-width:0.25;"/>
<line x1="214.000000" y1="107.000000" x2="217.000000" y2="106.000000"  transform="rotate(0.000000,217.000000,106.000000)" style="stroke: black; stroke-width:0.25;"/>
<line x1="243.000000" y1="106.000000" x2="243.000000" y2="102.000000"  style="stroke:black; stroke-linecap:round; stroke-width:0.25;"/>
<line x1="243.000000" y1="102.000000" x2="247.000000" y2="102.000000"  style="stroke:black; stroke-linecap:round; stroke-width:0.25;"/>
<line x1="247.000000" y1="102.000000" x2="247.000000" y2="106.000000"  style="stroke:black; stroke-linecap:round; stroke-width:0.25;"/>
<line x1="168.000000" y1="77.000000" x2="168.000000" y2="127.000000"  style="stroke: black; stroke-linecap:round; stroke-width:0.25; stroke-dasharray:3,3;"/>
<line x1="168.000000" y1="127.000000" x2="258.000000" y2="127.000000"  style="stroke: black; stroke-linecap:round; stroke-width:0.25; stroke-dasharray:3,3;"/>
<line x1="258.000000" y1="127.000000" x2="258.000000" y2="77.000000"  style="stroke: black; stroke-linecap:round; stroke-width:0.25; stroke-dasharray:3,3;"/>
<line x1="168.000000" y1="77.000000" x2="173.000000" y2="77.000000"  style="stroke: black; stroke-linecap:round; stroke-width:0.25; stroke-dasharray:3,3;"/>
<line x1="214.925000" y1="77.000000" x2="258.000000" y2="77.000000"  style="stroke: black; stroke-linecap:round; stroke-width:0.25; stroke-dasharray:3,3;"/>
<text x="173.000000" y="79.000000" font-family="Arial" font-size="7">Abstraction</text>
<a xlink:href="gainedSmoothe-0x7fa5fba0e430.svg">
<rect x="136.600000" y="137.000000" width="154.800000" height="24.000000" rx="0" ry="0" style="stroke:none;fill:#cccccc;"/>
<rect x="135.600000" y="136.000000" width="154.800000" height="24.000000" rx="0" ry="0" style="stroke:none;fill:#003366;"/>
</a>
<a xlink:href="gainedSmoothe-0x7fa5fba0e430.svg">
<text x="213.000000" y="150.000000" font-family="Arial" font-size="7" text-anchor="middle" fill="#FFFFFF">gainedSmoothe...2 : pow) : *)(110)</text>
</a>
<circle cx="137.600000" cy="138.000000" r="1"/>
<line x1="132.600000" y1="147.000000" x2="135.600000" y2="148.000000"  transform="rotate(0.000000,135.600000,148.000000)" style="stroke: black; stroke-width:0.25;"/>
<line x1="132.600000" y1="149.000000" x2="135.600000" y2="148.000000"  transform="rotate(0.000000,135.600000,148.000000)" style="stroke: black; stroke-width:0.25;"/>
<rect x="315.400000" y="81.000000" width="38.700000" height="24.000000" rx="0" ry="0" style="stroke:none;fill:#cccccc;"/>
<rect x="314.400000" y="80.000000" width="38.700000" height="24.000000" rx="0" ry="0" style="stroke:none;fill:#4B71A1;"/>
<text x="333.750000" y="94.000000" font-family="Arial" font-size="7" text-anchor="middle" fill="#FFFFFF">select2</text>
<circle cx="316.400000" cy="82.000000" r="1"/>
<line x1="311.400000" y1="83.000000" x2="314.400000" y2="84.000000"  transform="rotate(0.000000,314.400000,84.000000)" style="stroke: black; stroke-width:0.25;"/>
<line x1="311.400000" y1="85.000000" x2="314.400000" y2="84.000000"  transform="rotate(0.000000,314.400000,84.000000)" style="stroke: black; stroke-width:0.25;"/>
<line x1="311.400000" y1="91.000000" x2="314.400000" y2="92.000000"  transform="rotate(0.000000,314.400000,92.000000)" style="stroke: black; stroke-width:0.25;"/>
<line x1="311.400000" y1="93.000000" x2="314.400000" y2="92.000000"  transform="rotate(0.000000,314.400000,92.000000)" style="stroke: black; stroke-width:0.25;"/>
<line x1="311.400000" y1="99.000000" x2="314.400000" y2="100.000000"  transform="rotate(0.000000,314.400000,100.000000)" style="stroke: black; stroke-width:0.25;"/>
<line x1="311.400000" y1="101.000000" x2="314.400000" y2="100.000000"  transform="rotate(0.000000,314.400000,100.000000)" style="stroke: black; stroke-width:0.25;"/>
<a xlink:href="pianokey2hz-0x7fa5fba11c00.svg">
<rect x="362.100000" y="81.000000" width="51.600000" height="24.000000" rx="0" ry="0" style="stroke:none;fill:#cccccc;"/>
<rect x="361.100000" y="80.000000" width="51.600000" height="24.000000" rx="0" ry="0" style="stroke:none;fill:#003366;"/>
</a>
<a xlink:href="pianokey2hz-0x7fa5fba11c00.svg">
<text x="386.900000" y="94.000000" font-family="Arial" font-size="7" text-anchor="middle" fill="#FFFFFF">pianokey2hz</text>
</a>
<circle cx="363.100000" cy="82.000000" r="1"/>
<line x1="358.100000" y1="91.000000" x2="361.100000" y2="92.000000"  transform="rotate(0.000000,361.100000,92.000000)" style="stroke: black; stroke-width:0.25;"/>
<line x1="358.100000" y1="93.000000" x2="361.100000" y2="92.000000"  transform="rotate(0.000000,361.100000,92.000000)" style="stroke: black; stroke-width:0.25;"/>
<line x1="15.000000" y1="15.000000" x2="15.000000" y2="169.000000"  style="stroke: black; stroke-linecap:round; stroke-width:0.25; stroke-dasharray:3,3;"/>
<line x1="15.000000" y1="169.000000" x2="429.700000" y2="169.000000"  style="stroke: black; stroke-linecap:round; stroke-width:0.25; stroke-dasharray:3,3;"/>
<line x1="429.700000" y1="169.000000" x2="429.700000" y2="15.000000"  style="stroke: black; stroke-linecap:round; stroke-width:0.25; stroke-dasharray:3,3;"/>
<line x1="15.000000" y1="15.000000" x2="20.000000" y2="15.000000"  style="stroke: black; stroke-linecap:round; stroke-width:0.25; stroke-dasharray:3,3;"/>
<line x1="52.250000" y1="15.000000" x2="429.700000" y2="15.000000"  style="stroke: black; stroke-linecap:round; stroke-width:0.25; stroke-dasharray:3,3;"/>
<text x="20.000000" y="17.000000" font-family="Arial" font-size="7">smoother</text>
<line x1="431.700000" y1="91.000000" x2="434.700000" y2="92.000000"  transform="rotate(0.000000,434.700000,92.000000)" style="stroke: black; stroke-width:0.25;"/>
<line x1="431.700000" y1="93.000000" x2="434.700000" y2="92.000000"  transform="rotate(0.000000,434.700000,92.000000)" style="stroke: black; stroke-width:0.25;"/>
<line x1="10.000000" y1="92.000000" x2="20.000000" y2="92.000000"  style="stroke:black; stroke-linecap:round; stroke-width:0.25;"/>
<line x1="20.000000" y1="92.000000" x2="24.000000" y2="92.000000"  style="stroke:black; stroke-linecap:round; stroke-width:0.25;"/>
<line x1="24.000000" y1="92.000000" x2="28.000000" y2="92.000000"  style="stroke:black; stroke-linecap:round; stroke-width:0.25;"/>
<line x1="28.000000" y1="92.000000" x2="28.000000" y2="92.000000"  style="stroke:black; stroke-linecap:round; stroke-width:0.25;"/>
<line x1="28.000000" y1="92.000000" x2="32.000000" y2="92.000000"  style="stroke:black; stroke-linecap:round; stroke-width:0.25;"/>
<line x1="83.600000" y1="92.000000" x2="87.600000" y2="92.000000"  style="stroke:black; stroke-linecap:round; stroke-width:0.25;"/>
<line x1="87.600000" y1="92.000000" x2="131.600000" y2="148.000000"  style="stroke:black; stroke-linecap:round; stroke-width:0.25;"/>
<line x1="87.600000" y1="92.000000" x2="131.600000" y2="102.000000"  style="stroke:black; stroke-linecap:round; stroke-width:0.25;"/>
<line x1="131.600000" y1="148.000000" x2="135.600000" y2="148.000000"  style="stroke:black; stroke-linecap:round; stroke-width:0.25;"/>
<line x1="131.600000" y1="102.000000" x2="163.000000" y2="102.000000"  style="stroke:black; stroke-linecap:round; stroke-width:0.25;"/>
<line x1="163.000000" y1="102.000000" x2="173.000000" y2="102.000000"  style="stroke:black; stroke-linecap:round; stroke-width:0.25;"/>
<line x1="173.000000" y1="102.000000" x2="177.000000" y2="102.000000"  style="stroke:black; stroke-linecap:round; stroke-width:0.25;"/>
<line x1="213.000000" y1="86.000000" x2="213.000000" y2="86.000000"  style="stroke:black; stroke-linecap:round; stroke-width:0.25;"/>
<line x1="213.000000" y1="86.000000" x2="213.000000" y2="106.000000"  style="stroke:black; stroke-linecap:round; stroke-width:0.25;"/>
<line x1="213.000000" y1="106.000000" x2="213.000000" y2="106.000000"  style="stroke:black; stroke-linecap:round; stroke-width:0.25;"/>
<line x1="213.000000" y1="106.000000" x2="217.000000" y2="106.000000"  style="stroke:black; stroke-linecap:round; stroke-width:0.25;"/>
<line x1="225.000000" y1="46.000000" x2="229.000000" y2="46.000000"  style="stroke:black; stroke-linecap:round; stroke-width:0.25;"/>
<line x1="229.000000" y1="46.000000" x2="239.000000" y2="46.000000"  style="stroke:black; stroke-linecap:round; stroke-width:0.25;"/>
<line x1="229.000000" y1="86.000000" x2="213.000000" y2="86.000000"  style="stroke:black; stroke-linecap:round; stroke-width:0.25;"/>
<line x1="239.000000" y1="46.000000" x2="294.400000" y2="46.000000"  style="stroke:black; stroke-linecap:round; stroke-width:0.25;"/>
<line x1="241.000000" y1="106.000000" x2="245.000000" y2="106.000000"  style="stroke:black; stroke-linecap:round; stroke-width:0.25;"/>
<line x1="245.000000" y1="86.000000" x2="229.000000" y2="86.000000"  style="stroke:black; stroke-linecap:round; stroke-width:0.25;"/>
<line x1="245.000000" y1="86.000000" x2="245.000000" y2="86.000000"  style="stroke:black; stroke-linecap:round; stroke-width:0.25;"/>
<line x1="245.000000" y1="102.000000" x2="245.000000" y2="86.000000"  style="stroke:black; stroke-linecap:round; stroke-width:0.25;"/>
<line x1="245.000000" y1="106.000000" x2="247.000000" y2="106.000000"  style="stroke:black; stroke-linecap:round; stroke-width:0.25;"/>
<line x1="247.000000" y1="106.000000" x2="253.000000" y2="106.000000"  style="stroke:black; stroke-linecap:round; stroke-width:0.25;"/>
<line x1="253.000000" y1="106.000000" x2="263.000000" y2="106.000000"  style="stroke:black; stroke-linecap:round; stroke-width:0.25;"/>
<line x1="263.000000" y1="106.000000" x2="294.400000" y2="106.000000"  style="stroke:black; stroke-linecap:round; stroke-width:0.25;"/>
<line x1="290.400000" y1="148.000000" x2="294.400000" y2="148.000000"  style="stroke:black; stroke-linecap:round; stroke-width:0.25;"/>
<line x1="294.400000" y1="46.000000" x2="310.400000" y2="46.000000"  style="stroke:black; stroke-linecap:round; stroke-width:0.25;"/>
<line x1="294.400000" y1="92.000000" x2="310.400000" y2="92.000000"  style="stroke:black; stroke-linecap:round; stroke-width:0.25;"/>
<line x1="294.400000" y1="106.000000" x2="294.400000" y2="92.000000"  style="stroke:black; stroke-linecap:round; stroke-width:0.25;"/>
<line x1="294.400000" y1="106.000000" x2="294.400000" y2="106.000000"  style="stroke:black; stroke-linecap:round; stroke-width:0.25;"/>
<line x1="294.400000" y1="148.000000" x2="302.400000" y2="148.000000"  style="stroke:black; stroke-linecap:round; stroke-width:0.25;"/>
<line x1="302.400000" y1="100.000000" x2="310.400000" y2="100.000000"  style="stroke:black; stroke-linecap:round; stroke-width:0.25;"/>
<line x1="302.400000" y1="148.000000" x2="302.400000" y2="100.000000"  style="stroke:black; stroke-linecap:round; stroke-width:0.25;"/>
<line x1="310.400000" y1="46.000000" x2="310.400000" y2="84.000000"  style="stroke:black; stroke-linecap:round; stroke-width:0.25;"/>
<line x1="310.400000" y1="84.000000" x2="310.400000" y2="84.000000"  style="stroke:black; stroke-linecap:round; stroke-width:0.25;"/>
<line x1="310.400000" y1="84.000000" x2="314.400000" y2="84.000000"  style="stroke:black; stroke-linecap:round; stroke-width:0.25;"/>
<line x1="310.400000" y1="92.000000" x2="314.400000" y2="92.000000"  style="stroke:black; stroke-linecap:round; stroke-width:0.25;"/>
<line x1="310.400000" y1="100.000000" x2="314.400000" y2="100.000000"  style="stroke:black; stroke-linecap:round; stroke-width:0.25;"/>
<line x1="353.100000" y1="92.000000" x2="357.100000" y2="92.000000"  style="stroke:black; stroke-linecap:round; stroke-width:0.25;"/>
<line x1="357.100000" y1="92.000000" x2="357.100000" y2="92.000000"  style="stroke:black; stroke-linecap:round; stroke-width:0.25;"/>
<line x1="357.100000" y1="92.000000" x2="361.100000" y2="92.000000"  style="stroke:black; stroke-linecap:round; stroke-width:0.25;"/>
<line x1="412.700000" y1="92.000000" x2="416.700000" y2="92.000000"  style="stroke:black; stroke-linecap:round; stroke-width:0.25;"/>
<line x1="416.700000" y1="92.000000" x2="416.700000" y2="92.000000"  style="stroke:black; stroke-linecap:round; stroke-width:0.25;"/>
<line x1="416.700000" y1="92.000000" x2="420.700000" y2="92.000000"  style="stroke:black; stroke-linecap:round; stroke-width:0.25;"/>
<line x1="420.700000" y1="92.000000" x2="424.700000" y2="92.000000"  style="stroke:black; stroke-linecap:round; stroke-width:0.25;"/>
<line x1="424.700000" y1="92.000000" x2="434.700000" y2="92.000000"  style="stroke:black; stroke-linecap:round; stroke-width:0.25;"/>
</svg>
