<?xml version="1.0"?>
<svg xmlns="http://www.w3.org/2000/svg" xmlns:xlink="http://www.w3.org/1999/xlink" viewBox="0 0 220.100000 104.000000" width="110.050000mm" height="52.000000mm" version="1.1">
<a xlink:href="A-0x86801e0.svg">
<rect x="1.000000" y="1.000000" width="219.100000" height="103.000000" rx="0" ry="0" style="stroke:none;fill:#cccccc;"/>
<rect x="0.000000" y="0.000000" width="219.100000" height="103.000000" rx="0" ry="0" style="stroke:none;fill:#ffffff;"/>
</a>
<text x="10.000000" y="7.000000" font-family="Arial" font-size="7"></text>
<rect x="75.050000" y="25.000000" width="24.000000" height="24.000000" rx="0" ry="0" style="stroke:none;fill:#cccccc;"/>
<rect x="74.050000" y="24.000000" width="24.000000" height="24.000000" rx="0" ry="0" style="stroke:none;fill:#f44800;"/>
<text x="86.050000" y="38.000000" font-family="Arial" font-size="7" text-anchor="middle" fill="#FFFFFF">20</text>
<circle cx="76.050000" cy="26.000000" r="1"/>
<a xlink:href="rA-0x8672650.svg">
<rect x="25.000000" y="57.000000" width="90.300000" height="24.000000" rx="0" ry="0" style="stroke:none;fill:#cccccc;"/>
<rect x="24.000000" y="56.000000" width="90.300000" height="24.000000" rx="0" ry="0" style="stroke:none;fill:#003366;"/>
</a>
<a xlink:href="rA-0x8672650.svg">
<text x="69.150000" y="70.000000" font-family="Arial" font-size="7" text-anchor="middle" fill="#FFFFFF">rA((_,1 : +)~_,1 : -)</text>
</a>
<circle cx="26.000000" cy="58.000000" r="1"/>
<rect x="123.300000" y="57.000000" width="25.800000" height="24.000000" rx="0" ry="0" style="stroke:none;fill:#cccccc;"/>
<rect x="122.300000" y="56.000000" width="25.800000" height="24.000000" rx="0" ry="0" style="stroke:none;fill:#4B71A1;"/>
<text x="135.200000" y="70.000000" font-family="Arial" font-size="7" text-anchor="middle" fill="#FFFFFF">log10</text>
<circle cx="124.300000" cy="58.000000" r="1"/>
<line x1="119.300000" y1="67.000000" x2="122.300000" y2="68.000000"  transform="rotate(0.000000,122.300000,68.000000)" style="stroke: black; stroke-width:0.25;"/>
<line x1="119.300000" y1="69.000000" x2="122.300000" y2="68.000000"  transform="rotate(0.000000,122.300000,68.000000)" style="stroke: black; stroke-width:0.25;"/>
<rect x="165.100000" y="41.000000" width="24.000000" height="24.000000" rx="0" ry="0" style="stroke:none;fill:#cccccc;"/>
<rect x="164.100000" y="40.000000" width="24.000000" height="24.000000" rx="0" ry="0" style="stroke:none;fill:#4B71A1;"/>
<text x="176.100000" y="54.000000" font-family="Arial" font-size="7" text-anchor="middle" fill="#FFFFFF">*</text>
<circle cx="166.100000" cy="42.000000" r="1"/>
<line x1="161.100000" y1="47.000000" x2="164.100000" y2="48.000000"  transform="rotate(0.000000,164.100000,48.000000)" style="stroke: black; stroke-width:0.25;"/>
<line x1="161.100000" y1="49.000000" x2="164.100000" y2="48.000000"  transform="rotate(0.000000,164.100000,48.000000)" style="stroke: black; stroke-width:0.25;"/>
<line x1="161.100000" y1="55.000000" x2="164.100000" y2="56.000000"  transform="rotate(0.000000,164.100000,56.000000)" style="stroke: black; stroke-width:0.25;"/>
<line x1="161.100000" y1="57.000000" x2="164.100000" y2="56.000000"  transform="rotate(0.000000,164.100000,56.000000)" style="stroke: black; stroke-width:0.25;"/>
<line x1="15.000000" y1="15.000000" x2="15.000000" y2="89.000000"  style="stroke: black; stroke-linecap:round; stroke-width:0.25; stroke-dasharray:3,3;"/>
<line x1="15.000000" y1="89.000000" x2="205.100000" y2="89.000000"  style="stroke: black; stroke-linecap:round; stroke-width:0.25; stroke-dasharray:3,3;"/>
<line x1="205.100000" y1="89.000000" x2="205.100000" y2="15.000000"  style="stroke: black; stroke-linecap:round; stroke-width:0.25; stroke-dasharray:3,3;"/>
<line x1="15.000000" y1="15.000000" x2="20.000000" y2="15.000000"  style="stroke: black; stroke-linecap:round; stroke-width:0.25; stroke-dasharray:3,3;"/>
<line x1="119.975000" y1="15.000000" x2="205.100000" y2="15.000000"  style="stroke: black; stroke-linecap:round; stroke-width:0.25; stroke-dasharray:3,3;"/>
<text x="20.000000" y="17.000000" font-family="Arial" font-size="7">linear2db(((1... +) : *) : /)</text>
<line x1="207.100000" y1="51.000000" x2="210.100000" y2="52.000000"  transform="rotate(0.000000,210.100000,52.000000)" style="stroke: black; stroke-width:0.25;"/>
<line x1="207.100000" y1="53.000000" x2="210.100000" y2="52.000000"  transform="rotate(0.000000,210.100000,52.000000)" style="stroke: black; stroke-width:0.25;"/>
<line x1="98.050000" y1="36.000000" x2="102.050000" y2="36.000000"  style="stroke:black; stroke-linecap:round; stroke-width:0.25;"/>
<line x1="102.050000" y1="36.000000" x2="152.100000" y2="36.000000"  style="stroke:black; stroke-linecap:round; stroke-width:0.25;"/>
<line x1="114.300000" y1="68.000000" x2="118.300000" y2="68.000000"  style="stroke:black; stroke-linecap:round; stroke-width:0.25;"/>
<line x1="118.300000" y1="68.000000" x2="118.300000" y2="68.000000"  style="stroke:black; stroke-linecap:round; stroke-width:0.25;"/>
<line x1="118.300000" y1="68.000000" x2="122.300000" y2="68.000000"  style="stroke:black; stroke-linecap:round; stroke-width:0.25;"/>
<line x1="148.100000" y1="68.000000" x2="152.100000" y2="68.000000"  style="stroke:black; stroke-linecap:round; stroke-width:0.25;"/>
<line x1="152.100000" y1="36.000000" x2="160.100000" y2="36.000000"  style="stroke:black; stroke-linecap:round; stroke-width:0.25;"/>
<line x1="152.100000" y1="56.000000" x2="160.100000" y2="56.000000"  style="stroke:black; stroke-linecap:round; stroke-width:0.25;"/>
<line x1="152.100000" y1="68.000000" x2="152.100000" y2="56.000000"  style="stroke:black; stroke-linecap:round; stroke-width:0.25;"/>
<line x1="152.100000" y1="68.000000" x2="152.100000" y2="68.000000"  style="stroke:black; stroke-linecap:round; stroke-width:0.25;"/>
<line x1="160.100000" y1="36.000000" x2="160.100000" y2="48.000000"  style="stroke:black; stroke-linecap:round; stroke-width:0.25;"/>
<line x1="160.100000" y1="48.000000" x2="160.100000" y2="48.000000"  style="stroke:black; stroke-linecap:round; stroke-width:0.25;"/>
<line x1="160.100000" y1="48.000000" x2="164.100000" y2="48.000000"  style="stroke:black; stroke-linecap:round; stroke-width:0.25;"/>
<line x1="160.100000" y1="56.000000" x2="164.100000" y2="56.000000"  style="stroke:black; stroke-linecap:round; stroke-width:0.25;"/>
<line x1="188.100000" y1="52.000000" x2="192.100000" y2="52.000000"  style="stroke:black; stroke-linecap:round; stroke-width:0.25;"/>
<line x1="192.100000" y1="52.000000" x2="192.100000" y2="52.000000"  style="stroke:black; stroke-linecap:round; stroke-width:0.25;"/>
<line x1="192.100000" y1="52.000000" x2="196.100000" y2="52.000000"  style="stroke:black; stroke-linecap:round; stroke-width:0.25;"/>
<line x1="196.100000" y1="52.000000" x2="200.100000" y2="52.000000"  style="stroke:black; stroke-linecap:round; stroke-width:0.25;"/>
<line x1="200.100000" y1="52.000000" x2="210.100000" y2="52.000000"  style="stroke:black; stroke-linecap:round; stroke-width:0.25;"/>
</svg>
