<?xml version="1.0"?>
<svg xmlns="http://www.w3.org/2000/svg" xmlns:xlink="http://www.w3.org/1999/xlink" viewBox="0 0 441.100000 360.000000" width="220.550000mm" height="180.000000mm" version="1.1">
<a xlink:href="midToTopVal-0x238ed240.svg">
<rect x="1.000000" y="1.000000" width="440.100000" height="359.000000" rx="0" ry="0" style="stroke:none;fill:#cccccc;"/>
<rect x="0.000000" y="0.000000" width="440.100000" height="359.000000" rx="0" ry="0" style="stroke:none;fill:#ffffff;"/>
</a>
<text x="10.000000" y="7.000000" font-family="Arial" font-size="7"></text>
<rect x="145.550000" y="35.000000" width="24.000000" height="24.000000" rx="0" ry="0" style="stroke:none;fill:#cccccc;"/>
<rect x="144.550000" y="34.000000" width="24.000000" height="24.000000" rx="0" ry="0" style="stroke:none;fill:#f44800;"/>
<text x="156.550000" y="48.000000" font-family="Arial" font-size="7" text-anchor="middle" fill="#FFFFFF">2</text>
<circle cx="146.550000" cy="36.000000" r="1"/>
<line x1="135.550000" y1="25.000000" x2="135.550000" y2="67.000000"  style="stroke: black; stroke-linecap:round; stroke-width:0.25; stroke-dasharray:3,3;"/>
<line x1="135.550000" y1="67.000000" x2="177.550000" y2="67.000000"  style="stroke: black; stroke-linecap:round; stroke-width:0.25; stroke-dasharray:3,3;"/>
<line x1="177.550000" y1="67.000000" x2="177.550000" y2="25.000000"  style="stroke: black; stroke-linecap:round; stroke-width:0.25; stroke-dasharray:3,3;"/>
<line x1="135.550000" y1="25.000000" x2="140.550000" y2="25.000000"  style="stroke: black; stroke-linecap:round; stroke-width:0.25; stroke-dasharray:3,3;"/>
<line x1="150.225000" y1="25.000000" x2="177.550000" y2="25.000000"  style="stroke: black; stroke-linecap:round; stroke-width:0.25; stroke-dasharray:3,3;"/>
<text x="140.550000" y="27.000000" font-family="Arial" font-size="7">M</text>
<rect x="145.550000" y="87.000000" width="24.000000" height="24.000000" rx="0" ry="0" style="stroke:none;fill:#cccccc;"/>
<rect x="144.550000" y="86.000000" width="24.000000" height="24.000000" rx="0" ry="0" style="stroke:none;fill:#f44800;"/>
<text x="156.550000" y="100.000000" font-family="Arial" font-size="7" text-anchor="middle" fill="#FFFFFF">1</text>
<circle cx="146.550000" cy="88.000000" r="1"/>
<line x1="135.550000" y1="77.000000" x2="135.550000" y2="119.000000"  style="stroke: black; stroke-linecap:round; stroke-width:0.25; stroke-dasharray:3,3;"/>
<line x1="135.550000" y1="119.000000" x2="177.550000" y2="119.000000"  style="stroke: black; stroke-linecap:round; stroke-width:0.25; stroke-dasharray:3,3;"/>
<line x1="177.550000" y1="119.000000" x2="177.550000" y2="77.000000"  style="stroke: black; stroke-linecap:round; stroke-width:0.25; stroke-dasharray:3,3;"/>
<line x1="135.550000" y1="77.000000" x2="140.550000" y2="77.000000"  style="stroke: black; stroke-linecap:round; stroke-width:0.25; stroke-dasharray:3,3;"/>
<line x1="153.450000" y1="77.000000" x2="177.550000" y2="77.000000"  style="stroke: black; stroke-linecap:round; stroke-width:0.25; stroke-dasharray:3,3;"/>
<text x="140.550000" y="79.000000" font-family="Arial" font-size="7">b1</text>
<rect x="195.550000" y="61.000000" width="24.000000" height="24.000000" rx="0" ry="0" style="stroke:none;fill:#cccccc;"/>
<rect x="194.550000" y="60.000000" width="24.000000" height="24.000000" rx="0" ry="0" style="stroke:none;fill:#4B71A1;"/>
<text x="206.550000" y="74.000000" font-family="Arial" font-size="7" text-anchor="middle" fill="#FFFFFF">+</text>
<circle cx="196.550000" cy="62.000000" r="1"/>
<line x1="191.550000" y1="67.000000" x2="194.550000" y2="68.000000"  transform="rotate(0.000000,194.550000,68.000000)" style="stroke: black; stroke-width:0.25;"/>
<line x1="191.550000" y1="69.000000" x2="194.550000" y2="68.000000"  transform="rotate(0.000000,194.550000,68.000000)" style="stroke: black; stroke-width:0.25;"/>
<line x1="191.550000" y1="75.000000" x2="194.550000" y2="76.000000"  transform="rotate(0.000000,194.550000,76.000000)" style="stroke: black; stroke-width:0.25;"/>
<line x1="191.550000" y1="77.000000" x2="194.550000" y2="76.000000"  transform="rotate(0.000000,194.550000,76.000000)" style="stroke: black; stroke-width:0.25;"/>
<rect x="55.000000" y="159.000000" width="245.100000" height="24.000000" rx="0" ry="0" style="stroke:none;fill:#cccccc;"/>
<rect x="54.000000" y="158.000000" width="245.100000" height="24.000000" rx="0" ry="0" style="stroke:none;fill:#477881;"/>
<text x="176.550000" y="172.000000" font-family="Arial" font-size="7" text-anchor="middle" fill="#FFFFFF">vslider(noise frequency-band, 8.0f, 1.0f, 16.0f, 0.001f)</text>
<circle cx="56.000000" cy="160.000000" r="1"/>
<line x1="45.000000" y1="149.000000" x2="45.000000" y2="191.000000"  style="stroke: black; stroke-linecap:round; stroke-width:0.25; stroke-dasharray:3,3;"/>
<line x1="45.000000" y1="191.000000" x2="308.100000" y2="191.000000"  style="stroke: black; stroke-linecap:round; stroke-width:0.25; stroke-dasharray:3,3;"/>
<line x1="308.100000" y1="191.000000" x2="308.100000" y2="149.000000"  style="stroke: black; stroke-linecap:round; stroke-width:0.25; stroke-dasharray:3,3;"/>
<line x1="45.000000" y1="149.000000" x2="50.000000" y2="149.000000"  style="stroke: black; stroke-linecap:round; stroke-width:0.25; stroke-dasharray:3,3;"/>
<line x1="108.050000" y1="149.000000" x2="308.100000" y2="149.000000"  style="stroke: black; stroke-linecap:round; stroke-width:0.25; stroke-dasharray:3,3;"/>
<text x="50.000000" y="151.000000" font-family="Arial" font-size="7">vgroup(mid band)</text>
<line x1="35.000000" y1="139.000000" x2="35.000000" y2="201.000000"  style="stroke: black; stroke-linecap:round; stroke-width:0.25; stroke-dasharray:3,3;"/>
<line x1="35.000000" y1="201.000000" x2="318.100000" y2="201.000000"  style="stroke: black; stroke-linecap:round; stroke-width:0.25; stroke-dasharray:3,3;"/>
<line x1="318.100000" y1="201.000000" x2="318.100000" y2="139.000000"  style="stroke: black; stroke-linecap:round; stroke-width:0.25; stroke-dasharray:3,3;"/>
<line x1="35.000000" y1="139.000000" x2="40.000000" y2="139.000000"  style="stroke: black; stroke-linecap:round; stroke-width:0.25; stroke-dasharray:3,3;"/>
<line x1="104.500000" y1="139.000000" x2="318.100000" y2="139.000000"  style="stroke: black; stroke-linecap:round; stroke-width:0.25; stroke-dasharray:3,3;"/>
<text x="40.000000" y="141.000000" font-family="Arial" font-size="7">hgroup(parameters)</text>
<line x1="25.000000" y1="129.000000" x2="25.000000" y2="211.000000"  style="stroke: black; stroke-linecap:round; stroke-width:0.25; stroke-dasharray:3,3;"/>
<line x1="25.000000" y1="211.000000" x2="328.100000" y2="211.000000"  style="stroke: black; stroke-linecap:round; stroke-width:0.25; stroke-dasharray:3,3;"/>
<line x1="328.100000" y1="211.000000" x2="328.100000" y2="129.000000"  style="stroke: black; stroke-linecap:round; stroke-width:0.25; stroke-dasharray:3,3;"/>
<line x1="25.000000" y1="129.000000" x2="30.000000" y2="129.000000"  style="stroke: black; stroke-linecap:round; stroke-width:0.25; stroke-dasharray:3,3;"/>
<line x1="94.500000" y1="129.000000" x2="328.100000" y2="129.000000"  style="stroke: black; stroke-linecap:round; stroke-width:0.25; stroke-dasharray:3,3;"/>
<text x="30.000000" y="131.000000" font-family="Arial" font-size="7">phaseNoiseFreqBand</text>
<rect x="346.100000" y="107.000000" width="24.000000" height="24.000000" rx="0" ry="0" style="stroke:none;fill:#cccccc;"/>
<rect x="345.100000" y="106.000000" width="24.000000" height="24.000000" rx="0" ry="0" style="stroke:none;fill:#4B71A1;"/>
<text x="357.100000" y="120.000000" font-family="Arial" font-size="7" text-anchor="middle" fill="#FFFFFF">-</text>
<circle cx="347.100000" cy="108.000000" r="1"/>
<line x1="342.100000" y1="113.000000" x2="345.100000" y2="114.000000"  transform="rotate(0.000000,345.100000,114.000000)" style="stroke: black; stroke-width:0.25;"/>
<line x1="342.100000" y1="115.000000" x2="345.100000" y2="114.000000"  transform="rotate(0.000000,345.100000,114.000000)" style="stroke: black; stroke-width:0.25;"/>
<line x1="342.100000" y1="121.000000" x2="345.100000" y2="122.000000"  transform="rotate(0.000000,345.100000,122.000000)" style="stroke: black; stroke-width:0.25;"/>
<line x1="342.100000" y1="123.000000" x2="345.100000" y2="122.000000"  transform="rotate(0.000000,345.100000,122.000000)" style="stroke: black; stroke-width:0.25;"/>
<a xlink:href="nrBands-0x2aa26e0.svg">
<rect x="158.200000" y="221.000000" width="38.700000" height="24.000000" rx="0" ry="0" style="stroke:none;fill:#cccccc;"/>
<rect x="157.200000" y="220.000000" width="38.700000" height="24.000000" rx="0" ry="0" style="stroke:none;fill:#003366;"/>
</a>
<a xlink:href="nrBands-0x2aa26e0.svg">
<text x="176.550000" y="234.000000" font-family="Arial" font-size="7" text-anchor="middle" fill="#FFFFFF">nrBands</text>
</a>
<circle cx="159.200000" cy="222.000000" r="1"/>
<rect x="55.000000" y="283.000000" width="245.100000" height="24.000000" rx="0" ry="0" style="stroke:none;fill:#cccccc;"/>
<rect x="54.000000" y="282.000000" width="245.100000" height="24.000000" rx="0" ry="0" style="stroke:none;fill:#477881;"/>
<text x="176.550000" y="296.000000" font-family="Arial" font-size="7" text-anchor="middle" fill="#FFFFFF">vslider(noise frequency-band, 8.0f, 1.0f, 16.0f, 0.001f)</text>
<circle cx="56.000000" cy="284.000000" r="1"/>
<line x1="45.000000" y1="273.000000" x2="45.000000" y2="315.000000"  style="stroke: black; stroke-linecap:round; stroke-width:0.25; stroke-dasharray:3,3;"/>
<line x1="45.000000" y1="315.000000" x2="308.100000" y2="315.000000"  style="stroke: black; stroke-linecap:round; stroke-width:0.25; stroke-dasharray:3,3;"/>
<line x1="308.100000" y1="315.000000" x2="308.100000" y2="273.000000"  style="stroke: black; stroke-linecap:round; stroke-width:0.25; stroke-dasharray:3,3;"/>
<line x1="45.000000" y1="273.000000" x2="50.000000" y2="273.000000"  style="stroke: black; stroke-linecap:round; stroke-width:0.25; stroke-dasharray:3,3;"/>
<line x1="108.050000" y1="273.000000" x2="308.100000" y2="273.000000"  style="stroke: black; stroke-linecap:round; stroke-width:0.25; stroke-dasharray:3,3;"/>
<text x="50.000000" y="275.000000" font-family="Arial" font-size="7">vgroup(mid band)</text>
<line x1="35.000000" y1="263.000000" x2="35.000000" y2="325.000000"  style="stroke: black; stroke-linecap:round; stroke-width:0.25; stroke-dasharray:3,3;"/>
<line x1="35.000000" y1="325.000000" x2="318.100000" y2="325.000000"  style="stroke: black; stroke-linecap:round; stroke-width:0.25; stroke-dasharray:3,3;"/>
<line x1="318.100000" y1="325.000000" x2="318.100000" y2="263.000000"  style="stroke: black; stroke-linecap:round; stroke-width:0.25; stroke-dasharray:3,3;"/>
<line x1="35.000000" y1="263.000000" x2="40.000000" y2="263.000000"  style="stroke: black; stroke-linecap:round; stroke-width:0.25; stroke-dasharray:3,3;"/>
<line x1="104.500000" y1="263.000000" x2="318.100000" y2="263.000000"  style="stroke: black; stroke-linecap:round; stroke-width:0.25; stroke-dasharray:3,3;"/>
<text x="40.000000" y="265.000000" font-family="Arial" font-size="7">hgroup(parameters)</text>
<line x1="25.000000" y1="253.000000" x2="25.000000" y2="335.000000"  style="stroke: black; stroke-linecap:round; stroke-width:0.25; stroke-dasharray:3,3;"/>
<line x1="25.000000" y1="335.000000" x2="328.100000" y2="335.000000"  style="stroke: black; stroke-linecap:round; stroke-width:0.25; stroke-dasharray:3,3;"/>
<line x1="328.100000" y1="335.000000" x2="328.100000" y2="253.000000"  style="stroke: black; stroke-linecap:round; stroke-width:0.25; stroke-dasharray:3,3;"/>
<line x1="25.000000" y1="253.000000" x2="30.000000" y2="253.000000"  style="stroke: black; stroke-linecap:round; stroke-width:0.25; stroke-dasharray:3,3;"/>
<line x1="94.500000" y1="253.000000" x2="328.100000" y2="253.000000"  style="stroke: black; stroke-linecap:round; stroke-width:0.25; stroke-dasharray:3,3;"/>
<text x="30.000000" y="255.000000" font-family="Arial" font-size="7">phaseNoiseFreqBand</text>
<rect x="346.100000" y="267.000000" width="24.000000" height="24.000000" rx="0" ry="0" style="stroke:none;fill:#cccccc;"/>
<rect x="345.100000" y="266.000000" width="24.000000" height="24.000000" rx="0" ry="0" style="stroke:none;fill:#4B71A1;"/>
<text x="357.100000" y="280.000000" font-family="Arial" font-size="7" text-anchor="middle" fill="#FFFFFF">-</text>
<circle cx="347.100000" cy="268.000000" r="1"/>
<line x1="342.100000" y1="273.000000" x2="345.100000" y2="274.000000"  transform="rotate(0.000000,345.100000,274.000000)" style="stroke: black; stroke-width:0.25;"/>
<line x1="342.100000" y1="275.000000" x2="345.100000" y2="274.000000"  transform="rotate(0.000000,345.100000,274.000000)" style="stroke: black; stroke-width:0.25;"/>
<line x1="342.100000" y1="281.000000" x2="345.100000" y2="282.000000"  transform="rotate(0.000000,345.100000,282.000000)" style="stroke: black; stroke-width:0.25;"/>
<line x1="342.100000" y1="283.000000" x2="345.100000" y2="282.000000"  transform="rotate(0.000000,345.100000,282.000000)" style="stroke: black; stroke-width:0.25;"/>
<rect x="386.100000" y="169.000000" width="24.000000" height="24.000000" rx="0" ry="0" style="stroke:none;fill:#cccccc;"/>
<rect x="385.100000" y="168.000000" width="24.000000" height="24.000000" rx="0" ry="0" style="stroke:none;fill:#4B71A1;"/>
<text x="397.100000" y="182.000000" font-family="Arial" font-size="7" text-anchor="middle" fill="#FFFFFF">/</text>
<circle cx="387.100000" cy="170.000000" r="1"/>
<line x1="382.100000" y1="175.000000" x2="385.100000" y2="176.000000"  transform="rotate(0.000000,385.100000,176.000000)" style="stroke: black; stroke-width:0.25;"/>
<line x1="382.100000" y1="177.000000" x2="385.100000" y2="176.000000"  transform="rotate(0.000000,385.100000,176.000000)" style="stroke: black; stroke-width:0.25;"/>
<line x1="382.100000" y1="183.000000" x2="385.100000" y2="184.000000"  transform="rotate(0.000000,385.100000,184.000000)" style="stroke: black; stroke-width:0.25;"/>
<line x1="382.100000" y1="185.000000" x2="385.100000" y2="184.000000"  transform="rotate(0.000000,385.100000,184.000000)" style="stroke: black; stroke-width:0.25;"/>
<line x1="15.000000" y1="15.000000" x2="15.000000" y2="345.000000"  style="stroke: black; stroke-linecap:round; stroke-width:0.25; stroke-dasharray:3,3;"/>
<line x1="15.000000" y1="345.000000" x2="426.100000" y2="345.000000"  style="stroke: black; stroke-linecap:round; stroke-width:0.25; stroke-dasharray:3,3;"/>
<line x1="426.100000" y1="345.000000" x2="426.100000" y2="15.000000"  style="stroke: black; stroke-linecap:round; stroke-width:0.25; stroke-dasharray:3,3;"/>
<line x1="15.000000" y1="15.000000" x2="20.000000" y2="15.000000"  style="stroke: black; stroke-linecap:round; stroke-width:0.25; stroke-dasharray:3,3;"/>
<line x1="61.925000" y1="15.000000" x2="426.100000" y2="15.000000"  style="stroke: black; stroke-linecap:round; stroke-width:0.25; stroke-dasharray:3,3;"/>
<text x="20.000000" y="17.000000" font-family="Arial" font-size="7">midToTop(2)</text>
<line x1="428.100000" y1="179.000000" x2="431.100000" y2="180.000000"  transform="rotate(0.000000,431.100000,180.000000)" style="stroke: black; stroke-width:0.25;"/>
<line x1="428.100000" y1="181.000000" x2="431.100000" y2="180.000000"  transform="rotate(0.000000,431.100000,180.000000)" style="stroke: black; stroke-width:0.25;"/>
<line x1="168.550000" y1="46.000000" x2="172.550000" y2="46.000000"  style="stroke:black; stroke-linecap:round; stroke-width:0.25;"/>
<line x1="168.550000" y1="98.000000" x2="172.550000" y2="98.000000"  style="stroke:black; stroke-linecap:round; stroke-width:0.25;"/>
<line x1="172.550000" y1="46.000000" x2="182.550000" y2="46.000000"  style="stroke:black; stroke-linecap:round; stroke-width:0.25;"/>
<line x1="172.550000" y1="98.000000" x2="182.550000" y2="98.000000"  style="stroke:black; stroke-linecap:round; stroke-width:0.25;"/>
<line x1="182.550000" y1="46.000000" x2="190.550000" y2="46.000000"  style="stroke:black; stroke-linecap:round; stroke-width:0.25;"/>
<line x1="182.550000" y1="76.000000" x2="190.550000" y2="76.000000"  style="stroke:black; stroke-linecap:round; stroke-width:0.25;"/>
<line x1="182.550000" y1="98.000000" x2="182.550000" y2="76.000000"  style="stroke:black; stroke-linecap:round; stroke-width:0.25;"/>
<line x1="182.550000" y1="98.000000" x2="182.550000" y2="98.000000"  style="stroke:black; stroke-linecap:round; stroke-width:0.25;"/>
<line x1="190.550000" y1="46.000000" x2="190.550000" y2="68.000000"  style="stroke:black; stroke-linecap:round; stroke-width:0.25;"/>
<line x1="190.550000" y1="68.000000" x2="190.550000" y2="68.000000"  style="stroke:black; stroke-linecap:round; stroke-width:0.25;"/>
<line x1="190.550000" y1="68.000000" x2="194.550000" y2="68.000000"  style="stroke:black; stroke-linecap:round; stroke-width:0.25;"/>
<line x1="190.550000" y1="76.000000" x2="194.550000" y2="76.000000"  style="stroke:black; stroke-linecap:round; stroke-width:0.25;"/>
<line x1="195.900000" y1="232.000000" x2="199.900000" y2="232.000000"  style="stroke:black; stroke-linecap:round; stroke-width:0.25;"/>
<line x1="199.900000" y1="232.000000" x2="333.100000" y2="232.000000"  style="stroke:black; stroke-linecap:round; stroke-width:0.25;"/>
<line x1="218.550000" y1="72.000000" x2="222.550000" y2="72.000000"  style="stroke:black; stroke-linecap:round; stroke-width:0.25;"/>
<line x1="222.550000" y1="72.000000" x2="333.100000" y2="72.000000"  style="stroke:black; stroke-linecap:round; stroke-width:0.25;"/>
<line x1="299.100000" y1="170.000000" x2="303.100000" y2="170.000000"  style="stroke:black; stroke-linecap:round; stroke-width:0.25;"/>
<line x1="299.100000" y1="294.000000" x2="303.100000" y2="294.000000"  style="stroke:black; stroke-linecap:round; stroke-width:0.25;"/>
<line x1="303.100000" y1="170.000000" x2="313.100000" y2="170.000000"  style="stroke:black; stroke-linecap:round; stroke-width:0.25;"/>
<line x1="303.100000" y1="294.000000" x2="313.100000" y2="294.000000"  style="stroke:black; stroke-linecap:round; stroke-width:0.25;"/>
<line x1="313.100000" y1="170.000000" x2="323.100000" y2="170.000000"  style="stroke:black; stroke-linecap:round; stroke-width:0.25;"/>
<line x1="313.100000" y1="294.000000" x2="323.100000" y2="294.000000"  style="stroke:black; stroke-linecap:round; stroke-width:0.25;"/>
<line x1="323.100000" y1="170.000000" x2="333.100000" y2="170.000000"  style="stroke:black; stroke-linecap:round; stroke-width:0.25;"/>
<line x1="323.100000" y1="294.000000" x2="333.100000" y2="294.000000"  style="stroke:black; stroke-linecap:round; stroke-width:0.25;"/>
<line x1="333.100000" y1="72.000000" x2="341.100000" y2="72.000000"  style="stroke:black; stroke-linecap:round; stroke-width:0.25;"/>
<line x1="333.100000" y1="122.000000" x2="341.100000" y2="122.000000"  style="stroke:black; stroke-linecap:round; stroke-width:0.25;"/>
<line x1="333.100000" y1="170.000000" x2="333.100000" y2="122.000000"  style="stroke:black; stroke-linecap:round; stroke-width:0.25;"/>
<line x1="333.100000" y1="170.000000" x2="333.100000" y2="170.000000"  style="stroke:black; stroke-linecap:round; stroke-width:0.25;"/>
<line x1="333.100000" y1="232.000000" x2="341.100000" y2="232.000000"  style="stroke:black; stroke-linecap:round; stroke-width:0.25;"/>
<line x1="333.100000" y1="282.000000" x2="341.100000" y2="282.000000"  style="stroke:black; stroke-linecap:round; stroke-width:0.25;"/>
<line x1="333.100000" y1="294.000000" x2="333.100000" y2="282.000000"  style="stroke:black; stroke-linecap:round; stroke-width:0.25;"/>
<line x1="333.100000" y1="294.000000" x2="333.100000" y2="294.000000"  style="stroke:black; stroke-linecap:round; stroke-width:0.25;"/>
<line x1="341.100000" y1="72.000000" x2="341.100000" y2="114.000000"  style="stroke:black; stroke-linecap:round; stroke-width:0.25;"/>
<line x1="341.100000" y1="114.000000" x2="341.100000" y2="114.000000"  style="stroke:black; stroke-linecap:round; stroke-width:0.25;"/>
<line x1="341.100000" y1="114.000000" x2="345.100000" y2="114.000000"  style="stroke:black; stroke-linecap:round; stroke-width:0.25;"/>
<line x1="341.100000" y1="122.000000" x2="345.100000" y2="122.000000"  style="stroke:black; stroke-linecap:round; stroke-width:0.25;"/>
<line x1="341.100000" y1="232.000000" x2="341.100000" y2="274.000000"  style="stroke:black; stroke-linecap:round; stroke-width:0.25;"/>
<line x1="341.100000" y1="274.000000" x2="341.100000" y2="274.000000"  style="stroke:black; stroke-linecap:round; stroke-width:0.25;"/>
<line x1="341.100000" y1="274.000000" x2="345.100000" y2="274.000000"  style="stroke:black; stroke-linecap:round; stroke-width:0.25;"/>
<line x1="341.100000" y1="282.000000" x2="345.100000" y2="282.000000"  style="stroke:black; stroke-linecap:round; stroke-width:0.25;"/>
<line x1="369.100000" y1="118.000000" x2="373.100000" y2="118.000000"  style="stroke:black; stroke-linecap:round; stroke-width:0.25;"/>
<line x1="369.100000" y1="278.000000" x2="373.100000" y2="278.000000"  style="stroke:black; stroke-linecap:round; stroke-width:0.25;"/>
<line x1="373.100000" y1="118.000000" x2="381.100000" y2="118.000000"  style="stroke:black; stroke-linecap:round; stroke-width:0.25;"/>
<line x1="373.100000" y1="184.000000" x2="381.100000" y2="184.000000"  style="stroke:black; stroke-linecap:round; stroke-width:0.25;"/>
<line x1="373.100000" y1="278.000000" x2="373.100000" y2="184.000000"  style="stroke:black; stroke-linecap:round; stroke-width:0.25;"/>
<line x1="373.100000" y1="278.000000" x2="373.100000" y2="278.000000"  style="stroke:black; stroke-linecap:round; stroke-width:0.25;"/>
<line x1="381.100000" y1="118.000000" x2="381.100000" y2="176.000000"  style="stroke:black; stroke-linecap:round; stroke-width:0.25;"/>
<line x1="381.100000" y1="176.000000" x2="381.100000" y2="176.000000"  style="stroke:black; stroke-linecap:round; stroke-width:0.25;"/>
<line x1="381.100000" y1="176.000000" x2="385.100000" y2="176.000000"  style="stroke:black; stroke-linecap:round; stroke-width:0.25;"/>
<line x1="381.100000" y1="184.000000" x2="385.100000" y2="184.000000"  style="stroke:black; stroke-linecap:round; stroke-width:0.25;"/>
<line x1="409.100000" y1="180.000000" x2="413.100000" y2="180.000000"  style="stroke:black; stroke-linecap:round; stroke-width:0.25;"/>
<line x1="413.100000" y1="180.000000" x2="413.100000" y2="180.000000"  style="stroke:black; stroke-linecap:round; stroke-width:0.25;"/>
<line x1="413.100000" y1="180.000000" x2="417.100000" y2="180.000000"  style="stroke:black; stroke-linecap:round; stroke-width:0.25;"/>
<line x1="417.100000" y1="180.000000" x2="421.100000" y2="180.000000"  style="stroke:black; stroke-linecap:round; stroke-width:0.25;"/>
<line x1="421.100000" y1="180.000000" x2="431.100000" y2="180.000000"  style="stroke:black; stroke-linecap:round; stroke-width:0.25;"/>
</svg>
