<?xml version="1.0"?>
<svg xmlns="http://www.w3.org/2000/svg" xmlns:xlink="http://www.w3.org/1999/xlink" viewBox="0 0 441.100000 340.000000" width="220.550000mm" height="170.000000mm" version="1.1">
<a xlink:href="midToTopVal-0x238f4d40.svg">
<rect x="1.000000" y="1.000000" width="440.100000" height="339.000000" rx="0" ry="0" style="stroke:none;fill:#cccccc;"/>
<rect x="0.000000" y="0.000000" width="440.100000" height="339.000000" rx="0" ry="0" style="stroke:none;fill:#ffffff;"/>
</a>
<text x="10.000000" y="7.000000" font-family="Arial" font-size="7"></text>
<rect x="145.550000" y="25.000000" width="24.000000" height="24.000000" rx="0" ry="0" style="stroke:none;fill:#cccccc;"/>
<rect x="144.550000" y="24.000000" width="24.000000" height="24.000000" rx="0" ry="0" style="stroke:none;fill:#f44800;"/>
<text x="156.550000" y="38.000000" font-family="Arial" font-size="7" text-anchor="middle" fill="#FFFFFF">14</text>
<circle cx="146.550000" cy="26.000000" r="1"/>
<rect x="145.550000" y="67.000000" width="24.000000" height="24.000000" rx="0" ry="0" style="stroke:none;fill:#cccccc;"/>
<rect x="144.550000" y="66.000000" width="24.000000" height="24.000000" rx="0" ry="0" style="stroke:none;fill:#f44800;"/>
<text x="156.550000" y="80.000000" font-family="Arial" font-size="7" text-anchor="middle" fill="#FFFFFF">1</text>
<circle cx="146.550000" cy="68.000000" r="1"/>
<line x1="135.550000" y1="57.000000" x2="135.550000" y2="99.000000"  style="stroke: black; stroke-linecap:round; stroke-width:0.25; stroke-dasharray:3,3;"/>
<line x1="135.550000" y1="99.000000" x2="177.550000" y2="99.000000"  style="stroke: black; stroke-linecap:round; stroke-width:0.25; stroke-dasharray:3,3;"/>
<line x1="177.550000" y1="99.000000" x2="177.550000" y2="57.000000"  style="stroke: black; stroke-linecap:round; stroke-width:0.25; stroke-dasharray:3,3;"/>
<line x1="135.550000" y1="57.000000" x2="140.550000" y2="57.000000"  style="stroke: black; stroke-linecap:round; stroke-width:0.25; stroke-dasharray:3,3;"/>
<line x1="153.450000" y1="57.000000" x2="177.550000" y2="57.000000"  style="stroke: black; stroke-linecap:round; stroke-width:0.25; stroke-dasharray:3,3;"/>
<text x="140.550000" y="59.000000" font-family="Arial" font-size="7">b1</text>
<rect x="195.550000" y="51.000000" width="24.000000" height="24.000000" rx="0" ry="0" style="stroke:none;fill:#cccccc;"/>
<rect x="194.550000" y="50.000000" width="24.000000" height="24.000000" rx="0" ry="0" style="stroke:none;fill:#4B71A1;"/>
<text x="206.550000" y="64.000000" font-family="Arial" font-size="7" text-anchor="middle" fill="#FFFFFF">+</text>
<circle cx="196.550000" cy="52.000000" r="1"/>
<line x1="191.550000" y1="57.000000" x2="194.550000" y2="58.000000"  transform="rotate(0.000000,194.550000,58.000000)" style="stroke: black; stroke-width:0.25;"/>
<line x1="191.550000" y1="59.000000" x2="194.550000" y2="58.000000"  transform="rotate(0.000000,194.550000,58.000000)" style="stroke: black; stroke-width:0.25;"/>
<line x1="191.550000" y1="65.000000" x2="194.550000" y2="66.000000"  transform="rotate(0.000000,194.550000,66.000000)" style="stroke: black; stroke-width:0.25;"/>
<line x1="191.550000" y1="67.000000" x2="194.550000" y2="66.000000"  transform="rotate(0.000000,194.550000,66.000000)" style="stroke: black; stroke-width:0.25;"/>
<rect x="55.000000" y="139.000000" width="245.100000" height="24.000000" rx="0" ry="0" style="stroke:none;fill:#cccccc;"/>
<rect x="54.000000" y="138.000000" width="245.100000" height="24.000000" rx="0" ry="0" style="stroke:none;fill:#477881;"/>
<text x="176.550000" y="152.000000" font-family="Arial" font-size="7" text-anchor="middle" fill="#FFFFFF">vslider(noise frequency-band, 8.0f, 1.0f, 16.0f, 0.001f)</text>
<circle cx="56.000000" cy="140.000000" r="1"/>
<line x1="45.000000" y1="129.000000" x2="45.000000" y2="171.000000"  style="stroke: black; stroke-linecap:round; stroke-width:0.25; stroke-dasharray:3,3;"/>
<line x1="45.000000" y1="171.000000" x2="308.100000" y2="171.000000"  style="stroke: black; stroke-linecap:round; stroke-width:0.25; stroke-dasharray:3,3;"/>
<line x1="308.100000" y1="171.000000" x2="308.100000" y2="129.000000"  style="stroke: black; stroke-linecap:round; stroke-width:0.25; stroke-dasharray:3,3;"/>
<line x1="45.000000" y1="129.000000" x2="50.000000" y2="129.000000"  style="stroke: black; stroke-linecap:round; stroke-width:0.25; stroke-dasharray:3,3;"/>
<line x1="108.050000" y1="129.000000" x2="308.100000" y2="129.000000"  style="stroke: black; stroke-linecap:round; stroke-width:0.25; stroke-dasharray:3,3;"/>
<text x="50.000000" y="131.000000" font-family="Arial" font-size="7">vgroup(mid band)</text>
<line x1="35.000000" y1="119.000000" x2="35.000000" y2="181.000000"  style="stroke: black; stroke-linecap:round; stroke-width:0.25; stroke-dasharray:3,3;"/>
<line x1="35.000000" y1="181.000000" x2="318.100000" y2="181.000000"  style="stroke: black; stroke-linecap:round; stroke-width:0.25; stroke-dasharray:3,3;"/>
<line x1="318.100000" y1="181.000000" x2="318.100000" y2="119.000000"  style="stroke: black; stroke-linecap:round; stroke-width:0.25; stroke-dasharray:3,3;"/>
<line x1="35.000000" y1="119.000000" x2="40.000000" y2="119.000000"  style="stroke: black; stroke-linecap:round; stroke-width:0.25; stroke-dasharray:3,3;"/>
<line x1="104.500000" y1="119.000000" x2="318.100000" y2="119.000000"  style="stroke: black; stroke-linecap:round; stroke-width:0.25; stroke-dasharray:3,3;"/>
<text x="40.000000" y="121.000000" font-family="Arial" font-size="7">hgroup(parameters)</text>
<line x1="25.000000" y1="109.000000" x2="25.000000" y2="191.000000"  style="stroke: black; stroke-linecap:round; stroke-width:0.25; stroke-dasharray:3,3;"/>
<line x1="25.000000" y1="191.000000" x2="328.100000" y2="191.000000"  style="stroke: black; stroke-linecap:round; stroke-width:0.25; stroke-dasharray:3,3;"/>
<line x1="328.100000" y1="191.000000" x2="328.100000" y2="109.000000"  style="stroke: black; stroke-linecap:round; stroke-width:0.25; stroke-dasharray:3,3;"/>
<line x1="25.000000" y1="109.000000" x2="30.000000" y2="109.000000"  style="stroke: black; stroke-linecap:round; stroke-width:0.25; stroke-dasharray:3,3;"/>
<line x1="94.500000" y1="109.000000" x2="328.100000" y2="109.000000"  style="stroke: black; stroke-linecap:round; stroke-width:0.25; stroke-dasharray:3,3;"/>
<text x="30.000000" y="111.000000" font-family="Arial" font-size="7">phaseNoiseFreqBand</text>
<rect x="346.100000" y="97.000000" width="24.000000" height="24.000000" rx="0" ry="0" style="stroke:none;fill:#cccccc;"/>
<rect x="345.100000" y="96.000000" width="24.000000" height="24.000000" rx="0" ry="0" style="stroke:none;fill:#4B71A1;"/>
<text x="357.100000" y="110.000000" font-family="Arial" font-size="7" text-anchor="middle" fill="#FFFFFF">-</text>
<circle cx="347.100000" cy="98.000000" r="1"/>
<line x1="342.100000" y1="103.000000" x2="345.100000" y2="104.000000"  transform="rotate(0.000000,345.100000,104.000000)" style="stroke: black; stroke-width:0.25;"/>
<line x1="342.100000" y1="105.000000" x2="345.100000" y2="104.000000"  transform="rotate(0.000000,345.100000,104.000000)" style="stroke: black; stroke-width:0.25;"/>
<line x1="342.100000" y1="111.000000" x2="345.100000" y2="112.000000"  transform="rotate(0.000000,345.100000,112.000000)" style="stroke: black; stroke-width:0.25;"/>
<line x1="342.100000" y1="113.000000" x2="345.100000" y2="112.000000"  transform="rotate(0.000000,345.100000,112.000000)" style="stroke: black; stroke-width:0.25;"/>
<a xlink:href="nrBands-0x2aa26e0.svg">
<rect x="158.200000" y="201.000000" width="38.700000" height="24.000000" rx="0" ry="0" style="stroke:none;fill:#cccccc;"/>
<rect x="157.200000" y="200.000000" width="38.700000" height="24.000000" rx="0" ry="0" style="stroke:none;fill:#003366;"/>
</a>
<a xlink:href="nrBands-0x2aa26e0.svg">
<text x="176.550000" y="214.000000" font-family="Arial" font-size="7" text-anchor="middle" fill="#FFFFFF">nrBands</text>
</a>
<circle cx="159.200000" cy="202.000000" r="1"/>
<rect x="55.000000" y="263.000000" width="245.100000" height="24.000000" rx="0" ry="0" style="stroke:none;fill:#cccccc;"/>
<rect x="54.000000" y="262.000000" width="245.100000" height="24.000000" rx="0" ry="0" style="stroke:none;fill:#477881;"/>
<text x="176.550000" y="276.000000" font-family="Arial" font-size="7" text-anchor="middle" fill="#FFFFFF">vslider(noise frequency-band, 8.0f, 1.0f, 16.0f, 0.001f)</text>
<circle cx="56.000000" cy="264.000000" r="1"/>
<line x1="45.000000" y1="253.000000" x2="45.000000" y2="295.000000"  style="stroke: black; stroke-linecap:round; stroke-width:0.25; stroke-dasharray:3,3;"/>
<line x1="45.000000" y1="295.000000" x2="308.100000" y2="295.000000"  style="stroke: black; stroke-linecap:round; stroke-width:0.25; stroke-dasharray:3,3;"/>
<line x1="308.100000" y1="295.000000" x2="308.100000" y2="253.000000"  style="stroke: black; stroke-linecap:round; stroke-width:0.25; stroke-dasharray:3,3;"/>
<line x1="45.000000" y1="253.000000" x2="50.000000" y2="253.000000"  style="stroke: black; stroke-linecap:round; stroke-width:0.25; stroke-dasharray:3,3;"/>
<line x1="108.050000" y1="253.000000" x2="308.100000" y2="253.000000"  style="stroke: black; stroke-linecap:round; stroke-width:0.25; stroke-dasharray:3,3;"/>
<text x="50.000000" y="255.000000" font-family="Arial" font-size="7">vgroup(mid band)</text>
<line x1="35.000000" y1="243.000000" x2="35.000000" y2="305.000000"  style="stroke: black; stroke-linecap:round; stroke-width:0.25; stroke-dasharray:3,3;"/>
<line x1="35.000000" y1="305.000000" x2="318.100000" y2="305.000000"  style="stroke: black; stroke-linecap:round; stroke-width:0.25; stroke-dasharray:3,3;"/>
<line x1="318.100000" y1="305.000000" x2="318.100000" y2="243.000000"  style="stroke: black; stroke-linecap:round; stroke-width:0.25; stroke-dasharray:3,3;"/>
<line x1="35.000000" y1="243.000000" x2="40.000000" y2="243.000000"  style="stroke: black; stroke-linecap:round; stroke-width:0.25; stroke-dasharray:3,3;"/>
<line x1="104.500000" y1="243.000000" x2="318.100000" y2="243.000000"  style="stroke: black; stroke-linecap:round; stroke-width:0.25; stroke-dasharray:3,3;"/>
<text x="40.000000" y="245.000000" font-family="Arial" font-size="7">hgroup(parameters)</text>
<line x1="25.000000" y1="233.000000" x2="25.000000" y2="315.000000"  style="stroke: black; stroke-linecap:round; stroke-width:0.25; stroke-dasharray:3,3;"/>
<line x1="25.000000" y1="315.000000" x2="328.100000" y2="315.000000"  style="stroke: black; stroke-linecap:round; stroke-width:0.25; stroke-dasharray:3,3;"/>
<line x1="328.100000" y1="315.000000" x2="328.100000" y2="233.000000"  style="stroke: black; stroke-linecap:round; stroke-width:0.25; stroke-dasharray:3,3;"/>
<line x1="25.000000" y1="233.000000" x2="30.000000" y2="233.000000"  style="stroke: black; stroke-linecap:round; stroke-width:0.25; stroke-dasharray:3,3;"/>
<line x1="94.500000" y1="233.000000" x2="328.100000" y2="233.000000"  style="stroke: black; stroke-linecap:round; stroke-width:0.25; stroke-dasharray:3,3;"/>
<text x="30.000000" y="235.000000" font-family="Arial" font-size="7">phaseNoiseFreqBand</text>
<rect x="346.100000" y="247.000000" width="24.000000" height="24.000000" rx="0" ry="0" style="stroke:none;fill:#cccccc;"/>
<rect x="345.100000" y="246.000000" width="24.000000" height="24.000000" rx="0" ry="0" style="stroke:none;fill:#4B71A1;"/>
<text x="357.100000" y="260.000000" font-family="Arial" font-size="7" text-anchor="middle" fill="#FFFFFF">-</text>
<circle cx="347.100000" cy="248.000000" r="1"/>
<line x1="342.100000" y1="253.000000" x2="345.100000" y2="254.000000"  transform="rotate(0.000000,345.100000,254.000000)" style="stroke: black; stroke-width:0.25;"/>
<line x1="342.100000" y1="255.000000" x2="345.100000" y2="254.000000"  transform="rotate(0.000000,345.100000,254.000000)" style="stroke: black; stroke-width:0.25;"/>
<line x1="342.100000" y1="261.000000" x2="345.100000" y2="262.000000"  transform="rotate(0.000000,345.100000,262.000000)" style="stroke: black; stroke-width:0.25;"/>
<line x1="342.100000" y1="263.000000" x2="345.100000" y2="262.000000"  transform="rotate(0.000000,345.100000,262.000000)" style="stroke: black; stroke-width:0.25;"/>
<rect x="386.100000" y="159.000000" width="24.000000" height="24.000000" rx="0" ry="0" style="stroke:none;fill:#cccccc;"/>
<rect x="385.100000" y="158.000000" width="24.000000" height="24.000000" rx="0" ry="0" style="stroke:none;fill:#4B71A1;"/>
<text x="397.100000" y="172.000000" font-family="Arial" font-size="7" text-anchor="middle" fill="#FFFFFF">/</text>
<circle cx="387.100000" cy="160.000000" r="1"/>
<line x1="382.100000" y1="165.000000" x2="385.100000" y2="166.000000"  transform="rotate(0.000000,385.100000,166.000000)" style="stroke: black; stroke-width:0.25;"/>
<line x1="382.100000" y1="167.000000" x2="385.100000" y2="166.000000"  transform="rotate(0.000000,385.100000,166.000000)" style="stroke: black; stroke-width:0.25;"/>
<line x1="382.100000" y1="173.000000" x2="385.100000" y2="174.000000"  transform="rotate(0.000000,385.100000,174.000000)" style="stroke: black; stroke-width:0.25;"/>
<line x1="382.100000" y1="175.000000" x2="385.100000" y2="174.000000"  transform="rotate(0.000000,385.100000,174.000000)" style="stroke: black; stroke-width:0.25;"/>
<line x1="15.000000" y1="15.000000" x2="15.000000" y2="325.000000"  style="stroke: black; stroke-linecap:round; stroke-width:0.25; stroke-dasharray:3,3;"/>
<line x1="15.000000" y1="325.000000" x2="426.100000" y2="325.000000"  style="stroke: black; stroke-linecap:round; stroke-width:0.25; stroke-dasharray:3,3;"/>
<line x1="426.100000" y1="325.000000" x2="426.100000" y2="15.000000"  style="stroke: black; stroke-linecap:round; stroke-width:0.25; stroke-dasharray:3,3;"/>
<line x1="15.000000" y1="15.000000" x2="20.000000" y2="15.000000"  style="stroke: black; stroke-linecap:round; stroke-width:0.25; stroke-dasharray:3,3;"/>
<line x1="65.150000" y1="15.000000" x2="426.100000" y2="15.000000"  style="stroke: black; stroke-linecap:round; stroke-width:0.25; stroke-dasharray:3,3;"/>
<text x="20.000000" y="17.000000" font-family="Arial" font-size="7">midToTop(14)</text>
<line x1="428.100000" y1="169.000000" x2="431.100000" y2="170.000000"  transform="rotate(0.000000,431.100000,170.000000)" style="stroke: black; stroke-width:0.25;"/>
<line x1="428.100000" y1="171.000000" x2="431.100000" y2="170.000000"  transform="rotate(0.000000,431.100000,170.000000)" style="stroke: black; stroke-width:0.25;"/>
<line x1="168.550000" y1="36.000000" x2="172.550000" y2="36.000000"  style="stroke:black; stroke-linecap:round; stroke-width:0.25;"/>
<line x1="168.550000" y1="78.000000" x2="172.550000" y2="78.000000"  style="stroke:black; stroke-linecap:round; stroke-width:0.25;"/>
<line x1="172.550000" y1="36.000000" x2="182.550000" y2="36.000000"  style="stroke:black; stroke-linecap:round; stroke-width:0.25;"/>
<line x1="172.550000" y1="78.000000" x2="182.550000" y2="78.000000"  style="stroke:black; stroke-linecap:round; stroke-width:0.25;"/>
<line x1="182.550000" y1="36.000000" x2="190.550000" y2="36.000000"  style="stroke:black; stroke-linecap:round; stroke-width:0.25;"/>
<line x1="182.550000" y1="66.000000" x2="190.550000" y2="66.000000"  style="stroke:black; stroke-linecap:round; stroke-width:0.25;"/>
<line x1="182.550000" y1="78.000000" x2="182.550000" y2="66.000000"  style="stroke:black; stroke-linecap:round; stroke-width:0.25;"/>
<line x1="182.550000" y1="78.000000" x2="182.550000" y2="78.000000"  style="stroke:black; stroke-linecap:round; stroke-width:0.25;"/>
<line x1="190.550000" y1="36.000000" x2="190.550000" y2="58.000000"  style="stroke:black; stroke-linecap:round; stroke-width:0.25;"/>
<line x1="190.550000" y1="58.000000" x2="190.550000" y2="58.000000"  style="stroke:black; stroke-linecap:round; stroke-width:0.25;"/>
<line x1="190.550000" y1="58.000000" x2="194.550000" y2="58.000000"  style="stroke:black; stroke-linecap:round; stroke-width:0.25;"/>
<line x1="190.550000" y1="66.000000" x2="194.550000" y2="66.000000"  style="stroke:black; stroke-linecap:round; stroke-width:0.25;"/>
<line x1="195.900000" y1="212.000000" x2="199.900000" y2="212.000000"  style="stroke:black; stroke-linecap:round; stroke-width:0.25;"/>
<line x1="199.900000" y1="212.000000" x2="333.100000" y2="212.000000"  style="stroke:black; stroke-linecap:round; stroke-width:0.25;"/>
<line x1="218.550000" y1="62.000000" x2="222.550000" y2="62.000000"  style="stroke:black; stroke-linecap:round; stroke-width:0.25;"/>
<line x1="222.550000" y1="62.000000" x2="333.100000" y2="62.000000"  style="stroke:black; stroke-linecap:round; stroke-width:0.25;"/>
<line x1="299.100000" y1="150.000000" x2="303.100000" y2="150.000000"  style="stroke:black; stroke-linecap:round; stroke-width:0.25;"/>
<line x1="299.100000" y1="274.000000" x2="303.100000" y2="274.000000"  style="stroke:black; stroke-linecap:round; stroke-width:0.25;"/>
<line x1="303.100000" y1="150.000000" x2="313.100000" y2="150.000000"  style="stroke:black; stroke-linecap:round; stroke-width:0.25;"/>
<line x1="303.100000" y1="274.000000" x2="313.100000" y2="274.000000"  style="stroke:black; stroke-linecap:round; stroke-width:0.25;"/>
<line x1="313.100000" y1="150.000000" x2="323.100000" y2="150.000000"  style="stroke:black; stroke-linecap:round; stroke-width:0.25;"/>
<line x1="313.100000" y1="274.000000" x2="323.100000" y2="274.000000"  style="stroke:black; stroke-linecap:round; stroke-width:0.25;"/>
<line x1="323.100000" y1="150.000000" x2="333.100000" y2="150.000000"  style="stroke:black; stroke-linecap:round; stroke-width:0.25;"/>
<line x1="323.100000" y1="274.000000" x2="333.100000" y2="274.000000"  style="stroke:black; stroke-linecap:round; stroke-width:0.25;"/>
<line x1="333.100000" y1="62.000000" x2="341.100000" y2="62.000000"  style="stroke:black; stroke-linecap:round; stroke-width:0.25;"/>
<line x1="333.100000" y1="112.000000" x2="341.100000" y2="112.000000"  style="stroke:black; stroke-linecap:round; stroke-width:0.25;"/>
<line x1="333.100000" y1="150.000000" x2="333.100000" y2="112.000000"  style="stroke:black; stroke-linecap:round; stroke-width:0.25;"/>
<line x1="333.100000" y1="150.000000" x2="333.100000" y2="150.000000"  style="stroke:black; stroke-linecap:round; stroke-width:0.25;"/>
<line x1="333.100000" y1="212.000000" x2="341.100000" y2="212.000000"  style="stroke:black; stroke-linecap:round; stroke-width:0.25;"/>
<line x1="333.100000" y1="262.000000" x2="341.100000" y2="262.000000"  style="stroke:black; stroke-linecap:round; stroke-width:0.25;"/>
<line x1="333.100000" y1="274.000000" x2="333.100000" y2="262.000000"  style="stroke:black; stroke-linecap:round; stroke-width:0.25;"/>
<line x1="333.100000" y1="274.000000" x2="333.100000" y2="274.000000"  style="stroke:black; stroke-linecap:round; stroke-width:0.25;"/>
<line x1="341.100000" y1="62.000000" x2="341.100000" y2="104.000000"  style="stroke:black; stroke-linecap:round; stroke-width:0.25;"/>
<line x1="341.100000" y1="104.000000" x2="341.100000" y2="104.000000"  style="stroke:black; stroke-linecap:round; stroke-width:0.25;"/>
<line x1="341.100000" y1="104.000000" x2="345.100000" y2="104.000000"  style="stroke:black; stroke-linecap:round; stroke-width:0.25;"/>
<line x1="341.100000" y1="112.000000" x2="345.100000" y2="112.000000"  style="stroke:black; stroke-linecap:round; stroke-width:0.25;"/>
<line x1="341.100000" y1="212.000000" x2="341.100000" y2="254.000000"  style="stroke:black; stroke-linecap:round; stroke-width:0.25;"/>
<line x1="341.100000" y1="254.000000" x2="341.100000" y2="254.000000"  style="stroke:black; stroke-linecap:round; stroke-width:0.25;"/>
<line x1="341.100000" y1="254.000000" x2="345.100000" y2="254.000000"  style="stroke:black; stroke-linecap:round; stroke-width:0.25;"/>
<line x1="341.100000" y1="262.000000" x2="345.100000" y2="262.000000"  style="stroke:black; stroke-linecap:round; stroke-width:0.25;"/>
<line x1="369.100000" y1="108.000000" x2="373.100000" y2="108.000000"  style="stroke:black; stroke-linecap:round; stroke-width:0.25;"/>
<line x1="369.100000" y1="258.000000" x2="373.100000" y2="258.000000"  style="stroke:black; stroke-linecap:round; stroke-width:0.25;"/>
<line x1="373.100000" y1="108.000000" x2="381.100000" y2="108.000000"  style="stroke:black; stroke-linecap:round; stroke-width:0.25;"/>
<line x1="373.100000" y1="174.000000" x2="381.100000" y2="174.000000"  style="stroke:black; stroke-linecap:round; stroke-width:0.25;"/>
<line x1="373.100000" y1="258.000000" x2="373.100000" y2="174.000000"  style="stroke:black; stroke-linecap:round; stroke-width:0.25;"/>
<line x1="373.100000" y1="258.000000" x2="373.100000" y2="258.000000"  style="stroke:black; stroke-linecap:round; stroke-width:0.25;"/>
<line x1="381.100000" y1="108.000000" x2="381.100000" y2="166.000000"  style="stroke:black; stroke-linecap:round; stroke-width:0.25;"/>
<line x1="381.100000" y1="166.000000" x2="381.100000" y2="166.000000"  style="stroke:black; stroke-linecap:round; stroke-width:0.25;"/>
<line x1="381.100000" y1="166.000000" x2="385.100000" y2="166.000000"  style="stroke:black; stroke-linecap:round; stroke-width:0.25;"/>
<line x1="381.100000" y1="174.000000" x2="385.100000" y2="174.000000"  style="stroke:black; stroke-linecap:round; stroke-width:0.25;"/>
<line x1="409.100000" y1="170.000000" x2="413.100000" y2="170.000000"  style="stroke:black; stroke-linecap:round; stroke-width:0.25;"/>
<line x1="413.100000" y1="170.000000" x2="413.100000" y2="170.000000"  style="stroke:black; stroke-linecap:round; stroke-width:0.25;"/>
<line x1="413.100000" y1="170.000000" x2="417.100000" y2="170.000000"  style="stroke:black; stroke-linecap:round; stroke-width:0.25;"/>
<line x1="417.100000" y1="170.000000" x2="421.100000" y2="170.000000"  style="stroke:black; stroke-linecap:round; stroke-width:0.25;"/>
<line x1="421.100000" y1="170.000000" x2="431.100000" y2="170.000000"  style="stroke:black; stroke-linecap:round; stroke-width:0.25;"/>
</svg>
