<?xml version="1.0"?>
<svg xmlns="http://www.w3.org/2000/svg" xmlns:xlink="http://www.w3.org/1999/xlink" viewBox="0 0 574.500000 432.000000" width="287.250000mm" height="216.000000mm" version="1.1">
<a xlink:href="midToBottomVal-0x2447ad20.svg">
<rect x="1.000000" y="1.000000" width="573.500000" height="431.000000" rx="0" ry="0" style="stroke:none;fill:#cccccc;"/>
<rect x="0.000000" y="0.000000" width="573.500000" height="431.000000" rx="0" ry="0" style="stroke:none;fill:#ffffff;"/>
</a>
<text x="10.000000" y="7.000000" font-family="Arial" font-size="7"></text>
<a xlink:href="origMid-0x2447a520.svg">
<rect x="204.900000" y="25.000000" width="38.700000" height="24.000000" rx="0" ry="0" style="stroke:none;fill:#cccccc;"/>
<rect x="203.900000" y="24.000000" width="38.700000" height="24.000000" rx="0" ry="0" style="stroke:none;fill:#003366;"/>
</a>
<a xlink:href="origMid-0x2447a520.svg">
<text x="223.250000" y="38.000000" font-family="Arial" font-size="7" text-anchor="middle" fill="#FFFFFF">origMid</text>
</a>
<circle cx="205.900000" cy="26.000000" r="1"/>
<rect x="192.250000" y="67.000000" width="24.000000" height="24.000000" rx="0" ry="0" style="stroke:none;fill:#cccccc;"/>
<rect x="191.250000" y="66.000000" width="24.000000" height="24.000000" rx="0" ry="0" style="stroke:none;fill:#f44800;"/>
<text x="203.250000" y="80.000000" font-family="Arial" font-size="7" text-anchor="middle" fill="#FFFFFF">1</text>
<circle cx="193.250000" cy="68.000000" r="1"/>
<line x1="182.250000" y1="57.000000" x2="182.250000" y2="99.000000"  style="stroke: black; stroke-linecap:round; stroke-width:0.25; stroke-dasharray:3,3;"/>
<line x1="182.250000" y1="99.000000" x2="224.250000" y2="99.000000"  style="stroke: black; stroke-linecap:round; stroke-width:0.25; stroke-dasharray:3,3;"/>
<line x1="224.250000" y1="99.000000" x2="224.250000" y2="57.000000"  style="stroke: black; stroke-linecap:round; stroke-width:0.25; stroke-dasharray:3,3;"/>
<line x1="182.250000" y1="57.000000" x2="187.250000" y2="57.000000"  style="stroke: black; stroke-linecap:round; stroke-width:0.25; stroke-dasharray:3,3;"/>
<line x1="200.150000" y1="57.000000" x2="224.250000" y2="57.000000"  style="stroke: black; stroke-linecap:round; stroke-width:0.25; stroke-dasharray:3,3;"/>
<text x="187.250000" y="59.000000" font-family="Arial" font-size="7">b1</text>
<rect x="91.500000" y="139.000000" width="193.500000" height="24.000000" rx="0" ry="0" style="stroke:none;fill:#cccccc;"/>
<rect x="90.500000" y="138.000000" width="193.500000" height="24.000000" rx="0" ry="0" style="stroke:none;fill:#477881;"/>
<text x="187.250000" y="152.000000" font-family="Arial" font-size="7" text-anchor="middle" fill="#FFFFFF">vslider(indexMid, 0.0f, -1.0f, 1.0f, 0.001f)</text>
<circle cx="92.500000" cy="140.000000" r="1"/>
<line x1="81.500000" y1="129.000000" x2="81.500000" y2="171.000000"  style="stroke: black; stroke-linecap:round; stroke-width:0.25; stroke-dasharray:3,3;"/>
<line x1="81.500000" y1="171.000000" x2="293.000000" y2="171.000000"  style="stroke: black; stroke-linecap:round; stroke-width:0.25; stroke-dasharray:3,3;"/>
<line x1="293.000000" y1="171.000000" x2="293.000000" y2="129.000000"  style="stroke: black; stroke-linecap:round; stroke-width:0.25; stroke-dasharray:3,3;"/>
<line x1="81.500000" y1="129.000000" x2="86.500000" y2="129.000000"  style="stroke: black; stroke-linecap:round; stroke-width:0.25; stroke-dasharray:3,3;"/>
<line x1="167.125000" y1="129.000000" x2="293.000000" y2="129.000000"  style="stroke: black; stroke-linecap:round; stroke-width:0.25; stroke-dasharray:3,3;"/>
<text x="86.500000" y="131.000000" font-family="Arial" font-size="7">vgroup(mid frequencies)</text>
<line x1="71.500000" y1="119.000000" x2="71.500000" y2="181.000000"  style="stroke: black; stroke-linecap:round; stroke-width:0.25; stroke-dasharray:3,3;"/>
<line x1="71.500000" y1="181.000000" x2="303.000000" y2="181.000000"  style="stroke: black; stroke-linecap:round; stroke-width:0.25; stroke-dasharray:3,3;"/>
<line x1="303.000000" y1="181.000000" x2="303.000000" y2="119.000000"  style="stroke: black; stroke-linecap:round; stroke-width:0.25; stroke-dasharray:3,3;"/>
<line x1="71.500000" y1="119.000000" x2="76.500000" y2="119.000000"  style="stroke: black; stroke-linecap:round; stroke-width:0.25; stroke-dasharray:3,3;"/>
<line x1="141.000000" y1="119.000000" x2="303.000000" y2="119.000000"  style="stroke: black; stroke-linecap:round; stroke-width:0.25; stroke-dasharray:3,3;"/>
<text x="76.500000" y="121.000000" font-family="Arial" font-size="7">hgroup(parameters)</text>
<line x1="61.500000" y1="109.000000" x2="61.500000" y2="191.000000"  style="stroke: black; stroke-linecap:round; stroke-width:0.25; stroke-dasharray:3,3;"/>
<line x1="61.500000" y1="191.000000" x2="313.000000" y2="191.000000"  style="stroke: black; stroke-linecap:round; stroke-width:0.25; stroke-dasharray:3,3;"/>
<line x1="313.000000" y1="191.000000" x2="313.000000" y2="109.000000"  style="stroke: black; stroke-linecap:round; stroke-width:0.25; stroke-dasharray:3,3;"/>
<line x1="61.500000" y1="109.000000" x2="66.500000" y2="109.000000"  style="stroke: black; stroke-linecap:round; stroke-width:0.25; stroke-dasharray:3,3;"/>
<line x1="105.200000" y1="109.000000" x2="313.000000" y2="109.000000"  style="stroke: black; stroke-linecap:round; stroke-width:0.25; stroke-dasharray:3,3;"/>
<text x="66.500000" y="111.000000" font-family="Arial" font-size="7">FMindexMid</text>
<rect x="323.000000" y="139.000000" width="24.000000" height="24.000000" rx="0" ry="0" style="stroke:none;fill:#cccccc;"/>
<rect x="322.000000" y="138.000000" width="24.000000" height="24.000000" rx="0" ry="0" style="stroke:none;fill:#4B71A1;"/>
<text x="334.000000" y="152.000000" font-family="Arial" font-size="7" text-anchor="middle" fill="#FFFFFF">abs</text>
<circle cx="324.000000" cy="140.000000" r="1"/>
<line x1="319.000000" y1="149.000000" x2="322.000000" y2="150.000000"  transform="rotate(0.000000,322.000000,150.000000)" style="stroke: black; stroke-width:0.25;"/>
<line x1="319.000000" y1="151.000000" x2="322.000000" y2="150.000000"  transform="rotate(0.000000,322.000000,150.000000)" style="stroke: black; stroke-width:0.25;"/>
<rect x="363.000000" y="113.000000" width="24.000000" height="24.000000" rx="0" ry="0" style="stroke:none;fill:#cccccc;"/>
<rect x="362.000000" y="112.000000" width="24.000000" height="24.000000" rx="0" ry="0" style="stroke:none;fill:#4B71A1;"/>
<text x="374.000000" y="126.000000" font-family="Arial" font-size="7" text-anchor="middle" fill="#FFFFFF">-</text>
<circle cx="364.000000" cy="114.000000" r="1"/>
<line x1="359.000000" y1="119.000000" x2="362.000000" y2="120.000000"  transform="rotate(0.000000,362.000000,120.000000)" style="stroke: black; stroke-width:0.25;"/>
<line x1="359.000000" y1="121.000000" x2="362.000000" y2="120.000000"  transform="rotate(0.000000,362.000000,120.000000)" style="stroke: black; stroke-width:0.25;"/>
<line x1="359.000000" y1="127.000000" x2="362.000000" y2="128.000000"  transform="rotate(0.000000,362.000000,128.000000)" style="stroke: black; stroke-width:0.25;"/>
<line x1="359.000000" y1="129.000000" x2="362.000000" y2="128.000000"  transform="rotate(0.000000,362.000000,128.000000)" style="stroke: black; stroke-width:0.25;"/>
<rect x="403.000000" y="97.000000" width="24.000000" height="24.000000" rx="0" ry="0" style="stroke:none;fill:#cccccc;"/>
<rect x="402.000000" y="96.000000" width="24.000000" height="24.000000" rx="0" ry="0" style="stroke:none;fill:#4B71A1;"/>
<text x="414.000000" y="110.000000" font-family="Arial" font-size="7" text-anchor="middle" fill="#FFFFFF">*</text>
<circle cx="404.000000" cy="98.000000" r="1"/>
<line x1="399.000000" y1="103.000000" x2="402.000000" y2="104.000000"  transform="rotate(0.000000,402.000000,104.000000)" style="stroke: black; stroke-width:0.25;"/>
<line x1="399.000000" y1="105.000000" x2="402.000000" y2="104.000000"  transform="rotate(0.000000,402.000000,104.000000)" style="stroke: black; stroke-width:0.25;"/>
<line x1="399.000000" y1="111.000000" x2="402.000000" y2="112.000000"  transform="rotate(0.000000,402.000000,112.000000)" style="stroke: black; stroke-width:0.25;"/>
<line x1="399.000000" y1="113.000000" x2="402.000000" y2="112.000000"  transform="rotate(0.000000,402.000000,112.000000)" style="stroke: black; stroke-width:0.25;"/>
<rect x="55.000000" y="231.000000" width="193.500000" height="24.000000" rx="0" ry="0" style="stroke:none;fill:#cccccc;"/>
<rect x="54.000000" y="230.000000" width="193.500000" height="24.000000" rx="0" ry="0" style="stroke:none;fill:#477881;"/>
<text x="150.750000" y="244.000000" font-family="Arial" font-size="7" text-anchor="middle" fill="#FFFFFF">vslider(indexMid, 0.0f, -1.0f, 1.0f, 0.001f)</text>
<circle cx="56.000000" cy="232.000000" r="1"/>
<line x1="45.000000" y1="221.000000" x2="45.000000" y2="263.000000"  style="stroke: black; stroke-linecap:round; stroke-width:0.25; stroke-dasharray:3,3;"/>
<line x1="45.000000" y1="263.000000" x2="256.500000" y2="263.000000"  style="stroke: black; stroke-linecap:round; stroke-width:0.25; stroke-dasharray:3,3;"/>
<line x1="256.500000" y1="263.000000" x2="256.500000" y2="221.000000"  style="stroke: black; stroke-linecap:round; stroke-width:0.25; stroke-dasharray:3,3;"/>
<line x1="45.000000" y1="221.000000" x2="50.000000" y2="221.000000"  style="stroke: black; stroke-linecap:round; stroke-width:0.25; stroke-dasharray:3,3;"/>
<line x1="130.625000" y1="221.000000" x2="256.500000" y2="221.000000"  style="stroke: black; stroke-linecap:round; stroke-width:0.25; stroke-dasharray:3,3;"/>
<text x="50.000000" y="223.000000" font-family="Arial" font-size="7">vgroup(mid frequencies)</text>
<line x1="35.000000" y1="211.000000" x2="35.000000" y2="273.000000"  style="stroke: black; stroke-linecap:round; stroke-width:0.25; stroke-dasharray:3,3;"/>
<line x1="35.000000" y1="273.000000" x2="266.500000" y2="273.000000"  style="stroke: black; stroke-linecap:round; stroke-width:0.25; stroke-dasharray:3,3;"/>
<line x1="266.500000" y1="273.000000" x2="266.500000" y2="211.000000"  style="stroke: black; stroke-linecap:round; stroke-width:0.25; stroke-dasharray:3,3;"/>
<line x1="35.000000" y1="211.000000" x2="40.000000" y2="211.000000"  style="stroke: black; stroke-linecap:round; stroke-width:0.25; stroke-dasharray:3,3;"/>
<line x1="104.500000" y1="211.000000" x2="266.500000" y2="211.000000"  style="stroke: black; stroke-linecap:round; stroke-width:0.25; stroke-dasharray:3,3;"/>
<text x="40.000000" y="213.000000" font-family="Arial" font-size="7">hgroup(parameters)</text>
<line x1="25.000000" y1="201.000000" x2="25.000000" y2="283.000000"  style="stroke: black; stroke-linecap:round; stroke-width:0.25; stroke-dasharray:3,3;"/>
<line x1="25.000000" y1="283.000000" x2="276.500000" y2="283.000000"  style="stroke: black; stroke-linecap:round; stroke-width:0.25; stroke-dasharray:3,3;"/>
<line x1="276.500000" y1="283.000000" x2="276.500000" y2="201.000000"  style="stroke: black; stroke-linecap:round; stroke-width:0.25; stroke-dasharray:3,3;"/>
<line x1="25.000000" y1="201.000000" x2="30.000000" y2="201.000000"  style="stroke: black; stroke-linecap:round; stroke-width:0.25; stroke-dasharray:3,3;"/>
<line x1="68.700000" y1="201.000000" x2="276.500000" y2="201.000000"  style="stroke: black; stroke-linecap:round; stroke-width:0.25; stroke-dasharray:3,3;"/>
<text x="30.000000" y="203.000000" font-family="Arial" font-size="7">FMindexMid</text>
<rect x="327.000000" y="211.000000" width="24.000000" height="24.000000" rx="0" ry="0" style="stroke:none;fill:#cccccc;"/>
<rect x="326.000000" y="210.000000" width="24.000000" height="24.000000" rx="0" ry="0" style="stroke:none;fill:#f44800;"/>
<text x="338.000000" y="224.000000" font-family="Arial" font-size="7" text-anchor="middle" fill="#FFFFFF">0</text>
<circle cx="328.000000" cy="212.000000" r="1"/>
<line x1="317.000000" y1="201.000000" x2="317.000000" y2="243.000000"  style="stroke: black; stroke-linecap:round; stroke-width:0.25; stroke-dasharray:3,3;"/>
<line x1="317.000000" y1="243.000000" x2="359.000000" y2="243.000000"  style="stroke: black; stroke-linecap:round; stroke-width:0.25; stroke-dasharray:3,3;"/>
<line x1="359.000000" y1="243.000000" x2="359.000000" y2="201.000000"  style="stroke: black; stroke-linecap:round; stroke-width:0.25; stroke-dasharray:3,3;"/>
<line x1="317.000000" y1="201.000000" x2="322.000000" y2="201.000000"  style="stroke: black; stroke-linecap:round; stroke-width:0.25; stroke-dasharray:3,3;"/>
<line x1="334.900000" y1="201.000000" x2="359.000000" y2="201.000000"  style="stroke: black; stroke-linecap:round; stroke-width:0.25; stroke-dasharray:3,3;"/>
<text x="322.000000" y="203.000000" font-family="Arial" font-size="7">b2</text>
<rect x="377.000000" y="215.000000" width="24.000000" height="24.000000" rx="0" ry="0" style="stroke:none;fill:#cccccc;"/>
<rect x="376.000000" y="214.000000" width="24.000000" height="24.000000" rx="0" ry="0" style="stroke:none;fill:#4B71A1;"/>
<text x="388.000000" y="228.000000" font-family="Arial" font-size="7" text-anchor="middle" fill="#FFFFFF">max</text>
<circle cx="378.000000" cy="216.000000" r="1"/>
<line x1="373.000000" y1="221.000000" x2="376.000000" y2="222.000000"  transform="rotate(0.000000,376.000000,222.000000)" style="stroke: black; stroke-width:0.25;"/>
<line x1="373.000000" y1="223.000000" x2="376.000000" y2="222.000000"  transform="rotate(0.000000,376.000000,222.000000)" style="stroke: black; stroke-width:0.25;"/>
<line x1="373.000000" y1="229.000000" x2="376.000000" y2="230.000000"  transform="rotate(0.000000,376.000000,230.000000)" style="stroke: black; stroke-width:0.25;"/>
<line x1="373.000000" y1="231.000000" x2="376.000000" y2="230.000000"  transform="rotate(0.000000,376.000000,230.000000)" style="stroke: black; stroke-width:0.25;"/>
<a xlink:href="hz2pianokey-0x563d680.svg">
<rect x="294.500000" y="261.000000" width="129.000000" height="24.000000" rx="0" ry="0" style="stroke:none;fill:#cccccc;"/>
<rect x="293.500000" y="260.000000" width="129.000000" height="24.000000" rx="0" ry="0" style="stroke:none;fill:#003366;"/>
</a>
<a xlink:href="hz2pianokey-0x563d680.svg">
<text x="358.000000" y="274.000000" font-family="Arial" font-size="7" text-anchor="middle" fill="#FFFFFF">hz2pianokey(h...-08f,_ : max)</text>
</a>
<circle cx="295.500000" cy="262.000000" r="1"/>
<rect x="439.500000" y="231.000000" width="24.000000" height="24.000000" rx="0" ry="0" style="stroke:none;fill:#cccccc;"/>
<rect x="438.500000" y="230.000000" width="24.000000" height="24.000000" rx="0" ry="0" style="stroke:none;fill:#4B71A1;"/>
<text x="450.500000" y="244.000000" font-family="Arial" font-size="7" text-anchor="middle" fill="#FFFFFF">*</text>
<circle cx="440.500000" cy="232.000000" r="1"/>
<line x1="435.500000" y1="237.000000" x2="438.500000" y2="238.000000"  transform="rotate(0.000000,438.500000,238.000000)" style="stroke: black; stroke-width:0.25;"/>
<line x1="435.500000" y1="239.000000" x2="438.500000" y2="238.000000"  transform="rotate(0.000000,438.500000,238.000000)" style="stroke: black; stroke-width:0.25;"/>
<line x1="435.500000" y1="245.000000" x2="438.500000" y2="246.000000"  transform="rotate(0.000000,438.500000,246.000000)" style="stroke: black; stroke-width:0.25;"/>
<line x1="435.500000" y1="247.000000" x2="438.500000" y2="246.000000"  transform="rotate(0.000000,438.500000,246.000000)" style="stroke: black; stroke-width:0.25;"/>
<rect x="479.500000" y="143.000000" width="24.000000" height="24.000000" rx="0" ry="0" style="stroke:none;fill:#cccccc;"/>
<rect x="478.500000" y="142.000000" width="24.000000" height="24.000000" rx="0" ry="0" style="stroke:none;fill:#4B71A1;"/>
<text x="490.500000" y="156.000000" font-family="Arial" font-size="7" text-anchor="middle" fill="#FFFFFF">+</text>
<circle cx="480.500000" cy="144.000000" r="1"/>
<line x1="475.500000" y1="149.000000" x2="478.500000" y2="150.000000"  transform="rotate(0.000000,478.500000,150.000000)" style="stroke: black; stroke-width:0.25;"/>
<line x1="475.500000" y1="151.000000" x2="478.500000" y2="150.000000"  transform="rotate(0.000000,478.500000,150.000000)" style="stroke: black; stroke-width:0.25;"/>
<line x1="475.500000" y1="157.000000" x2="478.500000" y2="158.000000"  transform="rotate(0.000000,478.500000,158.000000)" style="stroke: black; stroke-width:0.25;"/>
<line x1="475.500000" y1="159.000000" x2="478.500000" y2="158.000000"  transform="rotate(0.000000,478.500000,158.000000)" style="stroke: black; stroke-width:0.25;"/>
<rect x="75.000000" y="339.000000" width="193.500000" height="24.000000" rx="0" ry="0" style="stroke:none;fill:#cccccc;"/>
<rect x="74.000000" y="338.000000" width="193.500000" height="24.000000" rx="0" ry="0" style="stroke:none;fill:#477881;"/>
<text x="170.750000" y="352.000000" font-family="Arial" font-size="7" text-anchor="middle" fill="#FFFFFF">vslider(indexMid, 0.0f, -1.0f, 1.0f, 0.001f)</text>
<circle cx="76.000000" cy="340.000000" r="1"/>
<line x1="65.000000" y1="329.000000" x2="65.000000" y2="371.000000"  style="stroke: black; stroke-linecap:round; stroke-width:0.25; stroke-dasharray:3,3;"/>
<line x1="65.000000" y1="371.000000" x2="276.500000" y2="371.000000"  style="stroke: black; stroke-linecap:round; stroke-width:0.25; stroke-dasharray:3,3;"/>
<line x1="276.500000" y1="371.000000" x2="276.500000" y2="329.000000"  style="stroke: black; stroke-linecap:round; stroke-width:0.25; stroke-dasharray:3,3;"/>
<line x1="65.000000" y1="329.000000" x2="70.000000" y2="329.000000"  style="stroke: black; stroke-linecap:round; stroke-width:0.25; stroke-dasharray:3,3;"/>
<line x1="150.625000" y1="329.000000" x2="276.500000" y2="329.000000"  style="stroke: black; stroke-linecap:round; stroke-width:0.25; stroke-dasharray:3,3;"/>
<text x="70.000000" y="331.000000" font-family="Arial" font-size="7">vgroup(mid frequencies)</text>
<line x1="55.000000" y1="319.000000" x2="55.000000" y2="381.000000"  style="stroke: black; stroke-linecap:round; stroke-width:0.25; stroke-dasharray:3,3;"/>
<line x1="55.000000" y1="381.000000" x2="286.500000" y2="381.000000"  style="stroke: black; stroke-linecap:round; stroke-width:0.25; stroke-dasharray:3,3;"/>
<line x1="286.500000" y1="381.000000" x2="286.500000" y2="319.000000"  style="stroke: black; stroke-linecap:round; stroke-width:0.25; stroke-dasharray:3,3;"/>
<line x1="55.000000" y1="319.000000" x2="60.000000" y2="319.000000"  style="stroke: black; stroke-linecap:round; stroke-width:0.25; stroke-dasharray:3,3;"/>
<line x1="124.500000" y1="319.000000" x2="286.500000" y2="319.000000"  style="stroke: black; stroke-linecap:round; stroke-width:0.25; stroke-dasharray:3,3;"/>
<text x="60.000000" y="321.000000" font-family="Arial" font-size="7">hgroup(parameters)</text>
<line x1="45.000000" y1="309.000000" x2="45.000000" y2="391.000000"  style="stroke: black; stroke-linecap:round; stroke-width:0.25; stroke-dasharray:3,3;"/>
<line x1="45.000000" y1="391.000000" x2="296.500000" y2="391.000000"  style="stroke: black; stroke-linecap:round; stroke-width:0.25; stroke-dasharray:3,3;"/>
<line x1="296.500000" y1="391.000000" x2="296.500000" y2="309.000000"  style="stroke: black; stroke-linecap:round; stroke-width:0.25; stroke-dasharray:3,3;"/>
<line x1="45.000000" y1="309.000000" x2="50.000000" y2="309.000000"  style="stroke: black; stroke-linecap:round; stroke-width:0.25; stroke-dasharray:3,3;"/>
<line x1="88.700000" y1="309.000000" x2="296.500000" y2="309.000000"  style="stroke: black; stroke-linecap:round; stroke-width:0.25; stroke-dasharray:3,3;"/>
<text x="50.000000" y="311.000000" font-family="Arial" font-size="7">FMindexMid</text>
<rect x="327.000000" y="303.000000" width="24.000000" height="24.000000" rx="0" ry="0" style="stroke:none;fill:#cccccc;"/>
<rect x="326.000000" y="302.000000" width="24.000000" height="24.000000" rx="0" ry="0" style="stroke:none;fill:#f44800;"/>
<text x="338.000000" y="316.000000" font-family="Arial" font-size="7" text-anchor="middle" fill="#FFFFFF">0</text>
<circle cx="328.000000" cy="304.000000" r="1"/>
<line x1="317.000000" y1="293.000000" x2="317.000000" y2="335.000000"  style="stroke: black; stroke-linecap:round; stroke-width:0.25; stroke-dasharray:3,3;"/>
<line x1="317.000000" y1="335.000000" x2="359.000000" y2="335.000000"  style="stroke: black; stroke-linecap:round; stroke-width:0.25; stroke-dasharray:3,3;"/>
<line x1="359.000000" y1="335.000000" x2="359.000000" y2="293.000000"  style="stroke: black; stroke-linecap:round; stroke-width:0.25; stroke-dasharray:3,3;"/>
<line x1="317.000000" y1="293.000000" x2="322.000000" y2="293.000000"  style="stroke: black; stroke-linecap:round; stroke-width:0.25; stroke-dasharray:3,3;"/>
<line x1="334.900000" y1="293.000000" x2="359.000000" y2="293.000000"  style="stroke: black; stroke-linecap:round; stroke-width:0.25; stroke-dasharray:3,3;"/>
<text x="322.000000" y="295.000000" font-family="Arial" font-size="7">b2</text>
<rect x="377.000000" y="307.000000" width="24.000000" height="24.000000" rx="0" ry="0" style="stroke:none;fill:#cccccc;"/>
<rect x="376.000000" y="306.000000" width="24.000000" height="24.000000" rx="0" ry="0" style="stroke:none;fill:#4B71A1;"/>
<text x="388.000000" y="320.000000" font-family="Arial" font-size="7" text-anchor="middle" fill="#FFFFFF">min</text>
<circle cx="378.000000" cy="308.000000" r="1"/>
<line x1="373.000000" y1="313.000000" x2="376.000000" y2="314.000000"  transform="rotate(0.000000,376.000000,314.000000)" style="stroke: black; stroke-width:0.25;"/>
<line x1="373.000000" y1="315.000000" x2="376.000000" y2="314.000000"  transform="rotate(0.000000,376.000000,314.000000)" style="stroke: black; stroke-width:0.25;"/>
<line x1="373.000000" y1="321.000000" x2="376.000000" y2="322.000000"  transform="rotate(0.000000,376.000000,322.000000)" style="stroke: black; stroke-width:0.25;"/>
<line x1="373.000000" y1="323.000000" x2="376.000000" y2="322.000000"  transform="rotate(0.000000,376.000000,322.000000)" style="stroke: black; stroke-width:0.25;"/>
<rect x="347.000000" y="353.000000" width="24.000000" height="24.000000" rx="0" ry="0" style="stroke:none;fill:#cccccc;"/>
<rect x="346.000000" y="352.000000" width="24.000000" height="24.000000" rx="0" ry="0" style="stroke:none;fill:#f44800;"/>
<text x="358.000000" y="366.000000" font-family="Arial" font-size="7" text-anchor="middle" fill="#FFFFFF">-1</text>
<circle cx="348.000000" cy="354.000000" r="1"/>
<rect x="417.000000" y="323.000000" width="24.000000" height="24.000000" rx="0" ry="0" style="stroke:none;fill:#cccccc;"/>
<rect x="416.000000" y="322.000000" width="24.000000" height="24.000000" rx="0" ry="0" style="stroke:none;fill:#4B71A1;"/>
<text x="428.000000" y="336.000000" font-family="Arial" font-size="7" text-anchor="middle" fill="#FFFFFF">*</text>
<circle cx="418.000000" cy="324.000000" r="1"/>
<line x1="413.000000" y1="329.000000" x2="416.000000" y2="330.000000"  transform="rotate(0.000000,416.000000,330.000000)" style="stroke: black; stroke-width:0.25;"/>
<line x1="413.000000" y1="331.000000" x2="416.000000" y2="330.000000"  transform="rotate(0.000000,416.000000,330.000000)" style="stroke: black; stroke-width:0.25;"/>
<line x1="413.000000" y1="337.000000" x2="416.000000" y2="338.000000"  transform="rotate(0.000000,416.000000,338.000000)" style="stroke: black; stroke-width:0.25;"/>
<line x1="413.000000" y1="339.000000" x2="416.000000" y2="338.000000"  transform="rotate(0.000000,416.000000,338.000000)" style="stroke: black; stroke-width:0.25;"/>
<a xlink:href="hz2pianokey-0x56418f0.svg">
<rect x="314.500000" y="385.000000" width="129.000000" height="24.000000" rx="0" ry="0" style="stroke:none;fill:#cccccc;"/>
<rect x="313.500000" y="384.000000" width="129.000000" height="24.000000" rx="0" ry="0" style="stroke:none;fill:#003366;"/>
</a>
<a xlink:href="hz2pianokey-0x56418f0.svg">
<text x="378.000000" y="398.000000" font-family="Arial" font-size="7" text-anchor="middle" fill="#FFFFFF">hz2pianokey(h...-08f,_ : max)</text>
</a>
<circle cx="315.500000" cy="386.000000" r="1"/>
<rect x="459.500000" y="339.000000" width="24.000000" height="24.000000" rx="0" ry="0" style="stroke:none;fill:#cccccc;"/>
<rect x="458.500000" y="338.000000" width="24.000000" height="24.000000" rx="0" ry="0" style="stroke:none;fill:#4B71A1;"/>
<text x="470.500000" y="352.000000" font-family="Arial" font-size="7" text-anchor="middle" fill="#FFFFFF">*</text>
<circle cx="460.500000" cy="340.000000" r="1"/>
<line x1="455.500000" y1="345.000000" x2="458.500000" y2="346.000000"  transform="rotate(0.000000,458.500000,346.000000)" style="stroke: black; stroke-width:0.25;"/>
<line x1="455.500000" y1="347.000000" x2="458.500000" y2="346.000000"  transform="rotate(0.000000,458.500000,346.000000)" style="stroke: black; stroke-width:0.25;"/>
<line x1="455.500000" y1="353.000000" x2="458.500000" y2="354.000000"  transform="rotate(0.000000,458.500000,354.000000)" style="stroke: black; stroke-width:0.25;"/>
<line x1="455.500000" y1="355.000000" x2="458.500000" y2="354.000000"  transform="rotate(0.000000,458.500000,354.000000)" style="stroke: black; stroke-width:0.25;"/>
<rect x="519.500000" y="205.000000" width="24.000000" height="24.000000" rx="0" ry="0" style="stroke:none;fill:#cccccc;"/>
<rect x="518.500000" y="204.000000" width="24.000000" height="24.000000" rx="0" ry="0" style="stroke:none;fill:#4B71A1;"/>
<text x="530.500000" y="218.000000" font-family="Arial" font-size="7" text-anchor="middle" fill="#FFFFFF">+</text>
<circle cx="520.500000" cy="206.000000" r="1"/>
<line x1="515.500000" y1="211.000000" x2="518.500000" y2="212.000000"  transform="rotate(0.000000,518.500000,212.000000)" style="stroke: black; stroke-width:0.25;"/>
<line x1="515.500000" y1="213.000000" x2="518.500000" y2="212.000000"  transform="rotate(0.000000,518.500000,212.000000)" style="stroke: black; stroke-width:0.25;"/>
<line x1="515.500000" y1="219.000000" x2="518.500000" y2="220.000000"  transform="rotate(0.000000,518.500000,220.000000)" style="stroke: black; stroke-width:0.25;"/>
<line x1="515.500000" y1="221.000000" x2="518.500000" y2="220.000000"  transform="rotate(0.000000,518.500000,220.000000)" style="stroke: black; stroke-width:0.25;"/>
<line x1="15.000000" y1="15.000000" x2="15.000000" y2="417.000000"  style="stroke: black; stroke-linecap:round; stroke-width:0.25; stroke-dasharray:3,3;"/>
<line x1="15.000000" y1="417.000000" x2="559.500000" y2="417.000000"  style="stroke: black; stroke-linecap:round; stroke-width:0.25; stroke-dasharray:3,3;"/>
<line x1="559.500000" y1="417.000000" x2="559.500000" y2="15.000000"  style="stroke: black; stroke-linecap:round; stroke-width:0.25; stroke-dasharray:3,3;"/>
<line x1="15.000000" y1="15.000000" x2="20.000000" y2="15.000000"  style="stroke: black; stroke-linecap:round; stroke-width:0.25; stroke-dasharray:3,3;"/>
<line x1="45.800000" y1="15.000000" x2="559.500000" y2="15.000000"  style="stroke: black; stroke-linecap:round; stroke-width:0.25; stroke-dasharray:3,3;"/>
<text x="20.000000" y="17.000000" font-family="Arial" font-size="7">midVal</text>
<line x1="561.500000" y1="215.000000" x2="564.500000" y2="216.000000"  transform="rotate(0.000000,564.500000,216.000000)" style="stroke: black; stroke-width:0.25;"/>
<line x1="561.500000" y1="217.000000" x2="564.500000" y2="216.000000"  transform="rotate(0.000000,564.500000,216.000000)" style="stroke: black; stroke-width:0.25;"/>
<line x1="215.250000" y1="78.000000" x2="219.250000" y2="78.000000"  style="stroke:black; stroke-linecap:round; stroke-width:0.25;"/>
<line x1="219.250000" y1="78.000000" x2="229.250000" y2="78.000000"  style="stroke:black; stroke-linecap:round; stroke-width:0.25;"/>
<line x1="229.250000" y1="78.000000" x2="350.000000" y2="78.000000"  style="stroke:black; stroke-linecap:round; stroke-width:0.25;"/>
<line x1="242.600000" y1="36.000000" x2="246.600000" y2="36.000000"  style="stroke:black; stroke-linecap:round; stroke-width:0.25;"/>
<line x1="246.600000" y1="36.000000" x2="390.000000" y2="36.000000"  style="stroke:black; stroke-linecap:round; stroke-width:0.25;"/>
<line x1="247.500000" y1="242.000000" x2="251.500000" y2="242.000000"  style="stroke:black; stroke-linecap:round; stroke-width:0.25;"/>
<line x1="251.500000" y1="242.000000" x2="261.500000" y2="242.000000"  style="stroke:black; stroke-linecap:round; stroke-width:0.25;"/>
<line x1="261.500000" y1="242.000000" x2="271.500000" y2="242.000000"  style="stroke:black; stroke-linecap:round; stroke-width:0.25;"/>
<line x1="267.500000" y1="350.000000" x2="271.500000" y2="350.000000"  style="stroke:black; stroke-linecap:round; stroke-width:0.25;"/>
<line x1="271.500000" y1="242.000000" x2="281.500000" y2="242.000000"  style="stroke:black; stroke-linecap:round; stroke-width:0.25;"/>
<line x1="271.500000" y1="350.000000" x2="281.500000" y2="350.000000"  style="stroke:black; stroke-linecap:round; stroke-width:0.25;"/>
<line x1="281.500000" y1="242.000000" x2="289.500000" y2="242.000000"  style="stroke:black; stroke-linecap:round; stroke-width:0.25;"/>
<line x1="281.500000" y1="350.000000" x2="291.500000" y2="350.000000"  style="stroke:black; stroke-linecap:round; stroke-width:0.25;"/>
<line x1="284.000000" y1="150.000000" x2="288.000000" y2="150.000000"  style="stroke:black; stroke-linecap:round; stroke-width:0.25;"/>
<line x1="288.000000" y1="150.000000" x2="298.000000" y2="150.000000"  style="stroke:black; stroke-linecap:round; stroke-width:0.25;"/>
<line x1="289.500000" y1="242.000000" x2="289.500000" y2="252.000000"  style="stroke:black; stroke-linecap:round; stroke-width:0.25;"/>
<line x1="289.500000" y1="252.000000" x2="289.500000" y2="252.000000"  style="stroke:black; stroke-linecap:round; stroke-width:0.25;"/>
<line x1="289.500000" y1="252.000000" x2="312.000000" y2="252.000000"  style="stroke:black; stroke-linecap:round; stroke-width:0.25;"/>
<line x1="291.500000" y1="350.000000" x2="301.500000" y2="350.000000"  style="stroke:black; stroke-linecap:round; stroke-width:0.25;"/>
<line x1="298.000000" y1="150.000000" x2="308.000000" y2="150.000000"  style="stroke:black; stroke-linecap:round; stroke-width:0.25;"/>
<line x1="301.500000" y1="344.000000" x2="309.500000" y2="344.000000"  style="stroke:black; stroke-linecap:round; stroke-width:0.25;"/>
<line x1="301.500000" y1="350.000000" x2="301.500000" y2="344.000000"  style="stroke:black; stroke-linecap:round; stroke-width:0.25;"/>
<line x1="301.500000" y1="350.000000" x2="301.500000" y2="350.000000"  style="stroke:black; stroke-linecap:round; stroke-width:0.25;"/>
<line x1="308.000000" y1="150.000000" x2="318.000000" y2="150.000000"  style="stroke:black; stroke-linecap:round; stroke-width:0.25;"/>
<line x1="309.500000" y1="344.000000" x2="312.000000" y2="344.000000"  style="stroke:black; stroke-linecap:round; stroke-width:0.25;"/>
<line x1="312.000000" y1="252.000000" x2="338.000000" y2="252.000000"  style="stroke:black; stroke-linecap:round; stroke-width:0.25;"/>
<line x1="312.000000" y1="344.000000" x2="338.000000" y2="344.000000"  style="stroke:black; stroke-linecap:round; stroke-width:0.25;"/>
<line x1="318.000000" y1="150.000000" x2="318.000000" y2="150.000000"  style="stroke:black; stroke-linecap:round; stroke-width:0.25;"/>
<line x1="318.000000" y1="150.000000" x2="322.000000" y2="150.000000"  style="stroke:black; stroke-linecap:round; stroke-width:0.25;"/>
<line x1="338.000000" y1="252.000000" x2="364.000000" y2="252.000000"  style="stroke:black; stroke-linecap:round; stroke-width:0.25;"/>
<line x1="338.000000" y1="344.000000" x2="364.000000" y2="344.000000"  style="stroke:black; stroke-linecap:round; stroke-width:0.25;"/>
<line x1="346.000000" y1="150.000000" x2="350.000000" y2="150.000000"  style="stroke:black; stroke-linecap:round; stroke-width:0.25;"/>
<line x1="350.000000" y1="78.000000" x2="358.000000" y2="78.000000"  style="stroke:black; stroke-linecap:round; stroke-width:0.25;"/>
<line x1="350.000000" y1="128.000000" x2="358.000000" y2="128.000000"  style="stroke:black; stroke-linecap:round; stroke-width:0.25;"/>
<line x1="350.000000" y1="150.000000" x2="350.000000" y2="128.000000"  style="stroke:black; stroke-linecap:round; stroke-width:0.25;"/>
<line x1="350.000000" y1="150.000000" x2="350.000000" y2="150.000000"  style="stroke:black; stroke-linecap:round; stroke-width:0.25;"/>
<line x1="350.000000" y1="222.000000" x2="354.000000" y2="222.000000"  style="stroke:black; stroke-linecap:round; stroke-width:0.25;"/>
<line x1="350.000000" y1="314.000000" x2="354.000000" y2="314.000000"  style="stroke:black; stroke-linecap:round; stroke-width:0.25;"/>
<line x1="354.000000" y1="222.000000" x2="364.000000" y2="222.000000"  style="stroke:black; stroke-linecap:round; stroke-width:0.25;"/>
<line x1="354.000000" y1="314.000000" x2="364.000000" y2="314.000000"  style="stroke:black; stroke-linecap:round; stroke-width:0.25;"/>
<line x1="358.000000" y1="78.000000" x2="358.000000" y2="120.000000"  style="stroke:black; stroke-linecap:round; stroke-width:0.25;"/>
<line x1="358.000000" y1="120.000000" x2="358.000000" y2="120.000000"  style="stroke:black; stroke-linecap:round; stroke-width:0.25;"/>
<line x1="358.000000" y1="120.000000" x2="362.000000" y2="120.000000"  style="stroke:black; stroke-linecap:round; stroke-width:0.25;"/>
<line x1="358.000000" y1="128.000000" x2="362.000000" y2="128.000000"  style="stroke:black; stroke-linecap:round; stroke-width:0.25;"/>
<line x1="364.000000" y1="222.000000" x2="372.000000" y2="222.000000"  style="stroke:black; stroke-linecap:round; stroke-width:0.25;"/>
<line x1="364.000000" y1="230.000000" x2="372.000000" y2="230.000000"  style="stroke:black; stroke-linecap:round; stroke-width:0.25;"/>
<line x1="364.000000" y1="252.000000" x2="364.000000" y2="230.000000"  style="stroke:black; stroke-linecap:round; stroke-width:0.25;"/>
<line x1="364.000000" y1="252.000000" x2="364.000000" y2="252.000000"  style="stroke:black; stroke-linecap:round; stroke-width:0.25;"/>
<line x1="364.000000" y1="314.000000" x2="372.000000" y2="314.000000"  style="stroke:black; stroke-linecap:round; stroke-width:0.25;"/>
<line x1="364.000000" y1="322.000000" x2="372.000000" y2="322.000000"  style="stroke:black; stroke-linecap:round; stroke-width:0.25;"/>
<line x1="364.000000" y1="344.000000" x2="364.000000" y2="322.000000"  style="stroke:black; stroke-linecap:round; stroke-width:0.25;"/>
<line x1="364.000000" y1="344.000000" x2="364.000000" y2="344.000000"  style="stroke:black; stroke-linecap:round; stroke-width:0.25;"/>
<line x1="370.000000" y1="364.000000" x2="374.000000" y2="364.000000"  style="stroke:black; stroke-linecap:round; stroke-width:0.25;"/>
<line x1="372.000000" y1="222.000000" x2="376.000000" y2="222.000000"  style="stroke:black; stroke-linecap:round; stroke-width:0.25;"/>
<line x1="372.000000" y1="230.000000" x2="376.000000" y2="230.000000"  style="stroke:black; stroke-linecap:round; stroke-width:0.25;"/>
<line x1="372.000000" y1="314.000000" x2="376.000000" y2="314.000000"  style="stroke:black; stroke-linecap:round; stroke-width:0.25;"/>
<line x1="372.000000" y1="322.000000" x2="376.000000" y2="322.000000"  style="stroke:black; stroke-linecap:round; stroke-width:0.25;"/>
<line x1="374.000000" y1="364.000000" x2="404.000000" y2="364.000000"  style="stroke:black; stroke-linecap:round; stroke-width:0.25;"/>
<line x1="386.000000" y1="124.000000" x2="390.000000" y2="124.000000"  style="stroke:black; stroke-linecap:round; stroke-width:0.25;"/>
<line x1="390.000000" y1="36.000000" x2="398.000000" y2="36.000000"  style="stroke:black; stroke-linecap:round; stroke-width:0.25;"/>
<line x1="390.000000" y1="112.000000" x2="398.000000" y2="112.000000"  style="stroke:black; stroke-linecap:round; stroke-width:0.25;"/>
<line x1="390.000000" y1="124.000000" x2="390.000000" y2="112.000000"  style="stroke:black; stroke-linecap:round; stroke-width:0.25;"/>
<line x1="390.000000" y1="124.000000" x2="390.000000" y2="124.000000"  style="stroke:black; stroke-linecap:round; stroke-width:0.25;"/>
<line x1="398.000000" y1="36.000000" x2="398.000000" y2="104.000000"  style="stroke:black; stroke-linecap:round; stroke-width:0.25;"/>
<line x1="398.000000" y1="104.000000" x2="398.000000" y2="104.000000"  style="stroke:black; stroke-linecap:round; stroke-width:0.25;"/>
<line x1="398.000000" y1="104.000000" x2="402.000000" y2="104.000000"  style="stroke:black; stroke-linecap:round; stroke-width:0.25;"/>
<line x1="398.000000" y1="112.000000" x2="402.000000" y2="112.000000"  style="stroke:black; stroke-linecap:round; stroke-width:0.25;"/>
<line x1="400.000000" y1="226.000000" x2="404.000000" y2="226.000000"  style="stroke:black; stroke-linecap:round; stroke-width:0.25;"/>
<line x1="400.000000" y1="318.000000" x2="404.000000" y2="318.000000"  style="stroke:black; stroke-linecap:round; stroke-width:0.25;"/>
<line x1="404.000000" y1="226.000000" x2="426.500000" y2="226.000000"  style="stroke:black; stroke-linecap:round; stroke-width:0.25;"/>
<line x1="404.000000" y1="318.000000" x2="412.000000" y2="318.000000"  style="stroke:black; stroke-linecap:round; stroke-width:0.25;"/>
<line x1="404.000000" y1="338.000000" x2="412.000000" y2="338.000000"  style="stroke:black; stroke-linecap:round; stroke-width:0.25;"/>
<line x1="404.000000" y1="364.000000" x2="404.000000" y2="338.000000"  style="stroke:black; stroke-linecap:round; stroke-width:0.25;"/>
<line x1="404.000000" y1="364.000000" x2="404.000000" y2="364.000000"  style="stroke:black; stroke-linecap:round; stroke-width:0.25;"/>
<line x1="412.000000" y1="318.000000" x2="412.000000" y2="330.000000"  style="stroke:black; stroke-linecap:round; stroke-width:0.25;"/>
<line x1="412.000000" y1="330.000000" x2="412.000000" y2="330.000000"  style="stroke:black; stroke-linecap:round; stroke-width:0.25;"/>
<line x1="412.000000" y1="330.000000" x2="416.000000" y2="330.000000"  style="stroke:black; stroke-linecap:round; stroke-width:0.25;"/>
<line x1="412.000000" y1="338.000000" x2="416.000000" y2="338.000000"  style="stroke:black; stroke-linecap:round; stroke-width:0.25;"/>
<line x1="422.500000" y1="272.000000" x2="426.500000" y2="272.000000"  style="stroke:black; stroke-linecap:round; stroke-width:0.25;"/>
<line x1="426.000000" y1="108.000000" x2="430.000000" y2="108.000000"  style="stroke:black; stroke-linecap:round; stroke-width:0.25;"/>
<line x1="426.500000" y1="226.000000" x2="434.500000" y2="226.000000"  style="stroke:black; stroke-linecap:round; stroke-width:0.25;"/>
<line x1="426.500000" y1="246.000000" x2="434.500000" y2="246.000000"  style="stroke:black; stroke-linecap:round; stroke-width:0.25;"/>
<line x1="426.500000" y1="272.000000" x2="426.500000" y2="246.000000"  style="stroke:black; stroke-linecap:round; stroke-width:0.25;"/>
<line x1="426.500000" y1="272.000000" x2="426.500000" y2="272.000000"  style="stroke:black; stroke-linecap:round; stroke-width:0.25;"/>
<line x1="430.000000" y1="108.000000" x2="466.500000" y2="108.000000"  style="stroke:black; stroke-linecap:round; stroke-width:0.25;"/>
<line x1="434.500000" y1="226.000000" x2="434.500000" y2="238.000000"  style="stroke:black; stroke-linecap:round; stroke-width:0.25;"/>
<line x1="434.500000" y1="238.000000" x2="434.500000" y2="238.000000"  style="stroke:black; stroke-linecap:round; stroke-width:0.25;"/>
<line x1="434.500000" y1="238.000000" x2="438.500000" y2="238.000000"  style="stroke:black; stroke-linecap:round; stroke-width:0.25;"/>
<line x1="434.500000" y1="246.000000" x2="438.500000" y2="246.000000"  style="stroke:black; stroke-linecap:round; stroke-width:0.25;"/>
<line x1="440.000000" y1="334.000000" x2="444.000000" y2="334.000000"  style="stroke:black; stroke-linecap:round; stroke-width:0.25;"/>
<line x1="442.500000" y1="396.000000" x2="446.500000" y2="396.000000"  style="stroke:black; stroke-linecap:round; stroke-width:0.25;"/>
<line x1="444.000000" y1="334.000000" x2="446.500000" y2="334.000000"  style="stroke:black; stroke-linecap:round; stroke-width:0.25;"/>
<line x1="446.500000" y1="334.000000" x2="454.500000" y2="334.000000"  style="stroke:black; stroke-linecap:round; stroke-width:0.25;"/>
<line x1="446.500000" y1="354.000000" x2="454.500000" y2="354.000000"  style="stroke:black; stroke-linecap:round; stroke-width:0.25;"/>
<line x1="446.500000" y1="396.000000" x2="446.500000" y2="354.000000"  style="stroke:black; stroke-linecap:round; stroke-width:0.25;"/>
<line x1="446.500000" y1="396.000000" x2="446.500000" y2="396.000000"  style="stroke:black; stroke-linecap:round; stroke-width:0.25;"/>
<line x1="454.500000" y1="334.000000" x2="454.500000" y2="346.000000"  style="stroke:black; stroke-linecap:round; stroke-width:0.25;"/>
<line x1="454.500000" y1="346.000000" x2="454.500000" y2="346.000000"  style="stroke:black; stroke-linecap:round; stroke-width:0.25;"/>
<line x1="454.500000" y1="346.000000" x2="458.500000" y2="346.000000"  style="stroke:black; stroke-linecap:round; stroke-width:0.25;"/>
<line x1="454.500000" y1="354.000000" x2="458.500000" y2="354.000000"  style="stroke:black; stroke-linecap:round; stroke-width:0.25;"/>
<line x1="462.500000" y1="242.000000" x2="466.500000" y2="242.000000"  style="stroke:black; stroke-linecap:round; stroke-width:0.25;"/>
<line x1="466.500000" y1="108.000000" x2="474.500000" y2="108.000000"  style="stroke:black; stroke-linecap:round; stroke-width:0.25;"/>
<line x1="466.500000" y1="158.000000" x2="474.500000" y2="158.000000"  style="stroke:black; stroke-linecap:round; stroke-width:0.25;"/>
<line x1="466.500000" y1="242.000000" x2="466.500000" y2="158.000000"  style="stroke:black; stroke-linecap:round; stroke-width:0.25;"/>
<line x1="466.500000" y1="242.000000" x2="466.500000" y2="242.000000"  style="stroke:black; stroke-linecap:round; stroke-width:0.25;"/>
<line x1="474.500000" y1="108.000000" x2="474.500000" y2="150.000000"  style="stroke:black; stroke-linecap:round; stroke-width:0.25;"/>
<line x1="474.500000" y1="150.000000" x2="474.500000" y2="150.000000"  style="stroke:black; stroke-linecap:round; stroke-width:0.25;"/>
<line x1="474.500000" y1="150.000000" x2="478.500000" y2="150.000000"  style="stroke:black; stroke-linecap:round; stroke-width:0.25;"/>
<line x1="474.500000" y1="158.000000" x2="478.500000" y2="158.000000"  style="stroke:black; stroke-linecap:round; stroke-width:0.25;"/>
<line x1="482.500000" y1="350.000000" x2="486.500000" y2="350.000000"  style="stroke:black; stroke-linecap:round; stroke-width:0.25;"/>
<line x1="486.500000" y1="350.000000" x2="506.500000" y2="350.000000"  style="stroke:black; stroke-linecap:round; stroke-width:0.25;"/>
<line x1="502.500000" y1="154.000000" x2="506.500000" y2="154.000000"  style="stroke:black; stroke-linecap:round; stroke-width:0.25;"/>
<line x1="506.500000" y1="154.000000" x2="514.500000" y2="154.000000"  style="stroke:black; stroke-linecap:round; stroke-width:0.25;"/>
<line x1="506.500000" y1="220.000000" x2="514.500000" y2="220.000000"  style="stroke:black; stroke-linecap:round; stroke-width:0.25;"/>
<line x1="506.500000" y1="350.000000" x2="506.500000" y2="220.000000"  style="stroke:black; stroke-linecap:round; stroke-width:0.25;"/>
<line x1="506.500000" y1="350.000000" x2="506.500000" y2="350.000000"  style="stroke:black; stroke-linecap:round; stroke-width:0.25;"/>
<line x1="514.500000" y1="154.000000" x2="514.500000" y2="212.000000"  style="stroke:black; stroke-linecap:round; stroke-width:0.25;"/>
<line x1="514.500000" y1="212.000000" x2="514.500000" y2="212.000000"  style="stroke:black; stroke-linecap:round; stroke-width:0.25;"/>
<line x1="514.500000" y1="212.000000" x2="518.500000" y2="212.000000"  style="stroke:black; stroke-linecap:round; stroke-width:0.25;"/>
<line x1="514.500000" y1="220.000000" x2="518.500000" y2="220.000000"  style="stroke:black; stroke-linecap:round; stroke-width:0.25;"/>
<line x1="542.500000" y1="216.000000" x2="546.500000" y2="216.000000"  style="stroke:black; stroke-linecap:round; stroke-width:0.25;"/>
<line x1="546.500000" y1="216.000000" x2="546.500000" y2="216.000000"  style="stroke:black; stroke-linecap:round; stroke-width:0.25;"/>
<line x1="546.500000" y1="216.000000" x2="550.500000" y2="216.000000"  style="stroke:black; stroke-linecap:round; stroke-width:0.25;"/>
<line x1="550.500000" y1="216.000000" x2="554.500000" y2="216.000000"  style="stroke:black; stroke-linecap:round; stroke-width:0.25;"/>
<line x1="554.500000" y1="216.000000" x2="564.500000" y2="216.000000"  style="stroke:black; stroke-linecap:round; stroke-width:0.25;"/>
</svg>
