<?xml version="1.0"?>
<svg xmlns="http://www.w3.org/2000/svg" xmlns:xlink="http://www.w3.org/1999/xlink" viewBox="0 0 421.400000 208.000000" width="210.700000mm" height="104.000000mm" version="1.1">
<a xlink:href="tbl-0x245031b0.svg">
<rect x="1.000000" y="1.000000" width="420.400000" height="207.000000" rx="0" ry="0" style="stroke:none;fill:#cccccc;"/>
<rect x="0.000000" y="0.000000" width="420.400000" height="207.000000" rx="0" ry="0" style="stroke:none;fill:#ffffff;"/>
</a>
<text x="10.000000" y="7.000000" font-family="Arial" font-size="7"></text>
<a xlink:href="fct-0x244f8620.svg">
<rect x="62.350000" y="25.000000" width="24.000000" height="24.000000" rx="0" ry="0" style="stroke:none;fill:#cccccc;"/>
<rect x="61.350000" y="24.000000" width="24.000000" height="24.000000" rx="0" ry="0" style="stroke:none;fill:#003366;"/>
</a>
<a xlink:href="fct-0x244f8620.svg">
<text x="73.350000" y="38.000000" font-family="Arial" font-size="7" text-anchor="middle" fill="#FFFFFF">fct</text>
</a>
<circle cx="63.350000" cy="26.000000" r="1"/>
<rect x="42.350000" y="67.000000" width="24.000000" height="24.000000" rx="0" ry="0" style="stroke:none;fill:#cccccc;"/>
<rect x="41.350000" y="66.000000" width="24.000000" height="24.000000" rx="0" ry="0" style="stroke:none;fill:#f44800;"/>
<text x="53.350000" y="80.000000" font-family="Arial" font-size="7" text-anchor="middle" fill="#FFFFFF">2</text>
<circle cx="43.350000" cy="68.000000" r="1"/>
<line x1="32.350000" y1="57.000000" x2="32.350000" y2="99.000000"  style="stroke: black; stroke-linecap:round; stroke-width:0.25; stroke-dasharray:3,3;"/>
<line x1="32.350000" y1="99.000000" x2="74.350000" y2="99.000000"  style="stroke: black; stroke-linecap:round; stroke-width:0.25; stroke-dasharray:3,3;"/>
<line x1="74.350000" y1="99.000000" x2="74.350000" y2="57.000000"  style="stroke: black; stroke-linecap:round; stroke-width:0.25; stroke-dasharray:3,3;"/>
<line x1="32.350000" y1="57.000000" x2="37.350000" y2="57.000000"  style="stroke: black; stroke-linecap:round; stroke-width:0.25; stroke-dasharray:3,3;"/>
<line x1="47.025000" y1="57.000000" x2="74.350000" y2="57.000000"  style="stroke: black; stroke-linecap:round; stroke-width:0.25; stroke-dasharray:3,3;"/>
<text x="37.350000" y="59.000000" font-family="Arial" font-size="7">M</text>
<rect x="35.000000" y="119.000000" width="38.700000" height="24.000000" rx="0" ry="0" style="stroke:none;fill:#cccccc;"/>
<rect x="34.000000" y="118.000000" width="38.700000" height="24.000000" rx="0" ry="0" style="stroke:none;fill:#f44800;"/>
<text x="53.350000" y="132.000000" font-family="Arial" font-size="7" text-anchor="middle" fill="#FFFFFF">3.14159</text>
<circle cx="36.000000" cy="120.000000" r="1"/>
<line x1="25.000000" y1="109.000000" x2="25.000000" y2="151.000000"  style="stroke: black; stroke-linecap:round; stroke-width:0.25; stroke-dasharray:3,3;"/>
<line x1="25.000000" y1="151.000000" x2="81.700000" y2="151.000000"  style="stroke: black; stroke-linecap:round; stroke-width:0.25; stroke-dasharray:3,3;"/>
<line x1="81.700000" y1="151.000000" x2="81.700000" y2="109.000000"  style="stroke: black; stroke-linecap:round; stroke-width:0.25; stroke-dasharray:3,3;"/>
<line x1="25.000000" y1="109.000000" x2="30.000000" y2="109.000000"  style="stroke: black; stroke-linecap:round; stroke-width:0.25; stroke-dasharray:3,3;"/>
<line x1="42.900000" y1="109.000000" x2="81.700000" y2="109.000000"  style="stroke: black; stroke-linecap:round; stroke-width:0.25; stroke-dasharray:3,3;"/>
<text x="30.000000" y="111.000000" font-family="Arial" font-size="7">PI</text>
<rect x="99.700000" y="93.000000" width="24.000000" height="24.000000" rx="0" ry="0" style="stroke:none;fill:#cccccc;"/>
<rect x="98.700000" y="92.000000" width="24.000000" height="24.000000" rx="0" ry="0" style="stroke:none;fill:#4B71A1;"/>
<text x="110.700000" y="106.000000" font-family="Arial" font-size="7" text-anchor="middle" fill="#FFFFFF">*</text>
<circle cx="100.700000" cy="94.000000" r="1"/>
<line x1="95.700000" y1="99.000000" x2="98.700000" y2="100.000000"  transform="rotate(0.000000,98.700000,100.000000)" style="stroke: black; stroke-width:0.25;"/>
<line x1="95.700000" y1="101.000000" x2="98.700000" y2="100.000000"  transform="rotate(0.000000,98.700000,100.000000)" style="stroke: black; stroke-width:0.25;"/>
<line x1="95.700000" y1="107.000000" x2="98.700000" y2="108.000000"  transform="rotate(0.000000,98.700000,108.000000)" style="stroke: black; stroke-width:0.25;"/>
<line x1="95.700000" y1="109.000000" x2="98.700000" y2="108.000000"  transform="rotate(0.000000,98.700000,108.000000)" style="stroke: black; stroke-width:0.25;"/>
<rect x="139.700000" y="77.000000" width="24.000000" height="24.000000" rx="0" ry="0" style="stroke:none;fill:#cccccc;"/>
<rect x="138.700000" y="76.000000" width="24.000000" height="24.000000" rx="0" ry="0" style="stroke:none;fill:#4B71A1;"/>
<text x="150.700000" y="90.000000" font-family="Arial" font-size="7" text-anchor="middle" fill="#FFFFFF">*</text>
<circle cx="140.700000" cy="78.000000" r="1"/>
<line x1="135.700000" y1="83.000000" x2="138.700000" y2="84.000000"  transform="rotate(0.000000,138.700000,84.000000)" style="stroke: black; stroke-width:0.25;"/>
<line x1="135.700000" y1="85.000000" x2="138.700000" y2="84.000000"  transform="rotate(0.000000,138.700000,84.000000)" style="stroke: black; stroke-width:0.25;"/>
<line x1="135.700000" y1="91.000000" x2="138.700000" y2="92.000000"  transform="rotate(0.000000,138.700000,92.000000)" style="stroke: black; stroke-width:0.25;"/>
<line x1="135.700000" y1="93.000000" x2="138.700000" y2="92.000000"  transform="rotate(0.000000,138.700000,92.000000)" style="stroke: black; stroke-width:0.25;"/>
<a xlink:href="fs-0x244f78a0.svg">
<rect x="82.350000" y="161.000000" width="24.000000" height="24.000000" rx="0" ry="0" style="stroke:none;fill:#cccccc;"/>
<rect x="81.350000" y="160.000000" width="24.000000" height="24.000000" rx="0" ry="0" style="stroke:none;fill:#003366;"/>
</a>
<a xlink:href="fs-0x244f78a0.svg">
<text x="93.350000" y="174.000000" font-family="Arial" font-size="7" text-anchor="middle" fill="#FFFFFF">fs</text>
</a>
<circle cx="83.350000" cy="162.000000" r="1"/>
<rect x="179.700000" y="93.000000" width="24.000000" height="24.000000" rx="0" ry="0" style="stroke:none;fill:#cccccc;"/>
<rect x="178.700000" y="92.000000" width="24.000000" height="24.000000" rx="0" ry="0" style="stroke:none;fill:#4B71A1;"/>
<text x="190.700000" y="106.000000" font-family="Arial" font-size="7" text-anchor="middle" fill="#FFFFFF">/</text>
<circle cx="180.700000" cy="94.000000" r="1"/>
<line x1="175.700000" y1="99.000000" x2="178.700000" y2="100.000000"  transform="rotate(0.000000,178.700000,100.000000)" style="stroke: black; stroke-width:0.25;"/>
<line x1="175.700000" y1="101.000000" x2="178.700000" y2="100.000000"  transform="rotate(0.000000,178.700000,100.000000)" style="stroke: black; stroke-width:0.25;"/>
<line x1="175.700000" y1="107.000000" x2="178.700000" y2="108.000000"  transform="rotate(0.000000,178.700000,108.000000)" style="stroke: black; stroke-width:0.25;"/>
<line x1="175.700000" y1="109.000000" x2="178.700000" y2="108.000000"  transform="rotate(0.000000,178.700000,108.000000)" style="stroke: black; stroke-width:0.25;"/>
<rect x="211.700000" y="93.000000" width="24.000000" height="24.000000" rx="0" ry="0" style="stroke:none;fill:#cccccc;"/>
<rect x="210.700000" y="92.000000" width="24.000000" height="24.000000" rx="0" ry="0" style="stroke:none;fill:#4B71A1;"/>
<text x="222.700000" y="106.000000" font-family="Arial" font-size="7" text-anchor="middle" fill="#FFFFFF">sin</text>
<circle cx="212.700000" cy="94.000000" r="1"/>
<line x1="207.700000" y1="103.000000" x2="210.700000" y2="104.000000"  transform="rotate(0.000000,210.700000,104.000000)" style="stroke: black; stroke-width:0.25;"/>
<line x1="207.700000" y1="105.000000" x2="210.700000" y2="104.000000"  transform="rotate(0.000000,210.700000,104.000000)" style="stroke: black; stroke-width:0.25;"/>
<rect x="269.050000" y="71.000000" width="24.000000" height="24.000000" rx="0" ry="0" style="stroke:none;fill:#cccccc;"/>
<rect x="268.050000" y="70.000000" width="24.000000" height="24.000000" rx="0" ry="0" style="stroke:none;fill:#f44800;"/>
<text x="280.050000" y="84.000000" font-family="Arial" font-size="7" text-anchor="middle" fill="#FFFFFF">2</text>
<circle cx="270.050000" cy="72.000000" r="1"/>
<line x1="259.050000" y1="61.000000" x2="259.050000" y2="103.000000"  style="stroke: black; stroke-linecap:round; stroke-width:0.25; stroke-dasharray:3,3;"/>
<line x1="259.050000" y1="103.000000" x2="301.050000" y2="103.000000"  style="stroke: black; stroke-linecap:round; stroke-width:0.25; stroke-dasharray:3,3;"/>
<line x1="301.050000" y1="103.000000" x2="301.050000" y2="61.000000"  style="stroke: black; stroke-linecap:round; stroke-width:0.25; stroke-dasharray:3,3;"/>
<line x1="259.050000" y1="61.000000" x2="264.050000" y2="61.000000"  style="stroke: black; stroke-linecap:round; stroke-width:0.25; stroke-dasharray:3,3;"/>
<line x1="273.725000" y1="61.000000" x2="301.050000" y2="61.000000"  style="stroke: black; stroke-linecap:round; stroke-width:0.25; stroke-dasharray:3,3;"/>
<text x="264.050000" y="63.000000" font-family="Arial" font-size="7">M</text>
<rect x="261.700000" y="123.000000" width="38.700000" height="24.000000" rx="0" ry="0" style="stroke:none;fill:#cccccc;"/>
<rect x="260.700000" y="122.000000" width="38.700000" height="24.000000" rx="0" ry="0" style="stroke:none;fill:#f44800;"/>
<text x="280.050000" y="136.000000" font-family="Arial" font-size="7" text-anchor="middle" fill="#FFFFFF">3.14159</text>
<circle cx="262.700000" cy="124.000000" r="1"/>
<line x1="251.700000" y1="113.000000" x2="251.700000" y2="155.000000"  style="stroke: black; stroke-linecap:round; stroke-width:0.25; stroke-dasharray:3,3;"/>
<line x1="251.700000" y1="155.000000" x2="308.400000" y2="155.000000"  style="stroke: black; stroke-linecap:round; stroke-width:0.25; stroke-dasharray:3,3;"/>
<line x1="308.400000" y1="155.000000" x2="308.400000" y2="113.000000"  style="stroke: black; stroke-linecap:round; stroke-width:0.25; stroke-dasharray:3,3;"/>
<line x1="251.700000" y1="113.000000" x2="256.700000" y2="113.000000"  style="stroke: black; stroke-linecap:round; stroke-width:0.25; stroke-dasharray:3,3;"/>
<line x1="269.600000" y1="113.000000" x2="308.400000" y2="113.000000"  style="stroke: black; stroke-linecap:round; stroke-width:0.25; stroke-dasharray:3,3;"/>
<text x="256.700000" y="115.000000" font-family="Arial" font-size="7">PI</text>
<rect x="326.400000" y="97.000000" width="24.000000" height="24.000000" rx="0" ry="0" style="stroke:none;fill:#cccccc;"/>
<rect x="325.400000" y="96.000000" width="24.000000" height="24.000000" rx="0" ry="0" style="stroke:none;fill:#4B71A1;"/>
<text x="337.400000" y="110.000000" font-family="Arial" font-size="7" text-anchor="middle" fill="#FFFFFF">*</text>
<circle cx="327.400000" cy="98.000000" r="1"/>
<line x1="322.400000" y1="103.000000" x2="325.400000" y2="104.000000"  transform="rotate(0.000000,325.400000,104.000000)" style="stroke: black; stroke-width:0.25;"/>
<line x1="322.400000" y1="105.000000" x2="325.400000" y2="104.000000"  transform="rotate(0.000000,325.400000,104.000000)" style="stroke: black; stroke-width:0.25;"/>
<line x1="322.400000" y1="111.000000" x2="325.400000" y2="112.000000"  transform="rotate(0.000000,325.400000,112.000000)" style="stroke: black; stroke-width:0.25;"/>
<line x1="322.400000" y1="113.000000" x2="325.400000" y2="112.000000"  transform="rotate(0.000000,325.400000,112.000000)" style="stroke: black; stroke-width:0.25;"/>
<rect x="366.400000" y="93.000000" width="24.000000" height="24.000000" rx="0" ry="0" style="stroke:none;fill:#cccccc;"/>
<rect x="365.400000" y="92.000000" width="24.000000" height="24.000000" rx="0" ry="0" style="stroke:none;fill:#4B71A1;"/>
<text x="377.400000" y="106.000000" font-family="Arial" font-size="7" text-anchor="middle" fill="#FFFFFF">/</text>
<circle cx="367.400000" cy="94.000000" r="1"/>
<line x1="362.400000" y1="99.000000" x2="365.400000" y2="100.000000"  transform="rotate(0.000000,365.400000,100.000000)" style="stroke: black; stroke-width:0.25;"/>
<line x1="362.400000" y1="101.000000" x2="365.400000" y2="100.000000"  transform="rotate(0.000000,365.400000,100.000000)" style="stroke: black; stroke-width:0.25;"/>
<line x1="362.400000" y1="107.000000" x2="365.400000" y2="108.000000"  transform="rotate(0.000000,365.400000,108.000000)" style="stroke: black; stroke-width:0.25;"/>
<line x1="362.400000" y1="109.000000" x2="365.400000" y2="108.000000"  transform="rotate(0.000000,365.400000,108.000000)" style="stroke: black; stroke-width:0.25;"/>
<line x1="15.000000" y1="15.000000" x2="15.000000" y2="193.000000"  style="stroke: black; stroke-linecap:round; stroke-width:0.25; stroke-dasharray:3,3;"/>
<line x1="15.000000" y1="193.000000" x2="406.400000" y2="193.000000"  style="stroke: black; stroke-linecap:round; stroke-width:0.25; stroke-dasharray:3,3;"/>
<line x1="406.400000" y1="193.000000" x2="406.400000" y2="15.000000"  style="stroke: black; stroke-linecap:round; stroke-width:0.25; stroke-dasharray:3,3;"/>
<line x1="15.000000" y1="15.000000" x2="20.000000" y2="15.000000"  style="stroke: black; stroke-linecap:round; stroke-width:0.25; stroke-dasharray:3,3;"/>
<line x1="32.900000" y1="15.000000" x2="406.400000" y2="15.000000"  style="stroke: black; stroke-linecap:round; stroke-width:0.25; stroke-dasharray:3,3;"/>
<text x="20.000000" y="17.000000" font-family="Arial" font-size="7">sm</text>
<line x1="408.400000" y1="103.000000" x2="411.400000" y2="104.000000"  transform="rotate(0.000000,411.400000,104.000000)" style="stroke: black; stroke-width:0.25;"/>
<line x1="408.400000" y1="105.000000" x2="411.400000" y2="104.000000"  transform="rotate(0.000000,411.400000,104.000000)" style="stroke: black; stroke-width:0.25;"/>
<line x1="65.350000" y1="78.000000" x2="69.350000" y2="78.000000"  style="stroke:black; stroke-linecap:round; stroke-width:0.25;"/>
<line x1="69.350000" y1="78.000000" x2="79.350000" y2="78.000000"  style="stroke:black; stroke-linecap:round; stroke-width:0.25;"/>
<line x1="72.700000" y1="130.000000" x2="76.700000" y2="130.000000"  style="stroke:black; stroke-linecap:round; stroke-width:0.25;"/>
<line x1="76.700000" y1="130.000000" x2="86.700000" y2="130.000000"  style="stroke:black; stroke-linecap:round; stroke-width:0.25;"/>
<line x1="79.350000" y1="78.000000" x2="86.700000" y2="78.000000"  style="stroke:black; stroke-linecap:round; stroke-width:0.25;"/>
<line x1="85.350000" y1="36.000000" x2="89.350000" y2="36.000000"  style="stroke:black; stroke-linecap:round; stroke-width:0.25;"/>
<line x1="86.700000" y1="78.000000" x2="94.700000" y2="78.000000"  style="stroke:black; stroke-linecap:round; stroke-width:0.25;"/>
<line x1="86.700000" y1="108.000000" x2="94.700000" y2="108.000000"  style="stroke:black; stroke-linecap:round; stroke-width:0.25;"/>
<line x1="86.700000" y1="130.000000" x2="86.700000" y2="108.000000"  style="stroke:black; stroke-linecap:round; stroke-width:0.25;"/>
<line x1="86.700000" y1="130.000000" x2="86.700000" y2="130.000000"  style="stroke:black; stroke-linecap:round; stroke-width:0.25;"/>
<line x1="89.350000" y1="36.000000" x2="126.700000" y2="36.000000"  style="stroke:black; stroke-linecap:round; stroke-width:0.25;"/>
<line x1="94.700000" y1="78.000000" x2="94.700000" y2="100.000000"  style="stroke:black; stroke-linecap:round; stroke-width:0.25;"/>
<line x1="94.700000" y1="100.000000" x2="94.700000" y2="100.000000"  style="stroke:black; stroke-linecap:round; stroke-width:0.25;"/>
<line x1="94.700000" y1="100.000000" x2="98.700000" y2="100.000000"  style="stroke:black; stroke-linecap:round; stroke-width:0.25;"/>
<line x1="94.700000" y1="108.000000" x2="98.700000" y2="108.000000"  style="stroke:black; stroke-linecap:round; stroke-width:0.25;"/>
<line x1="105.350000" y1="172.000000" x2="109.350000" y2="172.000000"  style="stroke:black; stroke-linecap:round; stroke-width:0.25;"/>
<line x1="109.350000" y1="172.000000" x2="166.700000" y2="172.000000"  style="stroke:black; stroke-linecap:round; stroke-width:0.25;"/>
<line x1="122.700000" y1="104.000000" x2="126.700000" y2="104.000000"  style="stroke:black; stroke-linecap:round; stroke-width:0.25;"/>
<line x1="126.700000" y1="36.000000" x2="134.700000" y2="36.000000"  style="stroke:black; stroke-linecap:round; stroke-width:0.25;"/>
<line x1="126.700000" y1="92.000000" x2="134.700000" y2="92.000000"  style="stroke:black; stroke-linecap:round; stroke-width:0.25;"/>
<line x1="126.700000" y1="104.000000" x2="126.700000" y2="92.000000"  style="stroke:black; stroke-linecap:round; stroke-width:0.25;"/>
<line x1="126.700000" y1="104.000000" x2="126.700000" y2="104.000000"  style="stroke:black; stroke-linecap:round; stroke-width:0.25;"/>
<line x1="134.700000" y1="36.000000" x2="134.700000" y2="84.000000"  style="stroke:black; stroke-linecap:round; stroke-width:0.25;"/>
<line x1="134.700000" y1="84.000000" x2="134.700000" y2="84.000000"  style="stroke:black; stroke-linecap:round; stroke-width:0.25;"/>
<line x1="134.700000" y1="84.000000" x2="138.700000" y2="84.000000"  style="stroke:black; stroke-linecap:round; stroke-width:0.25;"/>
<line x1="134.700000" y1="92.000000" x2="138.700000" y2="92.000000"  style="stroke:black; stroke-linecap:round; stroke-width:0.25;"/>
<line x1="162.700000" y1="88.000000" x2="166.700000" y2="88.000000"  style="stroke:black; stroke-linecap:round; stroke-width:0.25;"/>
<line x1="166.700000" y1="88.000000" x2="174.700000" y2="88.000000"  style="stroke:black; stroke-linecap:round; stroke-width:0.25;"/>
<line x1="166.700000" y1="108.000000" x2="174.700000" y2="108.000000"  style="stroke:black; stroke-linecap:round; stroke-width:0.25;"/>
<line x1="166.700000" y1="172.000000" x2="166.700000" y2="108.000000"  style="stroke:black; stroke-linecap:round; stroke-width:0.25;"/>
<line x1="166.700000" y1="172.000000" x2="166.700000" y2="172.000000"  style="stroke:black; stroke-linecap:round; stroke-width:0.25;"/>
<line x1="174.700000" y1="88.000000" x2="174.700000" y2="100.000000"  style="stroke:black; stroke-linecap:round; stroke-width:0.25;"/>
<line x1="174.700000" y1="100.000000" x2="174.700000" y2="100.000000"  style="stroke:black; stroke-linecap:round; stroke-width:0.25;"/>
<line x1="174.700000" y1="100.000000" x2="178.700000" y2="100.000000"  style="stroke:black; stroke-linecap:round; stroke-width:0.25;"/>
<line x1="174.700000" y1="108.000000" x2="178.700000" y2="108.000000"  style="stroke:black; stroke-linecap:round; stroke-width:0.25;"/>
<line x1="202.700000" y1="104.000000" x2="206.700000" y2="104.000000"  style="stroke:black; stroke-linecap:round; stroke-width:0.25;"/>
<line x1="206.700000" y1="104.000000" x2="206.700000" y2="104.000000"  style="stroke:black; stroke-linecap:round; stroke-width:0.25;"/>
<line x1="206.700000" y1="104.000000" x2="210.700000" y2="104.000000"  style="stroke:black; stroke-linecap:round; stroke-width:0.25;"/>
<line x1="234.700000" y1="104.000000" x2="238.700000" y2="104.000000"  style="stroke:black; stroke-linecap:round; stroke-width:0.25;"/>
<line x1="238.700000" y1="52.000000" x2="246.700000" y2="52.000000"  style="stroke:black; stroke-linecap:round; stroke-width:0.25;"/>
<line x1="238.700000" y1="104.000000" x2="238.700000" y2="52.000000"  style="stroke:black; stroke-linecap:round; stroke-width:0.25;"/>
<line x1="238.700000" y1="104.000000" x2="238.700000" y2="104.000000"  style="stroke:black; stroke-linecap:round; stroke-width:0.25;"/>
<line x1="246.700000" y1="52.000000" x2="300.050000" y2="52.000000"  style="stroke:black; stroke-linecap:round; stroke-width:0.25;"/>
<line x1="292.050000" y1="82.000000" x2="296.050000" y2="82.000000"  style="stroke:black; stroke-linecap:round; stroke-width:0.25;"/>
<line x1="296.050000" y1="82.000000" x2="306.050000" y2="82.000000"  style="stroke:black; stroke-linecap:round; stroke-width:0.25;"/>
<line x1="299.400000" y1="134.000000" x2="303.400000" y2="134.000000"  style="stroke:black; stroke-linecap:round; stroke-width:0.25;"/>
<line x1="300.050000" y1="52.000000" x2="353.400000" y2="52.000000"  style="stroke:black; stroke-linecap:round; stroke-width:0.25;"/>
<line x1="303.400000" y1="134.000000" x2="313.400000" y2="134.000000"  style="stroke:black; stroke-linecap:round; stroke-width:0.25;"/>
<line x1="306.050000" y1="82.000000" x2="313.400000" y2="82.000000"  style="stroke:black; stroke-linecap:round; stroke-width:0.25;"/>
<line x1="313.400000" y1="82.000000" x2="321.400000" y2="82.000000"  style="stroke:black; stroke-linecap:round; stroke-width:0.25;"/>
<line x1="313.400000" y1="112.000000" x2="321.400000" y2="112.000000"  style="stroke:black; stroke-linecap:round; stroke-width:0.25;"/>
<line x1="313.400000" y1="134.000000" x2="313.400000" y2="112.000000"  style="stroke:black; stroke-linecap:round; stroke-width:0.25;"/>
<line x1="313.400000" y1="134.000000" x2="313.400000" y2="134.000000"  style="stroke:black; stroke-linecap:round; stroke-width:0.25;"/>
<line x1="321.400000" y1="82.000000" x2="321.400000" y2="104.000000"  style="stroke:black; stroke-linecap:round; stroke-width:0.25;"/>
<line x1="321.400000" y1="104.000000" x2="321.400000" y2="104.000000"  style="stroke:black; stroke-linecap:round; stroke-width:0.25;"/>
<line x1="321.400000" y1="104.000000" x2="325.400000" y2="104.000000"  style="stroke:black; stroke-linecap:round; stroke-width:0.25;"/>
<line x1="321.400000" y1="112.000000" x2="325.400000" y2="112.000000"  style="stroke:black; stroke-linecap:round; stroke-width:0.25;"/>
<line x1="349.400000" y1="108.000000" x2="353.400000" y2="108.000000"  style="stroke:black; stroke-linecap:round; stroke-width:0.25;"/>
<line x1="353.400000" y1="52.000000" x2="361.400000" y2="52.000000"  style="stroke:black; stroke-linecap:round; stroke-width:0.25;"/>
<line x1="353.400000" y1="108.000000" x2="361.400000" y2="108.000000"  style="stroke:black; stroke-linecap:round; stroke-width:0.25;"/>
<line x1="361.400000" y1="52.000000" x2="361.400000" y2="100.000000"  style="stroke:black; stroke-linecap:round; stroke-width:0.25;"/>
<line x1="361.400000" y1="100.000000" x2="361.400000" y2="100.000000"  style="stroke:black; stroke-linecap:round; stroke-width:0.25;"/>
<line x1="361.400000" y1="100.000000" x2="365.400000" y2="100.000000"  style="stroke:black; stroke-linecap:round; stroke-width:0.25;"/>
<line x1="361.400000" y1="108.000000" x2="365.400000" y2="108.000000"  style="stroke:black; stroke-linecap:round; stroke-width:0.25;"/>
<line x1="389.400000" y1="104.000000" x2="393.400000" y2="104.000000"  style="stroke:black; stroke-linecap:round; stroke-width:0.25;"/>
<line x1="393.400000" y1="104.000000" x2="393.400000" y2="104.000000"  style="stroke:black; stroke-linecap:round; stroke-width:0.25;"/>
<line x1="393.400000" y1="104.000000" x2="397.400000" y2="104.000000"  style="stroke:black; stroke-linecap:round; stroke-width:0.25;"/>
<line x1="397.400000" y1="104.000000" x2="401.400000" y2="104.000000"  style="stroke:black; stroke-linecap:round; stroke-width:0.25;"/>
<line x1="401.400000" y1="104.000000" x2="411.400000" y2="104.000000"  style="stroke:black; stroke-linecap:round; stroke-width:0.25;"/>
</svg>
