<?xml version="1.0"?>
<svg xmlns="http://www.w3.org/2000/svg" xmlns:xlink="http://www.w3.org/1999/xlink" viewBox="0 0 260.000000 240.000000" width="130.000000mm" height="120.000000mm" version="1.1">
<a xlink:href="tf2s-0x7fc7604ed3b0.svg">
<rect x="1.000000" y="1.000000" width="259.000000" height="239.000000" rx="0" ry="0" style="stroke:none;fill:#cccccc;"/>
<rect x="0.000000" y="0.000000" width="259.000000" height="239.000000" rx="0" ry="0" style="stroke:none;fill:#ffffff;"/>
</a>
<text x="10.000000" y="7.000000" font-family="Arial" font-size="7"></text>
<rect x="75.000000" y="25.000000" width="24.000000" height="24.000000" rx="0" ry="0" style="stroke:none;fill:#cccccc;"/>
<rect x="74.000000" y="24.000000" width="24.000000" height="24.000000" rx="0" ry="0" style="stroke:none;fill:#f44800;"/>
<text x="86.000000" y="38.000000" font-family="Arial" font-size="7" text-anchor="middle" fill="#FFFFFF">2</text>
<circle cx="76.000000" cy="26.000000" r="1"/>
<rect x="55.000000" y="67.000000" width="24.000000" height="24.000000" rx="0" ry="0" style="stroke:none;fill:#cccccc;"/>
<rect x="54.000000" y="66.000000" width="24.000000" height="24.000000" rx="0" ry="0" style="stroke:none;fill:#f44800;"/>
<text x="66.000000" y="80.000000" font-family="Arial" font-size="7" text-anchor="middle" fill="#FFFFFF">0</text>
<circle cx="56.000000" cy="68.000000" r="1"/>
<line x1="45.000000" y1="57.000000" x2="45.000000" y2="99.000000"  style="stroke: black; stroke-linecap:round; stroke-width:0.25; stroke-dasharray:3,3;"/>
<line x1="45.000000" y1="99.000000" x2="87.000000" y2="99.000000"  style="stroke: black; stroke-linecap:round; stroke-width:0.25; stroke-dasharray:3,3;"/>
<line x1="87.000000" y1="99.000000" x2="87.000000" y2="57.000000"  style="stroke: black; stroke-linecap:round; stroke-width:0.25; stroke-dasharray:3,3;"/>
<line x1="45.000000" y1="57.000000" x2="50.000000" y2="57.000000"  style="stroke: black; stroke-linecap:round; stroke-width:0.25; stroke-dasharray:3,3;"/>
<line x1="75.800000" y1="57.000000" x2="87.000000" y2="57.000000"  style="stroke: black; stroke-linecap:round; stroke-width:0.25; stroke-dasharray:3,3;"/>
<text x="50.000000" y="59.000000" font-family="Arial" font-size="7">parity</text>
<rect x="35.000000" y="119.000000" width="24.000000" height="24.000000" rx="0" ry="0" style="stroke:none;fill:#cccccc;"/>
<rect x="34.000000" y="118.000000" width="24.000000" height="24.000000" rx="0" ry="0" style="stroke:none;fill:#f44800;"/>
<text x="46.000000" y="132.000000" font-family="Arial" font-size="7" text-anchor="middle" fill="#FFFFFF">1</text>
<circle cx="36.000000" cy="120.000000" r="1"/>
<line x1="25.000000" y1="109.000000" x2="25.000000" y2="151.000000"  style="stroke: black; stroke-linecap:round; stroke-width:0.25; stroke-dasharray:3,3;"/>
<line x1="25.000000" y1="151.000000" x2="67.000000" y2="151.000000"  style="stroke: black; stroke-linecap:round; stroke-width:0.25; stroke-dasharray:3,3;"/>
<line x1="67.000000" y1="151.000000" x2="67.000000" y2="109.000000"  style="stroke: black; stroke-linecap:round; stroke-width:0.25; stroke-dasharray:3,3;"/>
<line x1="25.000000" y1="109.000000" x2="30.000000" y2="109.000000"  style="stroke: black; stroke-linecap:round; stroke-width:0.25; stroke-dasharray:3,3;"/>
<line x1="62.250000" y1="109.000000" x2="67.000000" y2="109.000000"  style="stroke: black; stroke-linecap:round; stroke-width:0.25; stroke-dasharray:3,3;"/>
<text x="30.000000" y="111.000000" font-family="Arial" font-size="7">clipCond</text>
<a xlink:href="csq-0x7fc7604d5300.svg">
<rect x="35.000000" y="161.000000" width="24.000000" height="24.000000" rx="0" ry="0" style="stroke:none;fill:#cccccc;"/>
<rect x="34.000000" y="160.000000" width="24.000000" height="24.000000" rx="0" ry="0" style="stroke:none;fill:#003366;"/>
</a>
<a xlink:href="csq-0x7fc7604d5300.svg">
<text x="46.000000" y="174.000000" font-family="Arial" font-size="7" text-anchor="middle" fill="#FFFFFF">csq</text>
</a>
<circle cx="36.000000" cy="162.000000" r="1"/>
<rect x="85.000000" y="135.000000" width="24.000000" height="24.000000" rx="0" ry="0" style="stroke:none;fill:#cccccc;"/>
<rect x="84.000000" y="134.000000" width="24.000000" height="24.000000" rx="0" ry="0" style="stroke:none;fill:#4B71A1;"/>
<text x="96.000000" y="148.000000" font-family="Arial" font-size="7" text-anchor="middle" fill="#FFFFFF">*</text>
<circle cx="86.000000" cy="136.000000" r="1"/>
<line x1="81.000000" y1="141.000000" x2="84.000000" y2="142.000000"  transform="rotate(0.000000,84.000000,142.000000)" style="stroke: black; stroke-width:0.25;"/>
<line x1="81.000000" y1="143.000000" x2="84.000000" y2="142.000000"  transform="rotate(0.000000,84.000000,142.000000)" style="stroke: black; stroke-width:0.25;"/>
<line x1="81.000000" y1="149.000000" x2="84.000000" y2="150.000000"  transform="rotate(0.000000,84.000000,150.000000)" style="stroke: black; stroke-width:0.25;"/>
<line x1="81.000000" y1="151.000000" x2="84.000000" y2="150.000000"  transform="rotate(0.000000,84.000000,150.000000)" style="stroke: black; stroke-width:0.25;"/>
<rect x="125.000000" y="109.000000" width="24.000000" height="24.000000" rx="0" ry="0" style="stroke:none;fill:#cccccc;"/>
<rect x="124.000000" y="108.000000" width="24.000000" height="24.000000" rx="0" ry="0" style="stroke:none;fill:#4B71A1;"/>
<text x="136.000000" y="122.000000" font-family="Arial" font-size="7" text-anchor="middle" fill="#FFFFFF">-</text>
<circle cx="126.000000" cy="110.000000" r="1"/>
<line x1="121.000000" y1="115.000000" x2="124.000000" y2="116.000000"  transform="rotate(0.000000,124.000000,116.000000)" style="stroke: black; stroke-width:0.25;"/>
<line x1="121.000000" y1="117.000000" x2="124.000000" y2="116.000000"  transform="rotate(0.000000,124.000000,116.000000)" style="stroke: black; stroke-width:0.25;"/>
<line x1="121.000000" y1="123.000000" x2="124.000000" y2="124.000000"  transform="rotate(0.000000,124.000000,124.000000)" style="stroke: black; stroke-width:0.25;"/>
<line x1="121.000000" y1="125.000000" x2="124.000000" y2="124.000000"  transform="rotate(0.000000,124.000000,124.000000)" style="stroke: black; stroke-width:0.25;"/>
<rect x="165.000000" y="93.000000" width="24.000000" height="24.000000" rx="0" ry="0" style="stroke:none;fill:#cccccc;"/>
<rect x="164.000000" y="92.000000" width="24.000000" height="24.000000" rx="0" ry="0" style="stroke:none;fill:#4B71A1;"/>
<text x="176.000000" y="106.000000" font-family="Arial" font-size="7" text-anchor="middle" fill="#FFFFFF">*</text>
<circle cx="166.000000" cy="94.000000" r="1"/>
<line x1="161.000000" y1="99.000000" x2="164.000000" y2="100.000000"  transform="rotate(0.000000,164.000000,100.000000)" style="stroke: black; stroke-width:0.25;"/>
<line x1="161.000000" y1="101.000000" x2="164.000000" y2="100.000000"  transform="rotate(0.000000,164.000000,100.000000)" style="stroke: black; stroke-width:0.25;"/>
<line x1="161.000000" y1="107.000000" x2="164.000000" y2="108.000000"  transform="rotate(0.000000,164.000000,108.000000)" style="stroke: black; stroke-width:0.25;"/>
<line x1="161.000000" y1="109.000000" x2="164.000000" y2="108.000000"  transform="rotate(0.000000,164.000000,108.000000)" style="stroke: black; stroke-width:0.25;"/>
<a xlink:href="d-0x7fc7604d58f0.svg">
<rect x="95.000000" y="193.000000" width="24.000000" height="24.000000" rx="0" ry="0" style="stroke:none;fill:#cccccc;"/>
<rect x="94.000000" y="192.000000" width="24.000000" height="24.000000" rx="0" ry="0" style="stroke:none;fill:#003366;"/>
</a>
<a xlink:href="d-0x7fc7604d58f0.svg">
<text x="106.000000" y="206.000000" font-family="Arial" font-size="7" text-anchor="middle" fill="#FFFFFF">d</text>
</a>
<circle cx="96.000000" cy="194.000000" r="1"/>
<rect x="205.000000" y="109.000000" width="24.000000" height="24.000000" rx="0" ry="0" style="stroke:none;fill:#cccccc;"/>
<rect x="204.000000" y="108.000000" width="24.000000" height="24.000000" rx="0" ry="0" style="stroke:none;fill:#4B71A1;"/>
<text x="216.000000" y="122.000000" font-family="Arial" font-size="7" text-anchor="middle" fill="#FFFFFF">/</text>
<circle cx="206.000000" cy="110.000000" r="1"/>
<line x1="201.000000" y1="115.000000" x2="204.000000" y2="116.000000"  transform="rotate(0.000000,204.000000,116.000000)" style="stroke: black; stroke-width:0.25;"/>
<line x1="201.000000" y1="117.000000" x2="204.000000" y2="116.000000"  transform="rotate(0.000000,204.000000,116.000000)" style="stroke: black; stroke-width:0.25;"/>
<line x1="201.000000" y1="123.000000" x2="204.000000" y2="124.000000"  transform="rotate(0.000000,204.000000,124.000000)" style="stroke: black; stroke-width:0.25;"/>
<line x1="201.000000" y1="125.000000" x2="204.000000" y2="124.000000"  transform="rotate(0.000000,204.000000,124.000000)" style="stroke: black; stroke-width:0.25;"/>
<line x1="15.000000" y1="15.000000" x2="15.000000" y2="225.000000"  style="stroke: black; stroke-linecap:round; stroke-width:0.25; stroke-dasharray:3,3;"/>
<line x1="15.000000" y1="225.000000" x2="245.000000" y2="225.000000"  style="stroke: black; stroke-linecap:round; stroke-width:0.25; stroke-dasharray:3,3;"/>
<line x1="245.000000" y1="225.000000" x2="245.000000" y2="15.000000"  style="stroke: black; stroke-linecap:round; stroke-width:0.25; stroke-dasharray:3,3;"/>
<line x1="15.000000" y1="15.000000" x2="20.000000" y2="15.000000"  style="stroke: black; stroke-linecap:round; stroke-width:0.25; stroke-dasharray:3,3;"/>
<line x1="36.125000" y1="15.000000" x2="245.000000" y2="15.000000"  style="stroke: black; stroke-linecap:round; stroke-width:0.25; stroke-dasharray:3,3;"/>
<text x="20.000000" y="17.000000" font-family="Arial" font-size="7">b1d</text>
<line x1="247.000000" y1="119.000000" x2="250.000000" y2="120.000000"  transform="rotate(0.000000,250.000000,120.000000)" style="stroke: black; stroke-width:0.25;"/>
<line x1="247.000000" y1="121.000000" x2="250.000000" y2="120.000000"  transform="rotate(0.000000,250.000000,120.000000)" style="stroke: black; stroke-width:0.25;"/>
<line x1="58.000000" y1="130.000000" x2="62.000000" y2="130.000000"  style="stroke:black; stroke-linecap:round; stroke-width:0.25;"/>
<line x1="58.000000" y1="172.000000" x2="62.000000" y2="172.000000"  style="stroke:black; stroke-linecap:round; stroke-width:0.25;"/>
<line x1="62.000000" y1="130.000000" x2="72.000000" y2="130.000000"  style="stroke:black; stroke-linecap:round; stroke-width:0.25;"/>
<line x1="62.000000" y1="172.000000" x2="72.000000" y2="172.000000"  style="stroke:black; stroke-linecap:round; stroke-width:0.25;"/>
<line x1="72.000000" y1="130.000000" x2="80.000000" y2="130.000000"  style="stroke:black; stroke-linecap:round; stroke-width:0.25;"/>
<line x1="72.000000" y1="150.000000" x2="80.000000" y2="150.000000"  style="stroke:black; stroke-linecap:round; stroke-width:0.25;"/>
<line x1="72.000000" y1="172.000000" x2="72.000000" y2="150.000000"  style="stroke:black; stroke-linecap:round; stroke-width:0.25;"/>
<line x1="72.000000" y1="172.000000" x2="72.000000" y2="172.000000"  style="stroke:black; stroke-linecap:round; stroke-width:0.25;"/>
<line x1="78.000000" y1="78.000000" x2="82.000000" y2="78.000000"  style="stroke:black; stroke-linecap:round; stroke-width:0.25;"/>
<line x1="80.000000" y1="130.000000" x2="80.000000" y2="142.000000"  style="stroke:black; stroke-linecap:round; stroke-width:0.25;"/>
<line x1="80.000000" y1="142.000000" x2="80.000000" y2="142.000000"  style="stroke:black; stroke-linecap:round; stroke-width:0.25;"/>
<line x1="80.000000" y1="142.000000" x2="84.000000" y2="142.000000"  style="stroke:black; stroke-linecap:round; stroke-width:0.25;"/>
<line x1="80.000000" y1="150.000000" x2="84.000000" y2="150.000000"  style="stroke:black; stroke-linecap:round; stroke-width:0.25;"/>
<line x1="82.000000" y1="78.000000" x2="92.000000" y2="78.000000"  style="stroke:black; stroke-linecap:round; stroke-width:0.25;"/>
<line x1="92.000000" y1="78.000000" x2="112.000000" y2="78.000000"  style="stroke:black; stroke-linecap:round; stroke-width:0.25;"/>
<line x1="98.000000" y1="36.000000" x2="102.000000" y2="36.000000"  style="stroke:black; stroke-linecap:round; stroke-width:0.25;"/>
<line x1="102.000000" y1="36.000000" x2="152.000000" y2="36.000000"  style="stroke:black; stroke-linecap:round; stroke-width:0.25;"/>
<line x1="108.000000" y1="146.000000" x2="112.000000" y2="146.000000"  style="stroke:black; stroke-linecap:round; stroke-width:0.25;"/>
<line x1="112.000000" y1="78.000000" x2="120.000000" y2="78.000000"  style="stroke:black; stroke-linecap:round; stroke-width:0.25;"/>
<line x1="112.000000" y1="124.000000" x2="120.000000" y2="124.000000"  style="stroke:black; stroke-linecap:round; stroke-width:0.25;"/>
<line x1="112.000000" y1="146.000000" x2="112.000000" y2="124.000000"  style="stroke:black; stroke-linecap:round; stroke-width:0.25;"/>
<line x1="112.000000" y1="146.000000" x2="112.000000" y2="146.000000"  style="stroke:black; stroke-linecap:round; stroke-width:0.25;"/>
<line x1="118.000000" y1="204.000000" x2="122.000000" y2="204.000000"  style="stroke:black; stroke-linecap:round; stroke-width:0.25;"/>
<line x1="120.000000" y1="78.000000" x2="120.000000" y2="116.000000"  style="stroke:black; stroke-linecap:round; stroke-width:0.25;"/>
<line x1="120.000000" y1="116.000000" x2="120.000000" y2="116.000000"  style="stroke:black; stroke-linecap:round; stroke-width:0.25;"/>
<line x1="120.000000" y1="116.000000" x2="124.000000" y2="116.000000"  style="stroke:black; stroke-linecap:round; stroke-width:0.25;"/>
<line x1="120.000000" y1="124.000000" x2="124.000000" y2="124.000000"  style="stroke:black; stroke-linecap:round; stroke-width:0.25;"/>
<line x1="122.000000" y1="204.000000" x2="192.000000" y2="204.000000"  style="stroke:black; stroke-linecap:round; stroke-width:0.25;"/>
<line x1="148.000000" y1="120.000000" x2="152.000000" y2="120.000000"  style="stroke:black; stroke-linecap:round; stroke-width:0.25;"/>
<line x1="152.000000" y1="36.000000" x2="160.000000" y2="36.000000"  style="stroke:black; stroke-linecap:round; stroke-width:0.25;"/>
<line x1="152.000000" y1="108.000000" x2="160.000000" y2="108.000000"  style="stroke:black; stroke-linecap:round; stroke-width:0.25;"/>
<line x1="152.000000" y1="120.000000" x2="152.000000" y2="108.000000"  style="stroke:black; stroke-linecap:round; stroke-width:0.25;"/>
<line x1="152.000000" y1="120.000000" x2="152.000000" y2="120.000000"  style="stroke:black; stroke-linecap:round; stroke-width:0.25;"/>
<line x1="160.000000" y1="36.000000" x2="160.000000" y2="100.000000"  style="stroke:black; stroke-linecap:round; stroke-width:0.25;"/>
<line x1="160.000000" y1="100.000000" x2="160.000000" y2="100.000000"  style="stroke:black; stroke-linecap:round; stroke-width:0.25;"/>
<line x1="160.000000" y1="100.000000" x2="164.000000" y2="100.000000"  style="stroke:black; stroke-linecap:round; stroke-width:0.25;"/>
<line x1="160.000000" y1="108.000000" x2="164.000000" y2="108.000000"  style="stroke:black; stroke-linecap:round; stroke-width:0.25;"/>
<line x1="188.000000" y1="104.000000" x2="192.000000" y2="104.000000"  style="stroke:black; stroke-linecap:round; stroke-width:0.25;"/>
<line x1="192.000000" y1="104.000000" x2="200.000000" y2="104.000000"  style="stroke:black; stroke-linecap:round; stroke-width:0.25;"/>
<line x1="192.000000" y1="124.000000" x2="200.000000" y2="124.000000"  style="stroke:black; stroke-linecap:round; stroke-width:0.25;"/>
<line x1="192.000000" y1="204.000000" x2="192.000000" y2="124.000000"  style="stroke:black; stroke-linecap:round; stroke-width:0.25;"/>
<line x1="192.000000" y1="204.000000" x2="192.000000" y2="204.000000"  style="stroke:black; stroke-linecap:round; stroke-width:0.25;"/>
<line x1="200.000000" y1="104.000000" x2="200.000000" y2="116.000000"  style="stroke:black; stroke-linecap:round; stroke-width:0.25;"/>
<line x1="200.000000" y1="116.000000" x2="200.000000" y2="116.000000"  style="stroke:black; stroke-linecap:round; stroke-width:0.25;"/>
<line x1="200.000000" y1="116.000000" x2="204.000000" y2="116.000000"  style="stroke:black; stroke-linecap:round; stroke-width:0.25;"/>
<line x1="200.000000" y1="124.000000" x2="204.000000" y2="124.000000"  style="stroke:black; stroke-linecap:round; stroke-width:0.25;"/>
<line x1="228.000000" y1="120.000000" x2="232.000000" y2="120.000000"  style="stroke:black; stroke-linecap:round; stroke-width:0.25;"/>
<line x1="232.000000" y1="120.000000" x2="232.000000" y2="120.000000"  style="stroke:black; stroke-linecap:round; stroke-width:0.25;"/>
<line x1="232.000000" y1="120.000000" x2="236.000000" y2="120.000000"  style="stroke:black; stroke-linecap:round; stroke-width:0.25;"/>
<line x1="236.000000" y1="120.000000" x2="240.000000" y2="120.000000"  style="stroke:black; stroke-linecap:round; stroke-width:0.25;"/>
<line x1="240.000000" y1="120.000000" x2="250.000000" y2="120.000000"  style="stroke:black; stroke-linecap:round; stroke-width:0.25;"/>
</svg>
