<?xml version="1.0"?>
<svg xmlns="http://www.w3.org/2000/svg" xmlns:xlink="http://www.w3.org/1999/xlink" viewBox="0 0 416.200000 192.000000" width="208.100000mm" height="96.000000mm" version="1.1">
<a xlink:href="rho-0x7fc761cc9180.svg">
<rect x="1.000000" y="1.000000" width="415.200000" height="191.000000" rx="0" ry="0" style="stroke:none;fill:#cccccc;"/>
<rect x="0.000000" y="0.000000" width="415.200000" height="191.000000" rx="0" ry="0" style="stroke:none;fill:#ffffff;"/>
</a>
<text x="10.000000" y="7.000000" font-family="Arial" font-size="7"></text>
<rect x="85.000000" y="85.000000" width="193.500000" height="24.000000" rx="0" ry="0" style="stroke:none;fill:#cccccc;"/>
<rect x="84.000000" y="84.000000" width="193.500000" height="24.000000" rx="0" ry="0" style="stroke:none;fill:#477881;"/>
<text x="180.750000" y="98.000000" font-family="Arial" font-size="7" text-anchor="middle" fill="#FFFFFF">vslider(feedback, 1.0f, 0.0f, 1.0f, 0.001f)</text>
<circle cx="86.000000" cy="86.000000" r="1"/>
<line x1="75.000000" y1="75.000000" x2="75.000000" y2="117.000000"  style="stroke: black; stroke-linecap:round; stroke-width:0.25; stroke-dasharray:3,3;"/>
<line x1="75.000000" y1="117.000000" x2="286.500000" y2="117.000000"  style="stroke: black; stroke-linecap:round; stroke-width:0.25; stroke-dasharray:3,3;"/>
<line x1="286.500000" y1="117.000000" x2="286.500000" y2="75.000000"  style="stroke: black; stroke-linecap:round; stroke-width:0.25; stroke-dasharray:3,3;"/>
<line x1="75.000000" y1="75.000000" x2="80.000000" y2="75.000000"  style="stroke: black; stroke-linecap:round; stroke-width:0.25; stroke-dasharray:3,3;"/>
<line x1="128.375000" y1="75.000000" x2="286.500000" y2="75.000000"  style="stroke: black; stroke-linecap:round; stroke-width:0.25; stroke-dasharray:3,3;"/>
<text x="80.000000" y="77.000000" font-family="Arial" font-size="7">hgroup(0 oct)</text>
<line x1="65.000000" y1="65.000000" x2="65.000000" y2="127.000000"  style="stroke: black; stroke-linecap:round; stroke-width:0.25; stroke-dasharray:3,3;"/>
<line x1="65.000000" y1="127.000000" x2="296.500000" y2="127.000000"  style="stroke: black; stroke-linecap:round; stroke-width:0.25; stroke-dasharray:3,3;"/>
<line x1="296.500000" y1="127.000000" x2="296.500000" y2="65.000000"  style="stroke: black; stroke-linecap:round; stroke-width:0.25; stroke-dasharray:3,3;"/>
<line x1="65.000000" y1="65.000000" x2="70.000000" y2="65.000000"  style="stroke: black; stroke-linecap:round; stroke-width:0.25; stroke-dasharray:3,3;"/>
<line x1="144.175000" y1="65.000000" x2="296.500000" y2="65.000000"  style="stroke: black; stroke-linecap:round; stroke-width:0.25; stroke-dasharray:3,3;"/>
<text x="70.000000" y="67.000000" font-family="Arial" font-size="7">vgroup(KarplusStrong)</text>
<line x1="55.000000" y1="55.000000" x2="55.000000" y2="137.000000"  style="stroke: black; stroke-linecap:round; stroke-width:0.25; stroke-dasharray:3,3;"/>
<line x1="55.000000" y1="137.000000" x2="306.500000" y2="137.000000"  style="stroke: black; stroke-linecap:round; stroke-width:0.25; stroke-dasharray:3,3;"/>
<line x1="306.500000" y1="137.000000" x2="306.500000" y2="55.000000"  style="stroke: black; stroke-linecap:round; stroke-width:0.25; stroke-dasharray:3,3;"/>
<line x1="55.000000" y1="55.000000" x2="60.000000" y2="55.000000"  style="stroke: black; stroke-linecap:round; stroke-width:0.25; stroke-dasharray:3,3;"/>
<line x1="114.825000" y1="55.000000" x2="306.500000" y2="55.000000"  style="stroke: black; stroke-linecap:round; stroke-width:0.25; stroke-dasharray:3,3;"/>
<text x="60.000000" y="57.000000" font-family="Arial" font-size="7">hgroup(effects)</text>
<line x1="45.000000" y1="45.000000" x2="45.000000" y2="147.000000"  style="stroke: black; stroke-linecap:round; stroke-width:0.25; stroke-dasharray:3,3;"/>
<line x1="45.000000" y1="147.000000" x2="316.500000" y2="147.000000"  style="stroke: black; stroke-linecap:round; stroke-width:0.25; stroke-dasharray:3,3;"/>
<line x1="316.500000" y1="147.000000" x2="316.500000" y2="45.000000"  style="stroke: black; stroke-linecap:round; stroke-width:0.25; stroke-dasharray:3,3;"/>
<line x1="45.000000" y1="45.000000" x2="50.000000" y2="45.000000"  style="stroke: black; stroke-linecap:round; stroke-width:0.25; stroke-dasharray:3,3;"/>
<line x1="82.250000" y1="45.000000" x2="316.500000" y2="45.000000"  style="stroke: black; stroke-linecap:round; stroke-width:0.25; stroke-dasharray:3,3;"/>
<text x="50.000000" y="47.000000" font-family="Arial" font-size="7">tgroup()</text>
<line x1="35.000000" y1="35.000000" x2="35.000000" y2="157.000000"  style="stroke: black; stroke-linecap:round; stroke-width:0.25; stroke-dasharray:3,3;"/>
<line x1="35.000000" y1="157.000000" x2="326.500000" y2="157.000000"  style="stroke: black; stroke-linecap:round; stroke-width:0.25; stroke-dasharray:3,3;"/>
<line x1="326.500000" y1="157.000000" x2="326.500000" y2="35.000000"  style="stroke: black; stroke-linecap:round; stroke-width:0.25; stroke-dasharray:3,3;"/>
<line x1="35.000000" y1="35.000000" x2="40.000000" y2="35.000000"  style="stroke: black; stroke-linecap:round; stroke-width:0.25; stroke-dasharray:3,3;"/>
<line x1="110.950000" y1="35.000000" x2="326.500000" y2="35.000000"  style="stroke: black; stroke-linecap:round; stroke-width:0.25; stroke-dasharray:3,3;"/>
<text x="40.000000" y="37.000000" font-family="Arial" font-size="7">vgroup(VoiceOfFaust)</text>
<line x1="25.000000" y1="25.000000" x2="25.000000" y2="167.000000"  style="stroke: black; stroke-linecap:round; stroke-width:0.25; stroke-dasharray:3,3;"/>
<line x1="25.000000" y1="167.000000" x2="336.500000" y2="167.000000"  style="stroke: black; stroke-linecap:round; stroke-width:0.25; stroke-dasharray:3,3;"/>
<line x1="336.500000" y1="167.000000" x2="336.500000" y2="25.000000"  style="stroke: black; stroke-linecap:round; stroke-width:0.25; stroke-dasharray:3,3;"/>
<line x1="25.000000" y1="25.000000" x2="30.000000" y2="25.000000"  style="stroke: black; stroke-linecap:round; stroke-width:0.25; stroke-dasharray:3,3;"/>
<line x1="129.975000" y1="25.000000" x2="336.500000" y2="25.000000"  style="stroke: black; stroke-linecap:round; stroke-width:0.25; stroke-dasharray:3,3;"/>
<text x="30.000000" y="27.000000" font-family="Arial" font-size="7">MKPgroup(vsli....0f, 0.001f))</text>
<a xlink:href="volScale-0x7fc76ad03ce0.svg">
<rect x="346.500000" y="85.000000" width="38.700000" height="24.000000" rx="0" ry="0" style="stroke:none;fill:#cccccc;"/>
<rect x="345.500000" y="84.000000" width="38.700000" height="24.000000" rx="0" ry="0" style="stroke:none;fill:#003366;"/>
</a>
<a xlink:href="volScale-0x7fc76ad03ce0.svg">
<text x="364.850000" y="98.000000" font-family="Arial" font-size="7" text-anchor="middle" fill="#FFFFFF">volScale</text>
</a>
<circle cx="347.500000" cy="86.000000" r="1"/>
<line x1="342.500000" y1="95.000000" x2="345.500000" y2="96.000000"  transform="rotate(0.000000,345.500000,96.000000)" style="stroke: black; stroke-width:0.25;"/>
<line x1="342.500000" y1="97.000000" x2="345.500000" y2="96.000000"  transform="rotate(0.000000,345.500000,96.000000)" style="stroke: black; stroke-width:0.25;"/>
<line x1="15.000000" y1="15.000000" x2="15.000000" y2="177.000000"  style="stroke: black; stroke-linecap:round; stroke-width:0.25; stroke-dasharray:3,3;"/>
<line x1="15.000000" y1="177.000000" x2="401.200000" y2="177.000000"  style="stroke: black; stroke-linecap:round; stroke-width:0.25; stroke-dasharray:3,3;"/>
<line x1="401.200000" y1="177.000000" x2="401.200000" y2="15.000000"  style="stroke: black; stroke-linecap:round; stroke-width:0.25; stroke-dasharray:3,3;"/>
<line x1="15.000000" y1="15.000000" x2="20.000000" y2="15.000000"  style="stroke: black; stroke-linecap:round; stroke-width:0.25; stroke-dasharray:3,3;"/>
<line x1="71.600000" y1="15.000000" x2="401.200000" y2="15.000000"  style="stroke: black; stroke-linecap:round; stroke-width:0.25; stroke-dasharray:3,3;"/>
<text x="20.000000" y="17.000000" font-family="Arial" font-size="7">feedbackAmount</text>
<line x1="403.200000" y1="95.000000" x2="406.200000" y2="96.000000"  transform="rotate(0.000000,406.200000,96.000000)" style="stroke: black; stroke-width:0.25;"/>
<line x1="403.200000" y1="97.000000" x2="406.200000" y2="96.000000"  transform="rotate(0.000000,406.200000,96.000000)" style="stroke: black; stroke-width:0.25;"/>
<line x1="277.500000" y1="96.000000" x2="281.500000" y2="96.000000"  style="stroke:black; stroke-linecap:round; stroke-width:0.25;"/>
<line x1="281.500000" y1="96.000000" x2="291.500000" y2="96.000000"  style="stroke:black; stroke-linecap:round; stroke-width:0.25;"/>
<line x1="291.500000" y1="96.000000" x2="301.500000" y2="96.000000"  style="stroke:black; stroke-linecap:round; stroke-width:0.25;"/>
<line x1="301.500000" y1="96.000000" x2="311.500000" y2="96.000000"  style="stroke:black; stroke-linecap:round; stroke-width:0.25;"/>
<line x1="311.500000" y1="96.000000" x2="321.500000" y2="96.000000"  style="stroke:black; stroke-linecap:round; stroke-width:0.25;"/>
<line x1="321.500000" y1="96.000000" x2="331.500000" y2="96.000000"  style="stroke:black; stroke-linecap:round; stroke-width:0.25;"/>
<line x1="331.500000" y1="96.000000" x2="341.500000" y2="96.000000"  style="stroke:black; stroke-linecap:round; stroke-width:0.25;"/>
<line x1="341.500000" y1="96.000000" x2="341.500000" y2="96.000000"  style="stroke:black; stroke-linecap:round; stroke-width:0.25;"/>
<line x1="341.500000" y1="96.000000" x2="345.500000" y2="96.000000"  style="stroke:black; stroke-linecap:round; stroke-width:0.25;"/>
<line x1="384.200000" y1="96.000000" x2="388.200000" y2="96.000000"  style="stroke:black; stroke-linecap:round; stroke-width:0.25;"/>
<line x1="388.200000" y1="96.000000" x2="388.200000" y2="96.000000"  style="stroke:black; stroke-linecap:round; stroke-width:0.25;"/>
<line x1="388.200000" y1="96.000000" x2="392.200000" y2="96.000000"  style="stroke:black; stroke-linecap:round; stroke-width:0.25;"/>
<line x1="392.200000" y1="96.000000" x2="396.200000" y2="96.000000"  style="stroke:black; stroke-linecap:round; stroke-width:0.25;"/>
<line x1="396.200000" y1="96.000000" x2="406.200000" y2="96.000000"  style="stroke:black; stroke-linecap:round; stroke-width:0.25;"/>
</svg>
