<?xml version="1.0"?>
<svg xmlns="http://www.w3.org/2000/svg" xmlns:xlink="http://www.w3.org/1999/xlink" viewBox="0 0 584.600000 232.000000" width="292.300000mm" height="116.000000mm" version="1.1">
<a xlink:href="decimal-0x7fc7602a1be0.svg">
<rect x="1.000000" y="1.000000" width="583.600000" height="231.000000" rx="0" ry="0" style="stroke:none;fill:#cccccc;"/>
<rect x="0.000000" y="0.000000" width="583.600000" height="231.000000" rx="0" ry="0" style="stroke:none;fill:#ffffff;"/>
</a>
<text x="10.000000" y="7.000000" font-family="Arial" font-size="7"></text>
<rect x="85.000000" y="105.000000" width="180.600000" height="24.000000" rx="0" ry="0" style="stroke:none;fill:#cccccc;"/>
<rect x="84.000000" y="104.000000" width="180.600000" height="24.000000" rx="0" ry="0" style="stroke:none;fill:#477881;"/>
<text x="174.300000" y="118.000000" font-family="Arial" font-size="7" text-anchor="middle" fill="#FFFFFF">vslider(phase, 0.667f, 0.0f, 1.0f, 0.001f)</text>
<circle cx="86.000000" cy="106.000000" r="1"/>
<rect x="281.600000" y="93.000000" width="24.000000" height="24.000000" rx="0" ry="0" style="stroke:none;fill:#cccccc;"/>
<rect x="280.600000" y="92.000000" width="24.000000" height="24.000000" rx="0" ry="0" style="stroke:none;fill:#f44800;"/>
<text x="292.600000" y="106.000000" font-family="Arial" font-size="7" text-anchor="middle" fill="#FFFFFF">3</text>
<circle cx="282.600000" cy="94.000000" r="1"/>
<rect x="321.600000" y="89.000000" width="24.000000" height="24.000000" rx="0" ry="0" style="stroke:none;fill:#cccccc;"/>
<rect x="320.600000" y="88.000000" width="24.000000" height="24.000000" rx="0" ry="0" style="stroke:none;fill:#4B71A1;"/>
<text x="332.600000" y="102.000000" font-family="Arial" font-size="7" text-anchor="middle" fill="#FFFFFF">pow</text>
<circle cx="322.600000" cy="90.000000" r="1"/>
<line x1="317.600000" y1="95.000000" x2="320.600000" y2="96.000000"  transform="rotate(0.000000,320.600000,96.000000)" style="stroke: black; stroke-width:0.25;"/>
<line x1="317.600000" y1="97.000000" x2="320.600000" y2="96.000000"  transform="rotate(0.000000,320.600000,96.000000)" style="stroke: black; stroke-width:0.25;"/>
<line x1="317.600000" y1="103.000000" x2="320.600000" y2="104.000000"  transform="rotate(0.000000,320.600000,104.000000)" style="stroke: black; stroke-width:0.25;"/>
<line x1="317.600000" y1="105.000000" x2="320.600000" y2="104.000000"  transform="rotate(0.000000,320.600000,104.000000)" style="stroke: black; stroke-width:0.25;"/>
<rect x="301.600000" y="125.000000" width="24.000000" height="24.000000" rx="0" ry="0" style="stroke:none;fill:#cccccc;"/>
<rect x="300.600000" y="124.000000" width="24.000000" height="24.000000" rx="0" ry="0" style="stroke:none;fill:#f44800;"/>
<text x="312.600000" y="138.000000" font-family="Arial" font-size="7" text-anchor="middle" fill="#FFFFFF">0.5</text>
<circle cx="302.600000" cy="126.000000" r="1"/>
<rect x="361.600000" y="105.000000" width="24.000000" height="24.000000" rx="0" ry="0" style="stroke:none;fill:#cccccc;"/>
<rect x="360.600000" y="104.000000" width="24.000000" height="24.000000" rx="0" ry="0" style="stroke:none;fill:#4B71A1;"/>
<text x="372.600000" y="118.000000" font-family="Arial" font-size="7" text-anchor="middle" fill="#FFFFFF">*</text>
<circle cx="362.600000" cy="106.000000" r="1"/>
<line x1="357.600000" y1="111.000000" x2="360.600000" y2="112.000000"  transform="rotate(0.000000,360.600000,112.000000)" style="stroke: black; stroke-width:0.25;"/>
<line x1="357.600000" y1="113.000000" x2="360.600000" y2="112.000000"  transform="rotate(0.000000,360.600000,112.000000)" style="stroke: black; stroke-width:0.25;"/>
<line x1="357.600000" y1="119.000000" x2="360.600000" y2="120.000000"  transform="rotate(0.000000,360.600000,120.000000)" style="stroke: black; stroke-width:0.25;"/>
<line x1="357.600000" y1="121.000000" x2="360.600000" y2="120.000000"  transform="rotate(0.000000,360.600000,120.000000)" style="stroke: black; stroke-width:0.25;"/>
<rect x="403.600000" y="105.000000" width="24.000000" height="24.000000" rx="0" ry="0" style="stroke:none;fill:#cccccc;"/>
<rect x="402.600000" y="104.000000" width="24.000000" height="24.000000" rx="0" ry="0" style="stroke:none;fill:#47945E;"/>
<text x="414.600000" y="118.000000" font-family="Arial" font-size="7" text-anchor="middle" fill="#FFFFFF">x</text>
<circle cx="404.600000" cy="106.000000" r="1"/>
<line x1="399.600000" y1="115.000000" x2="402.600000" y2="116.000000"  transform="rotate(0.000000,402.600000,116.000000)" style="stroke: black; stroke-width:0.25;"/>
<line x1="399.600000" y1="117.000000" x2="402.600000" y2="116.000000"  transform="rotate(0.000000,402.600000,116.000000)" style="stroke: black; stroke-width:0.25;"/>
<a xlink:href="fb-0x7fc76aaca710.svg">
<rect x="443.600000" y="109.000000" width="24.000000" height="24.000000" rx="0" ry="0" style="stroke:none;fill:#cccccc;"/>
<rect x="442.600000" y="108.000000" width="24.000000" height="24.000000" rx="0" ry="0" style="stroke:none;fill:#003366;"/>
</a>
<a xlink:href="fb-0x7fc76aaca710.svg">
<text x="454.600000" y="122.000000" font-family="Arial" font-size="7" text-anchor="middle" fill="#FFFFFF">fb</text>
</a>
<circle cx="444.600000" cy="110.000000" r="1"/>
<line x1="439.600000" y1="119.000000" x2="442.600000" y2="120.000000"  transform="rotate(0.000000,442.600000,120.000000)" style="stroke: black; stroke-width:0.25;"/>
<line x1="439.600000" y1="121.000000" x2="442.600000" y2="120.000000"  transform="rotate(0.000000,442.600000,120.000000)" style="stroke: black; stroke-width:0.25;"/>
<line x1="468.600000" y1="120.000000" x2="468.600000" y2="116.000000"  style="stroke:black; stroke-linecap:round; stroke-width:0.25;"/>
<line x1="468.600000" y1="116.000000" x2="472.600000" y2="116.000000"  style="stroke:black; stroke-linecap:round; stroke-width:0.25;"/>
<line x1="472.600000" y1="116.000000" x2="472.600000" y2="120.000000"  style="stroke:black; stroke-linecap:round; stroke-width:0.25;"/>
<line x1="393.600000" y1="91.000000" x2="393.600000" y2="141.000000"  style="stroke: black; stroke-linecap:round; stroke-width:0.25; stroke-dasharray:3,3;"/>
<line x1="393.600000" y1="141.000000" x2="483.600000" y2="141.000000"  style="stroke: black; stroke-linecap:round; stroke-width:0.25; stroke-dasharray:3,3;"/>
<line x1="483.600000" y1="141.000000" x2="483.600000" y2="91.000000"  style="stroke: black; stroke-linecap:round; stroke-width:0.25; stroke-dasharray:3,3;"/>
<line x1="393.600000" y1="91.000000" x2="398.600000" y2="91.000000"  style="stroke: black; stroke-linecap:round; stroke-width:0.25; stroke-dasharray:3,3;"/>
<line x1="440.525000" y1="91.000000" x2="483.600000" y2="91.000000"  style="stroke: black; stroke-linecap:round; stroke-width:0.25; stroke-dasharray:3,3;"/>
<text x="398.600000" y="93.000000" font-family="Arial" font-size="7">Abstraction</text>
<line x1="75.000000" y1="75.000000" x2="75.000000" y2="157.000000"  style="stroke: black; stroke-linecap:round; stroke-width:0.25; stroke-dasharray:3,3;"/>
<line x1="75.000000" y1="157.000000" x2="493.600000" y2="157.000000"  style="stroke: black; stroke-linecap:round; stroke-width:0.25; stroke-dasharray:3,3;"/>
<line x1="493.600000" y1="157.000000" x2="493.600000" y2="75.000000"  style="stroke: black; stroke-linecap:round; stroke-width:0.25; stroke-dasharray:3,3;"/>
<line x1="75.000000" y1="75.000000" x2="80.000000" y2="75.000000"  style="stroke: black; stroke-linecap:round; stroke-width:0.25; stroke-dasharray:3,3;"/>
<line x1="170.300000" y1="75.000000" x2="493.600000" y2="75.000000"  style="stroke: black; stroke-linecap:round; stroke-width:0.25; stroke-dasharray:3,3;"/>
<text x="80.000000" y="77.000000" font-family="Arial" font-size="7">hgroup(modulated all-pass)</text>
<line x1="65.000000" y1="65.000000" x2="65.000000" y2="167.000000"  style="stroke: black; stroke-linecap:round; stroke-width:0.25; stroke-dasharray:3,3;"/>
<line x1="65.000000" y1="167.000000" x2="503.600000" y2="167.000000"  style="stroke: black; stroke-linecap:round; stroke-width:0.25; stroke-dasharray:3,3;"/>
<line x1="503.600000" y1="167.000000" x2="503.600000" y2="65.000000"  style="stroke: black; stroke-linecap:round; stroke-width:0.25; stroke-dasharray:3,3;"/>
<line x1="65.000000" y1="65.000000" x2="70.000000" y2="65.000000"  style="stroke: black; stroke-linecap:round; stroke-width:0.25; stroke-dasharray:3,3;"/>
<line x1="118.375000" y1="65.000000" x2="503.600000" y2="65.000000"  style="stroke: black; stroke-linecap:round; stroke-width:0.25; stroke-dasharray:3,3;"/>
<text x="70.000000" y="67.000000" font-family="Arial" font-size="7">hgroup(0 oct)</text>
<line x1="55.000000" y1="55.000000" x2="55.000000" y2="177.000000"  style="stroke: black; stroke-linecap:round; stroke-width:0.25; stroke-dasharray:3,3;"/>
<line x1="55.000000" y1="177.000000" x2="513.600000" y2="177.000000"  style="stroke: black; stroke-linecap:round; stroke-width:0.25; stroke-dasharray:3,3;"/>
<line x1="513.600000" y1="177.000000" x2="513.600000" y2="55.000000"  style="stroke: black; stroke-linecap:round; stroke-width:0.25; stroke-dasharray:3,3;"/>
<line x1="55.000000" y1="55.000000" x2="60.000000" y2="55.000000"  style="stroke: black; stroke-linecap:round; stroke-width:0.25; stroke-dasharray:3,3;"/>
<line x1="134.175000" y1="55.000000" x2="513.600000" y2="55.000000"  style="stroke: black; stroke-linecap:round; stroke-width:0.25; stroke-dasharray:3,3;"/>
<text x="60.000000" y="57.000000" font-family="Arial" font-size="7">vgroup(KarplusStrong)</text>
<line x1="45.000000" y1="45.000000" x2="45.000000" y2="187.000000"  style="stroke: black; stroke-linecap:round; stroke-width:0.25; stroke-dasharray:3,3;"/>
<line x1="45.000000" y1="187.000000" x2="523.600000" y2="187.000000"  style="stroke: black; stroke-linecap:round; stroke-width:0.25; stroke-dasharray:3,3;"/>
<line x1="523.600000" y1="187.000000" x2="523.600000" y2="45.000000"  style="stroke: black; stroke-linecap:round; stroke-width:0.25; stroke-dasharray:3,3;"/>
<line x1="45.000000" y1="45.000000" x2="50.000000" y2="45.000000"  style="stroke: black; stroke-linecap:round; stroke-width:0.25; stroke-dasharray:3,3;"/>
<line x1="104.825000" y1="45.000000" x2="523.600000" y2="45.000000"  style="stroke: black; stroke-linecap:round; stroke-width:0.25; stroke-dasharray:3,3;"/>
<text x="50.000000" y="47.000000" font-family="Arial" font-size="7">hgroup(effects)</text>
<line x1="35.000000" y1="35.000000" x2="35.000000" y2="197.000000"  style="stroke: black; stroke-linecap:round; stroke-width:0.25; stroke-dasharray:3,3;"/>
<line x1="35.000000" y1="197.000000" x2="533.600000" y2="197.000000"  style="stroke: black; stroke-linecap:round; stroke-width:0.25; stroke-dasharray:3,3;"/>
<line x1="533.600000" y1="197.000000" x2="533.600000" y2="35.000000"  style="stroke: black; stroke-linecap:round; stroke-width:0.25; stroke-dasharray:3,3;"/>
<line x1="35.000000" y1="35.000000" x2="40.000000" y2="35.000000"  style="stroke: black; stroke-linecap:round; stroke-width:0.25; stroke-dasharray:3,3;"/>
<line x1="72.250000" y1="35.000000" x2="533.600000" y2="35.000000"  style="stroke: black; stroke-linecap:round; stroke-width:0.25; stroke-dasharray:3,3;"/>
<text x="40.000000" y="37.000000" font-family="Arial" font-size="7">tgroup()</text>
<line x1="25.000000" y1="25.000000" x2="25.000000" y2="207.000000"  style="stroke: black; stroke-linecap:round; stroke-width:0.25; stroke-dasharray:3,3;"/>
<line x1="25.000000" y1="207.000000" x2="543.600000" y2="207.000000"  style="stroke: black; stroke-linecap:round; stroke-width:0.25; stroke-dasharray:3,3;"/>
<line x1="543.600000" y1="207.000000" x2="543.600000" y2="25.000000"  style="stroke: black; stroke-linecap:round; stroke-width:0.25; stroke-dasharray:3,3;"/>
<line x1="25.000000" y1="25.000000" x2="30.000000" y2="25.000000"  style="stroke: black; stroke-linecap:round; stroke-width:0.25; stroke-dasharray:3,3;"/>
<line x1="100.950000" y1="25.000000" x2="543.600000" y2="25.000000"  style="stroke: black; stroke-linecap:round; stroke-width:0.25; stroke-dasharray:3,3;"/>
<text x="30.000000" y="27.000000" font-family="Arial" font-size="7">vgroup(VoiceOfFaust)</text>
<line x1="15.000000" y1="15.000000" x2="15.000000" y2="217.000000"  style="stroke: black; stroke-linecap:round; stroke-width:0.25; stroke-dasharray:3,3;"/>
<line x1="15.000000" y1="217.000000" x2="569.600000" y2="217.000000"  style="stroke: black; stroke-linecap:round; stroke-width:0.25; stroke-dasharray:3,3;"/>
<line x1="569.600000" y1="217.000000" x2="569.600000" y2="15.000000"  style="stroke: black; stroke-linecap:round; stroke-width:0.25; stroke-dasharray:3,3;"/>
<line x1="15.000000" y1="15.000000" x2="20.000000" y2="15.000000"  style="stroke: black; stroke-linecap:round; stroke-width:0.25; stroke-dasharray:3,3;"/>
<line x1="45.800000" y1="15.000000" x2="569.600000" y2="15.000000"  style="stroke: black; stroke-linecap:round; stroke-width:0.25; stroke-dasharray:3,3;"/>
<text x="20.000000" y="17.000000" font-family="Arial" font-size="7">phaseM</text>
<line x1="571.600000" y1="115.000000" x2="574.600000" y2="116.000000"  transform="rotate(0.000000,574.600000,116.000000)" style="stroke: black; stroke-width:0.25;"/>
<line x1="571.600000" y1="117.000000" x2="574.600000" y2="116.000000"  transform="rotate(0.000000,574.600000,116.000000)" style="stroke: black; stroke-width:0.25;"/>
<line x1="264.600000" y1="116.000000" x2="268.600000" y2="116.000000"  style="stroke:black; stroke-linecap:round; stroke-width:0.25;"/>
<line x1="268.600000" y1="84.000000" x2="276.600000" y2="84.000000"  style="stroke:black; stroke-linecap:round; stroke-width:0.25;"/>
<line x1="268.600000" y1="116.000000" x2="268.600000" y2="84.000000"  style="stroke:black; stroke-linecap:round; stroke-width:0.25;"/>
<line x1="268.600000" y1="116.000000" x2="268.600000" y2="116.000000"  style="stroke:black; stroke-linecap:round; stroke-width:0.25;"/>
<line x1="276.600000" y1="84.000000" x2="292.600000" y2="84.000000"  style="stroke:black; stroke-linecap:round; stroke-width:0.25;"/>
<line x1="292.600000" y1="84.000000" x2="308.600000" y2="84.000000"  style="stroke:black; stroke-linecap:round; stroke-width:0.25;"/>
<line x1="304.600000" y1="104.000000" x2="308.600000" y2="104.000000"  style="stroke:black; stroke-linecap:round; stroke-width:0.25;"/>
<line x1="308.600000" y1="84.000000" x2="316.600000" y2="84.000000"  style="stroke:black; stroke-linecap:round; stroke-width:0.25;"/>
<line x1="308.600000" y1="104.000000" x2="316.600000" y2="104.000000"  style="stroke:black; stroke-linecap:round; stroke-width:0.25;"/>
<line x1="316.600000" y1="84.000000" x2="316.600000" y2="96.000000"  style="stroke:black; stroke-linecap:round; stroke-width:0.25;"/>
<line x1="316.600000" y1="96.000000" x2="316.600000" y2="96.000000"  style="stroke:black; stroke-linecap:round; stroke-width:0.25;"/>
<line x1="316.600000" y1="96.000000" x2="320.600000" y2="96.000000"  style="stroke:black; stroke-linecap:round; stroke-width:0.25;"/>
<line x1="316.600000" y1="104.000000" x2="320.600000" y2="104.000000"  style="stroke:black; stroke-linecap:round; stroke-width:0.25;"/>
<line x1="324.600000" y1="136.000000" x2="328.600000" y2="136.000000"  style="stroke:black; stroke-linecap:round; stroke-width:0.25;"/>
<line x1="328.600000" y1="136.000000" x2="348.600000" y2="136.000000"  style="stroke:black; stroke-linecap:round; stroke-width:0.25;"/>
<line x1="344.600000" y1="100.000000" x2="348.600000" y2="100.000000"  style="stroke:black; stroke-linecap:round; stroke-width:0.25;"/>
<line x1="348.600000" y1="100.000000" x2="356.600000" y2="100.000000"  style="stroke:black; stroke-linecap:round; stroke-width:0.25;"/>
<line x1="348.600000" y1="120.000000" x2="356.600000" y2="120.000000"  style="stroke:black; stroke-linecap:round; stroke-width:0.25;"/>
<line x1="348.600000" y1="136.000000" x2="348.600000" y2="120.000000"  style="stroke:black; stroke-linecap:round; stroke-width:0.25;"/>
<line x1="348.600000" y1="136.000000" x2="348.600000" y2="136.000000"  style="stroke:black; stroke-linecap:round; stroke-width:0.25;"/>
<line x1="356.600000" y1="100.000000" x2="356.600000" y2="112.000000"  style="stroke:black; stroke-linecap:round; stroke-width:0.25;"/>
<line x1="356.600000" y1="112.000000" x2="356.600000" y2="112.000000"  style="stroke:black; stroke-linecap:round; stroke-width:0.25;"/>
<line x1="356.600000" y1="112.000000" x2="360.600000" y2="112.000000"  style="stroke:black; stroke-linecap:round; stroke-width:0.25;"/>
<line x1="356.600000" y1="120.000000" x2="360.600000" y2="120.000000"  style="stroke:black; stroke-linecap:round; stroke-width:0.25;"/>
<line x1="384.600000" y1="116.000000" x2="388.600000" y2="116.000000"  style="stroke:black; stroke-linecap:round; stroke-width:0.25;"/>
<line x1="388.600000" y1="116.000000" x2="388.600000" y2="116.000000"  style="stroke:black; stroke-linecap:round; stroke-width:0.25;"/>
<line x1="388.600000" y1="116.000000" x2="398.600000" y2="116.000000"  style="stroke:black; stroke-linecap:round; stroke-width:0.25;"/>
<line x1="398.600000" y1="116.000000" x2="402.600000" y2="116.000000"  style="stroke:black; stroke-linecap:round; stroke-width:0.25;"/>
<line x1="438.600000" y1="100.000000" x2="438.600000" y2="100.000000"  style="stroke:black; stroke-linecap:round; stroke-width:0.25;"/>
<line x1="438.600000" y1="100.000000" x2="438.600000" y2="120.000000"  style="stroke:black; stroke-linecap:round; stroke-width:0.25;"/>
<line x1="438.600000" y1="120.000000" x2="438.600000" y2="120.000000"  style="stroke:black; stroke-linecap:round; stroke-width:0.25;"/>
<line x1="438.600000" y1="120.000000" x2="442.600000" y2="120.000000"  style="stroke:black; stroke-linecap:round; stroke-width:0.25;"/>
<line x1="454.600000" y1="100.000000" x2="438.600000" y2="100.000000"  style="stroke:black; stroke-linecap:round; stroke-width:0.25;"/>
<line x1="466.600000" y1="120.000000" x2="470.600000" y2="120.000000"  style="stroke:black; stroke-linecap:round; stroke-width:0.25;"/>
<line x1="470.600000" y1="100.000000" x2="454.600000" y2="100.000000"  style="stroke:black; stroke-linecap:round; stroke-width:0.25;"/>
<line x1="470.600000" y1="100.000000" x2="470.600000" y2="100.000000"  style="stroke:black; stroke-linecap:round; stroke-width:0.25;"/>
<line x1="470.600000" y1="116.000000" x2="470.600000" y2="100.000000"  style="stroke:black; stroke-linecap:round; stroke-width:0.25;"/>
<line x1="470.600000" y1="120.000000" x2="472.600000" y2="120.000000"  style="stroke:black; stroke-linecap:round; stroke-width:0.25;"/>
<line x1="472.600000" y1="120.000000" x2="478.600000" y2="120.000000"  style="stroke:black; stroke-linecap:round; stroke-width:0.25;"/>
<line x1="478.600000" y1="120.000000" x2="488.600000" y2="120.000000"  style="stroke:black; stroke-linecap:round; stroke-width:0.25;"/>
<line x1="488.600000" y1="120.000000" x2="498.600000" y2="120.000000"  style="stroke:black; stroke-linecap:round; stroke-width:0.25;"/>
<line x1="498.600000" y1="120.000000" x2="508.600000" y2="120.000000"  style="stroke:black; stroke-linecap:round; stroke-width:0.25;"/>
<line x1="508.600000" y1="120.000000" x2="518.600000" y2="120.000000"  style="stroke:black; stroke-linecap:round; stroke-width:0.25;"/>
<line x1="518.600000" y1="120.000000" x2="528.600000" y2="120.000000"  style="stroke:black; stroke-linecap:round; stroke-width:0.25;"/>
<line x1="528.600000" y1="120.000000" x2="538.600000" y2="120.000000"  style="stroke:black; stroke-linecap:round; stroke-width:0.25;"/>
<line x1="538.600000" y1="120.000000" x2="548.600000" y2="120.000000"  style="stroke:black; stroke-linecap:round; stroke-width:0.25;"/>
<line x1="548.600000" y1="116.000000" x2="556.600000" y2="116.000000"  style="stroke:black; stroke-linecap:round; stroke-width:0.25;"/>
<line x1="548.600000" y1="120.000000" x2="548.600000" y2="116.000000"  style="stroke:black; stroke-linecap:round; stroke-width:0.25;"/>
<line x1="548.600000" y1="120.000000" x2="548.600000" y2="120.000000"  style="stroke:black; stroke-linecap:round; stroke-width:0.25;"/>
<line x1="556.600000" y1="116.000000" x2="560.600000" y2="116.000000"  style="stroke:black; stroke-linecap:round; stroke-width:0.25;"/>
<line x1="560.600000" y1="116.000000" x2="564.600000" y2="116.000000"  style="stroke:black; stroke-linecap:round; stroke-width:0.25;"/>
<line x1="564.600000" y1="116.000000" x2="574.600000" y2="116.000000"  style="stroke:black; stroke-linecap:round; stroke-width:0.25;"/>
</svg>
