<?xml version="1.0"?>
<svg xmlns="http://www.w3.org/2000/svg" xmlns:xlink="http://www.w3.org/1999/xlink" viewBox="0 0 555.000000 168.000000" width="277.500000mm" height="84.000000mm" version="1.1">
<a xlink:href="process.svg">
<rect x="1.000000" y="1.000000" width="554.000000" height="167.000000" rx="0" ry="0" style="stroke:none;fill:#cccccc;"/>
<rect x="0.000000" y="0.000000" width="554.000000" height="167.000000" rx="0" ry="0" style="stroke:none;fill:#ffffff;"/>
</a>
<text x="10.000000" y="7.000000" font-family="Arial" font-size="7"></text>
<a xlink:href="voice-0x7fc760901c10.svg">
<rect x="25.000000" y="73.000000" width="129.000000" height="24.000000" rx="0" ry="0" style="stroke:none;fill:#cccccc;"/>
<rect x="24.000000" y="72.000000" width="129.000000" height="24.000000" rx="0" ry="0" style="stroke:none;fill:#003366;"/>
</a>
<a xlink:href="voice-0x7fc760901c10.svg">
<text x="88.500000" y="86.000000" font-family="Arial" font-size="7" text-anchor="middle" fill="#FFFFFF">voice(x1)(vgr...))) : attach)</text>
</a>
<circle cx="26.000000" cy="74.000000" r="1"/>
<a xlink:href="pmFX-0x7fc761206ef0.svg">
<rect x="190.000000" y="57.000000" width="129.000000" height="24.000000" rx="0" ry="0" style="stroke:none;fill:#cccccc;"/>
<rect x="189.000000" y="56.000000" width="129.000000" height="24.000000" rx="0" ry="0" style="stroke:none;fill:#003366;"/>
</a>
<a xlink:href="pmFX-0x7fc761206ef0.svg">
<text x="253.500000" y="70.000000" font-family="Arial" font-size="7" text-anchor="middle" fill="#FFFFFF">pmFX(vgroup(&quot;...nv = {}])))))</text>
</a>
<circle cx="191.000000" cy="58.000000" r="1"/>
<line x1="186.000000" y1="67.000000" x2="189.000000" y2="68.000000"  transform="rotate(0.000000,189.000000,68.000000)" style="stroke: black; stroke-width:0.25;"/>
<line x1="186.000000" y1="69.000000" x2="189.000000" y2="68.000000"  transform="rotate(0.000000,189.000000,68.000000)" style="stroke: black; stroke-width:0.25;"/>
<a xlink:href="pmFX-0x7fc76198fb10.svg">
<rect x="190.000000" y="89.000000" width="129.000000" height="24.000000" rx="0" ry="0" style="stroke:none;fill:#cccccc;"/>
<rect x="189.000000" y="88.000000" width="129.000000" height="24.000000" rx="0" ry="0" style="stroke:none;fill:#003366;"/>
</a>
<a xlink:href="pmFX-0x7fc76198fb10.svg">
<text x="253.500000" y="102.000000" font-family="Arial" font-size="7" text-anchor="middle" fill="#FFFFFF">pmFX(vgroup(&quot;... {}])))) : -)</text>
</a>
<circle cx="191.000000" cy="90.000000" r="1"/>
<line x1="186.000000" y1="99.000000" x2="189.000000" y2="100.000000"  transform="rotate(0.000000,189.000000,100.000000)" style="stroke: black; stroke-width:0.25;"/>
<line x1="186.000000" y1="101.000000" x2="189.000000" y2="100.000000"  transform="rotate(0.000000,189.000000,100.000000)" style="stroke: black; stroke-width:0.25;"/>
<a xlink:href="DryPath-0x7fc7619986b0.svg">
<rect x="361.000000" y="25.000000" width="129.000000" height="24.000000" rx="0" ry="0" style="stroke:none;fill:#cccccc;"/>
<rect x="360.000000" y="24.000000" width="129.000000" height="24.000000" rx="0" ry="0" style="stroke:none;fill:#003366;"/>
</a>
<a xlink:href="DryPath-0x7fc7619986b0.svg">
<text x="424.500000" y="38.000000" font-family="Arial" font-size="7" text-anchor="middle" fill="#FFFFFF">DryPath(vgrou...}])))))) : +)</text>
</a>
<circle cx="362.000000" cy="26.000000" r="1"/>
<line x1="357.000000" y1="35.000000" x2="360.000000" y2="36.000000"  transform="rotate(0.000000,360.000000,36.000000)" style="stroke: black; stroke-width:0.25;"/>
<line x1="357.000000" y1="37.000000" x2="360.000000" y2="36.000000"  transform="rotate(0.000000,360.000000,36.000000)" style="stroke: black; stroke-width:0.25;"/>
<a xlink:href="stringloop-0x7fc761fa1e40.svg">
<rect x="361.000000" y="57.000000" width="129.000000" height="24.000000" rx="0" ry="0" style="stroke:none;fill:#cccccc;"/>
<rect x="360.000000" y="56.000000" width="129.000000" height="24.000000" rx="0" ry="0" style="stroke:none;fill:#003366;"/>
</a>
<a xlink:href="stringloop-0x7fc761fa1e40.svg">
<text x="424.500000" y="70.000000" font-family="Arial" font-size="7" text-anchor="middle" fill="#FFFFFF">stringloop((v...}])))))) : +)</text>
</a>
<circle cx="362.000000" cy="58.000000" r="1"/>
<line x1="357.000000" y1="67.000000" x2="360.000000" y2="68.000000"  transform="rotate(0.000000,360.000000,68.000000)" style="stroke: black; stroke-width:0.25;"/>
<line x1="357.000000" y1="69.000000" x2="360.000000" y2="68.000000"  transform="rotate(0.000000,360.000000,68.000000)" style="stroke: black; stroke-width:0.25;"/>
<a xlink:href="DryPath-0x7fc761faa160.svg">
<rect x="361.000000" y="89.000000" width="129.000000" height="24.000000" rx="0" ry="0" style="stroke:none;fill:#cccccc;"/>
<rect x="360.000000" y="88.000000" width="129.000000" height="24.000000" rx="0" ry="0" style="stroke:none;fill:#003366;"/>
</a>
<a xlink:href="DryPath-0x7fc761faa160.svg">
<text x="424.500000" y="102.000000" font-family="Arial" font-size="7" text-anchor="middle" fill="#FFFFFF">DryPath(0,vgr...}])))))) : -)</text>
</a>
<circle cx="362.000000" cy="90.000000" r="1"/>
<line x1="357.000000" y1="99.000000" x2="360.000000" y2="100.000000"  transform="rotate(0.000000,360.000000,100.000000)" style="stroke: black; stroke-width:0.25;"/>
<line x1="357.000000" y1="101.000000" x2="360.000000" y2="100.000000"  transform="rotate(0.000000,360.000000,100.000000)" style="stroke: black; stroke-width:0.25;"/>
<a xlink:href="stringloop-0x7fc7622adc10.svg">
<rect x="361.000000" y="121.000000" width="129.000000" height="24.000000" rx="0" ry="0" style="stroke:none;fill:#cccccc;"/>
<rect x="360.000000" y="120.000000" width="129.000000" height="24.000000" rx="0" ry="0" style="stroke:none;fill:#003366;"/>
</a>
<a xlink:href="stringloop-0x7fc7622adc10.svg">
<text x="424.500000" y="134.000000" font-family="Arial" font-size="7" text-anchor="middle" fill="#FFFFFF">stringloop((v...}])))))) : -)</text>
</a>
<circle cx="362.000000" cy="122.000000" r="1"/>
<line x1="357.000000" y1="131.000000" x2="360.000000" y2="132.000000"  transform="rotate(0.000000,360.000000,132.000000)" style="stroke: black; stroke-width:0.25;"/>
<line x1="357.000000" y1="133.000000" x2="360.000000" y2="132.000000"  transform="rotate(0.000000,360.000000,132.000000)" style="stroke: black; stroke-width:0.25;"/>
<line x1="15.000000" y1="15.000000" x2="15.000000" y2="153.000000"  style="stroke: black; stroke-linecap:round; stroke-width:0.25; stroke-dasharray:3,3;"/>
<line x1="15.000000" y1="153.000000" x2="540.000000" y2="153.000000"  style="stroke: black; stroke-linecap:round; stroke-width:0.25; stroke-dasharray:3,3;"/>
<line x1="540.000000" y1="153.000000" x2="540.000000" y2="15.000000"  style="stroke: black; stroke-linecap:round; stroke-width:0.25; stroke-dasharray:3,3;"/>
<line x1="15.000000" y1="15.000000" x2="20.000000" y2="15.000000"  style="stroke: black; stroke-linecap:round; stroke-width:0.25; stroke-dasharray:3,3;"/>
<line x1="87.725000" y1="15.000000" x2="540.000000" y2="15.000000"  style="stroke: black; stroke-linecap:round; stroke-width:0.25; stroke-dasharray:3,3;"/>
<text x="20.000000" y="17.000000" font-family="Arial" font-size="7">VoiceOfFaust(x1)(0)</text>
<line x1="542.000000" y1="79.000000" x2="545.000000" y2="80.000000"  transform="rotate(0.000000,545.000000,80.000000)" style="stroke: black; stroke-width:0.25;"/>
<line x1="542.000000" y1="81.000000" x2="545.000000" y2="80.000000"  transform="rotate(0.000000,545.000000,80.000000)" style="stroke: black; stroke-width:0.25;"/>
<line x1="542.000000" y1="87.000000" x2="545.000000" y2="88.000000"  transform="rotate(0.000000,545.000000,88.000000)" style="stroke: black; stroke-width:0.25;"/>
<line x1="542.000000" y1="89.000000" x2="545.000000" y2="88.000000"  transform="rotate(0.000000,545.000000,88.000000)" style="stroke: black; stroke-width:0.25;"/>
<line x1="153.000000" y1="84.000000" x2="157.000000" y2="84.000000"  style="stroke:black; stroke-linecap:round; stroke-width:0.25;"/>
<line x1="157.000000" y1="84.000000" x2="169.000000" y2="80.000000"  style="stroke:black; stroke-linecap:round; stroke-width:0.25;"/>
<line x1="157.000000" y1="84.000000" x2="169.000000" y2="88.000000"  style="stroke:black; stroke-linecap:round; stroke-width:0.25;"/>
<line x1="169.000000" y1="80.000000" x2="173.000000" y2="80.000000"  style="stroke:black; stroke-linecap:round; stroke-width:0.25;"/>
<line x1="169.000000" y1="88.000000" x2="173.000000" y2="88.000000"  style="stroke:black; stroke-linecap:round; stroke-width:0.25;"/>
<line x1="173.000000" y1="80.000000" x2="177.000000" y2="80.000000"  style="stroke:black; stroke-linecap:round; stroke-width:0.25;"/>
<line x1="173.000000" y1="88.000000" x2="177.000000" y2="88.000000"  style="stroke:black; stroke-linecap:round; stroke-width:0.25;"/>
<line x1="177.000000" y1="68.000000" x2="185.000000" y2="68.000000"  style="stroke:black; stroke-linecap:round; stroke-width:0.25;"/>
<line x1="177.000000" y1="80.000000" x2="177.000000" y2="68.000000"  style="stroke:black; stroke-linecap:round; stroke-width:0.25;"/>
<line x1="177.000000" y1="80.000000" x2="177.000000" y2="80.000000"  style="stroke:black; stroke-linecap:round; stroke-width:0.25;"/>
<line x1="177.000000" y1="88.000000" x2="185.000000" y2="88.000000"  style="stroke:black; stroke-linecap:round; stroke-width:0.25;"/>
<line x1="185.000000" y1="68.000000" x2="189.000000" y2="68.000000"  style="stroke:black; stroke-linecap:round; stroke-width:0.25;"/>
<line x1="185.000000" y1="88.000000" x2="185.000000" y2="100.000000"  style="stroke:black; stroke-linecap:round; stroke-width:0.25;"/>
<line x1="185.000000" y1="100.000000" x2="185.000000" y2="100.000000"  style="stroke:black; stroke-linecap:round; stroke-width:0.25;"/>
<line x1="185.000000" y1="100.000000" x2="189.000000" y2="100.000000"  style="stroke:black; stroke-linecap:round; stroke-width:0.25;"/>
<line x1="318.000000" y1="68.000000" x2="322.000000" y2="68.000000"  style="stroke:black; stroke-linecap:round; stroke-width:0.25;"/>
<line x1="318.000000" y1="100.000000" x2="322.000000" y2="100.000000"  style="stroke:black; stroke-linecap:round; stroke-width:0.25;"/>
<line x1="322.000000" y1="52.000000" x2="330.000000" y2="52.000000"  style="stroke:black; stroke-linecap:round; stroke-width:0.25;"/>
<line x1="322.000000" y1="68.000000" x2="322.000000" y2="52.000000"  style="stroke:black; stroke-linecap:round; stroke-width:0.25;"/>
<line x1="322.000000" y1="68.000000" x2="322.000000" y2="68.000000"  style="stroke:black; stroke-linecap:round; stroke-width:0.25;"/>
<line x1="322.000000" y1="100.000000" x2="330.000000" y2="100.000000"  style="stroke:black; stroke-linecap:round; stroke-width:0.25;"/>
<line x1="330.000000" y1="52.000000" x2="334.000000" y2="52.000000"  style="stroke:black; stroke-linecap:round; stroke-width:0.25;"/>
<line x1="330.000000" y1="100.000000" x2="330.000000" y2="116.000000"  style="stroke:black; stroke-linecap:round; stroke-width:0.25;"/>
<line x1="330.000000" y1="116.000000" x2="330.000000" y2="116.000000"  style="stroke:black; stroke-linecap:round; stroke-width:0.25;"/>
<line x1="330.000000" y1="116.000000" x2="334.000000" y2="116.000000"  style="stroke:black; stroke-linecap:round; stroke-width:0.25;"/>
<line x1="334.000000" y1="52.000000" x2="338.000000" y2="52.000000"  style="stroke:black; stroke-linecap:round; stroke-width:0.25;"/>
<line x1="334.000000" y1="116.000000" x2="338.000000" y2="116.000000"  style="stroke:black; stroke-linecap:round; stroke-width:0.25;"/>
<line x1="338.000000" y1="52.000000" x2="356.000000" y2="36.000000"  style="stroke:black; stroke-linecap:round; stroke-width:0.25;"/>
<line x1="338.000000" y1="52.000000" x2="356.000000" y2="68.000000"  style="stroke:black; stroke-linecap:round; stroke-width:0.25;"/>
<line x1="338.000000" y1="116.000000" x2="356.000000" y2="100.000000"  style="stroke:black; stroke-linecap:round; stroke-width:0.25;"/>
<line x1="338.000000" y1="116.000000" x2="356.000000" y2="132.000000"  style="stroke:black; stroke-linecap:round; stroke-width:0.25;"/>
<line x1="356.000000" y1="36.000000" x2="360.000000" y2="36.000000"  style="stroke:black; stroke-linecap:round; stroke-width:0.25;"/>
<line x1="356.000000" y1="68.000000" x2="360.000000" y2="68.000000"  style="stroke:black; stroke-linecap:round; stroke-width:0.25;"/>
<line x1="356.000000" y1="100.000000" x2="360.000000" y2="100.000000"  style="stroke:black; stroke-linecap:round; stroke-width:0.25;"/>
<line x1="356.000000" y1="132.000000" x2="360.000000" y2="132.000000"  style="stroke:black; stroke-linecap:round; stroke-width:0.25;"/>
<line x1="489.000000" y1="36.000000" x2="493.000000" y2="36.000000"  style="stroke:black; stroke-linecap:round; stroke-width:0.25;"/>
<line x1="489.000000" y1="68.000000" x2="493.000000" y2="68.000000"  style="stroke:black; stroke-linecap:round; stroke-width:0.25;"/>
<line x1="489.000000" y1="100.000000" x2="493.000000" y2="100.000000"  style="stroke:black; stroke-linecap:round; stroke-width:0.25;"/>
<line x1="489.000000" y1="132.000000" x2="493.000000" y2="132.000000"  style="stroke:black; stroke-linecap:round; stroke-width:0.25;"/>
<line x1="493.000000" y1="36.000000" x2="511.000000" y2="52.000000"  style="stroke:black; stroke-linecap:round; stroke-width:0.25;"/>
<line x1="493.000000" y1="68.000000" x2="511.000000" y2="52.000000"  style="stroke:black; stroke-linecap:round; stroke-width:0.25;"/>
<line x1="493.000000" y1="100.000000" x2="511.000000" y2="116.000000"  style="stroke:black; stroke-linecap:round; stroke-width:0.25;"/>
<line x1="493.000000" y1="132.000000" x2="511.000000" y2="116.000000"  style="stroke:black; stroke-linecap:round; stroke-width:0.25;"/>
<line x1="511.000000" y1="52.000000" x2="515.000000" y2="52.000000"  style="stroke:black; stroke-linecap:round; stroke-width:0.25;"/>
<line x1="511.000000" y1="116.000000" x2="515.000000" y2="116.000000"  style="stroke:black; stroke-linecap:round; stroke-width:0.25;"/>
<line x1="515.000000" y1="52.000000" x2="519.000000" y2="52.000000"  style="stroke:black; stroke-linecap:round; stroke-width:0.25;"/>
<line x1="515.000000" y1="116.000000" x2="519.000000" y2="116.000000"  style="stroke:black; stroke-linecap:round; stroke-width:0.25;"/>
<line x1="519.000000" y1="52.000000" x2="527.000000" y2="52.000000"  style="stroke:black; stroke-linecap:round; stroke-width:0.25;"/>
<line x1="519.000000" y1="88.000000" x2="527.000000" y2="88.000000"  style="stroke:black; stroke-linecap:round; stroke-width:0.25;"/>
<line x1="519.000000" y1="116.000000" x2="519.000000" y2="88.000000"  style="stroke:black; stroke-linecap:round; stroke-width:0.25;"/>
<line x1="519.000000" y1="116.000000" x2="519.000000" y2="116.000000"  style="stroke:black; stroke-linecap:round; stroke-width:0.25;"/>
<line x1="527.000000" y1="52.000000" x2="527.000000" y2="80.000000"  style="stroke:black; stroke-linecap:round; stroke-width:0.25;"/>
<line x1="527.000000" y1="80.000000" x2="527.000000" y2="80.000000"  style="stroke:black; stroke-linecap:round; stroke-width:0.25;"/>
<line x1="527.000000" y1="80.000000" x2="531.000000" y2="80.000000"  style="stroke:black; stroke-linecap:round; stroke-width:0.25;"/>
<line x1="527.000000" y1="88.000000" x2="527.000000" y2="88.000000"  style="stroke:black; stroke-linecap:round; stroke-width:0.25;"/>
<line x1="527.000000" y1="88.000000" x2="531.000000" y2="88.000000"  style="stroke:black; stroke-linecap:round; stroke-width:0.25;"/>
<line x1="531.000000" y1="80.000000" x2="535.000000" y2="80.000000"  style="stroke:black; stroke-linecap:round; stroke-width:0.25;"/>
<line x1="531.000000" y1="88.000000" x2="535.000000" y2="88.000000"  style="stroke:black; stroke-linecap:round; stroke-width:0.25;"/>
<line x1="535.000000" y1="80.000000" x2="545.000000" y2="80.000000"  style="stroke:black; stroke-linecap:round; stroke-width:0.25;"/>
<line x1="535.000000" y1="88.000000" x2="545.000000" y2="88.000000"  style="stroke:black; stroke-linecap:round; stroke-width:0.25;"/>
</svg>
