<?xml version="1.0"?>
<svg xmlns="http://www.w3.org/2000/svg" xmlns:xlink="http://www.w3.org/1999/xlink" viewBox="0 0 591.700000 408.000000" width="295.850000mm" height="204.000000mm" version="1.1">
<a xlink:href="CZ-0x3fab580.svg">
<rect x="1.000000" y="1.000000" width="590.700000" height="407.000000" rx="0" ry="0" style="stroke:none;fill:#cccccc;"/>
<rect x="0.000000" y="0.000000" width="590.700000" height="407.000000" rx="0" ry="0" style="stroke:none;fill:#ffffff;"/>
</a>
<text x="10.000000" y="7.000000" font-family="Arial" font-size="7"></text>
<rect x="103.950000" y="25.000000" width="24.000000" height="24.000000" rx="0" ry="0" style="stroke:none;fill:#cccccc;"/>
<rect x="102.950000" y="24.000000" width="24.000000" height="24.000000" rx="0" ry="0" style="stroke:none;fill:#f44800;"/>
<text x="114.950000" y="38.000000" font-family="Arial" font-size="7" text-anchor="middle" fill="#FFFFFF">-1</text>
<circle cx="104.950000" cy="26.000000" r="1"/>
<rect x="83.950000" y="67.000000" width="24.000000" height="24.000000" rx="0" ry="0" style="stroke:none;fill:#cccccc;"/>
<rect x="82.950000" y="66.000000" width="24.000000" height="24.000000" rx="0" ry="0" style="stroke:none;fill:#f44800;"/>
<text x="94.950000" y="80.000000" font-family="Arial" font-size="7" text-anchor="middle" fill="#FFFFFF">1</text>
<circle cx="84.950000" cy="68.000000" r="1"/>
<line x1="73.950000" y1="57.000000" x2="73.950000" y2="99.000000"  style="stroke: black; stroke-linecap:round; stroke-width:0.25; stroke-dasharray:3,3;"/>
<line x1="73.950000" y1="99.000000" x2="115.950000" y2="99.000000"  style="stroke: black; stroke-linecap:round; stroke-width:0.25; stroke-dasharray:3,3;"/>
<line x1="115.950000" y1="99.000000" x2="115.950000" y2="57.000000"  style="stroke: black; stroke-linecap:round; stroke-width:0.25; stroke-dasharray:3,3;"/>
<line x1="73.950000" y1="57.000000" x2="78.950000" y2="57.000000"  style="stroke: black; stroke-linecap:round; stroke-width:0.25; stroke-dasharray:3,3;"/>
<line x1="115.950000" y1="57.000000" x2="115.950000" y2="57.000000"  style="stroke: black; stroke-linecap:round; stroke-width:0.25; stroke-dasharray:3,3;"/>
<text x="78.950000" y="59.000000" font-family="Arial" font-size="7">facs2(4)(((4,...nt) : -) : +)(4)</text>
<a xlink:href="fund-0x3fa38a0.svg">
<rect x="25.000000" y="109.000000" width="141.900000" height="24.000000" rx="0" ry="0" style="stroke:none;fill:#cccccc;"/>
<rect x="24.000000" y="108.000000" width="141.900000" height="24.000000" rx="0" ry="0" style="stroke:none;fill:#003366;"/>
</a>
<a xlink:href="fund-0x3fa38a0.svg">
<text x="94.950000" y="122.000000" font-family="Arial" font-size="7" text-anchor="middle" fill="#FFFFFF">fund(vgroup(&quot;..., lenv = {}])(2)</text>
</a>
<circle cx="26.000000" cy="110.000000" r="1"/>
<rect x="182.900000" y="83.000000" width="24.000000" height="24.000000" rx="0" ry="0" style="stroke:none;fill:#cccccc;"/>
<rect x="181.900000" y="82.000000" width="24.000000" height="24.000000" rx="0" ry="0" style="stroke:none;fill:#4B71A1;"/>
<text x="193.900000" y="96.000000" font-family="Arial" font-size="7" text-anchor="middle" fill="#FFFFFF">-</text>
<circle cx="183.900000" cy="84.000000" r="1"/>
<line x1="178.900000" y1="89.000000" x2="181.900000" y2="90.000000"  transform="rotate(0.000000,181.900000,90.000000)" style="stroke: black; stroke-width:0.25;"/>
<line x1="178.900000" y1="91.000000" x2="181.900000" y2="90.000000"  transform="rotate(0.000000,181.900000,90.000000)" style="stroke: black; stroke-width:0.25;"/>
<line x1="178.900000" y1="97.000000" x2="181.900000" y2="98.000000"  transform="rotate(0.000000,181.900000,98.000000)" style="stroke: black; stroke-width:0.25;"/>
<line x1="178.900000" y1="99.000000" x2="181.900000" y2="98.000000"  transform="rotate(0.000000,181.900000,98.000000)" style="stroke: black; stroke-width:0.25;"/>
<rect x="222.900000" y="67.000000" width="24.000000" height="24.000000" rx="0" ry="0" style="stroke:none;fill:#cccccc;"/>
<rect x="221.900000" y="66.000000" width="24.000000" height="24.000000" rx="0" ry="0" style="stroke:none;fill:#4B71A1;"/>
<text x="233.900000" y="80.000000" font-family="Arial" font-size="7" text-anchor="middle" fill="#FFFFFF">*</text>
<circle cx="223.900000" cy="68.000000" r="1"/>
<line x1="218.900000" y1="73.000000" x2="221.900000" y2="74.000000"  transform="rotate(0.000000,221.900000,74.000000)" style="stroke: black; stroke-width:0.25;"/>
<line x1="218.900000" y1="75.000000" x2="221.900000" y2="74.000000"  transform="rotate(0.000000,221.900000,74.000000)" style="stroke: black; stroke-width:0.25;"/>
<line x1="218.900000" y1="81.000000" x2="221.900000" y2="82.000000"  transform="rotate(0.000000,221.900000,82.000000)" style="stroke: black; stroke-width:0.25;"/>
<line x1="218.900000" y1="83.000000" x2="221.900000" y2="82.000000"  transform="rotate(0.000000,221.900000,82.000000)" style="stroke: black; stroke-width:0.25;"/>
<rect x="262.900000" y="63.000000" width="25.800000" height="24.000000" rx="0" ry="0" style="stroke:none;fill:#cccccc;"/>
<rect x="261.900000" y="62.000000" width="25.800000" height="24.000000" rx="0" ry="0" style="stroke:none;fill:#f44800;"/>
<text x="274.800000" y="76.000000" font-family="Arial" font-size="7" text-anchor="middle" fill="#FFFFFF">-0.5</text>
<circle cx="263.900000" cy="64.000000" r="1"/>
<rect x="304.700000" y="67.000000" width="24.000000" height="24.000000" rx="0" ry="0" style="stroke:none;fill:#cccccc;"/>
<rect x="303.700000" y="66.000000" width="24.000000" height="24.000000" rx="0" ry="0" style="stroke:none;fill:#4B71A1;"/>
<text x="315.700000" y="80.000000" font-family="Arial" font-size="7" text-anchor="middle" fill="#FFFFFF">max</text>
<circle cx="305.700000" cy="68.000000" r="1"/>
<line x1="300.700000" y1="73.000000" x2="303.700000" y2="74.000000"  transform="rotate(0.000000,303.700000,74.000000)" style="stroke: black; stroke-width:0.25;"/>
<line x1="300.700000" y1="75.000000" x2="303.700000" y2="74.000000"  transform="rotate(0.000000,303.700000,74.000000)" style="stroke: black; stroke-width:0.25;"/>
<line x1="300.700000" y1="81.000000" x2="303.700000" y2="82.000000"  transform="rotate(0.000000,303.700000,82.000000)" style="stroke: black; stroke-width:0.25;"/>
<line x1="300.700000" y1="83.000000" x2="303.700000" y2="82.000000"  transform="rotate(0.000000,303.700000,82.000000)" style="stroke: black; stroke-width:0.25;"/>
<rect x="336.700000" y="47.000000" width="24.000000" height="24.000000" rx="0" ry="0" style="stroke:none;fill:#cccccc;"/>
<rect x="335.700000" y="46.000000" width="24.000000" height="24.000000" rx="0" ry="0" style="stroke:none;fill:#f44800;"/>
<text x="347.700000" y="60.000000" font-family="Arial" font-size="7" text-anchor="middle" fill="#FFFFFF">0.5</text>
<circle cx="337.700000" cy="48.000000" r="1"/>
<rect x="376.700000" y="51.000000" width="24.000000" height="24.000000" rx="0" ry="0" style="stroke:none;fill:#cccccc;"/>
<rect x="375.700000" y="50.000000" width="24.000000" height="24.000000" rx="0" ry="0" style="stroke:none;fill:#4B71A1;"/>
<text x="387.700000" y="64.000000" font-family="Arial" font-size="7" text-anchor="middle" fill="#FFFFFF">min</text>
<circle cx="377.700000" cy="52.000000" r="1"/>
<line x1="372.700000" y1="57.000000" x2="375.700000" y2="58.000000"  transform="rotate(0.000000,375.700000,58.000000)" style="stroke: black; stroke-width:0.25;"/>
<line x1="372.700000" y1="59.000000" x2="375.700000" y2="58.000000"  transform="rotate(0.000000,375.700000,58.000000)" style="stroke: black; stroke-width:0.25;"/>
<line x1="372.700000" y1="65.000000" x2="375.700000" y2="66.000000"  transform="rotate(0.000000,375.700000,66.000000)" style="stroke: black; stroke-width:0.25;"/>
<line x1="372.700000" y1="67.000000" x2="375.700000" y2="66.000000"  transform="rotate(0.000000,375.700000,66.000000)" style="stroke: black; stroke-width:0.25;"/>
<rect x="356.700000" y="87.000000" width="24.000000" height="24.000000" rx="0" ry="0" style="stroke:none;fill:#cccccc;"/>
<rect x="355.700000" y="86.000000" width="24.000000" height="24.000000" rx="0" ry="0" style="stroke:none;fill:#f44800;"/>
<text x="367.700000" y="100.000000" font-family="Arial" font-size="7" text-anchor="middle" fill="#FFFFFF">2</text>
<circle cx="357.700000" cy="88.000000" r="1"/>
<rect x="416.700000" y="67.000000" width="24.000000" height="24.000000" rx="0" ry="0" style="stroke:none;fill:#cccccc;"/>
<rect x="415.700000" y="66.000000" width="24.000000" height="24.000000" rx="0" ry="0" style="stroke:none;fill:#4B71A1;"/>
<text x="427.700000" y="80.000000" font-family="Arial" font-size="7" text-anchor="middle" fill="#FFFFFF">*</text>
<circle cx="417.700000" cy="68.000000" r="1"/>
<line x1="412.700000" y1="73.000000" x2="415.700000" y2="74.000000"  transform="rotate(0.000000,415.700000,74.000000)" style="stroke: black; stroke-width:0.25;"/>
<line x1="412.700000" y1="75.000000" x2="415.700000" y2="74.000000"  transform="rotate(0.000000,415.700000,74.000000)" style="stroke: black; stroke-width:0.25;"/>
<line x1="412.700000" y1="81.000000" x2="415.700000" y2="82.000000"  transform="rotate(0.000000,415.700000,82.000000)" style="stroke: black; stroke-width:0.25;"/>
<line x1="412.700000" y1="83.000000" x2="415.700000" y2="82.000000"  transform="rotate(0.000000,415.700000,82.000000)" style="stroke: black; stroke-width:0.25;"/>
<a xlink:href="fracPart-0x3fa9e00.svg">
<rect x="92.350000" y="141.000000" width="129.000000" height="24.000000" rx="0" ry="0" style="stroke:none;fill:#cccccc;"/>
<rect x="91.350000" y="140.000000" width="129.000000" height="24.000000" rx="0" ry="0" style="stroke:none;fill:#003366;"/>
</a>
<a xlink:href="fracPart-0x3fa9e00.svg">
<text x="155.850000" y="154.000000" font-family="Arial" font-size="7" text-anchor="middle" fill="#FFFFFF">fracPart((((4...) : *),1 : +)</text>
</a>
<circle cx="93.350000" cy="142.000000" r="1"/>
<rect x="144.850000" y="173.000000" width="24.000000" height="24.000000" rx="0" ry="0" style="stroke:none;fill:#cccccc;"/>
<rect x="143.850000" y="172.000000" width="24.000000" height="24.000000" rx="0" ry="0" style="stroke:none;fill:#f44800;"/>
<text x="155.850000" y="186.000000" font-family="Arial" font-size="7" text-anchor="middle" fill="#FFFFFF">2</text>
<circle cx="145.850000" cy="174.000000" r="1"/>
<rect x="237.350000" y="157.000000" width="24.000000" height="24.000000" rx="0" ry="0" style="stroke:none;fill:#cccccc;"/>
<rect x="236.350000" y="156.000000" width="24.000000" height="24.000000" rx="0" ry="0" style="stroke:none;fill:#4B71A1;"/>
<text x="248.350000" y="170.000000" font-family="Arial" font-size="7" text-anchor="middle" fill="#FFFFFF">*</text>
<circle cx="238.350000" cy="158.000000" r="1"/>
<line x1="233.350000" y1="163.000000" x2="236.350000" y2="164.000000"  transform="rotate(0.000000,236.350000,164.000000)" style="stroke: black; stroke-width:0.25;"/>
<line x1="233.350000" y1="165.000000" x2="236.350000" y2="164.000000"  transform="rotate(0.000000,236.350000,164.000000)" style="stroke: black; stroke-width:0.25;"/>
<line x1="233.350000" y1="171.000000" x2="236.350000" y2="172.000000"  transform="rotate(0.000000,236.350000,172.000000)" style="stroke: black; stroke-width:0.25;"/>
<line x1="233.350000" y1="173.000000" x2="236.350000" y2="172.000000"  transform="rotate(0.000000,236.350000,172.000000)" style="stroke: black; stroke-width:0.25;"/>
<rect x="157.500000" y="215.000000" width="38.700000" height="24.000000" rx="0" ry="0" style="stroke:none;fill:#cccccc;"/>
<rect x="156.500000" y="214.000000" width="38.700000" height="24.000000" rx="0" ry="0" style="stroke:none;fill:#f44800;"/>
<text x="175.850000" y="228.000000" font-family="Arial" font-size="7" text-anchor="middle" fill="#FFFFFF">3.14159</text>
<circle cx="158.500000" cy="216.000000" r="1"/>
<line x1="147.500000" y1="205.000000" x2="147.500000" y2="247.000000"  style="stroke: black; stroke-linecap:round; stroke-width:0.25; stroke-dasharray:3,3;"/>
<line x1="147.500000" y1="247.000000" x2="204.200000" y2="247.000000"  style="stroke: black; stroke-linecap:round; stroke-width:0.25; stroke-dasharray:3,3;"/>
<line x1="204.200000" y1="247.000000" x2="204.200000" y2="205.000000"  style="stroke: black; stroke-linecap:round; stroke-width:0.25; stroke-dasharray:3,3;"/>
<line x1="147.500000" y1="205.000000" x2="152.500000" y2="205.000000"  style="stroke: black; stroke-linecap:round; stroke-width:0.25; stroke-dasharray:3,3;"/>
<line x1="165.400000" y1="205.000000" x2="204.200000" y2="205.000000"  style="stroke: black; stroke-linecap:round; stroke-width:0.25; stroke-dasharray:3,3;"/>
<text x="152.500000" y="207.000000" font-family="Arial" font-size="7">PI</text>
<rect x="277.350000" y="183.000000" width="24.000000" height="24.000000" rx="0" ry="0" style="stroke:none;fill:#cccccc;"/>
<rect x="276.350000" y="182.000000" width="24.000000" height="24.000000" rx="0" ry="0" style="stroke:none;fill:#4B71A1;"/>
<text x="288.350000" y="196.000000" font-family="Arial" font-size="7" text-anchor="middle" fill="#FFFFFF">*</text>
<circle cx="278.350000" cy="184.000000" r="1"/>
<line x1="273.350000" y1="189.000000" x2="276.350000" y2="190.000000"  transform="rotate(0.000000,276.350000,190.000000)" style="stroke: black; stroke-width:0.25;"/>
<line x1="273.350000" y1="191.000000" x2="276.350000" y2="190.000000"  transform="rotate(0.000000,276.350000,190.000000)" style="stroke: black; stroke-width:0.25;"/>
<line x1="273.350000" y1="197.000000" x2="276.350000" y2="198.000000"  transform="rotate(0.000000,276.350000,198.000000)" style="stroke: black; stroke-width:0.25;"/>
<line x1="273.350000" y1="199.000000" x2="276.350000" y2="198.000000"  transform="rotate(0.000000,276.350000,198.000000)" style="stroke: black; stroke-width:0.25;"/>
<rect x="309.350000" y="183.000000" width="24.000000" height="24.000000" rx="0" ry="0" style="stroke:none;fill:#cccccc;"/>
<rect x="308.350000" y="182.000000" width="24.000000" height="24.000000" rx="0" ry="0" style="stroke:none;fill:#4B71A1;"/>
<text x="320.350000" y="196.000000" font-family="Arial" font-size="7" text-anchor="middle" fill="#FFFFFF">cos</text>
<circle cx="310.350000" cy="184.000000" r="1"/>
<line x1="305.350000" y1="193.000000" x2="308.350000" y2="194.000000"  transform="rotate(0.000000,308.350000,194.000000)" style="stroke: black; stroke-width:0.25;"/>
<line x1="305.350000" y1="195.000000" x2="308.350000" y2="194.000000"  transform="rotate(0.000000,308.350000,194.000000)" style="stroke: black; stroke-width:0.25;"/>
<rect x="200.850000" y="257.000000" width="24.000000" height="24.000000" rx="0" ry="0" style="stroke:none;fill:#cccccc;"/>
<rect x="199.850000" y="256.000000" width="24.000000" height="24.000000" rx="0" ry="0" style="stroke:none;fill:#f44800;"/>
<text x="211.850000" y="270.000000" font-family="Arial" font-size="7" text-anchor="middle" fill="#FFFFFF">-1</text>
<circle cx="201.850000" cy="258.000000" r="1"/>
<rect x="349.350000" y="199.000000" width="24.000000" height="24.000000" rx="0" ry="0" style="stroke:none;fill:#cccccc;"/>
<rect x="348.350000" y="198.000000" width="24.000000" height="24.000000" rx="0" ry="0" style="stroke:none;fill:#4B71A1;"/>
<text x="360.350000" y="212.000000" font-family="Arial" font-size="7" text-anchor="middle" fill="#FFFFFF">*</text>
<circle cx="350.350000" cy="200.000000" r="1"/>
<line x1="345.350000" y1="205.000000" x2="348.350000" y2="206.000000"  transform="rotate(0.000000,348.350000,206.000000)" style="stroke: black; stroke-width:0.25;"/>
<line x1="345.350000" y1="207.000000" x2="348.350000" y2="206.000000"  transform="rotate(0.000000,348.350000,206.000000)" style="stroke: black; stroke-width:0.25;"/>
<line x1="345.350000" y1="213.000000" x2="348.350000" y2="214.000000"  transform="rotate(0.000000,348.350000,214.000000)" style="stroke: black; stroke-width:0.25;"/>
<line x1="345.350000" y1="215.000000" x2="348.350000" y2="214.000000"  transform="rotate(0.000000,348.350000,214.000000)" style="stroke: black; stroke-width:0.25;"/>
<rect x="456.700000" y="141.000000" width="24.000000" height="24.000000" rx="0" ry="0" style="stroke:none;fill:#cccccc;"/>
<rect x="455.700000" y="140.000000" width="24.000000" height="24.000000" rx="0" ry="0" style="stroke:none;fill:#4B71A1;"/>
<text x="467.700000" y="154.000000" font-family="Arial" font-size="7" text-anchor="middle" fill="#FFFFFF">*</text>
<circle cx="457.700000" cy="142.000000" r="1"/>
<line x1="452.700000" y1="147.000000" x2="455.700000" y2="148.000000"  transform="rotate(0.000000,455.700000,148.000000)" style="stroke: black; stroke-width:0.25;"/>
<line x1="452.700000" y1="149.000000" x2="455.700000" y2="148.000000"  transform="rotate(0.000000,455.700000,148.000000)" style="stroke: black; stroke-width:0.25;"/>
<line x1="452.700000" y1="155.000000" x2="455.700000" y2="156.000000"  transform="rotate(0.000000,455.700000,156.000000)" style="stroke: black; stroke-width:0.25;"/>
<line x1="452.700000" y1="157.000000" x2="455.700000" y2="156.000000"  transform="rotate(0.000000,455.700000,156.000000)" style="stroke: black; stroke-width:0.25;"/>
<rect x="240.850000" y="299.000000" width="24.000000" height="24.000000" rx="0" ry="0" style="stroke:none;fill:#cccccc;"/>
<rect x="239.850000" y="298.000000" width="24.000000" height="24.000000" rx="0" ry="0" style="stroke:none;fill:#f44800;"/>
<text x="251.850000" y="312.000000" font-family="Arial" font-size="7" text-anchor="middle" fill="#FFFFFF">1</text>
<circle cx="241.850000" cy="300.000000" r="1"/>
<line x1="230.850000" y1="289.000000" x2="230.850000" y2="331.000000"  style="stroke: black; stroke-linecap:round; stroke-width:0.25; stroke-dasharray:3,3;"/>
<line x1="230.850000" y1="331.000000" x2="272.850000" y2="331.000000"  style="stroke: black; stroke-linecap:round; stroke-width:0.25; stroke-dasharray:3,3;"/>
<line x1="272.850000" y1="331.000000" x2="272.850000" y2="289.000000"  style="stroke: black; stroke-linecap:round; stroke-width:0.25; stroke-dasharray:3,3;"/>
<line x1="230.850000" y1="289.000000" x2="235.850000" y2="289.000000"  style="stroke: black; stroke-linecap:round; stroke-width:0.25; stroke-dasharray:3,3;"/>
<line x1="272.850000" y1="289.000000" x2="272.850000" y2="289.000000"  style="stroke: black; stroke-linecap:round; stroke-width:0.25; stroke-dasharray:3,3;"/>
<text x="235.850000" y="291.000000" font-family="Arial" font-size="7">facs2(4)(((4,...nt) : -) : +)(4)</text>
<rect x="496.700000" y="167.000000" width="24.000000" height="24.000000" rx="0" ry="0" style="stroke:none;fill:#cccccc;"/>
<rect x="495.700000" y="166.000000" width="24.000000" height="24.000000" rx="0" ry="0" style="stroke:none;fill:#4B71A1;"/>
<text x="507.700000" y="180.000000" font-family="Arial" font-size="7" text-anchor="middle" fill="#FFFFFF">+</text>
<circle cx="497.700000" cy="168.000000" r="1"/>
<line x1="492.700000" y1="173.000000" x2="495.700000" y2="174.000000"  transform="rotate(0.000000,495.700000,174.000000)" style="stroke: black; stroke-width:0.25;"/>
<line x1="492.700000" y1="175.000000" x2="495.700000" y2="174.000000"  transform="rotate(0.000000,495.700000,174.000000)" style="stroke: black; stroke-width:0.25;"/>
<line x1="492.700000" y1="181.000000" x2="495.700000" y2="182.000000"  transform="rotate(0.000000,495.700000,182.000000)" style="stroke: black; stroke-width:0.25;"/>
<line x1="492.700000" y1="183.000000" x2="495.700000" y2="182.000000"  transform="rotate(0.000000,495.700000,182.000000)" style="stroke: black; stroke-width:0.25;"/>
<rect x="260.850000" y="351.000000" width="24.000000" height="24.000000" rx="0" ry="0" style="stroke:none;fill:#cccccc;"/>
<rect x="259.850000" y="350.000000" width="24.000000" height="24.000000" rx="0" ry="0" style="stroke:none;fill:#f44800;"/>
<text x="271.850000" y="364.000000" font-family="Arial" font-size="7" text-anchor="middle" fill="#FFFFFF">1</text>
<circle cx="261.850000" cy="352.000000" r="1"/>
<line x1="250.850000" y1="341.000000" x2="250.850000" y2="383.000000"  style="stroke: black; stroke-linecap:round; stroke-width:0.25; stroke-dasharray:3,3;"/>
<line x1="250.850000" y1="383.000000" x2="292.850000" y2="383.000000"  style="stroke: black; stroke-linecap:round; stroke-width:0.25; stroke-dasharray:3,3;"/>
<line x1="292.850000" y1="383.000000" x2="292.850000" y2="341.000000"  style="stroke: black; stroke-linecap:round; stroke-width:0.25; stroke-dasharray:3,3;"/>
<line x1="250.850000" y1="341.000000" x2="255.850000" y2="341.000000"  style="stroke: black; stroke-linecap:round; stroke-width:0.25; stroke-dasharray:3,3;"/>
<line x1="292.850000" y1="341.000000" x2="292.850000" y2="341.000000"  style="stroke: black; stroke-linecap:round; stroke-width:0.25; stroke-dasharray:3,3;"/>
<text x="255.850000" y="343.000000" font-family="Arial" font-size="7">facs2(4)(((4,...nt) : -) : +)(4)</text>
<rect x="536.700000" y="193.000000" width="24.000000" height="24.000000" rx="0" ry="0" style="stroke:none;fill:#cccccc;"/>
<rect x="535.700000" y="192.000000" width="24.000000" height="24.000000" rx="0" ry="0" style="stroke:none;fill:#4B71A1;"/>
<text x="547.700000" y="206.000000" font-family="Arial" font-size="7" text-anchor="middle" fill="#FFFFFF">+</text>
<circle cx="537.700000" cy="194.000000" r="1"/>
<line x1="532.700000" y1="199.000000" x2="535.700000" y2="200.000000"  transform="rotate(0.000000,535.700000,200.000000)" style="stroke: black; stroke-width:0.25;"/>
<line x1="532.700000" y1="201.000000" x2="535.700000" y2="200.000000"  transform="rotate(0.000000,535.700000,200.000000)" style="stroke: black; stroke-width:0.25;"/>
<line x1="532.700000" y1="207.000000" x2="535.700000" y2="208.000000"  transform="rotate(0.000000,535.700000,208.000000)" style="stroke: black; stroke-width:0.25;"/>
<line x1="532.700000" y1="209.000000" x2="535.700000" y2="208.000000"  transform="rotate(0.000000,535.700000,208.000000)" style="stroke: black; stroke-width:0.25;"/>
<line x1="15.000000" y1="15.000000" x2="15.000000" y2="393.000000"  style="stroke: black; stroke-linecap:round; stroke-width:0.25; stroke-dasharray:3,3;"/>
<line x1="15.000000" y1="393.000000" x2="576.700000" y2="393.000000"  style="stroke: black; stroke-linecap:round; stroke-width:0.25; stroke-dasharray:3,3;"/>
<line x1="576.700000" y1="393.000000" x2="576.700000" y2="15.000000"  style="stroke: black; stroke-linecap:round; stroke-width:0.25; stroke-dasharray:3,3;"/>
<line x1="15.000000" y1="15.000000" x2="20.000000" y2="15.000000"  style="stroke: black; stroke-linecap:round; stroke-width:0.25; stroke-dasharray:3,3;"/>
<line x1="119.975000" y1="15.000000" x2="576.700000" y2="15.000000"  style="stroke: black; stroke-linecap:round; stroke-width:0.25; stroke-dasharray:3,3;"/>
<text x="20.000000" y="17.000000" font-family="Arial" font-size="7">CZrestrap((4,...25f : +) : *)</text>
<line x1="578.700000" y1="203.000000" x2="581.700000" y2="204.000000"  transform="rotate(0.000000,581.700000,204.000000)" style="stroke: black; stroke-width:0.25;"/>
<line x1="578.700000" y1="205.000000" x2="581.700000" y2="204.000000"  transform="rotate(0.000000,581.700000,204.000000)" style="stroke: black; stroke-width:0.25;"/>
<line x1="106.950000" y1="78.000000" x2="110.950000" y2="78.000000"  style="stroke:black; stroke-linecap:round; stroke-width:0.25;"/>
<line x1="110.950000" y1="78.000000" x2="120.950000" y2="78.000000"  style="stroke:black; stroke-linecap:round; stroke-width:0.25;"/>
<line x1="120.950000" y1="78.000000" x2="169.900000" y2="78.000000"  style="stroke:black; stroke-linecap:round; stroke-width:0.25;"/>
<line x1="126.950000" y1="36.000000" x2="130.950000" y2="36.000000"  style="stroke:black; stroke-linecap:round; stroke-width:0.25;"/>
<line x1="130.950000" y1="36.000000" x2="209.900000" y2="36.000000"  style="stroke:black; stroke-linecap:round; stroke-width:0.25;"/>
<line x1="165.900000" y1="120.000000" x2="169.900000" y2="120.000000"  style="stroke:black; stroke-linecap:round; stroke-width:0.25;"/>
<line x1="167.850000" y1="184.000000" x2="171.850000" y2="184.000000"  style="stroke:black; stroke-linecap:round; stroke-width:0.25;"/>
<line x1="169.900000" y1="78.000000" x2="177.900000" y2="78.000000"  style="stroke:black; stroke-linecap:round; stroke-width:0.25;"/>
<line x1="169.900000" y1="98.000000" x2="177.900000" y2="98.000000"  style="stroke:black; stroke-linecap:round; stroke-width:0.25;"/>
<line x1="169.900000" y1="120.000000" x2="169.900000" y2="98.000000"  style="stroke:black; stroke-linecap:round; stroke-width:0.25;"/>
<line x1="169.900000" y1="120.000000" x2="169.900000" y2="120.000000"  style="stroke:black; stroke-linecap:round; stroke-width:0.25;"/>
<line x1="171.850000" y1="184.000000" x2="224.350000" y2="184.000000"  style="stroke:black; stroke-linecap:round; stroke-width:0.25;"/>
<line x1="177.900000" y1="78.000000" x2="177.900000" y2="90.000000"  style="stroke:black; stroke-linecap:round; stroke-width:0.25;"/>
<line x1="177.900000" y1="90.000000" x2="177.900000" y2="90.000000"  style="stroke:black; stroke-linecap:round; stroke-width:0.25;"/>
<line x1="177.900000" y1="90.000000" x2="181.900000" y2="90.000000"  style="stroke:black; stroke-linecap:round; stroke-width:0.25;"/>
<line x1="177.900000" y1="98.000000" x2="181.900000" y2="98.000000"  style="stroke:black; stroke-linecap:round; stroke-width:0.25;"/>
<line x1="195.200000" y1="226.000000" x2="199.200000" y2="226.000000"  style="stroke:black; stroke-linecap:round; stroke-width:0.25;"/>
<line x1="199.200000" y1="226.000000" x2="209.200000" y2="226.000000"  style="stroke:black; stroke-linecap:round; stroke-width:0.25;"/>
<line x1="205.900000" y1="94.000000" x2="209.900000" y2="94.000000"  style="stroke:black; stroke-linecap:round; stroke-width:0.25;"/>
<line x1="209.200000" y1="226.000000" x2="264.350000" y2="226.000000"  style="stroke:black; stroke-linecap:round; stroke-width:0.25;"/>
<line x1="209.900000" y1="36.000000" x2="217.900000" y2="36.000000"  style="stroke:black; stroke-linecap:round; stroke-width:0.25;"/>
<line x1="209.900000" y1="82.000000" x2="217.900000" y2="82.000000"  style="stroke:black; stroke-linecap:round; stroke-width:0.25;"/>
<line x1="209.900000" y1="94.000000" x2="209.900000" y2="82.000000"  style="stroke:black; stroke-linecap:round; stroke-width:0.25;"/>
<line x1="209.900000" y1="94.000000" x2="209.900000" y2="94.000000"  style="stroke:black; stroke-linecap:round; stroke-width:0.25;"/>
<line x1="217.900000" y1="36.000000" x2="217.900000" y2="74.000000"  style="stroke:black; stroke-linecap:round; stroke-width:0.25;"/>
<line x1="217.900000" y1="74.000000" x2="217.900000" y2="74.000000"  style="stroke:black; stroke-linecap:round; stroke-width:0.25;"/>
<line x1="217.900000" y1="74.000000" x2="221.900000" y2="74.000000"  style="stroke:black; stroke-linecap:round; stroke-width:0.25;"/>
<line x1="217.900000" y1="82.000000" x2="221.900000" y2="82.000000"  style="stroke:black; stroke-linecap:round; stroke-width:0.25;"/>
<line x1="220.350000" y1="152.000000" x2="224.350000" y2="152.000000"  style="stroke:black; stroke-linecap:round; stroke-width:0.25;"/>
<line x1="223.850000" y1="268.000000" x2="227.850000" y2="268.000000"  style="stroke:black; stroke-linecap:round; stroke-width:0.25;"/>
<line x1="224.350000" y1="152.000000" x2="232.350000" y2="152.000000"  style="stroke:black; stroke-linecap:round; stroke-width:0.25;"/>
<line x1="224.350000" y1="172.000000" x2="232.350000" y2="172.000000"  style="stroke:black; stroke-linecap:round; stroke-width:0.25;"/>
<line x1="224.350000" y1="184.000000" x2="224.350000" y2="172.000000"  style="stroke:black; stroke-linecap:round; stroke-width:0.25;"/>
<line x1="224.350000" y1="184.000000" x2="224.350000" y2="184.000000"  style="stroke:black; stroke-linecap:round; stroke-width:0.25;"/>
<line x1="227.850000" y1="268.000000" x2="336.350000" y2="268.000000"  style="stroke:black; stroke-linecap:round; stroke-width:0.25;"/>
<line x1="232.350000" y1="152.000000" x2="232.350000" y2="164.000000"  style="stroke:black; stroke-linecap:round; stroke-width:0.25;"/>
<line x1="232.350000" y1="164.000000" x2="232.350000" y2="164.000000"  style="stroke:black; stroke-linecap:round; stroke-width:0.25;"/>
<line x1="232.350000" y1="164.000000" x2="236.350000" y2="164.000000"  style="stroke:black; stroke-linecap:round; stroke-width:0.25;"/>
<line x1="232.350000" y1="172.000000" x2="236.350000" y2="172.000000"  style="stroke:black; stroke-linecap:round; stroke-width:0.25;"/>
<line x1="245.900000" y1="78.000000" x2="249.900000" y2="78.000000"  style="stroke:black; stroke-linecap:round; stroke-width:0.25;"/>
<line x1="249.900000" y1="78.000000" x2="257.900000" y2="78.000000"  style="stroke:black; stroke-linecap:round; stroke-width:0.25;"/>
<line x1="257.900000" y1="78.000000" x2="257.900000" y2="94.000000"  style="stroke:black; stroke-linecap:round; stroke-width:0.25;"/>
<line x1="257.900000" y1="94.000000" x2="257.900000" y2="94.000000"  style="stroke:black; stroke-linecap:round; stroke-width:0.25;"/>
<line x1="257.900000" y1="94.000000" x2="274.800000" y2="94.000000"  style="stroke:black; stroke-linecap:round; stroke-width:0.25;"/>
<line x1="260.350000" y1="168.000000" x2="264.350000" y2="168.000000"  style="stroke:black; stroke-linecap:round; stroke-width:0.25;"/>
<line x1="263.850000" y1="310.000000" x2="267.850000" y2="310.000000"  style="stroke:black; stroke-linecap:round; stroke-width:0.25;"/>
<line x1="264.350000" y1="168.000000" x2="272.350000" y2="168.000000"  style="stroke:black; stroke-linecap:round; stroke-width:0.25;"/>
<line x1="264.350000" y1="198.000000" x2="272.350000" y2="198.000000"  style="stroke:black; stroke-linecap:round; stroke-width:0.25;"/>
<line x1="264.350000" y1="226.000000" x2="264.350000" y2="198.000000"  style="stroke:black; stroke-linecap:round; stroke-width:0.25;"/>
<line x1="264.350000" y1="226.000000" x2="264.350000" y2="226.000000"  style="stroke:black; stroke-linecap:round; stroke-width:0.25;"/>
<line x1="267.850000" y1="310.000000" x2="277.850000" y2="310.000000"  style="stroke:black; stroke-linecap:round; stroke-width:0.25;"/>
<line x1="272.350000" y1="168.000000" x2="272.350000" y2="190.000000"  style="stroke:black; stroke-linecap:round; stroke-width:0.25;"/>
<line x1="272.350000" y1="190.000000" x2="272.350000" y2="190.000000"  style="stroke:black; stroke-linecap:round; stroke-width:0.25;"/>
<line x1="272.350000" y1="190.000000" x2="276.350000" y2="190.000000"  style="stroke:black; stroke-linecap:round; stroke-width:0.25;"/>
<line x1="272.350000" y1="198.000000" x2="276.350000" y2="198.000000"  style="stroke:black; stroke-linecap:round; stroke-width:0.25;"/>
<line x1="274.800000" y1="94.000000" x2="291.700000" y2="94.000000"  style="stroke:black; stroke-linecap:round; stroke-width:0.25;"/>
<line x1="277.850000" y1="310.000000" x2="483.700000" y2="310.000000"  style="stroke:black; stroke-linecap:round; stroke-width:0.25;"/>
<line x1="283.850000" y1="362.000000" x2="287.850000" y2="362.000000"  style="stroke:black; stroke-linecap:round; stroke-width:0.25;"/>
<line x1="287.700000" y1="74.000000" x2="291.700000" y2="74.000000"  style="stroke:black; stroke-linecap:round; stroke-width:0.25;"/>
<line x1="287.850000" y1="362.000000" x2="297.850000" y2="362.000000"  style="stroke:black; stroke-linecap:round; stroke-width:0.25;"/>
<line x1="291.700000" y1="82.000000" x2="299.700000" y2="82.000000"  style="stroke:black; stroke-linecap:round; stroke-width:0.25;"/>
<line x1="291.700000" y1="94.000000" x2="291.700000" y2="82.000000"  style="stroke:black; stroke-linecap:round; stroke-width:0.25;"/>
<line x1="291.700000" y1="94.000000" x2="291.700000" y2="94.000000"  style="stroke:black; stroke-linecap:round; stroke-width:0.25;"/>
<line x1="291.700000" y1="74.000000" x2="299.700000" y2="74.000000"  style="stroke:black; stroke-linecap:round; stroke-width:0.25;"/>
<line x1="297.850000" y1="362.000000" x2="523.700000" y2="362.000000"  style="stroke:black; stroke-linecap:round; stroke-width:0.25;"/>
<line x1="299.700000" y1="74.000000" x2="303.700000" y2="74.000000"  style="stroke:black; stroke-linecap:round; stroke-width:0.25;"/>
<line x1="299.700000" y1="82.000000" x2="303.700000" y2="82.000000"  style="stroke:black; stroke-linecap:round; stroke-width:0.25;"/>
<line x1="300.350000" y1="194.000000" x2="304.350000" y2="194.000000"  style="stroke:black; stroke-linecap:round; stroke-width:0.25;"/>
<line x1="304.350000" y1="194.000000" x2="304.350000" y2="194.000000"  style="stroke:black; stroke-linecap:round; stroke-width:0.25;"/>
<line x1="304.350000" y1="194.000000" x2="308.350000" y2="194.000000"  style="stroke:black; stroke-linecap:round; stroke-width:0.25;"/>
<line x1="327.700000" y1="78.000000" x2="331.700000" y2="78.000000"  style="stroke:black; stroke-linecap:round; stroke-width:0.25;"/>
<line x1="331.700000" y1="78.000000" x2="331.700000" y2="78.000000"  style="stroke:black; stroke-linecap:round; stroke-width:0.25;"/>
<line x1="331.700000" y1="78.000000" x2="347.700000" y2="78.000000"  style="stroke:black; stroke-linecap:round; stroke-width:0.25;"/>
<line x1="332.350000" y1="194.000000" x2="336.350000" y2="194.000000"  style="stroke:black; stroke-linecap:round; stroke-width:0.25;"/>
<line x1="336.350000" y1="194.000000" x2="344.350000" y2="194.000000"  style="stroke:black; stroke-linecap:round; stroke-width:0.25;"/>
<line x1="336.350000" y1="214.000000" x2="344.350000" y2="214.000000"  style="stroke:black; stroke-linecap:round; stroke-width:0.25;"/>
<line x1="336.350000" y1="268.000000" x2="336.350000" y2="214.000000"  style="stroke:black; stroke-linecap:round; stroke-width:0.25;"/>
<line x1="336.350000" y1="268.000000" x2="336.350000" y2="268.000000"  style="stroke:black; stroke-linecap:round; stroke-width:0.25;"/>
<line x1="344.350000" y1="194.000000" x2="344.350000" y2="206.000000"  style="stroke:black; stroke-linecap:round; stroke-width:0.25;"/>
<line x1="344.350000" y1="206.000000" x2="344.350000" y2="206.000000"  style="stroke:black; stroke-linecap:round; stroke-width:0.25;"/>
<line x1="344.350000" y1="206.000000" x2="348.350000" y2="206.000000"  style="stroke:black; stroke-linecap:round; stroke-width:0.25;"/>
<line x1="344.350000" y1="214.000000" x2="348.350000" y2="214.000000"  style="stroke:black; stroke-linecap:round; stroke-width:0.25;"/>
<line x1="347.700000" y1="78.000000" x2="363.700000" y2="78.000000"  style="stroke:black; stroke-linecap:round; stroke-width:0.25;"/>
<line x1="359.700000" y1="58.000000" x2="363.700000" y2="58.000000"  style="stroke:black; stroke-linecap:round; stroke-width:0.25;"/>
<line x1="363.700000" y1="58.000000" x2="371.700000" y2="58.000000"  style="stroke:black; stroke-linecap:round; stroke-width:0.25;"/>
<line x1="363.700000" y1="66.000000" x2="371.700000" y2="66.000000"  style="stroke:black; stroke-linecap:round; stroke-width:0.25;"/>
<line x1="363.700000" y1="78.000000" x2="363.700000" y2="66.000000"  style="stroke:black; stroke-linecap:round; stroke-width:0.25;"/>
<line x1="363.700000" y1="78.000000" x2="363.700000" y2="78.000000"  style="stroke:black; stroke-linecap:round; stroke-width:0.25;"/>
<line x1="371.700000" y1="58.000000" x2="375.700000" y2="58.000000"  style="stroke:black; stroke-linecap:round; stroke-width:0.25;"/>
<line x1="371.700000" y1="66.000000" x2="375.700000" y2="66.000000"  style="stroke:black; stroke-linecap:round; stroke-width:0.25;"/>
<line x1="372.350000" y1="210.000000" x2="376.350000" y2="210.000000"  style="stroke:black; stroke-linecap:round; stroke-width:0.25;"/>
<line x1="376.350000" y1="210.000000" x2="443.700000" y2="210.000000"  style="stroke:black; stroke-linecap:round; stroke-width:0.25;"/>
<line x1="379.700000" y1="98.000000" x2="383.700000" y2="98.000000"  style="stroke:black; stroke-linecap:round; stroke-width:0.25;"/>
<line x1="383.700000" y1="98.000000" x2="403.700000" y2="98.000000"  style="stroke:black; stroke-linecap:round; stroke-width:0.25;"/>
<line x1="399.700000" y1="62.000000" x2="403.700000" y2="62.000000"  style="stroke:black; stroke-linecap:round; stroke-width:0.25;"/>
<line x1="403.700000" y1="62.000000" x2="411.700000" y2="62.000000"  style="stroke:black; stroke-linecap:round; stroke-width:0.25;"/>
<line x1="403.700000" y1="82.000000" x2="411.700000" y2="82.000000"  style="stroke:black; stroke-linecap:round; stroke-width:0.25;"/>
<line x1="403.700000" y1="98.000000" x2="403.700000" y2="82.000000"  style="stroke:black; stroke-linecap:round; stroke-width:0.25;"/>
<line x1="403.700000" y1="98.000000" x2="403.700000" y2="98.000000"  style="stroke:black; stroke-linecap:round; stroke-width:0.25;"/>
<line x1="411.700000" y1="62.000000" x2="411.700000" y2="74.000000"  style="stroke:black; stroke-linecap:round; stroke-width:0.25;"/>
<line x1="411.700000" y1="74.000000" x2="411.700000" y2="74.000000"  style="stroke:black; stroke-linecap:round; stroke-width:0.25;"/>
<line x1="411.700000" y1="74.000000" x2="415.700000" y2="74.000000"  style="stroke:black; stroke-linecap:round; stroke-width:0.25;"/>
<line x1="411.700000" y1="82.000000" x2="415.700000" y2="82.000000"  style="stroke:black; stroke-linecap:round; stroke-width:0.25;"/>
<line x1="439.700000" y1="78.000000" x2="443.700000" y2="78.000000"  style="stroke:black; stroke-linecap:round; stroke-width:0.25;"/>
<line x1="443.700000" y1="78.000000" x2="451.700000" y2="78.000000"  style="stroke:black; stroke-linecap:round; stroke-width:0.25;"/>
<line x1="443.700000" y1="156.000000" x2="451.700000" y2="156.000000"  style="stroke:black; stroke-linecap:round; stroke-width:0.25;"/>
<line x1="443.700000" y1="210.000000" x2="443.700000" y2="156.000000"  style="stroke:black; stroke-linecap:round; stroke-width:0.25;"/>
<line x1="443.700000" y1="210.000000" x2="443.700000" y2="210.000000"  style="stroke:black; stroke-linecap:round; stroke-width:0.25;"/>
<line x1="451.700000" y1="78.000000" x2="451.700000" y2="148.000000"  style="stroke:black; stroke-linecap:round; stroke-width:0.25;"/>
<line x1="451.700000" y1="148.000000" x2="451.700000" y2="148.000000"  style="stroke:black; stroke-linecap:round; stroke-width:0.25;"/>
<line x1="451.700000" y1="148.000000" x2="455.700000" y2="148.000000"  style="stroke:black; stroke-linecap:round; stroke-width:0.25;"/>
<line x1="451.700000" y1="156.000000" x2="455.700000" y2="156.000000"  style="stroke:black; stroke-linecap:round; stroke-width:0.25;"/>
<line x1="479.700000" y1="152.000000" x2="483.700000" y2="152.000000"  style="stroke:black; stroke-linecap:round; stroke-width:0.25;"/>
<line x1="483.700000" y1="152.000000" x2="491.700000" y2="152.000000"  style="stroke:black; stroke-linecap:round; stroke-width:0.25;"/>
<line x1="483.700000" y1="182.000000" x2="491.700000" y2="182.000000"  style="stroke:black; stroke-linecap:round; stroke-width:0.25;"/>
<line x1="483.700000" y1="310.000000" x2="483.700000" y2="182.000000"  style="stroke:black; stroke-linecap:round; stroke-width:0.25;"/>
<line x1="483.700000" y1="310.000000" x2="483.700000" y2="310.000000"  style="stroke:black; stroke-linecap:round; stroke-width:0.25;"/>
<line x1="491.700000" y1="152.000000" x2="491.700000" y2="174.000000"  style="stroke:black; stroke-linecap:round; stroke-width:0.25;"/>
<line x1="491.700000" y1="174.000000" x2="491.700000" y2="174.000000"  style="stroke:black; stroke-linecap:round; stroke-width:0.25;"/>
<line x1="491.700000" y1="174.000000" x2="495.700000" y2="174.000000"  style="stroke:black; stroke-linecap:round; stroke-width:0.25;"/>
<line x1="491.700000" y1="182.000000" x2="495.700000" y2="182.000000"  style="stroke:black; stroke-linecap:round; stroke-width:0.25;"/>
<line x1="519.700000" y1="178.000000" x2="523.700000" y2="178.000000"  style="stroke:black; stroke-linecap:round; stroke-width:0.25;"/>
<line x1="523.700000" y1="178.000000" x2="531.700000" y2="178.000000"  style="stroke:black; stroke-linecap:round; stroke-width:0.25;"/>
<line x1="523.700000" y1="208.000000" x2="531.700000" y2="208.000000"  style="stroke:black; stroke-linecap:round; stroke-width:0.25;"/>
<line x1="523.700000" y1="362.000000" x2="523.700000" y2="208.000000"  style="stroke:black; stroke-linecap:round; stroke-width:0.25;"/>
<line x1="523.700000" y1="362.000000" x2="523.700000" y2="362.000000"  style="stroke:black; stroke-linecap:round; stroke-width:0.25;"/>
<line x1="531.700000" y1="178.000000" x2="531.700000" y2="200.000000"  style="stroke:black; stroke-linecap:round; stroke-width:0.25;"/>
<line x1="531.700000" y1="200.000000" x2="531.700000" y2="200.000000"  style="stroke:black; stroke-linecap:round; stroke-width:0.25;"/>
<line x1="531.700000" y1="200.000000" x2="535.700000" y2="200.000000"  style="stroke:black; stroke-linecap:round; stroke-width:0.25;"/>
<line x1="531.700000" y1="208.000000" x2="535.700000" y2="208.000000"  style="stroke:black; stroke-linecap:round; stroke-width:0.25;"/>
<line x1="559.700000" y1="204.000000" x2="563.700000" y2="204.000000"  style="stroke:black; stroke-linecap:round; stroke-width:0.25;"/>
<line x1="563.700000" y1="204.000000" x2="563.700000" y2="204.000000"  style="stroke:black; stroke-linecap:round; stroke-width:0.25;"/>
<line x1="563.700000" y1="204.000000" x2="567.700000" y2="204.000000"  style="stroke:black; stroke-linecap:round; stroke-width:0.25;"/>
<line x1="567.700000" y1="204.000000" x2="571.700000" y2="204.000000"  style="stroke:black; stroke-linecap:round; stroke-width:0.25;"/>
<line x1="571.700000" y1="204.000000" x2="581.700000" y2="204.000000"  style="stroke:black; stroke-linecap:round; stroke-width:0.25;"/>
</svg>
