<?xml version="1.0"?>
<svg xmlns="http://www.w3.org/2000/svg" xmlns:xlink="http://www.w3.org/1999/xlink" viewBox="0 0 509.900000 548.000000" width="254.950000mm" height="274.000000mm" version="1.1">
<a xlink:href="CZ-0x3fab580.svg">
<rect x="1.000000" y="1.000000" width="508.900000" height="547.000000" rx="0" ry="0" style="stroke:none;fill:#cccccc;"/>
<rect x="0.000000" y="0.000000" width="508.900000" height="547.000000" rx="0" ry="0" style="stroke:none;fill:#ffffff;"/>
</a>
<text x="10.000000" y="7.000000" font-family="Arial" font-size="7"></text>
<a xlink:href="fund-0x3fa38a0.svg">
<rect x="65.000000" y="25.000000" width="141.900000" height="24.000000" rx="0" ry="0" style="stroke:none;fill:#cccccc;"/>
<rect x="64.000000" y="24.000000" width="141.900000" height="24.000000" rx="0" ry="0" style="stroke:none;fill:#003366;"/>
</a>
<a xlink:href="fund-0x3fa38a0.svg">
<text x="134.950000" y="38.000000" font-family="Arial" font-size="7" text-anchor="middle" fill="#FFFFFF">fund(vgroup(&quot;..., lenv = {}])(2)</text>
</a>
<circle cx="66.000000" cy="26.000000" r="1"/>
<rect x="83.950000" y="57.000000" width="24.000000" height="24.000000" rx="0" ry="0" style="stroke:none;fill:#cccccc;"/>
<rect x="82.950000" y="56.000000" width="24.000000" height="24.000000" rx="0" ry="0" style="stroke:none;fill:#f44800;"/>
<text x="94.950000" y="70.000000" font-family="Arial" font-size="7" text-anchor="middle" fill="#FFFFFF">0.5</text>
<circle cx="84.950000" cy="58.000000" r="1"/>
<a xlink:href="INDEX-0x3fa65a0.svg">
<rect x="83.050000" y="89.000000" width="25.800000" height="24.000000" rx="0" ry="0" style="stroke:none;fill:#cccccc;"/>
<rect x="82.050000" y="88.000000" width="25.800000" height="24.000000" rx="0" ry="0" style="stroke:none;fill:#003366;"/>
</a>
<a xlink:href="INDEX-0x3fa65a0.svg">
<text x="94.950000" y="102.000000" font-family="Arial" font-size="7" text-anchor="middle" fill="#FFFFFF">INDEX</text>
</a>
<circle cx="84.050000" cy="90.000000" r="1"/>
<rect x="124.850000" y="73.000000" width="24.000000" height="24.000000" rx="0" ry="0" style="stroke:none;fill:#cccccc;"/>
<rect x="123.850000" y="72.000000" width="24.000000" height="24.000000" rx="0" ry="0" style="stroke:none;fill:#4B71A1;"/>
<text x="135.850000" y="86.000000" font-family="Arial" font-size="7" text-anchor="middle" fill="#FFFFFF">-</text>
<circle cx="125.850000" cy="74.000000" r="1"/>
<line x1="120.850000" y1="79.000000" x2="123.850000" y2="80.000000"  transform="rotate(0.000000,123.850000,80.000000)" style="stroke: black; stroke-width:0.25;"/>
<line x1="120.850000" y1="81.000000" x2="123.850000" y2="80.000000"  transform="rotate(0.000000,123.850000,80.000000)" style="stroke: black; stroke-width:0.25;"/>
<line x1="120.850000" y1="87.000000" x2="123.850000" y2="88.000000"  transform="rotate(0.000000,123.850000,88.000000)" style="stroke: black; stroke-width:0.25;"/>
<line x1="120.850000" y1="89.000000" x2="123.850000" y2="88.000000"  transform="rotate(0.000000,123.850000,88.000000)" style="stroke: black; stroke-width:0.25;"/>
<a xlink:href="INDEX-0x3fa65a0.svg">
<rect x="103.050000" y="121.000000" width="25.800000" height="24.000000" rx="0" ry="0" style="stroke:none;fill:#cccccc;"/>
<rect x="102.050000" y="120.000000" width="25.800000" height="24.000000" rx="0" ry="0" style="stroke:none;fill:#003366;"/>
</a>
<a xlink:href="INDEX-0x3fa65a0.svg">
<text x="114.950000" y="134.000000" font-family="Arial" font-size="7" text-anchor="middle" fill="#FFFFFF">INDEX</text>
</a>
<circle cx="104.050000" cy="122.000000" r="1"/>
<rect x="164.850000" y="89.000000" width="24.000000" height="24.000000" rx="0" ry="0" style="stroke:none;fill:#cccccc;"/>
<rect x="163.850000" y="88.000000" width="24.000000" height="24.000000" rx="0" ry="0" style="stroke:none;fill:#4B71A1;"/>
<text x="175.850000" y="102.000000" font-family="Arial" font-size="7" text-anchor="middle" fill="#FFFFFF">/</text>
<circle cx="165.850000" cy="90.000000" r="1"/>
<line x1="160.850000" y1="95.000000" x2="163.850000" y2="96.000000"  transform="rotate(0.000000,163.850000,96.000000)" style="stroke: black; stroke-width:0.25;"/>
<line x1="160.850000" y1="97.000000" x2="163.850000" y2="96.000000"  transform="rotate(0.000000,163.850000,96.000000)" style="stroke: black; stroke-width:0.25;"/>
<line x1="160.850000" y1="103.000000" x2="163.850000" y2="104.000000"  transform="rotate(0.000000,163.850000,104.000000)" style="stroke: black; stroke-width:0.25;"/>
<line x1="160.850000" y1="105.000000" x2="163.850000" y2="104.000000"  transform="rotate(0.000000,163.850000,104.000000)" style="stroke: black; stroke-width:0.25;"/>
<rect x="222.900000" y="73.000000" width="24.000000" height="24.000000" rx="0" ry="0" style="stroke:none;fill:#cccccc;"/>
<rect x="221.900000" y="72.000000" width="24.000000" height="24.000000" rx="0" ry="0" style="stroke:none;fill:#4B71A1;"/>
<text x="233.900000" y="86.000000" font-family="Arial" font-size="7" text-anchor="middle" fill="#FFFFFF">*</text>
<circle cx="223.900000" cy="74.000000" r="1"/>
<line x1="218.900000" y1="79.000000" x2="221.900000" y2="80.000000"  transform="rotate(0.000000,221.900000,80.000000)" style="stroke: black; stroke-width:0.25;"/>
<line x1="218.900000" y1="81.000000" x2="221.900000" y2="80.000000"  transform="rotate(0.000000,221.900000,80.000000)" style="stroke: black; stroke-width:0.25;"/>
<line x1="218.900000" y1="87.000000" x2="221.900000" y2="88.000000"  transform="rotate(0.000000,221.900000,88.000000)" style="stroke: black; stroke-width:0.25;"/>
<line x1="218.900000" y1="89.000000" x2="221.900000" y2="88.000000"  transform="rotate(0.000000,221.900000,88.000000)" style="stroke: black; stroke-width:0.25;"/>
<rect x="83.950000" y="153.000000" width="24.000000" height="24.000000" rx="0" ry="0" style="stroke:none;fill:#cccccc;"/>
<rect x="82.950000" y="152.000000" width="24.000000" height="24.000000" rx="0" ry="0" style="stroke:none;fill:#f44800;"/>
<text x="94.950000" y="166.000000" font-family="Arial" font-size="7" text-anchor="middle" fill="#FFFFFF">-1</text>
<circle cx="84.950000" cy="154.000000" r="1"/>
<a xlink:href="fund-0x3fa38a0.svg">
<rect x="25.000000" y="185.000000" width="141.900000" height="24.000000" rx="0" ry="0" style="stroke:none;fill:#cccccc;"/>
<rect x="24.000000" y="184.000000" width="141.900000" height="24.000000" rx="0" ry="0" style="stroke:none;fill:#003366;"/>
</a>
<a xlink:href="fund-0x3fa38a0.svg">
<text x="94.950000" y="198.000000" font-family="Arial" font-size="7" text-anchor="middle" fill="#FFFFFF">fund(vgroup(&quot;..., lenv = {}])(2)</text>
</a>
<circle cx="26.000000" cy="186.000000" r="1"/>
<rect x="182.900000" y="169.000000" width="24.000000" height="24.000000" rx="0" ry="0" style="stroke:none;fill:#cccccc;"/>
<rect x="181.900000" y="168.000000" width="24.000000" height="24.000000" rx="0" ry="0" style="stroke:none;fill:#4B71A1;"/>
<text x="193.900000" y="182.000000" font-family="Arial" font-size="7" text-anchor="middle" fill="#FFFFFF">*</text>
<circle cx="183.900000" cy="170.000000" r="1"/>
<line x1="178.900000" y1="175.000000" x2="181.900000" y2="176.000000"  transform="rotate(0.000000,181.900000,176.000000)" style="stroke: black; stroke-width:0.25;"/>
<line x1="178.900000" y1="177.000000" x2="181.900000" y2="176.000000"  transform="rotate(0.000000,181.900000,176.000000)" style="stroke: black; stroke-width:0.25;"/>
<line x1="178.900000" y1="183.000000" x2="181.900000" y2="184.000000"  transform="rotate(0.000000,181.900000,184.000000)" style="stroke: black; stroke-width:0.25;"/>
<line x1="178.900000" y1="185.000000" x2="181.900000" y2="184.000000"  transform="rotate(0.000000,181.900000,184.000000)" style="stroke: black; stroke-width:0.25;"/>
<rect x="103.950000" y="227.000000" width="24.000000" height="24.000000" rx="0" ry="0" style="stroke:none;fill:#cccccc;"/>
<rect x="102.950000" y="226.000000" width="24.000000" height="24.000000" rx="0" ry="0" style="stroke:none;fill:#f44800;"/>
<text x="114.950000" y="240.000000" font-family="Arial" font-size="7" text-anchor="middle" fill="#FFFFFF">1</text>
<circle cx="104.950000" cy="228.000000" r="1"/>
<line x1="93.950000" y1="217.000000" x2="93.950000" y2="259.000000"  style="stroke: black; stroke-linecap:round; stroke-width:0.25; stroke-dasharray:3,3;"/>
<line x1="93.950000" y1="259.000000" x2="135.950000" y2="259.000000"  style="stroke: black; stroke-linecap:round; stroke-width:0.25; stroke-dasharray:3,3;"/>
<line x1="135.950000" y1="259.000000" x2="135.950000" y2="217.000000"  style="stroke: black; stroke-linecap:round; stroke-width:0.25; stroke-dasharray:3,3;"/>
<line x1="93.950000" y1="217.000000" x2="98.950000" y2="217.000000"  style="stroke: black; stroke-linecap:round; stroke-width:0.25; stroke-dasharray:3,3;"/>
<line x1="135.950000" y1="217.000000" x2="135.950000" y2="217.000000"  style="stroke: black; stroke-linecap:round; stroke-width:0.25; stroke-dasharray:3,3;"/>
<text x="98.950000" y="219.000000" font-family="Arial" font-size="7">facs2(4)(((4,...nt) : -) : +)(4)</text>
<rect x="222.900000" y="195.000000" width="24.000000" height="24.000000" rx="0" ry="0" style="stroke:none;fill:#cccccc;"/>
<rect x="221.900000" y="194.000000" width="24.000000" height="24.000000" rx="0" ry="0" style="stroke:none;fill:#4B71A1;"/>
<text x="233.900000" y="208.000000" font-family="Arial" font-size="7" text-anchor="middle" fill="#FFFFFF">+</text>
<circle cx="223.900000" cy="196.000000" r="1"/>
<line x1="218.900000" y1="201.000000" x2="221.900000" y2="202.000000"  transform="rotate(0.000000,221.900000,202.000000)" style="stroke: black; stroke-width:0.25;"/>
<line x1="218.900000" y1="203.000000" x2="221.900000" y2="202.000000"  transform="rotate(0.000000,221.900000,202.000000)" style="stroke: black; stroke-width:0.25;"/>
<line x1="218.900000" y1="209.000000" x2="221.900000" y2="210.000000"  transform="rotate(0.000000,221.900000,210.000000)" style="stroke: black; stroke-width:0.25;"/>
<line x1="218.900000" y1="211.000000" x2="221.900000" y2="210.000000"  transform="rotate(0.000000,221.900000,210.000000)" style="stroke: black; stroke-width:0.25;"/>
<rect x="83.950000" y="269.000000" width="24.000000" height="24.000000" rx="0" ry="0" style="stroke:none;fill:#cccccc;"/>
<rect x="82.950000" y="268.000000" width="24.000000" height="24.000000" rx="0" ry="0" style="stroke:none;fill:#f44800;"/>
<text x="94.950000" y="282.000000" font-family="Arial" font-size="7" text-anchor="middle" fill="#FFFFFF">0.5</text>
<circle cx="84.950000" cy="270.000000" r="1"/>
<a xlink:href="INDEX-0x3fa65a0.svg">
<rect x="83.050000" y="301.000000" width="25.800000" height="24.000000" rx="0" ry="0" style="stroke:none;fill:#cccccc;"/>
<rect x="82.050000" y="300.000000" width="25.800000" height="24.000000" rx="0" ry="0" style="stroke:none;fill:#003366;"/>
</a>
<a xlink:href="INDEX-0x3fa65a0.svg">
<text x="94.950000" y="314.000000" font-family="Arial" font-size="7" text-anchor="middle" fill="#FFFFFF">INDEX</text>
</a>
<circle cx="84.050000" cy="302.000000" r="1"/>
<rect x="124.850000" y="285.000000" width="24.000000" height="24.000000" rx="0" ry="0" style="stroke:none;fill:#cccccc;"/>
<rect x="123.850000" y="284.000000" width="24.000000" height="24.000000" rx="0" ry="0" style="stroke:none;fill:#4B71A1;"/>
<text x="135.850000" y="298.000000" font-family="Arial" font-size="7" text-anchor="middle" fill="#FFFFFF">-</text>
<circle cx="125.850000" cy="286.000000" r="1"/>
<line x1="120.850000" y1="291.000000" x2="123.850000" y2="292.000000"  transform="rotate(0.000000,123.850000,292.000000)" style="stroke: black; stroke-width:0.25;"/>
<line x1="120.850000" y1="293.000000" x2="123.850000" y2="292.000000"  transform="rotate(0.000000,123.850000,292.000000)" style="stroke: black; stroke-width:0.25;"/>
<line x1="120.850000" y1="299.000000" x2="123.850000" y2="300.000000"  transform="rotate(0.000000,123.850000,300.000000)" style="stroke: black; stroke-width:0.25;"/>
<line x1="120.850000" y1="301.000000" x2="123.850000" y2="300.000000"  transform="rotate(0.000000,123.850000,300.000000)" style="stroke: black; stroke-width:0.25;"/>
<rect x="83.950000" y="343.000000" width="24.000000" height="24.000000" rx="0" ry="0" style="stroke:none;fill:#cccccc;"/>
<rect x="82.950000" y="342.000000" width="24.000000" height="24.000000" rx="0" ry="0" style="stroke:none;fill:#f44800;"/>
<text x="94.950000" y="356.000000" font-family="Arial" font-size="7" text-anchor="middle" fill="#FFFFFF">1</text>
<circle cx="84.950000" cy="344.000000" r="1"/>
<line x1="73.950000" y1="333.000000" x2="73.950000" y2="375.000000"  style="stroke: black; stroke-linecap:round; stroke-width:0.25; stroke-dasharray:3,3;"/>
<line x1="73.950000" y1="375.000000" x2="115.950000" y2="375.000000"  style="stroke: black; stroke-linecap:round; stroke-width:0.25; stroke-dasharray:3,3;"/>
<line x1="115.950000" y1="375.000000" x2="115.950000" y2="333.000000"  style="stroke: black; stroke-linecap:round; stroke-width:0.25; stroke-dasharray:3,3;"/>
<line x1="73.950000" y1="333.000000" x2="78.950000" y2="333.000000"  style="stroke: black; stroke-linecap:round; stroke-width:0.25; stroke-dasharray:3,3;"/>
<line x1="115.950000" y1="333.000000" x2="115.950000" y2="333.000000"  style="stroke: black; stroke-linecap:round; stroke-width:0.25; stroke-dasharray:3,3;"/>
<text x="78.950000" y="335.000000" font-family="Arial" font-size="7">facs2(4)(((4,...nt) : -) : +)(4)</text>
<a xlink:href="INDEX-0x3fa65a0.svg">
<rect x="83.050000" y="385.000000" width="25.800000" height="24.000000" rx="0" ry="0" style="stroke:none;fill:#cccccc;"/>
<rect x="82.050000" y="384.000000" width="25.800000" height="24.000000" rx="0" ry="0" style="stroke:none;fill:#003366;"/>
</a>
<a xlink:href="INDEX-0x3fa65a0.svg">
<text x="94.950000" y="398.000000" font-family="Arial" font-size="7" text-anchor="middle" fill="#FFFFFF">INDEX</text>
</a>
<circle cx="84.050000" cy="386.000000" r="1"/>
<rect x="133.950000" y="359.000000" width="24.000000" height="24.000000" rx="0" ry="0" style="stroke:none;fill:#cccccc;"/>
<rect x="132.950000" y="358.000000" width="24.000000" height="24.000000" rx="0" ry="0" style="stroke:none;fill:#4B71A1;"/>
<text x="144.950000" y="372.000000" font-family="Arial" font-size="7" text-anchor="middle" fill="#FFFFFF">-</text>
<circle cx="134.950000" cy="360.000000" r="1"/>
<line x1="129.950000" y1="365.000000" x2="132.950000" y2="366.000000"  transform="rotate(0.000000,132.950000,366.000000)" style="stroke: black; stroke-width:0.25;"/>
<line x1="129.950000" y1="367.000000" x2="132.950000" y2="366.000000"  transform="rotate(0.000000,132.950000,366.000000)" style="stroke: black; stroke-width:0.25;"/>
<line x1="129.950000" y1="373.000000" x2="132.950000" y2="374.000000"  transform="rotate(0.000000,132.950000,374.000000)" style="stroke: black; stroke-width:0.25;"/>
<line x1="129.950000" y1="375.000000" x2="132.950000" y2="374.000000"  transform="rotate(0.000000,132.950000,374.000000)" style="stroke: black; stroke-width:0.25;"/>
<rect x="173.950000" y="327.000000" width="24.000000" height="24.000000" rx="0" ry="0" style="stroke:none;fill:#cccccc;"/>
<rect x="172.950000" y="326.000000" width="24.000000" height="24.000000" rx="0" ry="0" style="stroke:none;fill:#4B71A1;"/>
<text x="184.950000" y="340.000000" font-family="Arial" font-size="7" text-anchor="middle" fill="#FFFFFF">/</text>
<circle cx="174.950000" cy="328.000000" r="1"/>
<line x1="169.950000" y1="333.000000" x2="172.950000" y2="334.000000"  transform="rotate(0.000000,172.950000,334.000000)" style="stroke: black; stroke-width:0.25;"/>
<line x1="169.950000" y1="335.000000" x2="172.950000" y2="334.000000"  transform="rotate(0.000000,172.950000,334.000000)" style="stroke: black; stroke-width:0.25;"/>
<line x1="169.950000" y1="341.000000" x2="172.950000" y2="342.000000"  transform="rotate(0.000000,172.950000,342.000000)" style="stroke: black; stroke-width:0.25;"/>
<line x1="169.950000" y1="343.000000" x2="172.950000" y2="342.000000"  transform="rotate(0.000000,172.950000,342.000000)" style="stroke: black; stroke-width:0.25;"/>
<rect x="262.900000" y="269.000000" width="24.000000" height="24.000000" rx="0" ry="0" style="stroke:none;fill:#cccccc;"/>
<rect x="261.900000" y="268.000000" width="24.000000" height="24.000000" rx="0" ry="0" style="stroke:none;fill:#4B71A1;"/>
<text x="273.900000" y="282.000000" font-family="Arial" font-size="7" text-anchor="middle" fill="#FFFFFF">*</text>
<circle cx="263.900000" cy="270.000000" r="1"/>
<line x1="258.900000" y1="275.000000" x2="261.900000" y2="276.000000"  transform="rotate(0.000000,261.900000,276.000000)" style="stroke: black; stroke-width:0.25;"/>
<line x1="258.900000" y1="277.000000" x2="261.900000" y2="276.000000"  transform="rotate(0.000000,261.900000,276.000000)" style="stroke: black; stroke-width:0.25;"/>
<line x1="258.900000" y1="283.000000" x2="261.900000" y2="284.000000"  transform="rotate(0.000000,261.900000,284.000000)" style="stroke: black; stroke-width:0.25;"/>
<line x1="258.900000" y1="285.000000" x2="261.900000" y2="284.000000"  transform="rotate(0.000000,261.900000,284.000000)" style="stroke: black; stroke-width:0.25;"/>
<rect x="302.900000" y="205.000000" width="24.000000" height="24.000000" rx="0" ry="0" style="stroke:none;fill:#cccccc;"/>
<rect x="301.900000" y="204.000000" width="24.000000" height="24.000000" rx="0" ry="0" style="stroke:none;fill:#4B71A1;"/>
<text x="313.900000" y="218.000000" font-family="Arial" font-size="7" text-anchor="middle" fill="#FFFFFF">min</text>
<circle cx="303.900000" cy="206.000000" r="1"/>
<line x1="298.900000" y1="211.000000" x2="301.900000" y2="212.000000"  transform="rotate(0.000000,301.900000,212.000000)" style="stroke: black; stroke-width:0.25;"/>
<line x1="298.900000" y1="213.000000" x2="301.900000" y2="212.000000"  transform="rotate(0.000000,301.900000,212.000000)" style="stroke: black; stroke-width:0.25;"/>
<line x1="298.900000" y1="219.000000" x2="301.900000" y2="220.000000"  transform="rotate(0.000000,301.900000,220.000000)" style="stroke: black; stroke-width:0.25;"/>
<line x1="298.900000" y1="221.000000" x2="301.900000" y2="220.000000"  transform="rotate(0.000000,301.900000,220.000000)" style="stroke: black; stroke-width:0.25;"/>
<a xlink:href="fund-0x3fa38a0.svg">
<rect x="105.000000" y="417.000000" width="141.900000" height="24.000000" rx="0" ry="0" style="stroke:none;fill:#cccccc;"/>
<rect x="104.000000" y="416.000000" width="141.900000" height="24.000000" rx="0" ry="0" style="stroke:none;fill:#003366;"/>
</a>
<a xlink:href="fund-0x3fa38a0.svg">
<text x="174.950000" y="430.000000" font-family="Arial" font-size="7" text-anchor="middle" fill="#FFFFFF">fund(vgroup(&quot;..., lenv = {}])(2)</text>
</a>
<circle cx="106.000000" cy="418.000000" r="1"/>
<rect x="342.900000" y="221.000000" width="24.000000" height="24.000000" rx="0" ry="0" style="stroke:none;fill:#cccccc;"/>
<rect x="341.900000" y="220.000000" width="24.000000" height="24.000000" rx="0" ry="0" style="stroke:none;fill:#4B71A1;"/>
<text x="353.900000" y="234.000000" font-family="Arial" font-size="7" text-anchor="middle" fill="#FFFFFF">+</text>
<circle cx="343.900000" cy="222.000000" r="1"/>
<line x1="338.900000" y1="227.000000" x2="341.900000" y2="228.000000"  transform="rotate(0.000000,341.900000,228.000000)" style="stroke: black; stroke-width:0.25;"/>
<line x1="338.900000" y1="229.000000" x2="341.900000" y2="228.000000"  transform="rotate(0.000000,341.900000,228.000000)" style="stroke: black; stroke-width:0.25;"/>
<line x1="338.900000" y1="235.000000" x2="341.900000" y2="236.000000"  transform="rotate(0.000000,341.900000,236.000000)" style="stroke: black; stroke-width:0.25;"/>
<line x1="338.900000" y1="237.000000" x2="341.900000" y2="236.000000"  transform="rotate(0.000000,341.900000,236.000000)" style="stroke: black; stroke-width:0.25;"/>
<rect x="183.950000" y="449.000000" width="24.000000" height="24.000000" rx="0" ry="0" style="stroke:none;fill:#cccccc;"/>
<rect x="182.950000" y="448.000000" width="24.000000" height="24.000000" rx="0" ry="0" style="stroke:none;fill:#f44800;"/>
<text x="194.950000" y="462.000000" font-family="Arial" font-size="7" text-anchor="middle" fill="#FFFFFF">4</text>
<circle cx="184.950000" cy="450.000000" r="1"/>
<rect x="382.900000" y="237.000000" width="24.000000" height="24.000000" rx="0" ry="0" style="stroke:none;fill:#cccccc;"/>
<rect x="381.900000" y="236.000000" width="24.000000" height="24.000000" rx="0" ry="0" style="stroke:none;fill:#4B71A1;"/>
<text x="393.900000" y="250.000000" font-family="Arial" font-size="7" text-anchor="middle" fill="#FFFFFF">*</text>
<circle cx="383.900000" cy="238.000000" r="1"/>
<line x1="378.900000" y1="243.000000" x2="381.900000" y2="244.000000"  transform="rotate(0.000000,381.900000,244.000000)" style="stroke: black; stroke-width:0.25;"/>
<line x1="378.900000" y1="245.000000" x2="381.900000" y2="244.000000"  transform="rotate(0.000000,381.900000,244.000000)" style="stroke: black; stroke-width:0.25;"/>
<line x1="378.900000" y1="251.000000" x2="381.900000" y2="252.000000"  transform="rotate(0.000000,381.900000,252.000000)" style="stroke: black; stroke-width:0.25;"/>
<line x1="378.900000" y1="253.000000" x2="381.900000" y2="252.000000"  transform="rotate(0.000000,381.900000,252.000000)" style="stroke: black; stroke-width:0.25;"/>
<rect x="196.600000" y="491.000000" width="38.700000" height="24.000000" rx="0" ry="0" style="stroke:none;fill:#cccccc;"/>
<rect x="195.600000" y="490.000000" width="38.700000" height="24.000000" rx="0" ry="0" style="stroke:none;fill:#f44800;"/>
<text x="214.950000" y="504.000000" font-family="Arial" font-size="7" text-anchor="middle" fill="#FFFFFF">3.14159</text>
<circle cx="197.600000" cy="492.000000" r="1"/>
<line x1="186.600000" y1="481.000000" x2="186.600000" y2="523.000000"  style="stroke: black; stroke-linecap:round; stroke-width:0.25; stroke-dasharray:3,3;"/>
<line x1="186.600000" y1="523.000000" x2="243.300000" y2="523.000000"  style="stroke: black; stroke-linecap:round; stroke-width:0.25; stroke-dasharray:3,3;"/>
<line x1="243.300000" y1="523.000000" x2="243.300000" y2="481.000000"  style="stroke: black; stroke-linecap:round; stroke-width:0.25; stroke-dasharray:3,3;"/>
<line x1="186.600000" y1="481.000000" x2="191.600000" y2="481.000000"  style="stroke: black; stroke-linecap:round; stroke-width:0.25; stroke-dasharray:3,3;"/>
<line x1="204.500000" y1="481.000000" x2="243.300000" y2="481.000000"  style="stroke: black; stroke-linecap:round; stroke-width:0.25; stroke-dasharray:3,3;"/>
<text x="191.600000" y="483.000000" font-family="Arial" font-size="7">PI</text>
<rect x="422.900000" y="263.000000" width="24.000000" height="24.000000" rx="0" ry="0" style="stroke:none;fill:#cccccc;"/>
<rect x="421.900000" y="262.000000" width="24.000000" height="24.000000" rx="0" ry="0" style="stroke:none;fill:#4B71A1;"/>
<text x="433.900000" y="276.000000" font-family="Arial" font-size="7" text-anchor="middle" fill="#FFFFFF">*</text>
<circle cx="423.900000" cy="264.000000" r="1"/>
<line x1="418.900000" y1="269.000000" x2="421.900000" y2="270.000000"  transform="rotate(0.000000,421.900000,270.000000)" style="stroke: black; stroke-width:0.25;"/>
<line x1="418.900000" y1="271.000000" x2="421.900000" y2="270.000000"  transform="rotate(0.000000,421.900000,270.000000)" style="stroke: black; stroke-width:0.25;"/>
<line x1="418.900000" y1="277.000000" x2="421.900000" y2="278.000000"  transform="rotate(0.000000,421.900000,278.000000)" style="stroke: black; stroke-width:0.25;"/>
<line x1="418.900000" y1="279.000000" x2="421.900000" y2="278.000000"  transform="rotate(0.000000,421.900000,278.000000)" style="stroke: black; stroke-width:0.25;"/>
<rect x="454.900000" y="263.000000" width="24.000000" height="24.000000" rx="0" ry="0" style="stroke:none;fill:#cccccc;"/>
<rect x="453.900000" y="262.000000" width="24.000000" height="24.000000" rx="0" ry="0" style="stroke:none;fill:#4B71A1;"/>
<text x="465.900000" y="276.000000" font-family="Arial" font-size="7" text-anchor="middle" fill="#FFFFFF">cos</text>
<circle cx="455.900000" cy="264.000000" r="1"/>
<line x1="450.900000" y1="273.000000" x2="453.900000" y2="274.000000"  transform="rotate(0.000000,453.900000,274.000000)" style="stroke: black; stroke-width:0.25;"/>
<line x1="450.900000" y1="275.000000" x2="453.900000" y2="274.000000"  transform="rotate(0.000000,453.900000,274.000000)" style="stroke: black; stroke-width:0.25;"/>
<line x1="15.000000" y1="15.000000" x2="15.000000" y2="533.000000"  style="stroke: black; stroke-linecap:round; stroke-width:0.25; stroke-dasharray:3,3;"/>
<line x1="15.000000" y1="533.000000" x2="494.900000" y2="533.000000"  style="stroke: black; stroke-linecap:round; stroke-width:0.25; stroke-dasharray:3,3;"/>
<line x1="494.900000" y1="533.000000" x2="494.900000" y2="15.000000"  style="stroke: black; stroke-linecap:round; stroke-width:0.25; stroke-dasharray:3,3;"/>
<line x1="15.000000" y1="15.000000" x2="20.000000" y2="15.000000"  style="stroke: black; stroke-linecap:round; stroke-width:0.25; stroke-dasharray:3,3;"/>
<line x1="119.975000" y1="15.000000" x2="494.900000" y2="15.000000"  style="stroke: black; stroke-linecap:round; stroke-width:0.25; stroke-dasharray:3,3;"/>
<text x="20.000000" y="17.000000" font-family="Arial" font-size="7">CZsinepulse((...f : *))))))))</text>
<line x1="496.900000" y1="273.000000" x2="499.900000" y2="274.000000"  transform="rotate(0.000000,499.900000,274.000000)" style="stroke: black; stroke-width:0.25;"/>
<line x1="496.900000" y1="275.000000" x2="499.900000" y2="274.000000"  transform="rotate(0.000000,499.900000,274.000000)" style="stroke: black; stroke-width:0.25;"/>
<line x1="106.950000" y1="68.000000" x2="110.950000" y2="68.000000"  style="stroke:black; stroke-linecap:round; stroke-width:0.25;"/>
<line x1="106.950000" y1="164.000000" x2="110.950000" y2="164.000000"  style="stroke:black; stroke-linecap:round; stroke-width:0.25;"/>
<line x1="106.950000" y1="354.000000" x2="110.950000" y2="354.000000"  style="stroke:black; stroke-linecap:round; stroke-width:0.25;"/>
<line x1="106.950000" y1="280.000000" x2="110.950000" y2="280.000000"  style="stroke:black; stroke-linecap:round; stroke-width:0.25;"/>
<line x1="107.850000" y1="100.000000" x2="111.850000" y2="100.000000"  style="stroke:black; stroke-linecap:round; stroke-width:0.25;"/>
<line x1="107.850000" y1="312.000000" x2="111.850000" y2="312.000000"  style="stroke:black; stroke-linecap:round; stroke-width:0.25;"/>
<line x1="107.850000" y1="396.000000" x2="111.850000" y2="396.000000"  style="stroke:black; stroke-linecap:round; stroke-width:0.25;"/>
<line x1="110.950000" y1="68.000000" x2="111.850000" y2="68.000000"  style="stroke:black; stroke-linecap:round; stroke-width:0.25;"/>
<line x1="110.950000" y1="164.000000" x2="169.900000" y2="164.000000"  style="stroke:black; stroke-linecap:round; stroke-width:0.25;"/>
<line x1="110.950000" y1="354.000000" x2="120.950000" y2="354.000000"  style="stroke:black; stroke-linecap:round; stroke-width:0.25;"/>
<line x1="110.950000" y1="280.000000" x2="111.850000" y2="280.000000"  style="stroke:black; stroke-linecap:round; stroke-width:0.25;"/>
<line x1="111.850000" y1="88.000000" x2="119.850000" y2="88.000000"  style="stroke:black; stroke-linecap:round; stroke-width:0.25;"/>
<line x1="111.850000" y1="100.000000" x2="111.850000" y2="88.000000"  style="stroke:black; stroke-linecap:round; stroke-width:0.25;"/>
<line x1="111.850000" y1="100.000000" x2="111.850000" y2="100.000000"  style="stroke:black; stroke-linecap:round; stroke-width:0.25;"/>
<line x1="111.850000" y1="68.000000" x2="119.850000" y2="68.000000"  style="stroke:black; stroke-linecap:round; stroke-width:0.25;"/>
<line x1="111.850000" y1="300.000000" x2="119.850000" y2="300.000000"  style="stroke:black; stroke-linecap:round; stroke-width:0.25;"/>
<line x1="111.850000" y1="312.000000" x2="111.850000" y2="300.000000"  style="stroke:black; stroke-linecap:round; stroke-width:0.25;"/>
<line x1="111.850000" y1="312.000000" x2="111.850000" y2="312.000000"  style="stroke:black; stroke-linecap:round; stroke-width:0.25;"/>
<line x1="111.850000" y1="396.000000" x2="120.950000" y2="396.000000"  style="stroke:black; stroke-linecap:round; stroke-width:0.25;"/>
<line x1="111.850000" y1="280.000000" x2="119.850000" y2="280.000000"  style="stroke:black; stroke-linecap:round; stroke-width:0.25;"/>
<line x1="119.850000" y1="80.000000" x2="123.850000" y2="80.000000"  style="stroke:black; stroke-linecap:round; stroke-width:0.25;"/>
<line x1="119.850000" y1="88.000000" x2="123.850000" y2="88.000000"  style="stroke:black; stroke-linecap:round; stroke-width:0.25;"/>
<line x1="119.850000" y1="68.000000" x2="119.850000" y2="80.000000"  style="stroke:black; stroke-linecap:round; stroke-width:0.25;"/>
<line x1="119.850000" y1="80.000000" x2="119.850000" y2="80.000000"  style="stroke:black; stroke-linecap:round; stroke-width:0.25;"/>
<line x1="119.850000" y1="292.000000" x2="123.850000" y2="292.000000"  style="stroke:black; stroke-linecap:round; stroke-width:0.25;"/>
<line x1="119.850000" y1="300.000000" x2="123.850000" y2="300.000000"  style="stroke:black; stroke-linecap:round; stroke-width:0.25;"/>
<line x1="119.850000" y1="280.000000" x2="119.850000" y2="292.000000"  style="stroke:black; stroke-linecap:round; stroke-width:0.25;"/>
<line x1="119.850000" y1="292.000000" x2="119.850000" y2="292.000000"  style="stroke:black; stroke-linecap:round; stroke-width:0.25;"/>
<line x1="120.950000" y1="354.000000" x2="128.950000" y2="354.000000"  style="stroke:black; stroke-linecap:round; stroke-width:0.25;"/>
<line x1="120.950000" y1="374.000000" x2="128.950000" y2="374.000000"  style="stroke:black; stroke-linecap:round; stroke-width:0.25;"/>
<line x1="120.950000" y1="396.000000" x2="120.950000" y2="374.000000"  style="stroke:black; stroke-linecap:round; stroke-width:0.25;"/>
<line x1="120.950000" y1="396.000000" x2="120.950000" y2="396.000000"  style="stroke:black; stroke-linecap:round; stroke-width:0.25;"/>
<line x1="126.950000" y1="238.000000" x2="130.950000" y2="238.000000"  style="stroke:black; stroke-linecap:round; stroke-width:0.25;"/>
<line x1="127.850000" y1="132.000000" x2="131.850000" y2="132.000000"  style="stroke:black; stroke-linecap:round; stroke-width:0.25;"/>
<line x1="128.950000" y1="354.000000" x2="128.950000" y2="366.000000"  style="stroke:black; stroke-linecap:round; stroke-width:0.25;"/>
<line x1="128.950000" y1="366.000000" x2="128.950000" y2="366.000000"  style="stroke:black; stroke-linecap:round; stroke-width:0.25;"/>
<line x1="128.950000" y1="366.000000" x2="132.950000" y2="366.000000"  style="stroke:black; stroke-linecap:round; stroke-width:0.25;"/>
<line x1="128.950000" y1="374.000000" x2="132.950000" y2="374.000000"  style="stroke:black; stroke-linecap:round; stroke-width:0.25;"/>
<line x1="130.950000" y1="238.000000" x2="140.950000" y2="238.000000"  style="stroke:black; stroke-linecap:round; stroke-width:0.25;"/>
<line x1="131.850000" y1="132.000000" x2="151.850000" y2="132.000000"  style="stroke:black; stroke-linecap:round; stroke-width:0.25;"/>
<line x1="140.950000" y1="238.000000" x2="209.900000" y2="238.000000"  style="stroke:black; stroke-linecap:round; stroke-width:0.25;"/>
<line x1="147.850000" y1="84.000000" x2="151.850000" y2="84.000000"  style="stroke:black; stroke-linecap:round; stroke-width:0.25;"/>
<line x1="147.850000" y1="296.000000" x2="151.850000" y2="296.000000"  style="stroke:black; stroke-linecap:round; stroke-width:0.25;"/>
<line x1="151.850000" y1="84.000000" x2="159.850000" y2="84.000000"  style="stroke:black; stroke-linecap:round; stroke-width:0.25;"/>
<line x1="151.850000" y1="104.000000" x2="159.850000" y2="104.000000"  style="stroke:black; stroke-linecap:round; stroke-width:0.25;"/>
<line x1="151.850000" y1="132.000000" x2="151.850000" y2="104.000000"  style="stroke:black; stroke-linecap:round; stroke-width:0.25;"/>
<line x1="151.850000" y1="132.000000" x2="151.850000" y2="132.000000"  style="stroke:black; stroke-linecap:round; stroke-width:0.25;"/>
<line x1="151.850000" y1="296.000000" x2="160.950000" y2="296.000000"  style="stroke:black; stroke-linecap:round; stroke-width:0.25;"/>
<line x1="156.950000" y1="370.000000" x2="160.950000" y2="370.000000"  style="stroke:black; stroke-linecap:round; stroke-width:0.25;"/>
<line x1="159.850000" y1="84.000000" x2="159.850000" y2="96.000000"  style="stroke:black; stroke-linecap:round; stroke-width:0.25;"/>
<line x1="159.850000" y1="96.000000" x2="159.850000" y2="96.000000"  style="stroke:black; stroke-linecap:round; stroke-width:0.25;"/>
<line x1="159.850000" y1="96.000000" x2="163.850000" y2="96.000000"  style="stroke:black; stroke-linecap:round; stroke-width:0.25;"/>
<line x1="159.850000" y1="104.000000" x2="163.850000" y2="104.000000"  style="stroke:black; stroke-linecap:round; stroke-width:0.25;"/>
<line x1="160.950000" y1="342.000000" x2="168.950000" y2="342.000000"  style="stroke:black; stroke-linecap:round; stroke-width:0.25;"/>
<line x1="160.950000" y1="370.000000" x2="160.950000" y2="342.000000"  style="stroke:black; stroke-linecap:round; stroke-width:0.25;"/>
<line x1="160.950000" y1="370.000000" x2="160.950000" y2="370.000000"  style="stroke:black; stroke-linecap:round; stroke-width:0.25;"/>
<line x1="160.950000" y1="296.000000" x2="168.950000" y2="296.000000"  style="stroke:black; stroke-linecap:round; stroke-width:0.25;"/>
<line x1="165.900000" y1="196.000000" x2="169.900000" y2="196.000000"  style="stroke:black; stroke-linecap:round; stroke-width:0.25;"/>
<line x1="168.950000" y1="334.000000" x2="172.950000" y2="334.000000"  style="stroke:black; stroke-linecap:round; stroke-width:0.25;"/>
<line x1="168.950000" y1="342.000000" x2="172.950000" y2="342.000000"  style="stroke:black; stroke-linecap:round; stroke-width:0.25;"/>
<line x1="168.950000" y1="296.000000" x2="168.950000" y2="334.000000"  style="stroke:black; stroke-linecap:round; stroke-width:0.25;"/>
<line x1="168.950000" y1="334.000000" x2="168.950000" y2="334.000000"  style="stroke:black; stroke-linecap:round; stroke-width:0.25;"/>
<line x1="169.900000" y1="164.000000" x2="177.900000" y2="164.000000"  style="stroke:black; stroke-linecap:round; stroke-width:0.25;"/>
<line x1="169.900000" y1="184.000000" x2="177.900000" y2="184.000000"  style="stroke:black; stroke-linecap:round; stroke-width:0.25;"/>
<line x1="169.900000" y1="196.000000" x2="169.900000" y2="184.000000"  style="stroke:black; stroke-linecap:round; stroke-width:0.25;"/>
<line x1="169.900000" y1="196.000000" x2="169.900000" y2="196.000000"  style="stroke:black; stroke-linecap:round; stroke-width:0.25;"/>
<line x1="177.900000" y1="164.000000" x2="177.900000" y2="176.000000"  style="stroke:black; stroke-linecap:round; stroke-width:0.25;"/>
<line x1="177.900000" y1="176.000000" x2="177.900000" y2="176.000000"  style="stroke:black; stroke-linecap:round; stroke-width:0.25;"/>
<line x1="177.900000" y1="176.000000" x2="181.900000" y2="176.000000"  style="stroke:black; stroke-linecap:round; stroke-width:0.25;"/>
<line x1="177.900000" y1="184.000000" x2="181.900000" y2="184.000000"  style="stroke:black; stroke-linecap:round; stroke-width:0.25;"/>
<line x1="187.850000" y1="100.000000" x2="191.850000" y2="100.000000"  style="stroke:black; stroke-linecap:round; stroke-width:0.25;"/>
<line x1="191.850000" y1="100.000000" x2="209.900000" y2="100.000000"  style="stroke:black; stroke-linecap:round; stroke-width:0.25;"/>
<line x1="196.950000" y1="338.000000" x2="200.950000" y2="338.000000"  style="stroke:black; stroke-linecap:round; stroke-width:0.25;"/>
<line x1="200.950000" y1="338.000000" x2="249.900000" y2="338.000000"  style="stroke:black; stroke-linecap:round; stroke-width:0.25;"/>
<line x1="205.900000" y1="36.000000" x2="209.900000" y2="36.000000"  style="stroke:black; stroke-linecap:round; stroke-width:0.25;"/>
<line x1="205.900000" y1="180.000000" x2="209.900000" y2="180.000000"  style="stroke:black; stroke-linecap:round; stroke-width:0.25;"/>
<line x1="206.950000" y1="460.000000" x2="210.950000" y2="460.000000"  style="stroke:black; stroke-linecap:round; stroke-width:0.25;"/>
<line x1="209.900000" y1="36.000000" x2="217.900000" y2="36.000000"  style="stroke:black; stroke-linecap:round; stroke-width:0.25;"/>
<line x1="209.900000" y1="88.000000" x2="217.900000" y2="88.000000"  style="stroke:black; stroke-linecap:round; stroke-width:0.25;"/>
<line x1="209.900000" y1="100.000000" x2="209.900000" y2="88.000000"  style="stroke:black; stroke-linecap:round; stroke-width:0.25;"/>
<line x1="209.900000" y1="100.000000" x2="209.900000" y2="100.000000"  style="stroke:black; stroke-linecap:round; stroke-width:0.25;"/>
<line x1="209.900000" y1="210.000000" x2="217.900000" y2="210.000000"  style="stroke:black; stroke-linecap:round; stroke-width:0.25;"/>
<line x1="209.900000" y1="238.000000" x2="209.900000" y2="210.000000"  style="stroke:black; stroke-linecap:round; stroke-width:0.25;"/>
<line x1="209.900000" y1="238.000000" x2="209.900000" y2="238.000000"  style="stroke:black; stroke-linecap:round; stroke-width:0.25;"/>
<line x1="209.900000" y1="180.000000" x2="217.900000" y2="180.000000"  style="stroke:black; stroke-linecap:round; stroke-width:0.25;"/>
<line x1="210.950000" y1="460.000000" x2="369.900000" y2="460.000000"  style="stroke:black; stroke-linecap:round; stroke-width:0.25;"/>
<line x1="217.900000" y1="36.000000" x2="217.900000" y2="80.000000"  style="stroke:black; stroke-linecap:round; stroke-width:0.25;"/>
<line x1="217.900000" y1="80.000000" x2="217.900000" y2="80.000000"  style="stroke:black; stroke-linecap:round; stroke-width:0.25;"/>
<line x1="217.900000" y1="80.000000" x2="221.900000" y2="80.000000"  style="stroke:black; stroke-linecap:round; stroke-width:0.25;"/>
<line x1="217.900000" y1="88.000000" x2="221.900000" y2="88.000000"  style="stroke:black; stroke-linecap:round; stroke-width:0.25;"/>
<line x1="217.900000" y1="180.000000" x2="217.900000" y2="202.000000"  style="stroke:black; stroke-linecap:round; stroke-width:0.25;"/>
<line x1="217.900000" y1="202.000000" x2="217.900000" y2="202.000000"  style="stroke:black; stroke-linecap:round; stroke-width:0.25;"/>
<line x1="217.900000" y1="202.000000" x2="221.900000" y2="202.000000"  style="stroke:black; stroke-linecap:round; stroke-width:0.25;"/>
<line x1="217.900000" y1="210.000000" x2="221.900000" y2="210.000000"  style="stroke:black; stroke-linecap:round; stroke-width:0.25;"/>
<line x1="234.300000" y1="502.000000" x2="238.300000" y2="502.000000"  style="stroke:black; stroke-linecap:round; stroke-width:0.25;"/>
<line x1="238.300000" y1="502.000000" x2="248.300000" y2="502.000000"  style="stroke:black; stroke-linecap:round; stroke-width:0.25;"/>
<line x1="245.900000" y1="84.000000" x2="249.900000" y2="84.000000"  style="stroke:black; stroke-linecap:round; stroke-width:0.25;"/>
<line x1="245.900000" y1="428.000000" x2="249.900000" y2="428.000000"  style="stroke:black; stroke-linecap:round; stroke-width:0.25;"/>
<line x1="245.900000" y1="206.000000" x2="249.900000" y2="206.000000"  style="stroke:black; stroke-linecap:round; stroke-width:0.25;"/>
<line x1="248.300000" y1="502.000000" x2="409.900000" y2="502.000000"  style="stroke:black; stroke-linecap:round; stroke-width:0.25;"/>
<line x1="249.900000" y1="84.000000" x2="289.900000" y2="84.000000"  style="stroke:black; stroke-linecap:round; stroke-width:0.25;"/>
<line x1="249.900000" y1="284.000000" x2="257.900000" y2="284.000000"  style="stroke:black; stroke-linecap:round; stroke-width:0.25;"/>
<line x1="249.900000" y1="338.000000" x2="249.900000" y2="284.000000"  style="stroke:black; stroke-linecap:round; stroke-width:0.25;"/>
<line x1="249.900000" y1="338.000000" x2="249.900000" y2="338.000000"  style="stroke:black; stroke-linecap:round; stroke-width:0.25;"/>
<line x1="249.900000" y1="428.000000" x2="329.900000" y2="428.000000"  style="stroke:black; stroke-linecap:round; stroke-width:0.25;"/>
<line x1="249.900000" y1="206.000000" x2="257.900000" y2="206.000000"  style="stroke:black; stroke-linecap:round; stroke-width:0.25;"/>
<line x1="257.900000" y1="206.000000" x2="257.900000" y2="276.000000"  style="stroke:black; stroke-linecap:round; stroke-width:0.25;"/>
<line x1="257.900000" y1="276.000000" x2="257.900000" y2="276.000000"  style="stroke:black; stroke-linecap:round; stroke-width:0.25;"/>
<line x1="257.900000" y1="276.000000" x2="261.900000" y2="276.000000"  style="stroke:black; stroke-linecap:round; stroke-width:0.25;"/>
<line x1="257.900000" y1="284.000000" x2="261.900000" y2="284.000000"  style="stroke:black; stroke-linecap:round; stroke-width:0.25;"/>
<line x1="285.900000" y1="280.000000" x2="289.900000" y2="280.000000"  style="stroke:black; stroke-linecap:round; stroke-width:0.25;"/>
<line x1="289.900000" y1="84.000000" x2="297.900000" y2="84.000000"  style="stroke:black; stroke-linecap:round; stroke-width:0.25;"/>
<line x1="289.900000" y1="220.000000" x2="297.900000" y2="220.000000"  style="stroke:black; stroke-linecap:round; stroke-width:0.25;"/>
<line x1="289.900000" y1="280.000000" x2="289.900000" y2="220.000000"  style="stroke:black; stroke-linecap:round; stroke-width:0.25;"/>
<line x1="289.900000" y1="280.000000" x2="289.900000" y2="280.000000"  style="stroke:black; stroke-linecap:round; stroke-width:0.25;"/>
<line x1="297.900000" y1="84.000000" x2="297.900000" y2="212.000000"  style="stroke:black; stroke-linecap:round; stroke-width:0.25;"/>
<line x1="297.900000" y1="212.000000" x2="297.900000" y2="212.000000"  style="stroke:black; stroke-linecap:round; stroke-width:0.25;"/>
<line x1="297.900000" y1="212.000000" x2="301.900000" y2="212.000000"  style="stroke:black; stroke-linecap:round; stroke-width:0.25;"/>
<line x1="297.900000" y1="220.000000" x2="301.900000" y2="220.000000"  style="stroke:black; stroke-linecap:round; stroke-width:0.25;"/>
<line x1="325.900000" y1="216.000000" x2="329.900000" y2="216.000000"  style="stroke:black; stroke-linecap:round; stroke-width:0.25;"/>
<line x1="329.900000" y1="216.000000" x2="337.900000" y2="216.000000"  style="stroke:black; stroke-linecap:round; stroke-width:0.25;"/>
<line x1="329.900000" y1="236.000000" x2="337.900000" y2="236.000000"  style="stroke:black; stroke-linecap:round; stroke-width:0.25;"/>
<line x1="329.900000" y1="428.000000" x2="329.900000" y2="236.000000"  style="stroke:black; stroke-linecap:round; stroke-width:0.25;"/>
<line x1="329.900000" y1="428.000000" x2="329.900000" y2="428.000000"  style="stroke:black; stroke-linecap:round; stroke-width:0.25;"/>
<line x1="337.900000" y1="216.000000" x2="337.900000" y2="228.000000"  style="stroke:black; stroke-linecap:round; stroke-width:0.25;"/>
<line x1="337.900000" y1="228.000000" x2="337.900000" y2="228.000000"  style="stroke:black; stroke-linecap:round; stroke-width:0.25;"/>
<line x1="337.900000" y1="228.000000" x2="341.900000" y2="228.000000"  style="stroke:black; stroke-linecap:round; stroke-width:0.25;"/>
<line x1="337.900000" y1="236.000000" x2="341.900000" y2="236.000000"  style="stroke:black; stroke-linecap:round; stroke-width:0.25;"/>
<line x1="365.900000" y1="232.000000" x2="369.900000" y2="232.000000"  style="stroke:black; stroke-linecap:round; stroke-width:0.25;"/>
<line x1="369.900000" y1="232.000000" x2="377.900000" y2="232.000000"  style="stroke:black; stroke-linecap:round; stroke-width:0.25;"/>
<line x1="369.900000" y1="252.000000" x2="377.900000" y2="252.000000"  style="stroke:black; stroke-linecap:round; stroke-width:0.25;"/>
<line x1="369.900000" y1="460.000000" x2="369.900000" y2="252.000000"  style="stroke:black; stroke-linecap:round; stroke-width:0.25;"/>
<line x1="369.900000" y1="460.000000" x2="369.900000" y2="460.000000"  style="stroke:black; stroke-linecap:round; stroke-width:0.25;"/>
<line x1="377.900000" y1="232.000000" x2="377.900000" y2="244.000000"  style="stroke:black; stroke-linecap:round; stroke-width:0.25;"/>
<line x1="377.900000" y1="244.000000" x2="377.900000" y2="244.000000"  style="stroke:black; stroke-linecap:round; stroke-width:0.25;"/>
<line x1="377.900000" y1="244.000000" x2="381.900000" y2="244.000000"  style="stroke:black; stroke-linecap:round; stroke-width:0.25;"/>
<line x1="377.900000" y1="252.000000" x2="381.900000" y2="252.000000"  style="stroke:black; stroke-linecap:round; stroke-width:0.25;"/>
<line x1="405.900000" y1="248.000000" x2="409.900000" y2="248.000000"  style="stroke:black; stroke-linecap:round; stroke-width:0.25;"/>
<line x1="409.900000" y1="248.000000" x2="417.900000" y2="248.000000"  style="stroke:black; stroke-linecap:round; stroke-width:0.25;"/>
<line x1="409.900000" y1="278.000000" x2="417.900000" y2="278.000000"  style="stroke:black; stroke-linecap:round; stroke-width:0.25;"/>
<line x1="409.900000" y1="502.000000" x2="409.900000" y2="278.000000"  style="stroke:black; stroke-linecap:round; stroke-width:0.25;"/>
<line x1="409.900000" y1="502.000000" x2="409.900000" y2="502.000000"  style="stroke:black; stroke-linecap:round; stroke-width:0.25;"/>
<line x1="417.900000" y1="248.000000" x2="417.900000" y2="270.000000"  style="stroke:black; stroke-linecap:round; stroke-width:0.25;"/>
<line x1="417.900000" y1="270.000000" x2="417.900000" y2="270.000000"  style="stroke:black; stroke-linecap:round; stroke-width:0.25;"/>
<line x1="417.900000" y1="270.000000" x2="421.900000" y2="270.000000"  style="stroke:black; stroke-linecap:round; stroke-width:0.25;"/>
<line x1="417.900000" y1="278.000000" x2="421.900000" y2="278.000000"  style="stroke:black; stroke-linecap:round; stroke-width:0.25;"/>
<line x1="445.900000" y1="274.000000" x2="449.900000" y2="274.000000"  style="stroke:black; stroke-linecap:round; stroke-width:0.25;"/>
<line x1="449.900000" y1="274.000000" x2="449.900000" y2="274.000000"  style="stroke:black; stroke-linecap:round; stroke-width:0.25;"/>
<line x1="449.900000" y1="274.000000" x2="453.900000" y2="274.000000"  style="stroke:black; stroke-linecap:round; stroke-width:0.25;"/>
<line x1="477.900000" y1="274.000000" x2="481.900000" y2="274.000000"  style="stroke:black; stroke-linecap:round; stroke-width:0.25;"/>
<line x1="481.900000" y1="274.000000" x2="481.900000" y2="274.000000"  style="stroke:black; stroke-linecap:round; stroke-width:0.25;"/>
<line x1="481.900000" y1="274.000000" x2="485.900000" y2="274.000000"  style="stroke:black; stroke-linecap:round; stroke-width:0.25;"/>
<line x1="485.900000" y1="274.000000" x2="489.900000" y2="274.000000"  style="stroke:black; stroke-linecap:round; stroke-width:0.25;"/>
<line x1="489.900000" y1="274.000000" x2="499.900000" y2="274.000000"  style="stroke:black; stroke-linecap:round; stroke-width:0.25;"/>
</svg>
