<?xml version="1.0"?>
<svg xmlns="http://www.w3.org/2000/svg" xmlns:xlink="http://www.w3.org/1999/xlink" viewBox="0 0 252.000000 188.000000" width="126.000000mm" height="94.000000mm" version="1.1">
<a xlink:href="fdelay4-0x4142970.svg">
<rect x="1.000000" y="1.000000" width="251.000000" height="187.000000" rx="0" ry="0" style="stroke:none;fill:#cccccc;"/>
<rect x="0.000000" y="0.000000" width="251.000000" height="187.000000" rx="0" ry="0" style="stroke:none;fill:#ffffff;"/>
</a>
<text x="10.000000" y="7.000000" font-family="Arial" font-size="7"></text>
<rect x="91.000000" y="25.000000" width="24.000000" height="24.000000" rx="0" ry="0" style="stroke:none;fill:#cccccc;"/>
<rect x="90.000000" y="24.000000" width="24.000000" height="24.000000" rx="0" ry="0" style="stroke:none;fill:#47945E;"/>
<text x="102.000000" y="38.000000" font-family="Arial" font-size="7" text-anchor="middle" fill="#FFFFFF">x</text>
<circle cx="92.000000" cy="26.000000" r="1"/>
<a xlink:href="id-0x4121630.svg">
<rect x="35.000000" y="57.000000" width="24.000000" height="24.000000" rx="0" ry="0" style="stroke:none;fill:#cccccc;"/>
<rect x="34.000000" y="56.000000" width="24.000000" height="24.000000" rx="0" ry="0" style="stroke:none;fill:#003366;"/>
</a>
<a xlink:href="id-0x4121630.svg">
<text x="46.000000" y="70.000000" font-family="Arial" font-size="7" text-anchor="middle" fill="#FFFFFF">id</text>
</a>
<circle cx="36.000000" cy="58.000000" r="1"/>
<rect x="35.000000" y="99.000000" width="24.000000" height="24.000000" rx="0" ry="0" style="stroke:none;fill:#cccccc;"/>
<rect x="34.000000" y="98.000000" width="24.000000" height="24.000000" rx="0" ry="0" style="stroke:none;fill:#f44800;"/>
<text x="46.000000" y="112.000000" font-family="Arial" font-size="7" text-anchor="middle" fill="#FFFFFF">0</text>
<circle cx="36.000000" cy="100.000000" r="1"/>
<line x1="25.000000" y1="89.000000" x2="25.000000" y2="131.000000"  style="stroke: black; stroke-linecap:round; stroke-width:0.25; stroke-dasharray:3,3;"/>
<line x1="25.000000" y1="131.000000" x2="67.000000" y2="131.000000"  style="stroke: black; stroke-linecap:round; stroke-width:0.25; stroke-dasharray:3,3;"/>
<line x1="67.000000" y1="131.000000" x2="67.000000" y2="89.000000"  style="stroke: black; stroke-linecap:round; stroke-width:0.25; stroke-dasharray:3,3;"/>
<line x1="25.000000" y1="89.000000" x2="30.000000" y2="89.000000"  style="stroke: black; stroke-linecap:round; stroke-width:0.25; stroke-dasharray:3,3;"/>
<line x1="67.000000" y1="89.000000" x2="67.000000" y2="89.000000"  style="stroke: black; stroke-linecap:round; stroke-width:0.25; stroke-dasharray:3,3;"/>
<text x="30.000000" y="91.000000" font-family="Arial" font-size="7">enablePhaseNoise</text>
<rect x="85.000000" y="83.000000" width="24.000000" height="24.000000" rx="0" ry="0" style="stroke:none;fill:#cccccc;"/>
<rect x="84.000000" y="82.000000" width="24.000000" height="24.000000" rx="0" ry="0" style="stroke:none;fill:#4B71A1;"/>
<text x="96.000000" y="96.000000" font-family="Arial" font-size="7" text-anchor="middle" fill="#FFFFFF">+</text>
<circle cx="86.000000" cy="84.000000" r="1"/>
<line x1="81.000000" y1="89.000000" x2="84.000000" y2="90.000000"  transform="rotate(0.000000,84.000000,90.000000)" style="stroke: black; stroke-width:0.25;"/>
<line x1="81.000000" y1="91.000000" x2="84.000000" y2="90.000000"  transform="rotate(0.000000,84.000000,90.000000)" style="stroke: black; stroke-width:0.25;"/>
<line x1="81.000000" y1="97.000000" x2="84.000000" y2="98.000000"  transform="rotate(0.000000,84.000000,98.000000)" style="stroke: black; stroke-width:0.25;"/>
<line x1="81.000000" y1="99.000000" x2="84.000000" y2="98.000000"  transform="rotate(0.000000,84.000000,98.000000)" style="stroke: black; stroke-width:0.25;"/>
<rect x="117.000000" y="83.000000" width="24.000000" height="24.000000" rx="0" ry="0" style="stroke:none;fill:#cccccc;"/>
<rect x="116.000000" y="82.000000" width="24.000000" height="24.000000" rx="0" ry="0" style="stroke:none;fill:#4B71A1;"/>
<text x="128.000000" y="96.000000" font-family="Arial" font-size="7" text-anchor="middle" fill="#FFFFFF">int</text>
<circle cx="118.000000" cy="84.000000" r="1"/>
<line x1="113.000000" y1="93.000000" x2="116.000000" y2="94.000000"  transform="rotate(0.000000,116.000000,94.000000)" style="stroke: black; stroke-width:0.25;"/>
<line x1="113.000000" y1="95.000000" x2="116.000000" y2="94.000000"  transform="rotate(0.000000,116.000000,94.000000)" style="stroke: black; stroke-width:0.25;"/>
<rect x="70.100000" y="141.000000" width="25.800000" height="24.000000" rx="0" ry="0" style="stroke:none;fill:#cccccc;"/>
<rect x="69.100000" y="140.000000" width="25.800000" height="24.000000" rx="0" ry="0" style="stroke:none;fill:#f44800;"/>
<text x="82.000000" y="154.000000" font-family="Arial" font-size="7" text-anchor="middle" fill="#FFFFFF">4095</text>
<circle cx="71.100000" cy="142.000000" r="1"/>
<rect x="157.000000" y="99.000000" width="24.000000" height="24.000000" rx="0" ry="0" style="stroke:none;fill:#cccccc;"/>
<rect x="156.000000" y="98.000000" width="24.000000" height="24.000000" rx="0" ry="0" style="stroke:none;fill:#4B71A1;"/>
<text x="168.000000" y="112.000000" font-family="Arial" font-size="7" text-anchor="middle" fill="#FFFFFF">&amp;</text>
<circle cx="158.000000" cy="100.000000" r="1"/>
<line x1="153.000000" y1="105.000000" x2="156.000000" y2="106.000000"  transform="rotate(0.000000,156.000000,106.000000)" style="stroke: black; stroke-width:0.25;"/>
<line x1="153.000000" y1="107.000000" x2="156.000000" y2="106.000000"  transform="rotate(0.000000,156.000000,106.000000)" style="stroke: black; stroke-width:0.25;"/>
<line x1="153.000000" y1="113.000000" x2="156.000000" y2="114.000000"  transform="rotate(0.000000,156.000000,114.000000)" style="stroke: black; stroke-width:0.25;"/>
<line x1="153.000000" y1="115.000000" x2="156.000000" y2="114.000000"  transform="rotate(0.000000,156.000000,114.000000)" style="stroke: black; stroke-width:0.25;"/>
<rect x="197.000000" y="83.000000" width="24.000000" height="24.000000" rx="0" ry="0" style="stroke:none;fill:#cccccc;"/>
<rect x="196.000000" y="82.000000" width="24.000000" height="24.000000" rx="0" ry="0" style="stroke:none;fill:#4B71A1;"/>
<text x="208.000000" y="96.000000" font-family="Arial" font-size="7" text-anchor="middle" fill="#FFFFFF">@</text>
<circle cx="198.000000" cy="84.000000" r="1"/>
<line x1="193.000000" y1="89.000000" x2="196.000000" y2="90.000000"  transform="rotate(0.000000,196.000000,90.000000)" style="stroke: black; stroke-width:0.25;"/>
<line x1="193.000000" y1="91.000000" x2="196.000000" y2="90.000000"  transform="rotate(0.000000,196.000000,90.000000)" style="stroke: black; stroke-width:0.25;"/>
<line x1="193.000000" y1="97.000000" x2="196.000000" y2="98.000000"  transform="rotate(0.000000,196.000000,98.000000)" style="stroke: black; stroke-width:0.25;"/>
<line x1="193.000000" y1="99.000000" x2="196.000000" y2="98.000000"  transform="rotate(0.000000,196.000000,98.000000)" style="stroke: black; stroke-width:0.25;"/>
<line x1="15.000000" y1="15.000000" x2="15.000000" y2="173.000000"  style="stroke: black; stroke-linecap:round; stroke-width:0.25; stroke-dasharray:3,3;"/>
<line x1="15.000000" y1="173.000000" x2="237.000000" y2="173.000000"  style="stroke: black; stroke-linecap:round; stroke-width:0.25; stroke-dasharray:3,3;"/>
<line x1="237.000000" y1="173.000000" x2="237.000000" y2="15.000000"  style="stroke: black; stroke-linecap:round; stroke-width:0.25; stroke-dasharray:3,3;"/>
<line x1="15.000000" y1="15.000000" x2="20.000000" y2="15.000000"  style="stroke: black; stroke-linecap:round; stroke-width:0.25; stroke-dasharray:3,3;"/>
<line x1="139.325000" y1="15.000000" x2="237.000000" y2="15.000000"  style="stroke: black; stroke-linecap:round; stroke-width:0.25; stroke-dasharray:3,3;"/>
<text x="20.000000" y="17.000000" font-family="Arial" font-size="7">delay(4096)((...: int),0 : +)(x211)</text>
<line x1="239.000000" y1="93.000000" x2="242.000000" y2="94.000000"  transform="rotate(0.000000,242.000000,94.000000)" style="stroke: black; stroke-width:0.25;"/>
<line x1="239.000000" y1="95.000000" x2="242.000000" y2="94.000000"  transform="rotate(0.000000,242.000000,94.000000)" style="stroke: black; stroke-width:0.25;"/>
<line x1="58.000000" y1="68.000000" x2="62.000000" y2="68.000000"  style="stroke:black; stroke-linecap:round; stroke-width:0.25;"/>
<line x1="58.000000" y1="110.000000" x2="62.000000" y2="110.000000"  style="stroke:black; stroke-linecap:round; stroke-width:0.25;"/>
<line x1="62.000000" y1="68.000000" x2="72.000000" y2="68.000000"  style="stroke:black; stroke-linecap:round; stroke-width:0.25;"/>
<line x1="62.000000" y1="110.000000" x2="72.000000" y2="110.000000"  style="stroke:black; stroke-linecap:round; stroke-width:0.25;"/>
<line x1="72.000000" y1="68.000000" x2="80.000000" y2="68.000000"  style="stroke:black; stroke-linecap:round; stroke-width:0.25;"/>
<line x1="72.000000" y1="98.000000" x2="80.000000" y2="98.000000"  style="stroke:black; stroke-linecap:round; stroke-width:0.25;"/>
<line x1="72.000000" y1="110.000000" x2="72.000000" y2="98.000000"  style="stroke:black; stroke-linecap:round; stroke-width:0.25;"/>
<line x1="72.000000" y1="110.000000" x2="72.000000" y2="110.000000"  style="stroke:black; stroke-linecap:round; stroke-width:0.25;"/>
<line x1="80.000000" y1="68.000000" x2="80.000000" y2="90.000000"  style="stroke:black; stroke-linecap:round; stroke-width:0.25;"/>
<line x1="80.000000" y1="90.000000" x2="80.000000" y2="90.000000"  style="stroke:black; stroke-linecap:round; stroke-width:0.25;"/>
<line x1="80.000000" y1="90.000000" x2="84.000000" y2="90.000000"  style="stroke:black; stroke-linecap:round; stroke-width:0.25;"/>
<line x1="80.000000" y1="98.000000" x2="84.000000" y2="98.000000"  style="stroke:black; stroke-linecap:round; stroke-width:0.25;"/>
<line x1="94.900000" y1="152.000000" x2="98.900000" y2="152.000000"  style="stroke:black; stroke-linecap:round; stroke-width:0.25;"/>
<line x1="98.900000" y1="152.000000" x2="144.000000" y2="152.000000"  style="stroke:black; stroke-linecap:round; stroke-width:0.25;"/>
<line x1="108.000000" y1="94.000000" x2="112.000000" y2="94.000000"  style="stroke:black; stroke-linecap:round; stroke-width:0.25;"/>
<line x1="112.000000" y1="94.000000" x2="112.000000" y2="94.000000"  style="stroke:black; stroke-linecap:round; stroke-width:0.25;"/>
<line x1="112.000000" y1="94.000000" x2="116.000000" y2="94.000000"  style="stroke:black; stroke-linecap:round; stroke-width:0.25;"/>
<line x1="114.000000" y1="36.000000" x2="118.000000" y2="36.000000"  style="stroke:black; stroke-linecap:round; stroke-width:0.25;"/>
<line x1="118.000000" y1="36.000000" x2="184.000000" y2="36.000000"  style="stroke:black; stroke-linecap:round; stroke-width:0.25;"/>
<line x1="140.000000" y1="94.000000" x2="144.000000" y2="94.000000"  style="stroke:black; stroke-linecap:round; stroke-width:0.25;"/>
<line x1="144.000000" y1="94.000000" x2="152.000000" y2="94.000000"  style="stroke:black; stroke-linecap:round; stroke-width:0.25;"/>
<line x1="144.000000" y1="114.000000" x2="152.000000" y2="114.000000"  style="stroke:black; stroke-linecap:round; stroke-width:0.25;"/>
<line x1="144.000000" y1="152.000000" x2="144.000000" y2="114.000000"  style="stroke:black; stroke-linecap:round; stroke-width:0.25;"/>
<line x1="144.000000" y1="152.000000" x2="144.000000" y2="152.000000"  style="stroke:black; stroke-linecap:round; stroke-width:0.25;"/>
<line x1="152.000000" y1="94.000000" x2="152.000000" y2="106.000000"  style="stroke:black; stroke-linecap:round; stroke-width:0.25;"/>
<line x1="152.000000" y1="106.000000" x2="152.000000" y2="106.000000"  style="stroke:black; stroke-linecap:round; stroke-width:0.25;"/>
<line x1="152.000000" y1="106.000000" x2="156.000000" y2="106.000000"  style="stroke:black; stroke-linecap:round; stroke-width:0.25;"/>
<line x1="152.000000" y1="114.000000" x2="156.000000" y2="114.000000"  style="stroke:black; stroke-linecap:round; stroke-width:0.25;"/>
<line x1="180.000000" y1="110.000000" x2="184.000000" y2="110.000000"  style="stroke:black; stroke-linecap:round; stroke-width:0.25;"/>
<line x1="184.000000" y1="36.000000" x2="192.000000" y2="36.000000"  style="stroke:black; stroke-linecap:round; stroke-width:0.25;"/>
<line x1="184.000000" y1="98.000000" x2="192.000000" y2="98.000000"  style="stroke:black; stroke-linecap:round; stroke-width:0.25;"/>
<line x1="184.000000" y1="110.000000" x2="184.000000" y2="98.000000"  style="stroke:black; stroke-linecap:round; stroke-width:0.25;"/>
<line x1="184.000000" y1="110.000000" x2="184.000000" y2="110.000000"  style="stroke:black; stroke-linecap:round; stroke-width:0.25;"/>
<line x1="192.000000" y1="36.000000" x2="192.000000" y2="90.000000"  style="stroke:black; stroke-linecap:round; stroke-width:0.25;"/>
<line x1="192.000000" y1="90.000000" x2="192.000000" y2="90.000000"  style="stroke:black; stroke-linecap:round; stroke-width:0.25;"/>
<line x1="192.000000" y1="90.000000" x2="196.000000" y2="90.000000"  style="stroke:black; stroke-linecap:round; stroke-width:0.25;"/>
<line x1="192.000000" y1="98.000000" x2="196.000000" y2="98.000000"  style="stroke:black; stroke-linecap:round; stroke-width:0.25;"/>
<line x1="220.000000" y1="94.000000" x2="224.000000" y2="94.000000"  style="stroke:black; stroke-linecap:round; stroke-width:0.25;"/>
<line x1="224.000000" y1="94.000000" x2="224.000000" y2="94.000000"  style="stroke:black; stroke-linecap:round; stroke-width:0.25;"/>
<line x1="224.000000" y1="94.000000" x2="228.000000" y2="94.000000"  style="stroke:black; stroke-linecap:round; stroke-width:0.25;"/>
<line x1="228.000000" y1="94.000000" x2="232.000000" y2="94.000000"  style="stroke:black; stroke-linecap:round; stroke-width:0.25;"/>
<line x1="232.000000" y1="94.000000" x2="242.000000" y2="94.000000"  style="stroke:black; stroke-linecap:round; stroke-width:0.25;"/>
</svg>
