<?xml version="1.0"?>
<svg xmlns="http://www.w3.org/2000/svg" xmlns:xlink="http://www.w3.org/1999/xlink" viewBox="0 0 416.200000 532.000000" width="208.100000mm" height="266.000000mm" version="1.1">
<a xlink:href="h-0x413fb50.svg">
<rect x="1.000000" y="1.000000" width="415.200000" height="531.000000" rx="0" ry="0" style="stroke:none;fill:#cccccc;"/>
<rect x="0.000000" y="0.000000" width="415.200000" height="531.000000" rx="0" ry="0" style="stroke:none;fill:#ffffff;"/>
</a>
<text x="10.000000" y="7.000000" font-family="Arial" font-size="7"></text>
<rect x="161.750000" y="25.000000" width="24.000000" height="24.000000" rx="0" ry="0" style="stroke:none;fill:#cccccc;"/>
<rect x="160.750000" y="24.000000" width="24.000000" height="24.000000" rx="0" ry="0" style="stroke:none;fill:#f44800;"/>
<text x="172.750000" y="38.000000" font-family="Arial" font-size="7" text-anchor="middle" fill="#FFFFFF">3</text>
<circle cx="162.750000" cy="26.000000" r="1"/>
<rect x="161.750000" y="67.000000" width="24.000000" height="24.000000" rx="0" ry="0" style="stroke:none;fill:#cccccc;"/>
<rect x="160.750000" y="66.000000" width="24.000000" height="24.000000" rx="0" ry="0" style="stroke:none;fill:#f44800;"/>
<text x="172.750000" y="80.000000" font-family="Arial" font-size="7" text-anchor="middle" fill="#FFFFFF">1</text>
<circle cx="162.750000" cy="68.000000" r="1"/>
<line x1="151.750000" y1="57.000000" x2="151.750000" y2="99.000000"  style="stroke: black; stroke-linecap:round; stroke-width:0.25; stroke-dasharray:3,3;"/>
<line x1="151.750000" y1="99.000000" x2="193.750000" y2="99.000000"  style="stroke: black; stroke-linecap:round; stroke-width:0.25; stroke-dasharray:3,3;"/>
<line x1="193.750000" y1="99.000000" x2="193.750000" y2="57.000000"  style="stroke: black; stroke-linecap:round; stroke-width:0.25; stroke-dasharray:3,3;"/>
<line x1="151.750000" y1="57.000000" x2="156.750000" y2="57.000000"  style="stroke: black; stroke-linecap:round; stroke-width:0.25; stroke-dasharray:3,3;"/>
<line x1="193.750000" y1="57.000000" x2="193.750000" y2="57.000000"  style="stroke: black; stroke-linecap:round; stroke-width:0.25; stroke-dasharray:3,3;"/>
<text x="156.750000" y="59.000000" font-family="Arial" font-size="7">facs2(4)(((4,...nt) : -) : +)(4)</text>
<rect x="90.400000" y="119.000000" width="24.000000" height="24.000000" rx="0" ry="0" style="stroke:none;fill:#cccccc;"/>
<rect x="89.400000" y="118.000000" width="24.000000" height="24.000000" rx="0" ry="0" style="stroke:none;fill:#f44800;"/>
<text x="101.400000" y="132.000000" font-family="Arial" font-size="7" text-anchor="middle" fill="#FFFFFF">1</text>
<circle cx="91.400000" cy="120.000000" r="1"/>
<line x1="80.400000" y1="109.000000" x2="80.400000" y2="151.000000"  style="stroke: black; stroke-linecap:round; stroke-width:0.25; stroke-dasharray:3,3;"/>
<line x1="80.400000" y1="151.000000" x2="122.400000" y2="151.000000"  style="stroke: black; stroke-linecap:round; stroke-width:0.25; stroke-dasharray:3,3;"/>
<line x1="122.400000" y1="151.000000" x2="122.400000" y2="109.000000"  style="stroke: black; stroke-linecap:round; stroke-width:0.25; stroke-dasharray:3,3;"/>
<line x1="80.400000" y1="109.000000" x2="85.400000" y2="109.000000"  style="stroke: black; stroke-linecap:round; stroke-width:0.25; stroke-dasharray:3,3;"/>
<line x1="122.400000" y1="109.000000" x2="122.400000" y2="109.000000"  style="stroke: black; stroke-linecap:round; stroke-width:0.25; stroke-dasharray:3,3;"/>
<text x="85.400000" y="111.000000" font-family="Arial" font-size="7">facs2(4)(((4,...nt) : -) : +)(4)</text>
<rect x="90.400000" y="171.000000" width="24.000000" height="24.000000" rx="0" ry="0" style="stroke:none;fill:#cccccc;"/>
<rect x="89.400000" y="170.000000" width="24.000000" height="24.000000" rx="0" ry="0" style="stroke:none;fill:#f44800;"/>
<text x="101.400000" y="184.000000" font-family="Arial" font-size="7" text-anchor="middle" fill="#FFFFFF">1</text>
<circle cx="91.400000" cy="172.000000" r="1"/>
<line x1="80.400000" y1="161.000000" x2="80.400000" y2="203.000000"  style="stroke: black; stroke-linecap:round; stroke-width:0.25; stroke-dasharray:3,3;"/>
<line x1="80.400000" y1="203.000000" x2="122.400000" y2="203.000000"  style="stroke: black; stroke-linecap:round; stroke-width:0.25; stroke-dasharray:3,3;"/>
<line x1="122.400000" y1="203.000000" x2="122.400000" y2="161.000000"  style="stroke: black; stroke-linecap:round; stroke-width:0.25; stroke-dasharray:3,3;"/>
<line x1="80.400000" y1="161.000000" x2="85.400000" y2="161.000000"  style="stroke: black; stroke-linecap:round; stroke-width:0.25; stroke-dasharray:3,3;"/>
<line x1="122.400000" y1="161.000000" x2="122.400000" y2="161.000000"  style="stroke: black; stroke-linecap:round; stroke-width:0.25; stroke-dasharray:3,3;"/>
<text x="85.400000" y="163.000000" font-family="Arial" font-size="7">facs2(4)(((4,...nt) : -) : +)(4)</text>
<a xlink:href="fac-0x413def0.svg">
<rect x="25.000000" y="213.000000" width="154.800000" height="24.000000" rx="0" ry="0" style="stroke:none;fill:#cccccc;"/>
<rect x="24.000000" y="212.000000" width="154.800000" height="24.000000" rx="0" ry="0" style="stroke:none;fill:#003366;"/>
</a>
<a xlink:href="fac-0x413def0.svg">
<text x="101.400000" y="226.000000" font-family="Arial" font-size="7" text-anchor="middle" fill="#FFFFFF">fac(((4,1.000...nt) : -) : +)(3)(0)</text>
</a>
<circle cx="26.000000" cy="214.000000" r="1"/>
<rect x="203.800000" y="161.000000" width="38.700000" height="24.000000" rx="0" ry="0" style="stroke:none;fill:#cccccc;"/>
<rect x="202.800000" y="160.000000" width="38.700000" height="24.000000" rx="0" ry="0" style="stroke:none;fill:#4B71A1;"/>
<text x="222.150000" y="174.000000" font-family="Arial" font-size="7" text-anchor="middle" fill="#FFFFFF">select2</text>
<circle cx="204.800000" cy="162.000000" r="1"/>
<line x1="199.800000" y1="163.000000" x2="202.800000" y2="164.000000"  transform="rotate(0.000000,202.800000,164.000000)" style="stroke: black; stroke-width:0.25;"/>
<line x1="199.800000" y1="165.000000" x2="202.800000" y2="164.000000"  transform="rotate(0.000000,202.800000,164.000000)" style="stroke: black; stroke-width:0.25;"/>
<line x1="199.800000" y1="171.000000" x2="202.800000" y2="172.000000"  transform="rotate(0.000000,202.800000,172.000000)" style="stroke: black; stroke-width:0.25;"/>
<line x1="199.800000" y1="173.000000" x2="202.800000" y2="172.000000"  transform="rotate(0.000000,202.800000,172.000000)" style="stroke: black; stroke-width:0.25;"/>
<line x1="199.800000" y1="179.000000" x2="202.800000" y2="180.000000"  transform="rotate(0.000000,202.800000,180.000000)" style="stroke: black; stroke-width:0.25;"/>
<line x1="199.800000" y1="181.000000" x2="202.800000" y2="180.000000"  transform="rotate(0.000000,202.800000,180.000000)" style="stroke: black; stroke-width:0.25;"/>
<rect x="90.400000" y="255.000000" width="24.000000" height="24.000000" rx="0" ry="0" style="stroke:none;fill:#cccccc;"/>
<rect x="89.400000" y="254.000000" width="24.000000" height="24.000000" rx="0" ry="0" style="stroke:none;fill:#f44800;"/>
<text x="101.400000" y="268.000000" font-family="Arial" font-size="7" text-anchor="middle" fill="#FFFFFF">1</text>
<circle cx="91.400000" cy="256.000000" r="1"/>
<line x1="80.400000" y1="245.000000" x2="80.400000" y2="287.000000"  style="stroke: black; stroke-linecap:round; stroke-width:0.25; stroke-dasharray:3,3;"/>
<line x1="80.400000" y1="287.000000" x2="122.400000" y2="287.000000"  style="stroke: black; stroke-linecap:round; stroke-width:0.25; stroke-dasharray:3,3;"/>
<line x1="122.400000" y1="287.000000" x2="122.400000" y2="245.000000"  style="stroke: black; stroke-linecap:round; stroke-width:0.25; stroke-dasharray:3,3;"/>
<line x1="80.400000" y1="245.000000" x2="85.400000" y2="245.000000"  style="stroke: black; stroke-linecap:round; stroke-width:0.25; stroke-dasharray:3,3;"/>
<line x1="122.400000" y1="245.000000" x2="122.400000" y2="245.000000"  style="stroke: black; stroke-linecap:round; stroke-width:0.25; stroke-dasharray:3,3;"/>
<text x="85.400000" y="247.000000" font-family="Arial" font-size="7">facs2(4)(((4,...nt) : -) : +)(4)</text>
<rect x="90.400000" y="307.000000" width="24.000000" height="24.000000" rx="0" ry="0" style="stroke:none;fill:#cccccc;"/>
<rect x="89.400000" y="306.000000" width="24.000000" height="24.000000" rx="0" ry="0" style="stroke:none;fill:#f44800;"/>
<text x="101.400000" y="320.000000" font-family="Arial" font-size="7" text-anchor="middle" fill="#FFFFFF">1</text>
<circle cx="91.400000" cy="308.000000" r="1"/>
<line x1="80.400000" y1="297.000000" x2="80.400000" y2="339.000000"  style="stroke: black; stroke-linecap:round; stroke-width:0.25; stroke-dasharray:3,3;"/>
<line x1="80.400000" y1="339.000000" x2="122.400000" y2="339.000000"  style="stroke: black; stroke-linecap:round; stroke-width:0.25; stroke-dasharray:3,3;"/>
<line x1="122.400000" y1="339.000000" x2="122.400000" y2="297.000000"  style="stroke: black; stroke-linecap:round; stroke-width:0.25; stroke-dasharray:3,3;"/>
<line x1="80.400000" y1="297.000000" x2="85.400000" y2="297.000000"  style="stroke: black; stroke-linecap:round; stroke-width:0.25; stroke-dasharray:3,3;"/>
<line x1="122.400000" y1="297.000000" x2="122.400000" y2="297.000000"  style="stroke: black; stroke-linecap:round; stroke-width:0.25; stroke-dasharray:3,3;"/>
<text x="85.400000" y="299.000000" font-family="Arial" font-size="7">facs2(4)(((4,...nt) : -) : +)(4)</text>
<a xlink:href="fac-0x413e410.svg">
<rect x="25.000000" y="349.000000" width="154.800000" height="24.000000" rx="0" ry="0" style="stroke:none;fill:#cccccc;"/>
<rect x="24.000000" y="348.000000" width="154.800000" height="24.000000" rx="0" ry="0" style="stroke:none;fill:#003366;"/>
</a>
<a xlink:href="fac-0x413e410.svg">
<text x="101.400000" y="362.000000" font-family="Arial" font-size="7" text-anchor="middle" fill="#FFFFFF">fac(((4,1.000...nt) : -) : +)(3)(1)</text>
</a>
<circle cx="26.000000" cy="350.000000" r="1"/>
<rect x="203.800000" y="297.000000" width="38.700000" height="24.000000" rx="0" ry="0" style="stroke:none;fill:#cccccc;"/>
<rect x="202.800000" y="296.000000" width="38.700000" height="24.000000" rx="0" ry="0" style="stroke:none;fill:#4B71A1;"/>
<text x="222.150000" y="310.000000" font-family="Arial" font-size="7" text-anchor="middle" fill="#FFFFFF">select2</text>
<circle cx="204.800000" cy="298.000000" r="1"/>
<line x1="199.800000" y1="299.000000" x2="202.800000" y2="300.000000"  transform="rotate(0.000000,202.800000,300.000000)" style="stroke: black; stroke-width:0.25;"/>
<line x1="199.800000" y1="301.000000" x2="202.800000" y2="300.000000"  transform="rotate(0.000000,202.800000,300.000000)" style="stroke: black; stroke-width:0.25;"/>
<line x1="199.800000" y1="307.000000" x2="202.800000" y2="308.000000"  transform="rotate(0.000000,202.800000,308.000000)" style="stroke: black; stroke-width:0.25;"/>
<line x1="199.800000" y1="309.000000" x2="202.800000" y2="308.000000"  transform="rotate(0.000000,202.800000,308.000000)" style="stroke: black; stroke-width:0.25;"/>
<line x1="199.800000" y1="315.000000" x2="202.800000" y2="316.000000"  transform="rotate(0.000000,202.800000,316.000000)" style="stroke: black; stroke-width:0.25;"/>
<line x1="199.800000" y1="317.000000" x2="202.800000" y2="316.000000"  transform="rotate(0.000000,202.800000,316.000000)" style="stroke: black; stroke-width:0.25;"/>
<rect x="258.500000" y="229.000000" width="24.000000" height="24.000000" rx="0" ry="0" style="stroke:none;fill:#cccccc;"/>
<rect x="257.500000" y="228.000000" width="24.000000" height="24.000000" rx="0" ry="0" style="stroke:none;fill:#4B71A1;"/>
<text x="269.500000" y="242.000000" font-family="Arial" font-size="7" text-anchor="middle" fill="#FFFFFF">*</text>
<circle cx="259.500000" cy="230.000000" r="1"/>
<line x1="254.500000" y1="235.000000" x2="257.500000" y2="236.000000"  transform="rotate(0.000000,257.500000,236.000000)" style="stroke: black; stroke-width:0.25;"/>
<line x1="254.500000" y1="237.000000" x2="257.500000" y2="236.000000"  transform="rotate(0.000000,257.500000,236.000000)" style="stroke: black; stroke-width:0.25;"/>
<line x1="254.500000" y1="243.000000" x2="257.500000" y2="244.000000"  transform="rotate(0.000000,257.500000,244.000000)" style="stroke: black; stroke-width:0.25;"/>
<line x1="254.500000" y1="245.000000" x2="257.500000" y2="244.000000"  transform="rotate(0.000000,257.500000,244.000000)" style="stroke: black; stroke-width:0.25;"/>
<rect x="110.400000" y="391.000000" width="24.000000" height="24.000000" rx="0" ry="0" style="stroke:none;fill:#cccccc;"/>
<rect x="109.400000" y="390.000000" width="24.000000" height="24.000000" rx="0" ry="0" style="stroke:none;fill:#f44800;"/>
<text x="121.400000" y="404.000000" font-family="Arial" font-size="7" text-anchor="middle" fill="#FFFFFF">1</text>
<circle cx="111.400000" cy="392.000000" r="1"/>
<line x1="100.400000" y1="381.000000" x2="100.400000" y2="423.000000"  style="stroke: black; stroke-linecap:round; stroke-width:0.25; stroke-dasharray:3,3;"/>
<line x1="100.400000" y1="423.000000" x2="142.400000" y2="423.000000"  style="stroke: black; stroke-linecap:round; stroke-width:0.25; stroke-dasharray:3,3;"/>
<line x1="142.400000" y1="423.000000" x2="142.400000" y2="381.000000"  style="stroke: black; stroke-linecap:round; stroke-width:0.25; stroke-dasharray:3,3;"/>
<line x1="100.400000" y1="381.000000" x2="105.400000" y2="381.000000"  style="stroke: black; stroke-linecap:round; stroke-width:0.25; stroke-dasharray:3,3;"/>
<line x1="142.400000" y1="381.000000" x2="142.400000" y2="381.000000"  style="stroke: black; stroke-linecap:round; stroke-width:0.25; stroke-dasharray:3,3;"/>
<text x="105.400000" y="383.000000" font-family="Arial" font-size="7">facs2(4)(((4,...nt) : -) : +)(4)</text>
<rect x="110.400000" y="443.000000" width="24.000000" height="24.000000" rx="0" ry="0" style="stroke:none;fill:#cccccc;"/>
<rect x="109.400000" y="442.000000" width="24.000000" height="24.000000" rx="0" ry="0" style="stroke:none;fill:#f44800;"/>
<text x="121.400000" y="456.000000" font-family="Arial" font-size="7" text-anchor="middle" fill="#FFFFFF">1</text>
<circle cx="111.400000" cy="444.000000" r="1"/>
<line x1="100.400000" y1="433.000000" x2="100.400000" y2="475.000000"  style="stroke: black; stroke-linecap:round; stroke-width:0.25; stroke-dasharray:3,3;"/>
<line x1="100.400000" y1="475.000000" x2="142.400000" y2="475.000000"  style="stroke: black; stroke-linecap:round; stroke-width:0.25; stroke-dasharray:3,3;"/>
<line x1="142.400000" y1="475.000000" x2="142.400000" y2="433.000000"  style="stroke: black; stroke-linecap:round; stroke-width:0.25; stroke-dasharray:3,3;"/>
<line x1="100.400000" y1="433.000000" x2="105.400000" y2="433.000000"  style="stroke: black; stroke-linecap:round; stroke-width:0.25; stroke-dasharray:3,3;"/>
<line x1="142.400000" y1="433.000000" x2="142.400000" y2="433.000000"  style="stroke: black; stroke-linecap:round; stroke-width:0.25; stroke-dasharray:3,3;"/>
<text x="105.400000" y="435.000000" font-family="Arial" font-size="7">facs2(4)(((4,...nt) : -) : +)(4)</text>
<a xlink:href="fac-0x413ecb0.svg">
<rect x="45.000000" y="485.000000" width="154.800000" height="24.000000" rx="0" ry="0" style="stroke:none;fill:#cccccc;"/>
<rect x="44.000000" y="484.000000" width="154.800000" height="24.000000" rx="0" ry="0" style="stroke:none;fill:#003366;"/>
</a>
<a xlink:href="fac-0x413ecb0.svg">
<text x="121.400000" y="498.000000" font-family="Arial" font-size="7" text-anchor="middle" fill="#FFFFFF">fac(((4,1.000...nt) : -) : +)(3)(2)</text>
</a>
<circle cx="46.000000" cy="486.000000" r="1"/>
<rect x="223.800000" y="433.000000" width="38.700000" height="24.000000" rx="0" ry="0" style="stroke:none;fill:#cccccc;"/>
<rect x="222.800000" y="432.000000" width="38.700000" height="24.000000" rx="0" ry="0" style="stroke:none;fill:#4B71A1;"/>
<text x="242.150000" y="446.000000" font-family="Arial" font-size="7" text-anchor="middle" fill="#FFFFFF">select2</text>
<circle cx="224.800000" cy="434.000000" r="1"/>
<line x1="219.800000" y1="435.000000" x2="222.800000" y2="436.000000"  transform="rotate(0.000000,222.800000,436.000000)" style="stroke: black; stroke-width:0.25;"/>
<line x1="219.800000" y1="437.000000" x2="222.800000" y2="436.000000"  transform="rotate(0.000000,222.800000,436.000000)" style="stroke: black; stroke-width:0.25;"/>
<line x1="219.800000" y1="443.000000" x2="222.800000" y2="444.000000"  transform="rotate(0.000000,222.800000,444.000000)" style="stroke: black; stroke-width:0.25;"/>
<line x1="219.800000" y1="445.000000" x2="222.800000" y2="444.000000"  transform="rotate(0.000000,222.800000,444.000000)" style="stroke: black; stroke-width:0.25;"/>
<line x1="219.800000" y1="451.000000" x2="222.800000" y2="452.000000"  transform="rotate(0.000000,222.800000,452.000000)" style="stroke: black; stroke-width:0.25;"/>
<line x1="219.800000" y1="453.000000" x2="222.800000" y2="452.000000"  transform="rotate(0.000000,222.800000,452.000000)" style="stroke: black; stroke-width:0.25;"/>
<rect x="298.500000" y="297.000000" width="24.000000" height="24.000000" rx="0" ry="0" style="stroke:none;fill:#cccccc;"/>
<rect x="297.500000" y="296.000000" width="24.000000" height="24.000000" rx="0" ry="0" style="stroke:none;fill:#4B71A1;"/>
<text x="309.500000" y="310.000000" font-family="Arial" font-size="7" text-anchor="middle" fill="#FFFFFF">*</text>
<circle cx="299.500000" cy="298.000000" r="1"/>
<line x1="294.500000" y1="303.000000" x2="297.500000" y2="304.000000"  transform="rotate(0.000000,297.500000,304.000000)" style="stroke: black; stroke-width:0.25;"/>
<line x1="294.500000" y1="305.000000" x2="297.500000" y2="304.000000"  transform="rotate(0.000000,297.500000,304.000000)" style="stroke: black; stroke-width:0.25;"/>
<line x1="294.500000" y1="311.000000" x2="297.500000" y2="312.000000"  transform="rotate(0.000000,297.500000,312.000000)" style="stroke: black; stroke-width:0.25;"/>
<line x1="294.500000" y1="313.000000" x2="297.500000" y2="312.000000"  transform="rotate(0.000000,297.500000,312.000000)" style="stroke: black; stroke-width:0.25;"/>
<rect x="346.500000" y="255.000000" width="38.700000" height="24.000000" rx="0" ry="0" style="stroke:none;fill:#cccccc;"/>
<rect x="345.500000" y="254.000000" width="38.700000" height="24.000000" rx="0" ry="0" style="stroke:none;fill:#4B71A1;"/>
<text x="364.850000" y="268.000000" font-family="Arial" font-size="7" text-anchor="middle" fill="#FFFFFF">select2</text>
<circle cx="347.500000" cy="256.000000" r="1"/>
<line x1="342.500000" y1="257.000000" x2="345.500000" y2="258.000000"  transform="rotate(0.000000,345.500000,258.000000)" style="stroke: black; stroke-width:0.25;"/>
<line x1="342.500000" y1="259.000000" x2="345.500000" y2="258.000000"  transform="rotate(0.000000,345.500000,258.000000)" style="stroke: black; stroke-width:0.25;"/>
<line x1="342.500000" y1="265.000000" x2="345.500000" y2="266.000000"  transform="rotate(0.000000,345.500000,266.000000)" style="stroke: black; stroke-width:0.25;"/>
<line x1="342.500000" y1="267.000000" x2="345.500000" y2="266.000000"  transform="rotate(0.000000,345.500000,266.000000)" style="stroke: black; stroke-width:0.25;"/>
<line x1="342.500000" y1="273.000000" x2="345.500000" y2="274.000000"  transform="rotate(0.000000,345.500000,274.000000)" style="stroke: black; stroke-width:0.25;"/>
<line x1="342.500000" y1="275.000000" x2="345.500000" y2="274.000000"  transform="rotate(0.000000,345.500000,274.000000)" style="stroke: black; stroke-width:0.25;"/>
<line x1="15.000000" y1="15.000000" x2="15.000000" y2="517.000000"  style="stroke: black; stroke-linecap:round; stroke-width:0.25; stroke-dasharray:3,3;"/>
<line x1="15.000000" y1="517.000000" x2="401.200000" y2="517.000000"  style="stroke: black; stroke-linecap:round; stroke-width:0.25; stroke-dasharray:3,3;"/>
<line x1="401.200000" y1="517.000000" x2="401.200000" y2="15.000000"  style="stroke: black; stroke-linecap:round; stroke-width:0.25; stroke-dasharray:3,3;"/>
<line x1="15.000000" y1="15.000000" x2="20.000000" y2="15.000000"  style="stroke: black; stroke-linecap:round; stroke-width:0.25; stroke-dasharray:3,3;"/>
<line x1="129.650000" y1="15.000000" x2="401.200000" y2="15.000000"  style="stroke: black; stroke-linecap:round; stroke-width:0.25; stroke-dasharray:3,3;"/>
<text x="20.000000" y="17.000000" font-family="Arial" font-size="7">facs1(4)(((4,...nt) : -) : +)(3)</text>
<line x1="403.200000" y1="265.000000" x2="406.200000" y2="266.000000"  transform="rotate(0.000000,406.200000,266.000000)" style="stroke: black; stroke-width:0.25;"/>
<line x1="403.200000" y1="267.000000" x2="406.200000" y2="266.000000"  transform="rotate(0.000000,406.200000,266.000000)" style="stroke: black; stroke-width:0.25;"/>
<line x1="113.400000" y1="130.000000" x2="117.400000" y2="130.000000"  style="stroke:black; stroke-linecap:round; stroke-width:0.25;"/>
<line x1="113.400000" y1="182.000000" x2="117.400000" y2="182.000000"  style="stroke:black; stroke-linecap:round; stroke-width:0.25;"/>
<line x1="113.400000" y1="266.000000" x2="117.400000" y2="266.000000"  style="stroke:black; stroke-linecap:round; stroke-width:0.25;"/>
<line x1="113.400000" y1="318.000000" x2="117.400000" y2="318.000000"  style="stroke:black; stroke-linecap:round; stroke-width:0.25;"/>
<line x1="117.400000" y1="130.000000" x2="127.400000" y2="130.000000"  style="stroke:black; stroke-linecap:round; stroke-width:0.25;"/>
<line x1="117.400000" y1="182.000000" x2="127.400000" y2="182.000000"  style="stroke:black; stroke-linecap:round; stroke-width:0.25;"/>
<line x1="117.400000" y1="266.000000" x2="127.400000" y2="266.000000"  style="stroke:black; stroke-linecap:round; stroke-width:0.25;"/>
<line x1="117.400000" y1="318.000000" x2="127.400000" y2="318.000000"  style="stroke:black; stroke-linecap:round; stroke-width:0.25;"/>
<line x1="127.400000" y1="130.000000" x2="182.800000" y2="130.000000"  style="stroke:black; stroke-linecap:round; stroke-width:0.25;"/>
<line x1="127.400000" y1="182.000000" x2="182.800000" y2="182.000000"  style="stroke:black; stroke-linecap:round; stroke-width:0.25;"/>
<line x1="127.400000" y1="266.000000" x2="182.800000" y2="266.000000"  style="stroke:black; stroke-linecap:round; stroke-width:0.25;"/>
<line x1="127.400000" y1="318.000000" x2="182.800000" y2="318.000000"  style="stroke:black; stroke-linecap:round; stroke-width:0.25;"/>
<line x1="133.400000" y1="402.000000" x2="137.400000" y2="402.000000"  style="stroke:black; stroke-linecap:round; stroke-width:0.25;"/>
<line x1="133.400000" y1="454.000000" x2="137.400000" y2="454.000000"  style="stroke:black; stroke-linecap:round; stroke-width:0.25;"/>
<line x1="137.400000" y1="402.000000" x2="147.400000" y2="402.000000"  style="stroke:black; stroke-linecap:round; stroke-width:0.25;"/>
<line x1="137.400000" y1="454.000000" x2="147.400000" y2="454.000000"  style="stroke:black; stroke-linecap:round; stroke-width:0.25;"/>
<line x1="147.400000" y1="402.000000" x2="202.800000" y2="402.000000"  style="stroke:black; stroke-linecap:round; stroke-width:0.25;"/>
<line x1="147.400000" y1="454.000000" x2="202.800000" y2="454.000000"  style="stroke:black; stroke-linecap:round; stroke-width:0.25;"/>
<line x1="178.800000" y1="224.000000" x2="182.800000" y2="224.000000"  style="stroke:black; stroke-linecap:round; stroke-width:0.25;"/>
<line x1="178.800000" y1="360.000000" x2="182.800000" y2="360.000000"  style="stroke:black; stroke-linecap:round; stroke-width:0.25;"/>
<line x1="182.800000" y1="130.000000" x2="198.800000" y2="130.000000"  style="stroke:black; stroke-linecap:round; stroke-width:0.25;"/>
<line x1="182.800000" y1="172.000000" x2="198.800000" y2="172.000000"  style="stroke:black; stroke-linecap:round; stroke-width:0.25;"/>
<line x1="182.800000" y1="182.000000" x2="182.800000" y2="172.000000"  style="stroke:black; stroke-linecap:round; stroke-width:0.25;"/>
<line x1="182.800000" y1="182.000000" x2="182.800000" y2="182.000000"  style="stroke:black; stroke-linecap:round; stroke-width:0.25;"/>
<line x1="182.800000" y1="224.000000" x2="190.800000" y2="224.000000"  style="stroke:black; stroke-linecap:round; stroke-width:0.25;"/>
<line x1="182.800000" y1="266.000000" x2="198.800000" y2="266.000000"  style="stroke:black; stroke-linecap:round; stroke-width:0.25;"/>
<line x1="182.800000" y1="308.000000" x2="198.800000" y2="308.000000"  style="stroke:black; stroke-linecap:round; stroke-width:0.25;"/>
<line x1="182.800000" y1="318.000000" x2="182.800000" y2="308.000000"  style="stroke:black; stroke-linecap:round; stroke-width:0.25;"/>
<line x1="182.800000" y1="318.000000" x2="182.800000" y2="318.000000"  style="stroke:black; stroke-linecap:round; stroke-width:0.25;"/>
<line x1="182.800000" y1="360.000000" x2="190.800000" y2="360.000000"  style="stroke:black; stroke-linecap:round; stroke-width:0.25;"/>
<line x1="184.750000" y1="36.000000" x2="188.750000" y2="36.000000"  style="stroke:black; stroke-linecap:round; stroke-width:0.25;"/>
<line x1="184.750000" y1="78.000000" x2="188.750000" y2="78.000000"  style="stroke:black; stroke-linecap:round; stroke-width:0.25;"/>
<line x1="188.750000" y1="36.000000" x2="325.500000" y2="36.000000"  style="stroke:black; stroke-linecap:round; stroke-width:0.25;"/>
<line x1="188.750000" y1="78.000000" x2="198.750000" y2="78.000000"  style="stroke:black; stroke-linecap:round; stroke-width:0.25;"/>
<line x1="190.800000" y1="180.000000" x2="198.800000" y2="180.000000"  style="stroke:black; stroke-linecap:round; stroke-width:0.25;"/>
<line x1="190.800000" y1="224.000000" x2="190.800000" y2="180.000000"  style="stroke:black; stroke-linecap:round; stroke-width:0.25;"/>
<line x1="190.800000" y1="316.000000" x2="198.800000" y2="316.000000"  style="stroke:black; stroke-linecap:round; stroke-width:0.25;"/>
<line x1="190.800000" y1="360.000000" x2="190.800000" y2="316.000000"  style="stroke:black; stroke-linecap:round; stroke-width:0.25;"/>
<line x1="198.750000" y1="78.000000" x2="325.500000" y2="78.000000"  style="stroke:black; stroke-linecap:round; stroke-width:0.25;"/>
<line x1="198.800000" y1="130.000000" x2="198.800000" y2="164.000000"  style="stroke:black; stroke-linecap:round; stroke-width:0.25;"/>
<line x1="198.800000" y1="164.000000" x2="198.800000" y2="164.000000"  style="stroke:black; stroke-linecap:round; stroke-width:0.25;"/>
<line x1="198.800000" y1="164.000000" x2="202.800000" y2="164.000000"  style="stroke:black; stroke-linecap:round; stroke-width:0.25;"/>
<line x1="198.800000" y1="172.000000" x2="202.800000" y2="172.000000"  style="stroke:black; stroke-linecap:round; stroke-width:0.25;"/>
<line x1="198.800000" y1="180.000000" x2="202.800000" y2="180.000000"  style="stroke:black; stroke-linecap:round; stroke-width:0.25;"/>
<line x1="198.800000" y1="266.000000" x2="198.800000" y2="300.000000"  style="stroke:black; stroke-linecap:round; stroke-width:0.25;"/>
<line x1="198.800000" y1="300.000000" x2="198.800000" y2="300.000000"  style="stroke:black; stroke-linecap:round; stroke-width:0.25;"/>
<line x1="198.800000" y1="300.000000" x2="202.800000" y2="300.000000"  style="stroke:black; stroke-linecap:round; stroke-width:0.25;"/>
<line x1="198.800000" y1="308.000000" x2="202.800000" y2="308.000000"  style="stroke:black; stroke-linecap:round; stroke-width:0.25;"/>
<line x1="198.800000" y1="316.000000" x2="202.800000" y2="316.000000"  style="stroke:black; stroke-linecap:round; stroke-width:0.25;"/>
<line x1="198.800000" y1="496.000000" x2="202.800000" y2="496.000000"  style="stroke:black; stroke-linecap:round; stroke-width:0.25;"/>
<line x1="202.800000" y1="402.000000" x2="218.800000" y2="402.000000"  style="stroke:black; stroke-linecap:round; stroke-width:0.25;"/>
<line x1="202.800000" y1="444.000000" x2="218.800000" y2="444.000000"  style="stroke:black; stroke-linecap:round; stroke-width:0.25;"/>
<line x1="202.800000" y1="454.000000" x2="202.800000" y2="444.000000"  style="stroke:black; stroke-linecap:round; stroke-width:0.25;"/>
<line x1="202.800000" y1="454.000000" x2="202.800000" y2="454.000000"  style="stroke:black; stroke-linecap:round; stroke-width:0.25;"/>
<line x1="202.800000" y1="496.000000" x2="210.800000" y2="496.000000"  style="stroke:black; stroke-linecap:round; stroke-width:0.25;"/>
<line x1="210.800000" y1="452.000000" x2="218.800000" y2="452.000000"  style="stroke:black; stroke-linecap:round; stroke-width:0.25;"/>
<line x1="210.800000" y1="496.000000" x2="210.800000" y2="452.000000"  style="stroke:black; stroke-linecap:round; stroke-width:0.25;"/>
<line x1="218.800000" y1="402.000000" x2="218.800000" y2="436.000000"  style="stroke:black; stroke-linecap:round; stroke-width:0.25;"/>
<line x1="218.800000" y1="436.000000" x2="218.800000" y2="436.000000"  style="stroke:black; stroke-linecap:round; stroke-width:0.25;"/>
<line x1="218.800000" y1="436.000000" x2="222.800000" y2="436.000000"  style="stroke:black; stroke-linecap:round; stroke-width:0.25;"/>
<line x1="218.800000" y1="444.000000" x2="222.800000" y2="444.000000"  style="stroke:black; stroke-linecap:round; stroke-width:0.25;"/>
<line x1="218.800000" y1="452.000000" x2="222.800000" y2="452.000000"  style="stroke:black; stroke-linecap:round; stroke-width:0.25;"/>
<line x1="241.500000" y1="172.000000" x2="245.500000" y2="172.000000"  style="stroke:black; stroke-linecap:round; stroke-width:0.25;"/>
<line x1="241.500000" y1="308.000000" x2="245.500000" y2="308.000000"  style="stroke:black; stroke-linecap:round; stroke-width:0.25;"/>
<line x1="245.500000" y1="172.000000" x2="253.500000" y2="172.000000"  style="stroke:black; stroke-linecap:round; stroke-width:0.25;"/>
<line x1="245.500000" y1="244.000000" x2="253.500000" y2="244.000000"  style="stroke:black; stroke-linecap:round; stroke-width:0.25;"/>
<line x1="245.500000" y1="308.000000" x2="245.500000" y2="244.000000"  style="stroke:black; stroke-linecap:round; stroke-width:0.25;"/>
<line x1="245.500000" y1="308.000000" x2="245.500000" y2="308.000000"  style="stroke:black; stroke-linecap:round; stroke-width:0.25;"/>
<line x1="253.500000" y1="172.000000" x2="253.500000" y2="236.000000"  style="stroke:black; stroke-linecap:round; stroke-width:0.25;"/>
<line x1="253.500000" y1="236.000000" x2="253.500000" y2="236.000000"  style="stroke:black; stroke-linecap:round; stroke-width:0.25;"/>
<line x1="253.500000" y1="236.000000" x2="257.500000" y2="236.000000"  style="stroke:black; stroke-linecap:round; stroke-width:0.25;"/>
<line x1="253.500000" y1="244.000000" x2="257.500000" y2="244.000000"  style="stroke:black; stroke-linecap:round; stroke-width:0.25;"/>
<line x1="261.500000" y1="444.000000" x2="265.500000" y2="444.000000"  style="stroke:black; stroke-linecap:round; stroke-width:0.25;"/>
<line x1="265.500000" y1="444.000000" x2="285.500000" y2="444.000000"  style="stroke:black; stroke-linecap:round; stroke-width:0.25;"/>
<line x1="281.500000" y1="240.000000" x2="285.500000" y2="240.000000"  style="stroke:black; stroke-linecap:round; stroke-width:0.25;"/>
<line x1="285.500000" y1="240.000000" x2="293.500000" y2="240.000000"  style="stroke:black; stroke-linecap:round; stroke-width:0.25;"/>
<line x1="285.500000" y1="312.000000" x2="293.500000" y2="312.000000"  style="stroke:black; stroke-linecap:round; stroke-width:0.25;"/>
<line x1="285.500000" y1="444.000000" x2="285.500000" y2="312.000000"  style="stroke:black; stroke-linecap:round; stroke-width:0.25;"/>
<line x1="285.500000" y1="444.000000" x2="285.500000" y2="444.000000"  style="stroke:black; stroke-linecap:round; stroke-width:0.25;"/>
<line x1="293.500000" y1="240.000000" x2="293.500000" y2="304.000000"  style="stroke:black; stroke-linecap:round; stroke-width:0.25;"/>
<line x1="293.500000" y1="304.000000" x2="293.500000" y2="304.000000"  style="stroke:black; stroke-linecap:round; stroke-width:0.25;"/>
<line x1="293.500000" y1="304.000000" x2="297.500000" y2="304.000000"  style="stroke:black; stroke-linecap:round; stroke-width:0.25;"/>
<line x1="293.500000" y1="312.000000" x2="297.500000" y2="312.000000"  style="stroke:black; stroke-linecap:round; stroke-width:0.25;"/>
<line x1="321.500000" y1="308.000000" x2="325.500000" y2="308.000000"  style="stroke:black; stroke-linecap:round; stroke-width:0.25;"/>
<line x1="325.500000" y1="36.000000" x2="341.500000" y2="36.000000"  style="stroke:black; stroke-linecap:round; stroke-width:0.25;"/>
<line x1="325.500000" y1="78.000000" x2="333.500000" y2="78.000000"  style="stroke:black; stroke-linecap:round; stroke-width:0.25;"/>
<line x1="325.500000" y1="274.000000" x2="341.500000" y2="274.000000"  style="stroke:black; stroke-linecap:round; stroke-width:0.25;"/>
<line x1="325.500000" y1="308.000000" x2="325.500000" y2="274.000000"  style="stroke:black; stroke-linecap:round; stroke-width:0.25;"/>
<line x1="325.500000" y1="308.000000" x2="325.500000" y2="308.000000"  style="stroke:black; stroke-linecap:round; stroke-width:0.25;"/>
<line x1="333.500000" y1="78.000000" x2="333.500000" y2="266.000000"  style="stroke:black; stroke-linecap:round; stroke-width:0.25;"/>
<line x1="333.500000" y1="266.000000" x2="341.500000" y2="266.000000"  style="stroke:black; stroke-linecap:round; stroke-width:0.25;"/>
<line x1="341.500000" y1="36.000000" x2="341.500000" y2="258.000000"  style="stroke:black; stroke-linecap:round; stroke-width:0.25;"/>
<line x1="341.500000" y1="258.000000" x2="341.500000" y2="258.000000"  style="stroke:black; stroke-linecap:round; stroke-width:0.25;"/>
<line x1="341.500000" y1="258.000000" x2="345.500000" y2="258.000000"  style="stroke:black; stroke-linecap:round; stroke-width:0.25;"/>
<line x1="341.500000" y1="266.000000" x2="345.500000" y2="266.000000"  style="stroke:black; stroke-linecap:round; stroke-width:0.25;"/>
<line x1="341.500000" y1="274.000000" x2="345.500000" y2="274.000000"  style="stroke:black; stroke-linecap:round; stroke-width:0.25;"/>
<line x1="384.200000" y1="266.000000" x2="388.200000" y2="266.000000"  style="stroke:black; stroke-linecap:round; stroke-width:0.25;"/>
<line x1="388.200000" y1="266.000000" x2="388.200000" y2="266.000000"  style="stroke:black; stroke-linecap:round; stroke-width:0.25;"/>
<line x1="388.200000" y1="266.000000" x2="392.200000" y2="266.000000"  style="stroke:black; stroke-linecap:round; stroke-width:0.25;"/>
<line x1="392.200000" y1="266.000000" x2="396.200000" y2="266.000000"  style="stroke:black; stroke-linecap:round; stroke-width:0.25;"/>
<line x1="396.200000" y1="266.000000" x2="406.200000" y2="266.000000"  style="stroke:black; stroke-linecap:round; stroke-width:0.25;"/>
</svg>
