<?xml version="1.0"?>
<svg xmlns="http://www.w3.org/2000/svg" xmlns:xlink="http://www.w3.org/1999/xlink" viewBox="0 0 364.600000 328.000000" width="182.300000mm" height="164.000000mm" version="1.1">
<a xlink:href="CZrestrap-0x3f4d180.svg">
<rect x="1.000000" y="1.000000" width="363.600000" height="327.000000" rx="0" ry="0" style="stroke:none;fill:#cccccc;"/>
<rect x="0.000000" y="0.000000" width="363.600000" height="327.000000" rx="0" ry="0" style="stroke:none;fill:#ffffff;"/>
</a>
<text x="10.000000" y="7.000000" font-family="Arial" font-size="7"></text>
<a xlink:href="fund-0x3f3b090.svg">
<rect x="41.900000" y="25.000000" width="154.800000" height="24.000000" rx="0" ry="0" style="stroke:none;fill:#cccccc;"/>
<rect x="40.900000" y="24.000000" width="154.800000" height="24.000000" rx="0" ry="0" style="stroke:none;fill:#003366;"/>
</a>
<a xlink:href="fund-0x3f3b090.svg">
<text x="118.300000" y="38.000000" font-family="Arial" font-size="7" text-anchor="middle" fill="#FFFFFF">fund(vgroup(&quot;..., lenv = {}])(0.25f)</text>
</a>
<circle cx="42.900000" cy="26.000000" r="1"/>
<a xlink:href="RES-0x3f4be20.svg">
<rect x="57.300000" y="71.000000" width="24.000000" height="24.000000" rx="0" ry="0" style="stroke:none;fill:#cccccc;"/>
<rect x="56.300000" y="70.000000" width="24.000000" height="24.000000" rx="0" ry="0" style="stroke:none;fill:#003366;"/>
</a>
<a xlink:href="RES-0x3f4be20.svg">
<text x="68.300000" y="84.000000" font-family="Arial" font-size="7" text-anchor="middle" fill="#FFFFFF">RES</text>
</a>
<circle cx="58.300000" cy="72.000000" r="1"/>
<rect x="107.300000" y="67.000000" width="24.000000" height="24.000000" rx="0" ry="0" style="stroke:none;fill:#cccccc;"/>
<rect x="106.300000" y="66.000000" width="24.000000" height="24.000000" rx="0" ry="0" style="stroke:none;fill:#f44800;"/>
<text x="118.300000" y="80.000000" font-family="Arial" font-size="7" text-anchor="middle" fill="#FFFFFF">1</text>
<circle cx="108.300000" cy="68.000000" r="1"/>
<line x1="97.300000" y1="57.000000" x2="97.300000" y2="99.000000"  style="stroke: black; stroke-linecap:round; stroke-width:0.25; stroke-dasharray:3,3;"/>
<line x1="97.300000" y1="99.000000" x2="139.300000" y2="99.000000"  style="stroke: black; stroke-linecap:round; stroke-width:0.25; stroke-dasharray:3,3;"/>
<line x1="139.300000" y1="99.000000" x2="139.300000" y2="57.000000"  style="stroke: black; stroke-linecap:round; stroke-width:0.25; stroke-dasharray:3,3;"/>
<line x1="97.300000" y1="57.000000" x2="102.300000" y2="57.000000"  style="stroke: black; stroke-linecap:round; stroke-width:0.25; stroke-dasharray:3,3;"/>
<line x1="139.300000" y1="57.000000" x2="139.300000" y2="57.000000"  style="stroke: black; stroke-linecap:round; stroke-width:0.25; stroke-dasharray:3,3;"/>
<text x="102.300000" y="59.000000" font-family="Arial" font-size="7">facs2(4)(((4,...nt) : -) : +)(4)</text>
<rect x="157.300000" y="71.000000" width="24.000000" height="24.000000" rx="0" ry="0" style="stroke:none;fill:#cccccc;"/>
<rect x="156.300000" y="70.000000" width="24.000000" height="24.000000" rx="0" ry="0" style="stroke:none;fill:#4B71A1;"/>
<text x="168.300000" y="84.000000" font-family="Arial" font-size="7" text-anchor="middle" fill="#FFFFFF">max</text>
<circle cx="158.300000" cy="72.000000" r="1"/>
<line x1="153.300000" y1="77.000000" x2="156.300000" y2="78.000000"  transform="rotate(0.000000,156.300000,78.000000)" style="stroke: black; stroke-width:0.25;"/>
<line x1="153.300000" y1="79.000000" x2="156.300000" y2="78.000000"  transform="rotate(0.000000,156.300000,78.000000)" style="stroke: black; stroke-width:0.25;"/>
<line x1="153.300000" y1="85.000000" x2="156.300000" y2="86.000000"  transform="rotate(0.000000,156.300000,86.000000)" style="stroke: black; stroke-width:0.25;"/>
<line x1="153.300000" y1="87.000000" x2="156.300000" y2="86.000000"  transform="rotate(0.000000,156.300000,86.000000)" style="stroke: black; stroke-width:0.25;"/>
<rect x="212.700000" y="55.000000" width="24.000000" height="24.000000" rx="0" ry="0" style="stroke:none;fill:#cccccc;"/>
<rect x="211.700000" y="54.000000" width="24.000000" height="24.000000" rx="0" ry="0" style="stroke:none;fill:#4B71A1;"/>
<text x="223.700000" y="68.000000" font-family="Arial" font-size="7" text-anchor="middle" fill="#FFFFFF">*</text>
<circle cx="213.700000" cy="56.000000" r="1"/>
<line x1="208.700000" y1="61.000000" x2="211.700000" y2="62.000000"  transform="rotate(0.000000,211.700000,62.000000)" style="stroke: black; stroke-width:0.25;"/>
<line x1="208.700000" y1="63.000000" x2="211.700000" y2="62.000000"  transform="rotate(0.000000,211.700000,62.000000)" style="stroke: black; stroke-width:0.25;"/>
<line x1="208.700000" y1="69.000000" x2="211.700000" y2="70.000000"  transform="rotate(0.000000,211.700000,70.000000)" style="stroke: black; stroke-width:0.25;"/>
<line x1="208.700000" y1="71.000000" x2="211.700000" y2="70.000000"  transform="rotate(0.000000,211.700000,70.000000)" style="stroke: black; stroke-width:0.25;"/>
<rect x="127.300000" y="127.000000" width="24.000000" height="24.000000" rx="0" ry="0" style="stroke:none;fill:#cccccc;"/>
<rect x="126.300000" y="126.000000" width="24.000000" height="24.000000" rx="0" ry="0" style="stroke:none;fill:#f44800;"/>
<text x="138.300000" y="140.000000" font-family="Arial" font-size="7" text-anchor="middle" fill="#FFFFFF">1</text>
<circle cx="128.300000" cy="128.000000" r="1"/>
<line x1="117.300000" y1="117.000000" x2="117.300000" y2="159.000000"  style="stroke: black; stroke-linecap:round; stroke-width:0.25; stroke-dasharray:3,3;"/>
<line x1="117.300000" y1="159.000000" x2="159.300000" y2="159.000000"  style="stroke: black; stroke-linecap:round; stroke-width:0.25; stroke-dasharray:3,3;"/>
<line x1="159.300000" y1="159.000000" x2="159.300000" y2="117.000000"  style="stroke: black; stroke-linecap:round; stroke-width:0.25; stroke-dasharray:3,3;"/>
<line x1="117.300000" y1="117.000000" x2="122.300000" y2="117.000000"  style="stroke: black; stroke-linecap:round; stroke-width:0.25; stroke-dasharray:3,3;"/>
<line x1="159.300000" y1="117.000000" x2="159.300000" y2="117.000000"  style="stroke: black; stroke-linecap:round; stroke-width:0.25; stroke-dasharray:3,3;"/>
<text x="122.300000" y="119.000000" font-family="Arial" font-size="7">facs2(4)(((4,...nt) : -) : +)(4)</text>
<rect x="252.700000" y="81.000000" width="24.000000" height="24.000000" rx="0" ry="0" style="stroke:none;fill:#cccccc;"/>
<rect x="251.700000" y="80.000000" width="24.000000" height="24.000000" rx="0" ry="0" style="stroke:none;fill:#4B71A1;"/>
<text x="263.700000" y="94.000000" font-family="Arial" font-size="7" text-anchor="middle" fill="#FFFFFF">+</text>
<circle cx="253.700000" cy="82.000000" r="1"/>
<line x1="248.700000" y1="87.000000" x2="251.700000" y2="88.000000"  transform="rotate(0.000000,251.700000,88.000000)" style="stroke: black; stroke-width:0.25;"/>
<line x1="248.700000" y1="89.000000" x2="251.700000" y2="88.000000"  transform="rotate(0.000000,251.700000,88.000000)" style="stroke: black; stroke-width:0.25;"/>
<line x1="248.700000" y1="95.000000" x2="251.700000" y2="96.000000"  transform="rotate(0.000000,251.700000,96.000000)" style="stroke: black; stroke-width:0.25;"/>
<line x1="248.700000" y1="97.000000" x2="251.700000" y2="96.000000"  transform="rotate(0.000000,251.700000,96.000000)" style="stroke: black; stroke-width:0.25;"/>
<a xlink:href="fund-0x3f3b090.svg">
<rect x="25.000000" y="169.000000" width="154.800000" height="24.000000" rx="0" ry="0" style="stroke:none;fill:#cccccc;"/>
<rect x="24.000000" y="168.000000" width="154.800000" height="24.000000" rx="0" ry="0" style="stroke:none;fill:#003366;"/>
</a>
<a xlink:href="fund-0x3f3b090.svg">
<text x="101.400000" y="182.000000" font-family="Arial" font-size="7" text-anchor="middle" fill="#FFFFFF">fund(vgroup(&quot;..., lenv = {}])(0.25f)</text>
</a>
<circle cx="26.000000" cy="170.000000" r="1"/>
<a xlink:href="RES-0x3f4be20.svg">
<rect x="40.400000" y="215.000000" width="24.000000" height="24.000000" rx="0" ry="0" style="stroke:none;fill:#cccccc;"/>
<rect x="39.400000" y="214.000000" width="24.000000" height="24.000000" rx="0" ry="0" style="stroke:none;fill:#003366;"/>
</a>
<a xlink:href="RES-0x3f4be20.svg">
<text x="51.400000" y="228.000000" font-family="Arial" font-size="7" text-anchor="middle" fill="#FFFFFF">RES</text>
</a>
<circle cx="41.400000" cy="216.000000" r="1"/>
<rect x="90.400000" y="211.000000" width="24.000000" height="24.000000" rx="0" ry="0" style="stroke:none;fill:#cccccc;"/>
<rect x="89.400000" y="210.000000" width="24.000000" height="24.000000" rx="0" ry="0" style="stroke:none;fill:#f44800;"/>
<text x="101.400000" y="224.000000" font-family="Arial" font-size="7" text-anchor="middle" fill="#FFFFFF">1</text>
<circle cx="91.400000" cy="212.000000" r="1"/>
<line x1="80.400000" y1="201.000000" x2="80.400000" y2="243.000000"  style="stroke: black; stroke-linecap:round; stroke-width:0.25; stroke-dasharray:3,3;"/>
<line x1="80.400000" y1="243.000000" x2="122.400000" y2="243.000000"  style="stroke: black; stroke-linecap:round; stroke-width:0.25; stroke-dasharray:3,3;"/>
<line x1="122.400000" y1="243.000000" x2="122.400000" y2="201.000000"  style="stroke: black; stroke-linecap:round; stroke-width:0.25; stroke-dasharray:3,3;"/>
<line x1="80.400000" y1="201.000000" x2="85.400000" y2="201.000000"  style="stroke: black; stroke-linecap:round; stroke-width:0.25; stroke-dasharray:3,3;"/>
<line x1="122.400000" y1="201.000000" x2="122.400000" y2="201.000000"  style="stroke: black; stroke-linecap:round; stroke-width:0.25; stroke-dasharray:3,3;"/>
<text x="85.400000" y="203.000000" font-family="Arial" font-size="7">facs2(4)(((4,...nt) : -) : +)(4)</text>
<rect x="140.400000" y="215.000000" width="24.000000" height="24.000000" rx="0" ry="0" style="stroke:none;fill:#cccccc;"/>
<rect x="139.400000" y="214.000000" width="24.000000" height="24.000000" rx="0" ry="0" style="stroke:none;fill:#4B71A1;"/>
<text x="151.400000" y="228.000000" font-family="Arial" font-size="7" text-anchor="middle" fill="#FFFFFF">max</text>
<circle cx="141.400000" cy="216.000000" r="1"/>
<line x1="136.400000" y1="221.000000" x2="139.400000" y2="222.000000"  transform="rotate(0.000000,139.400000,222.000000)" style="stroke: black; stroke-width:0.25;"/>
<line x1="136.400000" y1="223.000000" x2="139.400000" y2="222.000000"  transform="rotate(0.000000,139.400000,222.000000)" style="stroke: black; stroke-width:0.25;"/>
<line x1="136.400000" y1="229.000000" x2="139.400000" y2="230.000000"  transform="rotate(0.000000,139.400000,230.000000)" style="stroke: black; stroke-width:0.25;"/>
<line x1="136.400000" y1="231.000000" x2="139.400000" y2="230.000000"  transform="rotate(0.000000,139.400000,230.000000)" style="stroke: black; stroke-width:0.25;"/>
<rect x="195.800000" y="199.000000" width="24.000000" height="24.000000" rx="0" ry="0" style="stroke:none;fill:#cccccc;"/>
<rect x="194.800000" y="198.000000" width="24.000000" height="24.000000" rx="0" ry="0" style="stroke:none;fill:#4B71A1;"/>
<text x="206.800000" y="212.000000" font-family="Arial" font-size="7" text-anchor="middle" fill="#FFFFFF">*</text>
<circle cx="196.800000" cy="200.000000" r="1"/>
<line x1="191.800000" y1="205.000000" x2="194.800000" y2="206.000000"  transform="rotate(0.000000,194.800000,206.000000)" style="stroke: black; stroke-width:0.25;"/>
<line x1="191.800000" y1="207.000000" x2="194.800000" y2="206.000000"  transform="rotate(0.000000,194.800000,206.000000)" style="stroke: black; stroke-width:0.25;"/>
<line x1="191.800000" y1="213.000000" x2="194.800000" y2="214.000000"  transform="rotate(0.000000,194.800000,214.000000)" style="stroke: black; stroke-width:0.25;"/>
<line x1="191.800000" y1="215.000000" x2="194.800000" y2="214.000000"  transform="rotate(0.000000,194.800000,214.000000)" style="stroke: black; stroke-width:0.25;"/>
<rect x="110.400000" y="271.000000" width="24.000000" height="24.000000" rx="0" ry="0" style="stroke:none;fill:#cccccc;"/>
<rect x="109.400000" y="270.000000" width="24.000000" height="24.000000" rx="0" ry="0" style="stroke:none;fill:#f44800;"/>
<text x="121.400000" y="284.000000" font-family="Arial" font-size="7" text-anchor="middle" fill="#FFFFFF">1</text>
<circle cx="111.400000" cy="272.000000" r="1"/>
<line x1="100.400000" y1="261.000000" x2="100.400000" y2="303.000000"  style="stroke: black; stroke-linecap:round; stroke-width:0.25; stroke-dasharray:3,3;"/>
<line x1="100.400000" y1="303.000000" x2="142.400000" y2="303.000000"  style="stroke: black; stroke-linecap:round; stroke-width:0.25; stroke-dasharray:3,3;"/>
<line x1="142.400000" y1="303.000000" x2="142.400000" y2="261.000000"  style="stroke: black; stroke-linecap:round; stroke-width:0.25; stroke-dasharray:3,3;"/>
<line x1="100.400000" y1="261.000000" x2="105.400000" y2="261.000000"  style="stroke: black; stroke-linecap:round; stroke-width:0.25; stroke-dasharray:3,3;"/>
<line x1="142.400000" y1="261.000000" x2="142.400000" y2="261.000000"  style="stroke: black; stroke-linecap:round; stroke-width:0.25; stroke-dasharray:3,3;"/>
<text x="105.400000" y="263.000000" font-family="Arial" font-size="7">facs2(4)(((4,...nt) : -) : +)(4)</text>
<rect x="235.800000" y="225.000000" width="24.000000" height="24.000000" rx="0" ry="0" style="stroke:none;fill:#cccccc;"/>
<rect x="234.800000" y="224.000000" width="24.000000" height="24.000000" rx="0" ry="0" style="stroke:none;fill:#4B71A1;"/>
<text x="246.800000" y="238.000000" font-family="Arial" font-size="7" text-anchor="middle" fill="#FFFFFF">+</text>
<circle cx="236.800000" cy="226.000000" r="1"/>
<line x1="231.800000" y1="231.000000" x2="234.800000" y2="232.000000"  transform="rotate(0.000000,234.800000,232.000000)" style="stroke: black; stroke-width:0.25;"/>
<line x1="231.800000" y1="233.000000" x2="234.800000" y2="232.000000"  transform="rotate(0.000000,234.800000,232.000000)" style="stroke: black; stroke-width:0.25;"/>
<line x1="231.800000" y1="239.000000" x2="234.800000" y2="240.000000"  transform="rotate(0.000000,234.800000,240.000000)" style="stroke: black; stroke-width:0.25;"/>
<line x1="231.800000" y1="241.000000" x2="234.800000" y2="240.000000"  transform="rotate(0.000000,234.800000,240.000000)" style="stroke: black; stroke-width:0.25;"/>
<rect x="267.800000" y="225.000000" width="25.800000" height="24.000000" rx="0" ry="0" style="stroke:none;fill:#cccccc;"/>
<rect x="266.800000" y="224.000000" width="25.800000" height="24.000000" rx="0" ry="0" style="stroke:none;fill:#4B71A1;"/>
<text x="279.700000" y="238.000000" font-family="Arial" font-size="7" text-anchor="middle" fill="#FFFFFF">floor</text>
<circle cx="268.800000" cy="226.000000" r="1"/>
<line x1="263.800000" y1="235.000000" x2="266.800000" y2="236.000000"  transform="rotate(0.000000,266.800000,236.000000)" style="stroke: black; stroke-width:0.25;"/>
<line x1="263.800000" y1="237.000000" x2="266.800000" y2="236.000000"  transform="rotate(0.000000,266.800000,236.000000)" style="stroke: black; stroke-width:0.25;"/>
<rect x="309.600000" y="153.000000" width="24.000000" height="24.000000" rx="0" ry="0" style="stroke:none;fill:#cccccc;"/>
<rect x="308.600000" y="152.000000" width="24.000000" height="24.000000" rx="0" ry="0" style="stroke:none;fill:#4B71A1;"/>
<text x="320.600000" y="166.000000" font-family="Arial" font-size="7" text-anchor="middle" fill="#FFFFFF">-</text>
<circle cx="310.600000" cy="154.000000" r="1"/>
<line x1="305.600000" y1="159.000000" x2="308.600000" y2="160.000000"  transform="rotate(0.000000,308.600000,160.000000)" style="stroke: black; stroke-width:0.25;"/>
<line x1="305.600000" y1="161.000000" x2="308.600000" y2="160.000000"  transform="rotate(0.000000,308.600000,160.000000)" style="stroke: black; stroke-width:0.25;"/>
<line x1="305.600000" y1="167.000000" x2="308.600000" y2="168.000000"  transform="rotate(0.000000,308.600000,168.000000)" style="stroke: black; stroke-width:0.25;"/>
<line x1="305.600000" y1="169.000000" x2="308.600000" y2="168.000000"  transform="rotate(0.000000,308.600000,168.000000)" style="stroke: black; stroke-width:0.25;"/>
<line x1="15.000000" y1="15.000000" x2="15.000000" y2="313.000000"  style="stroke: black; stroke-linecap:round; stroke-width:0.25; stroke-dasharray:3,3;"/>
<line x1="15.000000" y1="313.000000" x2="349.600000" y2="313.000000"  style="stroke: black; stroke-linecap:round; stroke-width:0.25; stroke-dasharray:3,3;"/>
<line x1="349.600000" y1="313.000000" x2="349.600000" y2="15.000000"  style="stroke: black; stroke-linecap:round; stroke-width:0.25; stroke-dasharray:3,3;"/>
<line x1="15.000000" y1="15.000000" x2="20.000000" y2="15.000000"  style="stroke: black; stroke-linecap:round; stroke-width:0.25; stroke-dasharray:3,3;"/>
<line x1="119.975000" y1="15.000000" x2="349.600000" y2="15.000000"  style="stroke: black; stroke-linecap:round; stroke-width:0.25; stroke-dasharray:3,3;"/>
<text x="20.000000" y="17.000000" font-family="Arial" font-size="7">fracPart((((4...) : *),1 : +)</text>
<line x1="351.600000" y1="163.000000" x2="354.600000" y2="164.000000"  transform="rotate(0.000000,354.600000,164.000000)" style="stroke: black; stroke-width:0.25;"/>
<line x1="351.600000" y1="165.000000" x2="354.600000" y2="164.000000"  transform="rotate(0.000000,354.600000,164.000000)" style="stroke: black; stroke-width:0.25;"/>
<line x1="63.400000" y1="226.000000" x2="67.400000" y2="226.000000"  style="stroke:black; stroke-linecap:round; stroke-width:0.25;"/>
<line x1="67.400000" y1="226.000000" x2="75.400000" y2="226.000000"  style="stroke:black; stroke-linecap:round; stroke-width:0.25;"/>
<line x1="75.400000" y1="226.000000" x2="75.400000" y2="252.000000"  style="stroke:black; stroke-linecap:round; stroke-width:0.25;"/>
<line x1="75.400000" y1="252.000000" x2="75.400000" y2="252.000000"  style="stroke:black; stroke-linecap:round; stroke-width:0.25;"/>
<line x1="75.400000" y1="252.000000" x2="101.400000" y2="252.000000"  style="stroke:black; stroke-linecap:round; stroke-width:0.25;"/>
<line x1="80.300000" y1="82.000000" x2="84.300000" y2="82.000000"  style="stroke:black; stroke-linecap:round; stroke-width:0.25;"/>
<line x1="84.300000" y1="82.000000" x2="92.300000" y2="82.000000"  style="stroke:black; stroke-linecap:round; stroke-width:0.25;"/>
<line x1="92.300000" y1="82.000000" x2="92.300000" y2="108.000000"  style="stroke:black; stroke-linecap:round; stroke-width:0.25;"/>
<line x1="92.300000" y1="108.000000" x2="92.300000" y2="108.000000"  style="stroke:black; stroke-linecap:round; stroke-width:0.25;"/>
<line x1="92.300000" y1="108.000000" x2="118.300000" y2="108.000000"  style="stroke:black; stroke-linecap:round; stroke-width:0.25;"/>
<line x1="101.400000" y1="252.000000" x2="127.400000" y2="252.000000"  style="stroke:black; stroke-linecap:round; stroke-width:0.25;"/>
<line x1="113.400000" y1="222.000000" x2="117.400000" y2="222.000000"  style="stroke:black; stroke-linecap:round; stroke-width:0.25;"/>
<line x1="117.400000" y1="222.000000" x2="127.400000" y2="222.000000"  style="stroke:black; stroke-linecap:round; stroke-width:0.25;"/>
<line x1="118.300000" y1="108.000000" x2="144.300000" y2="108.000000"  style="stroke:black; stroke-linecap:round; stroke-width:0.25;"/>
<line x1="127.400000" y1="222.000000" x2="135.400000" y2="222.000000"  style="stroke:black; stroke-linecap:round; stroke-width:0.25;"/>
<line x1="127.400000" y1="230.000000" x2="135.400000" y2="230.000000"  style="stroke:black; stroke-linecap:round; stroke-width:0.25;"/>
<line x1="127.400000" y1="252.000000" x2="127.400000" y2="230.000000"  style="stroke:black; stroke-linecap:round; stroke-width:0.25;"/>
<line x1="127.400000" y1="252.000000" x2="127.400000" y2="252.000000"  style="stroke:black; stroke-linecap:round; stroke-width:0.25;"/>
<line x1="130.300000" y1="78.000000" x2="134.300000" y2="78.000000"  style="stroke:black; stroke-linecap:round; stroke-width:0.25;"/>
<line x1="133.400000" y1="282.000000" x2="137.400000" y2="282.000000"  style="stroke:black; stroke-linecap:round; stroke-width:0.25;"/>
<line x1="134.300000" y1="78.000000" x2="144.300000" y2="78.000000"  style="stroke:black; stroke-linecap:round; stroke-width:0.25;"/>
<line x1="135.400000" y1="222.000000" x2="139.400000" y2="222.000000"  style="stroke:black; stroke-linecap:round; stroke-width:0.25;"/>
<line x1="135.400000" y1="230.000000" x2="139.400000" y2="230.000000"  style="stroke:black; stroke-linecap:round; stroke-width:0.25;"/>
<line x1="137.400000" y1="282.000000" x2="147.400000" y2="282.000000"  style="stroke:black; stroke-linecap:round; stroke-width:0.25;"/>
<line x1="144.300000" y1="78.000000" x2="152.300000" y2="78.000000"  style="stroke:black; stroke-linecap:round; stroke-width:0.25;"/>
<line x1="144.300000" y1="86.000000" x2="152.300000" y2="86.000000"  style="stroke:black; stroke-linecap:round; stroke-width:0.25;"/>
<line x1="144.300000" y1="108.000000" x2="144.300000" y2="86.000000"  style="stroke:black; stroke-linecap:round; stroke-width:0.25;"/>
<line x1="144.300000" y1="108.000000" x2="144.300000" y2="108.000000"  style="stroke:black; stroke-linecap:round; stroke-width:0.25;"/>
<line x1="147.400000" y1="282.000000" x2="222.800000" y2="282.000000"  style="stroke:black; stroke-linecap:round; stroke-width:0.25;"/>
<line x1="150.300000" y1="138.000000" x2="154.300000" y2="138.000000"  style="stroke:black; stroke-linecap:round; stroke-width:0.25;"/>
<line x1="152.300000" y1="78.000000" x2="156.300000" y2="78.000000"  style="stroke:black; stroke-linecap:round; stroke-width:0.25;"/>
<line x1="152.300000" y1="86.000000" x2="156.300000" y2="86.000000"  style="stroke:black; stroke-linecap:round; stroke-width:0.25;"/>
<line x1="154.300000" y1="138.000000" x2="164.300000" y2="138.000000"  style="stroke:black; stroke-linecap:round; stroke-width:0.25;"/>
<line x1="163.400000" y1="226.000000" x2="167.400000" y2="226.000000"  style="stroke:black; stroke-linecap:round; stroke-width:0.25;"/>
<line x1="164.300000" y1="138.000000" x2="239.700000" y2="138.000000"  style="stroke:black; stroke-linecap:round; stroke-width:0.25;"/>
<line x1="167.400000" y1="226.000000" x2="182.800000" y2="226.000000"  style="stroke:black; stroke-linecap:round; stroke-width:0.25;"/>
<line x1="178.800000" y1="180.000000" x2="182.800000" y2="180.000000"  style="stroke:black; stroke-linecap:round; stroke-width:0.25;"/>
<line x1="180.300000" y1="82.000000" x2="184.300000" y2="82.000000"  style="stroke:black; stroke-linecap:round; stroke-width:0.25;"/>
<line x1="182.800000" y1="214.000000" x2="190.800000" y2="214.000000"  style="stroke:black; stroke-linecap:round; stroke-width:0.25;"/>
<line x1="182.800000" y1="226.000000" x2="182.800000" y2="214.000000"  style="stroke:black; stroke-linecap:round; stroke-width:0.25;"/>
<line x1="182.800000" y1="226.000000" x2="182.800000" y2="226.000000"  style="stroke:black; stroke-linecap:round; stroke-width:0.25;"/>
<line x1="182.800000" y1="180.000000" x2="190.800000" y2="180.000000"  style="stroke:black; stroke-linecap:round; stroke-width:0.25;"/>
<line x1="184.300000" y1="82.000000" x2="199.700000" y2="82.000000"  style="stroke:black; stroke-linecap:round; stroke-width:0.25;"/>
<line x1="190.800000" y1="180.000000" x2="190.800000" y2="206.000000"  style="stroke:black; stroke-linecap:round; stroke-width:0.25;"/>
<line x1="190.800000" y1="206.000000" x2="190.800000" y2="206.000000"  style="stroke:black; stroke-linecap:round; stroke-width:0.25;"/>
<line x1="190.800000" y1="206.000000" x2="194.800000" y2="206.000000"  style="stroke:black; stroke-linecap:round; stroke-width:0.25;"/>
<line x1="190.800000" y1="214.000000" x2="194.800000" y2="214.000000"  style="stroke:black; stroke-linecap:round; stroke-width:0.25;"/>
<line x1="195.700000" y1="36.000000" x2="199.700000" y2="36.000000"  style="stroke:black; stroke-linecap:round; stroke-width:0.25;"/>
<line x1="199.700000" y1="36.000000" x2="207.700000" y2="36.000000"  style="stroke:black; stroke-linecap:round; stroke-width:0.25;"/>
<line x1="199.700000" y1="70.000000" x2="207.700000" y2="70.000000"  style="stroke:black; stroke-linecap:round; stroke-width:0.25;"/>
<line x1="199.700000" y1="82.000000" x2="199.700000" y2="70.000000"  style="stroke:black; stroke-linecap:round; stroke-width:0.25;"/>
<line x1="199.700000" y1="82.000000" x2="199.700000" y2="82.000000"  style="stroke:black; stroke-linecap:round; stroke-width:0.25;"/>
<line x1="207.700000" y1="36.000000" x2="207.700000" y2="62.000000"  style="stroke:black; stroke-linecap:round; stroke-width:0.25;"/>
<line x1="207.700000" y1="62.000000" x2="207.700000" y2="62.000000"  style="stroke:black; stroke-linecap:round; stroke-width:0.25;"/>
<line x1="207.700000" y1="62.000000" x2="211.700000" y2="62.000000"  style="stroke:black; stroke-linecap:round; stroke-width:0.25;"/>
<line x1="207.700000" y1="70.000000" x2="211.700000" y2="70.000000"  style="stroke:black; stroke-linecap:round; stroke-width:0.25;"/>
<line x1="218.800000" y1="210.000000" x2="222.800000" y2="210.000000"  style="stroke:black; stroke-linecap:round; stroke-width:0.25;"/>
<line x1="222.800000" y1="240.000000" x2="230.800000" y2="240.000000"  style="stroke:black; stroke-linecap:round; stroke-width:0.25;"/>
<line x1="222.800000" y1="282.000000" x2="222.800000" y2="240.000000"  style="stroke:black; stroke-linecap:round; stroke-width:0.25;"/>
<line x1="222.800000" y1="282.000000" x2="222.800000" y2="282.000000"  style="stroke:black; stroke-linecap:round; stroke-width:0.25;"/>
<line x1="222.800000" y1="210.000000" x2="230.800000" y2="210.000000"  style="stroke:black; stroke-linecap:round; stroke-width:0.25;"/>
<line x1="230.800000" y1="210.000000" x2="230.800000" y2="232.000000"  style="stroke:black; stroke-linecap:round; stroke-width:0.25;"/>
<line x1="230.800000" y1="232.000000" x2="230.800000" y2="232.000000"  style="stroke:black; stroke-linecap:round; stroke-width:0.25;"/>
<line x1="230.800000" y1="232.000000" x2="234.800000" y2="232.000000"  style="stroke:black; stroke-linecap:round; stroke-width:0.25;"/>
<line x1="230.800000" y1="240.000000" x2="234.800000" y2="240.000000"  style="stroke:black; stroke-linecap:round; stroke-width:0.25;"/>
<line x1="235.700000" y1="66.000000" x2="239.700000" y2="66.000000"  style="stroke:black; stroke-linecap:round; stroke-width:0.25;"/>
<line x1="239.700000" y1="66.000000" x2="247.700000" y2="66.000000"  style="stroke:black; stroke-linecap:round; stroke-width:0.25;"/>
<line x1="239.700000" y1="96.000000" x2="247.700000" y2="96.000000"  style="stroke:black; stroke-linecap:round; stroke-width:0.25;"/>
<line x1="239.700000" y1="138.000000" x2="239.700000" y2="96.000000"  style="stroke:black; stroke-linecap:round; stroke-width:0.25;"/>
<line x1="239.700000" y1="138.000000" x2="239.700000" y2="138.000000"  style="stroke:black; stroke-linecap:round; stroke-width:0.25;"/>
<line x1="247.700000" y1="66.000000" x2="247.700000" y2="88.000000"  style="stroke:black; stroke-linecap:round; stroke-width:0.25;"/>
<line x1="247.700000" y1="88.000000" x2="247.700000" y2="88.000000"  style="stroke:black; stroke-linecap:round; stroke-width:0.25;"/>
<line x1="247.700000" y1="88.000000" x2="251.700000" y2="88.000000"  style="stroke:black; stroke-linecap:round; stroke-width:0.25;"/>
<line x1="247.700000" y1="96.000000" x2="251.700000" y2="96.000000"  style="stroke:black; stroke-linecap:round; stroke-width:0.25;"/>
<line x1="258.800000" y1="236.000000" x2="262.800000" y2="236.000000"  style="stroke:black; stroke-linecap:round; stroke-width:0.25;"/>
<line x1="262.800000" y1="236.000000" x2="262.800000" y2="236.000000"  style="stroke:black; stroke-linecap:round; stroke-width:0.25;"/>
<line x1="262.800000" y1="236.000000" x2="266.800000" y2="236.000000"  style="stroke:black; stroke-linecap:round; stroke-width:0.25;"/>
<line x1="275.700000" y1="92.000000" x2="279.700000" y2="92.000000"  style="stroke:black; stroke-linecap:round; stroke-width:0.25;"/>
<line x1="279.700000" y1="92.000000" x2="296.600000" y2="92.000000"  style="stroke:black; stroke-linecap:round; stroke-width:0.25;"/>
<line x1="292.600000" y1="236.000000" x2="296.600000" y2="236.000000"  style="stroke:black; stroke-linecap:round; stroke-width:0.25;"/>
<line x1="296.600000" y1="92.000000" x2="304.600000" y2="92.000000"  style="stroke:black; stroke-linecap:round; stroke-width:0.25;"/>
<line x1="296.600000" y1="168.000000" x2="304.600000" y2="168.000000"  style="stroke:black; stroke-linecap:round; stroke-width:0.25;"/>
<line x1="296.600000" y1="236.000000" x2="296.600000" y2="168.000000"  style="stroke:black; stroke-linecap:round; stroke-width:0.25;"/>
<line x1="296.600000" y1="236.000000" x2="296.600000" y2="236.000000"  style="stroke:black; stroke-linecap:round; stroke-width:0.25;"/>
<line x1="304.600000" y1="92.000000" x2="304.600000" y2="160.000000"  style="stroke:black; stroke-linecap:round; stroke-width:0.25;"/>
<line x1="304.600000" y1="160.000000" x2="304.600000" y2="160.000000"  style="stroke:black; stroke-linecap:round; stroke-width:0.25;"/>
<line x1="304.600000" y1="160.000000" x2="308.600000" y2="160.000000"  style="stroke:black; stroke-linecap:round; stroke-width:0.25;"/>
<line x1="304.600000" y1="168.000000" x2="308.600000" y2="168.000000"  style="stroke:black; stroke-linecap:round; stroke-width:0.25;"/>
<line x1="332.600000" y1="164.000000" x2="336.600000" y2="164.000000"  style="stroke:black; stroke-linecap:round; stroke-width:0.25;"/>
<line x1="336.600000" y1="164.000000" x2="336.600000" y2="164.000000"  style="stroke:black; stroke-linecap:round; stroke-width:0.25;"/>
<line x1="336.600000" y1="164.000000" x2="340.600000" y2="164.000000"  style="stroke:black; stroke-linecap:round; stroke-width:0.25;"/>
<line x1="340.600000" y1="164.000000" x2="344.600000" y2="164.000000"  style="stroke:black; stroke-linecap:round; stroke-width:0.25;"/>
<line x1="344.600000" y1="164.000000" x2="354.600000" y2="164.000000"  style="stroke:black; stroke-linecap:round; stroke-width:0.25;"/>
</svg>
