<?xml version="1.0"?>
<svg xmlns="http://www.w3.org/2000/svg" xmlns:xlink="http://www.w3.org/1999/xlink" viewBox="0 0 364.600000 272.000000" width="182.300000mm" height="136.000000mm" version="1.1">
<a xlink:href="CZsquare-0x3f673d0.svg">
<rect x="1.000000" y="1.000000" width="363.600000" height="271.000000" rx="0" ry="0" style="stroke:none;fill:#cccccc;"/>
<rect x="0.000000" y="0.000000" width="363.600000" height="271.000000" rx="0" ry="0" style="stroke:none;fill:#ffffff;"/>
</a>
<text x="10.000000" y="7.000000" font-family="Arial" font-size="7"></text>
<a xlink:href="fund-0x3f65a70.svg">
<rect x="41.900000" y="25.000000" width="154.800000" height="24.000000" rx="0" ry="0" style="stroke:none;fill:#cccccc;"/>
<rect x="40.900000" y="24.000000" width="154.800000" height="24.000000" rx="0" ry="0" style="stroke:none;fill:#003366;"/>
</a>
<a xlink:href="fund-0x3f65a70.svg">
<text x="118.300000" y="38.000000" font-family="Arial" font-size="7" text-anchor="middle" fill="#FFFFFF">fund(vgroup(&quot;..., lenv = {}])(0.5f)</text>
</a>
<circle cx="42.900000" cy="26.000000" r="1"/>
<rect x="107.300000" y="57.000000" width="24.000000" height="24.000000" rx="0" ry="0" style="stroke:none;fill:#cccccc;"/>
<rect x="106.300000" y="56.000000" width="24.000000" height="24.000000" rx="0" ry="0" style="stroke:none;fill:#f44800;"/>
<text x="118.300000" y="70.000000" font-family="Arial" font-size="7" text-anchor="middle" fill="#FFFFFF">2</text>
<circle cx="108.300000" cy="58.000000" r="1"/>
<rect x="212.700000" y="41.000000" width="24.000000" height="24.000000" rx="0" ry="0" style="stroke:none;fill:#cccccc;"/>
<rect x="211.700000" y="40.000000" width="24.000000" height="24.000000" rx="0" ry="0" style="stroke:none;fill:#4B71A1;"/>
<text x="223.700000" y="54.000000" font-family="Arial" font-size="7" text-anchor="middle" fill="#FFFFFF">*</text>
<circle cx="213.700000" cy="42.000000" r="1"/>
<line x1="208.700000" y1="47.000000" x2="211.700000" y2="48.000000"  transform="rotate(0.000000,211.700000,48.000000)" style="stroke: black; stroke-width:0.25;"/>
<line x1="208.700000" y1="49.000000" x2="211.700000" y2="48.000000"  transform="rotate(0.000000,211.700000,48.000000)" style="stroke: black; stroke-width:0.25;"/>
<line x1="208.700000" y1="55.000000" x2="211.700000" y2="56.000000"  transform="rotate(0.000000,211.700000,56.000000)" style="stroke: black; stroke-width:0.25;"/>
<line x1="208.700000" y1="57.000000" x2="211.700000" y2="56.000000"  transform="rotate(0.000000,211.700000,56.000000)" style="stroke: black; stroke-width:0.25;"/>
<rect x="127.300000" y="99.000000" width="24.000000" height="24.000000" rx="0" ry="0" style="stroke:none;fill:#cccccc;"/>
<rect x="126.300000" y="98.000000" width="24.000000" height="24.000000" rx="0" ry="0" style="stroke:none;fill:#f44800;"/>
<text x="138.300000" y="112.000000" font-family="Arial" font-size="7" text-anchor="middle" fill="#FFFFFF">1</text>
<circle cx="128.300000" cy="100.000000" r="1"/>
<line x1="117.300000" y1="89.000000" x2="117.300000" y2="131.000000"  style="stroke: black; stroke-linecap:round; stroke-width:0.25; stroke-dasharray:3,3;"/>
<line x1="117.300000" y1="131.000000" x2="159.300000" y2="131.000000"  style="stroke: black; stroke-linecap:round; stroke-width:0.25; stroke-dasharray:3,3;"/>
<line x1="159.300000" y1="131.000000" x2="159.300000" y2="89.000000"  style="stroke: black; stroke-linecap:round; stroke-width:0.25; stroke-dasharray:3,3;"/>
<line x1="117.300000" y1="89.000000" x2="122.300000" y2="89.000000"  style="stroke: black; stroke-linecap:round; stroke-width:0.25; stroke-dasharray:3,3;"/>
<line x1="159.300000" y1="89.000000" x2="159.300000" y2="89.000000"  style="stroke: black; stroke-linecap:round; stroke-width:0.25; stroke-dasharray:3,3;"/>
<text x="122.300000" y="91.000000" font-family="Arial" font-size="7">facs2(4)(((4,...nt) : -) : +)(4)</text>
<rect x="252.700000" y="67.000000" width="24.000000" height="24.000000" rx="0" ry="0" style="stroke:none;fill:#cccccc;"/>
<rect x="251.700000" y="66.000000" width="24.000000" height="24.000000" rx="0" ry="0" style="stroke:none;fill:#4B71A1;"/>
<text x="263.700000" y="80.000000" font-family="Arial" font-size="7" text-anchor="middle" fill="#FFFFFF">+</text>
<circle cx="253.700000" cy="68.000000" r="1"/>
<line x1="248.700000" y1="73.000000" x2="251.700000" y2="74.000000"  transform="rotate(0.000000,251.700000,74.000000)" style="stroke: black; stroke-width:0.25;"/>
<line x1="248.700000" y1="75.000000" x2="251.700000" y2="74.000000"  transform="rotate(0.000000,251.700000,74.000000)" style="stroke: black; stroke-width:0.25;"/>
<line x1="248.700000" y1="81.000000" x2="251.700000" y2="82.000000"  transform="rotate(0.000000,251.700000,82.000000)" style="stroke: black; stroke-width:0.25;"/>
<line x1="248.700000" y1="83.000000" x2="251.700000" y2="82.000000"  transform="rotate(0.000000,251.700000,82.000000)" style="stroke: black; stroke-width:0.25;"/>
<a xlink:href="fund-0x3f65a70.svg">
<rect x="25.000000" y="141.000000" width="154.800000" height="24.000000" rx="0" ry="0" style="stroke:none;fill:#cccccc;"/>
<rect x="24.000000" y="140.000000" width="154.800000" height="24.000000" rx="0" ry="0" style="stroke:none;fill:#003366;"/>
</a>
<a xlink:href="fund-0x3f65a70.svg">
<text x="101.400000" y="154.000000" font-family="Arial" font-size="7" text-anchor="middle" fill="#FFFFFF">fund(vgroup(&quot;..., lenv = {}])(0.5f)</text>
</a>
<circle cx="26.000000" cy="142.000000" r="1"/>
<rect x="90.400000" y="173.000000" width="24.000000" height="24.000000" rx="0" ry="0" style="stroke:none;fill:#cccccc;"/>
<rect x="89.400000" y="172.000000" width="24.000000" height="24.000000" rx="0" ry="0" style="stroke:none;fill:#f44800;"/>
<text x="101.400000" y="186.000000" font-family="Arial" font-size="7" text-anchor="middle" fill="#FFFFFF">2</text>
<circle cx="91.400000" cy="174.000000" r="1"/>
<rect x="195.800000" y="157.000000" width="24.000000" height="24.000000" rx="0" ry="0" style="stroke:none;fill:#cccccc;"/>
<rect x="194.800000" y="156.000000" width="24.000000" height="24.000000" rx="0" ry="0" style="stroke:none;fill:#4B71A1;"/>
<text x="206.800000" y="170.000000" font-family="Arial" font-size="7" text-anchor="middle" fill="#FFFFFF">*</text>
<circle cx="196.800000" cy="158.000000" r="1"/>
<line x1="191.800000" y1="163.000000" x2="194.800000" y2="164.000000"  transform="rotate(0.000000,194.800000,164.000000)" style="stroke: black; stroke-width:0.25;"/>
<line x1="191.800000" y1="165.000000" x2="194.800000" y2="164.000000"  transform="rotate(0.000000,194.800000,164.000000)" style="stroke: black; stroke-width:0.25;"/>
<line x1="191.800000" y1="171.000000" x2="194.800000" y2="172.000000"  transform="rotate(0.000000,194.800000,172.000000)" style="stroke: black; stroke-width:0.25;"/>
<line x1="191.800000" y1="173.000000" x2="194.800000" y2="172.000000"  transform="rotate(0.000000,194.800000,172.000000)" style="stroke: black; stroke-width:0.25;"/>
<rect x="110.400000" y="215.000000" width="24.000000" height="24.000000" rx="0" ry="0" style="stroke:none;fill:#cccccc;"/>
<rect x="109.400000" y="214.000000" width="24.000000" height="24.000000" rx="0" ry="0" style="stroke:none;fill:#f44800;"/>
<text x="121.400000" y="228.000000" font-family="Arial" font-size="7" text-anchor="middle" fill="#FFFFFF">1</text>
<circle cx="111.400000" cy="216.000000" r="1"/>
<line x1="100.400000" y1="205.000000" x2="100.400000" y2="247.000000"  style="stroke: black; stroke-linecap:round; stroke-width:0.25; stroke-dasharray:3,3;"/>
<line x1="100.400000" y1="247.000000" x2="142.400000" y2="247.000000"  style="stroke: black; stroke-linecap:round; stroke-width:0.25; stroke-dasharray:3,3;"/>
<line x1="142.400000" y1="247.000000" x2="142.400000" y2="205.000000"  style="stroke: black; stroke-linecap:round; stroke-width:0.25; stroke-dasharray:3,3;"/>
<line x1="100.400000" y1="205.000000" x2="105.400000" y2="205.000000"  style="stroke: black; stroke-linecap:round; stroke-width:0.25; stroke-dasharray:3,3;"/>
<line x1="142.400000" y1="205.000000" x2="142.400000" y2="205.000000"  style="stroke: black; stroke-linecap:round; stroke-width:0.25; stroke-dasharray:3,3;"/>
<text x="105.400000" y="207.000000" font-family="Arial" font-size="7">facs2(4)(((4,...nt) : -) : +)(4)</text>
<rect x="235.800000" y="183.000000" width="24.000000" height="24.000000" rx="0" ry="0" style="stroke:none;fill:#cccccc;"/>
<rect x="234.800000" y="182.000000" width="24.000000" height="24.000000" rx="0" ry="0" style="stroke:none;fill:#4B71A1;"/>
<text x="246.800000" y="196.000000" font-family="Arial" font-size="7" text-anchor="middle" fill="#FFFFFF">+</text>
<circle cx="236.800000" cy="184.000000" r="1"/>
<line x1="231.800000" y1="189.000000" x2="234.800000" y2="190.000000"  transform="rotate(0.000000,234.800000,190.000000)" style="stroke: black; stroke-width:0.25;"/>
<line x1="231.800000" y1="191.000000" x2="234.800000" y2="190.000000"  transform="rotate(0.000000,234.800000,190.000000)" style="stroke: black; stroke-width:0.25;"/>
<line x1="231.800000" y1="197.000000" x2="234.800000" y2="198.000000"  transform="rotate(0.000000,234.800000,198.000000)" style="stroke: black; stroke-width:0.25;"/>
<line x1="231.800000" y1="199.000000" x2="234.800000" y2="198.000000"  transform="rotate(0.000000,234.800000,198.000000)" style="stroke: black; stroke-width:0.25;"/>
<rect x="267.800000" y="183.000000" width="25.800000" height="24.000000" rx="0" ry="0" style="stroke:none;fill:#cccccc;"/>
<rect x="266.800000" y="182.000000" width="25.800000" height="24.000000" rx="0" ry="0" style="stroke:none;fill:#4B71A1;"/>
<text x="279.700000" y="196.000000" font-family="Arial" font-size="7" text-anchor="middle" fill="#FFFFFF">floor</text>
<circle cx="268.800000" cy="184.000000" r="1"/>
<line x1="263.800000" y1="193.000000" x2="266.800000" y2="194.000000"  transform="rotate(0.000000,266.800000,194.000000)" style="stroke: black; stroke-width:0.25;"/>
<line x1="263.800000" y1="195.000000" x2="266.800000" y2="194.000000"  transform="rotate(0.000000,266.800000,194.000000)" style="stroke: black; stroke-width:0.25;"/>
<rect x="309.600000" y="125.000000" width="24.000000" height="24.000000" rx="0" ry="0" style="stroke:none;fill:#cccccc;"/>
<rect x="308.600000" y="124.000000" width="24.000000" height="24.000000" rx="0" ry="0" style="stroke:none;fill:#4B71A1;"/>
<text x="320.600000" y="138.000000" font-family="Arial" font-size="7" text-anchor="middle" fill="#FFFFFF">-</text>
<circle cx="310.600000" cy="126.000000" r="1"/>
<line x1="305.600000" y1="131.000000" x2="308.600000" y2="132.000000"  transform="rotate(0.000000,308.600000,132.000000)" style="stroke: black; stroke-width:0.25;"/>
<line x1="305.600000" y1="133.000000" x2="308.600000" y2="132.000000"  transform="rotate(0.000000,308.600000,132.000000)" style="stroke: black; stroke-width:0.25;"/>
<line x1="305.600000" y1="139.000000" x2="308.600000" y2="140.000000"  transform="rotate(0.000000,308.600000,140.000000)" style="stroke: black; stroke-width:0.25;"/>
<line x1="305.600000" y1="141.000000" x2="308.600000" y2="140.000000"  transform="rotate(0.000000,308.600000,140.000000)" style="stroke: black; stroke-width:0.25;"/>
<line x1="15.000000" y1="15.000000" x2="15.000000" y2="257.000000"  style="stroke: black; stroke-linecap:round; stroke-width:0.25; stroke-dasharray:3,3;"/>
<line x1="15.000000" y1="257.000000" x2="349.600000" y2="257.000000"  style="stroke: black; stroke-linecap:round; stroke-width:0.25; stroke-dasharray:3,3;"/>
<line x1="349.600000" y1="257.000000" x2="349.600000" y2="15.000000"  style="stroke: black; stroke-linecap:round; stroke-width:0.25; stroke-dasharray:3,3;"/>
<line x1="15.000000" y1="15.000000" x2="20.000000" y2="15.000000"  style="stroke: black; stroke-linecap:round; stroke-width:0.25; stroke-dasharray:3,3;"/>
<line x1="119.975000" y1="15.000000" x2="349.600000" y2="15.000000"  style="stroke: black; stroke-linecap:round; stroke-width:0.25; stroke-dasharray:3,3;"/>
<text x="20.000000" y="17.000000" font-family="Arial" font-size="7">fracPart((((4...2 : *),1 : +)</text>
<line x1="351.600000" y1="135.000000" x2="354.600000" y2="136.000000"  transform="rotate(0.000000,354.600000,136.000000)" style="stroke: black; stroke-width:0.25;"/>
<line x1="351.600000" y1="137.000000" x2="354.600000" y2="136.000000"  transform="rotate(0.000000,354.600000,136.000000)" style="stroke: black; stroke-width:0.25;"/>
<line x1="113.400000" y1="184.000000" x2="117.400000" y2="184.000000"  style="stroke:black; stroke-linecap:round; stroke-width:0.25;"/>
<line x1="117.400000" y1="184.000000" x2="182.800000" y2="184.000000"  style="stroke:black; stroke-linecap:round; stroke-width:0.25;"/>
<line x1="130.300000" y1="68.000000" x2="134.300000" y2="68.000000"  style="stroke:black; stroke-linecap:round; stroke-width:0.25;"/>
<line x1="133.400000" y1="226.000000" x2="137.400000" y2="226.000000"  style="stroke:black; stroke-linecap:round; stroke-width:0.25;"/>
<line x1="134.300000" y1="68.000000" x2="199.700000" y2="68.000000"  style="stroke:black; stroke-linecap:round; stroke-width:0.25;"/>
<line x1="137.400000" y1="226.000000" x2="147.400000" y2="226.000000"  style="stroke:black; stroke-linecap:round; stroke-width:0.25;"/>
<line x1="147.400000" y1="226.000000" x2="222.800000" y2="226.000000"  style="stroke:black; stroke-linecap:round; stroke-width:0.25;"/>
<line x1="150.300000" y1="110.000000" x2="154.300000" y2="110.000000"  style="stroke:black; stroke-linecap:round; stroke-width:0.25;"/>
<line x1="154.300000" y1="110.000000" x2="164.300000" y2="110.000000"  style="stroke:black; stroke-linecap:round; stroke-width:0.25;"/>
<line x1="164.300000" y1="110.000000" x2="239.700000" y2="110.000000"  style="stroke:black; stroke-linecap:round; stroke-width:0.25;"/>
<line x1="178.800000" y1="152.000000" x2="182.800000" y2="152.000000"  style="stroke:black; stroke-linecap:round; stroke-width:0.25;"/>
<line x1="182.800000" y1="152.000000" x2="190.800000" y2="152.000000"  style="stroke:black; stroke-linecap:round; stroke-width:0.25;"/>
<line x1="182.800000" y1="172.000000" x2="190.800000" y2="172.000000"  style="stroke:black; stroke-linecap:round; stroke-width:0.25;"/>
<line x1="182.800000" y1="184.000000" x2="182.800000" y2="172.000000"  style="stroke:black; stroke-linecap:round; stroke-width:0.25;"/>
<line x1="182.800000" y1="184.000000" x2="182.800000" y2="184.000000"  style="stroke:black; stroke-linecap:round; stroke-width:0.25;"/>
<line x1="190.800000" y1="152.000000" x2="190.800000" y2="164.000000"  style="stroke:black; stroke-linecap:round; stroke-width:0.25;"/>
<line x1="190.800000" y1="164.000000" x2="190.800000" y2="164.000000"  style="stroke:black; stroke-linecap:round; stroke-width:0.25;"/>
<line x1="190.800000" y1="164.000000" x2="194.800000" y2="164.000000"  style="stroke:black; stroke-linecap:round; stroke-width:0.25;"/>
<line x1="190.800000" y1="172.000000" x2="194.800000" y2="172.000000"  style="stroke:black; stroke-linecap:round; stroke-width:0.25;"/>
<line x1="195.700000" y1="36.000000" x2="199.700000" y2="36.000000"  style="stroke:black; stroke-linecap:round; stroke-width:0.25;"/>
<line x1="199.700000" y1="36.000000" x2="207.700000" y2="36.000000"  style="stroke:black; stroke-linecap:round; stroke-width:0.25;"/>
<line x1="199.700000" y1="56.000000" x2="207.700000" y2="56.000000"  style="stroke:black; stroke-linecap:round; stroke-width:0.25;"/>
<line x1="199.700000" y1="68.000000" x2="199.700000" y2="56.000000"  style="stroke:black; stroke-linecap:round; stroke-width:0.25;"/>
<line x1="199.700000" y1="68.000000" x2="199.700000" y2="68.000000"  style="stroke:black; stroke-linecap:round; stroke-width:0.25;"/>
<line x1="207.700000" y1="36.000000" x2="207.700000" y2="48.000000"  style="stroke:black; stroke-linecap:round; stroke-width:0.25;"/>
<line x1="207.700000" y1="48.000000" x2="207.700000" y2="48.000000"  style="stroke:black; stroke-linecap:round; stroke-width:0.25;"/>
<line x1="207.700000" y1="48.000000" x2="211.700000" y2="48.000000"  style="stroke:black; stroke-linecap:round; stroke-width:0.25;"/>
<line x1="207.700000" y1="56.000000" x2="211.700000" y2="56.000000"  style="stroke:black; stroke-linecap:round; stroke-width:0.25;"/>
<line x1="218.800000" y1="168.000000" x2="222.800000" y2="168.000000"  style="stroke:black; stroke-linecap:round; stroke-width:0.25;"/>
<line x1="222.800000" y1="198.000000" x2="230.800000" y2="198.000000"  style="stroke:black; stroke-linecap:round; stroke-width:0.25;"/>
<line x1="222.800000" y1="226.000000" x2="222.800000" y2="198.000000"  style="stroke:black; stroke-linecap:round; stroke-width:0.25;"/>
<line x1="222.800000" y1="226.000000" x2="222.800000" y2="226.000000"  style="stroke:black; stroke-linecap:round; stroke-width:0.25;"/>
<line x1="222.800000" y1="168.000000" x2="230.800000" y2="168.000000"  style="stroke:black; stroke-linecap:round; stroke-width:0.25;"/>
<line x1="230.800000" y1="168.000000" x2="230.800000" y2="190.000000"  style="stroke:black; stroke-linecap:round; stroke-width:0.25;"/>
<line x1="230.800000" y1="190.000000" x2="230.800000" y2="190.000000"  style="stroke:black; stroke-linecap:round; stroke-width:0.25;"/>
<line x1="230.800000" y1="190.000000" x2="234.800000" y2="190.000000"  style="stroke:black; stroke-linecap:round; stroke-width:0.25;"/>
<line x1="230.800000" y1="198.000000" x2="234.800000" y2="198.000000"  style="stroke:black; stroke-linecap:round; stroke-width:0.25;"/>
<line x1="235.700000" y1="52.000000" x2="239.700000" y2="52.000000"  style="stroke:black; stroke-linecap:round; stroke-width:0.25;"/>
<line x1="239.700000" y1="52.000000" x2="247.700000" y2="52.000000"  style="stroke:black; stroke-linecap:round; stroke-width:0.25;"/>
<line x1="239.700000" y1="82.000000" x2="247.700000" y2="82.000000"  style="stroke:black; stroke-linecap:round; stroke-width:0.25;"/>
<line x1="239.700000" y1="110.000000" x2="239.700000" y2="82.000000"  style="stroke:black; stroke-linecap:round; stroke-width:0.25;"/>
<line x1="239.700000" y1="110.000000" x2="239.700000" y2="110.000000"  style="stroke:black; stroke-linecap:round; stroke-width:0.25;"/>
<line x1="247.700000" y1="52.000000" x2="247.700000" y2="74.000000"  style="stroke:black; stroke-linecap:round; stroke-width:0.25;"/>
<line x1="247.700000" y1="74.000000" x2="247.700000" y2="74.000000"  style="stroke:black; stroke-linecap:round; stroke-width:0.25;"/>
<line x1="247.700000" y1="74.000000" x2="251.700000" y2="74.000000"  style="stroke:black; stroke-linecap:round; stroke-width:0.25;"/>
<line x1="247.700000" y1="82.000000" x2="251.700000" y2="82.000000"  style="stroke:black; stroke-linecap:round; stroke-width:0.25;"/>
<line x1="258.800000" y1="194.000000" x2="262.800000" y2="194.000000"  style="stroke:black; stroke-linecap:round; stroke-width:0.25;"/>
<line x1="262.800000" y1="194.000000" x2="262.800000" y2="194.000000"  style="stroke:black; stroke-linecap:round; stroke-width:0.25;"/>
<line x1="262.800000" y1="194.000000" x2="266.800000" y2="194.000000"  style="stroke:black; stroke-linecap:round; stroke-width:0.25;"/>
<line x1="275.700000" y1="78.000000" x2="279.700000" y2="78.000000"  style="stroke:black; stroke-linecap:round; stroke-width:0.25;"/>
<line x1="279.700000" y1="78.000000" x2="296.600000" y2="78.000000"  style="stroke:black; stroke-linecap:round; stroke-width:0.25;"/>
<line x1="292.600000" y1="194.000000" x2="296.600000" y2="194.000000"  style="stroke:black; stroke-linecap:round; stroke-width:0.25;"/>
<line x1="296.600000" y1="78.000000" x2="304.600000" y2="78.000000"  style="stroke:black; stroke-linecap:round; stroke-width:0.25;"/>
<line x1="296.600000" y1="140.000000" x2="304.600000" y2="140.000000"  style="stroke:black; stroke-linecap:round; stroke-width:0.25;"/>
<line x1="296.600000" y1="194.000000" x2="296.600000" y2="140.000000"  style="stroke:black; stroke-linecap:round; stroke-width:0.25;"/>
<line x1="296.600000" y1="194.000000" x2="296.600000" y2="194.000000"  style="stroke:black; stroke-linecap:round; stroke-width:0.25;"/>
<line x1="304.600000" y1="78.000000" x2="304.600000" y2="132.000000"  style="stroke:black; stroke-linecap:round; stroke-width:0.25;"/>
<line x1="304.600000" y1="132.000000" x2="304.600000" y2="132.000000"  style="stroke:black; stroke-linecap:round; stroke-width:0.25;"/>
<line x1="304.600000" y1="132.000000" x2="308.600000" y2="132.000000"  style="stroke:black; stroke-linecap:round; stroke-width:0.25;"/>
<line x1="304.600000" y1="140.000000" x2="308.600000" y2="140.000000"  style="stroke:black; stroke-linecap:round; stroke-width:0.25;"/>
<line x1="332.600000" y1="136.000000" x2="336.600000" y2="136.000000"  style="stroke:black; stroke-linecap:round; stroke-width:0.25;"/>
<line x1="336.600000" y1="136.000000" x2="336.600000" y2="136.000000"  style="stroke:black; stroke-linecap:round; stroke-width:0.25;"/>
<line x1="336.600000" y1="136.000000" x2="340.600000" y2="136.000000"  style="stroke:black; stroke-linecap:round; stroke-width:0.25;"/>
<line x1="340.600000" y1="136.000000" x2="344.600000" y2="136.000000"  style="stroke:black; stroke-linecap:round; stroke-width:0.25;"/>
<line x1="344.600000" y1="136.000000" x2="354.600000" y2="136.000000"  style="stroke:black; stroke-linecap:round; stroke-width:0.25;"/>
</svg>
