<?xml version="1.0"?>
<svg xmlns="http://www.w3.org/2000/svg" xmlns:xlink="http://www.w3.org/1999/xlink" viewBox="0 0 237.900000 124.000000" width="118.950000mm" height="62.000000mm" version="1.1">
<a xlink:href="fdelay4-0x4142970.svg">
<rect x="1.000000" y="1.000000" width="236.900000" height="123.000000" rx="0" ry="0" style="stroke:none;fill:#cccccc;"/>
<rect x="0.000000" y="0.000000" width="236.900000" height="123.000000" rx="0" ry="0" style="stroke:none;fill:#ffffff;"/>
</a>
<text x="10.000000" y="7.000000" font-family="Arial" font-size="7"></text>
<rect x="83.950000" y="35.000000" width="24.000000" height="24.000000" rx="0" ry="0" style="stroke:none;fill:#cccccc;"/>
<rect x="82.950000" y="34.000000" width="24.000000" height="24.000000" rx="0" ry="0" style="stroke:none;fill:#f44800;"/>
<text x="94.950000" y="48.000000" font-family="Arial" font-size="7" text-anchor="middle" fill="#FFFFFF">1</text>
<circle cx="84.950000" cy="36.000000" r="1"/>
<line x1="73.950000" y1="25.000000" x2="73.950000" y2="67.000000"  style="stroke: black; stroke-linecap:round; stroke-width:0.25; stroke-dasharray:3,3;"/>
<line x1="73.950000" y1="67.000000" x2="115.950000" y2="67.000000"  style="stroke: black; stroke-linecap:round; stroke-width:0.25; stroke-dasharray:3,3;"/>
<line x1="115.950000" y1="67.000000" x2="115.950000" y2="25.000000"  style="stroke: black; stroke-linecap:round; stroke-width:0.25; stroke-dasharray:3,3;"/>
<line x1="73.950000" y1="25.000000" x2="78.950000" y2="25.000000"  style="stroke: black; stroke-linecap:round; stroke-width:0.25; stroke-dasharray:3,3;"/>
<line x1="115.950000" y1="25.000000" x2="115.950000" y2="25.000000"  style="stroke: black; stroke-linecap:round; stroke-width:0.25; stroke-dasharray:3,3;"/>
<text x="78.950000" y="27.000000" font-family="Arial" font-size="7">facs2(4)(((4,...nt) : -) : +)(4)</text>
<a xlink:href="facs2-0x412dee0.svg">
<rect x="25.000000" y="77.000000" width="141.900000" height="24.000000" rx="0" ry="0" style="stroke:none;fill:#cccccc;"/>
<rect x="24.000000" y="76.000000" width="141.900000" height="24.000000" rx="0" ry="0" style="stroke:none;fill:#003366;"/>
</a>
<a xlink:href="facs2-0x412dee0.svg">
<text x="94.950000" y="90.000000" font-family="Arial" font-size="7" text-anchor="middle" fill="#FFFFFF">facs2(4)(((4,...nt) : -) : +)(0)</text>
</a>
<circle cx="26.000000" cy="78.000000" r="1"/>
<rect x="182.900000" y="51.000000" width="24.000000" height="24.000000" rx="0" ry="0" style="stroke:none;fill:#cccccc;"/>
<rect x="181.900000" y="50.000000" width="24.000000" height="24.000000" rx="0" ry="0" style="stroke:none;fill:#4B71A1;"/>
<text x="193.900000" y="64.000000" font-family="Arial" font-size="7" text-anchor="middle" fill="#FFFFFF">*</text>
<circle cx="183.900000" cy="52.000000" r="1"/>
<line x1="178.900000" y1="57.000000" x2="181.900000" y2="58.000000"  transform="rotate(0.000000,181.900000,58.000000)" style="stroke: black; stroke-width:0.25;"/>
<line x1="178.900000" y1="59.000000" x2="181.900000" y2="58.000000"  transform="rotate(0.000000,181.900000,58.000000)" style="stroke: black; stroke-width:0.25;"/>
<line x1="178.900000" y1="65.000000" x2="181.900000" y2="66.000000"  transform="rotate(0.000000,181.900000,66.000000)" style="stroke: black; stroke-width:0.25;"/>
<line x1="178.900000" y1="67.000000" x2="181.900000" y2="66.000000"  transform="rotate(0.000000,181.900000,66.000000)" style="stroke: black; stroke-width:0.25;"/>
<line x1="15.000000" y1="15.000000" x2="15.000000" y2="109.000000"  style="stroke: black; stroke-linecap:round; stroke-width:0.25; stroke-dasharray:3,3;"/>
<line x1="15.000000" y1="109.000000" x2="222.900000" y2="109.000000"  style="stroke: black; stroke-linecap:round; stroke-width:0.25; stroke-dasharray:3,3;"/>
<line x1="222.900000" y1="109.000000" x2="222.900000" y2="15.000000"  style="stroke: black; stroke-linecap:round; stroke-width:0.25; stroke-dasharray:3,3;"/>
<line x1="15.000000" y1="15.000000" x2="20.000000" y2="15.000000"  style="stroke: black; stroke-linecap:round; stroke-width:0.25; stroke-dasharray:3,3;"/>
<line x1="129.650000" y1="15.000000" x2="222.900000" y2="15.000000"  style="stroke: black; stroke-linecap:round; stroke-width:0.25; stroke-dasharray:3,3;"/>
<text x="20.000000" y="17.000000" font-family="Arial" font-size="7">h(4)(((4,1.00...nt) : -) : +)(0)</text>
<line x1="224.900000" y1="61.000000" x2="227.900000" y2="62.000000"  transform="rotate(0.000000,227.900000,62.000000)" style="stroke: black; stroke-width:0.25;"/>
<line x1="224.900000" y1="63.000000" x2="227.900000" y2="62.000000"  transform="rotate(0.000000,227.900000,62.000000)" style="stroke: black; stroke-width:0.25;"/>
<line x1="106.950000" y1="46.000000" x2="110.950000" y2="46.000000"  style="stroke:black; stroke-linecap:round; stroke-width:0.25;"/>
<line x1="110.950000" y1="46.000000" x2="120.950000" y2="46.000000"  style="stroke:black; stroke-linecap:round; stroke-width:0.25;"/>
<line x1="120.950000" y1="46.000000" x2="169.900000" y2="46.000000"  style="stroke:black; stroke-linecap:round; stroke-width:0.25;"/>
<line x1="165.900000" y1="88.000000" x2="169.900000" y2="88.000000"  style="stroke:black; stroke-linecap:round; stroke-width:0.25;"/>
<line x1="169.900000" y1="46.000000" x2="177.900000" y2="46.000000"  style="stroke:black; stroke-linecap:round; stroke-width:0.25;"/>
<line x1="169.900000" y1="66.000000" x2="177.900000" y2="66.000000"  style="stroke:black; stroke-linecap:round; stroke-width:0.25;"/>
<line x1="169.900000" y1="88.000000" x2="169.900000" y2="66.000000"  style="stroke:black; stroke-linecap:round; stroke-width:0.25;"/>
<line x1="169.900000" y1="88.000000" x2="169.900000" y2="88.000000"  style="stroke:black; stroke-linecap:round; stroke-width:0.25;"/>
<line x1="177.900000" y1="46.000000" x2="177.900000" y2="58.000000"  style="stroke:black; stroke-linecap:round; stroke-width:0.25;"/>
<line x1="177.900000" y1="58.000000" x2="177.900000" y2="58.000000"  style="stroke:black; stroke-linecap:round; stroke-width:0.25;"/>
<line x1="177.900000" y1="58.000000" x2="181.900000" y2="58.000000"  style="stroke:black; stroke-linecap:round; stroke-width:0.25;"/>
<line x1="177.900000" y1="66.000000" x2="181.900000" y2="66.000000"  style="stroke:black; stroke-linecap:round; stroke-width:0.25;"/>
<line x1="205.900000" y1="62.000000" x2="209.900000" y2="62.000000"  style="stroke:black; stroke-linecap:round; stroke-width:0.25;"/>
<line x1="209.900000" y1="62.000000" x2="209.900000" y2="62.000000"  style="stroke:black; stroke-linecap:round; stroke-width:0.25;"/>
<line x1="209.900000" y1="62.000000" x2="213.900000" y2="62.000000"  style="stroke:black; stroke-linecap:round; stroke-width:0.25;"/>
<line x1="213.900000" y1="62.000000" x2="217.900000" y2="62.000000"  style="stroke:black; stroke-linecap:round; stroke-width:0.25;"/>
<line x1="217.900000" y1="62.000000" x2="227.900000" y2="62.000000"  style="stroke:black; stroke-linecap:round; stroke-width:0.25;"/>
</svg>
