<?xml version="1.0"?>
<svg xmlns="http://www.w3.org/2000/svg" xmlns:xlink="http://www.w3.org/1999/xlink" viewBox="0 0 307.600000 208.000000" width="153.800000mm" height="104.000000mm" version="1.1">
<a xlink:href="fracPart-0x3f8acb0.svg">
<rect x="1.000000" y="1.000000" width="306.600000" height="207.000000" rx="0" ry="0" style="stroke:none;fill:#cccccc;"/>
<rect x="0.000000" y="0.000000" width="306.600000" height="207.000000" rx="0" ry="0" style="stroke:none;fill:#ffffff;"/>
</a>
<text x="10.000000" y="7.000000" font-family="Arial" font-size="7"></text>
<a xlink:href="formant-0x3f41010.svg">
<rect x="91.450000" y="25.000000" width="38.700000" height="24.000000" rx="0" ry="0" style="stroke:none;fill:#cccccc;"/>
<rect x="90.450000" y="24.000000" width="38.700000" height="24.000000" rx="0" ry="0" style="stroke:none;fill:#003366;"/>
</a>
<a xlink:href="formant-0x3f41010.svg">
<text x="109.800000" y="38.000000" font-family="Arial" font-size="7" text-anchor="middle" fill="#FFFFFF">formant</text>
</a>
<circle cx="92.450000" cy="26.000000" r="1"/>
<a xlink:href="masterPitch-0x3f4ae20.svg">
<rect x="46.300000" y="57.000000" width="129.000000" height="24.000000" rx="0" ry="0" style="stroke:none;fill:#cccccc;"/>
<rect x="45.300000" y="56.000000" width="129.000000" height="24.000000" rx="0" ry="0" style="stroke:none;fill:#003366;"/>
</a>
<a xlink:href="masterPitch-0x3f4ae20.svg">
<text x="109.800000" y="70.000000" font-family="Arial" font-size="7" text-anchor="middle" fill="#FFFFFF">masterPitch(x..., lenv = {}])</text>
</a>
<circle cx="47.300000" cy="58.000000" r="1"/>
<rect x="191.300000" y="41.000000" width="24.000000" height="24.000000" rx="0" ry="0" style="stroke:none;fill:#cccccc;"/>
<rect x="190.300000" y="40.000000" width="24.000000" height="24.000000" rx="0" ry="0" style="stroke:none;fill:#4B71A1;"/>
<text x="202.300000" y="54.000000" font-family="Arial" font-size="7" text-anchor="middle" fill="#FFFFFF">/</text>
<circle cx="192.300000" cy="42.000000" r="1"/>
<line x1="187.300000" y1="47.000000" x2="190.300000" y2="48.000000"  transform="rotate(0.000000,190.300000,48.000000)" style="stroke: black; stroke-width:0.25;"/>
<line x1="187.300000" y1="49.000000" x2="190.300000" y2="48.000000"  transform="rotate(0.000000,190.300000,48.000000)" style="stroke: black; stroke-width:0.25;"/>
<line x1="187.300000" y1="55.000000" x2="190.300000" y2="56.000000"  transform="rotate(0.000000,190.300000,56.000000)" style="stroke: black; stroke-width:0.25;"/>
<line x1="187.300000" y1="57.000000" x2="190.300000" y2="56.000000"  transform="rotate(0.000000,190.300000,56.000000)" style="stroke: black; stroke-width:0.25;"/>
<a xlink:href="CZresMultM-0x3f8a0d0.svg">
<rect x="25.000000" y="109.000000" width="51.600000" height="24.000000" rx="0" ry="0" style="stroke:none;fill:#cccccc;"/>
<rect x="24.000000" y="108.000000" width="51.600000" height="24.000000" rx="0" ry="0" style="stroke:none;fill:#003366;"/>
</a>
<a xlink:href="CZresMultM-0x3f8a0d0.svg">
<text x="49.800000" y="122.000000" font-family="Arial" font-size="7" text-anchor="middle" fill="#FFFFFF">CZresMultM</text>
</a>
<circle cx="26.000000" cy="110.000000" r="1"/>
<rect x="92.600000" y="97.000000" width="24.000000" height="24.000000" rx="0" ry="0" style="stroke:none;fill:#cccccc;"/>
<rect x="91.600000" y="96.000000" width="24.000000" height="24.000000" rx="0" ry="0" style="stroke:none;fill:#f44800;"/>
<text x="103.600000" y="110.000000" font-family="Arial" font-size="7" text-anchor="middle" fill="#FFFFFF">2</text>
<circle cx="93.600000" cy="98.000000" r="1"/>
<rect x="132.600000" y="93.000000" width="24.000000" height="24.000000" rx="0" ry="0" style="stroke:none;fill:#cccccc;"/>
<rect x="131.600000" y="92.000000" width="24.000000" height="24.000000" rx="0" ry="0" style="stroke:none;fill:#4B71A1;"/>
<text x="143.600000" y="106.000000" font-family="Arial" font-size="7" text-anchor="middle" fill="#FFFFFF">pow</text>
<circle cx="133.600000" cy="94.000000" r="1"/>
<line x1="128.600000" y1="99.000000" x2="131.600000" y2="100.000000"  transform="rotate(0.000000,131.600000,100.000000)" style="stroke: black; stroke-width:0.25;"/>
<line x1="128.600000" y1="101.000000" x2="131.600000" y2="100.000000"  transform="rotate(0.000000,131.600000,100.000000)" style="stroke: black; stroke-width:0.25;"/>
<line x1="128.600000" y1="107.000000" x2="131.600000" y2="108.000000"  transform="rotate(0.000000,131.600000,108.000000)" style="stroke: black; stroke-width:0.25;"/>
<line x1="128.600000" y1="109.000000" x2="131.600000" y2="108.000000"  transform="rotate(0.000000,131.600000,108.000000)" style="stroke: black; stroke-width:0.25;"/>
<rect x="111.700000" y="129.000000" width="25.800000" height="24.000000" rx="0" ry="0" style="stroke:none;fill:#cccccc;"/>
<rect x="110.700000" y="128.000000" width="25.800000" height="24.000000" rx="0" ry="0" style="stroke:none;fill:#f44800;"/>
<text x="123.600000" y="142.000000" font-family="Arial" font-size="7" text-anchor="middle" fill="#FFFFFF">3.75</text>
<circle cx="112.700000" cy="130.000000" r="1"/>
<rect x="172.600000" y="109.000000" width="24.000000" height="24.000000" rx="0" ry="0" style="stroke:none;fill:#cccccc;"/>
<rect x="171.600000" y="108.000000" width="24.000000" height="24.000000" rx="0" ry="0" style="stroke:none;fill:#4B71A1;"/>
<text x="183.600000" y="122.000000" font-family="Arial" font-size="7" text-anchor="middle" fill="#FFFFFF">*</text>
<circle cx="173.600000" cy="110.000000" r="1"/>
<line x1="168.600000" y1="115.000000" x2="171.600000" y2="116.000000"  transform="rotate(0.000000,171.600000,116.000000)" style="stroke: black; stroke-width:0.25;"/>
<line x1="168.600000" y1="117.000000" x2="171.600000" y2="116.000000"  transform="rotate(0.000000,171.600000,116.000000)" style="stroke: black; stroke-width:0.25;"/>
<line x1="168.600000" y1="123.000000" x2="171.600000" y2="124.000000"  transform="rotate(0.000000,171.600000,124.000000)" style="stroke: black; stroke-width:0.25;"/>
<line x1="168.600000" y1="125.000000" x2="171.600000" y2="124.000000"  transform="rotate(0.000000,171.600000,124.000000)" style="stroke: black; stroke-width:0.25;"/>
<rect x="97.900000" y="161.000000" width="25.800000" height="24.000000" rx="0" ry="0" style="stroke:none;fill:#cccccc;"/>
<rect x="96.900000" y="160.000000" width="25.800000" height="24.000000" rx="0" ry="0" style="stroke:none;fill:#f44800;"/>
<text x="109.800000" y="174.000000" font-family="Arial" font-size="7" text-anchor="middle" fill="#FFFFFF">0.25</text>
<circle cx="98.900000" cy="162.000000" r="1"/>
<rect x="212.600000" y="125.000000" width="24.000000" height="24.000000" rx="0" ry="0" style="stroke:none;fill:#cccccc;"/>
<rect x="211.600000" y="124.000000" width="24.000000" height="24.000000" rx="0" ry="0" style="stroke:none;fill:#4B71A1;"/>
<text x="223.600000" y="138.000000" font-family="Arial" font-size="7" text-anchor="middle" fill="#FFFFFF">+</text>
<circle cx="213.600000" cy="126.000000" r="1"/>
<line x1="208.600000" y1="131.000000" x2="211.600000" y2="132.000000"  transform="rotate(0.000000,211.600000,132.000000)" style="stroke: black; stroke-width:0.25;"/>
<line x1="208.600000" y1="133.000000" x2="211.600000" y2="132.000000"  transform="rotate(0.000000,211.600000,132.000000)" style="stroke: black; stroke-width:0.25;"/>
<line x1="208.600000" y1="139.000000" x2="211.600000" y2="140.000000"  transform="rotate(0.000000,211.600000,140.000000)" style="stroke: black; stroke-width:0.25;"/>
<line x1="208.600000" y1="141.000000" x2="211.600000" y2="140.000000"  transform="rotate(0.000000,211.600000,140.000000)" style="stroke: black; stroke-width:0.25;"/>
<rect x="252.600000" y="93.000000" width="24.000000" height="24.000000" rx="0" ry="0" style="stroke:none;fill:#cccccc;"/>
<rect x="251.600000" y="92.000000" width="24.000000" height="24.000000" rx="0" ry="0" style="stroke:none;fill:#4B71A1;"/>
<text x="263.600000" y="106.000000" font-family="Arial" font-size="7" text-anchor="middle" fill="#FFFFFF">*</text>
<circle cx="253.600000" cy="94.000000" r="1"/>
<line x1="248.600000" y1="99.000000" x2="251.600000" y2="100.000000"  transform="rotate(0.000000,251.600000,100.000000)" style="stroke: black; stroke-width:0.25;"/>
<line x1="248.600000" y1="101.000000" x2="251.600000" y2="100.000000"  transform="rotate(0.000000,251.600000,100.000000)" style="stroke: black; stroke-width:0.25;"/>
<line x1="248.600000" y1="107.000000" x2="251.600000" y2="108.000000"  transform="rotate(0.000000,251.600000,108.000000)" style="stroke: black; stroke-width:0.25;"/>
<line x1="248.600000" y1="109.000000" x2="251.600000" y2="108.000000"  transform="rotate(0.000000,251.600000,108.000000)" style="stroke: black; stroke-width:0.25;"/>
<line x1="15.000000" y1="15.000000" x2="15.000000" y2="193.000000"  style="stroke: black; stroke-linecap:round; stroke-width:0.25; stroke-dasharray:3,3;"/>
<line x1="15.000000" y1="193.000000" x2="292.600000" y2="193.000000"  style="stroke: black; stroke-linecap:round; stroke-width:0.25; stroke-dasharray:3,3;"/>
<line x1="292.600000" y1="193.000000" x2="292.600000" y2="15.000000"  style="stroke: black; stroke-linecap:round; stroke-width:0.25; stroke-dasharray:3,3;"/>
<line x1="15.000000" y1="15.000000" x2="20.000000" y2="15.000000"  style="stroke: black; stroke-linecap:round; stroke-width:0.25; stroke-dasharray:3,3;"/>
<line x1="36.125000" y1="15.000000" x2="292.600000" y2="15.000000"  style="stroke: black; stroke-linecap:round; stroke-width:0.25; stroke-dasharray:3,3;"/>
<text x="20.000000" y="17.000000" font-family="Arial" font-size="7">RES</text>
<line x1="294.600000" y1="103.000000" x2="297.600000" y2="104.000000"  transform="rotate(0.000000,297.600000,104.000000)" style="stroke: black; stroke-width:0.25;"/>
<line x1="294.600000" y1="105.000000" x2="297.600000" y2="104.000000"  transform="rotate(0.000000,297.600000,104.000000)" style="stroke: black; stroke-width:0.25;"/>
<line x1="75.600000" y1="120.000000" x2="79.600000" y2="120.000000"  style="stroke:black; stroke-linecap:round; stroke-width:0.25;"/>
<line x1="79.600000" y1="88.000000" x2="87.600000" y2="88.000000"  style="stroke:black; stroke-linecap:round; stroke-width:0.25;"/>
<line x1="79.600000" y1="120.000000" x2="79.600000" y2="88.000000"  style="stroke:black; stroke-linecap:round; stroke-width:0.25;"/>
<line x1="79.600000" y1="120.000000" x2="79.600000" y2="120.000000"  style="stroke:black; stroke-linecap:round; stroke-width:0.25;"/>
<line x1="87.600000" y1="88.000000" x2="103.600000" y2="88.000000"  style="stroke:black; stroke-linecap:round; stroke-width:0.25;"/>
<line x1="103.600000" y1="88.000000" x2="119.600000" y2="88.000000"  style="stroke:black; stroke-linecap:round; stroke-width:0.25;"/>
<line x1="115.600000" y1="108.000000" x2="119.600000" y2="108.000000"  style="stroke:black; stroke-linecap:round; stroke-width:0.25;"/>
<line x1="119.600000" y1="88.000000" x2="127.600000" y2="88.000000"  style="stroke:black; stroke-linecap:round; stroke-width:0.25;"/>
<line x1="119.600000" y1="108.000000" x2="127.600000" y2="108.000000"  style="stroke:black; stroke-linecap:round; stroke-width:0.25;"/>
<line x1="122.700000" y1="172.000000" x2="126.700000" y2="172.000000"  style="stroke:black; stroke-linecap:round; stroke-width:0.25;"/>
<line x1="126.700000" y1="172.000000" x2="199.600000" y2="172.000000"  style="stroke:black; stroke-linecap:round; stroke-width:0.25;"/>
<line x1="127.600000" y1="88.000000" x2="127.600000" y2="100.000000"  style="stroke:black; stroke-linecap:round; stroke-width:0.25;"/>
<line x1="127.600000" y1="100.000000" x2="127.600000" y2="100.000000"  style="stroke:black; stroke-linecap:round; stroke-width:0.25;"/>
<line x1="127.600000" y1="100.000000" x2="131.600000" y2="100.000000"  style="stroke:black; stroke-linecap:round; stroke-width:0.25;"/>
<line x1="127.600000" y1="108.000000" x2="131.600000" y2="108.000000"  style="stroke:black; stroke-linecap:round; stroke-width:0.25;"/>
<line x1="129.150000" y1="36.000000" x2="133.150000" y2="36.000000"  style="stroke:black; stroke-linecap:round; stroke-width:0.25;"/>
<line x1="133.150000" y1="36.000000" x2="178.300000" y2="36.000000"  style="stroke:black; stroke-linecap:round; stroke-width:0.25;"/>
<line x1="136.500000" y1="140.000000" x2="140.500000" y2="140.000000"  style="stroke:black; stroke-linecap:round; stroke-width:0.25;"/>
<line x1="140.500000" y1="140.000000" x2="159.600000" y2="140.000000"  style="stroke:black; stroke-linecap:round; stroke-width:0.25;"/>
<line x1="155.600000" y1="104.000000" x2="159.600000" y2="104.000000"  style="stroke:black; stroke-linecap:round; stroke-width:0.25;"/>
<line x1="159.600000" y1="104.000000" x2="167.600000" y2="104.000000"  style="stroke:black; stroke-linecap:round; stroke-width:0.25;"/>
<line x1="159.600000" y1="124.000000" x2="167.600000" y2="124.000000"  style="stroke:black; stroke-linecap:round; stroke-width:0.25;"/>
<line x1="159.600000" y1="140.000000" x2="159.600000" y2="124.000000"  style="stroke:black; stroke-linecap:round; stroke-width:0.25;"/>
<line x1="159.600000" y1="140.000000" x2="159.600000" y2="140.000000"  style="stroke:black; stroke-linecap:round; stroke-width:0.25;"/>
<line x1="167.600000" y1="104.000000" x2="167.600000" y2="116.000000"  style="stroke:black; stroke-linecap:round; stroke-width:0.25;"/>
<line x1="167.600000" y1="116.000000" x2="167.600000" y2="116.000000"  style="stroke:black; stroke-linecap:round; stroke-width:0.25;"/>
<line x1="167.600000" y1="116.000000" x2="171.600000" y2="116.000000"  style="stroke:black; stroke-linecap:round; stroke-width:0.25;"/>
<line x1="167.600000" y1="124.000000" x2="171.600000" y2="124.000000"  style="stroke:black; stroke-linecap:round; stroke-width:0.25;"/>
<line x1="174.300000" y1="68.000000" x2="178.300000" y2="68.000000"  style="stroke:black; stroke-linecap:round; stroke-width:0.25;"/>
<line x1="178.300000" y1="36.000000" x2="186.300000" y2="36.000000"  style="stroke:black; stroke-linecap:round; stroke-width:0.25;"/>
<line x1="178.300000" y1="56.000000" x2="186.300000" y2="56.000000"  style="stroke:black; stroke-linecap:round; stroke-width:0.25;"/>
<line x1="178.300000" y1="68.000000" x2="178.300000" y2="56.000000"  style="stroke:black; stroke-linecap:round; stroke-width:0.25;"/>
<line x1="178.300000" y1="68.000000" x2="178.300000" y2="68.000000"  style="stroke:black; stroke-linecap:round; stroke-width:0.25;"/>
<line x1="186.300000" y1="36.000000" x2="186.300000" y2="48.000000"  style="stroke:black; stroke-linecap:round; stroke-width:0.25;"/>
<line x1="186.300000" y1="48.000000" x2="186.300000" y2="48.000000"  style="stroke:black; stroke-linecap:round; stroke-width:0.25;"/>
<line x1="186.300000" y1="48.000000" x2="190.300000" y2="48.000000"  style="stroke:black; stroke-linecap:round; stroke-width:0.25;"/>
<line x1="186.300000" y1="56.000000" x2="190.300000" y2="56.000000"  style="stroke:black; stroke-linecap:round; stroke-width:0.25;"/>
<line x1="195.600000" y1="120.000000" x2="199.600000" y2="120.000000"  style="stroke:black; stroke-linecap:round; stroke-width:0.25;"/>
<line x1="199.600000" y1="120.000000" x2="207.600000" y2="120.000000"  style="stroke:black; stroke-linecap:round; stroke-width:0.25;"/>
<line x1="199.600000" y1="140.000000" x2="207.600000" y2="140.000000"  style="stroke:black; stroke-linecap:round; stroke-width:0.25;"/>
<line x1="199.600000" y1="172.000000" x2="199.600000" y2="140.000000"  style="stroke:black; stroke-linecap:round; stroke-width:0.25;"/>
<line x1="199.600000" y1="172.000000" x2="199.600000" y2="172.000000"  style="stroke:black; stroke-linecap:round; stroke-width:0.25;"/>
<line x1="207.600000" y1="120.000000" x2="207.600000" y2="132.000000"  style="stroke:black; stroke-linecap:round; stroke-width:0.25;"/>
<line x1="207.600000" y1="132.000000" x2="207.600000" y2="132.000000"  style="stroke:black; stroke-linecap:round; stroke-width:0.25;"/>
<line x1="207.600000" y1="132.000000" x2="211.600000" y2="132.000000"  style="stroke:black; stroke-linecap:round; stroke-width:0.25;"/>
<line x1="207.600000" y1="140.000000" x2="211.600000" y2="140.000000"  style="stroke:black; stroke-linecap:round; stroke-width:0.25;"/>
<line x1="214.300000" y1="52.000000" x2="218.300000" y2="52.000000"  style="stroke:black; stroke-linecap:round; stroke-width:0.25;"/>
<line x1="218.300000" y1="52.000000" x2="239.600000" y2="52.000000"  style="stroke:black; stroke-linecap:round; stroke-width:0.25;"/>
<line x1="235.600000" y1="136.000000" x2="239.600000" y2="136.000000"  style="stroke:black; stroke-linecap:round; stroke-width:0.25;"/>
<line x1="239.600000" y1="108.000000" x2="247.600000" y2="108.000000"  style="stroke:black; stroke-linecap:round; stroke-width:0.25;"/>
<line x1="239.600000" y1="136.000000" x2="239.600000" y2="108.000000"  style="stroke:black; stroke-linecap:round; stroke-width:0.25;"/>
<line x1="239.600000" y1="136.000000" x2="239.600000" y2="136.000000"  style="stroke:black; stroke-linecap:round; stroke-width:0.25;"/>
<line x1="239.600000" y1="52.000000" x2="247.600000" y2="52.000000"  style="stroke:black; stroke-linecap:round; stroke-width:0.25;"/>
<line x1="247.600000" y1="100.000000" x2="251.600000" y2="100.000000"  style="stroke:black; stroke-linecap:round; stroke-width:0.25;"/>
<line x1="247.600000" y1="108.000000" x2="251.600000" y2="108.000000"  style="stroke:black; stroke-linecap:round; stroke-width:0.25;"/>
<line x1="247.600000" y1="52.000000" x2="247.600000" y2="100.000000"  style="stroke:black; stroke-linecap:round; stroke-width:0.25;"/>
<line x1="247.600000" y1="100.000000" x2="247.600000" y2="100.000000"  style="stroke:black; stroke-linecap:round; stroke-width:0.25;"/>
<line x1="275.600000" y1="104.000000" x2="279.600000" y2="104.000000"  style="stroke:black; stroke-linecap:round; stroke-width:0.25;"/>
<line x1="279.600000" y1="104.000000" x2="279.600000" y2="104.000000"  style="stroke:black; stroke-linecap:round; stroke-width:0.25;"/>
<line x1="279.600000" y1="104.000000" x2="283.600000" y2="104.000000"  style="stroke:black; stroke-linecap:round; stroke-width:0.25;"/>
<line x1="283.600000" y1="104.000000" x2="287.600000" y2="104.000000"  style="stroke:black; stroke-linecap:round; stroke-width:0.25;"/>
<line x1="287.600000" y1="104.000000" x2="297.600000" y2="104.000000"  style="stroke:black; stroke-linecap:round; stroke-width:0.25;"/>
</svg>
