<?xml version="1.0"?>
<svg xmlns="http://www.w3.org/2000/svg" xmlns:xlink="http://www.w3.org/1999/xlink" viewBox="0 0 351.200000 112.000000" width="175.600000mm" height="56.000000mm" version="1.1">
<a xlink:href="process.svg">
<rect x="1.000000" y="1.000000" width="350.200000" height="111.000000" rx="0" ry="0" style="stroke:none;fill:#cccccc;"/>
<rect x="0.000000" y="0.000000" width="350.200000" height="111.000000" rx="0" ry="0" style="stroke:none;fill:#ffffff;"/>
</a>
<text x="10.000000" y="7.000000" font-family="Arial" font-size="7"></text>
<rect x="33.000000" y="45.000000" width="24.000000" height="24.000000" rx="0" ry="0" style="stroke:none;fill:#cccccc;"/>
<rect x="32.000000" y="44.000000" width="24.000000" height="24.000000" rx="0" ry="0" style="stroke:none;fill:#4B71A1;"/>
<text x="44.000000" y="58.000000" font-family="Arial" font-size="7" text-anchor="middle" fill="#FFFFFF">abs</text>
<circle cx="34.000000" cy="46.000000" r="1"/>
<line x1="29.000000" y1="55.000000" x2="32.000000" y2="56.000000"  transform="rotate(0.000000,32.000000,56.000000)" style="stroke: black; stroke-width:0.25;"/>
<line x1="29.000000" y1="57.000000" x2="32.000000" y2="56.000000"  transform="rotate(0.000000,32.000000,56.000000)" style="stroke: black; stroke-width:0.25;"/>
<rect x="101.000000" y="65.000000" width="24.000000" height="24.000000" rx="0" ry="0" style="stroke:none;fill:#cccccc;"/>
<rect x="100.000000" y="64.000000" width="24.000000" height="24.000000" rx="0" ry="0" style="stroke:none;fill:#4B71A1;"/>
<text x="112.000000" y="78.000000" font-family="Arial" font-size="7" text-anchor="middle" fill="#FFFFFF">max</text>
<circle cx="102.000000" cy="66.000000" r="1"/>
<line x1="97.000000" y1="71.000000" x2="100.000000" y2="72.000000"  transform="rotate(0.000000,100.000000,72.000000)" style="stroke: black; stroke-width:0.25;"/>
<line x1="97.000000" y1="73.000000" x2="100.000000" y2="72.000000"  transform="rotate(0.000000,100.000000,72.000000)" style="stroke: black; stroke-width:0.25;"/>
<line x1="97.000000" y1="79.000000" x2="100.000000" y2="80.000000"  transform="rotate(0.000000,100.000000,80.000000)" style="stroke: black; stroke-width:0.25;"/>
<line x1="97.000000" y1="81.000000" x2="100.000000" y2="80.000000"  transform="rotate(0.000000,100.000000,80.000000)" style="stroke: black; stroke-width:0.25;"/>
<a xlink:href="T-0x31776f0.svg">
<rect x="121.000000" y="25.000000" width="24.000000" height="24.000000" rx="0" ry="0" style="stroke:none;fill:#cccccc;"/>
<rect x="120.000000" y="24.000000" width="24.000000" height="24.000000" rx="0" ry="0" style="stroke:none;fill:#003366;"/>
</a>
<a xlink:href="T-0x31776f0.svg">
<text x="132.000000" y="38.000000" font-family="Arial" font-size="7" text-anchor="middle" fill="#FFFFFF">T</text>
</a>
<circle cx="142.000000" cy="46.000000" r="1"/>
<rect x="81.000000" y="29.000000" width="24.000000" height="24.000000" rx="0" ry="0" style="stroke:none;fill:#cccccc;"/>
<rect x="80.000000" y="28.000000" width="24.000000" height="24.000000" rx="0" ry="0" style="stroke:none;fill:#4B71A1;"/>
<text x="92.000000" y="42.000000" font-family="Arial" font-size="7" text-anchor="middle" fill="#FFFFFF">-</text>
<circle cx="102.000000" cy="50.000000" r="1"/>
<line x1="107.000000" y1="43.000000" x2="104.000000" y2="44.000000"  transform="rotate(0.000000,104.000000,44.000000)" style="stroke: black; stroke-width:0.25;"/>
<line x1="107.000000" y1="45.000000" x2="104.000000" y2="44.000000"  transform="rotate(0.000000,104.000000,44.000000)" style="stroke: black; stroke-width:0.25;"/>
<line x1="107.000000" y1="35.000000" x2="104.000000" y2="36.000000"  transform="rotate(0.000000,104.000000,36.000000)" style="stroke: black; stroke-width:0.25;"/>
<line x1="107.000000" y1="37.000000" x2="104.000000" y2="36.000000"  transform="rotate(0.000000,104.000000,36.000000)" style="stroke: black; stroke-width:0.25;"/>
<line x1="146.000000" y1="76.000000" x2="146.000000" y2="72.000000"  style="stroke:black; stroke-linecap:round; stroke-width:0.25;"/>
<line x1="146.000000" y1="72.000000" x2="150.000000" y2="72.000000"  style="stroke:black; stroke-linecap:round; stroke-width:0.25;"/>
<line x1="150.000000" y1="72.000000" x2="150.000000" y2="76.000000"  style="stroke:black; stroke-linecap:round; stroke-width:0.25;"/>
<a xlink:href="db2linear-0x3176cb0.svg">
<rect x="169.000000" y="41.000000" width="64.500000" height="24.000000" rx="0" ry="0" style="stroke:none;fill:#cccccc;"/>
<rect x="168.000000" y="40.000000" width="64.500000" height="24.000000" rx="0" ry="0" style="stroke:none;fill:#003366;"/>
</a>
<a xlink:href="db2linear-0x3176cb0.svg">
<text x="200.250000" y="54.000000" font-family="Arial" font-size="7" text-anchor="middle" fill="#FFFFFF">db2linear(-70)</text>
</a>
<circle cx="170.000000" cy="42.000000" r="1"/>
<rect x="249.500000" y="45.000000" width="24.000000" height="24.000000" rx="0" ry="0" style="stroke:none;fill:#cccccc;"/>
<rect x="248.500000" y="44.000000" width="24.000000" height="24.000000" rx="0" ry="0" style="stroke:none;fill:#4B71A1;"/>
<text x="260.500000" y="58.000000" font-family="Arial" font-size="7" text-anchor="middle" fill="#FFFFFF">max</text>
<circle cx="250.500000" cy="46.000000" r="1"/>
<line x1="245.500000" y1="51.000000" x2="248.500000" y2="52.000000"  transform="rotate(0.000000,248.500000,52.000000)" style="stroke: black; stroke-width:0.25;"/>
<line x1="245.500000" y1="53.000000" x2="248.500000" y2="52.000000"  transform="rotate(0.000000,248.500000,52.000000)" style="stroke: black; stroke-width:0.25;"/>
<line x1="245.500000" y1="59.000000" x2="248.500000" y2="60.000000"  transform="rotate(0.000000,248.500000,60.000000)" style="stroke: black; stroke-width:0.25;"/>
<line x1="245.500000" y1="61.000000" x2="248.500000" y2="60.000000"  transform="rotate(0.000000,248.500000,60.000000)" style="stroke: black; stroke-width:0.25;"/>
<a xlink:href="linear2db-0x27432770.svg">
<rect x="281.500000" y="45.000000" width="38.700000" height="24.000000" rx="0" ry="0" style="stroke:none;fill:#cccccc;"/>
<rect x="280.500000" y="44.000000" width="38.700000" height="24.000000" rx="0" ry="0" style="stroke:none;fill:#003366;"/>
</a>
<a xlink:href="linear2db-0x27432770.svg">
<text x="299.850000" y="58.000000" font-family="Arial" font-size="7" text-anchor="middle" fill="#FFFFFF">linear2db</text>
</a>
<circle cx="282.500000" cy="46.000000" r="1"/>
<line x1="277.500000" y1="55.000000" x2="280.500000" y2="56.000000"  transform="rotate(0.000000,280.500000,56.000000)" style="stroke: black; stroke-width:0.25;"/>
<line x1="277.500000" y1="57.000000" x2="280.500000" y2="56.000000"  transform="rotate(0.000000,280.500000,56.000000)" style="stroke: black; stroke-width:0.25;"/>
<line x1="15.000000" y1="15.000000" x2="15.000000" y2="97.000000"  style="stroke: black; stroke-linecap:round; stroke-width:0.25; stroke-dasharray:3,3;"/>
<line x1="15.000000" y1="97.000000" x2="336.200000" y2="97.000000"  style="stroke: black; stroke-linecap:round; stroke-width:0.25; stroke-dasharray:3,3;"/>
<line x1="336.200000" y1="97.000000" x2="336.200000" y2="15.000000"  style="stroke: black; stroke-linecap:round; stroke-width:0.25; stroke-dasharray:3,3;"/>
<line x1="15.000000" y1="15.000000" x2="20.000000" y2="15.000000"  style="stroke: black; stroke-linecap:round; stroke-width:0.25; stroke-dasharray:3,3;"/>
<line x1="49.025000" y1="15.000000" x2="336.200000" y2="15.000000"  style="stroke: black; stroke-linecap:round; stroke-width:0.25; stroke-dasharray:3,3;"/>
<text x="20.000000" y="17.000000" font-family="Arial" font-size="7">envelop</text>
<line x1="338.200000" y1="55.000000" x2="341.200000" y2="56.000000"  transform="rotate(0.000000,341.200000,56.000000)" style="stroke: black; stroke-width:0.25;"/>
<line x1="338.200000" y1="57.000000" x2="341.200000" y2="56.000000"  transform="rotate(0.000000,341.200000,56.000000)" style="stroke: black; stroke-width:0.25;"/>
<line x1="10.000000" y1="56.000000" x2="20.000000" y2="56.000000"  style="stroke:black; stroke-linecap:round; stroke-width:0.25;"/>
<line x1="20.000000" y1="56.000000" x2="24.000000" y2="56.000000"  style="stroke:black; stroke-linecap:round; stroke-width:0.25;"/>
<line x1="24.000000" y1="56.000000" x2="28.000000" y2="56.000000"  style="stroke:black; stroke-linecap:round; stroke-width:0.25;"/>
<line x1="28.000000" y1="56.000000" x2="28.000000" y2="56.000000"  style="stroke:black; stroke-linecap:round; stroke-width:0.25;"/>
<line x1="28.000000" y1="56.000000" x2="32.000000" y2="56.000000"  style="stroke:black; stroke-linecap:round; stroke-width:0.25;"/>
<line x1="56.000000" y1="56.000000" x2="60.000000" y2="56.000000"  style="stroke:black; stroke-linecap:round; stroke-width:0.25;"/>
<line x1="60.000000" y1="56.000000" x2="68.000000" y2="56.000000"  style="stroke:black; stroke-linecap:round; stroke-width:0.25;"/>
<line x1="68.000000" y1="56.000000" x2="68.000000" y2="80.000000"  style="stroke:black; stroke-linecap:round; stroke-width:0.25;"/>
<line x1="68.000000" y1="80.000000" x2="68.000000" y2="80.000000"  style="stroke:black; stroke-linecap:round; stroke-width:0.25;"/>
<line x1="68.000000" y1="80.000000" x2="76.000000" y2="80.000000"  style="stroke:black; stroke-linecap:round; stroke-width:0.25;"/>
<line x1="76.000000" y1="40.000000" x2="76.000000" y2="40.000000"  style="stroke:black; stroke-linecap:round; stroke-width:0.25;"/>
<line x1="76.000000" y1="40.000000" x2="76.000000" y2="72.000000"  style="stroke:black; stroke-linecap:round; stroke-width:0.25;"/>
<line x1="76.000000" y1="72.000000" x2="76.000000" y2="72.000000"  style="stroke:black; stroke-linecap:round; stroke-width:0.25;"/>
<line x1="76.000000" y1="72.000000" x2="96.000000" y2="72.000000"  style="stroke:black; stroke-linecap:round; stroke-width:0.25;"/>
<line x1="76.000000" y1="80.000000" x2="96.000000" y2="80.000000"  style="stroke:black; stroke-linecap:round; stroke-width:0.25;"/>
<line x1="80.000000" y1="40.000000" x2="76.000000" y2="40.000000"  style="stroke:black; stroke-linecap:round; stroke-width:0.25;"/>
<line x1="96.000000" y1="72.000000" x2="100.000000" y2="72.000000"  style="stroke:black; stroke-linecap:round; stroke-width:0.25;"/>
<line x1="96.000000" y1="80.000000" x2="100.000000" y2="80.000000"  style="stroke:black; stroke-linecap:round; stroke-width:0.25;"/>
<line x1="108.000000" y1="36.000000" x2="104.000000" y2="36.000000"  style="stroke:black; stroke-linecap:round; stroke-width:0.25;"/>
<line x1="108.000000" y1="44.000000" x2="104.000000" y2="44.000000"  style="stroke:black; stroke-linecap:round; stroke-width:0.25;"/>
<line x1="108.000000" y1="44.000000" x2="108.000000" y2="44.000000"  style="stroke:black; stroke-linecap:round; stroke-width:0.25;"/>
<line x1="108.000000" y1="56.000000" x2="108.000000" y2="44.000000"  style="stroke:black; stroke-linecap:round; stroke-width:0.25;"/>
<line x1="116.000000" y1="36.000000" x2="108.000000" y2="36.000000"  style="stroke:black; stroke-linecap:round; stroke-width:0.25;"/>
<line x1="116.000000" y1="56.000000" x2="108.000000" y2="56.000000"  style="stroke:black; stroke-linecap:round; stroke-width:0.25;"/>
<line x1="120.000000" y1="36.000000" x2="116.000000" y2="36.000000"  style="stroke:black; stroke-linecap:round; stroke-width:0.25;"/>
<line x1="124.000000" y1="76.000000" x2="128.000000" y2="76.000000"  style="stroke:black; stroke-linecap:round; stroke-width:0.25;"/>
<line x1="128.000000" y1="76.000000" x2="148.000000" y2="76.000000"  style="stroke:black; stroke-linecap:round; stroke-width:0.25;"/>
<line x1="132.000000" y1="56.000000" x2="116.000000" y2="56.000000"  style="stroke:black; stroke-linecap:round; stroke-width:0.25;"/>
<line x1="148.000000" y1="56.000000" x2="132.000000" y2="56.000000"  style="stroke:black; stroke-linecap:round; stroke-width:0.25;"/>
<line x1="148.000000" y1="56.000000" x2="148.000000" y2="56.000000"  style="stroke:black; stroke-linecap:round; stroke-width:0.25;"/>
<line x1="148.000000" y1="72.000000" x2="148.000000" y2="56.000000"  style="stroke:black; stroke-linecap:round; stroke-width:0.25;"/>
<line x1="148.000000" y1="76.000000" x2="150.000000" y2="76.000000"  style="stroke:black; stroke-linecap:round; stroke-width:0.25;"/>
<line x1="150.000000" y1="76.000000" x2="156.000000" y2="76.000000"  style="stroke:black; stroke-linecap:round; stroke-width:0.25;"/>
<line x1="156.000000" y1="72.000000" x2="164.000000" y2="72.000000"  style="stroke:black; stroke-linecap:round; stroke-width:0.25;"/>
<line x1="156.000000" y1="76.000000" x2="156.000000" y2="72.000000"  style="stroke:black; stroke-linecap:round; stroke-width:0.25;"/>
<line x1="156.000000" y1="76.000000" x2="156.000000" y2="76.000000"  style="stroke:black; stroke-linecap:round; stroke-width:0.25;"/>
<line x1="164.000000" y1="72.000000" x2="200.250000" y2="72.000000"  style="stroke:black; stroke-linecap:round; stroke-width:0.25;"/>
<line x1="200.250000" y1="72.000000" x2="236.500000" y2="72.000000"  style="stroke:black; stroke-linecap:round; stroke-width:0.25;"/>
<line x1="232.500000" y1="52.000000" x2="236.500000" y2="52.000000"  style="stroke:black; stroke-linecap:round; stroke-width:0.25;"/>
<line x1="236.500000" y1="52.000000" x2="244.500000" y2="52.000000"  style="stroke:black; stroke-linecap:round; stroke-width:0.25;"/>
<line x1="236.500000" y1="60.000000" x2="244.500000" y2="60.000000"  style="stroke:black; stroke-linecap:round; stroke-width:0.25;"/>
<line x1="236.500000" y1="72.000000" x2="236.500000" y2="60.000000"  style="stroke:black; stroke-linecap:round; stroke-width:0.25;"/>
<line x1="236.500000" y1="72.000000" x2="236.500000" y2="72.000000"  style="stroke:black; stroke-linecap:round; stroke-width:0.25;"/>
<line x1="244.500000" y1="52.000000" x2="248.500000" y2="52.000000"  style="stroke:black; stroke-linecap:round; stroke-width:0.25;"/>
<line x1="244.500000" y1="60.000000" x2="248.500000" y2="60.000000"  style="stroke:black; stroke-linecap:round; stroke-width:0.25;"/>
<line x1="272.500000" y1="56.000000" x2="276.500000" y2="56.000000"  style="stroke:black; stroke-linecap:round; stroke-width:0.25;"/>
<line x1="276.500000" y1="56.000000" x2="276.500000" y2="56.000000"  style="stroke:black; stroke-linecap:round; stroke-width:0.25;"/>
<line x1="276.500000" y1="56.000000" x2="280.500000" y2="56.000000"  style="stroke:black; stroke-linecap:round; stroke-width:0.25;"/>
<line x1="319.200000" y1="56.000000" x2="323.200000" y2="56.000000"  style="stroke:black; stroke-linecap:round; stroke-width:0.25;"/>
<line x1="323.200000" y1="56.000000" x2="323.200000" y2="56.000000"  style="stroke:black; stroke-linecap:round; stroke-width:0.25;"/>
<line x1="323.200000" y1="56.000000" x2="327.200000" y2="56.000000"  style="stroke:black; stroke-linecap:round; stroke-width:0.25;"/>
<line x1="327.200000" y1="56.000000" x2="331.200000" y2="56.000000"  style="stroke:black; stroke-linecap:round; stroke-width:0.25;"/>
<line x1="331.200000" y1="56.000000" x2="341.200000" y2="56.000000"  style="stroke:black; stroke-linecap:round; stroke-width:0.25;"/>
</svg>
