<?xml version="1.0"?>
<svg xmlns="http://www.w3.org/2000/svg" xmlns:xlink="http://www.w3.org/1999/xlink" viewBox="0 0 290.800000 232.000000" width="145.400000mm" height="116.000000mm" version="1.1">
<a xlink:href="fof-0x27382540.svg">
<rect x="1.000000" y="1.000000" width="289.800000" height="231.000000" rx="0" ry="0" style="stroke:none;fill:#cccccc;"/>
<rect x="0.000000" y="0.000000" width="289.800000" height="231.000000" rx="0" ry="0" style="stroke:none;fill:#ffffff;"/>
</a>
<text x="10.000000" y="7.000000" font-family="Arial" font-size="7"></text>
<a xlink:href="phasedFund-0x27429320.svg">
<rect x="56.600000" y="25.000000" width="51.600000" height="24.000000" rx="0" ry="0" style="stroke:none;fill:#cccccc;"/>
<rect x="55.600000" y="24.000000" width="51.600000" height="24.000000" rx="0" ry="0" style="stroke:none;fill:#003366;"/>
</a>
<a xlink:href="phasedFund-0x27429320.svg">
<text x="81.400000" y="38.000000" font-family="Arial" font-size="7" text-anchor="middle" fill="#FFFFFF">phasedFund</text>
</a>
<circle cx="57.600000" cy="26.000000" r="1"/>
<rect x="54.400000" y="57.000000" width="24.000000" height="24.000000" rx="0" ry="0" style="stroke:none;fill:#cccccc;"/>
<rect x="53.400000" y="56.000000" width="24.000000" height="24.000000" rx="0" ry="0" style="stroke:none;fill:#47945E;"/>
<text x="65.400000" y="70.000000" font-family="Arial" font-size="7" text-anchor="middle" fill="#FFFFFF">k1</text>
<circle cx="55.400000" cy="58.000000" r="1"/>
<rect x="86.400000" y="57.000000" width="24.000000" height="24.000000" rx="0" ry="0" style="stroke:none;fill:#cccccc;"/>
<rect x="85.400000" y="56.000000" width="24.000000" height="24.000000" rx="0" ry="0" style="stroke:none;fill:#4B71A1;"/>
<text x="97.400000" y="70.000000" font-family="Arial" font-size="7" text-anchor="middle" fill="#FFFFFF">int</text>
<circle cx="87.400000" cy="58.000000" r="1"/>
<line x1="82.400000" y1="67.000000" x2="85.400000" y2="68.000000"  transform="rotate(0.000000,85.400000,68.000000)" style="stroke: black; stroke-width:0.25;"/>
<line x1="82.400000" y1="69.000000" x2="85.400000" y2="68.000000"  transform="rotate(0.000000,85.400000,68.000000)" style="stroke: black; stroke-width:0.25;"/>
<rect x="126.400000" y="41.000000" width="24.000000" height="24.000000" rx="0" ry="0" style="stroke:none;fill:#cccccc;"/>
<rect x="125.400000" y="40.000000" width="24.000000" height="24.000000" rx="0" ry="0" style="stroke:none;fill:#4B71A1;"/>
<text x="137.400000" y="54.000000" font-family="Arial" font-size="7" text-anchor="middle" fill="#FFFFFF">&lt;</text>
<circle cx="127.400000" cy="42.000000" r="1"/>
<line x1="122.400000" y1="47.000000" x2="125.400000" y2="48.000000"  transform="rotate(0.000000,125.400000,48.000000)" style="stroke: black; stroke-width:0.25;"/>
<line x1="122.400000" y1="49.000000" x2="125.400000" y2="48.000000"  transform="rotate(0.000000,125.400000,48.000000)" style="stroke: black; stroke-width:0.25;"/>
<line x1="122.400000" y1="55.000000" x2="125.400000" y2="56.000000"  transform="rotate(0.000000,125.400000,56.000000)" style="stroke: black; stroke-width:0.25;"/>
<line x1="122.400000" y1="57.000000" x2="125.400000" y2="56.000000"  transform="rotate(0.000000,125.400000,56.000000)" style="stroke: black; stroke-width:0.25;"/>
<a xlink:href="fofAttack-0x2742a1e0.svg">
<rect x="25.000000" y="89.000000" width="154.800000" height="24.000000" rx="0" ry="0" style="stroke:none;fill:#cccccc;"/>
<rect x="24.000000" y="88.000000" width="154.800000" height="24.000000" rx="0" ry="0" style="stroke:none;fill:#003366;"/>
</a>
<a xlink:href="fofAttack-0x2742a1e0.svg">
<text x="101.400000" y="102.000000" font-family="Arial" font-size="7" text-anchor="middle" fill="#FFFFFF">fofAttack((((...: float) : /)(x1120)</text>
</a>
<circle cx="26.000000" cy="90.000000" r="1"/>
<rect x="195.800000" y="57.000000" width="24.000000" height="24.000000" rx="0" ry="0" style="stroke:none;fill:#cccccc;"/>
<rect x="194.800000" y="56.000000" width="24.000000" height="24.000000" rx="0" ry="0" style="stroke:none;fill:#4B71A1;"/>
<text x="206.800000" y="70.000000" font-family="Arial" font-size="7" text-anchor="middle" fill="#FFFFFF">*</text>
<circle cx="196.800000" cy="58.000000" r="1"/>
<line x1="191.800000" y1="63.000000" x2="194.800000" y2="64.000000"  transform="rotate(0.000000,194.800000,64.000000)" style="stroke: black; stroke-width:0.25;"/>
<line x1="191.800000" y1="65.000000" x2="194.800000" y2="64.000000"  transform="rotate(0.000000,194.800000,64.000000)" style="stroke: black; stroke-width:0.25;"/>
<line x1="191.800000" y1="71.000000" x2="194.800000" y2="72.000000"  transform="rotate(0.000000,194.800000,72.000000)" style="stroke: black; stroke-width:0.25;"/>
<line x1="191.800000" y1="73.000000" x2="194.800000" y2="72.000000"  transform="rotate(0.000000,194.800000,72.000000)" style="stroke: black; stroke-width:0.25;"/>
<a xlink:href="phasedFund-0x27429320.svg">
<rect x="56.600000" y="121.000000" width="51.600000" height="24.000000" rx="0" ry="0" style="stroke:none;fill:#cccccc;"/>
<rect x="55.600000" y="120.000000" width="51.600000" height="24.000000" rx="0" ry="0" style="stroke:none;fill:#003366;"/>
</a>
<a xlink:href="phasedFund-0x27429320.svg">
<text x="81.400000" y="134.000000" font-family="Arial" font-size="7" text-anchor="middle" fill="#FFFFFF">phasedFund</text>
</a>
<circle cx="57.600000" cy="122.000000" r="1"/>
<rect x="54.400000" y="153.000000" width="24.000000" height="24.000000" rx="0" ry="0" style="stroke:none;fill:#cccccc;"/>
<rect x="53.400000" y="152.000000" width="24.000000" height="24.000000" rx="0" ry="0" style="stroke:none;fill:#47945E;"/>
<text x="65.400000" y="166.000000" font-family="Arial" font-size="7" text-anchor="middle" fill="#FFFFFF">k1</text>
<circle cx="55.400000" cy="154.000000" r="1"/>
<rect x="86.400000" y="153.000000" width="24.000000" height="24.000000" rx="0" ry="0" style="stroke:none;fill:#cccccc;"/>
<rect x="85.400000" y="152.000000" width="24.000000" height="24.000000" rx="0" ry="0" style="stroke:none;fill:#4B71A1;"/>
<text x="97.400000" y="166.000000" font-family="Arial" font-size="7" text-anchor="middle" fill="#FFFFFF">int</text>
<circle cx="87.400000" cy="154.000000" r="1"/>
<line x1="82.400000" y1="163.000000" x2="85.400000" y2="164.000000"  transform="rotate(0.000000,85.400000,164.000000)" style="stroke: black; stroke-width:0.25;"/>
<line x1="82.400000" y1="165.000000" x2="85.400000" y2="164.000000"  transform="rotate(0.000000,85.400000,164.000000)" style="stroke: black; stroke-width:0.25;"/>
<rect x="126.400000" y="137.000000" width="24.000000" height="24.000000" rx="0" ry="0" style="stroke:none;fill:#cccccc;"/>
<rect x="125.400000" y="136.000000" width="24.000000" height="24.000000" rx="0" ry="0" style="stroke:none;fill:#4B71A1;"/>
<text x="137.400000" y="150.000000" font-family="Arial" font-size="7" text-anchor="middle" fill="#FFFFFF">&gt;=</text>
<circle cx="127.400000" cy="138.000000" r="1"/>
<line x1="122.400000" y1="143.000000" x2="125.400000" y2="144.000000"  transform="rotate(0.000000,125.400000,144.000000)" style="stroke: black; stroke-width:0.25;"/>
<line x1="122.400000" y1="145.000000" x2="125.400000" y2="144.000000"  transform="rotate(0.000000,125.400000,144.000000)" style="stroke: black; stroke-width:0.25;"/>
<line x1="122.400000" y1="151.000000" x2="125.400000" y2="152.000000"  transform="rotate(0.000000,125.400000,152.000000)" style="stroke: black; stroke-width:0.25;"/>
<line x1="122.400000" y1="153.000000" x2="125.400000" y2="152.000000"  transform="rotate(0.000000,125.400000,152.000000)" style="stroke: black; stroke-width:0.25;"/>
<a xlink:href="fofRemainder-0x2742a680.svg">
<rect x="25.000000" y="185.000000" width="154.800000" height="24.000000" rx="0" ry="0" style="stroke:none;fill:#cccccc;"/>
<rect x="24.000000" y="184.000000" width="154.800000" height="24.000000" rx="0" ry="0" style="stroke:none;fill:#003366;"/>
</a>
<a xlink:href="fofRemainder-0x2742a680.svg">
<text x="101.400000" y="198.000000" font-family="Arial" font-size="7" text-anchor="middle" fill="#FFFFFF">fofRemainder(...x1119)(x1124)(x1120)</text>
</a>
<circle cx="26.000000" cy="186.000000" r="1"/>
<rect x="195.800000" y="153.000000" width="24.000000" height="24.000000" rx="0" ry="0" style="stroke:none;fill:#cccccc;"/>
<rect x="194.800000" y="152.000000" width="24.000000" height="24.000000" rx="0" ry="0" style="stroke:none;fill:#4B71A1;"/>
<text x="206.800000" y="166.000000" font-family="Arial" font-size="7" text-anchor="middle" fill="#FFFFFF">*</text>
<circle cx="196.800000" cy="154.000000" r="1"/>
<line x1="191.800000" y1="159.000000" x2="194.800000" y2="160.000000"  transform="rotate(0.000000,194.800000,160.000000)" style="stroke: black; stroke-width:0.25;"/>
<line x1="191.800000" y1="161.000000" x2="194.800000" y2="160.000000"  transform="rotate(0.000000,194.800000,160.000000)" style="stroke: black; stroke-width:0.25;"/>
<line x1="191.800000" y1="167.000000" x2="194.800000" y2="168.000000"  transform="rotate(0.000000,194.800000,168.000000)" style="stroke: black; stroke-width:0.25;"/>
<line x1="191.800000" y1="169.000000" x2="194.800000" y2="168.000000"  transform="rotate(0.000000,194.800000,168.000000)" style="stroke: black; stroke-width:0.25;"/>
<rect x="235.800000" y="105.000000" width="24.000000" height="24.000000" rx="0" ry="0" style="stroke:none;fill:#cccccc;"/>
<rect x="234.800000" y="104.000000" width="24.000000" height="24.000000" rx="0" ry="0" style="stroke:none;fill:#4B71A1;"/>
<text x="246.800000" y="118.000000" font-family="Arial" font-size="7" text-anchor="middle" fill="#FFFFFF">+</text>
<circle cx="236.800000" cy="106.000000" r="1"/>
<line x1="231.800000" y1="111.000000" x2="234.800000" y2="112.000000"  transform="rotate(0.000000,234.800000,112.000000)" style="stroke: black; stroke-width:0.25;"/>
<line x1="231.800000" y1="113.000000" x2="234.800000" y2="112.000000"  transform="rotate(0.000000,234.800000,112.000000)" style="stroke: black; stroke-width:0.25;"/>
<line x1="231.800000" y1="119.000000" x2="234.800000" y2="120.000000"  transform="rotate(0.000000,234.800000,120.000000)" style="stroke: black; stroke-width:0.25;"/>
<line x1="231.800000" y1="121.000000" x2="234.800000" y2="120.000000"  transform="rotate(0.000000,234.800000,120.000000)" style="stroke: black; stroke-width:0.25;"/>
<line x1="15.000000" y1="15.000000" x2="15.000000" y2="217.000000"  style="stroke: black; stroke-linecap:round; stroke-width:0.25; stroke-dasharray:3,3;"/>
<line x1="15.000000" y1="217.000000" x2="275.800000" y2="217.000000"  style="stroke: black; stroke-linecap:round; stroke-width:0.25; stroke-dasharray:3,3;"/>
<line x1="275.800000" y1="217.000000" x2="275.800000" y2="15.000000"  style="stroke: black; stroke-linecap:round; stroke-width:0.25; stroke-dasharray:3,3;"/>
<line x1="15.000000" y1="15.000000" x2="20.000000" y2="15.000000"  style="stroke: black; stroke-linecap:round; stroke-width:0.25; stroke-dasharray:3,3;"/>
<line x1="142.550000" y1="15.000000" x2="275.800000" y2="15.000000"  style="stroke: black; stroke-linecap:round; stroke-width:0.25; stroke-dasharray:3,3;"/>
<text x="20.000000" y="17.000000" font-family="Arial" font-size="7">fofPart((((x1...x1119)(x1124)(x1120)</text>
<line x1="277.800000" y1="115.000000" x2="280.800000" y2="116.000000"  transform="rotate(0.000000,280.800000,116.000000)" style="stroke: black; stroke-width:0.25;"/>
<line x1="277.800000" y1="117.000000" x2="280.800000" y2="116.000000"  transform="rotate(0.000000,280.800000,116.000000)" style="stroke: black; stroke-width:0.25;"/>
<line x1="77.400000" y1="68.000000" x2="81.400000" y2="68.000000"  style="stroke:black; stroke-linecap:round; stroke-width:0.25;"/>
<line x1="77.400000" y1="164.000000" x2="81.400000" y2="164.000000"  style="stroke:black; stroke-linecap:round; stroke-width:0.25;"/>
<line x1="81.400000" y1="68.000000" x2="81.400000" y2="68.000000"  style="stroke:black; stroke-linecap:round; stroke-width:0.25;"/>
<line x1="81.400000" y1="68.000000" x2="85.400000" y2="68.000000"  style="stroke:black; stroke-linecap:round; stroke-width:0.25;"/>
<line x1="81.400000" y1="164.000000" x2="81.400000" y2="164.000000"  style="stroke:black; stroke-linecap:round; stroke-width:0.25;"/>
<line x1="81.400000" y1="164.000000" x2="85.400000" y2="164.000000"  style="stroke:black; stroke-linecap:round; stroke-width:0.25;"/>
<line x1="107.200000" y1="36.000000" x2="111.200000" y2="36.000000"  style="stroke:black; stroke-linecap:round; stroke-width:0.25;"/>
<line x1="107.200000" y1="132.000000" x2="111.200000" y2="132.000000"  style="stroke:black; stroke-linecap:round; stroke-width:0.25;"/>
<line x1="109.400000" y1="68.000000" x2="113.400000" y2="68.000000"  style="stroke:black; stroke-linecap:round; stroke-width:0.25;"/>
<line x1="109.400000" y1="164.000000" x2="113.400000" y2="164.000000"  style="stroke:black; stroke-linecap:round; stroke-width:0.25;"/>
<line x1="111.200000" y1="36.000000" x2="113.400000" y2="36.000000"  style="stroke:black; stroke-linecap:round; stroke-width:0.25;"/>
<line x1="111.200000" y1="132.000000" x2="113.400000" y2="132.000000"  style="stroke:black; stroke-linecap:round; stroke-width:0.25;"/>
<line x1="113.400000" y1="36.000000" x2="121.400000" y2="36.000000"  style="stroke:black; stroke-linecap:round; stroke-width:0.25;"/>
<line x1="113.400000" y1="56.000000" x2="121.400000" y2="56.000000"  style="stroke:black; stroke-linecap:round; stroke-width:0.25;"/>
<line x1="113.400000" y1="68.000000" x2="113.400000" y2="56.000000"  style="stroke:black; stroke-linecap:round; stroke-width:0.25;"/>
<line x1="113.400000" y1="68.000000" x2="113.400000" y2="68.000000"  style="stroke:black; stroke-linecap:round; stroke-width:0.25;"/>
<line x1="113.400000" y1="132.000000" x2="121.400000" y2="132.000000"  style="stroke:black; stroke-linecap:round; stroke-width:0.25;"/>
<line x1="113.400000" y1="152.000000" x2="121.400000" y2="152.000000"  style="stroke:black; stroke-linecap:round; stroke-width:0.25;"/>
<line x1="113.400000" y1="164.000000" x2="113.400000" y2="152.000000"  style="stroke:black; stroke-linecap:round; stroke-width:0.25;"/>
<line x1="113.400000" y1="164.000000" x2="113.400000" y2="164.000000"  style="stroke:black; stroke-linecap:round; stroke-width:0.25;"/>
<line x1="121.400000" y1="36.000000" x2="121.400000" y2="48.000000"  style="stroke:black; stroke-linecap:round; stroke-width:0.25;"/>
<line x1="121.400000" y1="48.000000" x2="121.400000" y2="48.000000"  style="stroke:black; stroke-linecap:round; stroke-width:0.25;"/>
<line x1="121.400000" y1="48.000000" x2="125.400000" y2="48.000000"  style="stroke:black; stroke-linecap:round; stroke-width:0.25;"/>
<line x1="121.400000" y1="56.000000" x2="125.400000" y2="56.000000"  style="stroke:black; stroke-linecap:round; stroke-width:0.25;"/>
<line x1="121.400000" y1="132.000000" x2="121.400000" y2="144.000000"  style="stroke:black; stroke-linecap:round; stroke-width:0.25;"/>
<line x1="121.400000" y1="144.000000" x2="121.400000" y2="144.000000"  style="stroke:black; stroke-linecap:round; stroke-width:0.25;"/>
<line x1="121.400000" y1="144.000000" x2="125.400000" y2="144.000000"  style="stroke:black; stroke-linecap:round; stroke-width:0.25;"/>
<line x1="121.400000" y1="152.000000" x2="125.400000" y2="152.000000"  style="stroke:black; stroke-linecap:round; stroke-width:0.25;"/>
<line x1="149.400000" y1="52.000000" x2="153.400000" y2="52.000000"  style="stroke:black; stroke-linecap:round; stroke-width:0.25;"/>
<line x1="149.400000" y1="148.000000" x2="153.400000" y2="148.000000"  style="stroke:black; stroke-linecap:round; stroke-width:0.25;"/>
<line x1="153.400000" y1="52.000000" x2="182.800000" y2="52.000000"  style="stroke:black; stroke-linecap:round; stroke-width:0.25;"/>
<line x1="153.400000" y1="148.000000" x2="182.800000" y2="148.000000"  style="stroke:black; stroke-linecap:round; stroke-width:0.25;"/>
<line x1="178.800000" y1="100.000000" x2="182.800000" y2="100.000000"  style="stroke:black; stroke-linecap:round; stroke-width:0.25;"/>
<line x1="178.800000" y1="196.000000" x2="182.800000" y2="196.000000"  style="stroke:black; stroke-linecap:round; stroke-width:0.25;"/>
<line x1="182.800000" y1="52.000000" x2="190.800000" y2="52.000000"  style="stroke:black; stroke-linecap:round; stroke-width:0.25;"/>
<line x1="182.800000" y1="148.000000" x2="190.800000" y2="148.000000"  style="stroke:black; stroke-linecap:round; stroke-width:0.25;"/>
<line x1="182.800000" y1="72.000000" x2="190.800000" y2="72.000000"  style="stroke:black; stroke-linecap:round; stroke-width:0.25;"/>
<line x1="182.800000" y1="100.000000" x2="182.800000" y2="72.000000"  style="stroke:black; stroke-linecap:round; stroke-width:0.25;"/>
<line x1="182.800000" y1="100.000000" x2="182.800000" y2="100.000000"  style="stroke:black; stroke-linecap:round; stroke-width:0.25;"/>
<line x1="182.800000" y1="168.000000" x2="190.800000" y2="168.000000"  style="stroke:black; stroke-linecap:round; stroke-width:0.25;"/>
<line x1="182.800000" y1="196.000000" x2="182.800000" y2="168.000000"  style="stroke:black; stroke-linecap:round; stroke-width:0.25;"/>
<line x1="182.800000" y1="196.000000" x2="182.800000" y2="196.000000"  style="stroke:black; stroke-linecap:round; stroke-width:0.25;"/>
<line x1="190.800000" y1="52.000000" x2="190.800000" y2="64.000000"  style="stroke:black; stroke-linecap:round; stroke-width:0.25;"/>
<line x1="190.800000" y1="64.000000" x2="190.800000" y2="64.000000"  style="stroke:black; stroke-linecap:round; stroke-width:0.25;"/>
<line x1="190.800000" y1="148.000000" x2="190.800000" y2="160.000000"  style="stroke:black; stroke-linecap:round; stroke-width:0.25;"/>
<line x1="190.800000" y1="160.000000" x2="190.800000" y2="160.000000"  style="stroke:black; stroke-linecap:round; stroke-width:0.25;"/>
<line x1="190.800000" y1="64.000000" x2="194.800000" y2="64.000000"  style="stroke:black; stroke-linecap:round; stroke-width:0.25;"/>
<line x1="190.800000" y1="72.000000" x2="194.800000" y2="72.000000"  style="stroke:black; stroke-linecap:round; stroke-width:0.25;"/>
<line x1="190.800000" y1="160.000000" x2="194.800000" y2="160.000000"  style="stroke:black; stroke-linecap:round; stroke-width:0.25;"/>
<line x1="190.800000" y1="168.000000" x2="194.800000" y2="168.000000"  style="stroke:black; stroke-linecap:round; stroke-width:0.25;"/>
<line x1="218.800000" y1="68.000000" x2="222.800000" y2="68.000000"  style="stroke:black; stroke-linecap:round; stroke-width:0.25;"/>
<line x1="218.800000" y1="164.000000" x2="222.800000" y2="164.000000"  style="stroke:black; stroke-linecap:round; stroke-width:0.25;"/>
<line x1="222.800000" y1="68.000000" x2="230.800000" y2="68.000000"  style="stroke:black; stroke-linecap:round; stroke-width:0.25;"/>
<line x1="222.800000" y1="120.000000" x2="230.800000" y2="120.000000"  style="stroke:black; stroke-linecap:round; stroke-width:0.25;"/>
<line x1="222.800000" y1="164.000000" x2="222.800000" y2="120.000000"  style="stroke:black; stroke-linecap:round; stroke-width:0.25;"/>
<line x1="222.800000" y1="164.000000" x2="222.800000" y2="164.000000"  style="stroke:black; stroke-linecap:round; stroke-width:0.25;"/>
<line x1="230.800000" y1="68.000000" x2="230.800000" y2="112.000000"  style="stroke:black; stroke-linecap:round; stroke-width:0.25;"/>
<line x1="230.800000" y1="112.000000" x2="230.800000" y2="112.000000"  style="stroke:black; stroke-linecap:round; stroke-width:0.25;"/>
<line x1="230.800000" y1="112.000000" x2="234.800000" y2="112.000000"  style="stroke:black; stroke-linecap:round; stroke-width:0.25;"/>
<line x1="230.800000" y1="120.000000" x2="234.800000" y2="120.000000"  style="stroke:black; stroke-linecap:round; stroke-width:0.25;"/>
<line x1="258.800000" y1="116.000000" x2="262.800000" y2="116.000000"  style="stroke:black; stroke-linecap:round; stroke-width:0.25;"/>
<line x1="262.800000" y1="116.000000" x2="262.800000" y2="116.000000"  style="stroke:black; stroke-linecap:round; stroke-width:0.25;"/>
<line x1="262.800000" y1="116.000000" x2="266.800000" y2="116.000000"  style="stroke:black; stroke-linecap:round; stroke-width:0.25;"/>
<line x1="266.800000" y1="116.000000" x2="270.800000" y2="116.000000"  style="stroke:black; stroke-linecap:round; stroke-width:0.25;"/>
<line x1="270.800000" y1="116.000000" x2="280.800000" y2="116.000000"  style="stroke:black; stroke-linecap:round; stroke-width:0.25;"/>
</svg>
