<?xml version="1.0"?>
<svg xmlns="http://www.w3.org/2000/svg" xmlns:xlink="http://www.w3.org/1999/xlink" viewBox="0 0 320.000000 368.000000" width="160.000000mm" height="184.000000mm" version="1.1">
<a xlink:href="rITU-0x73d04b0.svg">
<rect x="1.000000" y="1.000000" width="319.000000" height="367.000000" rx="0" ry="0" style="stroke:none;fill:#cccccc;"/>
<rect x="0.000000" y="0.000000" width="319.000000" height="367.000000" rx="0" ry="0" style="stroke:none;fill:#ffffff;"/>
</a>
<text x="10.000000" y="7.000000" font-family="Arial" font-size="7"></text>
<rect x="57.650000" y="25.000000" width="38.700000" height="24.000000" rx="0" ry="0" style="stroke:none;fill:#cccccc;"/>
<rect x="56.650000" y="24.000000" width="38.700000" height="24.000000" rx="0" ry="0" style="stroke:none;fill:#f44800;"/>
<text x="76.000000" y="38.000000" font-family="Arial" font-size="7" text-anchor="middle" fill="#FFFFFF">1.30661</text>
<circle cx="58.650000" cy="26.000000" r="1"/>
<rect x="25.000000" y="61.000000" width="24.000000" height="24.000000" rx="0" ry="0" style="stroke:none;fill:#cccccc;"/>
<rect x="24.000000" y="60.000000" width="24.000000" height="24.000000" rx="0" ry="0" style="stroke:none;fill:#f44800;"/>
<text x="36.000000" y="74.000000" font-family="Arial" font-size="7" text-anchor="middle" fill="#FFFFFF">10</text>
<circle cx="26.000000" cy="62.000000" r="1"/>
<rect x="65.000000" y="65.000000" width="24.000000" height="24.000000" rx="0" ry="0" style="stroke:none;fill:#cccccc;"/>
<rect x="64.000000" y="64.000000" width="24.000000" height="24.000000" rx="0" ry="0" style="stroke:none;fill:#f44800;"/>
<text x="76.000000" y="78.000000" font-family="Arial" font-size="7" text-anchor="middle" fill="#FFFFFF">-19</text>
<circle cx="66.000000" cy="66.000000" r="1"/>
<rect x="105.000000" y="61.000000" width="24.000000" height="24.000000" rx="0" ry="0" style="stroke:none;fill:#cccccc;"/>
<rect x="104.000000" y="60.000000" width="24.000000" height="24.000000" rx="0" ry="0" style="stroke:none;fill:#4B71A1;"/>
<text x="116.000000" y="74.000000" font-family="Arial" font-size="7" text-anchor="middle" fill="#FFFFFF">pow</text>
<circle cx="106.000000" cy="62.000000" r="1"/>
<line x1="101.000000" y1="67.000000" x2="104.000000" y2="68.000000"  transform="rotate(0.000000,104.000000,68.000000)" style="stroke: black; stroke-width:0.25;"/>
<line x1="101.000000" y1="69.000000" x2="104.000000" y2="68.000000"  transform="rotate(0.000000,104.000000,68.000000)" style="stroke: black; stroke-width:0.25;"/>
<line x1="101.000000" y1="75.000000" x2="104.000000" y2="76.000000"  transform="rotate(0.000000,104.000000,76.000000)" style="stroke: black; stroke-width:0.25;"/>
<line x1="101.000000" y1="77.000000" x2="104.000000" y2="76.000000"  transform="rotate(0.000000,104.000000,76.000000)" style="stroke: black; stroke-width:0.25;"/>
<rect x="145.000000" y="45.000000" width="24.000000" height="24.000000" rx="0" ry="0" style="stroke:none;fill:#cccccc;"/>
<rect x="144.000000" y="44.000000" width="24.000000" height="24.000000" rx="0" ry="0" style="stroke:none;fill:#4B71A1;"/>
<text x="156.000000" y="58.000000" font-family="Arial" font-size="7" text-anchor="middle" fill="#FFFFFF">*</text>
<circle cx="146.000000" cy="46.000000" r="1"/>
<line x1="141.000000" y1="51.000000" x2="144.000000" y2="52.000000"  transform="rotate(0.000000,144.000000,52.000000)" style="stroke: black; stroke-width:0.25;"/>
<line x1="141.000000" y1="53.000000" x2="144.000000" y2="52.000000"  transform="rotate(0.000000,144.000000,52.000000)" style="stroke: black; stroke-width:0.25;"/>
<line x1="141.000000" y1="59.000000" x2="144.000000" y2="60.000000"  transform="rotate(0.000000,144.000000,60.000000)" style="stroke: black; stroke-width:0.25;"/>
<line x1="141.000000" y1="61.000000" x2="144.000000" y2="60.000000"  transform="rotate(0.000000,144.000000,60.000000)" style="stroke: black; stroke-width:0.25;"/>
<a xlink:href="time-0x73bf260.svg">
<rect x="44.100000" y="101.000000" width="25.800000" height="24.000000" rx="0" ry="0" style="stroke:none;fill:#cccccc;"/>
<rect x="43.100000" y="100.000000" width="25.800000" height="24.000000" rx="0" ry="0" style="stroke:none;fill:#003366;"/>
</a>
<a xlink:href="time-0x73bf260.svg">
<text x="56.000000" y="114.000000" font-family="Arial" font-size="7" text-anchor="middle" fill="#FFFFFF">time</text>
</a>
<circle cx="45.100000" cy="102.000000" r="1"/>
<rect x="85.900000" y="105.000000" width="24.000000" height="24.000000" rx="0" ry="0" style="stroke:none;fill:#cccccc;"/>
<rect x="84.900000" y="104.000000" width="24.000000" height="24.000000" rx="0" ry="0" style="stroke:none;fill:#f44800;"/>
<text x="96.900000" y="118.000000" font-family="Arial" font-size="7" text-anchor="middle" fill="#FFFFFF">5</text>
<circle cx="86.900000" cy="106.000000" r="1"/>
<rect x="125.900000" y="101.000000" width="24.000000" height="24.000000" rx="0" ry="0" style="stroke:none;fill:#cccccc;"/>
<rect x="124.900000" y="100.000000" width="24.000000" height="24.000000" rx="0" ry="0" style="stroke:none;fill:#4B71A1;"/>
<text x="136.900000" y="114.000000" font-family="Arial" font-size="7" text-anchor="middle" fill="#FFFFFF">pow</text>
<circle cx="126.900000" cy="102.000000" r="1"/>
<line x1="121.900000" y1="107.000000" x2="124.900000" y2="108.000000"  transform="rotate(0.000000,124.900000,108.000000)" style="stroke: black; stroke-width:0.25;"/>
<line x1="121.900000" y1="109.000000" x2="124.900000" y2="108.000000"  transform="rotate(0.000000,124.900000,108.000000)" style="stroke: black; stroke-width:0.25;"/>
<line x1="121.900000" y1="115.000000" x2="124.900000" y2="116.000000"  transform="rotate(0.000000,124.900000,116.000000)" style="stroke: black; stroke-width:0.25;"/>
<line x1="121.900000" y1="117.000000" x2="124.900000" y2="116.000000"  transform="rotate(0.000000,124.900000,116.000000)" style="stroke: black; stroke-width:0.25;"/>
<rect x="185.000000" y="65.000000" width="24.000000" height="24.000000" rx="0" ry="0" style="stroke:none;fill:#cccccc;"/>
<rect x="184.000000" y="64.000000" width="24.000000" height="24.000000" rx="0" ry="0" style="stroke:none;fill:#4B71A1;"/>
<text x="196.000000" y="78.000000" font-family="Arial" font-size="7" text-anchor="middle" fill="#FFFFFF">*</text>
<circle cx="186.000000" cy="66.000000" r="1"/>
<line x1="181.000000" y1="71.000000" x2="184.000000" y2="72.000000"  transform="rotate(0.000000,184.000000,72.000000)" style="stroke: black; stroke-width:0.25;"/>
<line x1="181.000000" y1="73.000000" x2="184.000000" y2="72.000000"  transform="rotate(0.000000,184.000000,72.000000)" style="stroke: black; stroke-width:0.25;"/>
<line x1="181.000000" y1="79.000000" x2="184.000000" y2="80.000000"  transform="rotate(0.000000,184.000000,80.000000)" style="stroke: black; stroke-width:0.25;"/>
<line x1="181.000000" y1="81.000000" x2="184.000000" y2="80.000000"  transform="rotate(0.000000,184.000000,80.000000)" style="stroke: black; stroke-width:0.25;"/>
<rect x="57.650000" y="137.000000" width="38.700000" height="24.000000" rx="0" ry="0" style="stroke:none;fill:#cccccc;"/>
<rect x="56.650000" y="136.000000" width="38.700000" height="24.000000" rx="0" ry="0" style="stroke:none;fill:#f44800;"/>
<text x="76.000000" y="150.000000" font-family="Arial" font-size="7" text-anchor="middle" fill="#FFFFFF">2.11815</text>
<circle cx="58.650000" cy="138.000000" r="1"/>
<rect x="25.000000" y="173.000000" width="24.000000" height="24.000000" rx="0" ry="0" style="stroke:none;fill:#cccccc;"/>
<rect x="24.000000" y="172.000000" width="24.000000" height="24.000000" rx="0" ry="0" style="stroke:none;fill:#f44800;"/>
<text x="36.000000" y="186.000000" font-family="Arial" font-size="7" text-anchor="middle" fill="#FFFFFF">10</text>
<circle cx="26.000000" cy="174.000000" r="1"/>
<rect x="65.000000" y="177.000000" width="24.000000" height="24.000000" rx="0" ry="0" style="stroke:none;fill:#cccccc;"/>
<rect x="64.000000" y="176.000000" width="24.000000" height="24.000000" rx="0" ry="0" style="stroke:none;fill:#f44800;"/>
<text x="76.000000" y="190.000000" font-family="Arial" font-size="7" text-anchor="middle" fill="#FFFFFF">-11</text>
<circle cx="66.000000" cy="178.000000" r="1"/>
<rect x="105.000000" y="173.000000" width="24.000000" height="24.000000" rx="0" ry="0" style="stroke:none;fill:#cccccc;"/>
<rect x="104.000000" y="172.000000" width="24.000000" height="24.000000" rx="0" ry="0" style="stroke:none;fill:#4B71A1;"/>
<text x="116.000000" y="186.000000" font-family="Arial" font-size="7" text-anchor="middle" fill="#FFFFFF">pow</text>
<circle cx="106.000000" cy="174.000000" r="1"/>
<line x1="101.000000" y1="179.000000" x2="104.000000" y2="180.000000"  transform="rotate(0.000000,104.000000,180.000000)" style="stroke: black; stroke-width:0.25;"/>
<line x1="101.000000" y1="181.000000" x2="104.000000" y2="180.000000"  transform="rotate(0.000000,104.000000,180.000000)" style="stroke: black; stroke-width:0.25;"/>
<line x1="101.000000" y1="187.000000" x2="104.000000" y2="188.000000"  transform="rotate(0.000000,104.000000,188.000000)" style="stroke: black; stroke-width:0.25;"/>
<line x1="101.000000" y1="189.000000" x2="104.000000" y2="188.000000"  transform="rotate(0.000000,104.000000,188.000000)" style="stroke: black; stroke-width:0.25;"/>
<rect x="145.000000" y="157.000000" width="24.000000" height="24.000000" rx="0" ry="0" style="stroke:none;fill:#cccccc;"/>
<rect x="144.000000" y="156.000000" width="24.000000" height="24.000000" rx="0" ry="0" style="stroke:none;fill:#4B71A1;"/>
<text x="156.000000" y="170.000000" font-family="Arial" font-size="7" text-anchor="middle" fill="#FFFFFF">*</text>
<circle cx="146.000000" cy="158.000000" r="1"/>
<line x1="141.000000" y1="163.000000" x2="144.000000" y2="164.000000"  transform="rotate(0.000000,144.000000,164.000000)" style="stroke: black; stroke-width:0.25;"/>
<line x1="141.000000" y1="165.000000" x2="144.000000" y2="164.000000"  transform="rotate(0.000000,144.000000,164.000000)" style="stroke: black; stroke-width:0.25;"/>
<line x1="141.000000" y1="171.000000" x2="144.000000" y2="172.000000"  transform="rotate(0.000000,144.000000,172.000000)" style="stroke: black; stroke-width:0.25;"/>
<line x1="141.000000" y1="173.000000" x2="144.000000" y2="172.000000"  transform="rotate(0.000000,144.000000,172.000000)" style="stroke: black; stroke-width:0.25;"/>
<a xlink:href="time-0x73bf260.svg">
<rect x="44.100000" y="213.000000" width="25.800000" height="24.000000" rx="0" ry="0" style="stroke:none;fill:#cccccc;"/>
<rect x="43.100000" y="212.000000" width="25.800000" height="24.000000" rx="0" ry="0" style="stroke:none;fill:#003366;"/>
</a>
<a xlink:href="time-0x73bf260.svg">
<text x="56.000000" y="226.000000" font-family="Arial" font-size="7" text-anchor="middle" fill="#FFFFFF">time</text>
</a>
<circle cx="45.100000" cy="214.000000" r="1"/>
<rect x="85.900000" y="217.000000" width="24.000000" height="24.000000" rx="0" ry="0" style="stroke:none;fill:#cccccc;"/>
<rect x="84.900000" y="216.000000" width="24.000000" height="24.000000" rx="0" ry="0" style="stroke:none;fill:#f44800;"/>
<text x="96.900000" y="230.000000" font-family="Arial" font-size="7" text-anchor="middle" fill="#FFFFFF">3</text>
<circle cx="86.900000" cy="218.000000" r="1"/>
<rect x="125.900000" y="213.000000" width="24.000000" height="24.000000" rx="0" ry="0" style="stroke:none;fill:#cccccc;"/>
<rect x="124.900000" y="212.000000" width="24.000000" height="24.000000" rx="0" ry="0" style="stroke:none;fill:#4B71A1;"/>
<text x="136.900000" y="226.000000" font-family="Arial" font-size="7" text-anchor="middle" fill="#FFFFFF">pow</text>
<circle cx="126.900000" cy="214.000000" r="1"/>
<line x1="121.900000" y1="219.000000" x2="124.900000" y2="220.000000"  transform="rotate(0.000000,124.900000,220.000000)" style="stroke: black; stroke-width:0.25;"/>
<line x1="121.900000" y1="221.000000" x2="124.900000" y2="220.000000"  transform="rotate(0.000000,124.900000,220.000000)" style="stroke: black; stroke-width:0.25;"/>
<line x1="121.900000" y1="227.000000" x2="124.900000" y2="228.000000"  transform="rotate(0.000000,124.900000,228.000000)" style="stroke: black; stroke-width:0.25;"/>
<line x1="121.900000" y1="229.000000" x2="124.900000" y2="228.000000"  transform="rotate(0.000000,124.900000,228.000000)" style="stroke: black; stroke-width:0.25;"/>
<rect x="185.000000" y="177.000000" width="24.000000" height="24.000000" rx="0" ry="0" style="stroke:none;fill:#cccccc;"/>
<rect x="184.000000" y="176.000000" width="24.000000" height="24.000000" rx="0" ry="0" style="stroke:none;fill:#4B71A1;"/>
<text x="196.000000" y="190.000000" font-family="Arial" font-size="7" text-anchor="middle" fill="#FFFFFF">*</text>
<circle cx="186.000000" cy="178.000000" r="1"/>
<line x1="181.000000" y1="183.000000" x2="184.000000" y2="184.000000"  transform="rotate(0.000000,184.000000,184.000000)" style="stroke: black; stroke-width:0.25;"/>
<line x1="181.000000" y1="185.000000" x2="184.000000" y2="184.000000"  transform="rotate(0.000000,184.000000,184.000000)" style="stroke: black; stroke-width:0.25;"/>
<line x1="181.000000" y1="191.000000" x2="184.000000" y2="192.000000"  transform="rotate(0.000000,184.000000,192.000000)" style="stroke: black; stroke-width:0.25;"/>
<line x1="181.000000" y1="193.000000" x2="184.000000" y2="192.000000"  transform="rotate(0.000000,184.000000,192.000000)" style="stroke: black; stroke-width:0.25;"/>
<rect x="225.000000" y="121.000000" width="24.000000" height="24.000000" rx="0" ry="0" style="stroke:none;fill:#cccccc;"/>
<rect x="224.000000" y="120.000000" width="24.000000" height="24.000000" rx="0" ry="0" style="stroke:none;fill:#4B71A1;"/>
<text x="236.000000" y="134.000000" font-family="Arial" font-size="7" text-anchor="middle" fill="#FFFFFF">+</text>
<circle cx="226.000000" cy="122.000000" r="1"/>
<line x1="221.000000" y1="127.000000" x2="224.000000" y2="128.000000"  transform="rotate(0.000000,224.000000,128.000000)" style="stroke: black; stroke-width:0.25;"/>
<line x1="221.000000" y1="129.000000" x2="224.000000" y2="128.000000"  transform="rotate(0.000000,224.000000,128.000000)" style="stroke: black; stroke-width:0.25;"/>
<line x1="221.000000" y1="135.000000" x2="224.000000" y2="136.000000"  transform="rotate(0.000000,224.000000,136.000000)" style="stroke: black; stroke-width:0.25;"/>
<line x1="221.000000" y1="137.000000" x2="224.000000" y2="136.000000"  transform="rotate(0.000000,224.000000,136.000000)" style="stroke: black; stroke-width:0.25;"/>
<rect x="77.650000" y="249.000000" width="38.700000" height="24.000000" rx="0" ry="0" style="stroke:none;fill:#cccccc;"/>
<rect x="76.650000" y="248.000000" width="38.700000" height="24.000000" rx="0" ry="0" style="stroke:none;fill:#f44800;"/>
<text x="96.000000" y="262.000000" font-family="Arial" font-size="7" text-anchor="middle" fill="#FFFFFF">5.55949</text>
<circle cx="78.650000" cy="250.000000" r="1"/>
<rect x="45.000000" y="285.000000" width="24.000000" height="24.000000" rx="0" ry="0" style="stroke:none;fill:#cccccc;"/>
<rect x="44.000000" y="284.000000" width="24.000000" height="24.000000" rx="0" ry="0" style="stroke:none;fill:#f44800;"/>
<text x="56.000000" y="298.000000" font-family="Arial" font-size="7" text-anchor="middle" fill="#FFFFFF">10</text>
<circle cx="46.000000" cy="286.000000" r="1"/>
<rect x="85.000000" y="289.000000" width="24.000000" height="24.000000" rx="0" ry="0" style="stroke:none;fill:#cccccc;"/>
<rect x="84.000000" y="288.000000" width="24.000000" height="24.000000" rx="0" ry="0" style="stroke:none;fill:#f44800;"/>
<text x="96.000000" y="302.000000" font-family="Arial" font-size="7" text-anchor="middle" fill="#FFFFFF">-4</text>
<circle cx="86.000000" cy="290.000000" r="1"/>
<rect x="125.000000" y="285.000000" width="24.000000" height="24.000000" rx="0" ry="0" style="stroke:none;fill:#cccccc;"/>
<rect x="124.000000" y="284.000000" width="24.000000" height="24.000000" rx="0" ry="0" style="stroke:none;fill:#4B71A1;"/>
<text x="136.000000" y="298.000000" font-family="Arial" font-size="7" text-anchor="middle" fill="#FFFFFF">pow</text>
<circle cx="126.000000" cy="286.000000" r="1"/>
<line x1="121.000000" y1="291.000000" x2="124.000000" y2="292.000000"  transform="rotate(0.000000,124.000000,292.000000)" style="stroke: black; stroke-width:0.25;"/>
<line x1="121.000000" y1="293.000000" x2="124.000000" y2="292.000000"  transform="rotate(0.000000,124.000000,292.000000)" style="stroke: black; stroke-width:0.25;"/>
<line x1="121.000000" y1="299.000000" x2="124.000000" y2="300.000000"  transform="rotate(0.000000,124.000000,300.000000)" style="stroke: black; stroke-width:0.25;"/>
<line x1="121.000000" y1="301.000000" x2="124.000000" y2="300.000000"  transform="rotate(0.000000,124.000000,300.000000)" style="stroke: black; stroke-width:0.25;"/>
<rect x="165.000000" y="269.000000" width="24.000000" height="24.000000" rx="0" ry="0" style="stroke:none;fill:#cccccc;"/>
<rect x="164.000000" y="268.000000" width="24.000000" height="24.000000" rx="0" ry="0" style="stroke:none;fill:#4B71A1;"/>
<text x="176.000000" y="282.000000" font-family="Arial" font-size="7" text-anchor="middle" fill="#FFFFFF">*</text>
<circle cx="166.000000" cy="270.000000" r="1"/>
<line x1="161.000000" y1="275.000000" x2="164.000000" y2="276.000000"  transform="rotate(0.000000,164.000000,276.000000)" style="stroke: black; stroke-width:0.25;"/>
<line x1="161.000000" y1="277.000000" x2="164.000000" y2="276.000000"  transform="rotate(0.000000,164.000000,276.000000)" style="stroke: black; stroke-width:0.25;"/>
<line x1="161.000000" y1="283.000000" x2="164.000000" y2="284.000000"  transform="rotate(0.000000,164.000000,284.000000)" style="stroke: black; stroke-width:0.25;"/>
<line x1="161.000000" y1="285.000000" x2="164.000000" y2="284.000000"  transform="rotate(0.000000,164.000000,284.000000)" style="stroke: black; stroke-width:0.25;"/>
<a xlink:href="time-0x73bf260.svg">
<rect x="104.100000" y="321.000000" width="25.800000" height="24.000000" rx="0" ry="0" style="stroke:none;fill:#cccccc;"/>
<rect x="103.100000" y="320.000000" width="25.800000" height="24.000000" rx="0" ry="0" style="stroke:none;fill:#003366;"/>
</a>
<a xlink:href="time-0x73bf260.svg">
<text x="116.000000" y="334.000000" font-family="Arial" font-size="7" text-anchor="middle" fill="#FFFFFF">time</text>
</a>
<circle cx="105.100000" cy="322.000000" r="1"/>
<rect x="205.000000" y="285.000000" width="24.000000" height="24.000000" rx="0" ry="0" style="stroke:none;fill:#cccccc;"/>
<rect x="204.000000" y="284.000000" width="24.000000" height="24.000000" rx="0" ry="0" style="stroke:none;fill:#4B71A1;"/>
<text x="216.000000" y="298.000000" font-family="Arial" font-size="7" text-anchor="middle" fill="#FFFFFF">*</text>
<circle cx="206.000000" cy="286.000000" r="1"/>
<line x1="201.000000" y1="291.000000" x2="204.000000" y2="292.000000"  transform="rotate(0.000000,204.000000,292.000000)" style="stroke: black; stroke-width:0.25;"/>
<line x1="201.000000" y1="293.000000" x2="204.000000" y2="292.000000"  transform="rotate(0.000000,204.000000,292.000000)" style="stroke: black; stroke-width:0.25;"/>
<line x1="201.000000" y1="299.000000" x2="204.000000" y2="300.000000"  transform="rotate(0.000000,204.000000,300.000000)" style="stroke: black; stroke-width:0.25;"/>
<line x1="201.000000" y1="301.000000" x2="204.000000" y2="300.000000"  transform="rotate(0.000000,204.000000,300.000000)" style="stroke: black; stroke-width:0.25;"/>
<rect x="265.000000" y="173.000000" width="24.000000" height="24.000000" rx="0" ry="0" style="stroke:none;fill:#cccccc;"/>
<rect x="264.000000" y="172.000000" width="24.000000" height="24.000000" rx="0" ry="0" style="stroke:none;fill:#4B71A1;"/>
<text x="276.000000" y="186.000000" font-family="Arial" font-size="7" text-anchor="middle" fill="#FFFFFF">-</text>
<circle cx="266.000000" cy="174.000000" r="1"/>
<line x1="261.000000" y1="179.000000" x2="264.000000" y2="180.000000"  transform="rotate(0.000000,264.000000,180.000000)" style="stroke: black; stroke-width:0.25;"/>
<line x1="261.000000" y1="181.000000" x2="264.000000" y2="180.000000"  transform="rotate(0.000000,264.000000,180.000000)" style="stroke: black; stroke-width:0.25;"/>
<line x1="261.000000" y1="187.000000" x2="264.000000" y2="188.000000"  transform="rotate(0.000000,264.000000,188.000000)" style="stroke: black; stroke-width:0.25;"/>
<line x1="261.000000" y1="189.000000" x2="264.000000" y2="188.000000"  transform="rotate(0.000000,264.000000,188.000000)" style="stroke: black; stroke-width:0.25;"/>
<line x1="15.000000" y1="15.000000" x2="15.000000" y2="353.000000"  style="stroke: black; stroke-linecap:round; stroke-width:0.25; stroke-dasharray:3,3;"/>
<line x1="15.000000" y1="353.000000" x2="305.000000" y2="353.000000"  style="stroke: black; stroke-linecap:round; stroke-width:0.25; stroke-dasharray:3,3;"/>
<line x1="305.000000" y1="353.000000" x2="305.000000" y2="15.000000"  style="stroke: black; stroke-linecap:round; stroke-width:0.25; stroke-dasharray:3,3;"/>
<line x1="15.000000" y1="15.000000" x2="20.000000" y2="15.000000"  style="stroke: black; stroke-linecap:round; stroke-width:0.25; stroke-dasharray:3,3;"/>
<line x1="94.175000" y1="15.000000" x2="305.000000" y2="15.000000"  style="stroke: black; stroke-linecap:round; stroke-width:0.25; stroke-dasharray:3,3;"/>
<text x="20.000000" y="17.000000" font-family="Arial" font-size="7">h2((_,1 : +)~_,1 : -)</text>
<line x1="307.000000" y1="183.000000" x2="310.000000" y2="184.000000"  transform="rotate(0.000000,310.000000,184.000000)" style="stroke: black; stroke-width:0.25;"/>
<line x1="307.000000" y1="185.000000" x2="310.000000" y2="184.000000"  transform="rotate(0.000000,310.000000,184.000000)" style="stroke: black; stroke-width:0.25;"/>
<line x1="48.000000" y1="72.000000" x2="52.000000" y2="72.000000"  style="stroke:black; stroke-linecap:round; stroke-width:0.25;"/>
<line x1="48.000000" y1="184.000000" x2="52.000000" y2="184.000000"  style="stroke:black; stroke-linecap:round; stroke-width:0.25;"/>
<line x1="52.000000" y1="56.000000" x2="60.000000" y2="56.000000"  style="stroke:black; stroke-linecap:round; stroke-width:0.25;"/>
<line x1="52.000000" y1="72.000000" x2="52.000000" y2="56.000000"  style="stroke:black; stroke-linecap:round; stroke-width:0.25;"/>
<line x1="52.000000" y1="72.000000" x2="52.000000" y2="72.000000"  style="stroke:black; stroke-linecap:round; stroke-width:0.25;"/>
<line x1="52.000000" y1="168.000000" x2="60.000000" y2="168.000000"  style="stroke:black; stroke-linecap:round; stroke-width:0.25;"/>
<line x1="52.000000" y1="184.000000" x2="52.000000" y2="168.000000"  style="stroke:black; stroke-linecap:round; stroke-width:0.25;"/>
<line x1="52.000000" y1="184.000000" x2="52.000000" y2="184.000000"  style="stroke:black; stroke-linecap:round; stroke-width:0.25;"/>
<line x1="60.000000" y1="56.000000" x2="76.000000" y2="56.000000"  style="stroke:black; stroke-linecap:round; stroke-width:0.25;"/>
<line x1="60.000000" y1="168.000000" x2="76.000000" y2="168.000000"  style="stroke:black; stroke-linecap:round; stroke-width:0.25;"/>
<line x1="68.000000" y1="296.000000" x2="72.000000" y2="296.000000"  style="stroke:black; stroke-linecap:round; stroke-width:0.25;"/>
<line x1="68.900000" y1="112.000000" x2="72.900000" y2="112.000000"  style="stroke:black; stroke-linecap:round; stroke-width:0.25;"/>
<line x1="68.900000" y1="224.000000" x2="72.900000" y2="224.000000"  style="stroke:black; stroke-linecap:round; stroke-width:0.25;"/>
<line x1="72.000000" y1="280.000000" x2="80.000000" y2="280.000000"  style="stroke:black; stroke-linecap:round; stroke-width:0.25;"/>
<line x1="72.000000" y1="296.000000" x2="72.000000" y2="280.000000"  style="stroke:black; stroke-linecap:round; stroke-width:0.25;"/>
<line x1="72.000000" y1="296.000000" x2="72.000000" y2="296.000000"  style="stroke:black; stroke-linecap:round; stroke-width:0.25;"/>
<line x1="72.900000" y1="96.000000" x2="80.900000" y2="96.000000"  style="stroke:black; stroke-linecap:round; stroke-width:0.25;"/>
<line x1="72.900000" y1="112.000000" x2="72.900000" y2="96.000000"  style="stroke:black; stroke-linecap:round; stroke-width:0.25;"/>
<line x1="72.900000" y1="112.000000" x2="72.900000" y2="112.000000"  style="stroke:black; stroke-linecap:round; stroke-width:0.25;"/>
<line x1="72.900000" y1="208.000000" x2="80.900000" y2="208.000000"  style="stroke:black; stroke-linecap:round; stroke-width:0.25;"/>
<line x1="72.900000" y1="224.000000" x2="72.900000" y2="208.000000"  style="stroke:black; stroke-linecap:round; stroke-width:0.25;"/>
<line x1="72.900000" y1="224.000000" x2="72.900000" y2="224.000000"  style="stroke:black; stroke-linecap:round; stroke-width:0.25;"/>
<line x1="76.000000" y1="56.000000" x2="92.000000" y2="56.000000"  style="stroke:black; stroke-linecap:round; stroke-width:0.25;"/>
<line x1="76.000000" y1="168.000000" x2="92.000000" y2="168.000000"  style="stroke:black; stroke-linecap:round; stroke-width:0.25;"/>
<line x1="80.000000" y1="280.000000" x2="96.000000" y2="280.000000"  style="stroke:black; stroke-linecap:round; stroke-width:0.25;"/>
<line x1="80.900000" y1="96.000000" x2="96.900000" y2="96.000000"  style="stroke:black; stroke-linecap:round; stroke-width:0.25;"/>
<line x1="80.900000" y1="208.000000" x2="96.900000" y2="208.000000"  style="stroke:black; stroke-linecap:round; stroke-width:0.25;"/>
<line x1="88.000000" y1="76.000000" x2="92.000000" y2="76.000000"  style="stroke:black; stroke-linecap:round; stroke-width:0.25;"/>
<line x1="88.000000" y1="188.000000" x2="92.000000" y2="188.000000"  style="stroke:black; stroke-linecap:round; stroke-width:0.25;"/>
<line x1="92.000000" y1="56.000000" x2="100.000000" y2="56.000000"  style="stroke:black; stroke-linecap:round; stroke-width:0.25;"/>
<line x1="92.000000" y1="76.000000" x2="100.000000" y2="76.000000"  style="stroke:black; stroke-linecap:round; stroke-width:0.25;"/>
<line x1="92.000000" y1="168.000000" x2="100.000000" y2="168.000000"  style="stroke:black; stroke-linecap:round; stroke-width:0.25;"/>
<line x1="92.000000" y1="188.000000" x2="100.000000" y2="188.000000"  style="stroke:black; stroke-linecap:round; stroke-width:0.25;"/>
<line x1="95.350000" y1="36.000000" x2="99.350000" y2="36.000000"  style="stroke:black; stroke-linecap:round; stroke-width:0.25;"/>
<line x1="95.350000" y1="148.000000" x2="99.350000" y2="148.000000"  style="stroke:black; stroke-linecap:round; stroke-width:0.25;"/>
<line x1="96.000000" y1="280.000000" x2="112.000000" y2="280.000000"  style="stroke:black; stroke-linecap:round; stroke-width:0.25;"/>
<line x1="96.900000" y1="96.000000" x2="112.900000" y2="96.000000"  style="stroke:black; stroke-linecap:round; stroke-width:0.25;"/>
<line x1="96.900000" y1="208.000000" x2="112.900000" y2="208.000000"  style="stroke:black; stroke-linecap:round; stroke-width:0.25;"/>
<line x1="99.350000" y1="36.000000" x2="132.000000" y2="36.000000"  style="stroke:black; stroke-linecap:round; stroke-width:0.25;"/>
<line x1="99.350000" y1="148.000000" x2="132.000000" y2="148.000000"  style="stroke:black; stroke-linecap:round; stroke-width:0.25;"/>
<line x1="100.000000" y1="56.000000" x2="100.000000" y2="68.000000"  style="stroke:black; stroke-linecap:round; stroke-width:0.25;"/>
<line x1="100.000000" y1="68.000000" x2="100.000000" y2="68.000000"  style="stroke:black; stroke-linecap:round; stroke-width:0.25;"/>
<line x1="100.000000" y1="68.000000" x2="104.000000" y2="68.000000"  style="stroke:black; stroke-linecap:round; stroke-width:0.25;"/>
<line x1="100.000000" y1="76.000000" x2="104.000000" y2="76.000000"  style="stroke:black; stroke-linecap:round; stroke-width:0.25;"/>
<line x1="100.000000" y1="168.000000" x2="100.000000" y2="180.000000"  style="stroke:black; stroke-linecap:round; stroke-width:0.25;"/>
<line x1="100.000000" y1="180.000000" x2="100.000000" y2="180.000000"  style="stroke:black; stroke-linecap:round; stroke-width:0.25;"/>
<line x1="100.000000" y1="180.000000" x2="104.000000" y2="180.000000"  style="stroke:black; stroke-linecap:round; stroke-width:0.25;"/>
<line x1="100.000000" y1="188.000000" x2="104.000000" y2="188.000000"  style="stroke:black; stroke-linecap:round; stroke-width:0.25;"/>
<line x1="108.000000" y1="300.000000" x2="112.000000" y2="300.000000"  style="stroke:black; stroke-linecap:round; stroke-width:0.25;"/>
<line x1="108.900000" y1="116.000000" x2="112.900000" y2="116.000000"  style="stroke:black; stroke-linecap:round; stroke-width:0.25;"/>
<line x1="108.900000" y1="228.000000" x2="112.900000" y2="228.000000"  style="stroke:black; stroke-linecap:round; stroke-width:0.25;"/>
<line x1="112.000000" y1="280.000000" x2="120.000000" y2="280.000000"  style="stroke:black; stroke-linecap:round; stroke-width:0.25;"/>
<line x1="112.000000" y1="300.000000" x2="120.000000" y2="300.000000"  style="stroke:black; stroke-linecap:round; stroke-width:0.25;"/>
<line x1="112.900000" y1="96.000000" x2="120.900000" y2="96.000000"  style="stroke:black; stroke-linecap:round; stroke-width:0.25;"/>
<line x1="112.900000" y1="116.000000" x2="120.900000" y2="116.000000"  style="stroke:black; stroke-linecap:round; stroke-width:0.25;"/>
<line x1="112.900000" y1="208.000000" x2="120.900000" y2="208.000000"  style="stroke:black; stroke-linecap:round; stroke-width:0.25;"/>
<line x1="112.900000" y1="228.000000" x2="120.900000" y2="228.000000"  style="stroke:black; stroke-linecap:round; stroke-width:0.25;"/>
<line x1="115.350000" y1="260.000000" x2="119.350000" y2="260.000000"  style="stroke:black; stroke-linecap:round; stroke-width:0.25;"/>
<line x1="119.350000" y1="260.000000" x2="152.000000" y2="260.000000"  style="stroke:black; stroke-linecap:round; stroke-width:0.25;"/>
<line x1="120.000000" y1="280.000000" x2="120.000000" y2="292.000000"  style="stroke:black; stroke-linecap:round; stroke-width:0.25;"/>
<line x1="120.000000" y1="292.000000" x2="120.000000" y2="292.000000"  style="stroke:black; stroke-linecap:round; stroke-width:0.25;"/>
<line x1="120.000000" y1="292.000000" x2="124.000000" y2="292.000000"  style="stroke:black; stroke-linecap:round; stroke-width:0.25;"/>
<line x1="120.000000" y1="300.000000" x2="124.000000" y2="300.000000"  style="stroke:black; stroke-linecap:round; stroke-width:0.25;"/>
<line x1="120.900000" y1="96.000000" x2="120.900000" y2="108.000000"  style="stroke:black; stroke-linecap:round; stroke-width:0.25;"/>
<line x1="120.900000" y1="108.000000" x2="120.900000" y2="108.000000"  style="stroke:black; stroke-linecap:round; stroke-width:0.25;"/>
<line x1="120.900000" y1="108.000000" x2="124.900000" y2="108.000000"  style="stroke:black; stroke-linecap:round; stroke-width:0.25;"/>
<line x1="120.900000" y1="116.000000" x2="124.900000" y2="116.000000"  style="stroke:black; stroke-linecap:round; stroke-width:0.25;"/>
<line x1="120.900000" y1="208.000000" x2="120.900000" y2="220.000000"  style="stroke:black; stroke-linecap:round; stroke-width:0.25;"/>
<line x1="120.900000" y1="220.000000" x2="120.900000" y2="220.000000"  style="stroke:black; stroke-linecap:round; stroke-width:0.25;"/>
<line x1="120.900000" y1="220.000000" x2="124.900000" y2="220.000000"  style="stroke:black; stroke-linecap:round; stroke-width:0.25;"/>
<line x1="120.900000" y1="228.000000" x2="124.900000" y2="228.000000"  style="stroke:black; stroke-linecap:round; stroke-width:0.25;"/>
<line x1="128.000000" y1="72.000000" x2="132.000000" y2="72.000000"  style="stroke:black; stroke-linecap:round; stroke-width:0.25;"/>
<line x1="128.000000" y1="184.000000" x2="132.000000" y2="184.000000"  style="stroke:black; stroke-linecap:round; stroke-width:0.25;"/>
<line x1="128.900000" y1="332.000000" x2="132.900000" y2="332.000000"  style="stroke:black; stroke-linecap:round; stroke-width:0.25;"/>
<line x1="132.000000" y1="36.000000" x2="140.000000" y2="36.000000"  style="stroke:black; stroke-linecap:round; stroke-width:0.25;"/>
<line x1="132.000000" y1="60.000000" x2="140.000000" y2="60.000000"  style="stroke:black; stroke-linecap:round; stroke-width:0.25;"/>
<line x1="132.000000" y1="72.000000" x2="132.000000" y2="60.000000"  style="stroke:black; stroke-linecap:round; stroke-width:0.25;"/>
<line x1="132.000000" y1="72.000000" x2="132.000000" y2="72.000000"  style="stroke:black; stroke-linecap:round; stroke-width:0.25;"/>
<line x1="132.000000" y1="148.000000" x2="140.000000" y2="148.000000"  style="stroke:black; stroke-linecap:round; stroke-width:0.25;"/>
<line x1="132.000000" y1="172.000000" x2="140.000000" y2="172.000000"  style="stroke:black; stroke-linecap:round; stroke-width:0.25;"/>
<line x1="132.000000" y1="184.000000" x2="132.000000" y2="172.000000"  style="stroke:black; stroke-linecap:round; stroke-width:0.25;"/>
<line x1="132.000000" y1="184.000000" x2="132.000000" y2="184.000000"  style="stroke:black; stroke-linecap:round; stroke-width:0.25;"/>
<line x1="132.900000" y1="332.000000" x2="192.000000" y2="332.000000"  style="stroke:black; stroke-linecap:round; stroke-width:0.25;"/>
<line x1="140.000000" y1="36.000000" x2="140.000000" y2="52.000000"  style="stroke:black; stroke-linecap:round; stroke-width:0.25;"/>
<line x1="140.000000" y1="52.000000" x2="140.000000" y2="52.000000"  style="stroke:black; stroke-linecap:round; stroke-width:0.25;"/>
<line x1="140.000000" y1="52.000000" x2="144.000000" y2="52.000000"  style="stroke:black; stroke-linecap:round; stroke-width:0.25;"/>
<line x1="140.000000" y1="60.000000" x2="144.000000" y2="60.000000"  style="stroke:black; stroke-linecap:round; stroke-width:0.25;"/>
<line x1="140.000000" y1="148.000000" x2="140.000000" y2="164.000000"  style="stroke:black; stroke-linecap:round; stroke-width:0.25;"/>
<line x1="140.000000" y1="164.000000" x2="140.000000" y2="164.000000"  style="stroke:black; stroke-linecap:round; stroke-width:0.25;"/>
<line x1="140.000000" y1="164.000000" x2="144.000000" y2="164.000000"  style="stroke:black; stroke-linecap:round; stroke-width:0.25;"/>
<line x1="140.000000" y1="172.000000" x2="144.000000" y2="172.000000"  style="stroke:black; stroke-linecap:round; stroke-width:0.25;"/>
<line x1="148.000000" y1="296.000000" x2="152.000000" y2="296.000000"  style="stroke:black; stroke-linecap:round; stroke-width:0.25;"/>
<line x1="148.900000" y1="112.000000" x2="152.900000" y2="112.000000"  style="stroke:black; stroke-linecap:round; stroke-width:0.25;"/>
<line x1="148.900000" y1="224.000000" x2="152.900000" y2="224.000000"  style="stroke:black; stroke-linecap:round; stroke-width:0.25;"/>
<line x1="152.000000" y1="260.000000" x2="160.000000" y2="260.000000"  style="stroke:black; stroke-linecap:round; stroke-width:0.25;"/>
<line x1="152.000000" y1="284.000000" x2="160.000000" y2="284.000000"  style="stroke:black; stroke-linecap:round; stroke-width:0.25;"/>
<line x1="152.000000" y1="296.000000" x2="152.000000" y2="284.000000"  style="stroke:black; stroke-linecap:round; stroke-width:0.25;"/>
<line x1="152.000000" y1="296.000000" x2="152.000000" y2="296.000000"  style="stroke:black; stroke-linecap:round; stroke-width:0.25;"/>
<line x1="152.900000" y1="112.000000" x2="172.000000" y2="112.000000"  style="stroke:black; stroke-linecap:round; stroke-width:0.25;"/>
<line x1="152.900000" y1="224.000000" x2="172.000000" y2="224.000000"  style="stroke:black; stroke-linecap:round; stroke-width:0.25;"/>
<line x1="160.000000" y1="260.000000" x2="160.000000" y2="276.000000"  style="stroke:black; stroke-linecap:round; stroke-width:0.25;"/>
<line x1="160.000000" y1="276.000000" x2="160.000000" y2="276.000000"  style="stroke:black; stroke-linecap:round; stroke-width:0.25;"/>
<line x1="160.000000" y1="276.000000" x2="164.000000" y2="276.000000"  style="stroke:black; stroke-linecap:round; stroke-width:0.25;"/>
<line x1="160.000000" y1="284.000000" x2="164.000000" y2="284.000000"  style="stroke:black; stroke-linecap:round; stroke-width:0.25;"/>
<line x1="168.000000" y1="56.000000" x2="172.000000" y2="56.000000"  style="stroke:black; stroke-linecap:round; stroke-width:0.25;"/>
<line x1="168.000000" y1="168.000000" x2="172.000000" y2="168.000000"  style="stroke:black; stroke-linecap:round; stroke-width:0.25;"/>
<line x1="172.000000" y1="56.000000" x2="180.000000" y2="56.000000"  style="stroke:black; stroke-linecap:round; stroke-width:0.25;"/>
<line x1="172.000000" y1="80.000000" x2="180.000000" y2="80.000000"  style="stroke:black; stroke-linecap:round; stroke-width:0.25;"/>
<line x1="172.000000" y1="112.000000" x2="172.000000" y2="80.000000"  style="stroke:black; stroke-linecap:round; stroke-width:0.25;"/>
<line x1="172.000000" y1="112.000000" x2="172.000000" y2="112.000000"  style="stroke:black; stroke-linecap:round; stroke-width:0.25;"/>
<line x1="172.000000" y1="168.000000" x2="180.000000" y2="168.000000"  style="stroke:black; stroke-linecap:round; stroke-width:0.25;"/>
<line x1="172.000000" y1="192.000000" x2="180.000000" y2="192.000000"  style="stroke:black; stroke-linecap:round; stroke-width:0.25;"/>
<line x1="172.000000" y1="224.000000" x2="172.000000" y2="192.000000"  style="stroke:black; stroke-linecap:round; stroke-width:0.25;"/>
<line x1="172.000000" y1="224.000000" x2="172.000000" y2="224.000000"  style="stroke:black; stroke-linecap:round; stroke-width:0.25;"/>
<line x1="180.000000" y1="56.000000" x2="180.000000" y2="72.000000"  style="stroke:black; stroke-linecap:round; stroke-width:0.25;"/>
<line x1="180.000000" y1="72.000000" x2="180.000000" y2="72.000000"  style="stroke:black; stroke-linecap:round; stroke-width:0.25;"/>
<line x1="180.000000" y1="72.000000" x2="184.000000" y2="72.000000"  style="stroke:black; stroke-linecap:round; stroke-width:0.25;"/>
<line x1="180.000000" y1="80.000000" x2="184.000000" y2="80.000000"  style="stroke:black; stroke-linecap:round; stroke-width:0.25;"/>
<line x1="180.000000" y1="168.000000" x2="180.000000" y2="184.000000"  style="stroke:black; stroke-linecap:round; stroke-width:0.25;"/>
<line x1="180.000000" y1="184.000000" x2="180.000000" y2="184.000000"  style="stroke:black; stroke-linecap:round; stroke-width:0.25;"/>
<line x1="180.000000" y1="184.000000" x2="184.000000" y2="184.000000"  style="stroke:black; stroke-linecap:round; stroke-width:0.25;"/>
<line x1="180.000000" y1="192.000000" x2="184.000000" y2="192.000000"  style="stroke:black; stroke-linecap:round; stroke-width:0.25;"/>
<line x1="188.000000" y1="280.000000" x2="192.000000" y2="280.000000"  style="stroke:black; stroke-linecap:round; stroke-width:0.25;"/>
<line x1="192.000000" y1="300.000000" x2="200.000000" y2="300.000000"  style="stroke:black; stroke-linecap:round; stroke-width:0.25;"/>
<line x1="192.000000" y1="332.000000" x2="192.000000" y2="300.000000"  style="stroke:black; stroke-linecap:round; stroke-width:0.25;"/>
<line x1="192.000000" y1="332.000000" x2="192.000000" y2="332.000000"  style="stroke:black; stroke-linecap:round; stroke-width:0.25;"/>
<line x1="192.000000" y1="280.000000" x2="200.000000" y2="280.000000"  style="stroke:black; stroke-linecap:round; stroke-width:0.25;"/>
<line x1="200.000000" y1="280.000000" x2="200.000000" y2="292.000000"  style="stroke:black; stroke-linecap:round; stroke-width:0.25;"/>
<line x1="200.000000" y1="292.000000" x2="200.000000" y2="292.000000"  style="stroke:black; stroke-linecap:round; stroke-width:0.25;"/>
<line x1="200.000000" y1="292.000000" x2="204.000000" y2="292.000000"  style="stroke:black; stroke-linecap:round; stroke-width:0.25;"/>
<line x1="200.000000" y1="300.000000" x2="204.000000" y2="300.000000"  style="stroke:black; stroke-linecap:round; stroke-width:0.25;"/>
<line x1="208.000000" y1="76.000000" x2="212.000000" y2="76.000000"  style="stroke:black; stroke-linecap:round; stroke-width:0.25;"/>
<line x1="208.000000" y1="188.000000" x2="212.000000" y2="188.000000"  style="stroke:black; stroke-linecap:round; stroke-width:0.25;"/>
<line x1="212.000000" y1="76.000000" x2="220.000000" y2="76.000000"  style="stroke:black; stroke-linecap:round; stroke-width:0.25;"/>
<line x1="212.000000" y1="136.000000" x2="220.000000" y2="136.000000"  style="stroke:black; stroke-linecap:round; stroke-width:0.25;"/>
<line x1="212.000000" y1="188.000000" x2="212.000000" y2="136.000000"  style="stroke:black; stroke-linecap:round; stroke-width:0.25;"/>
<line x1="212.000000" y1="188.000000" x2="212.000000" y2="188.000000"  style="stroke:black; stroke-linecap:round; stroke-width:0.25;"/>
<line x1="220.000000" y1="76.000000" x2="220.000000" y2="128.000000"  style="stroke:black; stroke-linecap:round; stroke-width:0.25;"/>
<line x1="220.000000" y1="128.000000" x2="220.000000" y2="128.000000"  style="stroke:black; stroke-linecap:round; stroke-width:0.25;"/>
<line x1="220.000000" y1="128.000000" x2="224.000000" y2="128.000000"  style="stroke:black; stroke-linecap:round; stroke-width:0.25;"/>
<line x1="220.000000" y1="136.000000" x2="224.000000" y2="136.000000"  style="stroke:black; stroke-linecap:round; stroke-width:0.25;"/>
<line x1="228.000000" y1="296.000000" x2="232.000000" y2="296.000000"  style="stroke:black; stroke-linecap:round; stroke-width:0.25;"/>
<line x1="232.000000" y1="296.000000" x2="252.000000" y2="296.000000"  style="stroke:black; stroke-linecap:round; stroke-width:0.25;"/>
<line x1="248.000000" y1="132.000000" x2="252.000000" y2="132.000000"  style="stroke:black; stroke-linecap:round; stroke-width:0.25;"/>
<line x1="252.000000" y1="132.000000" x2="260.000000" y2="132.000000"  style="stroke:black; stroke-linecap:round; stroke-width:0.25;"/>
<line x1="252.000000" y1="188.000000" x2="260.000000" y2="188.000000"  style="stroke:black; stroke-linecap:round; stroke-width:0.25;"/>
<line x1="252.000000" y1="296.000000" x2="252.000000" y2="188.000000"  style="stroke:black; stroke-linecap:round; stroke-width:0.25;"/>
<line x1="252.000000" y1="296.000000" x2="252.000000" y2="296.000000"  style="stroke:black; stroke-linecap:round; stroke-width:0.25;"/>
<line x1="260.000000" y1="132.000000" x2="260.000000" y2="180.000000"  style="stroke:black; stroke-linecap:round; stroke-width:0.25;"/>
<line x1="260.000000" y1="180.000000" x2="260.000000" y2="180.000000"  style="stroke:black; stroke-linecap:round; stroke-width:0.25;"/>
<line x1="260.000000" y1="180.000000" x2="264.000000" y2="180.000000"  style="stroke:black; stroke-linecap:round; stroke-width:0.25;"/>
<line x1="260.000000" y1="188.000000" x2="264.000000" y2="188.000000"  style="stroke:black; stroke-linecap:round; stroke-width:0.25;"/>
<line x1="288.000000" y1="184.000000" x2="292.000000" y2="184.000000"  style="stroke:black; stroke-linecap:round; stroke-width:0.25;"/>
<line x1="292.000000" y1="184.000000" x2="292.000000" y2="184.000000"  style="stroke:black; stroke-linecap:round; stroke-width:0.25;"/>
<line x1="292.000000" y1="184.000000" x2="296.000000" y2="184.000000"  style="stroke:black; stroke-linecap:round; stroke-width:0.25;"/>
<line x1="296.000000" y1="184.000000" x2="300.000000" y2="184.000000"  style="stroke:black; stroke-linecap:round; stroke-width:0.25;"/>
<line x1="300.000000" y1="184.000000" x2="310.000000" y2="184.000000"  style="stroke:black; stroke-linecap:round; stroke-width:0.25;"/>
</svg>
