<?xml version="1.0"?>
<svg xmlns="http://www.w3.org/2000/svg" xmlns:xlink="http://www.w3.org/1999/xlink" viewBox="0 0 469.500000 520.000000" width="234.750000mm" height="260.000000mm" version="1.1">
<a xlink:href="midToTopVal-0x17868fa0.svg">
<rect x="1.000000" y="1.000000" width="468.500000" height="519.000000" rx="0" ry="0" style="stroke:none;fill:#cccccc;"/>
<rect x="0.000000" y="0.000000" width="468.500000" height="519.000000" rx="0" ry="0" style="stroke:none;fill:#ffffff;"/>
</a>
<text x="10.000000" y="7.000000" font-family="Arial" font-size="7"></text>
<rect x="159.750000" y="35.000000" width="24.000000" height="24.000000" rx="0" ry="0" style="stroke:none;fill:#cccccc;"/>
<rect x="158.750000" y="34.000000" width="24.000000" height="24.000000" rx="0" ry="0" style="stroke:none;fill:#f44800;"/>
<text x="170.750000" y="48.000000" font-family="Arial" font-size="7" text-anchor="middle" fill="#FFFFFF">1</text>
<circle cx="160.750000" cy="36.000000" r="1"/>
<line x1="149.750000" y1="25.000000" x2="149.750000" y2="67.000000"  style="stroke: black; stroke-linecap:round; stroke-width:0.25; stroke-dasharray:3,3;"/>
<line x1="149.750000" y1="67.000000" x2="191.750000" y2="67.000000"  style="stroke: black; stroke-linecap:round; stroke-width:0.25; stroke-dasharray:3,3;"/>
<line x1="191.750000" y1="67.000000" x2="191.750000" y2="25.000000"  style="stroke: black; stroke-linecap:round; stroke-width:0.25; stroke-dasharray:3,3;"/>
<line x1="149.750000" y1="25.000000" x2="154.750000" y2="25.000000"  style="stroke: black; stroke-linecap:round; stroke-width:0.25; stroke-dasharray:3,3;"/>
<line x1="167.650000" y1="25.000000" x2="191.750000" y2="25.000000"  style="stroke: black; stroke-linecap:round; stroke-width:0.25; stroke-dasharray:3,3;"/>
<text x="154.750000" y="27.000000" font-family="Arial" font-size="7">b1</text>
<rect x="159.750000" y="87.000000" width="24.000000" height="24.000000" rx="0" ry="0" style="stroke:none;fill:#cccccc;"/>
<rect x="158.750000" y="86.000000" width="24.000000" height="24.000000" rx="0" ry="0" style="stroke:none;fill:#f44800;"/>
<text x="170.750000" y="100.000000" font-family="Arial" font-size="7" text-anchor="middle" fill="#FFFFFF">1</text>
<circle cx="160.750000" cy="88.000000" r="1"/>
<line x1="149.750000" y1="77.000000" x2="149.750000" y2="119.000000"  style="stroke: black; stroke-linecap:round; stroke-width:0.25; stroke-dasharray:3,3;"/>
<line x1="149.750000" y1="119.000000" x2="191.750000" y2="119.000000"  style="stroke: black; stroke-linecap:round; stroke-width:0.25; stroke-dasharray:3,3;"/>
<line x1="191.750000" y1="119.000000" x2="191.750000" y2="77.000000"  style="stroke: black; stroke-linecap:round; stroke-width:0.25; stroke-dasharray:3,3;"/>
<line x1="149.750000" y1="77.000000" x2="154.750000" y2="77.000000"  style="stroke: black; stroke-linecap:round; stroke-width:0.25; stroke-dasharray:3,3;"/>
<line x1="167.650000" y1="77.000000" x2="191.750000" y2="77.000000"  style="stroke: black; stroke-linecap:round; stroke-width:0.25; stroke-dasharray:3,3;"/>
<text x="154.750000" y="79.000000" font-family="Arial" font-size="7">b1</text>
<rect x="209.750000" y="61.000000" width="24.000000" height="24.000000" rx="0" ry="0" style="stroke:none;fill:#cccccc;"/>
<rect x="208.750000" y="60.000000" width="24.000000" height="24.000000" rx="0" ry="0" style="stroke:none;fill:#4B71A1;"/>
<text x="220.750000" y="74.000000" font-family="Arial" font-size="7" text-anchor="middle" fill="#FFFFFF">+</text>
<circle cx="210.750000" cy="62.000000" r="1"/>
<line x1="205.750000" y1="67.000000" x2="208.750000" y2="68.000000"  transform="rotate(0.000000,208.750000,68.000000)" style="stroke: black; stroke-width:0.25;"/>
<line x1="205.750000" y1="69.000000" x2="208.750000" y2="68.000000"  transform="rotate(0.000000,208.750000,68.000000)" style="stroke: black; stroke-width:0.25;"/>
<line x1="205.750000" y1="75.000000" x2="208.750000" y2="76.000000"  transform="rotate(0.000000,208.750000,76.000000)" style="stroke: black; stroke-width:0.25;"/>
<line x1="205.750000" y1="77.000000" x2="208.750000" y2="76.000000"  transform="rotate(0.000000,208.750000,76.000000)" style="stroke: black; stroke-width:0.25;"/>
<rect x="95.000000" y="199.000000" width="193.500000" height="24.000000" rx="0" ry="0" style="stroke:none;fill:#cccccc;"/>
<rect x="94.000000" y="198.000000" width="193.500000" height="24.000000" rx="0" ry="0" style="stroke:none;fill:#477881;"/>
<text x="190.750000" y="212.000000" font-family="Arial" font-size="7" text-anchor="middle" fill="#FFFFFF">vslider(decayBand, 8.0f, 1.0f, 16.0f, 0.001f)</text>
<circle cx="96.000000" cy="200.000000" r="1"/>
<line x1="85.000000" y1="189.000000" x2="85.000000" y2="231.000000"  style="stroke: black; stroke-linecap:round; stroke-width:0.25; stroke-dasharray:3,3;"/>
<line x1="85.000000" y1="231.000000" x2="296.500000" y2="231.000000"  style="stroke: black; stroke-linecap:round; stroke-width:0.25; stroke-dasharray:3,3;"/>
<line x1="296.500000" y1="231.000000" x2="296.500000" y2="189.000000"  style="stroke: black; stroke-linecap:round; stroke-width:0.25; stroke-dasharray:3,3;"/>
<line x1="85.000000" y1="189.000000" x2="90.000000" y2="189.000000"  style="stroke: black; stroke-linecap:round; stroke-width:0.25; stroke-dasharray:3,3;"/>
<line x1="148.050000" y1="189.000000" x2="296.500000" y2="189.000000"  style="stroke: black; stroke-linecap:round; stroke-width:0.25; stroke-dasharray:3,3;"/>
<text x="90.000000" y="191.000000" font-family="Arial" font-size="7">vgroup(mid band)</text>
<line x1="75.000000" y1="179.000000" x2="75.000000" y2="241.000000"  style="stroke: black; stroke-linecap:round; stroke-width:0.25; stroke-dasharray:3,3;"/>
<line x1="75.000000" y1="241.000000" x2="306.500000" y2="241.000000"  style="stroke: black; stroke-linecap:round; stroke-width:0.25; stroke-dasharray:3,3;"/>
<line x1="306.500000" y1="241.000000" x2="306.500000" y2="179.000000"  style="stroke: black; stroke-linecap:round; stroke-width:0.25; stroke-dasharray:3,3;"/>
<line x1="75.000000" y1="179.000000" x2="80.000000" y2="179.000000"  style="stroke: black; stroke-linecap:round; stroke-width:0.25; stroke-dasharray:3,3;"/>
<line x1="144.500000" y1="179.000000" x2="306.500000" y2="179.000000"  style="stroke: black; stroke-linecap:round; stroke-width:0.25; stroke-dasharray:3,3;"/>
<text x="80.000000" y="181.000000" font-family="Arial" font-size="7">hgroup(parameters)</text>
<line x1="65.000000" y1="169.000000" x2="65.000000" y2="251.000000"  style="stroke: black; stroke-linecap:round; stroke-width:0.25; stroke-dasharray:3,3;"/>
<line x1="65.000000" y1="251.000000" x2="316.500000" y2="251.000000"  style="stroke: black; stroke-linecap:round; stroke-width:0.25; stroke-dasharray:3,3;"/>
<line x1="316.500000" y1="251.000000" x2="316.500000" y2="169.000000"  style="stroke: black; stroke-linecap:round; stroke-width:0.25; stroke-dasharray:3,3;"/>
<line x1="65.000000" y1="169.000000" x2="70.000000" y2="169.000000"  style="stroke: black; stroke-linecap:round; stroke-width:0.25; stroke-dasharray:3,3;"/>
<line x1="134.500000" y1="169.000000" x2="316.500000" y2="169.000000"  style="stroke: black; stroke-linecap:round; stroke-width:0.25; stroke-dasharray:3,3;"/>
<text x="70.000000" y="171.000000" font-family="Arial" font-size="7">hgroup(FOFvocoder)</text>
<line x1="55.000000" y1="159.000000" x2="55.000000" y2="261.000000"  style="stroke: black; stroke-linecap:round; stroke-width:0.25; stroke-dasharray:3,3;"/>
<line x1="55.000000" y1="261.000000" x2="326.500000" y2="261.000000"  style="stroke: black; stroke-linecap:round; stroke-width:0.25; stroke-dasharray:3,3;"/>
<line x1="326.500000" y1="261.000000" x2="326.500000" y2="159.000000"  style="stroke: black; stroke-linecap:round; stroke-width:0.25; stroke-dasharray:3,3;"/>
<line x1="55.000000" y1="159.000000" x2="60.000000" y2="159.000000"  style="stroke: black; stroke-linecap:round; stroke-width:0.25; stroke-dasharray:3,3;"/>
<line x1="111.600000" y1="159.000000" x2="326.500000" y2="159.000000"  style="stroke: black; stroke-linecap:round; stroke-width:0.25; stroke-dasharray:3,3;"/>
<text x="60.000000" y="161.000000" font-family="Arial" font-size="7">hgroup(synths)</text>
<line x1="45.000000" y1="149.000000" x2="45.000000" y2="271.000000"  style="stroke: black; stroke-linecap:round; stroke-width:0.25; stroke-dasharray:3,3;"/>
<line x1="45.000000" y1="271.000000" x2="336.500000" y2="271.000000"  style="stroke: black; stroke-linecap:round; stroke-width:0.25; stroke-dasharray:3,3;"/>
<line x1="336.500000" y1="271.000000" x2="336.500000" y2="149.000000"  style="stroke: black; stroke-linecap:round; stroke-width:0.25; stroke-dasharray:3,3;"/>
<line x1="45.000000" y1="149.000000" x2="50.000000" y2="149.000000"  style="stroke: black; stroke-linecap:round; stroke-width:0.25; stroke-dasharray:3,3;"/>
<line x1="82.250000" y1="149.000000" x2="336.500000" y2="149.000000"  style="stroke: black; stroke-linecap:round; stroke-width:0.25; stroke-dasharray:3,3;"/>
<text x="50.000000" y="151.000000" font-family="Arial" font-size="7">tgroup()</text>
<line x1="35.000000" y1="139.000000" x2="35.000000" y2="281.000000"  style="stroke: black; stroke-linecap:round; stroke-width:0.25; stroke-dasharray:3,3;"/>
<line x1="35.000000" y1="281.000000" x2="346.500000" y2="281.000000"  style="stroke: black; stroke-linecap:round; stroke-width:0.25; stroke-dasharray:3,3;"/>
<line x1="346.500000" y1="281.000000" x2="346.500000" y2="139.000000"  style="stroke: black; stroke-linecap:round; stroke-width:0.25; stroke-dasharray:3,3;"/>
<line x1="35.000000" y1="139.000000" x2="40.000000" y2="139.000000"  style="stroke: black; stroke-linecap:round; stroke-width:0.25; stroke-dasharray:3,3;"/>
<line x1="110.950000" y1="139.000000" x2="346.500000" y2="139.000000"  style="stroke: black; stroke-linecap:round; stroke-width:0.25; stroke-dasharray:3,3;"/>
<text x="40.000000" y="141.000000" font-family="Arial" font-size="7">vgroup(VoiceOfFaust)</text>
<line x1="25.000000" y1="129.000000" x2="25.000000" y2="291.000000"  style="stroke: black; stroke-linecap:round; stroke-width:0.25; stroke-dasharray:3,3;"/>
<line x1="25.000000" y1="291.000000" x2="356.500000" y2="291.000000"  style="stroke: black; stroke-linecap:round; stroke-width:0.25; stroke-dasharray:3,3;"/>
<line x1="356.500000" y1="291.000000" x2="356.500000" y2="129.000000"  style="stroke: black; stroke-linecap:round; stroke-width:0.25; stroke-dasharray:3,3;"/>
<line x1="25.000000" y1="129.000000" x2="30.000000" y2="129.000000"  style="stroke: black; stroke-linecap:round; stroke-width:0.25; stroke-dasharray:3,3;"/>
<line x1="75.150000" y1="129.000000" x2="356.500000" y2="129.000000"  style="stroke: black; stroke-linecap:round; stroke-width:0.25; stroke-dasharray:3,3;"/>
<text x="30.000000" y="131.000000" font-family="Arial" font-size="7">fofDecayBand</text>
<rect x="374.500000" y="147.000000" width="24.000000" height="24.000000" rx="0" ry="0" style="stroke:none;fill:#cccccc;"/>
<rect x="373.500000" y="146.000000" width="24.000000" height="24.000000" rx="0" ry="0" style="stroke:none;fill:#4B71A1;"/>
<text x="385.500000" y="160.000000" font-family="Arial" font-size="7" text-anchor="middle" fill="#FFFFFF">-</text>
<circle cx="375.500000" cy="148.000000" r="1"/>
<line x1="370.500000" y1="153.000000" x2="373.500000" y2="154.000000"  transform="rotate(0.000000,373.500000,154.000000)" style="stroke: black; stroke-width:0.25;"/>
<line x1="370.500000" y1="155.000000" x2="373.500000" y2="154.000000"  transform="rotate(0.000000,373.500000,154.000000)" style="stroke: black; stroke-width:0.25;"/>
<line x1="370.500000" y1="161.000000" x2="373.500000" y2="162.000000"  transform="rotate(0.000000,373.500000,162.000000)" style="stroke: black; stroke-width:0.25;"/>
<line x1="370.500000" y1="163.000000" x2="373.500000" y2="162.000000"  transform="rotate(0.000000,373.500000,162.000000)" style="stroke: black; stroke-width:0.25;"/>
<a xlink:href="nrBands-0x361c260.svg">
<rect x="172.400000" y="301.000000" width="38.700000" height="24.000000" rx="0" ry="0" style="stroke:none;fill:#cccccc;"/>
<rect x="171.400000" y="300.000000" width="38.700000" height="24.000000" rx="0" ry="0" style="stroke:none;fill:#003366;"/>
</a>
<a xlink:href="nrBands-0x361c260.svg">
<text x="190.750000" y="314.000000" font-family="Arial" font-size="7" text-anchor="middle" fill="#FFFFFF">nrBands</text>
</a>
<circle cx="173.400000" cy="302.000000" r="1"/>
<rect x="95.000000" y="403.000000" width="193.500000" height="24.000000" rx="0" ry="0" style="stroke:none;fill:#cccccc;"/>
<rect x="94.000000" y="402.000000" width="193.500000" height="24.000000" rx="0" ry="0" style="stroke:none;fill:#477881;"/>
<text x="190.750000" y="416.000000" font-family="Arial" font-size="7" text-anchor="middle" fill="#FFFFFF">vslider(decayBand, 8.0f, 1.0f, 16.0f, 0.001f)</text>
<circle cx="96.000000" cy="404.000000" r="1"/>
<line x1="85.000000" y1="393.000000" x2="85.000000" y2="435.000000"  style="stroke: black; stroke-linecap:round; stroke-width:0.25; stroke-dasharray:3,3;"/>
<line x1="85.000000" y1="435.000000" x2="296.500000" y2="435.000000"  style="stroke: black; stroke-linecap:round; stroke-width:0.25; stroke-dasharray:3,3;"/>
<line x1="296.500000" y1="435.000000" x2="296.500000" y2="393.000000"  style="stroke: black; stroke-linecap:round; stroke-width:0.25; stroke-dasharray:3,3;"/>
<line x1="85.000000" y1="393.000000" x2="90.000000" y2="393.000000"  style="stroke: black; stroke-linecap:round; stroke-width:0.25; stroke-dasharray:3,3;"/>
<line x1="148.050000" y1="393.000000" x2="296.500000" y2="393.000000"  style="stroke: black; stroke-linecap:round; stroke-width:0.25; stroke-dasharray:3,3;"/>
<text x="90.000000" y="395.000000" font-family="Arial" font-size="7">vgroup(mid band)</text>
<line x1="75.000000" y1="383.000000" x2="75.000000" y2="445.000000"  style="stroke: black; stroke-linecap:round; stroke-width:0.25; stroke-dasharray:3,3;"/>
<line x1="75.000000" y1="445.000000" x2="306.500000" y2="445.000000"  style="stroke: black; stroke-linecap:round; stroke-width:0.25; stroke-dasharray:3,3;"/>
<line x1="306.500000" y1="445.000000" x2="306.500000" y2="383.000000"  style="stroke: black; stroke-linecap:round; stroke-width:0.25; stroke-dasharray:3,3;"/>
<line x1="75.000000" y1="383.000000" x2="80.000000" y2="383.000000"  style="stroke: black; stroke-linecap:round; stroke-width:0.25; stroke-dasharray:3,3;"/>
<line x1="144.500000" y1="383.000000" x2="306.500000" y2="383.000000"  style="stroke: black; stroke-linecap:round; stroke-width:0.25; stroke-dasharray:3,3;"/>
<text x="80.000000" y="385.000000" font-family="Arial" font-size="7">hgroup(parameters)</text>
<line x1="65.000000" y1="373.000000" x2="65.000000" y2="455.000000"  style="stroke: black; stroke-linecap:round; stroke-width:0.25; stroke-dasharray:3,3;"/>
<line x1="65.000000" y1="455.000000" x2="316.500000" y2="455.000000"  style="stroke: black; stroke-linecap:round; stroke-width:0.25; stroke-dasharray:3,3;"/>
<line x1="316.500000" y1="455.000000" x2="316.500000" y2="373.000000"  style="stroke: black; stroke-linecap:round; stroke-width:0.25; stroke-dasharray:3,3;"/>
<line x1="65.000000" y1="373.000000" x2="70.000000" y2="373.000000"  style="stroke: black; stroke-linecap:round; stroke-width:0.25; stroke-dasharray:3,3;"/>
<line x1="134.500000" y1="373.000000" x2="316.500000" y2="373.000000"  style="stroke: black; stroke-linecap:round; stroke-width:0.25; stroke-dasharray:3,3;"/>
<text x="70.000000" y="375.000000" font-family="Arial" font-size="7">hgroup(FOFvocoder)</text>
<line x1="55.000000" y1="363.000000" x2="55.000000" y2="465.000000"  style="stroke: black; stroke-linecap:round; stroke-width:0.25; stroke-dasharray:3,3;"/>
<line x1="55.000000" y1="465.000000" x2="326.500000" y2="465.000000"  style="stroke: black; stroke-linecap:round; stroke-width:0.25; stroke-dasharray:3,3;"/>
<line x1="326.500000" y1="465.000000" x2="326.500000" y2="363.000000"  style="stroke: black; stroke-linecap:round; stroke-width:0.25; stroke-dasharray:3,3;"/>
<line x1="55.000000" y1="363.000000" x2="60.000000" y2="363.000000"  style="stroke: black; stroke-linecap:round; stroke-width:0.25; stroke-dasharray:3,3;"/>
<line x1="111.600000" y1="363.000000" x2="326.500000" y2="363.000000"  style="stroke: black; stroke-linecap:round; stroke-width:0.25; stroke-dasharray:3,3;"/>
<text x="60.000000" y="365.000000" font-family="Arial" font-size="7">hgroup(synths)</text>
<line x1="45.000000" y1="353.000000" x2="45.000000" y2="475.000000"  style="stroke: black; stroke-linecap:round; stroke-width:0.25; stroke-dasharray:3,3;"/>
<line x1="45.000000" y1="475.000000" x2="336.500000" y2="475.000000"  style="stroke: black; stroke-linecap:round; stroke-width:0.25; stroke-dasharray:3,3;"/>
<line x1="336.500000" y1="475.000000" x2="336.500000" y2="353.000000"  style="stroke: black; stroke-linecap:round; stroke-width:0.25; stroke-dasharray:3,3;"/>
<line x1="45.000000" y1="353.000000" x2="50.000000" y2="353.000000"  style="stroke: black; stroke-linecap:round; stroke-width:0.25; stroke-dasharray:3,3;"/>
<line x1="82.250000" y1="353.000000" x2="336.500000" y2="353.000000"  style="stroke: black; stroke-linecap:round; stroke-width:0.25; stroke-dasharray:3,3;"/>
<text x="50.000000" y="355.000000" font-family="Arial" font-size="7">tgroup()</text>
<line x1="35.000000" y1="343.000000" x2="35.000000" y2="485.000000"  style="stroke: black; stroke-linecap:round; stroke-width:0.25; stroke-dasharray:3,3;"/>
<line x1="35.000000" y1="485.000000" x2="346.500000" y2="485.000000"  style="stroke: black; stroke-linecap:round; stroke-width:0.25; stroke-dasharray:3,3;"/>
<line x1="346.500000" y1="485.000000" x2="346.500000" y2="343.000000"  style="stroke: black; stroke-linecap:round; stroke-width:0.25; stroke-dasharray:3,3;"/>
<line x1="35.000000" y1="343.000000" x2="40.000000" y2="343.000000"  style="stroke: black; stroke-linecap:round; stroke-width:0.25; stroke-dasharray:3,3;"/>
<line x1="110.950000" y1="343.000000" x2="346.500000" y2="343.000000"  style="stroke: black; stroke-linecap:round; stroke-width:0.25; stroke-dasharray:3,3;"/>
<text x="40.000000" y="345.000000" font-family="Arial" font-size="7">vgroup(VoiceOfFaust)</text>
<line x1="25.000000" y1="333.000000" x2="25.000000" y2="495.000000"  style="stroke: black; stroke-linecap:round; stroke-width:0.25; stroke-dasharray:3,3;"/>
<line x1="25.000000" y1="495.000000" x2="356.500000" y2="495.000000"  style="stroke: black; stroke-linecap:round; stroke-width:0.25; stroke-dasharray:3,3;"/>
<line x1="356.500000" y1="495.000000" x2="356.500000" y2="333.000000"  style="stroke: black; stroke-linecap:round; stroke-width:0.25; stroke-dasharray:3,3;"/>
<line x1="25.000000" y1="333.000000" x2="30.000000" y2="333.000000"  style="stroke: black; stroke-linecap:round; stroke-width:0.25; stroke-dasharray:3,3;"/>
<line x1="75.150000" y1="333.000000" x2="356.500000" y2="333.000000"  style="stroke: black; stroke-linecap:round; stroke-width:0.25; stroke-dasharray:3,3;"/>
<text x="30.000000" y="335.000000" font-family="Arial" font-size="7">fofDecayBand</text>
<rect x="374.500000" y="387.000000" width="24.000000" height="24.000000" rx="0" ry="0" style="stroke:none;fill:#cccccc;"/>
<rect x="373.500000" y="386.000000" width="24.000000" height="24.000000" rx="0" ry="0" style="stroke:none;fill:#4B71A1;"/>
<text x="385.500000" y="400.000000" font-family="Arial" font-size="7" text-anchor="middle" fill="#FFFFFF">-</text>
<circle cx="375.500000" cy="388.000000" r="1"/>
<line x1="370.500000" y1="393.000000" x2="373.500000" y2="394.000000"  transform="rotate(0.000000,373.500000,394.000000)" style="stroke: black; stroke-width:0.25;"/>
<line x1="370.500000" y1="395.000000" x2="373.500000" y2="394.000000"  transform="rotate(0.000000,373.500000,394.000000)" style="stroke: black; stroke-width:0.25;"/>
<line x1="370.500000" y1="401.000000" x2="373.500000" y2="402.000000"  transform="rotate(0.000000,373.500000,402.000000)" style="stroke: black; stroke-width:0.25;"/>
<line x1="370.500000" y1="403.000000" x2="373.500000" y2="402.000000"  transform="rotate(0.000000,373.500000,402.000000)" style="stroke: black; stroke-width:0.25;"/>
<rect x="414.500000" y="249.000000" width="24.000000" height="24.000000" rx="0" ry="0" style="stroke:none;fill:#cccccc;"/>
<rect x="413.500000" y="248.000000" width="24.000000" height="24.000000" rx="0" ry="0" style="stroke:none;fill:#4B71A1;"/>
<text x="425.500000" y="262.000000" font-family="Arial" font-size="7" text-anchor="middle" fill="#FFFFFF">/</text>
<circle cx="415.500000" cy="250.000000" r="1"/>
<line x1="410.500000" y1="255.000000" x2="413.500000" y2="256.000000"  transform="rotate(0.000000,413.500000,256.000000)" style="stroke: black; stroke-width:0.25;"/>
<line x1="410.500000" y1="257.000000" x2="413.500000" y2="256.000000"  transform="rotate(0.000000,413.500000,256.000000)" style="stroke: black; stroke-width:0.25;"/>
<line x1="410.500000" y1="263.000000" x2="413.500000" y2="264.000000"  transform="rotate(0.000000,413.500000,264.000000)" style="stroke: black; stroke-width:0.25;"/>
<line x1="410.500000" y1="265.000000" x2="413.500000" y2="264.000000"  transform="rotate(0.000000,413.500000,264.000000)" style="stroke: black; stroke-width:0.25;"/>
<line x1="15.000000" y1="15.000000" x2="15.000000" y2="505.000000"  style="stroke: black; stroke-linecap:round; stroke-width:0.25; stroke-dasharray:3,3;"/>
<line x1="15.000000" y1="505.000000" x2="454.500000" y2="505.000000"  style="stroke: black; stroke-linecap:round; stroke-width:0.25; stroke-dasharray:3,3;"/>
<line x1="454.500000" y1="505.000000" x2="454.500000" y2="15.000000"  style="stroke: black; stroke-linecap:round; stroke-width:0.25; stroke-dasharray:3,3;"/>
<line x1="15.000000" y1="15.000000" x2="20.000000" y2="15.000000"  style="stroke: black; stroke-linecap:round; stroke-width:0.25; stroke-dasharray:3,3;"/>
<line x1="61.925000" y1="15.000000" x2="454.500000" y2="15.000000"  style="stroke: black; stroke-linecap:round; stroke-width:0.25; stroke-dasharray:3,3;"/>
<text x="20.000000" y="17.000000" font-family="Arial" font-size="7">midToTop(1)</text>
<line x1="456.500000" y1="259.000000" x2="459.500000" y2="260.000000"  transform="rotate(0.000000,459.500000,260.000000)" style="stroke: black; stroke-width:0.25;"/>
<line x1="456.500000" y1="261.000000" x2="459.500000" y2="260.000000"  transform="rotate(0.000000,459.500000,260.000000)" style="stroke: black; stroke-width:0.25;"/>
<line x1="182.750000" y1="46.000000" x2="186.750000" y2="46.000000"  style="stroke:black; stroke-linecap:round; stroke-width:0.25;"/>
<line x1="182.750000" y1="98.000000" x2="186.750000" y2="98.000000"  style="stroke:black; stroke-linecap:round; stroke-width:0.25;"/>
<line x1="186.750000" y1="46.000000" x2="196.750000" y2="46.000000"  style="stroke:black; stroke-linecap:round; stroke-width:0.25;"/>
<line x1="186.750000" y1="98.000000" x2="196.750000" y2="98.000000"  style="stroke:black; stroke-linecap:round; stroke-width:0.25;"/>
<line x1="196.750000" y1="46.000000" x2="204.750000" y2="46.000000"  style="stroke:black; stroke-linecap:round; stroke-width:0.25;"/>
<line x1="196.750000" y1="76.000000" x2="204.750000" y2="76.000000"  style="stroke:black; stroke-linecap:round; stroke-width:0.25;"/>
<line x1="196.750000" y1="98.000000" x2="196.750000" y2="76.000000"  style="stroke:black; stroke-linecap:round; stroke-width:0.25;"/>
<line x1="196.750000" y1="98.000000" x2="196.750000" y2="98.000000"  style="stroke:black; stroke-linecap:round; stroke-width:0.25;"/>
<line x1="204.750000" y1="46.000000" x2="204.750000" y2="68.000000"  style="stroke:black; stroke-linecap:round; stroke-width:0.25;"/>
<line x1="204.750000" y1="68.000000" x2="204.750000" y2="68.000000"  style="stroke:black; stroke-linecap:round; stroke-width:0.25;"/>
<line x1="204.750000" y1="68.000000" x2="208.750000" y2="68.000000"  style="stroke:black; stroke-linecap:round; stroke-width:0.25;"/>
<line x1="204.750000" y1="76.000000" x2="208.750000" y2="76.000000"  style="stroke:black; stroke-linecap:round; stroke-width:0.25;"/>
<line x1="210.100000" y1="312.000000" x2="214.100000" y2="312.000000"  style="stroke:black; stroke-linecap:round; stroke-width:0.25;"/>
<line x1="214.100000" y1="312.000000" x2="361.500000" y2="312.000000"  style="stroke:black; stroke-linecap:round; stroke-width:0.25;"/>
<line x1="232.750000" y1="72.000000" x2="236.750000" y2="72.000000"  style="stroke:black; stroke-linecap:round; stroke-width:0.25;"/>
<line x1="236.750000" y1="72.000000" x2="361.500000" y2="72.000000"  style="stroke:black; stroke-linecap:round; stroke-width:0.25;"/>
<line x1="287.500000" y1="210.000000" x2="291.500000" y2="210.000000"  style="stroke:black; stroke-linecap:round; stroke-width:0.25;"/>
<line x1="287.500000" y1="414.000000" x2="291.500000" y2="414.000000"  style="stroke:black; stroke-linecap:round; stroke-width:0.25;"/>
<line x1="291.500000" y1="210.000000" x2="301.500000" y2="210.000000"  style="stroke:black; stroke-linecap:round; stroke-width:0.25;"/>
<line x1="291.500000" y1="414.000000" x2="301.500000" y2="414.000000"  style="stroke:black; stroke-linecap:round; stroke-width:0.25;"/>
<line x1="301.500000" y1="210.000000" x2="311.500000" y2="210.000000"  style="stroke:black; stroke-linecap:round; stroke-width:0.25;"/>
<line x1="301.500000" y1="414.000000" x2="311.500000" y2="414.000000"  style="stroke:black; stroke-linecap:round; stroke-width:0.25;"/>
<line x1="311.500000" y1="210.000000" x2="321.500000" y2="210.000000"  style="stroke:black; stroke-linecap:round; stroke-width:0.25;"/>
<line x1="311.500000" y1="414.000000" x2="321.500000" y2="414.000000"  style="stroke:black; stroke-linecap:round; stroke-width:0.25;"/>
<line x1="321.500000" y1="210.000000" x2="331.500000" y2="210.000000"  style="stroke:black; stroke-linecap:round; stroke-width:0.25;"/>
<line x1="321.500000" y1="414.000000" x2="331.500000" y2="414.000000"  style="stroke:black; stroke-linecap:round; stroke-width:0.25;"/>
<line x1="331.500000" y1="210.000000" x2="341.500000" y2="210.000000"  style="stroke:black; stroke-linecap:round; stroke-width:0.25;"/>
<line x1="331.500000" y1="414.000000" x2="341.500000" y2="414.000000"  style="stroke:black; stroke-linecap:round; stroke-width:0.25;"/>
<line x1="341.500000" y1="210.000000" x2="351.500000" y2="210.000000"  style="stroke:black; stroke-linecap:round; stroke-width:0.25;"/>
<line x1="341.500000" y1="414.000000" x2="351.500000" y2="414.000000"  style="stroke:black; stroke-linecap:round; stroke-width:0.25;"/>
<line x1="351.500000" y1="210.000000" x2="361.500000" y2="210.000000"  style="stroke:black; stroke-linecap:round; stroke-width:0.25;"/>
<line x1="351.500000" y1="414.000000" x2="361.500000" y2="414.000000"  style="stroke:black; stroke-linecap:round; stroke-width:0.25;"/>
<line x1="361.500000" y1="72.000000" x2="369.500000" y2="72.000000"  style="stroke:black; stroke-linecap:round; stroke-width:0.25;"/>
<line x1="361.500000" y1="162.000000" x2="369.500000" y2="162.000000"  style="stroke:black; stroke-linecap:round; stroke-width:0.25;"/>
<line x1="361.500000" y1="210.000000" x2="361.500000" y2="162.000000"  style="stroke:black; stroke-linecap:round; stroke-width:0.25;"/>
<line x1="361.500000" y1="210.000000" x2="361.500000" y2="210.000000"  style="stroke:black; stroke-linecap:round; stroke-width:0.25;"/>
<line x1="361.500000" y1="312.000000" x2="369.500000" y2="312.000000"  style="stroke:black; stroke-linecap:round; stroke-width:0.25;"/>
<line x1="361.500000" y1="402.000000" x2="369.500000" y2="402.000000"  style="stroke:black; stroke-linecap:round; stroke-width:0.25;"/>
<line x1="361.500000" y1="414.000000" x2="361.500000" y2="402.000000"  style="stroke:black; stroke-linecap:round; stroke-width:0.25;"/>
<line x1="361.500000" y1="414.000000" x2="361.500000" y2="414.000000"  style="stroke:black; stroke-linecap:round; stroke-width:0.25;"/>
<line x1="369.500000" y1="72.000000" x2="369.500000" y2="154.000000"  style="stroke:black; stroke-linecap:round; stroke-width:0.25;"/>
<line x1="369.500000" y1="154.000000" x2="369.500000" y2="154.000000"  style="stroke:black; stroke-linecap:round; stroke-width:0.25;"/>
<line x1="369.500000" y1="154.000000" x2="373.500000" y2="154.000000"  style="stroke:black; stroke-linecap:round; stroke-width:0.25;"/>
<line x1="369.500000" y1="162.000000" x2="373.500000" y2="162.000000"  style="stroke:black; stroke-linecap:round; stroke-width:0.25;"/>
<line x1="369.500000" y1="312.000000" x2="369.500000" y2="394.000000"  style="stroke:black; stroke-linecap:round; stroke-width:0.25;"/>
<line x1="369.500000" y1="394.000000" x2="369.500000" y2="394.000000"  style="stroke:black; stroke-linecap:round; stroke-width:0.25;"/>
<line x1="369.500000" y1="394.000000" x2="373.500000" y2="394.000000"  style="stroke:black; stroke-linecap:round; stroke-width:0.25;"/>
<line x1="369.500000" y1="402.000000" x2="373.500000" y2="402.000000"  style="stroke:black; stroke-linecap:round; stroke-width:0.25;"/>
<line x1="397.500000" y1="158.000000" x2="401.500000" y2="158.000000"  style="stroke:black; stroke-linecap:round; stroke-width:0.25;"/>
<line x1="397.500000" y1="398.000000" x2="401.500000" y2="398.000000"  style="stroke:black; stroke-linecap:round; stroke-width:0.25;"/>
<line x1="401.500000" y1="158.000000" x2="409.500000" y2="158.000000"  style="stroke:black; stroke-linecap:round; stroke-width:0.25;"/>
<line x1="401.500000" y1="264.000000" x2="409.500000" y2="264.000000"  style="stroke:black; stroke-linecap:round; stroke-width:0.25;"/>
<line x1="401.500000" y1="398.000000" x2="401.500000" y2="264.000000"  style="stroke:black; stroke-linecap:round; stroke-width:0.25;"/>
<line x1="401.500000" y1="398.000000" x2="401.500000" y2="398.000000"  style="stroke:black; stroke-linecap:round; stroke-width:0.25;"/>
<line x1="409.500000" y1="158.000000" x2="409.500000" y2="256.000000"  style="stroke:black; stroke-linecap:round; stroke-width:0.25;"/>
<line x1="409.500000" y1="256.000000" x2="409.500000" y2="256.000000"  style="stroke:black; stroke-linecap:round; stroke-width:0.25;"/>
<line x1="409.500000" y1="256.000000" x2="413.500000" y2="256.000000"  style="stroke:black; stroke-linecap:round; stroke-width:0.25;"/>
<line x1="409.500000" y1="264.000000" x2="413.500000" y2="264.000000"  style="stroke:black; stroke-linecap:round; stroke-width:0.25;"/>
<line x1="437.500000" y1="260.000000" x2="441.500000" y2="260.000000"  style="stroke:black; stroke-linecap:round; stroke-width:0.25;"/>
<line x1="441.500000" y1="260.000000" x2="441.500000" y2="260.000000"  style="stroke:black; stroke-linecap:round; stroke-width:0.25;"/>
<line x1="441.500000" y1="260.000000" x2="445.500000" y2="260.000000"  style="stroke:black; stroke-linecap:round; stroke-width:0.25;"/>
<line x1="445.500000" y1="260.000000" x2="449.500000" y2="260.000000"  style="stroke:black; stroke-linecap:round; stroke-width:0.25;"/>
<line x1="449.500000" y1="260.000000" x2="459.500000" y2="260.000000"  style="stroke:black; stroke-linecap:round; stroke-width:0.25;"/>
</svg>
