<?xml version="1.0"?>
<svg xmlns="http://www.w3.org/2000/svg" xmlns:xlink="http://www.w3.org/1999/xlink" viewBox="0 0 596.100000 392.000000" width="298.050000mm" height="196.000000mm" version="1.1">
<a xlink:href="OctMuliply-0x273f2e90.svg">
<rect x="1.000000" y="1.000000" width="595.100000" height="391.000000" rx="0" ry="0" style="stroke:none;fill:#cccccc;"/>
<rect x="0.000000" y="0.000000" width="595.100000" height="391.000000" rx="0" ry="0" style="stroke:none;fill:#ffffff;"/>
</a>
<text x="10.000000" y="7.000000" font-family="Arial" font-size="7"></text>
<rect x="231.700000" y="35.000000" width="24.000000" height="24.000000" rx="0" ry="0" style="stroke:none;fill:#cccccc;"/>
<rect x="230.700000" y="34.000000" width="24.000000" height="24.000000" rx="0" ry="0" style="stroke:none;fill:#f44800;"/>
<text x="242.700000" y="48.000000" font-family="Arial" font-size="7" text-anchor="middle" fill="#FFFFFF">0</text>
<circle cx="232.700000" cy="36.000000" r="1"/>
<line x1="221.700000" y1="25.000000" x2="221.700000" y2="67.000000"  style="stroke: black; stroke-linecap:round; stroke-width:0.25; stroke-dasharray:3,3;"/>
<line x1="221.700000" y1="67.000000" x2="263.700000" y2="67.000000"  style="stroke: black; stroke-linecap:round; stroke-width:0.25; stroke-dasharray:3,3;"/>
<line x1="263.700000" y1="67.000000" x2="263.700000" y2="25.000000"  style="stroke: black; stroke-linecap:round; stroke-width:0.25; stroke-dasharray:3,3;"/>
<line x1="221.700000" y1="25.000000" x2="226.700000" y2="25.000000"  style="stroke: black; stroke-linecap:round; stroke-width:0.25; stroke-dasharray:3,3;"/>
<line x1="239.600000" y1="25.000000" x2="263.700000" y2="25.000000"  style="stroke: black; stroke-linecap:round; stroke-width:0.25; stroke-dasharray:3,3;"/>
<text x="226.700000" y="27.000000" font-family="Arial" font-size="7">b2</text>
<rect x="231.700000" y="87.000000" width="24.000000" height="24.000000" rx="0" ry="0" style="stroke:none;fill:#cccccc;"/>
<rect x="230.700000" y="86.000000" width="24.000000" height="24.000000" rx="0" ry="0" style="stroke:none;fill:#f44800;"/>
<text x="242.700000" y="100.000000" font-family="Arial" font-size="7" text-anchor="middle" fill="#FFFFFF">0</text>
<circle cx="232.700000" cy="88.000000" r="1"/>
<line x1="221.700000" y1="77.000000" x2="221.700000" y2="119.000000"  style="stroke: black; stroke-linecap:round; stroke-width:0.25; stroke-dasharray:3,3;"/>
<line x1="221.700000" y1="119.000000" x2="263.700000" y2="119.000000"  style="stroke: black; stroke-linecap:round; stroke-width:0.25; stroke-dasharray:3,3;"/>
<line x1="263.700000" y1="119.000000" x2="263.700000" y2="77.000000"  style="stroke: black; stroke-linecap:round; stroke-width:0.25; stroke-dasharray:3,3;"/>
<line x1="221.700000" y1="77.000000" x2="226.700000" y2="77.000000"  style="stroke: black; stroke-linecap:round; stroke-width:0.25; stroke-dasharray:3,3;"/>
<line x1="239.600000" y1="77.000000" x2="263.700000" y2="77.000000"  style="stroke: black; stroke-linecap:round; stroke-width:0.25; stroke-dasharray:3,3;"/>
<text x="226.700000" y="79.000000" font-family="Arial" font-size="7">b2</text>
<rect x="281.700000" y="61.000000" width="24.000000" height="24.000000" rx="0" ry="0" style="stroke:none;fill:#cccccc;"/>
<rect x="280.700000" y="60.000000" width="24.000000" height="24.000000" rx="0" ry="0" style="stroke:none;fill:#4B71A1;"/>
<text x="292.700000" y="74.000000" font-family="Arial" font-size="7" text-anchor="middle" fill="#FFFFFF">&gt;</text>
<circle cx="282.700000" cy="62.000000" r="1"/>
<line x1="277.700000" y1="67.000000" x2="280.700000" y2="68.000000"  transform="rotate(0.000000,280.700000,68.000000)" style="stroke: black; stroke-width:0.25;"/>
<line x1="277.700000" y1="69.000000" x2="280.700000" y2="68.000000"  transform="rotate(0.000000,280.700000,68.000000)" style="stroke: black; stroke-width:0.25;"/>
<line x1="277.700000" y1="75.000000" x2="280.700000" y2="76.000000"  transform="rotate(0.000000,280.700000,76.000000)" style="stroke: black; stroke-width:0.25;"/>
<line x1="277.700000" y1="77.000000" x2="280.700000" y2="76.000000"  transform="rotate(0.000000,280.700000,76.000000)" style="stroke: black; stroke-width:0.25;"/>
<rect x="251.700000" y="139.000000" width="24.000000" height="24.000000" rx="0" ry="0" style="stroke:none;fill:#cccccc;"/>
<rect x="250.700000" y="138.000000" width="24.000000" height="24.000000" rx="0" ry="0" style="stroke:none;fill:#f44800;"/>
<text x="262.700000" y="152.000000" font-family="Arial" font-size="7" text-anchor="middle" fill="#FFFFFF">1</text>
<circle cx="252.700000" cy="140.000000" r="1"/>
<line x1="241.700000" y1="129.000000" x2="241.700000" y2="171.000000"  style="stroke: black; stroke-linecap:round; stroke-width:0.25; stroke-dasharray:3,3;"/>
<line x1="241.700000" y1="171.000000" x2="283.700000" y2="171.000000"  style="stroke: black; stroke-linecap:round; stroke-width:0.25; stroke-dasharray:3,3;"/>
<line x1="283.700000" y1="171.000000" x2="283.700000" y2="129.000000"  style="stroke: black; stroke-linecap:round; stroke-width:0.25; stroke-dasharray:3,3;"/>
<line x1="241.700000" y1="129.000000" x2="246.700000" y2="129.000000"  style="stroke: black; stroke-linecap:round; stroke-width:0.25; stroke-dasharray:3,3;"/>
<line x1="259.600000" y1="129.000000" x2="283.700000" y2="129.000000"  style="stroke: black; stroke-linecap:round; stroke-width:0.25; stroke-dasharray:3,3;"/>
<text x="246.700000" y="131.000000" font-family="Arial" font-size="7">b1</text>
<rect x="141.700000" y="191.000000" width="24.000000" height="24.000000" rx="0" ry="0" style="stroke:none;fill:#cccccc;"/>
<rect x="140.700000" y="190.000000" width="24.000000" height="24.000000" rx="0" ry="0" style="stroke:none;fill:#f44800;"/>
<text x="152.700000" y="204.000000" font-family="Arial" font-size="7" text-anchor="middle" fill="#FFFFFF">0</text>
<circle cx="142.700000" cy="192.000000" r="1"/>
<line x1="131.700000" y1="181.000000" x2="131.700000" y2="223.000000"  style="stroke: black; stroke-linecap:round; stroke-width:0.25; stroke-dasharray:3,3;"/>
<line x1="131.700000" y1="223.000000" x2="173.700000" y2="223.000000"  style="stroke: black; stroke-linecap:round; stroke-width:0.25; stroke-dasharray:3,3;"/>
<line x1="173.700000" y1="223.000000" x2="173.700000" y2="181.000000"  style="stroke: black; stroke-linecap:round; stroke-width:0.25; stroke-dasharray:3,3;"/>
<line x1="131.700000" y1="181.000000" x2="136.700000" y2="181.000000"  style="stroke: black; stroke-linecap:round; stroke-width:0.25; stroke-dasharray:3,3;"/>
<line x1="149.600000" y1="181.000000" x2="173.700000" y2="181.000000"  style="stroke: black; stroke-linecap:round; stroke-width:0.25; stroke-dasharray:3,3;"/>
<text x="136.700000" y="183.000000" font-family="Arial" font-size="7">b2</text>
<rect x="35.000000" y="263.000000" width="24.000000" height="24.000000" rx="0" ry="0" style="stroke:none;fill:#cccccc;"/>
<rect x="34.000000" y="262.000000" width="24.000000" height="24.000000" rx="0" ry="0" style="stroke:none;fill:#f44800;"/>
<text x="46.000000" y="276.000000" font-family="Arial" font-size="7" text-anchor="middle" fill="#FFFFFF">2</text>
<circle cx="36.000000" cy="264.000000" r="1"/>
<line x1="25.000000" y1="253.000000" x2="25.000000" y2="295.000000"  style="stroke: black; stroke-linecap:round; stroke-width:0.25; stroke-dasharray:3,3;"/>
<line x1="25.000000" y1="295.000000" x2="67.000000" y2="295.000000"  style="stroke: black; stroke-linecap:round; stroke-width:0.25; stroke-dasharray:3,3;"/>
<line x1="67.000000" y1="295.000000" x2="67.000000" y2="253.000000"  style="stroke: black; stroke-linecap:round; stroke-width:0.25; stroke-dasharray:3,3;"/>
<line x1="25.000000" y1="253.000000" x2="30.000000" y2="253.000000"  style="stroke: black; stroke-linecap:round; stroke-width:0.25; stroke-dasharray:3,3;"/>
<line x1="39.675000" y1="253.000000" x2="67.000000" y2="253.000000"  style="stroke: black; stroke-linecap:round; stroke-width:0.25; stroke-dasharray:3,3;"/>
<text x="30.000000" y="255.000000" font-family="Arial" font-size="7">M</text>
<rect x="85.000000" y="241.000000" width="51.600000" height="24.000000" rx="0" ry="0" style="stroke:none;fill:#cccccc;"/>
<rect x="84.000000" y="240.000000" width="51.600000" height="24.000000" rx="0" ry="0" style="stroke:none;fill:#47945E;"/>
<text x="109.800000" y="254.000000" font-family="Arial" font-size="7" text-anchor="middle" fill="#FFFFFF">octaviation</text>
<circle cx="86.000000" cy="242.000000" r="1"/>
<rect x="98.800000" y="283.000000" width="24.000000" height="24.000000" rx="0" ry="0" style="stroke:none;fill:#cccccc;"/>
<rect x="97.800000" y="282.000000" width="24.000000" height="24.000000" rx="0" ry="0" style="stroke:none;fill:#f44800;"/>
<text x="109.800000" y="296.000000" font-family="Arial" font-size="7" text-anchor="middle" fill="#FFFFFF">1</text>
<circle cx="99.800000" cy="284.000000" r="1"/>
<line x1="88.800000" y1="273.000000" x2="88.800000" y2="315.000000"  style="stroke: black; stroke-linecap:round; stroke-width:0.25; stroke-dasharray:3,3;"/>
<line x1="88.800000" y1="315.000000" x2="130.800000" y2="315.000000"  style="stroke: black; stroke-linecap:round; stroke-width:0.25; stroke-dasharray:3,3;"/>
<line x1="130.800000" y1="315.000000" x2="130.800000" y2="273.000000"  style="stroke: black; stroke-linecap:round; stroke-width:0.25; stroke-dasharray:3,3;"/>
<line x1="88.800000" y1="273.000000" x2="93.800000" y2="273.000000"  style="stroke: black; stroke-linecap:round; stroke-width:0.25; stroke-dasharray:3,3;"/>
<line x1="106.700000" y1="273.000000" x2="130.800000" y2="273.000000"  style="stroke: black; stroke-linecap:round; stroke-width:0.25; stroke-dasharray:3,3;"/>
<text x="93.800000" y="275.000000" font-family="Arial" font-size="7">b1</text>
<rect x="152.600000" y="267.000000" width="24.000000" height="24.000000" rx="0" ry="0" style="stroke:none;fill:#cccccc;"/>
<rect x="151.600000" y="266.000000" width="24.000000" height="24.000000" rx="0" ry="0" style="stroke:none;fill:#4B71A1;"/>
<text x="163.600000" y="280.000000" font-family="Arial" font-size="7" text-anchor="middle" fill="#FFFFFF">+</text>
<circle cx="153.600000" cy="268.000000" r="1"/>
<line x1="148.600000" y1="273.000000" x2="151.600000" y2="274.000000"  transform="rotate(0.000000,151.600000,274.000000)" style="stroke: black; stroke-width:0.25;"/>
<line x1="148.600000" y1="275.000000" x2="151.600000" y2="274.000000"  transform="rotate(0.000000,151.600000,274.000000)" style="stroke: black; stroke-width:0.25;"/>
<line x1="148.600000" y1="281.000000" x2="151.600000" y2="282.000000"  transform="rotate(0.000000,151.600000,282.000000)" style="stroke: black; stroke-width:0.25;"/>
<line x1="148.600000" y1="283.000000" x2="151.600000" y2="282.000000"  transform="rotate(0.000000,151.600000,282.000000)" style="stroke: black; stroke-width:0.25;"/>
<rect x="184.600000" y="267.000000" width="25.800000" height="24.000000" rx="0" ry="0" style="stroke:none;fill:#cccccc;"/>
<rect x="183.600000" y="266.000000" width="25.800000" height="24.000000" rx="0" ry="0" style="stroke:none;fill:#4B71A1;"/>
<text x="196.500000" y="280.000000" font-family="Arial" font-size="7" text-anchor="middle" fill="#FFFFFF">floor</text>
<circle cx="185.600000" cy="268.000000" r="1"/>
<line x1="180.600000" y1="277.000000" x2="183.600000" y2="278.000000"  transform="rotate(0.000000,183.600000,278.000000)" style="stroke: black; stroke-width:0.25;"/>
<line x1="180.600000" y1="279.000000" x2="183.600000" y2="278.000000"  transform="rotate(0.000000,183.600000,278.000000)" style="stroke: black; stroke-width:0.25;"/>
<rect x="226.400000" y="263.000000" width="24.000000" height="24.000000" rx="0" ry="0" style="stroke:none;fill:#cccccc;"/>
<rect x="225.400000" y="262.000000" width="24.000000" height="24.000000" rx="0" ry="0" style="stroke:none;fill:#4B71A1;"/>
<text x="237.400000" y="276.000000" font-family="Arial" font-size="7" text-anchor="middle" fill="#FFFFFF">pow</text>
<circle cx="227.400000" cy="264.000000" r="1"/>
<line x1="222.400000" y1="269.000000" x2="225.400000" y2="270.000000"  transform="rotate(0.000000,225.400000,270.000000)" style="stroke: black; stroke-width:0.25;"/>
<line x1="222.400000" y1="271.000000" x2="225.400000" y2="270.000000"  transform="rotate(0.000000,225.400000,270.000000)" style="stroke: black; stroke-width:0.25;"/>
<line x1="222.400000" y1="277.000000" x2="225.400000" y2="278.000000"  transform="rotate(0.000000,225.400000,278.000000)" style="stroke: black; stroke-width:0.25;"/>
<line x1="222.400000" y1="279.000000" x2="225.400000" y2="278.000000"  transform="rotate(0.000000,225.400000,278.000000)" style="stroke: black; stroke-width:0.25;"/>
<rect x="258.400000" y="263.000000" width="24.000000" height="24.000000" rx="0" ry="0" style="stroke:none;fill:#cccccc;"/>
<rect x="257.400000" y="262.000000" width="24.000000" height="24.000000" rx="0" ry="0" style="stroke:none;fill:#4B71A1;"/>
<text x="269.400000" y="276.000000" font-family="Arial" font-size="7" text-anchor="middle" fill="#FFFFFF">int</text>
<circle cx="259.400000" cy="264.000000" r="1"/>
<line x1="254.400000" y1="273.000000" x2="257.400000" y2="274.000000"  transform="rotate(0.000000,257.400000,274.000000)" style="stroke: black; stroke-width:0.25;"/>
<line x1="254.400000" y1="275.000000" x2="257.400000" y2="274.000000"  transform="rotate(0.000000,257.400000,274.000000)" style="stroke: black; stroke-width:0.25;"/>
<rect x="298.400000" y="237.000000" width="24.000000" height="24.000000" rx="0" ry="0" style="stroke:none;fill:#cccccc;"/>
<rect x="297.400000" y="236.000000" width="24.000000" height="24.000000" rx="0" ry="0" style="stroke:none;fill:#4B71A1;"/>
<text x="309.400000" y="250.000000" font-family="Arial" font-size="7" text-anchor="middle" fill="#FFFFFF">%</text>
<circle cx="299.400000" cy="238.000000" r="1"/>
<line x1="294.400000" y1="243.000000" x2="297.400000" y2="244.000000"  transform="rotate(0.000000,297.400000,244.000000)" style="stroke: black; stroke-width:0.25;"/>
<line x1="294.400000" y1="245.000000" x2="297.400000" y2="244.000000"  transform="rotate(0.000000,297.400000,244.000000)" style="stroke: black; stroke-width:0.25;"/>
<line x1="294.400000" y1="251.000000" x2="297.400000" y2="252.000000"  transform="rotate(0.000000,297.400000,252.000000)" style="stroke: black; stroke-width:0.25;"/>
<line x1="294.400000" y1="253.000000" x2="297.400000" y2="252.000000"  transform="rotate(0.000000,297.400000,252.000000)" style="stroke: black; stroke-width:0.25;"/>
<rect x="348.400000" y="217.000000" width="24.000000" height="24.000000" rx="0" ry="0" style="stroke:none;fill:#cccccc;"/>
<rect x="347.400000" y="216.000000" width="24.000000" height="24.000000" rx="0" ry="0" style="stroke:none;fill:#f44800;"/>
<text x="359.400000" y="230.000000" font-family="Arial" font-size="7" text-anchor="middle" fill="#FFFFFF">1</text>
<circle cx="349.400000" cy="218.000000" r="1"/>
<line x1="338.400000" y1="207.000000" x2="338.400000" y2="249.000000"  style="stroke: black; stroke-linecap:round; stroke-width:0.25; stroke-dasharray:3,3;"/>
<line x1="338.400000" y1="249.000000" x2="380.400000" y2="249.000000"  style="stroke: black; stroke-linecap:round; stroke-width:0.25; stroke-dasharray:3,3;"/>
<line x1="380.400000" y1="249.000000" x2="380.400000" y2="207.000000"  style="stroke: black; stroke-linecap:round; stroke-width:0.25; stroke-dasharray:3,3;"/>
<line x1="338.400000" y1="207.000000" x2="343.400000" y2="207.000000"  style="stroke: black; stroke-linecap:round; stroke-width:0.25; stroke-dasharray:3,3;"/>
<line x1="356.300000" y1="207.000000" x2="380.400000" y2="207.000000"  style="stroke: black; stroke-linecap:round; stroke-width:0.25; stroke-dasharray:3,3;"/>
<text x="343.400000" y="209.000000" font-family="Arial" font-size="7">b1</text>
<rect x="398.400000" y="221.000000" width="24.000000" height="24.000000" rx="0" ry="0" style="stroke:none;fill:#cccccc;"/>
<rect x="397.400000" y="220.000000" width="24.000000" height="24.000000" rx="0" ry="0" style="stroke:none;fill:#4B71A1;"/>
<text x="409.400000" y="234.000000" font-family="Arial" font-size="7" text-anchor="middle" fill="#FFFFFF">min</text>
<circle cx="399.400000" cy="222.000000" r="1"/>
<line x1="394.400000" y1="227.000000" x2="397.400000" y2="228.000000"  transform="rotate(0.000000,397.400000,228.000000)" style="stroke: black; stroke-width:0.25;"/>
<line x1="394.400000" y1="229.000000" x2="397.400000" y2="228.000000"  transform="rotate(0.000000,397.400000,228.000000)" style="stroke: black; stroke-width:0.25;"/>
<line x1="394.400000" y1="235.000000" x2="397.400000" y2="236.000000"  transform="rotate(0.000000,397.400000,236.000000)" style="stroke: black; stroke-width:0.25;"/>
<line x1="394.400000" y1="237.000000" x2="397.400000" y2="236.000000"  transform="rotate(0.000000,397.400000,236.000000)" style="stroke: black; stroke-width:0.25;"/>
<rect x="368.400000" y="267.000000" width="24.000000" height="24.000000" rx="0" ry="0" style="stroke:none;fill:#cccccc;"/>
<rect x="367.400000" y="266.000000" width="24.000000" height="24.000000" rx="0" ry="0" style="stroke:none;fill:#f44800;"/>
<text x="379.400000" y="280.000000" font-family="Arial" font-size="7" text-anchor="middle" fill="#FFFFFF">-1</text>
<circle cx="369.400000" cy="268.000000" r="1"/>
<rect x="438.400000" y="237.000000" width="24.000000" height="24.000000" rx="0" ry="0" style="stroke:none;fill:#cccccc;"/>
<rect x="437.400000" y="236.000000" width="24.000000" height="24.000000" rx="0" ry="0" style="stroke:none;fill:#4B71A1;"/>
<text x="449.400000" y="250.000000" font-family="Arial" font-size="7" text-anchor="middle" fill="#FFFFFF">*</text>
<circle cx="439.400000" cy="238.000000" r="1"/>
<line x1="434.400000" y1="243.000000" x2="437.400000" y2="244.000000"  transform="rotate(0.000000,437.400000,244.000000)" style="stroke: black; stroke-width:0.25;"/>
<line x1="434.400000" y1="245.000000" x2="437.400000" y2="244.000000"  transform="rotate(0.000000,437.400000,244.000000)" style="stroke: black; stroke-width:0.25;"/>
<line x1="434.400000" y1="251.000000" x2="437.400000" y2="252.000000"  transform="rotate(0.000000,437.400000,252.000000)" style="stroke: black; stroke-width:0.25;"/>
<line x1="434.400000" y1="253.000000" x2="437.400000" y2="252.000000"  transform="rotate(0.000000,437.400000,252.000000)" style="stroke: black; stroke-width:0.25;"/>
<rect x="231.700000" y="335.000000" width="24.000000" height="24.000000" rx="0" ry="0" style="stroke:none;fill:#cccccc;"/>
<rect x="230.700000" y="334.000000" width="24.000000" height="24.000000" rx="0" ry="0" style="stroke:none;fill:#f44800;"/>
<text x="242.700000" y="348.000000" font-family="Arial" font-size="7" text-anchor="middle" fill="#FFFFFF">1</text>
<circle cx="232.700000" cy="336.000000" r="1"/>
<line x1="221.700000" y1="325.000000" x2="221.700000" y2="367.000000"  style="stroke: black; stroke-linecap:round; stroke-width:0.25; stroke-dasharray:3,3;"/>
<line x1="221.700000" y1="367.000000" x2="263.700000" y2="367.000000"  style="stroke: black; stroke-linecap:round; stroke-width:0.25; stroke-dasharray:3,3;"/>
<line x1="263.700000" y1="367.000000" x2="263.700000" y2="325.000000"  style="stroke: black; stroke-linecap:round; stroke-width:0.25; stroke-dasharray:3,3;"/>
<line x1="221.700000" y1="325.000000" x2="226.700000" y2="325.000000"  style="stroke: black; stroke-linecap:round; stroke-width:0.25; stroke-dasharray:3,3;"/>
<line x1="239.600000" y1="325.000000" x2="263.700000" y2="325.000000"  style="stroke: black; stroke-linecap:round; stroke-width:0.25; stroke-dasharray:3,3;"/>
<text x="226.700000" y="327.000000" font-family="Arial" font-size="7">b1</text>
<rect x="478.400000" y="263.000000" width="24.000000" height="24.000000" rx="0" ry="0" style="stroke:none;fill:#cccccc;"/>
<rect x="477.400000" y="262.000000" width="24.000000" height="24.000000" rx="0" ry="0" style="stroke:none;fill:#4B71A1;"/>
<text x="489.400000" y="276.000000" font-family="Arial" font-size="7" text-anchor="middle" fill="#FFFFFF">+</text>
<circle cx="479.400000" cy="264.000000" r="1"/>
<line x1="474.400000" y1="269.000000" x2="477.400000" y2="270.000000"  transform="rotate(0.000000,477.400000,270.000000)" style="stroke: black; stroke-width:0.25;"/>
<line x1="474.400000" y1="271.000000" x2="477.400000" y2="270.000000"  transform="rotate(0.000000,477.400000,270.000000)" style="stroke: black; stroke-width:0.25;"/>
<line x1="474.400000" y1="277.000000" x2="477.400000" y2="278.000000"  transform="rotate(0.000000,477.400000,278.000000)" style="stroke: black; stroke-width:0.25;"/>
<line x1="474.400000" y1="279.000000" x2="477.400000" y2="278.000000"  transform="rotate(0.000000,477.400000,278.000000)" style="stroke: black; stroke-width:0.25;"/>
<rect x="526.400000" y="185.000000" width="38.700000" height="24.000000" rx="0" ry="0" style="stroke:none;fill:#cccccc;"/>
<rect x="525.400000" y="184.000000" width="38.700000" height="24.000000" rx="0" ry="0" style="stroke:none;fill:#4B71A1;"/>
<text x="544.750000" y="198.000000" font-family="Arial" font-size="7" text-anchor="middle" fill="#FFFFFF">select2</text>
<circle cx="527.400000" cy="186.000000" r="1"/>
<line x1="522.400000" y1="187.000000" x2="525.400000" y2="188.000000"  transform="rotate(0.000000,525.400000,188.000000)" style="stroke: black; stroke-width:0.25;"/>
<line x1="522.400000" y1="189.000000" x2="525.400000" y2="188.000000"  transform="rotate(0.000000,525.400000,188.000000)" style="stroke: black; stroke-width:0.25;"/>
<line x1="522.400000" y1="195.000000" x2="525.400000" y2="196.000000"  transform="rotate(0.000000,525.400000,196.000000)" style="stroke: black; stroke-width:0.25;"/>
<line x1="522.400000" y1="197.000000" x2="525.400000" y2="196.000000"  transform="rotate(0.000000,525.400000,196.000000)" style="stroke: black; stroke-width:0.25;"/>
<line x1="522.400000" y1="203.000000" x2="525.400000" y2="204.000000"  transform="rotate(0.000000,525.400000,204.000000)" style="stroke: black; stroke-width:0.25;"/>
<line x1="522.400000" y1="205.000000" x2="525.400000" y2="204.000000"  transform="rotate(0.000000,525.400000,204.000000)" style="stroke: black; stroke-width:0.25;"/>
<line x1="15.000000" y1="15.000000" x2="15.000000" y2="377.000000"  style="stroke: black; stroke-linecap:round; stroke-width:0.25; stroke-dasharray:3,3;"/>
<line x1="15.000000" y1="377.000000" x2="581.100000" y2="377.000000"  style="stroke: black; stroke-linecap:round; stroke-width:0.25; stroke-dasharray:3,3;"/>
<line x1="581.100000" y1="377.000000" x2="581.100000" y2="15.000000"  style="stroke: black; stroke-linecap:round; stroke-width:0.25; stroke-dasharray:3,3;"/>
<line x1="15.000000" y1="15.000000" x2="20.000000" y2="15.000000"  style="stroke: black; stroke-linecap:round; stroke-width:0.25; stroke-dasharray:3,3;"/>
<line x1="149.000000" y1="15.000000" x2="581.100000" y2="15.000000"  style="stroke: black; stroke-linecap:round; stroke-width:0.25; stroke-dasharray:3,3;"/>
<text x="20.000000" y="17.000000" font-family="Arial" font-size="7">OctMuliplyPart(0)(x1125,1 : + : floor)</text>
<line x1="583.100000" y1="195.000000" x2="586.100000" y2="196.000000"  transform="rotate(0.000000,586.100000,196.000000)" style="stroke: black; stroke-width:0.25;"/>
<line x1="583.100000" y1="197.000000" x2="586.100000" y2="196.000000"  transform="rotate(0.000000,586.100000,196.000000)" style="stroke: black; stroke-width:0.25;"/>
<line x1="58.000000" y1="274.000000" x2="62.000000" y2="274.000000"  style="stroke:black; stroke-linecap:round; stroke-width:0.25;"/>
<line x1="62.000000" y1="274.000000" x2="72.000000" y2="274.000000"  style="stroke:black; stroke-linecap:round; stroke-width:0.25;"/>
<line x1="72.000000" y1="232.000000" x2="80.000000" y2="232.000000"  style="stroke:black; stroke-linecap:round; stroke-width:0.25;"/>
<line x1="72.000000" y1="274.000000" x2="72.000000" y2="232.000000"  style="stroke:black; stroke-linecap:round; stroke-width:0.25;"/>
<line x1="72.000000" y1="274.000000" x2="72.000000" y2="274.000000"  style="stroke:black; stroke-linecap:round; stroke-width:0.25;"/>
<line x1="80.000000" y1="232.000000" x2="146.700000" y2="232.000000"  style="stroke:black; stroke-linecap:round; stroke-width:0.25;"/>
<line x1="121.800000" y1="294.000000" x2="125.800000" y2="294.000000"  style="stroke:black; stroke-linecap:round; stroke-width:0.25;"/>
<line x1="125.800000" y1="294.000000" x2="135.800000" y2="294.000000"  style="stroke:black; stroke-linecap:round; stroke-width:0.25;"/>
<line x1="135.600000" y1="252.000000" x2="139.600000" y2="252.000000"  style="stroke:black; stroke-linecap:round; stroke-width:0.25;"/>
<line x1="135.800000" y1="294.000000" x2="139.600000" y2="294.000000"  style="stroke:black; stroke-linecap:round; stroke-width:0.25;"/>
<line x1="139.600000" y1="252.000000" x2="147.600000" y2="252.000000"  style="stroke:black; stroke-linecap:round; stroke-width:0.25;"/>
<line x1="139.600000" y1="282.000000" x2="147.600000" y2="282.000000"  style="stroke:black; stroke-linecap:round; stroke-width:0.25;"/>
<line x1="139.600000" y1="294.000000" x2="139.600000" y2="282.000000"  style="stroke:black; stroke-linecap:round; stroke-width:0.25;"/>
<line x1="139.600000" y1="294.000000" x2="139.600000" y2="294.000000"  style="stroke:black; stroke-linecap:round; stroke-width:0.25;"/>
<line x1="146.700000" y1="232.000000" x2="213.400000" y2="232.000000"  style="stroke:black; stroke-linecap:round; stroke-width:0.25;"/>
<line x1="147.600000" y1="252.000000" x2="147.600000" y2="274.000000"  style="stroke:black; stroke-linecap:round; stroke-width:0.25;"/>
<line x1="147.600000" y1="274.000000" x2="147.600000" y2="274.000000"  style="stroke:black; stroke-linecap:round; stroke-width:0.25;"/>
<line x1="147.600000" y1="274.000000" x2="151.600000" y2="274.000000"  style="stroke:black; stroke-linecap:round; stroke-width:0.25;"/>
<line x1="147.600000" y1="282.000000" x2="151.600000" y2="282.000000"  style="stroke:black; stroke-linecap:round; stroke-width:0.25;"/>
<line x1="164.700000" y1="202.000000" x2="168.700000" y2="202.000000"  style="stroke:black; stroke-linecap:round; stroke-width:0.25;"/>
<line x1="168.700000" y1="202.000000" x2="178.700000" y2="202.000000"  style="stroke:black; stroke-linecap:round; stroke-width:0.25;"/>
<line x1="175.600000" y1="278.000000" x2="179.600000" y2="278.000000"  style="stroke:black; stroke-linecap:round; stroke-width:0.25;"/>
<line x1="178.700000" y1="202.000000" x2="285.400000" y2="202.000000"  style="stroke:black; stroke-linecap:round; stroke-width:0.25;"/>
<line x1="179.600000" y1="278.000000" x2="179.600000" y2="278.000000"  style="stroke:black; stroke-linecap:round; stroke-width:0.25;"/>
<line x1="179.600000" y1="278.000000" x2="183.600000" y2="278.000000"  style="stroke:black; stroke-linecap:round; stroke-width:0.25;"/>
<line x1="209.400000" y1="278.000000" x2="213.400000" y2="278.000000"  style="stroke:black; stroke-linecap:round; stroke-width:0.25;"/>
<line x1="213.400000" y1="232.000000" x2="221.400000" y2="232.000000"  style="stroke:black; stroke-linecap:round; stroke-width:0.25;"/>
<line x1="213.400000" y1="278.000000" x2="221.400000" y2="278.000000"  style="stroke:black; stroke-linecap:round; stroke-width:0.25;"/>
<line x1="221.400000" y1="232.000000" x2="221.400000" y2="270.000000"  style="stroke:black; stroke-linecap:round; stroke-width:0.25;"/>
<line x1="221.400000" y1="270.000000" x2="221.400000" y2="270.000000"  style="stroke:black; stroke-linecap:round; stroke-width:0.25;"/>
<line x1="221.400000" y1="270.000000" x2="225.400000" y2="270.000000"  style="stroke:black; stroke-linecap:round; stroke-width:0.25;"/>
<line x1="221.400000" y1="278.000000" x2="225.400000" y2="278.000000"  style="stroke:black; stroke-linecap:round; stroke-width:0.25;"/>
<line x1="249.400000" y1="274.000000" x2="253.400000" y2="274.000000"  style="stroke:black; stroke-linecap:round; stroke-width:0.25;"/>
<line x1="253.400000" y1="274.000000" x2="253.400000" y2="274.000000"  style="stroke:black; stroke-linecap:round; stroke-width:0.25;"/>
<line x1="253.400000" y1="274.000000" x2="257.400000" y2="274.000000"  style="stroke:black; stroke-linecap:round; stroke-width:0.25;"/>
<line x1="254.700000" y1="46.000000" x2="258.700000" y2="46.000000"  style="stroke:black; stroke-linecap:round; stroke-width:0.25;"/>
<line x1="254.700000" y1="98.000000" x2="258.700000" y2="98.000000"  style="stroke:black; stroke-linecap:round; stroke-width:0.25;"/>
<line x1="254.700000" y1="346.000000" x2="258.700000" y2="346.000000"  style="stroke:black; stroke-linecap:round; stroke-width:0.25;"/>
<line x1="258.700000" y1="46.000000" x2="268.700000" y2="46.000000"  style="stroke:black; stroke-linecap:round; stroke-width:0.25;"/>
<line x1="258.700000" y1="98.000000" x2="268.700000" y2="98.000000"  style="stroke:black; stroke-linecap:round; stroke-width:0.25;"/>
<line x1="258.700000" y1="346.000000" x2="268.700000" y2="346.000000"  style="stroke:black; stroke-linecap:round; stroke-width:0.25;"/>
<line x1="268.700000" y1="46.000000" x2="276.700000" y2="46.000000"  style="stroke:black; stroke-linecap:round; stroke-width:0.25;"/>
<line x1="268.700000" y1="76.000000" x2="276.700000" y2="76.000000"  style="stroke:black; stroke-linecap:round; stroke-width:0.25;"/>
<line x1="268.700000" y1="98.000000" x2="268.700000" y2="76.000000"  style="stroke:black; stroke-linecap:round; stroke-width:0.25;"/>
<line x1="268.700000" y1="98.000000" x2="268.700000" y2="98.000000"  style="stroke:black; stroke-linecap:round; stroke-width:0.25;"/>
<line x1="268.700000" y1="346.000000" x2="465.400000" y2="346.000000"  style="stroke:black; stroke-linecap:round; stroke-width:0.25;"/>
<line x1="274.700000" y1="150.000000" x2="278.700000" y2="150.000000"  style="stroke:black; stroke-linecap:round; stroke-width:0.25;"/>
<line x1="276.700000" y1="46.000000" x2="276.700000" y2="68.000000"  style="stroke:black; stroke-linecap:round; stroke-width:0.25;"/>
<line x1="276.700000" y1="68.000000" x2="276.700000" y2="68.000000"  style="stroke:black; stroke-linecap:round; stroke-width:0.25;"/>
<line x1="276.700000" y1="68.000000" x2="280.700000" y2="68.000000"  style="stroke:black; stroke-linecap:round; stroke-width:0.25;"/>
<line x1="276.700000" y1="76.000000" x2="280.700000" y2="76.000000"  style="stroke:black; stroke-linecap:round; stroke-width:0.25;"/>
<line x1="278.700000" y1="150.000000" x2="288.700000" y2="150.000000"  style="stroke:black; stroke-linecap:round; stroke-width:0.25;"/>
<line x1="281.400000" y1="274.000000" x2="285.400000" y2="274.000000"  style="stroke:black; stroke-linecap:round; stroke-width:0.25;"/>
<line x1="285.400000" y1="202.000000" x2="293.400000" y2="202.000000"  style="stroke:black; stroke-linecap:round; stroke-width:0.25;"/>
<line x1="285.400000" y1="252.000000" x2="293.400000" y2="252.000000"  style="stroke:black; stroke-linecap:round; stroke-width:0.25;"/>
<line x1="285.400000" y1="274.000000" x2="285.400000" y2="252.000000"  style="stroke:black; stroke-linecap:round; stroke-width:0.25;"/>
<line x1="285.400000" y1="274.000000" x2="285.400000" y2="274.000000"  style="stroke:black; stroke-linecap:round; stroke-width:0.25;"/>
<line x1="288.700000" y1="150.000000" x2="505.400000" y2="150.000000"  style="stroke:black; stroke-linecap:round; stroke-width:0.25;"/>
<line x1="293.400000" y1="202.000000" x2="293.400000" y2="244.000000"  style="stroke:black; stroke-linecap:round; stroke-width:0.25;"/>
<line x1="293.400000" y1="244.000000" x2="293.400000" y2="244.000000"  style="stroke:black; stroke-linecap:round; stroke-width:0.25;"/>
<line x1="293.400000" y1="244.000000" x2="297.400000" y2="244.000000"  style="stroke:black; stroke-linecap:round; stroke-width:0.25;"/>
<line x1="293.400000" y1="252.000000" x2="297.400000" y2="252.000000"  style="stroke:black; stroke-linecap:round; stroke-width:0.25;"/>
<line x1="304.700000" y1="72.000000" x2="308.700000" y2="72.000000"  style="stroke:black; stroke-linecap:round; stroke-width:0.25;"/>
<line x1="308.700000" y1="72.000000" x2="505.400000" y2="72.000000"  style="stroke:black; stroke-linecap:round; stroke-width:0.25;"/>
<line x1="321.400000" y1="248.000000" x2="325.400000" y2="248.000000"  style="stroke:black; stroke-linecap:round; stroke-width:0.25;"/>
<line x1="325.400000" y1="248.000000" x2="333.400000" y2="248.000000"  style="stroke:black; stroke-linecap:round; stroke-width:0.25;"/>
<line x1="333.400000" y1="248.000000" x2="333.400000" y2="258.000000"  style="stroke:black; stroke-linecap:round; stroke-width:0.25;"/>
<line x1="333.400000" y1="258.000000" x2="333.400000" y2="258.000000"  style="stroke:black; stroke-linecap:round; stroke-width:0.25;"/>
<line x1="333.400000" y1="258.000000" x2="359.400000" y2="258.000000"  style="stroke:black; stroke-linecap:round; stroke-width:0.25;"/>
<line x1="359.400000" y1="258.000000" x2="385.400000" y2="258.000000"  style="stroke:black; stroke-linecap:round; stroke-width:0.25;"/>
<line x1="371.400000" y1="228.000000" x2="375.400000" y2="228.000000"  style="stroke:black; stroke-linecap:round; stroke-width:0.25;"/>
<line x1="375.400000" y1="228.000000" x2="385.400000" y2="228.000000"  style="stroke:black; stroke-linecap:round; stroke-width:0.25;"/>
<line x1="385.400000" y1="228.000000" x2="393.400000" y2="228.000000"  style="stroke:black; stroke-linecap:round; stroke-width:0.25;"/>
<line x1="385.400000" y1="236.000000" x2="393.400000" y2="236.000000"  style="stroke:black; stroke-linecap:round; stroke-width:0.25;"/>
<line x1="385.400000" y1="258.000000" x2="385.400000" y2="236.000000"  style="stroke:black; stroke-linecap:round; stroke-width:0.25;"/>
<line x1="385.400000" y1="258.000000" x2="385.400000" y2="258.000000"  style="stroke:black; stroke-linecap:round; stroke-width:0.25;"/>
<line x1="391.400000" y1="278.000000" x2="395.400000" y2="278.000000"  style="stroke:black; stroke-linecap:round; stroke-width:0.25;"/>
<line x1="393.400000" y1="228.000000" x2="397.400000" y2="228.000000"  style="stroke:black; stroke-linecap:round; stroke-width:0.25;"/>
<line x1="393.400000" y1="236.000000" x2="397.400000" y2="236.000000"  style="stroke:black; stroke-linecap:round; stroke-width:0.25;"/>
<line x1="395.400000" y1="278.000000" x2="425.400000" y2="278.000000"  style="stroke:black; stroke-linecap:round; stroke-width:0.25;"/>
<line x1="421.400000" y1="232.000000" x2="425.400000" y2="232.000000"  style="stroke:black; stroke-linecap:round; stroke-width:0.25;"/>
<line x1="425.400000" y1="232.000000" x2="433.400000" y2="232.000000"  style="stroke:black; stroke-linecap:round; stroke-width:0.25;"/>
<line x1="425.400000" y1="252.000000" x2="433.400000" y2="252.000000"  style="stroke:black; stroke-linecap:round; stroke-width:0.25;"/>
<line x1="425.400000" y1="278.000000" x2="425.400000" y2="252.000000"  style="stroke:black; stroke-linecap:round; stroke-width:0.25;"/>
<line x1="425.400000" y1="278.000000" x2="425.400000" y2="278.000000"  style="stroke:black; stroke-linecap:round; stroke-width:0.25;"/>
<line x1="433.400000" y1="232.000000" x2="433.400000" y2="244.000000"  style="stroke:black; stroke-linecap:round; stroke-width:0.25;"/>
<line x1="433.400000" y1="244.000000" x2="433.400000" y2="244.000000"  style="stroke:black; stroke-linecap:round; stroke-width:0.25;"/>
<line x1="433.400000" y1="244.000000" x2="437.400000" y2="244.000000"  style="stroke:black; stroke-linecap:round; stroke-width:0.25;"/>
<line x1="433.400000" y1="252.000000" x2="437.400000" y2="252.000000"  style="stroke:black; stroke-linecap:round; stroke-width:0.25;"/>
<line x1="461.400000" y1="248.000000" x2="465.400000" y2="248.000000"  style="stroke:black; stroke-linecap:round; stroke-width:0.25;"/>
<line x1="465.400000" y1="248.000000" x2="473.400000" y2="248.000000"  style="stroke:black; stroke-linecap:round; stroke-width:0.25;"/>
<line x1="465.400000" y1="278.000000" x2="473.400000" y2="278.000000"  style="stroke:black; stroke-linecap:round; stroke-width:0.25;"/>
<line x1="465.400000" y1="346.000000" x2="465.400000" y2="278.000000"  style="stroke:black; stroke-linecap:round; stroke-width:0.25;"/>
<line x1="465.400000" y1="346.000000" x2="465.400000" y2="346.000000"  style="stroke:black; stroke-linecap:round; stroke-width:0.25;"/>
<line x1="473.400000" y1="248.000000" x2="473.400000" y2="270.000000"  style="stroke:black; stroke-linecap:round; stroke-width:0.25;"/>
<line x1="473.400000" y1="270.000000" x2="473.400000" y2="270.000000"  style="stroke:black; stroke-linecap:round; stroke-width:0.25;"/>
<line x1="473.400000" y1="270.000000" x2="477.400000" y2="270.000000"  style="stroke:black; stroke-linecap:round; stroke-width:0.25;"/>
<line x1="473.400000" y1="278.000000" x2="477.400000" y2="278.000000"  style="stroke:black; stroke-linecap:round; stroke-width:0.25;"/>
<line x1="501.400000" y1="274.000000" x2="505.400000" y2="274.000000"  style="stroke:black; stroke-linecap:round; stroke-width:0.25;"/>
<line x1="505.400000" y1="72.000000" x2="521.400000" y2="72.000000"  style="stroke:black; stroke-linecap:round; stroke-width:0.25;"/>
<line x1="505.400000" y1="150.000000" x2="513.400000" y2="150.000000"  style="stroke:black; stroke-linecap:round; stroke-width:0.25;"/>
<line x1="505.400000" y1="204.000000" x2="521.400000" y2="204.000000"  style="stroke:black; stroke-linecap:round; stroke-width:0.25;"/>
<line x1="505.400000" y1="274.000000" x2="505.400000" y2="204.000000"  style="stroke:black; stroke-linecap:round; stroke-width:0.25;"/>
<line x1="505.400000" y1="274.000000" x2="505.400000" y2="274.000000"  style="stroke:black; stroke-linecap:round; stroke-width:0.25;"/>
<line x1="513.400000" y1="150.000000" x2="513.400000" y2="196.000000"  style="stroke:black; stroke-linecap:round; stroke-width:0.25;"/>
<line x1="513.400000" y1="196.000000" x2="521.400000" y2="196.000000"  style="stroke:black; stroke-linecap:round; stroke-width:0.25;"/>
<line x1="521.400000" y1="72.000000" x2="521.400000" y2="188.000000"  style="stroke:black; stroke-linecap:round; stroke-width:0.25;"/>
<line x1="521.400000" y1="188.000000" x2="521.400000" y2="188.000000"  style="stroke:black; stroke-linecap:round; stroke-width:0.25;"/>
<line x1="521.400000" y1="188.000000" x2="525.400000" y2="188.000000"  style="stroke:black; stroke-linecap:round; stroke-width:0.25;"/>
<line x1="521.400000" y1="196.000000" x2="525.400000" y2="196.000000"  style="stroke:black; stroke-linecap:round; stroke-width:0.25;"/>
<line x1="521.400000" y1="204.000000" x2="525.400000" y2="204.000000"  style="stroke:black; stroke-linecap:round; stroke-width:0.25;"/>
<line x1="564.100000" y1="196.000000" x2="568.100000" y2="196.000000"  style="stroke:black; stroke-linecap:round; stroke-width:0.25;"/>
<line x1="568.100000" y1="196.000000" x2="568.100000" y2="196.000000"  style="stroke:black; stroke-linecap:round; stroke-width:0.25;"/>
<line x1="568.100000" y1="196.000000" x2="572.100000" y2="196.000000"  style="stroke:black; stroke-linecap:round; stroke-width:0.25;"/>
<line x1="572.100000" y1="196.000000" x2="576.100000" y2="196.000000"  style="stroke:black; stroke-linecap:round; stroke-width:0.25;"/>
<line x1="576.100000" y1="196.000000" x2="586.100000" y2="196.000000"  style="stroke:black; stroke-linecap:round; stroke-width:0.25;"/>
</svg>
