<?xml version="1.0"?>
<svg xmlns="http://www.w3.org/2000/svg" xmlns:xlink="http://www.w3.org/1999/xlink" viewBox="0 0 606.000000 256.000000" width="303.000000mm" height="128.000000mm" version="1.1">
<a xlink:href="goodOSCpitch-0x28165e40.svg">
<rect x="1.000000" y="1.000000" width="605.000000" height="255.000000" rx="0" ry="0" style="stroke:none;fill:#cccccc;"/>
<rect x="0.000000" y="0.000000" width="605.000000" height="255.000000" rx="0" ry="0" style="stroke:none;fill:#ffffff;"/>
</a>
<text x="10.000000" y="7.000000" font-family="Arial" font-size="7"></text>
<a xlink:href="hasVolume-0x281531b0.svg">
<rect x="197.300000" y="33.000000" width="38.700000" height="24.000000" rx="0" ry="0" style="stroke:none;fill:#cccccc;"/>
<rect x="196.300000" y="32.000000" width="38.700000" height="24.000000" rx="0" ry="0" style="stroke:none;fill:#003366;"/>
</a>
<a xlink:href="hasVolume-0x281531b0.svg">
<text x="215.650000" y="46.000000" font-family="Arial" font-size="7" text-anchor="middle" fill="#FFFFFF">hasVolume</text>
</a>
<circle cx="198.300000" cy="34.000000" r="1"/>
<rect x="87.000000" y="111.000000" width="219.300000" height="24.000000" rx="0" ry="0" style="stroke:none;fill:#cccccc;"/>
<rect x="86.000000" y="110.000000" width="219.300000" height="24.000000" rx="0" ry="0" style="stroke:none;fill:#477881;"/>
<text x="195.650000" y="124.000000" font-family="Arial" font-size="7" text-anchor="middle" fill="#FFFFFF">nentry(pitch, 48.9994f, 48.9994f, 2093.0f, 0.001f)</text>
<circle cx="88.000000" cy="112.000000" r="1"/>
<line x1="77.000000" y1="101.000000" x2="77.000000" y2="143.000000"  style="stroke: black; stroke-linecap:round; stroke-width:0.25; stroke-dasharray:3,3;"/>
<line x1="77.000000" y1="143.000000" x2="314.300000" y2="143.000000"  style="stroke: black; stroke-linecap:round; stroke-width:0.25; stroke-dasharray:3,3;"/>
<line x1="314.300000" y1="143.000000" x2="314.300000" y2="101.000000"  style="stroke: black; stroke-linecap:round; stroke-width:0.25; stroke-dasharray:3,3;"/>
<line x1="77.000000" y1="101.000000" x2="82.000000" y2="101.000000"  style="stroke: black; stroke-linecap:round; stroke-width:0.25; stroke-dasharray:3,3;"/>
<line x1="123.925000" y1="101.000000" x2="314.300000" y2="101.000000"  style="stroke: black; stroke-linecap:round; stroke-width:0.25; stroke-dasharray:3,3;"/>
<text x="82.000000" y="103.000000" font-family="Arial" font-size="7">hgroup(OSC)</text>
<line x1="67.000000" y1="91.000000" x2="67.000000" y2="153.000000"  style="stroke: black; stroke-linecap:round; stroke-width:0.25; stroke-dasharray:3,3;"/>
<line x1="67.000000" y1="153.000000" x2="324.300000" y2="153.000000"  style="stroke: black; stroke-linecap:round; stroke-width:0.25; stroke-dasharray:3,3;"/>
<line x1="324.300000" y1="153.000000" x2="324.300000" y2="91.000000"  style="stroke: black; stroke-linecap:round; stroke-width:0.25; stroke-dasharray:3,3;"/>
<line x1="67.000000" y1="91.000000" x2="72.000000" y2="91.000000"  style="stroke: black; stroke-linecap:round; stroke-width:0.25; stroke-dasharray:3,3;"/>
<line x1="142.950000" y1="91.000000" x2="324.300000" y2="91.000000"  style="stroke: black; stroke-linecap:round; stroke-width:0.25; stroke-dasharray:3,3;"/>
<text x="72.000000" y="93.000000" font-family="Arial" font-size="7">vgroup(VoiceOfFaust)</text>
<line x1="57.000000" y1="81.000000" x2="57.000000" y2="163.000000"  style="stroke: black; stroke-linecap:round; stroke-width:0.25; stroke-dasharray:3,3;"/>
<line x1="57.000000" y1="163.000000" x2="334.300000" y2="163.000000"  style="stroke: black; stroke-linecap:round; stroke-width:0.25; stroke-dasharray:3,3;"/>
<line x1="334.300000" y1="163.000000" x2="334.300000" y2="81.000000"  style="stroke: black; stroke-linecap:round; stroke-width:0.25; stroke-dasharray:3,3;"/>
<line x1="57.000000" y1="81.000000" x2="62.000000" y2="81.000000"  style="stroke: black; stroke-linecap:round; stroke-width:0.25; stroke-dasharray:3,3;"/>
<line x1="94.250000" y1="81.000000" x2="334.300000" y2="81.000000"  style="stroke: black; stroke-linecap:round; stroke-width:0.25; stroke-dasharray:3,3;"/>
<text x="62.000000" y="83.000000" font-family="Arial" font-size="7">OSCpitch</text>
<rect x="352.300000" y="107.000000" width="24.000000" height="24.000000" rx="0" ry="0" style="stroke:none;fill:#cccccc;"/>
<rect x="351.300000" y="106.000000" width="24.000000" height="24.000000" rx="0" ry="0" style="stroke:none;fill:#4B71A1;"/>
<text x="363.300000" y="120.000000" font-family="Arial" font-size="7" text-anchor="middle" fill="#FFFFFF">!=</text>
<circle cx="353.300000" cy="108.000000" r="1"/>
<line x1="348.300000" y1="113.000000" x2="351.300000" y2="114.000000"  transform="rotate(0.000000,351.300000,114.000000)" style="stroke: black; stroke-width:0.25;"/>
<line x1="348.300000" y1="115.000000" x2="351.300000" y2="114.000000"  transform="rotate(0.000000,351.300000,114.000000)" style="stroke: black; stroke-width:0.25;"/>
<line x1="348.300000" y1="121.000000" x2="351.300000" y2="122.000000"  transform="rotate(0.000000,351.300000,122.000000)" style="stroke: black; stroke-width:0.25;"/>
<line x1="348.300000" y1="123.000000" x2="351.300000" y2="122.000000"  transform="rotate(0.000000,351.300000,122.000000)" style="stroke: black; stroke-width:0.25;"/>
<line x1="377.300000" y1="118.000000" x2="377.300000" y2="114.000000"  style="stroke:black; stroke-linecap:round; stroke-width:0.25;"/>
<line x1="377.300000" y1="114.000000" x2="381.300000" y2="114.000000"  style="stroke:black; stroke-linecap:round; stroke-width:0.25;"/>
<line x1="381.300000" y1="114.000000" x2="381.300000" y2="118.000000"  style="stroke:black; stroke-linecap:round; stroke-width:0.25;"/>
<rect x="400.300000" y="87.000000" width="24.000000" height="24.000000" rx="0" ry="0" style="stroke:none;fill:#cccccc;"/>
<rect x="399.300000" y="86.000000" width="24.000000" height="24.000000" rx="0" ry="0" style="stroke:none;fill:#4B71A1;"/>
<text x="411.300000" y="100.000000" font-family="Arial" font-size="7" text-anchor="middle" fill="#FFFFFF">&amp;</text>
<circle cx="401.300000" cy="88.000000" r="1"/>
<line x1="396.300000" y1="93.000000" x2="399.300000" y2="94.000000"  transform="rotate(0.000000,399.300000,94.000000)" style="stroke: black; stroke-width:0.25;"/>
<line x1="396.300000" y1="95.000000" x2="399.300000" y2="94.000000"  transform="rotate(0.000000,399.300000,94.000000)" style="stroke: black; stroke-width:0.25;"/>
<line x1="396.300000" y1="101.000000" x2="399.300000" y2="102.000000"  transform="rotate(0.000000,399.300000,102.000000)" style="stroke: black; stroke-width:0.25;"/>
<line x1="396.300000" y1="103.000000" x2="399.300000" y2="102.000000"  transform="rotate(0.000000,399.300000,102.000000)" style="stroke: black; stroke-width:0.25;"/>
<rect x="224.650000" y="183.000000" width="24.000000" height="24.000000" rx="0" ry="0" style="stroke:none;fill:#cccccc;"/>
<rect x="223.650000" y="182.000000" width="24.000000" height="24.000000" rx="0" ry="0" style="stroke:none;fill:#f44800;"/>
<text x="235.650000" y="196.000000" font-family="Arial" font-size="7" text-anchor="middle" fill="#FFFFFF">0</text>
<circle cx="225.650000" cy="184.000000" r="1"/>
<line x1="214.650000" y1="173.000000" x2="214.650000" y2="215.000000"  style="stroke: black; stroke-linecap:round; stroke-width:0.25; stroke-dasharray:3,3;"/>
<line x1="214.650000" y1="215.000000" x2="256.650000" y2="215.000000"  style="stroke: black; stroke-linecap:round; stroke-width:0.25; stroke-dasharray:3,3;"/>
<line x1="256.650000" y1="215.000000" x2="256.650000" y2="173.000000"  style="stroke: black; stroke-linecap:round; stroke-width:0.25; stroke-dasharray:3,3;"/>
<line x1="214.650000" y1="173.000000" x2="219.650000" y2="173.000000"  style="stroke: black; stroke-linecap:round; stroke-width:0.25; stroke-dasharray:3,3;"/>
<line x1="232.550000" y1="173.000000" x2="256.650000" y2="173.000000"  style="stroke: black; stroke-linecap:round; stroke-width:0.25; stroke-dasharray:3,3;"/>
<text x="219.650000" y="175.000000" font-family="Arial" font-size="7">b2</text>
<rect x="440.300000" y="113.000000" width="24.000000" height="24.000000" rx="0" ry="0" style="stroke:none;fill:#cccccc;"/>
<rect x="439.300000" y="112.000000" width="24.000000" height="24.000000" rx="0" ry="0" style="stroke:none;fill:#4B71A1;"/>
<text x="451.300000" y="126.000000" font-family="Arial" font-size="7" text-anchor="middle" fill="#FFFFFF">!=</text>
<circle cx="441.300000" cy="114.000000" r="1"/>
<line x1="436.300000" y1="119.000000" x2="439.300000" y2="120.000000"  transform="rotate(0.000000,439.300000,120.000000)" style="stroke: black; stroke-width:0.25;"/>
<line x1="436.300000" y1="121.000000" x2="439.300000" y2="120.000000"  transform="rotate(0.000000,439.300000,120.000000)" style="stroke: black; stroke-width:0.25;"/>
<line x1="436.300000" y1="127.000000" x2="439.300000" y2="128.000000"  transform="rotate(0.000000,439.300000,128.000000)" style="stroke: black; stroke-width:0.25;"/>
<line x1="436.300000" y1="129.000000" x2="439.300000" y2="128.000000"  transform="rotate(0.000000,439.300000,128.000000)" style="stroke: black; stroke-width:0.25;"/>
<rect x="472.300000" y="113.000000" width="24.000000" height="24.000000" rx="0" ry="0" style="stroke:none;fill:#cccccc;"/>
<rect x="471.300000" y="112.000000" width="24.000000" height="24.000000" rx="0" ry="0" style="stroke:none;fill:#4B71A1;"/>
<text x="483.300000" y="126.000000" font-family="Arial" font-size="7" text-anchor="middle" fill="#FFFFFF">int</text>
<circle cx="473.300000" cy="114.000000" r="1"/>
<line x1="468.300000" y1="123.000000" x2="471.300000" y2="124.000000"  transform="rotate(0.000000,471.300000,124.000000)" style="stroke: black; stroke-width:0.25;"/>
<line x1="468.300000" y1="125.000000" x2="471.300000" y2="124.000000"  transform="rotate(0.000000,471.300000,124.000000)" style="stroke: black; stroke-width:0.25;"/>
<rect x="520.300000" y="121.000000" width="38.700000" height="24.000000" rx="0" ry="0" style="stroke:none;fill:#cccccc;"/>
<rect x="519.300000" y="120.000000" width="38.700000" height="24.000000" rx="0" ry="0" style="stroke:none;fill:#4B71A1;"/>
<text x="538.650000" y="134.000000" font-family="Arial" font-size="7" text-anchor="middle" fill="#FFFFFF">select2</text>
<circle cx="521.300000" cy="122.000000" r="1"/>
<line x1="516.300000" y1="123.000000" x2="519.300000" y2="124.000000"  transform="rotate(0.000000,519.300000,124.000000)" style="stroke: black; stroke-width:0.25;"/>
<line x1="516.300000" y1="125.000000" x2="519.300000" y2="124.000000"  transform="rotate(0.000000,519.300000,124.000000)" style="stroke: black; stroke-width:0.25;"/>
<line x1="516.300000" y1="131.000000" x2="519.300000" y2="132.000000"  transform="rotate(0.000000,519.300000,132.000000)" style="stroke: black; stroke-width:0.25;"/>
<line x1="516.300000" y1="133.000000" x2="519.300000" y2="132.000000"  transform="rotate(0.000000,519.300000,132.000000)" style="stroke: black; stroke-width:0.25;"/>
<line x1="516.300000" y1="139.000000" x2="519.300000" y2="140.000000"  transform="rotate(0.000000,519.300000,140.000000)" style="stroke: black; stroke-width:0.25;"/>
<line x1="516.300000" y1="141.000000" x2="519.300000" y2="140.000000"  transform="rotate(0.000000,519.300000,140.000000)" style="stroke: black; stroke-width:0.25;"/>
<line x1="560.000000" y1="132.000000" x2="560.000000" y2="128.000000"  style="stroke:black; stroke-linecap:round; stroke-width:0.25;"/>
<line x1="560.000000" y1="128.000000" x2="564.000000" y2="128.000000"  style="stroke:black; stroke-linecap:round; stroke-width:0.25;"/>
<line x1="564.000000" y1="128.000000" x2="564.000000" y2="132.000000"  style="stroke:black; stroke-linecap:round; stroke-width:0.25;"/>
<line x1="15.000000" y1="15.000000" x2="15.000000" y2="241.000000"  style="stroke: black; stroke-linecap:round; stroke-width:0.25; stroke-dasharray:3,3;"/>
<line x1="15.000000" y1="241.000000" x2="591.000000" y2="241.000000"  style="stroke: black; stroke-linecap:round; stroke-width:0.25; stroke-dasharray:3,3;"/>
<line x1="591.000000" y1="241.000000" x2="591.000000" y2="15.000000"  style="stroke: black; stroke-linecap:round; stroke-width:0.25; stroke-dasharray:3,3;"/>
<line x1="15.000000" y1="15.000000" x2="20.000000" y2="15.000000"  style="stroke: black; stroke-linecap:round; stroke-width:0.25; stroke-dasharray:3,3;"/>
<line x1="119.975000" y1="15.000000" x2="591.000000" y2="15.000000"  style="stroke: black; stroke-linecap:round; stroke-width:0.25; stroke-dasharray:3,3;"/>
<text x="20.000000" y="17.000000" font-family="Arial" font-size="7">sampleAndHold... : !=)~_ : &amp;)</text>
<line x1="593.000000" y1="127.000000" x2="596.000000" y2="128.000000"  transform="rotate(0.000000,596.000000,128.000000)" style="stroke: black; stroke-width:0.25;"/>
<line x1="593.000000" y1="129.000000" x2="596.000000" y2="128.000000"  transform="rotate(0.000000,596.000000,128.000000)" style="stroke: black; stroke-width:0.25;"/>
<line x1="10.000000" y1="128.000000" x2="20.000000" y2="128.000000"  style="stroke:black; stroke-linecap:round; stroke-width:0.25;"/>
<line x1="20.000000" y1="128.000000" x2="24.000000" y2="128.000000"  style="stroke:black; stroke-linecap:round; stroke-width:0.25;"/>
<line x1="24.000000" y1="128.000000" x2="28.000000" y2="128.000000"  style="stroke:black; stroke-linecap:round; stroke-width:0.25;"/>
<line x1="28.000000" y1="128.000000" x2="36.000000" y2="128.000000"  style="stroke:black; stroke-linecap:round; stroke-width:0.25;"/>
<line x1="36.000000" y1="128.000000" x2="36.000000" y2="232.000000"  style="stroke:black; stroke-linecap:round; stroke-width:0.25;"/>
<line x1="36.000000" y1="232.000000" x2="36.000000" y2="232.000000"  style="stroke:black; stroke-linecap:round; stroke-width:0.25;"/>
<line x1="36.000000" y1="232.000000" x2="44.000000" y2="232.000000"  style="stroke:black; stroke-linecap:round; stroke-width:0.25;"/>
<line x1="44.000000" y1="24.000000" x2="44.000000" y2="24.000000"  style="stroke:black; stroke-linecap:round; stroke-width:0.25;"/>
<line x1="44.000000" y1="24.000000" x2="44.000000" y2="224.000000"  style="stroke:black; stroke-linecap:round; stroke-width:0.25;"/>
<line x1="44.000000" y1="224.000000" x2="44.000000" y2="224.000000"  style="stroke:black; stroke-linecap:round; stroke-width:0.25;"/>
<line x1="44.000000" y1="224.000000" x2="271.650000" y2="224.000000"  style="stroke:black; stroke-linecap:round; stroke-width:0.25;"/>
<line x1="44.000000" y1="232.000000" x2="271.650000" y2="232.000000"  style="stroke:black; stroke-linecap:round; stroke-width:0.25;"/>
<line x1="52.000000" y1="64.000000" x2="52.000000" y2="64.000000"  style="stroke:black; stroke-linecap:round; stroke-width:0.25;"/>
<line x1="52.000000" y1="64.000000" x2="52.000000" y2="72.000000"  style="stroke:black; stroke-linecap:round; stroke-width:0.25;"/>
<line x1="52.000000" y1="72.000000" x2="52.000000" y2="72.000000"  style="stroke:black; stroke-linecap:round; stroke-width:0.25;"/>
<line x1="52.000000" y1="72.000000" x2="195.650000" y2="72.000000"  style="stroke:black; stroke-linecap:round; stroke-width:0.25;"/>
<line x1="195.650000" y1="72.000000" x2="339.300000" y2="72.000000"  style="stroke:black; stroke-linecap:round; stroke-width:0.25;"/>
<line x1="215.650000" y1="64.000000" x2="52.000000" y2="64.000000"  style="stroke:black; stroke-linecap:round; stroke-width:0.25;"/>
<line x1="235.000000" y1="44.000000" x2="239.000000" y2="44.000000"  style="stroke:black; stroke-linecap:round; stroke-width:0.25;"/>
<line x1="239.000000" y1="44.000000" x2="387.300000" y2="44.000000"  style="stroke:black; stroke-linecap:round; stroke-width:0.25;"/>
<line x1="247.650000" y1="194.000000" x2="251.650000" y2="194.000000"  style="stroke:black; stroke-linecap:round; stroke-width:0.25;"/>
<line x1="251.650000" y1="194.000000" x2="261.650000" y2="194.000000"  style="stroke:black; stroke-linecap:round; stroke-width:0.25;"/>
<line x1="261.650000" y1="194.000000" x2="427.300000" y2="194.000000"  style="stroke:black; stroke-linecap:round; stroke-width:0.25;"/>
<line x1="271.650000" y1="224.000000" x2="499.300000" y2="224.000000"  style="stroke:black; stroke-linecap:round; stroke-width:0.25;"/>
<line x1="271.650000" y1="232.000000" x2="499.300000" y2="232.000000"  style="stroke:black; stroke-linecap:round; stroke-width:0.25;"/>
<line x1="303.000000" y1="24.000000" x2="44.000000" y2="24.000000"  style="stroke:black; stroke-linecap:round; stroke-width:0.25;"/>
<line x1="305.300000" y1="122.000000" x2="309.300000" y2="122.000000"  style="stroke:black; stroke-linecap:round; stroke-width:0.25;"/>
<line x1="309.300000" y1="122.000000" x2="319.300000" y2="122.000000"  style="stroke:black; stroke-linecap:round; stroke-width:0.25;"/>
<line x1="319.300000" y1="122.000000" x2="329.300000" y2="122.000000"  style="stroke:black; stroke-linecap:round; stroke-width:0.25;"/>
<line x1="329.300000" y1="122.000000" x2="339.300000" y2="122.000000"  style="stroke:black; stroke-linecap:round; stroke-width:0.25;"/>
<line x1="339.300000" y1="72.000000" x2="347.300000" y2="72.000000"  style="stroke:black; stroke-linecap:round; stroke-width:0.25;"/>
<line x1="339.300000" y1="122.000000" x2="347.300000" y2="122.000000"  style="stroke:black; stroke-linecap:round; stroke-width:0.25;"/>
<line x1="347.300000" y1="72.000000" x2="347.300000" y2="114.000000"  style="stroke:black; stroke-linecap:round; stroke-width:0.25;"/>
<line x1="347.300000" y1="114.000000" x2="347.300000" y2="114.000000"  style="stroke:black; stroke-linecap:round; stroke-width:0.25;"/>
<line x1="347.300000" y1="114.000000" x2="351.300000" y2="114.000000"  style="stroke:black; stroke-linecap:round; stroke-width:0.25;"/>
<line x1="347.300000" y1="122.000000" x2="351.300000" y2="122.000000"  style="stroke:black; stroke-linecap:round; stroke-width:0.25;"/>
<line x1="375.300000" y1="118.000000" x2="379.300000" y2="118.000000"  style="stroke:black; stroke-linecap:round; stroke-width:0.25;"/>
<line x1="379.300000" y1="64.000000" x2="215.650000" y2="64.000000"  style="stroke:black; stroke-linecap:round; stroke-width:0.25;"/>
<line x1="379.300000" y1="64.000000" x2="379.300000" y2="64.000000"  style="stroke:black; stroke-linecap:round; stroke-width:0.25;"/>
<line x1="379.300000" y1="114.000000" x2="379.300000" y2="64.000000"  style="stroke:black; stroke-linecap:round; stroke-width:0.25;"/>
<line x1="379.300000" y1="118.000000" x2="381.300000" y2="118.000000"  style="stroke:black; stroke-linecap:round; stroke-width:0.25;"/>
<line x1="381.300000" y1="118.000000" x2="387.300000" y2="118.000000"  style="stroke:black; stroke-linecap:round; stroke-width:0.25;"/>
<line x1="387.300000" y1="44.000000" x2="395.300000" y2="44.000000"  style="stroke:black; stroke-linecap:round; stroke-width:0.25;"/>
<line x1="387.300000" y1="102.000000" x2="395.300000" y2="102.000000"  style="stroke:black; stroke-linecap:round; stroke-width:0.25;"/>
<line x1="387.300000" y1="118.000000" x2="387.300000" y2="102.000000"  style="stroke:black; stroke-linecap:round; stroke-width:0.25;"/>
<line x1="387.300000" y1="118.000000" x2="387.300000" y2="118.000000"  style="stroke:black; stroke-linecap:round; stroke-width:0.25;"/>
<line x1="395.300000" y1="44.000000" x2="395.300000" y2="94.000000"  style="stroke:black; stroke-linecap:round; stroke-width:0.25;"/>
<line x1="395.300000" y1="94.000000" x2="395.300000" y2="94.000000"  style="stroke:black; stroke-linecap:round; stroke-width:0.25;"/>
<line x1="395.300000" y1="94.000000" x2="399.300000" y2="94.000000"  style="stroke:black; stroke-linecap:round; stroke-width:0.25;"/>
<line x1="395.300000" y1="102.000000" x2="399.300000" y2="102.000000"  style="stroke:black; stroke-linecap:round; stroke-width:0.25;"/>
<line x1="423.300000" y1="98.000000" x2="427.300000" y2="98.000000"  style="stroke:black; stroke-linecap:round; stroke-width:0.25;"/>
<line x1="427.300000" y1="98.000000" x2="435.300000" y2="98.000000"  style="stroke:black; stroke-linecap:round; stroke-width:0.25;"/>
<line x1="427.300000" y1="128.000000" x2="435.300000" y2="128.000000"  style="stroke:black; stroke-linecap:round; stroke-width:0.25;"/>
<line x1="427.300000" y1="194.000000" x2="427.300000" y2="128.000000"  style="stroke:black; stroke-linecap:round; stroke-width:0.25;"/>
<line x1="427.300000" y1="194.000000" x2="427.300000" y2="194.000000"  style="stroke:black; stroke-linecap:round; stroke-width:0.25;"/>
<line x1="435.300000" y1="98.000000" x2="435.300000" y2="120.000000"  style="stroke:black; stroke-linecap:round; stroke-width:0.25;"/>
<line x1="435.300000" y1="120.000000" x2="435.300000" y2="120.000000"  style="stroke:black; stroke-linecap:round; stroke-width:0.25;"/>
<line x1="435.300000" y1="120.000000" x2="439.300000" y2="120.000000"  style="stroke:black; stroke-linecap:round; stroke-width:0.25;"/>
<line x1="435.300000" y1="128.000000" x2="439.300000" y2="128.000000"  style="stroke:black; stroke-linecap:round; stroke-width:0.25;"/>
<line x1="463.300000" y1="124.000000" x2="467.300000" y2="124.000000"  style="stroke:black; stroke-linecap:round; stroke-width:0.25;"/>
<line x1="467.300000" y1="124.000000" x2="467.300000" y2="124.000000"  style="stroke:black; stroke-linecap:round; stroke-width:0.25;"/>
<line x1="467.300000" y1="124.000000" x2="471.300000" y2="124.000000"  style="stroke:black; stroke-linecap:round; stroke-width:0.25;"/>
<line x1="495.300000" y1="124.000000" x2="499.300000" y2="124.000000"  style="stroke:black; stroke-linecap:round; stroke-width:0.25;"/>
<line x1="499.300000" y1="124.000000" x2="515.300000" y2="124.000000"  style="stroke:black; stroke-linecap:round; stroke-width:0.25;"/>
<line x1="499.300000" y1="132.000000" x2="515.300000" y2="132.000000"  style="stroke:black; stroke-linecap:round; stroke-width:0.25;"/>
<line x1="499.300000" y1="224.000000" x2="499.300000" y2="132.000000"  style="stroke:black; stroke-linecap:round; stroke-width:0.25;"/>
<line x1="499.300000" y1="224.000000" x2="499.300000" y2="224.000000"  style="stroke:black; stroke-linecap:round; stroke-width:0.25;"/>
<line x1="499.300000" y1="232.000000" x2="507.300000" y2="232.000000"  style="stroke:black; stroke-linecap:round; stroke-width:0.25;"/>
<line x1="507.300000" y1="140.000000" x2="515.300000" y2="140.000000"  style="stroke:black; stroke-linecap:round; stroke-width:0.25;"/>
<line x1="507.300000" y1="232.000000" x2="507.300000" y2="140.000000"  style="stroke:black; stroke-linecap:round; stroke-width:0.25;"/>
<line x1="515.300000" y1="124.000000" x2="519.300000" y2="124.000000"  style="stroke:black; stroke-linecap:round; stroke-width:0.25;"/>
<line x1="515.300000" y1="132.000000" x2="519.300000" y2="132.000000"  style="stroke:black; stroke-linecap:round; stroke-width:0.25;"/>
<line x1="515.300000" y1="140.000000" x2="519.300000" y2="140.000000"  style="stroke:black; stroke-linecap:round; stroke-width:0.25;"/>
<line x1="558.000000" y1="132.000000" x2="562.000000" y2="132.000000"  style="stroke:black; stroke-linecap:round; stroke-width:0.25;"/>
<line x1="562.000000" y1="24.000000" x2="303.000000" y2="24.000000"  style="stroke:black; stroke-linecap:round; stroke-width:0.25;"/>
<line x1="562.000000" y1="24.000000" x2="562.000000" y2="24.000000"  style="stroke:black; stroke-linecap:round; stroke-width:0.25;"/>
<line x1="562.000000" y1="128.000000" x2="562.000000" y2="24.000000"  style="stroke:black; stroke-linecap:round; stroke-width:0.25;"/>
<line x1="562.000000" y1="132.000000" x2="564.000000" y2="132.000000"  style="stroke:black; stroke-linecap:round; stroke-width:0.25;"/>
<line x1="564.000000" y1="132.000000" x2="570.000000" y2="132.000000"  style="stroke:black; stroke-linecap:round; stroke-width:0.25;"/>
<line x1="570.000000" y1="128.000000" x2="578.000000" y2="128.000000"  style="stroke:black; stroke-linecap:round; stroke-width:0.25;"/>
<line x1="570.000000" y1="132.000000" x2="570.000000" y2="128.000000"  style="stroke:black; stroke-linecap:round; stroke-width:0.25;"/>
<line x1="570.000000" y1="132.000000" x2="570.000000" y2="132.000000"  style="stroke:black; stroke-linecap:round; stroke-width:0.25;"/>
<line x1="578.000000" y1="128.000000" x2="582.000000" y2="128.000000"  style="stroke:black; stroke-linecap:round; stroke-width:0.25;"/>
<line x1="582.000000" y1="128.000000" x2="586.000000" y2="128.000000"  style="stroke:black; stroke-linecap:round; stroke-width:0.25;"/>
<line x1="586.000000" y1="128.000000" x2="596.000000" y2="128.000000"  style="stroke:black; stroke-linecap:round; stroke-width:0.25;"/>
</svg>
