<?xml version="1.0"?>
<svg xmlns="http://www.w3.org/2000/svg" xmlns:xlink="http://www.w3.org/1999/xlink" viewBox="0 0 478.800000 184.000000" width="239.400000mm" height="92.000000mm" version="1.1">
<a xlink:href="StereoVolFilterB-0x2f8951e0.svg">
<rect x="1.000000" y="1.000000" width="477.800000" height="183.000000" rx="0" ry="0" style="stroke:none;fill:#cccccc;"/>
<rect x="0.000000" y="0.000000" width="477.800000" height="183.000000" rx="0" ry="0" style="stroke:none;fill:#ffffff;"/>
</a>
<text x="10.000000" y="7.000000" font-family="Arial" font-size="7"></text>
<a xlink:href="VocoderLinArr-0x19e744d0.svg">
<rect x="41.000000" y="33.000000" width="129.000000" height="128.000000" rx="0" ry="0" style="stroke:none;fill:#cccccc;"/>
<rect x="40.000000" y="32.000000" width="129.000000" height="128.000000" rx="0" ry="0" style="stroke:none;fill:#003366;"/>
</a>
<a xlink:href="VocoderLinArr-0x19e744d0.svg">
<text x="104.500000" y="98.000000" font-family="Arial" font-size="7" text-anchor="middle" fill="#FFFFFF">VocoderLinArr....001f))))))))</text>
</a>
<circle cx="42.000000" cy="34.000000" r="1"/>
<rect x="260.000000" y="73.000000" width="24.000000" height="24.000000" rx="0" ry="0" style="stroke:none;fill:#cccccc;"/>
<rect x="259.000000" y="72.000000" width="24.000000" height="24.000000" rx="0" ry="0" style="stroke:none;fill:#f44800;"/>
<text x="271.000000" y="86.000000" font-family="Arial" font-size="7" text-anchor="middle" fill="#FFFFFF">3</text>
<circle cx="261.000000" cy="74.000000" r="1"/>
<line x1="250.000000" y1="63.000000" x2="250.000000" y2="105.000000"  style="stroke: black; stroke-linecap:round; stroke-width:0.25; stroke-dasharray:3,3;"/>
<line x1="250.000000" y1="105.000000" x2="292.000000" y2="105.000000"  style="stroke: black; stroke-linecap:round; stroke-width:0.25; stroke-dasharray:3,3;"/>
<line x1="292.000000" y1="105.000000" x2="292.000000" y2="63.000000"  style="stroke: black; stroke-linecap:round; stroke-width:0.25; stroke-dasharray:3,3;"/>
<line x1="250.000000" y1="63.000000" x2="255.000000" y2="63.000000"  style="stroke: black; stroke-linecap:round; stroke-width:0.25; stroke-dasharray:3,3;"/>
<line x1="284.025000" y1="63.000000" x2="292.000000" y2="63.000000"  style="stroke: black; stroke-linecap:round; stroke-width:0.25; stroke-dasharray:3,3;"/>
<text x="255.000000" y="65.000000" font-family="Arial" font-size="7">nrSends</text>
<rect x="310.000000" y="69.000000" width="24.000000" height="24.000000" rx="0" ry="0" style="stroke:none;fill:#cccccc;"/>
<rect x="309.000000" y="68.000000" width="24.000000" height="24.000000" rx="0" ry="0" style="stroke:none;fill:#4B71A1;"/>
<text x="321.000000" y="82.000000" font-family="Arial" font-size="7" text-anchor="middle" fill="#FFFFFF">pow</text>
<circle cx="311.000000" cy="70.000000" r="1"/>
<line x1="306.000000" y1="75.000000" x2="309.000000" y2="76.000000"  transform="rotate(0.000000,309.000000,76.000000)" style="stroke: black; stroke-width:0.25;"/>
<line x1="306.000000" y1="77.000000" x2="309.000000" y2="76.000000"  transform="rotate(0.000000,309.000000,76.000000)" style="stroke: black; stroke-width:0.25;"/>
<line x1="306.000000" y1="83.000000" x2="309.000000" y2="84.000000"  transform="rotate(0.000000,309.000000,84.000000)" style="stroke: black; stroke-width:0.25;"/>
<line x1="306.000000" y1="85.000000" x2="309.000000" y2="84.000000"  transform="rotate(0.000000,309.000000,84.000000)" style="stroke: black; stroke-width:0.25;"/>
<rect x="280.000000" y="115.000000" width="24.000000" height="24.000000" rx="0" ry="0" style="stroke:none;fill:#cccccc;"/>
<rect x="279.000000" y="114.000000" width="24.000000" height="24.000000" rx="0" ry="0" style="stroke:none;fill:#f44800;"/>
<text x="291.000000" y="128.000000" font-family="Arial" font-size="7" text-anchor="middle" fill="#FFFFFF">64</text>
<circle cx="281.000000" cy="116.000000" r="1"/>
<rect x="350.000000" y="85.000000" width="24.000000" height="24.000000" rx="0" ry="0" style="stroke:none;fill:#cccccc;"/>
<rect x="349.000000" y="84.000000" width="24.000000" height="24.000000" rx="0" ry="0" style="stroke:none;fill:#4B71A1;"/>
<text x="361.000000" y="98.000000" font-family="Arial" font-size="7" text-anchor="middle" fill="#FFFFFF">*</text>
<circle cx="351.000000" cy="86.000000" r="1"/>
<line x1="346.000000" y1="91.000000" x2="349.000000" y2="92.000000"  transform="rotate(0.000000,349.000000,92.000000)" style="stroke: black; stroke-width:0.25;"/>
<line x1="346.000000" y1="93.000000" x2="349.000000" y2="92.000000"  transform="rotate(0.000000,349.000000,92.000000)" style="stroke: black; stroke-width:0.25;"/>
<line x1="346.000000" y1="99.000000" x2="349.000000" y2="100.000000"  transform="rotate(0.000000,349.000000,100.000000)" style="stroke: black; stroke-width:0.25;"/>
<line x1="346.000000" y1="101.000000" x2="349.000000" y2="100.000000"  transform="rotate(0.000000,349.000000,100.000000)" style="stroke: black; stroke-width:0.25;"/>
<a xlink:href="dezip-0x2eb81a40.svg">
<rect x="382.000000" y="85.000000" width="25.800000" height="24.000000" rx="0" ry="0" style="stroke:none;fill:#cccccc;"/>
<rect x="381.000000" y="84.000000" width="25.800000" height="24.000000" rx="0" ry="0" style="stroke:none;fill:#003366;"/>
</a>
<a xlink:href="dezip-0x2eb81a40.svg">
<text x="393.900000" y="98.000000" font-family="Arial" font-size="7" text-anchor="middle" fill="#FFFFFF">dezip</text>
</a>
<circle cx="383.000000" cy="86.000000" r="1"/>
<line x1="378.000000" y1="95.000000" x2="381.000000" y2="96.000000"  transform="rotate(0.000000,381.000000,96.000000)" style="stroke: black; stroke-width:0.25;"/>
<line x1="378.000000" y1="97.000000" x2="381.000000" y2="96.000000"  transform="rotate(0.000000,381.000000,96.000000)" style="stroke: black; stroke-width:0.25;"/>
<rect x="423.800000" y="81.000000" width="24.000000" height="24.000000" rx="0" ry="0" style="stroke:none;fill:#cccccc;"/>
<rect x="422.800000" y="80.000000" width="24.000000" height="24.000000" rx="0" ry="0" style="stroke:none;fill:#4B71A1;"/>
<text x="434.800000" y="94.000000" font-family="Arial" font-size="7" text-anchor="middle" fill="#FFFFFF">+</text>
<circle cx="424.800000" cy="82.000000" r="1"/>
<line x1="419.800000" y1="87.000000" x2="422.800000" y2="88.000000"  transform="rotate(0.000000,422.800000,88.000000)" style="stroke: black; stroke-width:0.25;"/>
<line x1="419.800000" y1="89.000000" x2="422.800000" y2="88.000000"  transform="rotate(0.000000,422.800000,88.000000)" style="stroke: black; stroke-width:0.25;"/>
<line x1="419.800000" y1="95.000000" x2="422.800000" y2="96.000000"  transform="rotate(0.000000,422.800000,96.000000)" style="stroke: black; stroke-width:0.25;"/>
<line x1="419.800000" y1="97.000000" x2="422.800000" y2="96.000000"  transform="rotate(0.000000,422.800000,96.000000)" style="stroke: black; stroke-width:0.25;"/>
<line x1="15.000000" y1="15.000000" x2="15.000000" y2="169.000000"  style="stroke: black; stroke-linecap:round; stroke-width:0.25; stroke-dasharray:3,3;"/>
<line x1="15.000000" y1="169.000000" x2="463.800000" y2="169.000000"  style="stroke: black; stroke-linecap:round; stroke-width:0.25; stroke-dasharray:3,3;"/>
<line x1="463.800000" y1="169.000000" x2="463.800000" y2="15.000000"  style="stroke: black; stroke-linecap:round; stroke-width:0.25; stroke-dasharray:3,3;"/>
<line x1="15.000000" y1="15.000000" x2="20.000000" y2="15.000000"  style="stroke: black; stroke-linecap:round; stroke-width:0.25; stroke-dasharray:3,3;"/>
<line x1="52.250000" y1="15.000000" x2="463.800000" y2="15.000000"  style="stroke: black; stroke-linecap:round; stroke-width:0.25; stroke-dasharray:3,3;"/>
<text x="20.000000" y="17.000000" font-family="Arial" font-size="7">addDC(5)</text>
<line x1="465.800000" y1="91.000000" x2="468.800000" y2="92.000000"  transform="rotate(0.000000,468.800000,92.000000)" style="stroke: black; stroke-width:0.25;"/>
<line x1="465.800000" y1="93.000000" x2="468.800000" y2="92.000000"  transform="rotate(0.000000,468.800000,92.000000)" style="stroke: black; stroke-width:0.25;"/>
<line x1="10.000000" y1="92.000000" x2="20.000000" y2="92.000000"  style="stroke:black; stroke-linecap:round; stroke-width:0.25;"/>
<line x1="20.000000" y1="92.000000" x2="24.000000" y2="92.000000"  style="stroke:black; stroke-linecap:round; stroke-width:0.25;"/>
<line x1="24.000000" y1="92.000000" x2="28.000000" y2="92.000000"  style="stroke:black; stroke-linecap:round; stroke-width:0.25;"/>
<line x1="28.000000" y1="24.000000" x2="36.000000" y2="24.000000"  style="stroke:black; stroke-linecap:round; stroke-width:0.25;"/>
<line x1="28.000000" y1="92.000000" x2="28.000000" y2="24.000000"  style="stroke:black; stroke-linecap:round; stroke-width:0.25;"/>
<line x1="28.000000" y1="92.000000" x2="28.000000" y2="92.000000"  style="stroke:black; stroke-linecap:round; stroke-width:0.25;"/>
<line x1="36.000000" y1="24.000000" x2="223.400000" y2="24.000000"  style="stroke:black; stroke-linecap:round; stroke-width:0.25;"/>
<line x1="169.000000" y1="76.000000" x2="173.000000" y2="76.000000"  style="stroke:black; stroke-linecap:round; stroke-width:0.25;"/>
<line x1="173.000000" y1="76.000000" x2="197.000000" y2="76.000000"  style="stroke:black; stroke-linecap:round; stroke-width:0.25;"/>
<line x1="197.000000" y1="76.000000" x2="197.000000" y2="95.800000"  style="stroke:black; stroke-linecap:round; stroke-width:0.25;"/>
<line x1="197.000000" y1="95.800000" x2="237.000000" y2="95.800000"  style="stroke:black; stroke-linecap:round; stroke-width:0.25;"/>
<line x1="223.400000" y1="24.000000" x2="410.800000" y2="24.000000"  style="stroke:black; stroke-linecap:round; stroke-width:0.25;"/>
<line x1="237.000000" y1="54.000000" x2="245.000000" y2="54.000000"  style="stroke:black; stroke-linecap:round; stroke-width:0.25;"/>
<line x1="237.000000" y1="95.800000" x2="237.000000" y2="54.000000"  style="stroke:black; stroke-linecap:round; stroke-width:0.25;"/>
<line x1="237.000000" y1="95.800000" x2="237.000000" y2="95.800000"  style="stroke:black; stroke-linecap:round; stroke-width:0.25;"/>
<line x1="245.000000" y1="54.000000" x2="271.000000" y2="54.000000"  style="stroke:black; stroke-linecap:round; stroke-width:0.25;"/>
<line x1="271.000000" y1="54.000000" x2="297.000000" y2="54.000000"  style="stroke:black; stroke-linecap:round; stroke-width:0.25;"/>
<line x1="283.000000" y1="84.000000" x2="287.000000" y2="84.000000"  style="stroke:black; stroke-linecap:round; stroke-width:0.25;"/>
<line x1="287.000000" y1="84.000000" x2="297.000000" y2="84.000000"  style="stroke:black; stroke-linecap:round; stroke-width:0.25;"/>
<line x1="297.000000" y1="54.000000" x2="305.000000" y2="54.000000"  style="stroke:black; stroke-linecap:round; stroke-width:0.25;"/>
<line x1="297.000000" y1="84.000000" x2="305.000000" y2="84.000000"  style="stroke:black; stroke-linecap:round; stroke-width:0.25;"/>
<line x1="303.000000" y1="126.000000" x2="307.000000" y2="126.000000"  style="stroke:black; stroke-linecap:round; stroke-width:0.25;"/>
<line x1="305.000000" y1="54.000000" x2="305.000000" y2="76.000000"  style="stroke:black; stroke-linecap:round; stroke-width:0.25;"/>
<line x1="305.000000" y1="76.000000" x2="305.000000" y2="76.000000"  style="stroke:black; stroke-linecap:round; stroke-width:0.25;"/>
<line x1="305.000000" y1="76.000000" x2="309.000000" y2="76.000000"  style="stroke:black; stroke-linecap:round; stroke-width:0.25;"/>
<line x1="305.000000" y1="84.000000" x2="309.000000" y2="84.000000"  style="stroke:black; stroke-linecap:round; stroke-width:0.25;"/>
<line x1="307.000000" y1="126.000000" x2="337.000000" y2="126.000000"  style="stroke:black; stroke-linecap:round; stroke-width:0.25;"/>
<line x1="333.000000" y1="80.000000" x2="337.000000" y2="80.000000"  style="stroke:black; stroke-linecap:round; stroke-width:0.25;"/>
<line x1="337.000000" y1="80.000000" x2="345.000000" y2="80.000000"  style="stroke:black; stroke-linecap:round; stroke-width:0.25;"/>
<line x1="337.000000" y1="100.000000" x2="345.000000" y2="100.000000"  style="stroke:black; stroke-linecap:round; stroke-width:0.25;"/>
<line x1="337.000000" y1="126.000000" x2="337.000000" y2="100.000000"  style="stroke:black; stroke-linecap:round; stroke-width:0.25;"/>
<line x1="337.000000" y1="126.000000" x2="337.000000" y2="126.000000"  style="stroke:black; stroke-linecap:round; stroke-width:0.25;"/>
<line x1="345.000000" y1="80.000000" x2="345.000000" y2="92.000000"  style="stroke:black; stroke-linecap:round; stroke-width:0.25;"/>
<line x1="345.000000" y1="92.000000" x2="345.000000" y2="92.000000"  style="stroke:black; stroke-linecap:round; stroke-width:0.25;"/>
<line x1="345.000000" y1="92.000000" x2="349.000000" y2="92.000000"  style="stroke:black; stroke-linecap:round; stroke-width:0.25;"/>
<line x1="345.000000" y1="100.000000" x2="349.000000" y2="100.000000"  style="stroke:black; stroke-linecap:round; stroke-width:0.25;"/>
<line x1="373.000000" y1="96.000000" x2="377.000000" y2="96.000000"  style="stroke:black; stroke-linecap:round; stroke-width:0.25;"/>
<line x1="377.000000" y1="96.000000" x2="377.000000" y2="96.000000"  style="stroke:black; stroke-linecap:round; stroke-width:0.25;"/>
<line x1="377.000000" y1="96.000000" x2="381.000000" y2="96.000000"  style="stroke:black; stroke-linecap:round; stroke-width:0.25;"/>
<line x1="406.800000" y1="96.000000" x2="410.800000" y2="96.000000"  style="stroke:black; stroke-linecap:round; stroke-width:0.25;"/>
<line x1="410.800000" y1="24.000000" x2="418.800000" y2="24.000000"  style="stroke:black; stroke-linecap:round; stroke-width:0.25;"/>
<line x1="410.800000" y1="96.000000" x2="418.800000" y2="96.000000"  style="stroke:black; stroke-linecap:round; stroke-width:0.25;"/>
<line x1="418.800000" y1="24.000000" x2="418.800000" y2="88.000000"  style="stroke:black; stroke-linecap:round; stroke-width:0.25;"/>
<line x1="418.800000" y1="88.000000" x2="418.800000" y2="88.000000"  style="stroke:black; stroke-linecap:round; stroke-width:0.25;"/>
<line x1="418.800000" y1="88.000000" x2="422.800000" y2="88.000000"  style="stroke:black; stroke-linecap:round; stroke-width:0.25;"/>
<line x1="418.800000" y1="96.000000" x2="422.800000" y2="96.000000"  style="stroke:black; stroke-linecap:round; stroke-width:0.25;"/>
<line x1="446.800000" y1="92.000000" x2="450.800000" y2="92.000000"  style="stroke:black; stroke-linecap:round; stroke-width:0.25;"/>
<line x1="450.800000" y1="92.000000" x2="450.800000" y2="92.000000"  style="stroke:black; stroke-linecap:round; stroke-width:0.25;"/>
<line x1="450.800000" y1="92.000000" x2="454.800000" y2="92.000000"  style="stroke:black; stroke-linecap:round; stroke-width:0.25;"/>
<line x1="454.800000" y1="92.000000" x2="458.800000" y2="92.000000"  style="stroke:black; stroke-linecap:round; stroke-width:0.25;"/>
<line x1="458.800000" y1="92.000000" x2="468.800000" y2="92.000000"  style="stroke:black; stroke-linecap:round; stroke-width:0.25;"/>
</svg>
