<?xml version="1.0"?>
<svg xmlns="http://www.w3.org/2000/svg" xmlns:xlink="http://www.w3.org/1999/xlink" viewBox="0 0 287.100000 120.000000" width="143.550000mm" height="60.000000mm" version="1.1">
<a xlink:href="mixerWithSends-0x6da9bf0.svg">
<rect x="1.000000" y="1.000000" width="286.100000" height="119.000000" rx="0" ry="0" style="stroke:none;fill:#cccccc;"/>
<rect x="0.000000" y="0.000000" width="286.100000" height="119.000000" rx="0" ry="0" style="stroke:none;fill:#ffffff;"/>
</a>
<text x="10.000000" y="7.000000" font-family="Arial" font-size="7"></text>
<a xlink:href="monoChannel-0x6c6bfd0.svg">
<rect x="103.000000" y="25.000000" width="64.500000" height="32.000000" rx="0" ry="0" style="stroke:none;fill:#cccccc;"/>
<rect x="102.000000" y="24.000000" width="64.500000" height="32.000000" rx="0" ry="0" style="stroke:none;fill:#003366;"/>
</a>
<a xlink:href="monoChannel-0x6c6bfd0.svg">
<text x="134.250000" y="42.000000" font-family="Arial" font-size="7" text-anchor="middle" fill="#FFFFFF">monoChannel(3)</text>
</a>
<circle cx="104.000000" cy="26.000000" r="1"/>
<line x1="99.000000" y1="27.000000" x2="102.000000" y2="28.000000"  transform="rotate(0.000000,102.000000,28.000000)" style="stroke: black; stroke-width:0.25;"/>
<line x1="99.000000" y1="29.000000" x2="102.000000" y2="28.000000"  transform="rotate(0.000000,102.000000,28.000000)" style="stroke: black; stroke-width:0.25;"/>
<line x1="99.000000" y1="35.000000" x2="102.000000" y2="36.000000"  transform="rotate(0.000000,102.000000,36.000000)" style="stroke: black; stroke-width:0.25;"/>
<line x1="99.000000" y1="37.000000" x2="102.000000" y2="36.000000"  transform="rotate(0.000000,102.000000,36.000000)" style="stroke: black; stroke-width:0.25;"/>
<line x1="99.000000" y1="43.000000" x2="102.000000" y2="44.000000"  transform="rotate(0.000000,102.000000,44.000000)" style="stroke: black; stroke-width:0.25;"/>
<line x1="99.000000" y1="45.000000" x2="102.000000" y2="44.000000"  transform="rotate(0.000000,102.000000,44.000000)" style="stroke: black; stroke-width:0.25;"/>
<line x1="99.000000" y1="51.000000" x2="102.000000" y2="52.000000"  transform="rotate(0.000000,102.000000,52.000000)" style="stroke: black; stroke-width:0.25;"/>
<line x1="99.000000" y1="53.000000" x2="102.000000" y2="52.000000"  transform="rotate(0.000000,102.000000,52.000000)" style="stroke: black; stroke-width:0.25;"/>
<a xlink:href="monoChannel-0x6c6bfd0.svg">
<rect x="103.000000" y="65.000000" width="64.500000" height="32.000000" rx="0" ry="0" style="stroke:none;fill:#cccccc;"/>
<rect x="102.000000" y="64.000000" width="64.500000" height="32.000000" rx="0" ry="0" style="stroke:none;fill:#003366;"/>
</a>
<a xlink:href="monoChannel-0x6c6bfd0.svg">
<text x="134.250000" y="82.000000" font-family="Arial" font-size="7" text-anchor="middle" fill="#FFFFFF">monoChannel(3)</text>
</a>
<circle cx="104.000000" cy="66.000000" r="1"/>
<line x1="99.000000" y1="67.000000" x2="102.000000" y2="68.000000"  transform="rotate(0.000000,102.000000,68.000000)" style="stroke: black; stroke-width:0.25;"/>
<line x1="99.000000" y1="69.000000" x2="102.000000" y2="68.000000"  transform="rotate(0.000000,102.000000,68.000000)" style="stroke: black; stroke-width:0.25;"/>
<line x1="99.000000" y1="75.000000" x2="102.000000" y2="76.000000"  transform="rotate(0.000000,102.000000,76.000000)" style="stroke: black; stroke-width:0.25;"/>
<line x1="99.000000" y1="77.000000" x2="102.000000" y2="76.000000"  transform="rotate(0.000000,102.000000,76.000000)" style="stroke: black; stroke-width:0.25;"/>
<line x1="99.000000" y1="83.000000" x2="102.000000" y2="84.000000"  transform="rotate(0.000000,102.000000,84.000000)" style="stroke: black; stroke-width:0.25;"/>
<line x1="99.000000" y1="85.000000" x2="102.000000" y2="84.000000"  transform="rotate(0.000000,102.000000,84.000000)" style="stroke: black; stroke-width:0.25;"/>
<line x1="99.000000" y1="91.000000" x2="102.000000" y2="92.000000"  transform="rotate(0.000000,102.000000,92.000000)" style="stroke: black; stroke-width:0.25;"/>
<line x1="99.000000" y1="93.000000" x2="102.000000" y2="92.000000"  transform="rotate(0.000000,102.000000,92.000000)" style="stroke: black; stroke-width:0.25;"/>
<line x1="15.000000" y1="15.000000" x2="15.000000" y2="105.000000"  style="stroke: black; stroke-linecap:round; stroke-width:0.25; stroke-dasharray:3,3;"/>
<line x1="15.000000" y1="105.000000" x2="272.100000" y2="105.000000"  style="stroke: black; stroke-linecap:round; stroke-width:0.25; stroke-dasharray:3,3;"/>
<line x1="272.100000" y1="105.000000" x2="272.100000" y2="15.000000"  style="stroke: black; stroke-linecap:round; stroke-width:0.25; stroke-dasharray:3,3;"/>
<line x1="15.000000" y1="15.000000" x2="20.000000" y2="15.000000"  style="stroke: black; stroke-linecap:round; stroke-width:0.25; stroke-dasharray:3,3;"/>
<line x1="84.500000" y1="15.000000" x2="272.100000" y2="15.000000"  style="stroke: black; stroke-linecap:round; stroke-width:0.25; stroke-dasharray:3,3;"/>
<text x="20.000000" y="17.000000" font-family="Arial" font-size="7">busWithSends(2)(3)</text>
<line x1="274.100000" y1="39.000000" x2="277.100000" y2="40.000000"  transform="rotate(0.000000,277.100000,40.000000)" style="stroke: black; stroke-width:0.25;"/>
<line x1="274.100000" y1="41.000000" x2="277.100000" y2="40.000000"  transform="rotate(0.000000,277.100000,40.000000)" style="stroke: black; stroke-width:0.25;"/>
<line x1="274.100000" y1="47.000000" x2="277.100000" y2="48.000000"  transform="rotate(0.000000,277.100000,48.000000)" style="stroke: black; stroke-width:0.25;"/>
<line x1="274.100000" y1="49.000000" x2="277.100000" y2="48.000000"  transform="rotate(0.000000,277.100000,48.000000)" style="stroke: black; stroke-width:0.25;"/>
<line x1="274.100000" y1="55.000000" x2="277.100000" y2="56.000000"  transform="rotate(0.000000,277.100000,56.000000)" style="stroke: black; stroke-width:0.25;"/>
<line x1="274.100000" y1="57.000000" x2="277.100000" y2="56.000000"  transform="rotate(0.000000,277.100000,56.000000)" style="stroke: black; stroke-width:0.25;"/>
<line x1="274.100000" y1="63.000000" x2="277.100000" y2="64.000000"  transform="rotate(0.000000,277.100000,64.000000)" style="stroke: black; stroke-width:0.25;"/>
<line x1="274.100000" y1="65.000000" x2="277.100000" y2="64.000000"  transform="rotate(0.000000,277.100000,64.000000)" style="stroke: black; stroke-width:0.25;"/>
<line x1="274.100000" y1="71.000000" x2="277.100000" y2="72.000000"  transform="rotate(0.000000,277.100000,72.000000)" style="stroke: black; stroke-width:0.25;"/>
<line x1="274.100000" y1="73.000000" x2="277.100000" y2="72.000000"  transform="rotate(0.000000,277.100000,72.000000)" style="stroke: black; stroke-width:0.25;"/>
<line x1="274.100000" y1="79.000000" x2="277.100000" y2="80.000000"  transform="rotate(0.000000,277.100000,80.000000)" style="stroke: black; stroke-width:0.25;"/>
<line x1="274.100000" y1="81.000000" x2="277.100000" y2="80.000000"  transform="rotate(0.000000,277.100000,80.000000)" style="stroke: black; stroke-width:0.25;"/>
<line x1="10.000000" y1="44.000000" x2="20.000000" y2="44.000000"  style="stroke:black; stroke-linecap:round; stroke-width:0.25;"/>
<line x1="10.000000" y1="52.000000" x2="20.000000" y2="52.000000"  style="stroke:black; stroke-linecap:round; stroke-width:0.25;"/>
<line x1="10.000000" y1="60.000000" x2="20.000000" y2="60.000000"  style="stroke:black; stroke-linecap:round; stroke-width:0.25;"/>
<line x1="10.000000" y1="68.000000" x2="20.000000" y2="68.000000"  style="stroke:black; stroke-linecap:round; stroke-width:0.25;"/>
<line x1="10.000000" y1="76.000000" x2="20.000000" y2="76.000000"  style="stroke:black; stroke-linecap:round; stroke-width:0.25;"/>
<line x1="20.000000" y1="44.000000" x2="24.000000" y2="44.000000"  style="stroke:black; stroke-linecap:round; stroke-width:0.25;"/>
<line x1="20.000000" y1="52.000000" x2="24.000000" y2="52.000000"  style="stroke:black; stroke-linecap:round; stroke-width:0.25;"/>
<line x1="20.000000" y1="60.000000" x2="24.000000" y2="60.000000"  style="stroke:black; stroke-linecap:round; stroke-width:0.25;"/>
<line x1="20.000000" y1="68.000000" x2="24.000000" y2="68.000000"  style="stroke:black; stroke-linecap:round; stroke-width:0.25;"/>
<line x1="20.000000" y1="76.000000" x2="24.000000" y2="76.000000"  style="stroke:black; stroke-linecap:round; stroke-width:0.25;"/>
<line x1="24.000000" y1="44.000000" x2="28.000000" y2="44.000000"  style="stroke:black; stroke-linecap:round; stroke-width:0.25;"/>
<line x1="24.000000" y1="52.000000" x2="28.000000" y2="52.000000"  style="stroke:black; stroke-linecap:round; stroke-width:0.25;"/>
<line x1="24.000000" y1="60.000000" x2="28.000000" y2="60.000000"  style="stroke:black; stroke-linecap:round; stroke-width:0.25;"/>
<line x1="24.000000" y1="68.000000" x2="28.000000" y2="68.000000"  style="stroke:black; stroke-linecap:round; stroke-width:0.25;"/>
<line x1="24.000000" y1="76.000000" x2="28.000000" y2="76.000000"  style="stroke:black; stroke-linecap:round; stroke-width:0.25;"/>
<line x1="28.000000" y1="44.000000" x2="28.000000" y2="44.000000"  style="stroke:black; stroke-linecap:round; stroke-width:0.25;"/>
<line x1="28.000000" y1="44.000000" x2="32.000000" y2="44.000000"  style="stroke:black; stroke-linecap:round; stroke-width:0.25;"/>
<line x1="28.000000" y1="52.000000" x2="28.000000" y2="52.000000"  style="stroke:black; stroke-linecap:round; stroke-width:0.25;"/>
<line x1="28.000000" y1="52.000000" x2="32.000000" y2="52.000000"  style="stroke:black; stroke-linecap:round; stroke-width:0.25;"/>
<line x1="28.000000" y1="60.000000" x2="28.000000" y2="60.000000"  style="stroke:black; stroke-linecap:round; stroke-width:0.25;"/>
<line x1="28.000000" y1="60.000000" x2="32.000000" y2="60.000000"  style="stroke:black; stroke-linecap:round; stroke-width:0.25;"/>
<line x1="28.000000" y1="68.000000" x2="28.000000" y2="68.000000"  style="stroke:black; stroke-linecap:round; stroke-width:0.25;"/>
<line x1="28.000000" y1="68.000000" x2="32.000000" y2="68.000000"  style="stroke:black; stroke-linecap:round; stroke-width:0.25;"/>
<line x1="28.000000" y1="76.000000" x2="28.000000" y2="76.000000"  style="stroke:black; stroke-linecap:round; stroke-width:0.25;"/>
<line x1="28.000000" y1="76.000000" x2="32.000000" y2="76.000000"  style="stroke:black; stroke-linecap:round; stroke-width:0.25;"/>
<line x1="32.000000" y1="44.000000" x2="36.000000" y2="44.000000"  style="stroke:black; stroke-linecap:round; stroke-width:0.25;"/>
<line x1="32.000000" y1="52.000000" x2="36.000000" y2="52.000000"  style="stroke:black; stroke-linecap:round; stroke-width:0.25;"/>
<line x1="32.000000" y1="60.000000" x2="36.000000" y2="60.000000"  style="stroke:black; stroke-linecap:round; stroke-width:0.25;"/>
<line x1="32.000000" y1="68.000000" x2="36.000000" y2="68.000000"  style="stroke:black; stroke-linecap:round; stroke-width:0.25;"/>
<line x1="32.000000" y1="76.000000" x2="36.000000" y2="76.000000"  style="stroke:black; stroke-linecap:round; stroke-width:0.25;"/>
<line x1="36.000000" y1="44.000000" x2="66.000000" y2="31.520000"  style="stroke:black; stroke-linecap:round; stroke-width:0.25;"/>
<line x1="36.000000" y1="44.000000" x2="66.000000" y2="64.000000"  style="stroke:black; stroke-linecap:round; stroke-width:0.25;"/>
<line x1="36.000000" y1="52.000000" x2="66.000000" y2="39.520000"  style="stroke:black; stroke-linecap:round; stroke-width:0.25;"/>
<line x1="36.000000" y1="52.000000" x2="66.000000" y2="72.000000"  style="stroke:black; stroke-linecap:round; stroke-width:0.25;"/>
<line x1="36.000000" y1="60.000000" x2="66.000000" y2="47.520000"  style="stroke:black; stroke-linecap:round; stroke-width:0.25;"/>
<line x1="36.000000" y1="60.000000" x2="66.000000" y2="80.000000"  style="stroke:black; stroke-linecap:round; stroke-width:0.25;"/>
<line x1="36.000000" y1="68.000000" x2="66.000000" y2="55.920000"  style="stroke:black; stroke-linecap:round; stroke-width:0.25;"/>
<line x1="36.000000" y1="76.000000" x2="66.000000" y2="88.480000"  style="stroke:black; stroke-linecap:round; stroke-width:0.25;"/>
<line x1="66.000000" y1="28.000000" x2="98.000000" y2="28.000000"  style="stroke:black; stroke-linecap:round; stroke-width:0.25;"/>
<line x1="66.000000" y1="31.520000" x2="66.000000" y2="28.000000"  style="stroke:black; stroke-linecap:round; stroke-width:0.25;"/>
<line x1="66.000000" y1="31.520000" x2="66.000000" y2="31.520000"  style="stroke:black; stroke-linecap:round; stroke-width:0.25;"/>
<line x1="66.000000" y1="39.520000" x2="74.000000" y2="39.520000"  style="stroke:black; stroke-linecap:round; stroke-width:0.25;"/>
<line x1="66.000000" y1="47.520000" x2="82.000000" y2="47.520000"  style="stroke:black; stroke-linecap:round; stroke-width:0.25;"/>
<line x1="66.000000" y1="55.920000" x2="90.000000" y2="55.920000"  style="stroke:black; stroke-linecap:round; stroke-width:0.25;"/>
<line x1="66.000000" y1="64.000000" x2="98.000000" y2="64.000000"  style="stroke:black; stroke-linecap:round; stroke-width:0.25;"/>
<line x1="66.000000" y1="72.000000" x2="90.000000" y2="72.000000"  style="stroke:black; stroke-linecap:round; stroke-width:0.25;"/>
<line x1="66.000000" y1="80.000000" x2="82.000000" y2="80.000000"  style="stroke:black; stroke-linecap:round; stroke-width:0.25;"/>
<line x1="66.000000" y1="88.480000" x2="74.000000" y2="88.480000"  style="stroke:black; stroke-linecap:round; stroke-width:0.25;"/>
<line x1="74.000000" y1="36.000000" x2="98.000000" y2="36.000000"  style="stroke:black; stroke-linecap:round; stroke-width:0.25;"/>
<line x1="74.000000" y1="39.520000" x2="74.000000" y2="36.000000"  style="stroke:black; stroke-linecap:round; stroke-width:0.25;"/>
<line x1="74.000000" y1="88.480000" x2="74.000000" y2="92.000000"  style="stroke:black; stroke-linecap:round; stroke-width:0.25;"/>
<line x1="74.000000" y1="92.000000" x2="98.000000" y2="92.000000"  style="stroke:black; stroke-linecap:round; stroke-width:0.25;"/>
<line x1="82.000000" y1="44.000000" x2="98.000000" y2="44.000000"  style="stroke:black; stroke-linecap:round; stroke-width:0.25;"/>
<line x1="82.000000" y1="47.520000" x2="82.000000" y2="44.000000"  style="stroke:black; stroke-linecap:round; stroke-width:0.25;"/>
<line x1="82.000000" y1="80.000000" x2="82.000000" y2="84.000000"  style="stroke:black; stroke-linecap:round; stroke-width:0.25;"/>
<line x1="82.000000" y1="84.000000" x2="98.000000" y2="84.000000"  style="stroke:black; stroke-linecap:round; stroke-width:0.25;"/>
<line x1="90.000000" y1="52.000000" x2="98.000000" y2="52.000000"  style="stroke:black; stroke-linecap:round; stroke-width:0.25;"/>
<line x1="90.000000" y1="55.920000" x2="90.000000" y2="52.000000"  style="stroke:black; stroke-linecap:round; stroke-width:0.25;"/>
<line x1="90.000000" y1="72.000000" x2="90.000000" y2="76.000000"  style="stroke:black; stroke-linecap:round; stroke-width:0.25;"/>
<line x1="90.000000" y1="76.000000" x2="98.000000" y2="76.000000"  style="stroke:black; stroke-linecap:round; stroke-width:0.25;"/>
<line x1="98.000000" y1="28.000000" x2="102.000000" y2="28.000000"  style="stroke:black; stroke-linecap:round; stroke-width:0.25;"/>
<line x1="98.000000" y1="36.000000" x2="102.000000" y2="36.000000"  style="stroke:black; stroke-linecap:round; stroke-width:0.25;"/>
<line x1="98.000000" y1="44.000000" x2="102.000000" y2="44.000000"  style="stroke:black; stroke-linecap:round; stroke-width:0.25;"/>
<line x1="98.000000" y1="52.000000" x2="102.000000" y2="52.000000"  style="stroke:black; stroke-linecap:round; stroke-width:0.25;"/>
<line x1="98.000000" y1="64.000000" x2="98.000000" y2="68.000000"  style="stroke:black; stroke-linecap:round; stroke-width:0.25;"/>
<line x1="98.000000" y1="68.000000" x2="98.000000" y2="68.000000"  style="stroke:black; stroke-linecap:round; stroke-width:0.25;"/>
<line x1="98.000000" y1="68.000000" x2="102.000000" y2="68.000000"  style="stroke:black; stroke-linecap:round; stroke-width:0.25;"/>
<line x1="98.000000" y1="76.000000" x2="102.000000" y2="76.000000"  style="stroke:black; stroke-linecap:round; stroke-width:0.25;"/>
<line x1="98.000000" y1="84.000000" x2="102.000000" y2="84.000000"  style="stroke:black; stroke-linecap:round; stroke-width:0.25;"/>
<line x1="98.000000" y1="92.000000" x2="102.000000" y2="92.000000"  style="stroke:black; stroke-linecap:round; stroke-width:0.25;"/>
<line x1="166.500000" y1="32.000000" x2="170.500000" y2="32.000000"  style="stroke:black; stroke-linecap:round; stroke-width:0.25;"/>
<line x1="166.500000" y1="40.000000" x2="170.500000" y2="40.000000"  style="stroke:black; stroke-linecap:round; stroke-width:0.25;"/>
<line x1="166.500000" y1="48.000000" x2="170.500000" y2="48.000000"  style="stroke:black; stroke-linecap:round; stroke-width:0.25;"/>
<line x1="166.500000" y1="72.000000" x2="170.500000" y2="72.000000"  style="stroke:black; stroke-linecap:round; stroke-width:0.25;"/>
<line x1="166.500000" y1="80.000000" x2="170.500000" y2="80.000000"  style="stroke:black; stroke-linecap:round; stroke-width:0.25;"/>
<line x1="166.500000" y1="88.000000" x2="170.500000" y2="88.000000"  style="stroke:black; stroke-linecap:round; stroke-width:0.25;"/>
<line x1="170.500000" y1="32.000000" x2="194.500000" y2="32.000000"  style="stroke:black; stroke-linecap:round; stroke-width:0.25;"/>
<line x1="170.500000" y1="40.000000" x2="186.500000" y2="40.000000"  style="stroke:black; stroke-linecap:round; stroke-width:0.25;"/>
<line x1="170.500000" y1="48.000000" x2="178.500000" y2="48.000000"  style="stroke:black; stroke-linecap:round; stroke-width:0.25;"/>
<line x1="170.500000" y1="64.000000" x2="194.500000" y2="64.000000"  style="stroke:black; stroke-linecap:round; stroke-width:0.25;"/>
<line x1="170.500000" y1="72.000000" x2="170.500000" y2="64.000000"  style="stroke:black; stroke-linecap:round; stroke-width:0.25;"/>
<line x1="170.500000" y1="72.000000" x2="170.500000" y2="72.000000"  style="stroke:black; stroke-linecap:round; stroke-width:0.25;"/>
<line x1="170.500000" y1="80.000000" x2="178.500000" y2="80.000000"  style="stroke:black; stroke-linecap:round; stroke-width:0.25;"/>
<line x1="170.500000" y1="88.000000" x2="186.500000" y2="88.000000"  style="stroke:black; stroke-linecap:round; stroke-width:0.25;"/>
<line x1="178.500000" y1="48.000000" x2="178.500000" y2="56.000000"  style="stroke:black; stroke-linecap:round; stroke-width:0.25;"/>
<line x1="178.500000" y1="56.000000" x2="194.500000" y2="56.000000"  style="stroke:black; stroke-linecap:round; stroke-width:0.25;"/>
<line x1="178.500000" y1="72.000000" x2="194.500000" y2="72.000000"  style="stroke:black; stroke-linecap:round; stroke-width:0.25;"/>
<line x1="178.500000" y1="80.000000" x2="178.500000" y2="72.000000"  style="stroke:black; stroke-linecap:round; stroke-width:0.25;"/>
<line x1="186.500000" y1="40.000000" x2="186.500000" y2="48.000000"  style="stroke:black; stroke-linecap:round; stroke-width:0.25;"/>
<line x1="186.500000" y1="48.000000" x2="194.500000" y2="48.000000"  style="stroke:black; stroke-linecap:round; stroke-width:0.25;"/>
<line x1="186.500000" y1="80.000000" x2="194.500000" y2="80.000000"  style="stroke:black; stroke-linecap:round; stroke-width:0.25;"/>
<line x1="186.500000" y1="88.000000" x2="186.500000" y2="80.000000"  style="stroke:black; stroke-linecap:round; stroke-width:0.25;"/>
<line x1="194.500000" y1="32.000000" x2="194.500000" y2="40.000000"  style="stroke:black; stroke-linecap:round; stroke-width:0.25;"/>
<line x1="194.500000" y1="40.000000" x2="194.500000" y2="40.000000"  style="stroke:black; stroke-linecap:round; stroke-width:0.25;"/>
<line x1="194.500000" y1="40.000000" x2="198.500000" y2="40.000000"  style="stroke:black; stroke-linecap:round; stroke-width:0.25;"/>
<line x1="194.500000" y1="48.000000" x2="198.500000" y2="48.000000"  style="stroke:black; stroke-linecap:round; stroke-width:0.25;"/>
<line x1="194.500000" y1="56.000000" x2="198.500000" y2="56.000000"  style="stroke:black; stroke-linecap:round; stroke-width:0.25;"/>
<line x1="194.500000" y1="64.000000" x2="198.500000" y2="64.000000"  style="stroke:black; stroke-linecap:round; stroke-width:0.25;"/>
<line x1="194.500000" y1="72.000000" x2="198.500000" y2="72.000000"  style="stroke:black; stroke-linecap:round; stroke-width:0.25;"/>
<line x1="194.500000" y1="80.000000" x2="198.500000" y2="80.000000"  style="stroke:black; stroke-linecap:round; stroke-width:0.25;"/>
<line x1="198.500000" y1="40.000000" x2="202.500000" y2="40.000000"  style="stroke:black; stroke-linecap:round; stroke-width:0.25;"/>
<line x1="198.500000" y1="48.000000" x2="202.500000" y2="48.000000"  style="stroke:black; stroke-linecap:round; stroke-width:0.25;"/>
<line x1="198.500000" y1="56.000000" x2="202.500000" y2="56.000000"  style="stroke:black; stroke-linecap:round; stroke-width:0.25;"/>
<line x1="198.500000" y1="64.000000" x2="202.500000" y2="64.000000"  style="stroke:black; stroke-linecap:round; stroke-width:0.25;"/>
<line x1="198.500000" y1="72.000000" x2="202.500000" y2="72.000000"  style="stroke:black; stroke-linecap:round; stroke-width:0.25;"/>
<line x1="198.500000" y1="80.000000" x2="202.500000" y2="80.000000"  style="stroke:black; stroke-linecap:round; stroke-width:0.25;"/>
<line x1="202.500000" y1="40.000000" x2="227.100000" y2="38.800000"  style="stroke:black; stroke-linecap:round; stroke-width:0.25;"/>
<line x1="202.500000" y1="48.000000" x2="227.100000" y2="55.680000"  style="stroke:black; stroke-linecap:round; stroke-width:0.25;"/>
<line x1="202.500000" y1="56.000000" x2="227.100000" y2="72.560000"  style="stroke:black; stroke-linecap:round; stroke-width:0.25;"/>
<line x1="202.500000" y1="64.000000" x2="227.100000" y2="47.440000"  style="stroke:black; stroke-linecap:round; stroke-width:0.25;"/>
<line x1="202.500000" y1="72.000000" x2="227.100000" y2="64.320000"  style="stroke:black; stroke-linecap:round; stroke-width:0.25;"/>
<line x1="202.500000" y1="80.000000" x2="227.100000" y2="81.200000"  style="stroke:black; stroke-linecap:round; stroke-width:0.25;"/>
<line x1="227.100000" y1="38.800000" x2="231.100000" y2="38.800000"  style="stroke:black; stroke-linecap:round; stroke-width:0.25;"/>
<line x1="227.100000" y1="47.440000" x2="231.100000" y2="47.440000"  style="stroke:black; stroke-linecap:round; stroke-width:0.25;"/>
<line x1="227.100000" y1="55.680000" x2="231.100000" y2="55.680000"  style="stroke:black; stroke-linecap:round; stroke-width:0.25;"/>
<line x1="227.100000" y1="64.320000" x2="231.100000" y2="64.320000"  style="stroke:black; stroke-linecap:round; stroke-width:0.25;"/>
<line x1="227.100000" y1="72.560000" x2="231.100000" y2="72.560000"  style="stroke:black; stroke-linecap:round; stroke-width:0.25;"/>
<line x1="227.100000" y1="81.200000" x2="231.100000" y2="81.200000"  style="stroke:black; stroke-linecap:round; stroke-width:0.25;"/>
<line x1="231.100000" y1="38.800000" x2="235.100000" y2="38.800000"  style="stroke:black; stroke-linecap:round; stroke-width:0.25;"/>
<line x1="231.100000" y1="47.440000" x2="235.100000" y2="47.440000"  style="stroke:black; stroke-linecap:round; stroke-width:0.25;"/>
<line x1="231.100000" y1="55.680000" x2="235.100000" y2="55.680000"  style="stroke:black; stroke-linecap:round; stroke-width:0.25;"/>
<line x1="231.100000" y1="64.320000" x2="235.100000" y2="64.320000"  style="stroke:black; stroke-linecap:round; stroke-width:0.25;"/>
<line x1="231.100000" y1="72.560000" x2="235.100000" y2="72.560000"  style="stroke:black; stroke-linecap:round; stroke-width:0.25;"/>
<line x1="231.100000" y1="81.200000" x2="235.100000" y2="81.200000"  style="stroke:black; stroke-linecap:round; stroke-width:0.25;"/>
<line x1="235.100000" y1="38.800000" x2="259.100000" y2="38.800000"  style="stroke:black; stroke-linecap:round; stroke-width:0.25;"/>
<line x1="235.100000" y1="47.440000" x2="251.100000" y2="47.440000"  style="stroke:black; stroke-linecap:round; stroke-width:0.25;"/>
<line x1="235.100000" y1="55.680000" x2="243.100000" y2="55.680000"  style="stroke:black; stroke-linecap:round; stroke-width:0.25;"/>
<line x1="235.100000" y1="64.000000" x2="259.100000" y2="64.000000"  style="stroke:black; stroke-linecap:round; stroke-width:0.25;"/>
<line x1="235.100000" y1="64.320000" x2="235.100000" y2="64.000000"  style="stroke:black; stroke-linecap:round; stroke-width:0.25;"/>
<line x1="235.100000" y1="64.320000" x2="235.100000" y2="64.320000"  style="stroke:black; stroke-linecap:round; stroke-width:0.25;"/>
<line x1="235.100000" y1="72.560000" x2="243.100000" y2="72.560000"  style="stroke:black; stroke-linecap:round; stroke-width:0.25;"/>
<line x1="235.100000" y1="81.200000" x2="251.100000" y2="81.200000"  style="stroke:black; stroke-linecap:round; stroke-width:0.25;"/>
<line x1="243.100000" y1="55.680000" x2="243.100000" y2="56.000000"  style="stroke:black; stroke-linecap:round; stroke-width:0.25;"/>
<line x1="243.100000" y1="56.000000" x2="259.100000" y2="56.000000"  style="stroke:black; stroke-linecap:round; stroke-width:0.25;"/>
<line x1="243.100000" y1="72.000000" x2="259.100000" y2="72.000000"  style="stroke:black; stroke-linecap:round; stroke-width:0.25;"/>
<line x1="243.100000" y1="72.560000" x2="243.100000" y2="72.000000"  style="stroke:black; stroke-linecap:round; stroke-width:0.25;"/>
<line x1="251.100000" y1="47.440000" x2="251.100000" y2="48.000000"  style="stroke:black; stroke-linecap:round; stroke-width:0.25;"/>
<line x1="251.100000" y1="48.000000" x2="259.100000" y2="48.000000"  style="stroke:black; stroke-linecap:round; stroke-width:0.25;"/>
<line x1="251.100000" y1="80.000000" x2="259.100000" y2="80.000000"  style="stroke:black; stroke-linecap:round; stroke-width:0.25;"/>
<line x1="251.100000" y1="81.200000" x2="251.100000" y2="80.000000"  style="stroke:black; stroke-linecap:round; stroke-width:0.25;"/>
<line x1="259.100000" y1="38.800000" x2="259.100000" y2="40.000000"  style="stroke:black; stroke-linecap:round; stroke-width:0.25;"/>
<line x1="259.100000" y1="40.000000" x2="259.100000" y2="40.000000"  style="stroke:black; stroke-linecap:round; stroke-width:0.25;"/>
<line x1="259.100000" y1="40.000000" x2="263.100000" y2="40.000000"  style="stroke:black; stroke-linecap:round; stroke-width:0.25;"/>
<line x1="259.100000" y1="48.000000" x2="263.100000" y2="48.000000"  style="stroke:black; stroke-linecap:round; stroke-width:0.25;"/>
<line x1="259.100000" y1="56.000000" x2="263.100000" y2="56.000000"  style="stroke:black; stroke-linecap:round; stroke-width:0.25;"/>
<line x1="259.100000" y1="64.000000" x2="263.100000" y2="64.000000"  style="stroke:black; stroke-linecap:round; stroke-width:0.25;"/>
<line x1="259.100000" y1="72.000000" x2="263.100000" y2="72.000000"  style="stroke:black; stroke-linecap:round; stroke-width:0.25;"/>
<line x1="259.100000" y1="80.000000" x2="263.100000" y2="80.000000"  style="stroke:black; stroke-linecap:round; stroke-width:0.25;"/>
<line x1="263.100000" y1="40.000000" x2="267.100000" y2="40.000000"  style="stroke:black; stroke-linecap:round; stroke-width:0.25;"/>
<line x1="263.100000" y1="48.000000" x2="267.100000" y2="48.000000"  style="stroke:black; stroke-linecap:round; stroke-width:0.25;"/>
<line x1="263.100000" y1="56.000000" x2="267.100000" y2="56.000000"  style="stroke:black; stroke-linecap:round; stroke-width:0.25;"/>
<line x1="263.100000" y1="64.000000" x2="267.100000" y2="64.000000"  style="stroke:black; stroke-linecap:round; stroke-width:0.25;"/>
<line x1="263.100000" y1="72.000000" x2="267.100000" y2="72.000000"  style="stroke:black; stroke-linecap:round; stroke-width:0.25;"/>
<line x1="263.100000" y1="80.000000" x2="267.100000" y2="80.000000"  style="stroke:black; stroke-linecap:round; stroke-width:0.25;"/>
<line x1="267.100000" y1="40.000000" x2="277.100000" y2="40.000000"  style="stroke:black; stroke-linecap:round; stroke-width:0.25;"/>
<line x1="267.100000" y1="48.000000" x2="277.100000" y2="48.000000"  style="stroke:black; stroke-linecap:round; stroke-width:0.25;"/>
<line x1="267.100000" y1="56.000000" x2="277.100000" y2="56.000000"  style="stroke:black; stroke-linecap:round; stroke-width:0.25;"/>
<line x1="267.100000" y1="64.000000" x2="277.100000" y2="64.000000"  style="stroke:black; stroke-linecap:round; stroke-width:0.25;"/>
<line x1="267.100000" y1="72.000000" x2="277.100000" y2="72.000000"  style="stroke:black; stroke-linecap:round; stroke-width:0.25;"/>
<line x1="267.100000" y1="80.000000" x2="277.100000" y2="80.000000"  style="stroke:black; stroke-linecap:round; stroke-width:0.25;"/>
</svg>
