<?xml version="1.0"?>
<svg xmlns="http://www.w3.org/2000/svg" xmlns:xlink="http://www.w3.org/1999/xlink" viewBox="0 0 280.500000 220.000000" width="140.250000mm" height="110.000000mm" version="1.1">
<a xlink:href="sawpulseNws-0x2e6d7eb0.svg">
<rect x="1.000000" y="1.000000" width="279.500000" height="219.000000" rx="0" ry="0" style="stroke:none;fill:#cccccc;"/>
<rect x="0.000000" y="0.000000" width="279.500000" height="219.000000" rx="0" ry="0" style="stroke:none;fill:#ffffff;"/>
</a>
<text x="10.000000" y="7.000000" font-family="Arial" font-size="7"></text>
<a xlink:href="vocoderSawPulse-0x29ae69f0.svg">
<rect x="25.000000" y="25.000000" width="64.500000" height="24.000000" rx="0" ry="0" style="stroke:none;fill:#cccccc;"/>
<rect x="24.000000" y="24.000000" width="64.500000" height="24.000000" rx="0" ry="0" style="stroke:none;fill:#003366;"/>
</a>
<a xlink:href="vocoderSawPulse-0x29ae69f0.svg">
<text x="56.250000" y="38.000000" font-family="Arial" font-size="7" text-anchor="middle" fill="#FFFFFF">vocoderSawPulse</text>
</a>
<circle cx="26.000000" cy="26.000000" r="1"/>
<rect x="45.250000" y="57.000000" width="24.000000" height="24.000000" rx="0" ry="0" style="stroke:none;fill:#cccccc;"/>
<rect x="44.250000" y="56.000000" width="24.000000" height="24.000000" rx="0" ry="0" style="stroke:none;fill:#f44800;"/>
<text x="56.250000" y="70.000000" font-family="Arial" font-size="7" text-anchor="middle" fill="#FFFFFF">-1</text>
<circle cx="46.250000" cy="58.000000" r="1"/>
<rect x="105.500000" y="41.000000" width="24.000000" height="24.000000" rx="0" ry="0" style="stroke:none;fill:#cccccc;"/>
<rect x="104.500000" y="40.000000" width="24.000000" height="24.000000" rx="0" ry="0" style="stroke:none;fill:#4B71A1;"/>
<text x="116.500000" y="54.000000" font-family="Arial" font-size="7" text-anchor="middle" fill="#FFFFFF">*</text>
<circle cx="106.500000" cy="42.000000" r="1"/>
<line x1="101.500000" y1="47.000000" x2="104.500000" y2="48.000000"  transform="rotate(0.000000,104.500000,48.000000)" style="stroke: black; stroke-width:0.25;"/>
<line x1="101.500000" y1="49.000000" x2="104.500000" y2="48.000000"  transform="rotate(0.000000,104.500000,48.000000)" style="stroke: black; stroke-width:0.25;"/>
<line x1="101.500000" y1="55.000000" x2="104.500000" y2="56.000000"  transform="rotate(0.000000,104.500000,56.000000)" style="stroke: black; stroke-width:0.25;"/>
<line x1="101.500000" y1="57.000000" x2="104.500000" y2="56.000000"  transform="rotate(0.000000,104.500000,56.000000)" style="stroke: black; stroke-width:0.25;"/>
<rect x="65.250000" y="99.000000" width="24.000000" height="24.000000" rx="0" ry="0" style="stroke:none;fill:#cccccc;"/>
<rect x="64.250000" y="98.000000" width="24.000000" height="24.000000" rx="0" ry="0" style="stroke:none;fill:#f44800;"/>
<text x="76.250000" y="112.000000" font-family="Arial" font-size="7" text-anchor="middle" fill="#FFFFFF">1</text>
<circle cx="66.250000" cy="100.000000" r="1"/>
<line x1="55.250000" y1="89.000000" x2="55.250000" y2="131.000000"  style="stroke: black; stroke-linecap:round; stroke-width:0.25; stroke-dasharray:3,3;"/>
<line x1="55.250000" y1="131.000000" x2="97.250000" y2="131.000000"  style="stroke: black; stroke-linecap:round; stroke-width:0.25; stroke-dasharray:3,3;"/>
<line x1="97.250000" y1="131.000000" x2="97.250000" y2="89.000000"  style="stroke: black; stroke-linecap:round; stroke-width:0.25; stroke-dasharray:3,3;"/>
<line x1="55.250000" y1="89.000000" x2="60.250000" y2="89.000000"  style="stroke: black; stroke-linecap:round; stroke-width:0.25; stroke-dasharray:3,3;"/>
<line x1="73.150000" y1="89.000000" x2="97.250000" y2="89.000000"  style="stroke: black; stroke-linecap:round; stroke-width:0.25; stroke-dasharray:3,3;"/>
<text x="60.250000" y="91.000000" font-family="Arial" font-size="7">a0</text>
<rect x="145.500000" y="67.000000" width="24.000000" height="24.000000" rx="0" ry="0" style="stroke:none;fill:#cccccc;"/>
<rect x="144.500000" y="66.000000" width="24.000000" height="24.000000" rx="0" ry="0" style="stroke:none;fill:#4B71A1;"/>
<text x="156.500000" y="80.000000" font-family="Arial" font-size="7" text-anchor="middle" fill="#FFFFFF">+</text>
<circle cx="146.500000" cy="68.000000" r="1"/>
<line x1="141.500000" y1="73.000000" x2="144.500000" y2="74.000000"  transform="rotate(0.000000,144.500000,74.000000)" style="stroke: black; stroke-width:0.25;"/>
<line x1="141.500000" y1="75.000000" x2="144.500000" y2="74.000000"  transform="rotate(0.000000,144.500000,74.000000)" style="stroke: black; stroke-width:0.25;"/>
<line x1="141.500000" y1="81.000000" x2="144.500000" y2="82.000000"  transform="rotate(0.000000,144.500000,82.000000)" style="stroke: black; stroke-width:0.25;"/>
<line x1="141.500000" y1="83.000000" x2="144.500000" y2="82.000000"  transform="rotate(0.000000,144.500000,82.000000)" style="stroke: black; stroke-width:0.25;"/>
<rect x="85.250000" y="141.000000" width="24.000000" height="24.000000" rx="0" ry="0" style="stroke:none;fill:#cccccc;"/>
<rect x="84.250000" y="140.000000" width="24.000000" height="24.000000" rx="0" ry="0" style="stroke:none;fill:#f44800;"/>
<text x="96.250000" y="154.000000" font-family="Arial" font-size="7" text-anchor="middle" fill="#FFFFFF">0.2</text>
<circle cx="86.250000" cy="142.000000" r="1"/>
<rect x="185.500000" y="83.000000" width="24.000000" height="24.000000" rx="0" ry="0" style="stroke:none;fill:#cccccc;"/>
<rect x="184.500000" y="82.000000" width="24.000000" height="24.000000" rx="0" ry="0" style="stroke:none;fill:#4B71A1;"/>
<text x="196.500000" y="96.000000" font-family="Arial" font-size="7" text-anchor="middle" fill="#FFFFFF">*</text>
<circle cx="186.500000" cy="84.000000" r="1"/>
<line x1="181.500000" y1="89.000000" x2="184.500000" y2="90.000000"  transform="rotate(0.000000,184.500000,90.000000)" style="stroke: black; stroke-width:0.25;"/>
<line x1="181.500000" y1="91.000000" x2="184.500000" y2="90.000000"  transform="rotate(0.000000,184.500000,90.000000)" style="stroke: black; stroke-width:0.25;"/>
<line x1="181.500000" y1="97.000000" x2="184.500000" y2="98.000000"  transform="rotate(0.000000,184.500000,98.000000)" style="stroke: black; stroke-width:0.25;"/>
<line x1="181.500000" y1="99.000000" x2="184.500000" y2="98.000000"  transform="rotate(0.000000,184.500000,98.000000)" style="stroke: black; stroke-width:0.25;"/>
<rect x="105.250000" y="173.000000" width="24.000000" height="24.000000" rx="0" ry="0" style="stroke:none;fill:#cccccc;"/>
<rect x="104.250000" y="172.000000" width="24.000000" height="24.000000" rx="0" ry="0" style="stroke:none;fill:#f44800;"/>
<text x="116.250000" y="186.000000" font-family="Arial" font-size="7" text-anchor="middle" fill="#FFFFFF">0.8</text>
<circle cx="106.250000" cy="174.000000" r="1"/>
<rect x="225.500000" y="99.000000" width="24.000000" height="24.000000" rx="0" ry="0" style="stroke:none;fill:#cccccc;"/>
<rect x="224.500000" y="98.000000" width="24.000000" height="24.000000" rx="0" ry="0" style="stroke:none;fill:#4B71A1;"/>
<text x="236.500000" y="112.000000" font-family="Arial" font-size="7" text-anchor="middle" fill="#FFFFFF">+</text>
<circle cx="226.500000" cy="100.000000" r="1"/>
<line x1="221.500000" y1="105.000000" x2="224.500000" y2="106.000000"  transform="rotate(0.000000,224.500000,106.000000)" style="stroke: black; stroke-width:0.25;"/>
<line x1="221.500000" y1="107.000000" x2="224.500000" y2="106.000000"  transform="rotate(0.000000,224.500000,106.000000)" style="stroke: black; stroke-width:0.25;"/>
<line x1="221.500000" y1="113.000000" x2="224.500000" y2="114.000000"  transform="rotate(0.000000,224.500000,114.000000)" style="stroke: black; stroke-width:0.25;"/>
<line x1="221.500000" y1="115.000000" x2="224.500000" y2="114.000000"  transform="rotate(0.000000,224.500000,114.000000)" style="stroke: black; stroke-width:0.25;"/>
<line x1="15.000000" y1="15.000000" x2="15.000000" y2="205.000000"  style="stroke: black; stroke-linecap:round; stroke-width:0.25; stroke-dasharray:3,3;"/>
<line x1="15.000000" y1="205.000000" x2="265.500000" y2="205.000000"  style="stroke: black; stroke-linecap:round; stroke-width:0.25; stroke-dasharray:3,3;"/>
<line x1="265.500000" y1="205.000000" x2="265.500000" y2="15.000000"  style="stroke: black; stroke-linecap:round; stroke-width:0.25; stroke-dasharray:3,3;"/>
<line x1="15.000000" y1="15.000000" x2="20.000000" y2="15.000000"  style="stroke: black; stroke-linecap:round; stroke-width:0.25; stroke-dasharray:3,3;"/>
<line x1="58.700000" y1="15.000000" x2="265.500000" y2="15.000000"  style="stroke: black; stroke-linecap:round; stroke-width:0.25; stroke-dasharray:3,3;"/>
<text x="20.000000" y="17.000000" font-family="Arial" font-size="7">compensate</text>
<line x1="267.500000" y1="109.000000" x2="270.500000" y2="110.000000"  transform="rotate(0.000000,270.500000,110.000000)" style="stroke: black; stroke-width:0.25;"/>
<line x1="267.500000" y1="111.000000" x2="270.500000" y2="110.000000"  transform="rotate(0.000000,270.500000,110.000000)" style="stroke: black; stroke-width:0.25;"/>
<line x1="68.250000" y1="68.000000" x2="72.250000" y2="68.000000"  style="stroke:black; stroke-linecap:round; stroke-width:0.25;"/>
<line x1="72.250000" y1="68.000000" x2="92.500000" y2="68.000000"  style="stroke:black; stroke-linecap:round; stroke-width:0.25;"/>
<line x1="88.250000" y1="110.000000" x2="92.250000" y2="110.000000"  style="stroke:black; stroke-linecap:round; stroke-width:0.25;"/>
<line x1="88.500000" y1="36.000000" x2="92.500000" y2="36.000000"  style="stroke:black; stroke-linecap:round; stroke-width:0.25;"/>
<line x1="92.250000" y1="110.000000" x2="102.250000" y2="110.000000"  style="stroke:black; stroke-linecap:round; stroke-width:0.25;"/>
<line x1="92.500000" y1="36.000000" x2="100.500000" y2="36.000000"  style="stroke:black; stroke-linecap:round; stroke-width:0.25;"/>
<line x1="92.500000" y1="56.000000" x2="100.500000" y2="56.000000"  style="stroke:black; stroke-linecap:round; stroke-width:0.25;"/>
<line x1="92.500000" y1="68.000000" x2="92.500000" y2="56.000000"  style="stroke:black; stroke-linecap:round; stroke-width:0.25;"/>
<line x1="92.500000" y1="68.000000" x2="92.500000" y2="68.000000"  style="stroke:black; stroke-linecap:round; stroke-width:0.25;"/>
<line x1="100.500000" y1="36.000000" x2="100.500000" y2="48.000000"  style="stroke:black; stroke-linecap:round; stroke-width:0.25;"/>
<line x1="100.500000" y1="48.000000" x2="100.500000" y2="48.000000"  style="stroke:black; stroke-linecap:round; stroke-width:0.25;"/>
<line x1="100.500000" y1="48.000000" x2="104.500000" y2="48.000000"  style="stroke:black; stroke-linecap:round; stroke-width:0.25;"/>
<line x1="100.500000" y1="56.000000" x2="104.500000" y2="56.000000"  style="stroke:black; stroke-linecap:round; stroke-width:0.25;"/>
<line x1="102.250000" y1="110.000000" x2="132.500000" y2="110.000000"  style="stroke:black; stroke-linecap:round; stroke-width:0.25;"/>
<line x1="108.250000" y1="152.000000" x2="112.250000" y2="152.000000"  style="stroke:black; stroke-linecap:round; stroke-width:0.25;"/>
<line x1="112.250000" y1="152.000000" x2="172.500000" y2="152.000000"  style="stroke:black; stroke-linecap:round; stroke-width:0.25;"/>
<line x1="128.250000" y1="184.000000" x2="132.250000" y2="184.000000"  style="stroke:black; stroke-linecap:round; stroke-width:0.25;"/>
<line x1="128.500000" y1="52.000000" x2="132.500000" y2="52.000000"  style="stroke:black; stroke-linecap:round; stroke-width:0.25;"/>
<line x1="132.250000" y1="184.000000" x2="212.500000" y2="184.000000"  style="stroke:black; stroke-linecap:round; stroke-width:0.25;"/>
<line x1="132.500000" y1="52.000000" x2="140.500000" y2="52.000000"  style="stroke:black; stroke-linecap:round; stroke-width:0.25;"/>
<line x1="132.500000" y1="82.000000" x2="140.500000" y2="82.000000"  style="stroke:black; stroke-linecap:round; stroke-width:0.25;"/>
<line x1="132.500000" y1="110.000000" x2="132.500000" y2="82.000000"  style="stroke:black; stroke-linecap:round; stroke-width:0.25;"/>
<line x1="132.500000" y1="110.000000" x2="132.500000" y2="110.000000"  style="stroke:black; stroke-linecap:round; stroke-width:0.25;"/>
<line x1="140.500000" y1="52.000000" x2="140.500000" y2="74.000000"  style="stroke:black; stroke-linecap:round; stroke-width:0.25;"/>
<line x1="140.500000" y1="74.000000" x2="140.500000" y2="74.000000"  style="stroke:black; stroke-linecap:round; stroke-width:0.25;"/>
<line x1="140.500000" y1="74.000000" x2="144.500000" y2="74.000000"  style="stroke:black; stroke-linecap:round; stroke-width:0.25;"/>
<line x1="140.500000" y1="82.000000" x2="144.500000" y2="82.000000"  style="stroke:black; stroke-linecap:round; stroke-width:0.25;"/>
<line x1="168.500000" y1="78.000000" x2="172.500000" y2="78.000000"  style="stroke:black; stroke-linecap:round; stroke-width:0.25;"/>
<line x1="172.500000" y1="78.000000" x2="180.500000" y2="78.000000"  style="stroke:black; stroke-linecap:round; stroke-width:0.25;"/>
<line x1="172.500000" y1="98.000000" x2="180.500000" y2="98.000000"  style="stroke:black; stroke-linecap:round; stroke-width:0.25;"/>
<line x1="172.500000" y1="152.000000" x2="172.500000" y2="98.000000"  style="stroke:black; stroke-linecap:round; stroke-width:0.25;"/>
<line x1="172.500000" y1="152.000000" x2="172.500000" y2="152.000000"  style="stroke:black; stroke-linecap:round; stroke-width:0.25;"/>
<line x1="180.500000" y1="78.000000" x2="180.500000" y2="90.000000"  style="stroke:black; stroke-linecap:round; stroke-width:0.25;"/>
<line x1="180.500000" y1="90.000000" x2="180.500000" y2="90.000000"  style="stroke:black; stroke-linecap:round; stroke-width:0.25;"/>
<line x1="180.500000" y1="90.000000" x2="184.500000" y2="90.000000"  style="stroke:black; stroke-linecap:round; stroke-width:0.25;"/>
<line x1="180.500000" y1="98.000000" x2="184.500000" y2="98.000000"  style="stroke:black; stroke-linecap:round; stroke-width:0.25;"/>
<line x1="208.500000" y1="94.000000" x2="212.500000" y2="94.000000"  style="stroke:black; stroke-linecap:round; stroke-width:0.25;"/>
<line x1="212.500000" y1="94.000000" x2="220.500000" y2="94.000000"  style="stroke:black; stroke-linecap:round; stroke-width:0.25;"/>
<line x1="212.500000" y1="114.000000" x2="220.500000" y2="114.000000"  style="stroke:black; stroke-linecap:round; stroke-width:0.25;"/>
<line x1="212.500000" y1="184.000000" x2="212.500000" y2="114.000000"  style="stroke:black; stroke-linecap:round; stroke-width:0.25;"/>
<line x1="212.500000" y1="184.000000" x2="212.500000" y2="184.000000"  style="stroke:black; stroke-linecap:round; stroke-width:0.25;"/>
<line x1="220.500000" y1="94.000000" x2="220.500000" y2="106.000000"  style="stroke:black; stroke-linecap:round; stroke-width:0.25;"/>
<line x1="220.500000" y1="106.000000" x2="220.500000" y2="106.000000"  style="stroke:black; stroke-linecap:round; stroke-width:0.25;"/>
<line x1="220.500000" y1="106.000000" x2="224.500000" y2="106.000000"  style="stroke:black; stroke-linecap:round; stroke-width:0.25;"/>
<line x1="220.500000" y1="114.000000" x2="224.500000" y2="114.000000"  style="stroke:black; stroke-linecap:round; stroke-width:0.25;"/>
<line x1="248.500000" y1="110.000000" x2="252.500000" y2="110.000000"  style="stroke:black; stroke-linecap:round; stroke-width:0.25;"/>
<line x1="252.500000" y1="110.000000" x2="252.500000" y2="110.000000"  style="stroke:black; stroke-linecap:round; stroke-width:0.25;"/>
<line x1="252.500000" y1="110.000000" x2="256.500000" y2="110.000000"  style="stroke:black; stroke-linecap:round; stroke-width:0.25;"/>
<line x1="256.500000" y1="110.000000" x2="260.500000" y2="110.000000"  style="stroke:black; stroke-linecap:round; stroke-width:0.25;"/>
<line x1="260.500000" y1="110.000000" x2="270.500000" y2="110.000000"  style="stroke:black; stroke-linecap:round; stroke-width:0.25;"/>
</svg>
