<?xml version="1.0"?>
<svg xmlns="http://www.w3.org/2000/svg" xmlns:xlink="http://www.w3.org/1999/xlink" viewBox="0 0 303.600000 152.000000" width="151.800000mm" height="76.000000mm" version="1.1">
<a xlink:href="rA-0xa9d8ca0.svg">
<rect x="1.000000" y="1.000000" width="302.600000" height="151.000000" rx="0" ry="0" style="stroke:none;fill:#cccccc;"/>
<rect x="0.000000" y="0.000000" width="302.600000" height="151.000000" rx="0" ry="0" style="stroke:none;fill:#ffffff;"/>
</a>
<text x="10.000000" y="7.000000" font-family="Arial" font-size="7"></text>
<a xlink:href="time-0x22179a0.svg">
<rect x="25.000000" y="65.000000" width="25.800000" height="24.000000" rx="0" ry="0" style="stroke:none;fill:#cccccc;"/>
<rect x="24.000000" y="64.000000" width="25.800000" height="24.000000" rx="0" ry="0" style="stroke:none;fill:#003366;"/>
</a>
<a xlink:href="time-0x22179a0.svg">
<text x="36.900000" y="78.000000" font-family="Arial" font-size="7" text-anchor="middle" fill="#FFFFFF">time</text>
</a>
<circle cx="26.000000" cy="66.000000" r="1"/>
<rect x="76.800000" y="35.000000" width="25.800000" height="24.000000" rx="0" ry="0" style="stroke:none;fill:#cccccc;"/>
<rect x="75.800000" y="34.000000" width="25.800000" height="24.000000" rx="0" ry="0" style="stroke:none;fill:#f44800;"/>
<text x="88.700000" y="48.000000" font-family="Arial" font-size="7" text-anchor="middle" fill="#FFFFFF">96000</text>
<circle cx="77.800000" cy="36.000000" r="1"/>
<line x1="66.800000" y1="25.000000" x2="66.800000" y2="67.000000"  style="stroke: black; stroke-linecap:round; stroke-width:0.25; stroke-dasharray:3,3;"/>
<line x1="66.800000" y1="67.000000" x2="110.600000" y2="67.000000"  style="stroke: black; stroke-linecap:round; stroke-width:0.25; stroke-dasharray:3,3;"/>
<line x1="110.600000" y1="67.000000" x2="110.600000" y2="25.000000"  style="stroke: black; stroke-linecap:round; stroke-width:0.25; stroke-dasharray:3,3;"/>
<line x1="66.800000" y1="25.000000" x2="71.800000" y2="25.000000"  style="stroke: black; stroke-linecap:round; stroke-width:0.25; stroke-dasharray:3,3;"/>
<line x1="94.375000" y1="25.000000" x2="110.600000" y2="25.000000"  style="stroke: black; stroke-linecap:round; stroke-width:0.25; stroke-dasharray:3,3;"/>
<text x="71.800000" y="27.000000" font-family="Arial" font-size="7">SRmax</text>
<rect x="77.700000" y="87.000000" width="24.000000" height="24.000000" rx="0" ry="0" style="stroke:none;fill:#cccccc;"/>
<rect x="76.700000" y="86.000000" width="24.000000" height="24.000000" rx="0" ry="0" style="stroke:none;fill:#f44800;"/>
<text x="88.700000" y="100.000000" font-family="Arial" font-size="7" text-anchor="middle" fill="#FFFFFF">4</text>
<circle cx="78.700000" cy="88.000000" r="1"/>
<line x1="67.700000" y1="77.000000" x2="67.700000" y2="119.000000"  style="stroke: black; stroke-linecap:round; stroke-width:0.25; stroke-dasharray:3,3;"/>
<line x1="67.700000" y1="119.000000" x2="109.700000" y2="119.000000"  style="stroke: black; stroke-linecap:round; stroke-width:0.25; stroke-dasharray:3,3;"/>
<line x1="109.700000" y1="119.000000" x2="109.700000" y2="77.000000"  style="stroke: black; stroke-linecap:round; stroke-width:0.25; stroke-dasharray:3,3;"/>
<line x1="67.700000" y1="77.000000" x2="72.700000" y2="77.000000"  style="stroke: black; stroke-linecap:round; stroke-width:0.25; stroke-dasharray:3,3;"/>
<line x1="92.050000" y1="77.000000" x2="109.700000" y2="77.000000"  style="stroke: black; stroke-linecap:round; stroke-width:0.25; stroke-dasharray:3,3;"/>
<text x="72.700000" y="79.000000" font-family="Arial" font-size="7">FAC3</text>
<rect x="128.600000" y="61.000000" width="24.000000" height="24.000000" rx="0" ry="0" style="stroke:none;fill:#cccccc;"/>
<rect x="127.600000" y="60.000000" width="24.000000" height="24.000000" rx="0" ry="0" style="stroke:none;fill:#4B71A1;"/>
<text x="139.600000" y="74.000000" font-family="Arial" font-size="7" text-anchor="middle" fill="#FFFFFF">/</text>
<circle cx="129.600000" cy="62.000000" r="1"/>
<line x1="124.600000" y1="67.000000" x2="127.600000" y2="68.000000"  transform="rotate(0.000000,127.600000,68.000000)" style="stroke: black; stroke-width:0.25;"/>
<line x1="124.600000" y1="69.000000" x2="127.600000" y2="68.000000"  transform="rotate(0.000000,127.600000,68.000000)" style="stroke: black; stroke-width:0.25;"/>
<line x1="124.600000" y1="75.000000" x2="127.600000" y2="76.000000"  transform="rotate(0.000000,127.600000,76.000000)" style="stroke: black; stroke-width:0.25;"/>
<line x1="124.600000" y1="77.000000" x2="127.600000" y2="76.000000"  transform="rotate(0.000000,127.600000,76.000000)" style="stroke: black; stroke-width:0.25;"/>
<rect x="168.600000" y="65.000000" width="24.000000" height="24.000000" rx="0" ry="0" style="stroke:none;fill:#cccccc;"/>
<rect x="167.600000" y="64.000000" width="24.000000" height="24.000000" rx="0" ry="0" style="stroke:none;fill:#4B71A1;"/>
<text x="179.600000" y="78.000000" font-family="Arial" font-size="7" text-anchor="middle" fill="#FFFFFF">min</text>
<circle cx="169.600000" cy="66.000000" r="1"/>
<line x1="164.600000" y1="71.000000" x2="167.600000" y2="72.000000"  transform="rotate(0.000000,167.600000,72.000000)" style="stroke: black; stroke-width:0.25;"/>
<line x1="164.600000" y1="73.000000" x2="167.600000" y2="72.000000"  transform="rotate(0.000000,167.600000,72.000000)" style="stroke: black; stroke-width:0.25;"/>
<line x1="164.600000" y1="79.000000" x2="167.600000" y2="80.000000"  transform="rotate(0.000000,167.600000,80.000000)" style="stroke: black; stroke-width:0.25;"/>
<line x1="164.600000" y1="81.000000" x2="167.600000" y2="80.000000"  transform="rotate(0.000000,167.600000,80.000000)" style="stroke: black; stroke-width:0.25;"/>
<rect x="208.600000" y="61.000000" width="24.000000" height="24.000000" rx="0" ry="0" style="stroke:none;fill:#cccccc;"/>
<rect x="207.600000" y="60.000000" width="24.000000" height="24.000000" rx="0" ry="0" style="stroke:none;fill:#f44800;"/>
<text x="219.600000" y="74.000000" font-family="Arial" font-size="7" text-anchor="middle" fill="#FFFFFF">20</text>
<circle cx="209.600000" cy="62.000000" r="1"/>
<rect x="248.600000" y="65.000000" width="24.000000" height="24.000000" rx="0" ry="0" style="stroke:none;fill:#cccccc;"/>
<rect x="247.600000" y="64.000000" width="24.000000" height="24.000000" rx="0" ry="0" style="stroke:none;fill:#4B71A1;"/>
<text x="259.600000" y="78.000000" font-family="Arial" font-size="7" text-anchor="middle" fill="#FFFFFF">max</text>
<circle cx="249.600000" cy="66.000000" r="1"/>
<line x1="244.600000" y1="71.000000" x2="247.600000" y2="72.000000"  transform="rotate(0.000000,247.600000,72.000000)" style="stroke: black; stroke-width:0.25;"/>
<line x1="244.600000" y1="73.000000" x2="247.600000" y2="72.000000"  transform="rotate(0.000000,247.600000,72.000000)" style="stroke: black; stroke-width:0.25;"/>
<line x1="244.600000" y1="79.000000" x2="247.600000" y2="80.000000"  transform="rotate(0.000000,247.600000,80.000000)" style="stroke: black; stroke-width:0.25;"/>
<line x1="244.600000" y1="81.000000" x2="247.600000" y2="80.000000"  transform="rotate(0.000000,247.600000,80.000000)" style="stroke: black; stroke-width:0.25;"/>
<line x1="15.000000" y1="15.000000" x2="15.000000" y2="137.000000"  style="stroke: black; stroke-linecap:round; stroke-width:0.25; stroke-dasharray:3,3;"/>
<line x1="15.000000" y1="137.000000" x2="288.600000" y2="137.000000"  style="stroke: black; stroke-linecap:round; stroke-width:0.25; stroke-dasharray:3,3;"/>
<line x1="288.600000" y1="137.000000" x2="288.600000" y2="15.000000"  style="stroke: black; stroke-linecap:round; stroke-width:0.25; stroke-dasharray:3,3;"/>
<line x1="15.000000" y1="15.000000" x2="20.000000" y2="15.000000"  style="stroke: black; stroke-linecap:round; stroke-width:0.25; stroke-dasharray:3,3;"/>
<line x1="29.675000" y1="15.000000" x2="288.600000" y2="15.000000"  style="stroke: black; stroke-linecap:round; stroke-width:0.25; stroke-dasharray:3,3;"/>
<text x="20.000000" y="17.000000" font-family="Arial" font-size="7">f</text>
<line x1="290.600000" y1="75.000000" x2="293.600000" y2="76.000000"  transform="rotate(0.000000,293.600000,76.000000)" style="stroke: black; stroke-width:0.25;"/>
<line x1="290.600000" y1="77.000000" x2="293.600000" y2="76.000000"  transform="rotate(0.000000,293.600000,76.000000)" style="stroke: black; stroke-width:0.25;"/>
<line x1="49.800000" y1="76.000000" x2="53.800000" y2="76.000000"  style="stroke:black; stroke-linecap:round; stroke-width:0.25;"/>
<line x1="53.800000" y1="76.000000" x2="61.800000" y2="76.000000"  style="stroke:black; stroke-linecap:round; stroke-width:0.25;"/>
<line x1="61.800000" y1="128.000000" x2="108.700000" y2="128.000000"  style="stroke:black; stroke-linecap:round; stroke-width:0.25;"/>
<line x1="61.800000" y1="76.000000" x2="61.800000" y2="128.000000"  style="stroke:black; stroke-linecap:round; stroke-width:0.25;"/>
<line x1="61.800000" y1="128.000000" x2="61.800000" y2="128.000000"  style="stroke:black; stroke-linecap:round; stroke-width:0.25;"/>
<line x1="100.700000" y1="98.000000" x2="104.700000" y2="98.000000"  style="stroke:black; stroke-linecap:round; stroke-width:0.25;"/>
<line x1="101.600000" y1="46.000000" x2="105.600000" y2="46.000000"  style="stroke:black; stroke-linecap:round; stroke-width:0.25;"/>
<line x1="104.700000" y1="98.000000" x2="114.700000" y2="98.000000"  style="stroke:black; stroke-linecap:round; stroke-width:0.25;"/>
<line x1="105.600000" y1="46.000000" x2="115.600000" y2="46.000000"  style="stroke:black; stroke-linecap:round; stroke-width:0.25;"/>
<line x1="108.700000" y1="128.000000" x2="155.600000" y2="128.000000"  style="stroke:black; stroke-linecap:round; stroke-width:0.25;"/>
<line x1="114.700000" y1="98.000000" x2="115.600000" y2="98.000000"  style="stroke:black; stroke-linecap:round; stroke-width:0.25;"/>
<line x1="115.600000" y1="46.000000" x2="123.600000" y2="46.000000"  style="stroke:black; stroke-linecap:round; stroke-width:0.25;"/>
<line x1="115.600000" y1="76.000000" x2="123.600000" y2="76.000000"  style="stroke:black; stroke-linecap:round; stroke-width:0.25;"/>
<line x1="115.600000" y1="98.000000" x2="115.600000" y2="76.000000"  style="stroke:black; stroke-linecap:round; stroke-width:0.25;"/>
<line x1="115.600000" y1="98.000000" x2="115.600000" y2="98.000000"  style="stroke:black; stroke-linecap:round; stroke-width:0.25;"/>
<line x1="123.600000" y1="46.000000" x2="123.600000" y2="68.000000"  style="stroke:black; stroke-linecap:round; stroke-width:0.25;"/>
<line x1="123.600000" y1="68.000000" x2="123.600000" y2="68.000000"  style="stroke:black; stroke-linecap:round; stroke-width:0.25;"/>
<line x1="123.600000" y1="68.000000" x2="127.600000" y2="68.000000"  style="stroke:black; stroke-linecap:round; stroke-width:0.25;"/>
<line x1="123.600000" y1="76.000000" x2="127.600000" y2="76.000000"  style="stroke:black; stroke-linecap:round; stroke-width:0.25;"/>
<line x1="151.600000" y1="72.000000" x2="155.600000" y2="72.000000"  style="stroke:black; stroke-linecap:round; stroke-width:0.25;"/>
<line x1="155.600000" y1="72.000000" x2="163.600000" y2="72.000000"  style="stroke:black; stroke-linecap:round; stroke-width:0.25;"/>
<line x1="155.600000" y1="80.000000" x2="163.600000" y2="80.000000"  style="stroke:black; stroke-linecap:round; stroke-width:0.25;"/>
<line x1="155.600000" y1="128.000000" x2="155.600000" y2="80.000000"  style="stroke:black; stroke-linecap:round; stroke-width:0.25;"/>
<line x1="155.600000" y1="128.000000" x2="155.600000" y2="128.000000"  style="stroke:black; stroke-linecap:round; stroke-width:0.25;"/>
<line x1="163.600000" y1="72.000000" x2="167.600000" y2="72.000000"  style="stroke:black; stroke-linecap:round; stroke-width:0.25;"/>
<line x1="163.600000" y1="80.000000" x2="167.600000" y2="80.000000"  style="stroke:black; stroke-linecap:round; stroke-width:0.25;"/>
<line x1="191.600000" y1="76.000000" x2="195.600000" y2="76.000000"  style="stroke:black; stroke-linecap:round; stroke-width:0.25;"/>
<line x1="195.600000" y1="76.000000" x2="203.600000" y2="76.000000"  style="stroke:black; stroke-linecap:round; stroke-width:0.25;"/>
<line x1="203.600000" y1="76.000000" x2="203.600000" y2="92.000000"  style="stroke:black; stroke-linecap:round; stroke-width:0.25;"/>
<line x1="203.600000" y1="92.000000" x2="203.600000" y2="92.000000"  style="stroke:black; stroke-linecap:round; stroke-width:0.25;"/>
<line x1="203.600000" y1="92.000000" x2="219.600000" y2="92.000000"  style="stroke:black; stroke-linecap:round; stroke-width:0.25;"/>
<line x1="219.600000" y1="92.000000" x2="235.600000" y2="92.000000"  style="stroke:black; stroke-linecap:round; stroke-width:0.25;"/>
<line x1="231.600000" y1="72.000000" x2="235.600000" y2="72.000000"  style="stroke:black; stroke-linecap:round; stroke-width:0.25;"/>
<line x1="235.600000" y1="72.000000" x2="243.600000" y2="72.000000"  style="stroke:black; stroke-linecap:round; stroke-width:0.25;"/>
<line x1="235.600000" y1="80.000000" x2="243.600000" y2="80.000000"  style="stroke:black; stroke-linecap:round; stroke-width:0.25;"/>
<line x1="235.600000" y1="92.000000" x2="235.600000" y2="80.000000"  style="stroke:black; stroke-linecap:round; stroke-width:0.25;"/>
<line x1="235.600000" y1="92.000000" x2="235.600000" y2="92.000000"  style="stroke:black; stroke-linecap:round; stroke-width:0.25;"/>
<line x1="243.600000" y1="72.000000" x2="247.600000" y2="72.000000"  style="stroke:black; stroke-linecap:round; stroke-width:0.25;"/>
<line x1="243.600000" y1="80.000000" x2="247.600000" y2="80.000000"  style="stroke:black; stroke-linecap:round; stroke-width:0.25;"/>
<line x1="271.600000" y1="76.000000" x2="275.600000" y2="76.000000"  style="stroke:black; stroke-linecap:round; stroke-width:0.25;"/>
<line x1="275.600000" y1="76.000000" x2="275.600000" y2="76.000000"  style="stroke:black; stroke-linecap:round; stroke-width:0.25;"/>
<line x1="275.600000" y1="76.000000" x2="279.600000" y2="76.000000"  style="stroke:black; stroke-linecap:round; stroke-width:0.25;"/>
<line x1="279.600000" y1="76.000000" x2="283.600000" y2="76.000000"  style="stroke:black; stroke-linecap:round; stroke-width:0.25;"/>
<line x1="283.600000" y1="76.000000" x2="293.600000" y2="76.000000"  style="stroke:black; stroke-linecap:round; stroke-width:0.25;"/>
</svg>
