<?xml version="1.0"?>
<svg xmlns="http://www.w3.org/2000/svg" xmlns:xlink="http://www.w3.org/1999/xlink" viewBox="0 0 416.200000 708.000000" width="208.100000mm" height="354.000000mm" version="1.1">
<a xlink:href="h-0x343cfa60.svg">
<rect x="1.000000" y="1.000000" width="415.200000" height="707.000000" rx="0" ry="0" style="stroke:none;fill:#cccccc;"/>
<rect x="0.000000" y="0.000000" width="415.200000" height="707.000000" rx="0" ry="0" style="stroke:none;fill:#ffffff;"/>
</a>
<text x="10.000000" y="7.000000" font-family="Arial" font-size="7"></text>
<rect x="161.750000" y="35.000000" width="24.000000" height="24.000000" rx="0" ry="0" style="stroke:none;fill:#cccccc;"/>
<rect x="160.750000" y="34.000000" width="24.000000" height="24.000000" rx="0" ry="0" style="stroke:none;fill:#f44800;"/>
<text x="172.750000" y="48.000000" font-family="Arial" font-size="7" text-anchor="middle" fill="#FFFFFF">3</text>
<circle cx="162.750000" cy="36.000000" r="1"/>
<line x1="151.750000" y1="25.000000" x2="151.750000" y2="67.000000"  style="stroke: black; stroke-linecap:round; stroke-width:0.25; stroke-dasharray:3,3;"/>
<line x1="151.750000" y1="67.000000" x2="193.750000" y2="67.000000"  style="stroke: black; stroke-linecap:round; stroke-width:0.25; stroke-dasharray:3,3;"/>
<line x1="193.750000" y1="67.000000" x2="193.750000" y2="25.000000"  style="stroke: black; stroke-linecap:round; stroke-width:0.25; stroke-dasharray:3,3;"/>
<line x1="151.750000" y1="25.000000" x2="156.750000" y2="25.000000"  style="stroke: black; stroke-linecap:round; stroke-width:0.25; stroke-dasharray:3,3;"/>
<line x1="185.775000" y1="25.000000" x2="193.750000" y2="25.000000"  style="stroke: black; stroke-linecap:round; stroke-width:0.25; stroke-dasharray:3,3;"/>
<text x="156.750000" y="27.000000" font-family="Arial" font-size="7">nrSends</text>
<rect x="161.750000" y="87.000000" width="24.000000" height="24.000000" rx="0" ry="0" style="stroke:none;fill:#cccccc;"/>
<rect x="160.750000" y="86.000000" width="24.000000" height="24.000000" rx="0" ry="0" style="stroke:none;fill:#f44800;"/>
<text x="172.750000" y="100.000000" font-family="Arial" font-size="7" text-anchor="middle" fill="#FFFFFF">1</text>
<circle cx="162.750000" cy="88.000000" r="1"/>
<line x1="151.750000" y1="77.000000" x2="151.750000" y2="119.000000"  style="stroke: black; stroke-linecap:round; stroke-width:0.25; stroke-dasharray:3,3;"/>
<line x1="151.750000" y1="119.000000" x2="193.750000" y2="119.000000"  style="stroke: black; stroke-linecap:round; stroke-width:0.25; stroke-dasharray:3,3;"/>
<line x1="193.750000" y1="119.000000" x2="193.750000" y2="77.000000"  style="stroke: black; stroke-linecap:round; stroke-width:0.25; stroke-dasharray:3,3;"/>
<line x1="151.750000" y1="77.000000" x2="156.750000" y2="77.000000"  style="stroke: black; stroke-linecap:round; stroke-width:0.25; stroke-dasharray:3,3;"/>
<line x1="169.650000" y1="77.000000" x2="193.750000" y2="77.000000"  style="stroke: black; stroke-linecap:round; stroke-width:0.25; stroke-dasharray:3,3;"/>
<text x="156.750000" y="79.000000" font-family="Arial" font-size="7">a0</text>
<rect x="70.400000" y="139.000000" width="24.000000" height="24.000000" rx="0" ry="0" style="stroke:none;fill:#cccccc;"/>
<rect x="69.400000" y="138.000000" width="24.000000" height="24.000000" rx="0" ry="0" style="stroke:none;fill:#f44800;"/>
<text x="81.400000" y="152.000000" font-family="Arial" font-size="7" text-anchor="middle" fill="#FFFFFF">0</text>
<circle cx="71.400000" cy="140.000000" r="1"/>
<line x1="60.400000" y1="129.000000" x2="60.400000" y2="171.000000"  style="stroke: black; stroke-linecap:round; stroke-width:0.25; stroke-dasharray:3,3;"/>
<line x1="60.400000" y1="171.000000" x2="102.400000" y2="171.000000"  style="stroke: black; stroke-linecap:round; stroke-width:0.25; stroke-dasharray:3,3;"/>
<line x1="102.400000" y1="171.000000" x2="102.400000" y2="129.000000"  style="stroke: black; stroke-linecap:round; stroke-width:0.25; stroke-dasharray:3,3;"/>
<line x1="60.400000" y1="129.000000" x2="65.400000" y2="129.000000"  style="stroke: black; stroke-linecap:round; stroke-width:0.25; stroke-dasharray:3,3;"/>
<line x1="78.300000" y1="129.000000" x2="102.400000" y2="129.000000"  style="stroke: black; stroke-linecap:round; stroke-width:0.25; stroke-dasharray:3,3;"/>
<text x="65.400000" y="131.000000" font-family="Arial" font-size="7">b2</text>
<rect x="70.400000" y="191.000000" width="24.000000" height="24.000000" rx="0" ry="0" style="stroke:none;fill:#cccccc;"/>
<rect x="69.400000" y="190.000000" width="24.000000" height="24.000000" rx="0" ry="0" style="stroke:none;fill:#f44800;"/>
<text x="81.400000" y="204.000000" font-family="Arial" font-size="7" text-anchor="middle" fill="#FFFFFF">3</text>
<circle cx="71.400000" cy="192.000000" r="1"/>
<line x1="60.400000" y1="181.000000" x2="60.400000" y2="223.000000"  style="stroke: black; stroke-linecap:round; stroke-width:0.25; stroke-dasharray:3,3;"/>
<line x1="60.400000" y1="223.000000" x2="102.400000" y2="223.000000"  style="stroke: black; stroke-linecap:round; stroke-width:0.25; stroke-dasharray:3,3;"/>
<line x1="102.400000" y1="223.000000" x2="102.400000" y2="181.000000"  style="stroke: black; stroke-linecap:round; stroke-width:0.25; stroke-dasharray:3,3;"/>
<line x1="60.400000" y1="181.000000" x2="65.400000" y2="181.000000"  style="stroke: black; stroke-linecap:round; stroke-width:0.25; stroke-dasharray:3,3;"/>
<line x1="94.425000" y1="181.000000" x2="102.400000" y2="181.000000"  style="stroke: black; stroke-linecap:round; stroke-width:0.25; stroke-dasharray:3,3;"/>
<text x="65.400000" y="183.000000" font-family="Arial" font-size="7">nrSends</text>
<rect x="120.400000" y="165.000000" width="24.000000" height="24.000000" rx="0" ry="0" style="stroke:none;fill:#cccccc;"/>
<rect x="119.400000" y="164.000000" width="24.000000" height="24.000000" rx="0" ry="0" style="stroke:none;fill:#4B71A1;"/>
<text x="131.400000" y="178.000000" font-family="Arial" font-size="7" text-anchor="middle" fill="#FFFFFF">&lt;</text>
<circle cx="121.400000" cy="166.000000" r="1"/>
<line x1="116.400000" y1="171.000000" x2="119.400000" y2="172.000000"  transform="rotate(0.000000,119.400000,172.000000)" style="stroke: black; stroke-width:0.25;"/>
<line x1="116.400000" y1="173.000000" x2="119.400000" y2="172.000000"  transform="rotate(0.000000,119.400000,172.000000)" style="stroke: black; stroke-width:0.25;"/>
<line x1="116.400000" y1="179.000000" x2="119.400000" y2="180.000000"  transform="rotate(0.000000,119.400000,180.000000)" style="stroke: black; stroke-width:0.25;"/>
<line x1="116.400000" y1="181.000000" x2="119.400000" y2="180.000000"  transform="rotate(0.000000,119.400000,180.000000)" style="stroke: black; stroke-width:0.25;"/>
<rect x="90.400000" y="243.000000" width="24.000000" height="24.000000" rx="0" ry="0" style="stroke:none;fill:#cccccc;"/>
<rect x="89.400000" y="242.000000" width="24.000000" height="24.000000" rx="0" ry="0" style="stroke:none;fill:#f44800;"/>
<text x="101.400000" y="256.000000" font-family="Arial" font-size="7" text-anchor="middle" fill="#FFFFFF">1</text>
<circle cx="91.400000" cy="244.000000" r="1"/>
<line x1="80.400000" y1="233.000000" x2="80.400000" y2="275.000000"  style="stroke: black; stroke-linecap:round; stroke-width:0.25; stroke-dasharray:3,3;"/>
<line x1="80.400000" y1="275.000000" x2="122.400000" y2="275.000000"  style="stroke: black; stroke-linecap:round; stroke-width:0.25; stroke-dasharray:3,3;"/>
<line x1="122.400000" y1="275.000000" x2="122.400000" y2="233.000000"  style="stroke: black; stroke-linecap:round; stroke-width:0.25; stroke-dasharray:3,3;"/>
<line x1="80.400000" y1="233.000000" x2="85.400000" y2="233.000000"  style="stroke: black; stroke-linecap:round; stroke-width:0.25; stroke-dasharray:3,3;"/>
<line x1="98.300000" y1="233.000000" x2="122.400000" y2="233.000000"  style="stroke: black; stroke-linecap:round; stroke-width:0.25; stroke-dasharray:3,3;"/>
<text x="85.400000" y="235.000000" font-family="Arial" font-size="7">a0</text>
<a xlink:href="fac-0x3439ecc0.svg">
<rect x="25.000000" y="285.000000" width="154.800000" height="24.000000" rx="0" ry="0" style="stroke:none;fill:#cccccc;"/>
<rect x="24.000000" y="284.000000" width="154.800000" height="24.000000" rx="0" ry="0" style="stroke:none;fill:#003366;"/>
</a>
<a xlink:href="fac-0x3439ecc0.svg">
<text x="101.400000" y="298.000000" font-family="Arial" font-size="7" text-anchor="middle" fill="#FFFFFF">fac(((3,1.000...nt) : -) : +)(3)(0)</text>
</a>
<circle cx="26.000000" cy="286.000000" r="1"/>
<rect x="203.800000" y="207.000000" width="38.700000" height="24.000000" rx="0" ry="0" style="stroke:none;fill:#cccccc;"/>
<rect x="202.800000" y="206.000000" width="38.700000" height="24.000000" rx="0" ry="0" style="stroke:none;fill:#4B71A1;"/>
<text x="222.150000" y="220.000000" font-family="Arial" font-size="7" text-anchor="middle" fill="#FFFFFF">select2</text>
<circle cx="204.800000" cy="208.000000" r="1"/>
<line x1="199.800000" y1="209.000000" x2="202.800000" y2="210.000000"  transform="rotate(0.000000,202.800000,210.000000)" style="stroke: black; stroke-width:0.25;"/>
<line x1="199.800000" y1="211.000000" x2="202.800000" y2="210.000000"  transform="rotate(0.000000,202.800000,210.000000)" style="stroke: black; stroke-width:0.25;"/>
<line x1="199.800000" y1="217.000000" x2="202.800000" y2="218.000000"  transform="rotate(0.000000,202.800000,218.000000)" style="stroke: black; stroke-width:0.25;"/>
<line x1="199.800000" y1="219.000000" x2="202.800000" y2="218.000000"  transform="rotate(0.000000,202.800000,218.000000)" style="stroke: black; stroke-width:0.25;"/>
<line x1="199.800000" y1="225.000000" x2="202.800000" y2="226.000000"  transform="rotate(0.000000,202.800000,226.000000)" style="stroke: black; stroke-width:0.25;"/>
<line x1="199.800000" y1="227.000000" x2="202.800000" y2="226.000000"  transform="rotate(0.000000,202.800000,226.000000)" style="stroke: black; stroke-width:0.25;"/>
<rect x="70.400000" y="327.000000" width="24.000000" height="24.000000" rx="0" ry="0" style="stroke:none;fill:#cccccc;"/>
<rect x="69.400000" y="326.000000" width="24.000000" height="24.000000" rx="0" ry="0" style="stroke:none;fill:#f44800;"/>
<text x="81.400000" y="340.000000" font-family="Arial" font-size="7" text-anchor="middle" fill="#FFFFFF">1</text>
<circle cx="71.400000" cy="328.000000" r="1"/>
<line x1="60.400000" y1="317.000000" x2="60.400000" y2="359.000000"  style="stroke: black; stroke-linecap:round; stroke-width:0.25; stroke-dasharray:3,3;"/>
<line x1="60.400000" y1="359.000000" x2="102.400000" y2="359.000000"  style="stroke: black; stroke-linecap:round; stroke-width:0.25; stroke-dasharray:3,3;"/>
<line x1="102.400000" y1="359.000000" x2="102.400000" y2="317.000000"  style="stroke: black; stroke-linecap:round; stroke-width:0.25; stroke-dasharray:3,3;"/>
<line x1="60.400000" y1="317.000000" x2="65.400000" y2="317.000000"  style="stroke: black; stroke-linecap:round; stroke-width:0.25; stroke-dasharray:3,3;"/>
<line x1="78.300000" y1="317.000000" x2="102.400000" y2="317.000000"  style="stroke: black; stroke-linecap:round; stroke-width:0.25; stroke-dasharray:3,3;"/>
<text x="65.400000" y="319.000000" font-family="Arial" font-size="7">a0</text>
<rect x="70.400000" y="379.000000" width="24.000000" height="24.000000" rx="0" ry="0" style="stroke:none;fill:#cccccc;"/>
<rect x="69.400000" y="378.000000" width="24.000000" height="24.000000" rx="0" ry="0" style="stroke:none;fill:#f44800;"/>
<text x="81.400000" y="392.000000" font-family="Arial" font-size="7" text-anchor="middle" fill="#FFFFFF">3</text>
<circle cx="71.400000" cy="380.000000" r="1"/>
<line x1="60.400000" y1="369.000000" x2="60.400000" y2="411.000000"  style="stroke: black; stroke-linecap:round; stroke-width:0.25; stroke-dasharray:3,3;"/>
<line x1="60.400000" y1="411.000000" x2="102.400000" y2="411.000000"  style="stroke: black; stroke-linecap:round; stroke-width:0.25; stroke-dasharray:3,3;"/>
<line x1="102.400000" y1="411.000000" x2="102.400000" y2="369.000000"  style="stroke: black; stroke-linecap:round; stroke-width:0.25; stroke-dasharray:3,3;"/>
<line x1="60.400000" y1="369.000000" x2="65.400000" y2="369.000000"  style="stroke: black; stroke-linecap:round; stroke-width:0.25; stroke-dasharray:3,3;"/>
<line x1="94.425000" y1="369.000000" x2="102.400000" y2="369.000000"  style="stroke: black; stroke-linecap:round; stroke-width:0.25; stroke-dasharray:3,3;"/>
<text x="65.400000" y="371.000000" font-family="Arial" font-size="7">nrSends</text>
<rect x="120.400000" y="353.000000" width="24.000000" height="24.000000" rx="0" ry="0" style="stroke:none;fill:#cccccc;"/>
<rect x="119.400000" y="352.000000" width="24.000000" height="24.000000" rx="0" ry="0" style="stroke:none;fill:#4B71A1;"/>
<text x="131.400000" y="366.000000" font-family="Arial" font-size="7" text-anchor="middle" fill="#FFFFFF">&lt;</text>
<circle cx="121.400000" cy="354.000000" r="1"/>
<line x1="116.400000" y1="359.000000" x2="119.400000" y2="360.000000"  transform="rotate(0.000000,119.400000,360.000000)" style="stroke: black; stroke-width:0.25;"/>
<line x1="116.400000" y1="361.000000" x2="119.400000" y2="360.000000"  transform="rotate(0.000000,119.400000,360.000000)" style="stroke: black; stroke-width:0.25;"/>
<line x1="116.400000" y1="367.000000" x2="119.400000" y2="368.000000"  transform="rotate(0.000000,119.400000,368.000000)" style="stroke: black; stroke-width:0.25;"/>
<line x1="116.400000" y1="369.000000" x2="119.400000" y2="368.000000"  transform="rotate(0.000000,119.400000,368.000000)" style="stroke: black; stroke-width:0.25;"/>
<rect x="90.400000" y="431.000000" width="24.000000" height="24.000000" rx="0" ry="0" style="stroke:none;fill:#cccccc;"/>
<rect x="89.400000" y="430.000000" width="24.000000" height="24.000000" rx="0" ry="0" style="stroke:none;fill:#f44800;"/>
<text x="101.400000" y="444.000000" font-family="Arial" font-size="7" text-anchor="middle" fill="#FFFFFF">1</text>
<circle cx="91.400000" cy="432.000000" r="1"/>
<line x1="80.400000" y1="421.000000" x2="80.400000" y2="463.000000"  style="stroke: black; stroke-linecap:round; stroke-width:0.25; stroke-dasharray:3,3;"/>
<line x1="80.400000" y1="463.000000" x2="122.400000" y2="463.000000"  style="stroke: black; stroke-linecap:round; stroke-width:0.25; stroke-dasharray:3,3;"/>
<line x1="122.400000" y1="463.000000" x2="122.400000" y2="421.000000"  style="stroke: black; stroke-linecap:round; stroke-width:0.25; stroke-dasharray:3,3;"/>
<line x1="80.400000" y1="421.000000" x2="85.400000" y2="421.000000"  style="stroke: black; stroke-linecap:round; stroke-width:0.25; stroke-dasharray:3,3;"/>
<line x1="98.300000" y1="421.000000" x2="122.400000" y2="421.000000"  style="stroke: black; stroke-linecap:round; stroke-width:0.25; stroke-dasharray:3,3;"/>
<text x="85.400000" y="423.000000" font-family="Arial" font-size="7">a0</text>
<a xlink:href="fac-0x343a35e0.svg">
<rect x="25.000000" y="473.000000" width="154.800000" height="24.000000" rx="0" ry="0" style="stroke:none;fill:#cccccc;"/>
<rect x="24.000000" y="472.000000" width="154.800000" height="24.000000" rx="0" ry="0" style="stroke:none;fill:#003366;"/>
</a>
<a xlink:href="fac-0x343a35e0.svg">
<text x="101.400000" y="486.000000" font-family="Arial" font-size="7" text-anchor="middle" fill="#FFFFFF">fac(((3,1.000...nt) : -) : +)(3)(1)</text>
</a>
<circle cx="26.000000" cy="474.000000" r="1"/>
<rect x="203.800000" y="395.000000" width="38.700000" height="24.000000" rx="0" ry="0" style="stroke:none;fill:#cccccc;"/>
<rect x="202.800000" y="394.000000" width="38.700000" height="24.000000" rx="0" ry="0" style="stroke:none;fill:#4B71A1;"/>
<text x="222.150000" y="408.000000" font-family="Arial" font-size="7" text-anchor="middle" fill="#FFFFFF">select2</text>
<circle cx="204.800000" cy="396.000000" r="1"/>
<line x1="199.800000" y1="397.000000" x2="202.800000" y2="398.000000"  transform="rotate(0.000000,202.800000,398.000000)" style="stroke: black; stroke-width:0.25;"/>
<line x1="199.800000" y1="399.000000" x2="202.800000" y2="398.000000"  transform="rotate(0.000000,202.800000,398.000000)" style="stroke: black; stroke-width:0.25;"/>
<line x1="199.800000" y1="405.000000" x2="202.800000" y2="406.000000"  transform="rotate(0.000000,202.800000,406.000000)" style="stroke: black; stroke-width:0.25;"/>
<line x1="199.800000" y1="407.000000" x2="202.800000" y2="406.000000"  transform="rotate(0.000000,202.800000,406.000000)" style="stroke: black; stroke-width:0.25;"/>
<line x1="199.800000" y1="413.000000" x2="202.800000" y2="414.000000"  transform="rotate(0.000000,202.800000,414.000000)" style="stroke: black; stroke-width:0.25;"/>
<line x1="199.800000" y1="415.000000" x2="202.800000" y2="414.000000"  transform="rotate(0.000000,202.800000,414.000000)" style="stroke: black; stroke-width:0.25;"/>
<rect x="258.500000" y="301.000000" width="24.000000" height="24.000000" rx="0" ry="0" style="stroke:none;fill:#cccccc;"/>
<rect x="257.500000" y="300.000000" width="24.000000" height="24.000000" rx="0" ry="0" style="stroke:none;fill:#4B71A1;"/>
<text x="269.500000" y="314.000000" font-family="Arial" font-size="7" text-anchor="middle" fill="#FFFFFF">*</text>
<circle cx="259.500000" cy="302.000000" r="1"/>
<line x1="254.500000" y1="307.000000" x2="257.500000" y2="308.000000"  transform="rotate(0.000000,257.500000,308.000000)" style="stroke: black; stroke-width:0.25;"/>
<line x1="254.500000" y1="309.000000" x2="257.500000" y2="308.000000"  transform="rotate(0.000000,257.500000,308.000000)" style="stroke: black; stroke-width:0.25;"/>
<line x1="254.500000" y1="315.000000" x2="257.500000" y2="316.000000"  transform="rotate(0.000000,257.500000,316.000000)" style="stroke: black; stroke-width:0.25;"/>
<line x1="254.500000" y1="317.000000" x2="257.500000" y2="316.000000"  transform="rotate(0.000000,257.500000,316.000000)" style="stroke: black; stroke-width:0.25;"/>
<rect x="90.400000" y="515.000000" width="24.000000" height="24.000000" rx="0" ry="0" style="stroke:none;fill:#cccccc;"/>
<rect x="89.400000" y="514.000000" width="24.000000" height="24.000000" rx="0" ry="0" style="stroke:none;fill:#f44800;"/>
<text x="101.400000" y="528.000000" font-family="Arial" font-size="7" text-anchor="middle" fill="#FFFFFF">2</text>
<circle cx="91.400000" cy="516.000000" r="1"/>
<line x1="80.400000" y1="505.000000" x2="80.400000" y2="547.000000"  style="stroke: black; stroke-linecap:round; stroke-width:0.25; stroke-dasharray:3,3;"/>
<line x1="80.400000" y1="547.000000" x2="122.400000" y2="547.000000"  style="stroke: black; stroke-linecap:round; stroke-width:0.25; stroke-dasharray:3,3;"/>
<line x1="122.400000" y1="547.000000" x2="122.400000" y2="505.000000"  style="stroke: black; stroke-linecap:round; stroke-width:0.25; stroke-dasharray:3,3;"/>
<line x1="80.400000" y1="505.000000" x2="85.400000" y2="505.000000"  style="stroke: black; stroke-linecap:round; stroke-width:0.25; stroke-dasharray:3,3;"/>
<line x1="95.075000" y1="505.000000" x2="122.400000" y2="505.000000"  style="stroke: black; stroke-linecap:round; stroke-width:0.25; stroke-dasharray:3,3;"/>
<text x="85.400000" y="507.000000" font-family="Arial" font-size="7">M</text>
<rect x="90.400000" y="567.000000" width="24.000000" height="24.000000" rx="0" ry="0" style="stroke:none;fill:#cccccc;"/>
<rect x="89.400000" y="566.000000" width="24.000000" height="24.000000" rx="0" ry="0" style="stroke:none;fill:#f44800;"/>
<text x="101.400000" y="580.000000" font-family="Arial" font-size="7" text-anchor="middle" fill="#FFFFFF">3</text>
<circle cx="91.400000" cy="568.000000" r="1"/>
<line x1="80.400000" y1="557.000000" x2="80.400000" y2="599.000000"  style="stroke: black; stroke-linecap:round; stroke-width:0.25; stroke-dasharray:3,3;"/>
<line x1="80.400000" y1="599.000000" x2="122.400000" y2="599.000000"  style="stroke: black; stroke-linecap:round; stroke-width:0.25; stroke-dasharray:3,3;"/>
<line x1="122.400000" y1="599.000000" x2="122.400000" y2="557.000000"  style="stroke: black; stroke-linecap:round; stroke-width:0.25; stroke-dasharray:3,3;"/>
<line x1="80.400000" y1="557.000000" x2="85.400000" y2="557.000000"  style="stroke: black; stroke-linecap:round; stroke-width:0.25; stroke-dasharray:3,3;"/>
<line x1="114.425000" y1="557.000000" x2="122.400000" y2="557.000000"  style="stroke: black; stroke-linecap:round; stroke-width:0.25; stroke-dasharray:3,3;"/>
<text x="85.400000" y="559.000000" font-family="Arial" font-size="7">nrSends</text>
<rect x="140.400000" y="541.000000" width="24.000000" height="24.000000" rx="0" ry="0" style="stroke:none;fill:#cccccc;"/>
<rect x="139.400000" y="540.000000" width="24.000000" height="24.000000" rx="0" ry="0" style="stroke:none;fill:#4B71A1;"/>
<text x="151.400000" y="554.000000" font-family="Arial" font-size="7" text-anchor="middle" fill="#FFFFFF">&lt;</text>
<circle cx="141.400000" cy="542.000000" r="1"/>
<line x1="136.400000" y1="547.000000" x2="139.400000" y2="548.000000"  transform="rotate(0.000000,139.400000,548.000000)" style="stroke: black; stroke-width:0.25;"/>
<line x1="136.400000" y1="549.000000" x2="139.400000" y2="548.000000"  transform="rotate(0.000000,139.400000,548.000000)" style="stroke: black; stroke-width:0.25;"/>
<line x1="136.400000" y1="555.000000" x2="139.400000" y2="556.000000"  transform="rotate(0.000000,139.400000,556.000000)" style="stroke: black; stroke-width:0.25;"/>
<line x1="136.400000" y1="557.000000" x2="139.400000" y2="556.000000"  transform="rotate(0.000000,139.400000,556.000000)" style="stroke: black; stroke-width:0.25;"/>
<rect x="110.400000" y="619.000000" width="24.000000" height="24.000000" rx="0" ry="0" style="stroke:none;fill:#cccccc;"/>
<rect x="109.400000" y="618.000000" width="24.000000" height="24.000000" rx="0" ry="0" style="stroke:none;fill:#f44800;"/>
<text x="121.400000" y="632.000000" font-family="Arial" font-size="7" text-anchor="middle" fill="#FFFFFF">1</text>
<circle cx="111.400000" cy="620.000000" r="1"/>
<line x1="100.400000" y1="609.000000" x2="100.400000" y2="651.000000"  style="stroke: black; stroke-linecap:round; stroke-width:0.25; stroke-dasharray:3,3;"/>
<line x1="100.400000" y1="651.000000" x2="142.400000" y2="651.000000"  style="stroke: black; stroke-linecap:round; stroke-width:0.25; stroke-dasharray:3,3;"/>
<line x1="142.400000" y1="651.000000" x2="142.400000" y2="609.000000"  style="stroke: black; stroke-linecap:round; stroke-width:0.25; stroke-dasharray:3,3;"/>
<line x1="100.400000" y1="609.000000" x2="105.400000" y2="609.000000"  style="stroke: black; stroke-linecap:round; stroke-width:0.25; stroke-dasharray:3,3;"/>
<line x1="118.300000" y1="609.000000" x2="142.400000" y2="609.000000"  style="stroke: black; stroke-linecap:round; stroke-width:0.25; stroke-dasharray:3,3;"/>
<text x="105.400000" y="611.000000" font-family="Arial" font-size="7">a0</text>
<a xlink:href="fac-0x343a8340.svg">
<rect x="45.000000" y="661.000000" width="154.800000" height="24.000000" rx="0" ry="0" style="stroke:none;fill:#cccccc;"/>
<rect x="44.000000" y="660.000000" width="154.800000" height="24.000000" rx="0" ry="0" style="stroke:none;fill:#003366;"/>
</a>
<a xlink:href="fac-0x343a8340.svg">
<text x="121.400000" y="674.000000" font-family="Arial" font-size="7" text-anchor="middle" fill="#FFFFFF">fac(((3,1.000...nt) : -) : +)(3)(2)</text>
</a>
<circle cx="46.000000" cy="662.000000" r="1"/>
<rect x="223.800000" y="583.000000" width="38.700000" height="24.000000" rx="0" ry="0" style="stroke:none;fill:#cccccc;"/>
<rect x="222.800000" y="582.000000" width="38.700000" height="24.000000" rx="0" ry="0" style="stroke:none;fill:#4B71A1;"/>
<text x="242.150000" y="596.000000" font-family="Arial" font-size="7" text-anchor="middle" fill="#FFFFFF">select2</text>
<circle cx="224.800000" cy="584.000000" r="1"/>
<line x1="219.800000" y1="585.000000" x2="222.800000" y2="586.000000"  transform="rotate(0.000000,222.800000,586.000000)" style="stroke: black; stroke-width:0.25;"/>
<line x1="219.800000" y1="587.000000" x2="222.800000" y2="586.000000"  transform="rotate(0.000000,222.800000,586.000000)" style="stroke: black; stroke-width:0.25;"/>
<line x1="219.800000" y1="593.000000" x2="222.800000" y2="594.000000"  transform="rotate(0.000000,222.800000,594.000000)" style="stroke: black; stroke-width:0.25;"/>
<line x1="219.800000" y1="595.000000" x2="222.800000" y2="594.000000"  transform="rotate(0.000000,222.800000,594.000000)" style="stroke: black; stroke-width:0.25;"/>
<line x1="219.800000" y1="601.000000" x2="222.800000" y2="602.000000"  transform="rotate(0.000000,222.800000,602.000000)" style="stroke: black; stroke-width:0.25;"/>
<line x1="219.800000" y1="603.000000" x2="222.800000" y2="602.000000"  transform="rotate(0.000000,222.800000,602.000000)" style="stroke: black; stroke-width:0.25;"/>
<rect x="298.500000" y="395.000000" width="24.000000" height="24.000000" rx="0" ry="0" style="stroke:none;fill:#cccccc;"/>
<rect x="297.500000" y="394.000000" width="24.000000" height="24.000000" rx="0" ry="0" style="stroke:none;fill:#4B71A1;"/>
<text x="309.500000" y="408.000000" font-family="Arial" font-size="7" text-anchor="middle" fill="#FFFFFF">*</text>
<circle cx="299.500000" cy="396.000000" r="1"/>
<line x1="294.500000" y1="401.000000" x2="297.500000" y2="402.000000"  transform="rotate(0.000000,297.500000,402.000000)" style="stroke: black; stroke-width:0.25;"/>
<line x1="294.500000" y1="403.000000" x2="297.500000" y2="402.000000"  transform="rotate(0.000000,297.500000,402.000000)" style="stroke: black; stroke-width:0.25;"/>
<line x1="294.500000" y1="409.000000" x2="297.500000" y2="410.000000"  transform="rotate(0.000000,297.500000,410.000000)" style="stroke: black; stroke-width:0.25;"/>
<line x1="294.500000" y1="411.000000" x2="297.500000" y2="410.000000"  transform="rotate(0.000000,297.500000,410.000000)" style="stroke: black; stroke-width:0.25;"/>
<rect x="346.500000" y="343.000000" width="38.700000" height="24.000000" rx="0" ry="0" style="stroke:none;fill:#cccccc;"/>
<rect x="345.500000" y="342.000000" width="38.700000" height="24.000000" rx="0" ry="0" style="stroke:none;fill:#4B71A1;"/>
<text x="364.850000" y="356.000000" font-family="Arial" font-size="7" text-anchor="middle" fill="#FFFFFF">select2</text>
<circle cx="347.500000" cy="344.000000" r="1"/>
<line x1="342.500000" y1="345.000000" x2="345.500000" y2="346.000000"  transform="rotate(0.000000,345.500000,346.000000)" style="stroke: black; stroke-width:0.25;"/>
<line x1="342.500000" y1="347.000000" x2="345.500000" y2="346.000000"  transform="rotate(0.000000,345.500000,346.000000)" style="stroke: black; stroke-width:0.25;"/>
<line x1="342.500000" y1="353.000000" x2="345.500000" y2="354.000000"  transform="rotate(0.000000,345.500000,354.000000)" style="stroke: black; stroke-width:0.25;"/>
<line x1="342.500000" y1="355.000000" x2="345.500000" y2="354.000000"  transform="rotate(0.000000,345.500000,354.000000)" style="stroke: black; stroke-width:0.25;"/>
<line x1="342.500000" y1="361.000000" x2="345.500000" y2="362.000000"  transform="rotate(0.000000,345.500000,362.000000)" style="stroke: black; stroke-width:0.25;"/>
<line x1="342.500000" y1="363.000000" x2="345.500000" y2="362.000000"  transform="rotate(0.000000,345.500000,362.000000)" style="stroke: black; stroke-width:0.25;"/>
<line x1="15.000000" y1="15.000000" x2="15.000000" y2="693.000000"  style="stroke: black; stroke-linecap:round; stroke-width:0.25; stroke-dasharray:3,3;"/>
<line x1="15.000000" y1="693.000000" x2="401.200000" y2="693.000000"  style="stroke: black; stroke-linecap:round; stroke-width:0.25; stroke-dasharray:3,3;"/>
<line x1="401.200000" y1="693.000000" x2="401.200000" y2="15.000000"  style="stroke: black; stroke-linecap:round; stroke-width:0.25; stroke-dasharray:3,3;"/>
<line x1="15.000000" y1="15.000000" x2="20.000000" y2="15.000000"  style="stroke: black; stroke-linecap:round; stroke-width:0.25; stroke-dasharray:3,3;"/>
<line x1="129.650000" y1="15.000000" x2="401.200000" y2="15.000000"  style="stroke: black; stroke-linecap:round; stroke-width:0.25; stroke-dasharray:3,3;"/>
<text x="20.000000" y="17.000000" font-family="Arial" font-size="7">facs1(3)(((3,...nt) : -) : +)(3)</text>
<line x1="403.200000" y1="353.000000" x2="406.200000" y2="354.000000"  transform="rotate(0.000000,406.200000,354.000000)" style="stroke: black; stroke-width:0.25;"/>
<line x1="403.200000" y1="355.000000" x2="406.200000" y2="354.000000"  transform="rotate(0.000000,406.200000,354.000000)" style="stroke: black; stroke-width:0.25;"/>
<line x1="93.400000" y1="150.000000" x2="97.400000" y2="150.000000"  style="stroke:black; stroke-linecap:round; stroke-width:0.25;"/>
<line x1="93.400000" y1="202.000000" x2="97.400000" y2="202.000000"  style="stroke:black; stroke-linecap:round; stroke-width:0.25;"/>
<line x1="93.400000" y1="338.000000" x2="97.400000" y2="338.000000"  style="stroke:black; stroke-linecap:round; stroke-width:0.25;"/>
<line x1="93.400000" y1="390.000000" x2="97.400000" y2="390.000000"  style="stroke:black; stroke-linecap:round; stroke-width:0.25;"/>
<line x1="97.400000" y1="150.000000" x2="107.400000" y2="150.000000"  style="stroke:black; stroke-linecap:round; stroke-width:0.25;"/>
<line x1="97.400000" y1="202.000000" x2="107.400000" y2="202.000000"  style="stroke:black; stroke-linecap:round; stroke-width:0.25;"/>
<line x1="97.400000" y1="338.000000" x2="107.400000" y2="338.000000"  style="stroke:black; stroke-linecap:round; stroke-width:0.25;"/>
<line x1="97.400000" y1="390.000000" x2="107.400000" y2="390.000000"  style="stroke:black; stroke-linecap:round; stroke-width:0.25;"/>
<line x1="107.400000" y1="150.000000" x2="115.400000" y2="150.000000"  style="stroke:black; stroke-linecap:round; stroke-width:0.25;"/>
<line x1="107.400000" y1="180.000000" x2="115.400000" y2="180.000000"  style="stroke:black; stroke-linecap:round; stroke-width:0.25;"/>
<line x1="107.400000" y1="202.000000" x2="107.400000" y2="180.000000"  style="stroke:black; stroke-linecap:round; stroke-width:0.25;"/>
<line x1="107.400000" y1="202.000000" x2="107.400000" y2="202.000000"  style="stroke:black; stroke-linecap:round; stroke-width:0.25;"/>
<line x1="107.400000" y1="338.000000" x2="115.400000" y2="338.000000"  style="stroke:black; stroke-linecap:round; stroke-width:0.25;"/>
<line x1="107.400000" y1="368.000000" x2="115.400000" y2="368.000000"  style="stroke:black; stroke-linecap:round; stroke-width:0.25;"/>
<line x1="107.400000" y1="390.000000" x2="107.400000" y2="368.000000"  style="stroke:black; stroke-linecap:round; stroke-width:0.25;"/>
<line x1="107.400000" y1="390.000000" x2="107.400000" y2="390.000000"  style="stroke:black; stroke-linecap:round; stroke-width:0.25;"/>
<line x1="113.400000" y1="254.000000" x2="117.400000" y2="254.000000"  style="stroke:black; stroke-linecap:round; stroke-width:0.25;"/>
<line x1="113.400000" y1="442.000000" x2="117.400000" y2="442.000000"  style="stroke:black; stroke-linecap:round; stroke-width:0.25;"/>
<line x1="113.400000" y1="526.000000" x2="117.400000" y2="526.000000"  style="stroke:black; stroke-linecap:round; stroke-width:0.25;"/>
<line x1="113.400000" y1="578.000000" x2="117.400000" y2="578.000000"  style="stroke:black; stroke-linecap:round; stroke-width:0.25;"/>
<line x1="115.400000" y1="150.000000" x2="115.400000" y2="172.000000"  style="stroke:black; stroke-linecap:round; stroke-width:0.25;"/>
<line x1="115.400000" y1="172.000000" x2="115.400000" y2="172.000000"  style="stroke:black; stroke-linecap:round; stroke-width:0.25;"/>
<line x1="115.400000" y1="172.000000" x2="119.400000" y2="172.000000"  style="stroke:black; stroke-linecap:round; stroke-width:0.25;"/>
<line x1="115.400000" y1="180.000000" x2="119.400000" y2="180.000000"  style="stroke:black; stroke-linecap:round; stroke-width:0.25;"/>
<line x1="115.400000" y1="338.000000" x2="115.400000" y2="360.000000"  style="stroke:black; stroke-linecap:round; stroke-width:0.25;"/>
<line x1="115.400000" y1="360.000000" x2="115.400000" y2="360.000000"  style="stroke:black; stroke-linecap:round; stroke-width:0.25;"/>
<line x1="115.400000" y1="360.000000" x2="119.400000" y2="360.000000"  style="stroke:black; stroke-linecap:round; stroke-width:0.25;"/>
<line x1="115.400000" y1="368.000000" x2="119.400000" y2="368.000000"  style="stroke:black; stroke-linecap:round; stroke-width:0.25;"/>
<line x1="117.400000" y1="254.000000" x2="127.400000" y2="254.000000"  style="stroke:black; stroke-linecap:round; stroke-width:0.25;"/>
<line x1="117.400000" y1="442.000000" x2="127.400000" y2="442.000000"  style="stroke:black; stroke-linecap:round; stroke-width:0.25;"/>
<line x1="117.400000" y1="526.000000" x2="127.400000" y2="526.000000"  style="stroke:black; stroke-linecap:round; stroke-width:0.25;"/>
<line x1="117.400000" y1="578.000000" x2="127.400000" y2="578.000000"  style="stroke:black; stroke-linecap:round; stroke-width:0.25;"/>
<line x1="127.400000" y1="254.000000" x2="182.800000" y2="254.000000"  style="stroke:black; stroke-linecap:round; stroke-width:0.25;"/>
<line x1="127.400000" y1="442.000000" x2="182.800000" y2="442.000000"  style="stroke:black; stroke-linecap:round; stroke-width:0.25;"/>
<line x1="127.400000" y1="526.000000" x2="135.400000" y2="526.000000"  style="stroke:black; stroke-linecap:round; stroke-width:0.25;"/>
<line x1="127.400000" y1="556.000000" x2="135.400000" y2="556.000000"  style="stroke:black; stroke-linecap:round; stroke-width:0.25;"/>
<line x1="127.400000" y1="578.000000" x2="127.400000" y2="556.000000"  style="stroke:black; stroke-linecap:round; stroke-width:0.25;"/>
<line x1="127.400000" y1="578.000000" x2="127.400000" y2="578.000000"  style="stroke:black; stroke-linecap:round; stroke-width:0.25;"/>
<line x1="133.400000" y1="630.000000" x2="137.400000" y2="630.000000"  style="stroke:black; stroke-linecap:round; stroke-width:0.25;"/>
<line x1="135.400000" y1="526.000000" x2="135.400000" y2="548.000000"  style="stroke:black; stroke-linecap:round; stroke-width:0.25;"/>
<line x1="135.400000" y1="548.000000" x2="135.400000" y2="548.000000"  style="stroke:black; stroke-linecap:round; stroke-width:0.25;"/>
<line x1="135.400000" y1="548.000000" x2="139.400000" y2="548.000000"  style="stroke:black; stroke-linecap:round; stroke-width:0.25;"/>
<line x1="135.400000" y1="556.000000" x2="139.400000" y2="556.000000"  style="stroke:black; stroke-linecap:round; stroke-width:0.25;"/>
<line x1="137.400000" y1="630.000000" x2="147.400000" y2="630.000000"  style="stroke:black; stroke-linecap:round; stroke-width:0.25;"/>
<line x1="143.400000" y1="176.000000" x2="147.400000" y2="176.000000"  style="stroke:black; stroke-linecap:round; stroke-width:0.25;"/>
<line x1="143.400000" y1="364.000000" x2="147.400000" y2="364.000000"  style="stroke:black; stroke-linecap:round; stroke-width:0.25;"/>
<line x1="147.400000" y1="176.000000" x2="182.800000" y2="176.000000"  style="stroke:black; stroke-linecap:round; stroke-width:0.25;"/>
<line x1="147.400000" y1="364.000000" x2="182.800000" y2="364.000000"  style="stroke:black; stroke-linecap:round; stroke-width:0.25;"/>
<line x1="147.400000" y1="630.000000" x2="202.800000" y2="630.000000"  style="stroke:black; stroke-linecap:round; stroke-width:0.25;"/>
<line x1="163.400000" y1="552.000000" x2="167.400000" y2="552.000000"  style="stroke:black; stroke-linecap:round; stroke-width:0.25;"/>
<line x1="167.400000" y1="552.000000" x2="202.800000" y2="552.000000"  style="stroke:black; stroke-linecap:round; stroke-width:0.25;"/>
<line x1="178.800000" y1="296.000000" x2="182.800000" y2="296.000000"  style="stroke:black; stroke-linecap:round; stroke-width:0.25;"/>
<line x1="178.800000" y1="484.000000" x2="182.800000" y2="484.000000"  style="stroke:black; stroke-linecap:round; stroke-width:0.25;"/>
<line x1="182.800000" y1="176.000000" x2="198.800000" y2="176.000000"  style="stroke:black; stroke-linecap:round; stroke-width:0.25;"/>
<line x1="182.800000" y1="364.000000" x2="198.800000" y2="364.000000"  style="stroke:black; stroke-linecap:round; stroke-width:0.25;"/>
<line x1="182.800000" y1="218.000000" x2="198.800000" y2="218.000000"  style="stroke:black; stroke-linecap:round; stroke-width:0.25;"/>
<line x1="182.800000" y1="254.000000" x2="182.800000" y2="218.000000"  style="stroke:black; stroke-linecap:round; stroke-width:0.25;"/>
<line x1="182.800000" y1="254.000000" x2="182.800000" y2="254.000000"  style="stroke:black; stroke-linecap:round; stroke-width:0.25;"/>
<line x1="182.800000" y1="296.000000" x2="190.800000" y2="296.000000"  style="stroke:black; stroke-linecap:round; stroke-width:0.25;"/>
<line x1="182.800000" y1="406.000000" x2="198.800000" y2="406.000000"  style="stroke:black; stroke-linecap:round; stroke-width:0.25;"/>
<line x1="182.800000" y1="442.000000" x2="182.800000" y2="406.000000"  style="stroke:black; stroke-linecap:round; stroke-width:0.25;"/>
<line x1="182.800000" y1="442.000000" x2="182.800000" y2="442.000000"  style="stroke:black; stroke-linecap:round; stroke-width:0.25;"/>
<line x1="182.800000" y1="484.000000" x2="190.800000" y2="484.000000"  style="stroke:black; stroke-linecap:round; stroke-width:0.25;"/>
<line x1="184.750000" y1="46.000000" x2="188.750000" y2="46.000000"  style="stroke:black; stroke-linecap:round; stroke-width:0.25;"/>
<line x1="184.750000" y1="98.000000" x2="188.750000" y2="98.000000"  style="stroke:black; stroke-linecap:round; stroke-width:0.25;"/>
<line x1="188.750000" y1="46.000000" x2="198.750000" y2="46.000000"  style="stroke:black; stroke-linecap:round; stroke-width:0.25;"/>
<line x1="188.750000" y1="98.000000" x2="198.750000" y2="98.000000"  style="stroke:black; stroke-linecap:round; stroke-width:0.25;"/>
<line x1="190.800000" y1="226.000000" x2="198.800000" y2="226.000000"  style="stroke:black; stroke-linecap:round; stroke-width:0.25;"/>
<line x1="190.800000" y1="296.000000" x2="190.800000" y2="226.000000"  style="stroke:black; stroke-linecap:round; stroke-width:0.25;"/>
<line x1="190.800000" y1="414.000000" x2="198.800000" y2="414.000000"  style="stroke:black; stroke-linecap:round; stroke-width:0.25;"/>
<line x1="190.800000" y1="484.000000" x2="190.800000" y2="414.000000"  style="stroke:black; stroke-linecap:round; stroke-width:0.25;"/>
<line x1="198.750000" y1="46.000000" x2="325.500000" y2="46.000000"  style="stroke:black; stroke-linecap:round; stroke-width:0.25;"/>
<line x1="198.750000" y1="98.000000" x2="325.500000" y2="98.000000"  style="stroke:black; stroke-linecap:round; stroke-width:0.25;"/>
<line x1="198.800000" y1="176.000000" x2="198.800000" y2="210.000000"  style="stroke:black; stroke-linecap:round; stroke-width:0.25;"/>
<line x1="198.800000" y1="210.000000" x2="198.800000" y2="210.000000"  style="stroke:black; stroke-linecap:round; stroke-width:0.25;"/>
<line x1="198.800000" y1="364.000000" x2="198.800000" y2="398.000000"  style="stroke:black; stroke-linecap:round; stroke-width:0.25;"/>
<line x1="198.800000" y1="398.000000" x2="198.800000" y2="398.000000"  style="stroke:black; stroke-linecap:round; stroke-width:0.25;"/>
<line x1="198.800000" y1="210.000000" x2="202.800000" y2="210.000000"  style="stroke:black; stroke-linecap:round; stroke-width:0.25;"/>
<line x1="198.800000" y1="218.000000" x2="202.800000" y2="218.000000"  style="stroke:black; stroke-linecap:round; stroke-width:0.25;"/>
<line x1="198.800000" y1="226.000000" x2="202.800000" y2="226.000000"  style="stroke:black; stroke-linecap:round; stroke-width:0.25;"/>
<line x1="198.800000" y1="398.000000" x2="202.800000" y2="398.000000"  style="stroke:black; stroke-linecap:round; stroke-width:0.25;"/>
<line x1="198.800000" y1="406.000000" x2="202.800000" y2="406.000000"  style="stroke:black; stroke-linecap:round; stroke-width:0.25;"/>
<line x1="198.800000" y1="414.000000" x2="202.800000" y2="414.000000"  style="stroke:black; stroke-linecap:round; stroke-width:0.25;"/>
<line x1="198.800000" y1="672.000000" x2="202.800000" y2="672.000000"  style="stroke:black; stroke-linecap:round; stroke-width:0.25;"/>
<line x1="202.800000" y1="552.000000" x2="218.800000" y2="552.000000"  style="stroke:black; stroke-linecap:round; stroke-width:0.25;"/>
<line x1="202.800000" y1="594.000000" x2="218.800000" y2="594.000000"  style="stroke:black; stroke-linecap:round; stroke-width:0.25;"/>
<line x1="202.800000" y1="630.000000" x2="202.800000" y2="594.000000"  style="stroke:black; stroke-linecap:round; stroke-width:0.25;"/>
<line x1="202.800000" y1="630.000000" x2="202.800000" y2="630.000000"  style="stroke:black; stroke-linecap:round; stroke-width:0.25;"/>
<line x1="202.800000" y1="672.000000" x2="210.800000" y2="672.000000"  style="stroke:black; stroke-linecap:round; stroke-width:0.25;"/>
<line x1="210.800000" y1="602.000000" x2="218.800000" y2="602.000000"  style="stroke:black; stroke-linecap:round; stroke-width:0.25;"/>
<line x1="210.800000" y1="672.000000" x2="210.800000" y2="602.000000"  style="stroke:black; stroke-linecap:round; stroke-width:0.25;"/>
<line x1="218.800000" y1="552.000000" x2="218.800000" y2="586.000000"  style="stroke:black; stroke-linecap:round; stroke-width:0.25;"/>
<line x1="218.800000" y1="586.000000" x2="218.800000" y2="586.000000"  style="stroke:black; stroke-linecap:round; stroke-width:0.25;"/>
<line x1="218.800000" y1="586.000000" x2="222.800000" y2="586.000000"  style="stroke:black; stroke-linecap:round; stroke-width:0.25;"/>
<line x1="218.800000" y1="594.000000" x2="222.800000" y2="594.000000"  style="stroke:black; stroke-linecap:round; stroke-width:0.25;"/>
<line x1="218.800000" y1="602.000000" x2="222.800000" y2="602.000000"  style="stroke:black; stroke-linecap:round; stroke-width:0.25;"/>
<line x1="241.500000" y1="218.000000" x2="245.500000" y2="218.000000"  style="stroke:black; stroke-linecap:round; stroke-width:0.25;"/>
<line x1="241.500000" y1="406.000000" x2="245.500000" y2="406.000000"  style="stroke:black; stroke-linecap:round; stroke-width:0.25;"/>
<line x1="245.500000" y1="218.000000" x2="253.500000" y2="218.000000"  style="stroke:black; stroke-linecap:round; stroke-width:0.25;"/>
<line x1="245.500000" y1="316.000000" x2="253.500000" y2="316.000000"  style="stroke:black; stroke-linecap:round; stroke-width:0.25;"/>
<line x1="245.500000" y1="406.000000" x2="245.500000" y2="316.000000"  style="stroke:black; stroke-linecap:round; stroke-width:0.25;"/>
<line x1="245.500000" y1="406.000000" x2="245.500000" y2="406.000000"  style="stroke:black; stroke-linecap:round; stroke-width:0.25;"/>
<line x1="253.500000" y1="218.000000" x2="253.500000" y2="308.000000"  style="stroke:black; stroke-linecap:round; stroke-width:0.25;"/>
<line x1="253.500000" y1="308.000000" x2="253.500000" y2="308.000000"  style="stroke:black; stroke-linecap:round; stroke-width:0.25;"/>
<line x1="253.500000" y1="308.000000" x2="257.500000" y2="308.000000"  style="stroke:black; stroke-linecap:round; stroke-width:0.25;"/>
<line x1="253.500000" y1="316.000000" x2="257.500000" y2="316.000000"  style="stroke:black; stroke-linecap:round; stroke-width:0.25;"/>
<line x1="261.500000" y1="594.000000" x2="265.500000" y2="594.000000"  style="stroke:black; stroke-linecap:round; stroke-width:0.25;"/>
<line x1="265.500000" y1="594.000000" x2="285.500000" y2="594.000000"  style="stroke:black; stroke-linecap:round; stroke-width:0.25;"/>
<line x1="281.500000" y1="312.000000" x2="285.500000" y2="312.000000"  style="stroke:black; stroke-linecap:round; stroke-width:0.25;"/>
<line x1="285.500000" y1="312.000000" x2="293.500000" y2="312.000000"  style="stroke:black; stroke-linecap:round; stroke-width:0.25;"/>
<line x1="285.500000" y1="410.000000" x2="293.500000" y2="410.000000"  style="stroke:black; stroke-linecap:round; stroke-width:0.25;"/>
<line x1="285.500000" y1="594.000000" x2="285.500000" y2="410.000000"  style="stroke:black; stroke-linecap:round; stroke-width:0.25;"/>
<line x1="285.500000" y1="594.000000" x2="285.500000" y2="594.000000"  style="stroke:black; stroke-linecap:round; stroke-width:0.25;"/>
<line x1="293.500000" y1="312.000000" x2="293.500000" y2="402.000000"  style="stroke:black; stroke-linecap:round; stroke-width:0.25;"/>
<line x1="293.500000" y1="402.000000" x2="293.500000" y2="402.000000"  style="stroke:black; stroke-linecap:round; stroke-width:0.25;"/>
<line x1="293.500000" y1="402.000000" x2="297.500000" y2="402.000000"  style="stroke:black; stroke-linecap:round; stroke-width:0.25;"/>
<line x1="293.500000" y1="410.000000" x2="297.500000" y2="410.000000"  style="stroke:black; stroke-linecap:round; stroke-width:0.25;"/>
<line x1="321.500000" y1="406.000000" x2="325.500000" y2="406.000000"  style="stroke:black; stroke-linecap:round; stroke-width:0.25;"/>
<line x1="325.500000" y1="46.000000" x2="341.500000" y2="46.000000"  style="stroke:black; stroke-linecap:round; stroke-width:0.25;"/>
<line x1="325.500000" y1="98.000000" x2="333.500000" y2="98.000000"  style="stroke:black; stroke-linecap:round; stroke-width:0.25;"/>
<line x1="325.500000" y1="362.000000" x2="341.500000" y2="362.000000"  style="stroke:black; stroke-linecap:round; stroke-width:0.25;"/>
<line x1="325.500000" y1="406.000000" x2="325.500000" y2="362.000000"  style="stroke:black; stroke-linecap:round; stroke-width:0.25;"/>
<line x1="325.500000" y1="406.000000" x2="325.500000" y2="406.000000"  style="stroke:black; stroke-linecap:round; stroke-width:0.25;"/>
<line x1="333.500000" y1="98.000000" x2="333.500000" y2="354.000000"  style="stroke:black; stroke-linecap:round; stroke-width:0.25;"/>
<line x1="333.500000" y1="354.000000" x2="341.500000" y2="354.000000"  style="stroke:black; stroke-linecap:round; stroke-width:0.25;"/>
<line x1="341.500000" y1="46.000000" x2="341.500000" y2="346.000000"  style="stroke:black; stroke-linecap:round; stroke-width:0.25;"/>
<line x1="341.500000" y1="346.000000" x2="341.500000" y2="346.000000"  style="stroke:black; stroke-linecap:round; stroke-width:0.25;"/>
<line x1="341.500000" y1="346.000000" x2="345.500000" y2="346.000000"  style="stroke:black; stroke-linecap:round; stroke-width:0.25;"/>
<line x1="341.500000" y1="354.000000" x2="345.500000" y2="354.000000"  style="stroke:black; stroke-linecap:round; stroke-width:0.25;"/>
<line x1="341.500000" y1="362.000000" x2="345.500000" y2="362.000000"  style="stroke:black; stroke-linecap:round; stroke-width:0.25;"/>
<line x1="384.200000" y1="354.000000" x2="388.200000" y2="354.000000"  style="stroke:black; stroke-linecap:round; stroke-width:0.25;"/>
<line x1="388.200000" y1="354.000000" x2="388.200000" y2="354.000000"  style="stroke:black; stroke-linecap:round; stroke-width:0.25;"/>
<line x1="388.200000" y1="354.000000" x2="392.200000" y2="354.000000"  style="stroke:black; stroke-linecap:round; stroke-width:0.25;"/>
<line x1="392.200000" y1="354.000000" x2="396.200000" y2="354.000000"  style="stroke:black; stroke-linecap:round; stroke-width:0.25;"/>
<line x1="396.200000" y1="354.000000" x2="406.200000" y2="354.000000"  style="stroke:black; stroke-linecap:round; stroke-width:0.25;"/>
</svg>
