<?xml version="1.0"?>
<svg xmlns="http://www.w3.org/2000/svg" xmlns:xlink="http://www.w3.org/1999/xlink" viewBox="0 0 196.000000 152.000000" width="98.000000mm" height="76.000000mm" version="1.1">
<a xlink:href="sawNws-0x2e6d66b0.svg">
<rect x="1.000000" y="1.000000" width="195.000000" height="151.000000" rx="0" ry="0" style="stroke:none;fill:#cccccc;"/>
<rect x="0.000000" y="0.000000" width="195.000000" height="151.000000" rx="0" ry="0" style="stroke:none;fill:#ffffff;"/>
</a>
<text x="10.000000" y="7.000000" font-family="Arial" font-size="7"></text>
<rect x="51.000000" y="43.000000" width="24.000000" height="24.000000" rx="0" ry="0" style="stroke:none;fill:#cccccc;"/>
<rect x="50.000000" y="42.000000" width="24.000000" height="24.000000" rx="0" ry="0" style="stroke:none;fill:#f44800;"/>
<text x="62.000000" y="56.000000" font-family="Arial" font-size="7" text-anchor="middle" fill="#FFFFFF">1</text>
<circle cx="52.000000" cy="44.000000" r="1"/>
<line x1="41.000000" y1="33.000000" x2="41.000000" y2="75.000000"  style="stroke: black; stroke-linecap:round; stroke-width:0.25; stroke-dasharray:3,3;"/>
<line x1="41.000000" y1="75.000000" x2="83.000000" y2="75.000000"  style="stroke: black; stroke-linecap:round; stroke-width:0.25; stroke-dasharray:3,3;"/>
<line x1="83.000000" y1="75.000000" x2="83.000000" y2="33.000000"  style="stroke: black; stroke-linecap:round; stroke-width:0.25; stroke-dasharray:3,3;"/>
<line x1="41.000000" y1="33.000000" x2="46.000000" y2="33.000000"  style="stroke: black; stroke-linecap:round; stroke-width:0.25; stroke-dasharray:3,3;"/>
<line x1="58.900000" y1="33.000000" x2="83.000000" y2="33.000000"  style="stroke: black; stroke-linecap:round; stroke-width:0.25; stroke-dasharray:3,3;"/>
<text x="46.000000" y="35.000000" font-family="Arial" font-size="7">a0</text>
<rect x="51.000000" y="95.000000" width="24.000000" height="24.000000" rx="0" ry="0" style="stroke:none;fill:#cccccc;"/>
<rect x="50.000000" y="94.000000" width="24.000000" height="24.000000" rx="0" ry="0" style="stroke:none;fill:#f44800;"/>
<text x="62.000000" y="108.000000" font-family="Arial" font-size="7" text-anchor="middle" fill="#FFFFFF">1</text>
<circle cx="52.000000" cy="96.000000" r="1"/>
<line x1="41.000000" y1="85.000000" x2="41.000000" y2="127.000000"  style="stroke: black; stroke-linecap:round; stroke-width:0.25; stroke-dasharray:3,3;"/>
<line x1="41.000000" y1="127.000000" x2="83.000000" y2="127.000000"  style="stroke: black; stroke-linecap:round; stroke-width:0.25; stroke-dasharray:3,3;"/>
<line x1="83.000000" y1="127.000000" x2="83.000000" y2="85.000000"  style="stroke: black; stroke-linecap:round; stroke-width:0.25; stroke-dasharray:3,3;"/>
<line x1="41.000000" y1="85.000000" x2="46.000000" y2="85.000000"  style="stroke: black; stroke-linecap:round; stroke-width:0.25; stroke-dasharray:3,3;"/>
<line x1="58.900000" y1="85.000000" x2="83.000000" y2="85.000000"  style="stroke: black; stroke-linecap:round; stroke-width:0.25; stroke-dasharray:3,3;"/>
<text x="46.000000" y="87.000000" font-family="Arial" font-size="7">a0</text>
<rect x="101.000000" y="69.000000" width="24.000000" height="24.000000" rx="0" ry="0" style="stroke:none;fill:#cccccc;"/>
<rect x="100.000000" y="68.000000" width="24.000000" height="24.000000" rx="0" ry="0" style="stroke:none;fill:#4B71A1;"/>
<text x="112.000000" y="82.000000" font-family="Arial" font-size="7" text-anchor="middle" fill="#FFFFFF">@</text>
<circle cx="102.000000" cy="70.000000" r="1"/>
<line x1="97.000000" y1="75.000000" x2="100.000000" y2="76.000000"  transform="rotate(0.000000,100.000000,76.000000)" style="stroke: black; stroke-width:0.25;"/>
<line x1="97.000000" y1="77.000000" x2="100.000000" y2="76.000000"  transform="rotate(0.000000,100.000000,76.000000)" style="stroke: black; stroke-width:0.25;"/>
<line x1="97.000000" y1="83.000000" x2="100.000000" y2="84.000000"  transform="rotate(0.000000,100.000000,84.000000)" style="stroke: black; stroke-width:0.25;"/>
<line x1="97.000000" y1="85.000000" x2="100.000000" y2="84.000000"  transform="rotate(0.000000,100.000000,84.000000)" style="stroke: black; stroke-width:0.25;"/>
<rect x="141.000000" y="65.000000" width="24.000000" height="24.000000" rx="0" ry="0" style="stroke:none;fill:#cccccc;"/>
<rect x="140.000000" y="64.000000" width="24.000000" height="24.000000" rx="0" ry="0" style="stroke:none;fill:#4B71A1;"/>
<text x="152.000000" y="78.000000" font-family="Arial" font-size="7" text-anchor="middle" fill="#FFFFFF">*</text>
<circle cx="142.000000" cy="66.000000" r="1"/>
<line x1="137.000000" y1="71.000000" x2="140.000000" y2="72.000000"  transform="rotate(0.000000,140.000000,72.000000)" style="stroke: black; stroke-width:0.25;"/>
<line x1="137.000000" y1="73.000000" x2="140.000000" y2="72.000000"  transform="rotate(0.000000,140.000000,72.000000)" style="stroke: black; stroke-width:0.25;"/>
<line x1="137.000000" y1="79.000000" x2="140.000000" y2="80.000000"  transform="rotate(0.000000,140.000000,80.000000)" style="stroke: black; stroke-width:0.25;"/>
<line x1="137.000000" y1="81.000000" x2="140.000000" y2="80.000000"  transform="rotate(0.000000,140.000000,80.000000)" style="stroke: black; stroke-width:0.25;"/>
<line x1="15.000000" y1="15.000000" x2="15.000000" y2="137.000000"  style="stroke: black; stroke-linecap:round; stroke-width:0.25; stroke-dasharray:3,3;"/>
<line x1="15.000000" y1="137.000000" x2="181.000000" y2="137.000000"  style="stroke: black; stroke-linecap:round; stroke-width:0.25; stroke-dasharray:3,3;"/>
<line x1="181.000000" y1="137.000000" x2="181.000000" y2="15.000000"  style="stroke: black; stroke-linecap:round; stroke-width:0.25; stroke-dasharray:3,3;"/>
<line x1="15.000000" y1="15.000000" x2="20.000000" y2="15.000000"  style="stroke: black; stroke-linecap:round; stroke-width:0.25; stroke-dasharray:3,3;"/>
<line x1="49.025000" y1="15.000000" x2="181.000000" y2="15.000000"  style="stroke: black; stroke-linecap:round; stroke-width:0.25; stroke-dasharray:3,3;"/>
<text x="20.000000" y="17.000000" font-family="Arial" font-size="7">gate(1)</text>
<line x1="183.000000" y1="75.000000" x2="186.000000" y2="76.000000"  transform="rotate(0.000000,186.000000,76.000000)" style="stroke: black; stroke-width:0.25;"/>
<line x1="183.000000" y1="77.000000" x2="186.000000" y2="76.000000"  transform="rotate(0.000000,186.000000,76.000000)" style="stroke: black; stroke-width:0.25;"/>
<line x1="10.000000" y1="76.000000" x2="20.000000" y2="76.000000"  style="stroke:black; stroke-linecap:round; stroke-width:0.25;"/>
<line x1="20.000000" y1="76.000000" x2="24.000000" y2="76.000000"  style="stroke:black; stroke-linecap:round; stroke-width:0.25;"/>
<line x1="24.000000" y1="76.000000" x2="28.000000" y2="76.000000"  style="stroke:black; stroke-linecap:round; stroke-width:0.25;"/>
<line x1="28.000000" y1="24.000000" x2="36.000000" y2="24.000000"  style="stroke:black; stroke-linecap:round; stroke-width:0.25;"/>
<line x1="28.000000" y1="76.000000" x2="28.000000" y2="24.000000"  style="stroke:black; stroke-linecap:round; stroke-width:0.25;"/>
<line x1="28.000000" y1="76.000000" x2="28.000000" y2="76.000000"  style="stroke:black; stroke-linecap:round; stroke-width:0.25;"/>
<line x1="36.000000" y1="24.000000" x2="82.000000" y2="24.000000"  style="stroke:black; stroke-linecap:round; stroke-width:0.25;"/>
<line x1="74.000000" y1="54.000000" x2="78.000000" y2="54.000000"  style="stroke:black; stroke-linecap:round; stroke-width:0.25;"/>
<line x1="74.000000" y1="106.000000" x2="78.000000" y2="106.000000"  style="stroke:black; stroke-linecap:round; stroke-width:0.25;"/>
<line x1="78.000000" y1="54.000000" x2="88.000000" y2="54.000000"  style="stroke:black; stroke-linecap:round; stroke-width:0.25;"/>
<line x1="78.000000" y1="106.000000" x2="88.000000" y2="106.000000"  style="stroke:black; stroke-linecap:round; stroke-width:0.25;"/>
<line x1="82.000000" y1="24.000000" x2="128.000000" y2="24.000000"  style="stroke:black; stroke-linecap:round; stroke-width:0.25;"/>
<line x1="88.000000" y1="54.000000" x2="96.000000" y2="54.000000"  style="stroke:black; stroke-linecap:round; stroke-width:0.25;"/>
<line x1="88.000000" y1="84.000000" x2="96.000000" y2="84.000000"  style="stroke:black; stroke-linecap:round; stroke-width:0.25;"/>
<line x1="88.000000" y1="106.000000" x2="88.000000" y2="84.000000"  style="stroke:black; stroke-linecap:round; stroke-width:0.25;"/>
<line x1="88.000000" y1="106.000000" x2="88.000000" y2="106.000000"  style="stroke:black; stroke-linecap:round; stroke-width:0.25;"/>
<line x1="96.000000" y1="54.000000" x2="96.000000" y2="76.000000"  style="stroke:black; stroke-linecap:round; stroke-width:0.25;"/>
<line x1="96.000000" y1="76.000000" x2="96.000000" y2="76.000000"  style="stroke:black; stroke-linecap:round; stroke-width:0.25;"/>
<line x1="96.000000" y1="76.000000" x2="100.000000" y2="76.000000"  style="stroke:black; stroke-linecap:round; stroke-width:0.25;"/>
<line x1="96.000000" y1="84.000000" x2="100.000000" y2="84.000000"  style="stroke:black; stroke-linecap:round; stroke-width:0.25;"/>
<line x1="124.000000" y1="80.000000" x2="128.000000" y2="80.000000"  style="stroke:black; stroke-linecap:round; stroke-width:0.25;"/>
<line x1="128.000000" y1="24.000000" x2="136.000000" y2="24.000000"  style="stroke:black; stroke-linecap:round; stroke-width:0.25;"/>
<line x1="128.000000" y1="80.000000" x2="136.000000" y2="80.000000"  style="stroke:black; stroke-linecap:round; stroke-width:0.25;"/>
<line x1="136.000000" y1="24.000000" x2="136.000000" y2="72.000000"  style="stroke:black; stroke-linecap:round; stroke-width:0.25;"/>
<line x1="136.000000" y1="72.000000" x2="136.000000" y2="72.000000"  style="stroke:black; stroke-linecap:round; stroke-width:0.25;"/>
<line x1="136.000000" y1="72.000000" x2="140.000000" y2="72.000000"  style="stroke:black; stroke-linecap:round; stroke-width:0.25;"/>
<line x1="136.000000" y1="80.000000" x2="140.000000" y2="80.000000"  style="stroke:black; stroke-linecap:round; stroke-width:0.25;"/>
<line x1="164.000000" y1="76.000000" x2="168.000000" y2="76.000000"  style="stroke:black; stroke-linecap:round; stroke-width:0.25;"/>
<line x1="168.000000" y1="76.000000" x2="168.000000" y2="76.000000"  style="stroke:black; stroke-linecap:round; stroke-width:0.25;"/>
<line x1="168.000000" y1="76.000000" x2="172.000000" y2="76.000000"  style="stroke:black; stroke-linecap:round; stroke-width:0.25;"/>
<line x1="172.000000" y1="76.000000" x2="176.000000" y2="76.000000"  style="stroke:black; stroke-linecap:round; stroke-width:0.25;"/>
<line x1="176.000000" y1="76.000000" x2="186.000000" y2="76.000000"  style="stroke:black; stroke-linecap:round; stroke-width:0.25;"/>
</svg>
