<?xml version="1.0"?>
<svg xmlns="http://www.w3.org/2000/svg" xmlns:xlink="http://www.w3.org/1999/xlink" viewBox="0 0 370.300000 328.000000" width="185.150000mm" height="164.000000mm" version="1.1">
<a xlink:href="nv-0x31a85e00.svg">
<rect x="1.000000" y="1.000000" width="369.300000" height="327.000000" rx="0" ry="0" style="stroke:none;fill:#cccccc;"/>
<rect x="0.000000" y="0.000000" width="369.300000" height="327.000000" rx="0" ry="0" style="stroke:none;fill:#ffffff;"/>
</a>
<text x="10.000000" y="7.000000" font-family="Arial" font-size="7"></text>
<rect x="98.800000" y="25.000000" width="24.000000" height="24.000000" rx="0" ry="0" style="stroke:none;fill:#cccccc;"/>
<rect x="97.800000" y="24.000000" width="24.000000" height="24.000000" rx="0" ry="0" style="stroke:none;fill:#47945E;"/>
<text x="109.800000" y="38.000000" font-family="Arial" font-size="7" text-anchor="middle" fill="#FFFFFF">ip</text>
<circle cx="99.800000" cy="26.000000" r="1"/>
<rect x="98.800000" y="57.000000" width="24.000000" height="24.000000" rx="0" ry="0" style="stroke:none;fill:#cccccc;"/>
<rect x="97.800000" y="56.000000" width="24.000000" height="24.000000" rx="0" ry="0" style="stroke:none;fill:#f44800;"/>
<text x="109.800000" y="70.000000" font-family="Arial" font-size="7" text-anchor="middle" fill="#FFFFFF">0</text>
<circle cx="99.800000" cy="58.000000" r="1"/>
<rect x="138.800000" y="41.000000" width="24.000000" height="24.000000" rx="0" ry="0" style="stroke:none;fill:#cccccc;"/>
<rect x="137.800000" y="40.000000" width="24.000000" height="24.000000" rx="0" ry="0" style="stroke:none;fill:#4B71A1;"/>
<text x="149.800000" y="54.000000" font-family="Arial" font-size="7" text-anchor="middle" fill="#FFFFFF">==</text>
<circle cx="139.800000" cy="42.000000" r="1"/>
<line x1="134.800000" y1="47.000000" x2="137.800000" y2="48.000000"  transform="rotate(0.000000,137.800000,48.000000)" style="stroke: black; stroke-width:0.25;"/>
<line x1="134.800000" y1="49.000000" x2="137.800000" y2="48.000000"  transform="rotate(0.000000,137.800000,48.000000)" style="stroke: black; stroke-width:0.25;"/>
<line x1="134.800000" y1="55.000000" x2="137.800000" y2="56.000000"  transform="rotate(0.000000,137.800000,56.000000)" style="stroke: black; stroke-width:0.25;"/>
<line x1="134.800000" y1="57.000000" x2="137.800000" y2="56.000000"  transform="rotate(0.000000,137.800000,56.000000)" style="stroke: black; stroke-width:0.25;"/>
<a xlink:href="slowTotal-0x317941d0.svg">
<rect x="25.000000" y="89.000000" width="51.600000" height="24.000000" rx="0" ry="0" style="stroke:none;fill:#cccccc;"/>
<rect x="24.000000" y="88.000000" width="51.600000" height="24.000000" rx="0" ry="0" style="stroke:none;fill:#003366;"/>
</a>
<a xlink:href="slowTotal-0x317941d0.svg">
<text x="49.800000" y="102.000000" font-family="Arial" font-size="7" text-anchor="middle" fill="#FFFFFF">slowTotal(4)</text>
</a>
<circle cx="26.000000" cy="90.000000" r="1"/>
<a xlink:href="fastTotal-0x31805c80.svg">
<rect x="25.000000" y="121.000000" width="51.600000" height="24.000000" rx="0" ry="0" style="stroke:none;fill:#cccccc;"/>
<rect x="24.000000" y="120.000000" width="51.600000" height="24.000000" rx="0" ry="0" style="stroke:none;fill:#003366;"/>
</a>
<a xlink:href="fastTotal-0x31805c80.svg">
<text x="49.800000" y="134.000000" font-family="Arial" font-size="7" text-anchor="middle" fill="#FFFFFF">fastTotal(5)</text>
</a>
<circle cx="26.000000" cy="122.000000" r="1"/>
<rect x="92.600000" y="105.000000" width="24.000000" height="24.000000" rx="0" ry="0" style="stroke:none;fill:#cccccc;"/>
<rect x="91.600000" y="104.000000" width="24.000000" height="24.000000" rx="0" ry="0" style="stroke:none;fill:#4B71A1;"/>
<text x="103.600000" y="118.000000" font-family="Arial" font-size="7" text-anchor="middle" fill="#FFFFFF">+</text>
<circle cx="93.600000" cy="106.000000" r="1"/>
<line x1="88.600000" y1="111.000000" x2="91.600000" y2="112.000000"  transform="rotate(0.000000,91.600000,112.000000)" style="stroke: black; stroke-width:0.25;"/>
<line x1="88.600000" y1="113.000000" x2="91.600000" y2="112.000000"  transform="rotate(0.000000,91.600000,112.000000)" style="stroke: black; stroke-width:0.25;"/>
<line x1="88.600000" y1="119.000000" x2="91.600000" y2="120.000000"  transform="rotate(0.000000,91.600000,120.000000)" style="stroke: black; stroke-width:0.25;"/>
<line x1="88.600000" y1="121.000000" x2="91.600000" y2="120.000000"  transform="rotate(0.000000,91.600000,120.000000)" style="stroke: black; stroke-width:0.25;"/>
<rect x="58.800000" y="153.000000" width="24.000000" height="24.000000" rx="0" ry="0" style="stroke:none;fill:#cccccc;"/>
<rect x="57.800000" y="152.000000" width="24.000000" height="24.000000" rx="0" ry="0" style="stroke:none;fill:#f44800;"/>
<text x="69.800000" y="166.000000" font-family="Arial" font-size="7" text-anchor="middle" fill="#FFFFFF">10</text>
<circle cx="59.800000" cy="154.000000" r="1"/>
<rect x="132.600000" y="121.000000" width="24.000000" height="24.000000" rx="0" ry="0" style="stroke:none;fill:#cccccc;"/>
<rect x="131.600000" y="120.000000" width="24.000000" height="24.000000" rx="0" ry="0" style="stroke:none;fill:#4B71A1;"/>
<text x="143.600000" y="134.000000" font-family="Arial" font-size="7" text-anchor="middle" fill="#FFFFFF">+</text>
<circle cx="133.600000" cy="122.000000" r="1"/>
<line x1="128.600000" y1="127.000000" x2="131.600000" y2="128.000000"  transform="rotate(0.000000,131.600000,128.000000)" style="stroke: black; stroke-width:0.25;"/>
<line x1="128.600000" y1="129.000000" x2="131.600000" y2="128.000000"  transform="rotate(0.000000,131.600000,128.000000)" style="stroke: black; stroke-width:0.25;"/>
<line x1="128.600000" y1="135.000000" x2="131.600000" y2="136.000000"  transform="rotate(0.000000,131.600000,136.000000)" style="stroke: black; stroke-width:0.25;"/>
<line x1="128.600000" y1="137.000000" x2="131.600000" y2="136.000000"  transform="rotate(0.000000,131.600000,136.000000)" style="stroke: black; stroke-width:0.25;"/>
<a xlink:href="ms-0x21d9ad0.svg">
<rect x="78.800000" y="185.000000" width="24.000000" height="24.000000" rx="0" ry="0" style="stroke:none;fill:#cccccc;"/>
<rect x="77.800000" y="184.000000" width="24.000000" height="24.000000" rx="0" ry="0" style="stroke:none;fill:#003366;"/>
</a>
<a xlink:href="ms-0x21d9ad0.svg">
<text x="89.800000" y="198.000000" font-family="Arial" font-size="7" text-anchor="middle" fill="#FFFFFF">ms</text>
</a>
<circle cx="79.800000" cy="186.000000" r="1"/>
<rect x="172.600000" y="137.000000" width="24.000000" height="24.000000" rx="0" ry="0" style="stroke:none;fill:#cccccc;"/>
<rect x="171.600000" y="136.000000" width="24.000000" height="24.000000" rx="0" ry="0" style="stroke:none;fill:#4B71A1;"/>
<text x="183.600000" y="150.000000" font-family="Arial" font-size="7" text-anchor="middle" fill="#FFFFFF">*</text>
<circle cx="173.600000" cy="138.000000" r="1"/>
<line x1="168.600000" y1="143.000000" x2="171.600000" y2="144.000000"  transform="rotate(0.000000,171.600000,144.000000)" style="stroke: black; stroke-width:0.25;"/>
<line x1="168.600000" y1="145.000000" x2="171.600000" y2="144.000000"  transform="rotate(0.000000,171.600000,144.000000)" style="stroke: black; stroke-width:0.25;"/>
<line x1="168.600000" y1="151.000000" x2="171.600000" y2="152.000000"  transform="rotate(0.000000,171.600000,152.000000)" style="stroke: black; stroke-width:0.25;"/>
<line x1="168.600000" y1="153.000000" x2="171.600000" y2="152.000000"  transform="rotate(0.000000,171.600000,152.000000)" style="stroke: black; stroke-width:0.25;"/>
<rect x="98.800000" y="217.000000" width="24.000000" height="24.000000" rx="0" ry="0" style="stroke:none;fill:#cccccc;"/>
<rect x="97.800000" y="216.000000" width="24.000000" height="24.000000" rx="0" ry="0" style="stroke:none;fill:#47945E;"/>
<text x="109.800000" y="230.000000" font-family="Arial" font-size="7" text-anchor="middle" fill="#FFFFFF">d0</text>
<circle cx="99.800000" cy="218.000000" r="1"/>
<rect x="212.600000" y="153.000000" width="24.000000" height="24.000000" rx="0" ry="0" style="stroke:none;fill:#cccccc;"/>
<rect x="211.600000" y="152.000000" width="24.000000" height="24.000000" rx="0" ry="0" style="stroke:none;fill:#4B71A1;"/>
<text x="223.600000" y="166.000000" font-family="Arial" font-size="7" text-anchor="middle" fill="#FFFFFF">!=</text>
<circle cx="213.600000" cy="154.000000" r="1"/>
<line x1="208.600000" y1="159.000000" x2="211.600000" y2="160.000000"  transform="rotate(0.000000,211.600000,160.000000)" style="stroke: black; stroke-width:0.25;"/>
<line x1="208.600000" y1="161.000000" x2="211.600000" y2="160.000000"  transform="rotate(0.000000,211.600000,160.000000)" style="stroke: black; stroke-width:0.25;"/>
<line x1="208.600000" y1="167.000000" x2="211.600000" y2="168.000000"  transform="rotate(0.000000,211.600000,168.000000)" style="stroke: black; stroke-width:0.25;"/>
<line x1="208.600000" y1="169.000000" x2="211.600000" y2="168.000000"  transform="rotate(0.000000,211.600000,168.000000)" style="stroke: black; stroke-width:0.25;"/>
<rect x="252.600000" y="121.000000" width="24.000000" height="24.000000" rx="0" ry="0" style="stroke:none;fill:#cccccc;"/>
<rect x="251.600000" y="120.000000" width="24.000000" height="24.000000" rx="0" ry="0" style="stroke:none;fill:#4B71A1;"/>
<text x="263.600000" y="134.000000" font-family="Arial" font-size="7" text-anchor="middle" fill="#FFFFFF">&amp;</text>
<circle cx="253.600000" cy="122.000000" r="1"/>
<line x1="248.600000" y1="127.000000" x2="251.600000" y2="128.000000"  transform="rotate(0.000000,251.600000,128.000000)" style="stroke: black; stroke-width:0.25;"/>
<line x1="248.600000" y1="129.000000" x2="251.600000" y2="128.000000"  transform="rotate(0.000000,251.600000,128.000000)" style="stroke: black; stroke-width:0.25;"/>
<line x1="248.600000" y1="135.000000" x2="251.600000" y2="136.000000"  transform="rotate(0.000000,251.600000,136.000000)" style="stroke: black; stroke-width:0.25;"/>
<line x1="248.600000" y1="137.000000" x2="251.600000" y2="136.000000"  transform="rotate(0.000000,251.600000,136.000000)" style="stroke: black; stroke-width:0.25;"/>
<a xlink:href="if-0x31a83c20.svg">
<rect x="79.850000" y="249.000000" width="141.900000" height="24.000000" rx="0" ry="0" style="stroke:none;fill:#cccccc;"/>
<rect x="78.850000" y="248.000000" width="141.900000" height="24.000000" rx="0" ry="0" style="stroke:none;fill:#003366;"/>
</a>
<a xlink:href="if-0x31a83c20.svg">
<text x="149.800000" y="262.000000" font-family="Arial" font-size="7" text-anchor="middle" fill="#FFFFFF">if((x3688,1.0....0009765625f)(0)</text>
</a>
<circle cx="80.850000" cy="250.000000" r="1"/>
<rect x="125.000000" y="281.000000" width="51.600000" height="24.000000" rx="0" ry="0" style="stroke:none;fill:#cccccc;"/>
<rect x="124.000000" y="280.000000" width="51.600000" height="24.000000" rx="0" ry="0" style="stroke:none;fill:#f44800;"/>
<text x="149.800000" y="294.000000" font-family="Arial" font-size="7" text-anchor="middle" fill="#FFFFFF">0.000976562</text>
<circle cx="126.000000" cy="282.000000" r="1"/>
<rect x="300.600000" y="153.000000" width="38.700000" height="24.000000" rx="0" ry="0" style="stroke:none;fill:#cccccc;"/>
<rect x="299.600000" y="152.000000" width="38.700000" height="24.000000" rx="0" ry="0" style="stroke:none;fill:#4B71A1;"/>
<text x="318.950000" y="166.000000" font-family="Arial" font-size="7" text-anchor="middle" fill="#FFFFFF">select2</text>
<circle cx="301.600000" cy="154.000000" r="1"/>
<line x1="296.600000" y1="155.000000" x2="299.600000" y2="156.000000"  transform="rotate(0.000000,299.600000,156.000000)" style="stroke: black; stroke-width:0.25;"/>
<line x1="296.600000" y1="157.000000" x2="299.600000" y2="156.000000"  transform="rotate(0.000000,299.600000,156.000000)" style="stroke: black; stroke-width:0.25;"/>
<line x1="296.600000" y1="163.000000" x2="299.600000" y2="164.000000"  transform="rotate(0.000000,299.600000,164.000000)" style="stroke: black; stroke-width:0.25;"/>
<line x1="296.600000" y1="165.000000" x2="299.600000" y2="164.000000"  transform="rotate(0.000000,299.600000,164.000000)" style="stroke: black; stroke-width:0.25;"/>
<line x1="296.600000" y1="171.000000" x2="299.600000" y2="172.000000"  transform="rotate(0.000000,299.600000,172.000000)" style="stroke: black; stroke-width:0.25;"/>
<line x1="296.600000" y1="173.000000" x2="299.600000" y2="172.000000"  transform="rotate(0.000000,299.600000,172.000000)" style="stroke: black; stroke-width:0.25;"/>
<line x1="15.000000" y1="15.000000" x2="15.000000" y2="313.000000"  style="stroke: black; stroke-linecap:round; stroke-width:0.25; stroke-dasharray:3,3;"/>
<line x1="15.000000" y1="313.000000" x2="355.300000" y2="313.000000"  style="stroke: black; stroke-linecap:round; stroke-width:0.25; stroke-dasharray:3,3;"/>
<line x1="355.300000" y1="313.000000" x2="355.300000" y2="15.000000"  style="stroke: black; stroke-linecap:round; stroke-width:0.25; stroke-dasharray:3,3;"/>
<line x1="15.000000" y1="15.000000" x2="20.000000" y2="15.000000"  style="stroke: black; stroke-linecap:round; stroke-width:0.25; stroke-dasharray:3,3;"/>
<line x1="119.975000" y1="15.000000" x2="355.300000" y2="15.000000"  style="stroke: black; stroke-linecap:round; stroke-width:0.25; stroke-dasharray:3,3;"/>
<text x="20.000000" y="17.000000" font-family="Arial" font-size="7">if((x3688,0.0...5f : select2)</text>
<line x1="357.300000" y1="163.000000" x2="360.300000" y2="164.000000"  transform="rotate(0.000000,360.300000,164.000000)" style="stroke: black; stroke-width:0.25;"/>
<line x1="357.300000" y1="165.000000" x2="360.300000" y2="164.000000"  transform="rotate(0.000000,360.300000,164.000000)" style="stroke: black; stroke-width:0.25;"/>
<line x1="75.600000" y1="100.000000" x2="79.600000" y2="100.000000"  style="stroke:black; stroke-linecap:round; stroke-width:0.25;"/>
<line x1="75.600000" y1="132.000000" x2="79.600000" y2="132.000000"  style="stroke:black; stroke-linecap:round; stroke-width:0.25;"/>
<line x1="79.600000" y1="100.000000" x2="87.600000" y2="100.000000"  style="stroke:black; stroke-linecap:round; stroke-width:0.25;"/>
<line x1="79.600000" y1="120.000000" x2="87.600000" y2="120.000000"  style="stroke:black; stroke-linecap:round; stroke-width:0.25;"/>
<line x1="79.600000" y1="132.000000" x2="79.600000" y2="120.000000"  style="stroke:black; stroke-linecap:round; stroke-width:0.25;"/>
<line x1="79.600000" y1="132.000000" x2="79.600000" y2="132.000000"  style="stroke:black; stroke-linecap:round; stroke-width:0.25;"/>
<line x1="81.800000" y1="164.000000" x2="85.800000" y2="164.000000"  style="stroke:black; stroke-linecap:round; stroke-width:0.25;"/>
<line x1="85.800000" y1="164.000000" x2="119.600000" y2="164.000000"  style="stroke:black; stroke-linecap:round; stroke-width:0.25;"/>
<line x1="87.600000" y1="100.000000" x2="87.600000" y2="112.000000"  style="stroke:black; stroke-linecap:round; stroke-width:0.25;"/>
<line x1="87.600000" y1="112.000000" x2="87.600000" y2="112.000000"  style="stroke:black; stroke-linecap:round; stroke-width:0.25;"/>
<line x1="87.600000" y1="112.000000" x2="91.600000" y2="112.000000"  style="stroke:black; stroke-linecap:round; stroke-width:0.25;"/>
<line x1="87.600000" y1="120.000000" x2="91.600000" y2="120.000000"  style="stroke:black; stroke-linecap:round; stroke-width:0.25;"/>
<line x1="101.800000" y1="196.000000" x2="105.800000" y2="196.000000"  style="stroke:black; stroke-linecap:round; stroke-width:0.25;"/>
<line x1="105.800000" y1="196.000000" x2="159.600000" y2="196.000000"  style="stroke:black; stroke-linecap:round; stroke-width:0.25;"/>
<line x1="115.600000" y1="116.000000" x2="119.600000" y2="116.000000"  style="stroke:black; stroke-linecap:round; stroke-width:0.25;"/>
<line x1="119.600000" y1="116.000000" x2="127.600000" y2="116.000000"  style="stroke:black; stroke-linecap:round; stroke-width:0.25;"/>
<line x1="119.600000" y1="136.000000" x2="127.600000" y2="136.000000"  style="stroke:black; stroke-linecap:round; stroke-width:0.25;"/>
<line x1="119.600000" y1="164.000000" x2="119.600000" y2="136.000000"  style="stroke:black; stroke-linecap:round; stroke-width:0.25;"/>
<line x1="119.600000" y1="164.000000" x2="119.600000" y2="164.000000"  style="stroke:black; stroke-linecap:round; stroke-width:0.25;"/>
<line x1="121.800000" y1="36.000000" x2="125.800000" y2="36.000000"  style="stroke:black; stroke-linecap:round; stroke-width:0.25;"/>
<line x1="121.800000" y1="68.000000" x2="125.800000" y2="68.000000"  style="stroke:black; stroke-linecap:round; stroke-width:0.25;"/>
<line x1="121.800000" y1="228.000000" x2="125.800000" y2="228.000000"  style="stroke:black; stroke-linecap:round; stroke-width:0.25;"/>
<line x1="125.800000" y1="36.000000" x2="133.800000" y2="36.000000"  style="stroke:black; stroke-linecap:round; stroke-width:0.25;"/>
<line x1="125.800000" y1="56.000000" x2="133.800000" y2="56.000000"  style="stroke:black; stroke-linecap:round; stroke-width:0.25;"/>
<line x1="125.800000" y1="68.000000" x2="125.800000" y2="56.000000"  style="stroke:black; stroke-linecap:round; stroke-width:0.25;"/>
<line x1="125.800000" y1="68.000000" x2="125.800000" y2="68.000000"  style="stroke:black; stroke-linecap:round; stroke-width:0.25;"/>
<line x1="125.800000" y1="228.000000" x2="199.600000" y2="228.000000"  style="stroke:black; stroke-linecap:round; stroke-width:0.25;"/>
<line x1="127.600000" y1="116.000000" x2="127.600000" y2="128.000000"  style="stroke:black; stroke-linecap:round; stroke-width:0.25;"/>
<line x1="127.600000" y1="128.000000" x2="127.600000" y2="128.000000"  style="stroke:black; stroke-linecap:round; stroke-width:0.25;"/>
<line x1="127.600000" y1="128.000000" x2="131.600000" y2="128.000000"  style="stroke:black; stroke-linecap:round; stroke-width:0.25;"/>
<line x1="127.600000" y1="136.000000" x2="131.600000" y2="136.000000"  style="stroke:black; stroke-linecap:round; stroke-width:0.25;"/>
<line x1="133.800000" y1="36.000000" x2="133.800000" y2="48.000000"  style="stroke:black; stroke-linecap:round; stroke-width:0.25;"/>
<line x1="133.800000" y1="48.000000" x2="133.800000" y2="48.000000"  style="stroke:black; stroke-linecap:round; stroke-width:0.25;"/>
<line x1="133.800000" y1="48.000000" x2="137.800000" y2="48.000000"  style="stroke:black; stroke-linecap:round; stroke-width:0.25;"/>
<line x1="133.800000" y1="56.000000" x2="137.800000" y2="56.000000"  style="stroke:black; stroke-linecap:round; stroke-width:0.25;"/>
<line x1="155.600000" y1="132.000000" x2="159.600000" y2="132.000000"  style="stroke:black; stroke-linecap:round; stroke-width:0.25;"/>
<line x1="159.600000" y1="132.000000" x2="167.600000" y2="132.000000"  style="stroke:black; stroke-linecap:round; stroke-width:0.25;"/>
<line x1="159.600000" y1="152.000000" x2="167.600000" y2="152.000000"  style="stroke:black; stroke-linecap:round; stroke-width:0.25;"/>
<line x1="159.600000" y1="196.000000" x2="159.600000" y2="152.000000"  style="stroke:black; stroke-linecap:round; stroke-width:0.25;"/>
<line x1="159.600000" y1="196.000000" x2="159.600000" y2="196.000000"  style="stroke:black; stroke-linecap:round; stroke-width:0.25;"/>
<line x1="161.800000" y1="52.000000" x2="165.800000" y2="52.000000"  style="stroke:black; stroke-linecap:round; stroke-width:0.25;"/>
<line x1="165.800000" y1="52.000000" x2="239.600000" y2="52.000000"  style="stroke:black; stroke-linecap:round; stroke-width:0.25;"/>
<line x1="167.600000" y1="132.000000" x2="167.600000" y2="144.000000"  style="stroke:black; stroke-linecap:round; stroke-width:0.25;"/>
<line x1="167.600000" y1="144.000000" x2="167.600000" y2="144.000000"  style="stroke:black; stroke-linecap:round; stroke-width:0.25;"/>
<line x1="167.600000" y1="144.000000" x2="171.600000" y2="144.000000"  style="stroke:black; stroke-linecap:round; stroke-width:0.25;"/>
<line x1="167.600000" y1="152.000000" x2="171.600000" y2="152.000000"  style="stroke:black; stroke-linecap:round; stroke-width:0.25;"/>
<line x1="175.600000" y1="292.000000" x2="179.600000" y2="292.000000"  style="stroke:black; stroke-linecap:round; stroke-width:0.25;"/>
<line x1="179.600000" y1="292.000000" x2="224.750000" y2="292.000000"  style="stroke:black; stroke-linecap:round; stroke-width:0.25;"/>
<line x1="195.600000" y1="148.000000" x2="199.600000" y2="148.000000"  style="stroke:black; stroke-linecap:round; stroke-width:0.25;"/>
<line x1="199.600000" y1="148.000000" x2="207.600000" y2="148.000000"  style="stroke:black; stroke-linecap:round; stroke-width:0.25;"/>
<line x1="199.600000" y1="168.000000" x2="207.600000" y2="168.000000"  style="stroke:black; stroke-linecap:round; stroke-width:0.25;"/>
<line x1="199.600000" y1="228.000000" x2="199.600000" y2="168.000000"  style="stroke:black; stroke-linecap:round; stroke-width:0.25;"/>
<line x1="199.600000" y1="228.000000" x2="199.600000" y2="228.000000"  style="stroke:black; stroke-linecap:round; stroke-width:0.25;"/>
<line x1="207.600000" y1="148.000000" x2="207.600000" y2="160.000000"  style="stroke:black; stroke-linecap:round; stroke-width:0.25;"/>
<line x1="207.600000" y1="160.000000" x2="207.600000" y2="160.000000"  style="stroke:black; stroke-linecap:round; stroke-width:0.25;"/>
<line x1="207.600000" y1="160.000000" x2="211.600000" y2="160.000000"  style="stroke:black; stroke-linecap:round; stroke-width:0.25;"/>
<line x1="207.600000" y1="168.000000" x2="211.600000" y2="168.000000"  style="stroke:black; stroke-linecap:round; stroke-width:0.25;"/>
<line x1="220.750000" y1="260.000000" x2="224.750000" y2="260.000000"  style="stroke:black; stroke-linecap:round; stroke-width:0.25;"/>
<line x1="224.750000" y1="260.000000" x2="279.600000" y2="260.000000"  style="stroke:black; stroke-linecap:round; stroke-width:0.25;"/>
<line x1="224.750000" y1="292.000000" x2="279.600000" y2="292.000000"  style="stroke:black; stroke-linecap:round; stroke-width:0.25;"/>
<line x1="235.600000" y1="164.000000" x2="239.600000" y2="164.000000"  style="stroke:black; stroke-linecap:round; stroke-width:0.25;"/>
<line x1="239.600000" y1="136.000000" x2="247.600000" y2="136.000000"  style="stroke:black; stroke-linecap:round; stroke-width:0.25;"/>
<line x1="239.600000" y1="164.000000" x2="239.600000" y2="136.000000"  style="stroke:black; stroke-linecap:round; stroke-width:0.25;"/>
<line x1="239.600000" y1="164.000000" x2="239.600000" y2="164.000000"  style="stroke:black; stroke-linecap:round; stroke-width:0.25;"/>
<line x1="239.600000" y1="52.000000" x2="247.600000" y2="52.000000"  style="stroke:black; stroke-linecap:round; stroke-width:0.25;"/>
<line x1="247.600000" y1="128.000000" x2="251.600000" y2="128.000000"  style="stroke:black; stroke-linecap:round; stroke-width:0.25;"/>
<line x1="247.600000" y1="136.000000" x2="251.600000" y2="136.000000"  style="stroke:black; stroke-linecap:round; stroke-width:0.25;"/>
<line x1="247.600000" y1="52.000000" x2="247.600000" y2="128.000000"  style="stroke:black; stroke-linecap:round; stroke-width:0.25;"/>
<line x1="247.600000" y1="128.000000" x2="247.600000" y2="128.000000"  style="stroke:black; stroke-linecap:round; stroke-width:0.25;"/>
<line x1="275.600000" y1="132.000000" x2="279.600000" y2="132.000000"  style="stroke:black; stroke-linecap:round; stroke-width:0.25;"/>
<line x1="279.600000" y1="132.000000" x2="295.600000" y2="132.000000"  style="stroke:black; stroke-linecap:round; stroke-width:0.25;"/>
<line x1="279.600000" y1="164.000000" x2="295.600000" y2="164.000000"  style="stroke:black; stroke-linecap:round; stroke-width:0.25;"/>
<line x1="279.600000" y1="260.000000" x2="279.600000" y2="164.000000"  style="stroke:black; stroke-linecap:round; stroke-width:0.25;"/>
<line x1="279.600000" y1="260.000000" x2="279.600000" y2="260.000000"  style="stroke:black; stroke-linecap:round; stroke-width:0.25;"/>
<line x1="279.600000" y1="292.000000" x2="287.600000" y2="292.000000"  style="stroke:black; stroke-linecap:round; stroke-width:0.25;"/>
<line x1="287.600000" y1="172.000000" x2="295.600000" y2="172.000000"  style="stroke:black; stroke-linecap:round; stroke-width:0.25;"/>
<line x1="287.600000" y1="292.000000" x2="287.600000" y2="172.000000"  style="stroke:black; stroke-linecap:round; stroke-width:0.25;"/>
<line x1="295.600000" y1="132.000000" x2="295.600000" y2="156.000000"  style="stroke:black; stroke-linecap:round; stroke-width:0.25;"/>
<line x1="295.600000" y1="156.000000" x2="295.600000" y2="156.000000"  style="stroke:black; stroke-linecap:round; stroke-width:0.25;"/>
<line x1="295.600000" y1="156.000000" x2="299.600000" y2="156.000000"  style="stroke:black; stroke-linecap:round; stroke-width:0.25;"/>
<line x1="295.600000" y1="164.000000" x2="299.600000" y2="164.000000"  style="stroke:black; stroke-linecap:round; stroke-width:0.25;"/>
<line x1="295.600000" y1="172.000000" x2="299.600000" y2="172.000000"  style="stroke:black; stroke-linecap:round; stroke-width:0.25;"/>
<line x1="338.300000" y1="164.000000" x2="342.300000" y2="164.000000"  style="stroke:black; stroke-linecap:round; stroke-width:0.25;"/>
<line x1="342.300000" y1="164.000000" x2="342.300000" y2="164.000000"  style="stroke:black; stroke-linecap:round; stroke-width:0.25;"/>
<line x1="342.300000" y1="164.000000" x2="346.300000" y2="164.000000"  style="stroke:black; stroke-linecap:round; stroke-width:0.25;"/>
<line x1="346.300000" y1="164.000000" x2="350.300000" y2="164.000000"  style="stroke:black; stroke-linecap:round; stroke-width:0.25;"/>
<line x1="350.300000" y1="164.000000" x2="360.300000" y2="164.000000"  style="stroke:black; stroke-linecap:round; stroke-width:0.25;"/>
</svg>
