<?xml version="1.0"?>
<svg xmlns="http://www.w3.org/2000/svg" xmlns:xlink="http://www.w3.org/1999/xlink" viewBox="0 0 211.600000 144.000000" width="105.800000mm" height="72.000000mm" version="1.1">
<a xlink:href="saw1l-0x2ea69230.svg">
<rect x="1.000000" y="1.000000" width="210.600000" height="143.000000" rx="0" ry="0" style="stroke:none;fill:#cccccc;"/>
<rect x="0.000000" y="0.000000" width="210.600000" height="143.000000" rx="0" ry="0" style="stroke:none;fill:#ffffff;"/>
</a>
<text x="10.000000" y="7.000000" font-family="Arial" font-size="7"></text>
<a xlink:href="fracPart-0x2ea13bf0.svg">
<rect x="79.450000" y="97.000000" width="38.700000" height="24.000000" rx="0" ry="0" style="stroke:none;fill:#cccccc;"/>
<rect x="78.450000" y="96.000000" width="38.700000" height="24.000000" rx="0" ry="0" style="stroke:none;fill:#003366;"/>
</a>
<a xlink:href="fracPart-0x2ea13bf0.svg">
<text x="97.800000" y="110.000000" font-family="Arial" font-size="7" text-anchor="middle" fill="#FFFFFF">fracPart</text>
</a>
<circle cx="80.450000" cy="98.000000" r="1"/>
<line x1="75.450000" y1="107.000000" x2="78.450000" y2="108.000000"  transform="rotate(0.000000,78.450000,108.000000)" style="stroke: black; stroke-width:0.25;"/>
<line x1="75.450000" y1="109.000000" x2="78.450000" y2="108.000000"  transform="rotate(0.000000,78.450000,108.000000)" style="stroke: black; stroke-width:0.25;"/>
<a xlink:href="clippedFreq-0x2ea68af0.svg">
<rect x="113.000000" y="57.000000" width="51.600000" height="24.000000" rx="0" ry="0" style="stroke:none;fill:#cccccc;"/>
<rect x="112.000000" y="56.000000" width="51.600000" height="24.000000" rx="0" ry="0" style="stroke:none;fill:#003366;"/>
</a>
<a xlink:href="clippedFreq-0x2ea68af0.svg">
<text x="137.800000" y="70.000000" font-family="Arial" font-size="7" text-anchor="middle" fill="#FFFFFF">clippedFreq</text>
</a>
<circle cx="161.600000" cy="78.000000" r="1"/>
<a xlink:href="samplingfreq-0x1ffc980.svg">
<rect x="113.000000" y="25.000000" width="51.600000" height="24.000000" rx="0" ry="0" style="stroke:none;fill:#cccccc;"/>
<rect x="112.000000" y="24.000000" width="51.600000" height="24.000000" rx="0" ry="0" style="stroke:none;fill:#003366;"/>
</a>
<a xlink:href="samplingfreq-0x1ffc980.svg">
<text x="137.800000" y="38.000000" font-family="Arial" font-size="7" text-anchor="middle" fill="#FFFFFF">samplingfreq</text>
</a>
<circle cx="161.600000" cy="46.000000" r="1"/>
<rect x="73.000000" y="41.000000" width="24.000000" height="24.000000" rx="0" ry="0" style="stroke:none;fill:#cccccc;"/>
<rect x="72.000000" y="40.000000" width="24.000000" height="24.000000" rx="0" ry="0" style="stroke:none;fill:#4B71A1;"/>
<text x="84.000000" y="54.000000" font-family="Arial" font-size="7" text-anchor="middle" fill="#FFFFFF">/</text>
<circle cx="94.000000" cy="62.000000" r="1"/>
<line x1="99.000000" y1="55.000000" x2="96.000000" y2="56.000000"  transform="rotate(0.000000,96.000000,56.000000)" style="stroke: black; stroke-width:0.25;"/>
<line x1="99.000000" y1="57.000000" x2="96.000000" y2="56.000000"  transform="rotate(0.000000,96.000000,56.000000)" style="stroke: black; stroke-width:0.25;"/>
<line x1="99.000000" y1="47.000000" x2="96.000000" y2="48.000000"  transform="rotate(0.000000,96.000000,48.000000)" style="stroke: black; stroke-width:0.25;"/>
<line x1="99.000000" y1="49.000000" x2="96.000000" y2="48.000000"  transform="rotate(0.000000,96.000000,48.000000)" style="stroke: black; stroke-width:0.25;"/>
<rect x="33.000000" y="45.000000" width="24.000000" height="24.000000" rx="0" ry="0" style="stroke:none;fill:#cccccc;"/>
<rect x="32.000000" y="44.000000" width="24.000000" height="24.000000" rx="0" ry="0" style="stroke:none;fill:#4B71A1;"/>
<text x="44.000000" y="58.000000" font-family="Arial" font-size="7" text-anchor="middle" fill="#FFFFFF">+</text>
<circle cx="54.000000" cy="66.000000" r="1"/>
<line x1="59.000000" y1="59.000000" x2="56.000000" y2="60.000000"  transform="rotate(0.000000,56.000000,60.000000)" style="stroke: black; stroke-width:0.25;"/>
<line x1="59.000000" y1="61.000000" x2="56.000000" y2="60.000000"  transform="rotate(0.000000,56.000000,60.000000)" style="stroke: black; stroke-width:0.25;"/>
<line x1="59.000000" y1="51.000000" x2="56.000000" y2="52.000000"  transform="rotate(0.000000,56.000000,52.000000)" style="stroke: black; stroke-width:0.25;"/>
<line x1="59.000000" y1="53.000000" x2="56.000000" y2="52.000000"  transform="rotate(0.000000,56.000000,52.000000)" style="stroke: black; stroke-width:0.25;"/>
<line x1="165.600000" y1="108.000000" x2="165.600000" y2="104.000000"  style="stroke:black; stroke-linecap:round; stroke-width:0.25;"/>
<line x1="165.600000" y1="104.000000" x2="169.600000" y2="104.000000"  style="stroke:black; stroke-linecap:round; stroke-width:0.25;"/>
<line x1="169.600000" y1="104.000000" x2="169.600000" y2="108.000000"  style="stroke:black; stroke-linecap:round; stroke-width:0.25;"/>
<line x1="15.000000" y1="15.000000" x2="15.000000" y2="129.000000"  style="stroke: black; stroke-linecap:round; stroke-width:0.25; stroke-dasharray:3,3;"/>
<line x1="15.000000" y1="129.000000" x2="196.600000" y2="129.000000"  style="stroke: black; stroke-linecap:round; stroke-width:0.25; stroke-dasharray:3,3;"/>
<line x1="196.600000" y1="129.000000" x2="196.600000" y2="15.000000"  style="stroke: black; stroke-linecap:round; stroke-width:0.25; stroke-dasharray:3,3;"/>
<line x1="15.000000" y1="15.000000" x2="20.000000" y2="15.000000"  style="stroke: black; stroke-linecap:round; stroke-width:0.25; stroke-dasharray:3,3;"/>
<line x1="119.975000" y1="15.000000" x2="196.600000" y2="15.000000"  style="stroke: black; stroke-linecap:round; stroke-width:0.25; stroke-dasharray:3,3;"/>
<text x="20.000000" y="17.000000" font-family="Arial" font-size="7">lf_sawpos(2e+...: abs) : max)</text>
<line x1="198.600000" y1="71.000000" x2="201.600000" y2="72.000000"  transform="rotate(0.000000,201.600000,72.000000)" style="stroke: black; stroke-width:0.25;"/>
<line x1="198.600000" y1="73.000000" x2="201.600000" y2="72.000000"  transform="rotate(0.000000,201.600000,72.000000)" style="stroke: black; stroke-width:0.25;"/>
<line x1="28.000000" y1="56.000000" x2="28.000000" y2="56.000000"  style="stroke:black; stroke-linecap:round; stroke-width:0.25;"/>
<line x1="28.000000" y1="56.000000" x2="28.000000" y2="108.000000"  style="stroke:black; stroke-linecap:round; stroke-width:0.25;"/>
<line x1="28.000000" y1="108.000000" x2="28.000000" y2="108.000000"  style="stroke:black; stroke-linecap:round; stroke-width:0.25;"/>
<line x1="28.000000" y1="108.000000" x2="74.450000" y2="108.000000"  style="stroke:black; stroke-linecap:round; stroke-width:0.25;"/>
<line x1="32.000000" y1="56.000000" x2="28.000000" y2="56.000000"  style="stroke:black; stroke-linecap:round; stroke-width:0.25;"/>
<line x1="60.000000" y1="52.000000" x2="56.000000" y2="52.000000"  style="stroke:black; stroke-linecap:round; stroke-width:0.25;"/>
<line x1="60.000000" y1="60.000000" x2="56.000000" y2="60.000000"  style="stroke:black; stroke-linecap:round; stroke-width:0.25;"/>
<line x1="60.000000" y1="60.000000" x2="60.000000" y2="60.000000"  style="stroke:black; stroke-linecap:round; stroke-width:0.25;"/>
<line x1="60.000000" y1="88.000000" x2="60.000000" y2="60.000000"  style="stroke:black; stroke-linecap:round; stroke-width:0.25;"/>
<line x1="68.000000" y1="52.000000" x2="60.000000" y2="52.000000"  style="stroke:black; stroke-linecap:round; stroke-width:0.25;"/>
<line x1="68.000000" y1="88.000000" x2="60.000000" y2="88.000000"  style="stroke:black; stroke-linecap:round; stroke-width:0.25;"/>
<line x1="72.000000" y1="52.000000" x2="68.000000" y2="52.000000"  style="stroke:black; stroke-linecap:round; stroke-width:0.25;"/>
<line x1="74.450000" y1="108.000000" x2="78.450000" y2="108.000000"  style="stroke:black; stroke-linecap:round; stroke-width:0.25;"/>
<line x1="100.000000" y1="48.000000" x2="96.000000" y2="48.000000"  style="stroke:black; stroke-linecap:round; stroke-width:0.25;"/>
<line x1="100.000000" y1="56.000000" x2="96.000000" y2="56.000000"  style="stroke:black; stroke-linecap:round; stroke-width:0.25;"/>
<line x1="100.000000" y1="56.000000" x2="100.000000" y2="56.000000"  style="stroke:black; stroke-linecap:round; stroke-width:0.25;"/>
<line x1="100.000000" y1="68.000000" x2="100.000000" y2="56.000000"  style="stroke:black; stroke-linecap:round; stroke-width:0.25;"/>
<line x1="108.000000" y1="36.000000" x2="108.000000" y2="36.000000"  style="stroke:black; stroke-linecap:round; stroke-width:0.25;"/>
<line x1="108.000000" y1="36.000000" x2="108.000000" y2="48.000000"  style="stroke:black; stroke-linecap:round; stroke-width:0.25;"/>
<line x1="108.000000" y1="48.000000" x2="100.000000" y2="48.000000"  style="stroke:black; stroke-linecap:round; stroke-width:0.25;"/>
<line x1="108.000000" y1="68.000000" x2="100.000000" y2="68.000000"  style="stroke:black; stroke-linecap:round; stroke-width:0.25;"/>
<line x1="112.000000" y1="36.000000" x2="108.000000" y2="36.000000"  style="stroke:black; stroke-linecap:round; stroke-width:0.25;"/>
<line x1="112.000000" y1="68.000000" x2="108.000000" y2="68.000000"  style="stroke:black; stroke-linecap:round; stroke-width:0.25;"/>
<line x1="117.150000" y1="108.000000" x2="121.150000" y2="108.000000"  style="stroke:black; stroke-linecap:round; stroke-width:0.25;"/>
<line x1="117.800000" y1="88.000000" x2="68.000000" y2="88.000000"  style="stroke:black; stroke-linecap:round; stroke-width:0.25;"/>
<line x1="121.150000" y1="108.000000" x2="167.600000" y2="108.000000"  style="stroke:black; stroke-linecap:round; stroke-width:0.25;"/>
<line x1="167.600000" y1="88.000000" x2="117.800000" y2="88.000000"  style="stroke:black; stroke-linecap:round; stroke-width:0.25;"/>
<line x1="167.600000" y1="88.000000" x2="167.600000" y2="88.000000"  style="stroke:black; stroke-linecap:round; stroke-width:0.25;"/>
<line x1="167.600000" y1="104.000000" x2="167.600000" y2="88.000000"  style="stroke:black; stroke-linecap:round; stroke-width:0.25;"/>
<line x1="167.600000" y1="108.000000" x2="169.600000" y2="108.000000"  style="stroke:black; stroke-linecap:round; stroke-width:0.25;"/>
<line x1="169.600000" y1="108.000000" x2="175.600000" y2="108.000000"  style="stroke:black; stroke-linecap:round; stroke-width:0.25;"/>
<line x1="175.600000" y1="72.000000" x2="183.600000" y2="72.000000"  style="stroke:black; stroke-linecap:round; stroke-width:0.25;"/>
<line x1="175.600000" y1="108.000000" x2="175.600000" y2="72.000000"  style="stroke:black; stroke-linecap:round; stroke-width:0.25;"/>
<line x1="175.600000" y1="108.000000" x2="175.600000" y2="108.000000"  style="stroke:black; stroke-linecap:round; stroke-width:0.25;"/>
<line x1="183.600000" y1="72.000000" x2="187.600000" y2="72.000000"  style="stroke:black; stroke-linecap:round; stroke-width:0.25;"/>
<line x1="187.600000" y1="72.000000" x2="191.600000" y2="72.000000"  style="stroke:black; stroke-linecap:round; stroke-width:0.25;"/>
<line x1="191.600000" y1="72.000000" x2="201.600000" y2="72.000000"  style="stroke:black; stroke-linecap:round; stroke-width:0.25;"/>
</svg>
