<?xml version="1.0"?>
<svg xmlns="http://www.w3.org/2000/svg" xmlns:xlink="http://www.w3.org/1999/xlink" viewBox="0 0 232.500000 136.000000" width="116.250000mm" height="68.000000mm" version="1.1">
<a xlink:href="hz2pianokey-0x29608d70.svg">
<rect x="1.000000" y="1.000000" width="231.500000" height="135.000000" rx="0" ry="0" style="stroke:none;fill:#cccccc;"/>
<rect x="0.000000" y="0.000000" width="231.500000" height="135.000000" rx="0" ry="0" style="stroke:none;fill:#ffffff;"/>
</a>
<text x="10.000000" y="7.000000" font-family="Arial" font-size="7"></text>
<a xlink:href="vocoderBottom-0x2950e810.svg">
<rect x="25.000000" y="25.000000" width="64.500000" height="24.000000" rx="0" ry="0" style="stroke:none;fill:#cccccc;"/>
<rect x="24.000000" y="24.000000" width="64.500000" height="24.000000" rx="0" ry="0" style="stroke:none;fill:#003366;"/>
</a>
<a xlink:href="vocoderBottom-0x2950e810.svg">
<text x="56.250000" y="38.000000" font-family="Arial" font-size="7" text-anchor="middle" fill="#FFFFFF">vocoderBottom</text>
</a>
<circle cx="26.000000" cy="26.000000" r="1"/>
<rect x="45.250000" y="57.000000" width="24.000000" height="24.000000" rx="0" ry="0" style="stroke:none;fill:#cccccc;"/>
<rect x="44.250000" y="56.000000" width="24.000000" height="24.000000" rx="0" ry="0" style="stroke:none;fill:#f44800;"/>
<text x="56.250000" y="70.000000" font-family="Arial" font-size="7" text-anchor="middle" fill="#FFFFFF">440</text>
<circle cx="46.250000" cy="58.000000" r="1"/>
<rect x="105.500000" y="41.000000" width="24.000000" height="24.000000" rx="0" ry="0" style="stroke:none;fill:#cccccc;"/>
<rect x="104.500000" y="40.000000" width="24.000000" height="24.000000" rx="0" ry="0" style="stroke:none;fill:#4B71A1;"/>
<text x="116.500000" y="54.000000" font-family="Arial" font-size="7" text-anchor="middle" fill="#FFFFFF">/</text>
<circle cx="106.500000" cy="42.000000" r="1"/>
<line x1="101.500000" y1="47.000000" x2="104.500000" y2="48.000000"  transform="rotate(0.000000,104.500000,48.000000)" style="stroke: black; stroke-width:0.25;"/>
<line x1="101.500000" y1="49.000000" x2="104.500000" y2="48.000000"  transform="rotate(0.000000,104.500000,48.000000)" style="stroke: black; stroke-width:0.25;"/>
<line x1="101.500000" y1="55.000000" x2="104.500000" y2="56.000000"  transform="rotate(0.000000,104.500000,56.000000)" style="stroke: black; stroke-width:0.25;"/>
<line x1="101.500000" y1="57.000000" x2="104.500000" y2="56.000000"  transform="rotate(0.000000,104.500000,56.000000)" style="stroke: black; stroke-width:0.25;"/>
<rect x="137.500000" y="41.000000" width="24.000000" height="24.000000" rx="0" ry="0" style="stroke:none;fill:#cccccc;"/>
<rect x="136.500000" y="40.000000" width="24.000000" height="24.000000" rx="0" ry="0" style="stroke:none;fill:#4B71A1;"/>
<text x="148.500000" y="54.000000" font-family="Arial" font-size="7" text-anchor="middle" fill="#FFFFFF">log</text>
<circle cx="138.500000" cy="42.000000" r="1"/>
<line x1="133.500000" y1="51.000000" x2="136.500000" y2="52.000000"  transform="rotate(0.000000,136.500000,52.000000)" style="stroke: black; stroke-width:0.25;"/>
<line x1="133.500000" y1="53.000000" x2="136.500000" y2="52.000000"  transform="rotate(0.000000,136.500000,52.000000)" style="stroke: black; stroke-width:0.25;"/>
<rect x="65.250000" y="89.000000" width="24.000000" height="24.000000" rx="0" ry="0" style="stroke:none;fill:#cccccc;"/>
<rect x="64.250000" y="88.000000" width="24.000000" height="24.000000" rx="0" ry="0" style="stroke:none;fill:#f44800;"/>
<text x="76.250000" y="102.000000" font-family="Arial" font-size="7" text-anchor="middle" fill="#FFFFFF">2</text>
<circle cx="66.250000" cy="90.000000" r="1"/>
<rect x="97.250000" y="89.000000" width="24.000000" height="24.000000" rx="0" ry="0" style="stroke:none;fill:#cccccc;"/>
<rect x="96.250000" y="88.000000" width="24.000000" height="24.000000" rx="0" ry="0" style="stroke:none;fill:#4B71A1;"/>
<text x="108.250000" y="102.000000" font-family="Arial" font-size="7" text-anchor="middle" fill="#FFFFFF">log</text>
<circle cx="98.250000" cy="90.000000" r="1"/>
<line x1="93.250000" y1="99.000000" x2="96.250000" y2="100.000000"  transform="rotate(0.000000,96.250000,100.000000)" style="stroke: black; stroke-width:0.25;"/>
<line x1="93.250000" y1="101.000000" x2="96.250000" y2="100.000000"  transform="rotate(0.000000,96.250000,100.000000)" style="stroke: black; stroke-width:0.25;"/>
<rect x="177.500000" y="57.000000" width="24.000000" height="24.000000" rx="0" ry="0" style="stroke:none;fill:#cccccc;"/>
<rect x="176.500000" y="56.000000" width="24.000000" height="24.000000" rx="0" ry="0" style="stroke:none;fill:#4B71A1;"/>
<text x="188.500000" y="70.000000" font-family="Arial" font-size="7" text-anchor="middle" fill="#FFFFFF">/</text>
<circle cx="178.500000" cy="58.000000" r="1"/>
<line x1="173.500000" y1="63.000000" x2="176.500000" y2="64.000000"  transform="rotate(0.000000,176.500000,64.000000)" style="stroke: black; stroke-width:0.25;"/>
<line x1="173.500000" y1="65.000000" x2="176.500000" y2="64.000000"  transform="rotate(0.000000,176.500000,64.000000)" style="stroke: black; stroke-width:0.25;"/>
<line x1="173.500000" y1="71.000000" x2="176.500000" y2="72.000000"  transform="rotate(0.000000,176.500000,72.000000)" style="stroke: black; stroke-width:0.25;"/>
<line x1="173.500000" y1="73.000000" x2="176.500000" y2="72.000000"  transform="rotate(0.000000,176.500000,72.000000)" style="stroke: black; stroke-width:0.25;"/>
<line x1="15.000000" y1="15.000000" x2="15.000000" y2="121.000000"  style="stroke: black; stroke-linecap:round; stroke-width:0.25; stroke-dasharray:3,3;"/>
<line x1="15.000000" y1="121.000000" x2="217.500000" y2="121.000000"  style="stroke: black; stroke-linecap:round; stroke-width:0.25; stroke-dasharray:3,3;"/>
<line x1="217.500000" y1="121.000000" x2="217.500000" y2="15.000000"  style="stroke: black; stroke-linecap:round; stroke-width:0.25; stroke-dasharray:3,3;"/>
<line x1="15.000000" y1="15.000000" x2="20.000000" y2="15.000000"  style="stroke: black; stroke-linecap:round; stroke-width:0.25; stroke-dasharray:3,3;"/>
<line x1="119.975000" y1="15.000000" x2="217.500000" y2="15.000000"  style="stroke: black; stroke-linecap:round; stroke-width:0.25; stroke-dasharray:3,3;"/>
<text x="20.000000" y="17.000000" font-family="Arial" font-size="7">log2(vgroup(&quot;...4.4e+02f : /)</text>
<line x1="219.500000" y1="67.000000" x2="222.500000" y2="68.000000"  transform="rotate(0.000000,222.500000,68.000000)" style="stroke: black; stroke-width:0.25;"/>
<line x1="219.500000" y1="69.000000" x2="222.500000" y2="68.000000"  transform="rotate(0.000000,222.500000,68.000000)" style="stroke: black; stroke-width:0.25;"/>
<line x1="68.250000" y1="68.000000" x2="72.250000" y2="68.000000"  style="stroke:black; stroke-linecap:round; stroke-width:0.25;"/>
<line x1="72.250000" y1="68.000000" x2="92.500000" y2="68.000000"  style="stroke:black; stroke-linecap:round; stroke-width:0.25;"/>
<line x1="88.250000" y1="100.000000" x2="92.250000" y2="100.000000"  style="stroke:black; stroke-linecap:round; stroke-width:0.25;"/>
<line x1="88.500000" y1="36.000000" x2="92.500000" y2="36.000000"  style="stroke:black; stroke-linecap:round; stroke-width:0.25;"/>
<line x1="92.250000" y1="100.000000" x2="92.250000" y2="100.000000"  style="stroke:black; stroke-linecap:round; stroke-width:0.25;"/>
<line x1="92.250000" y1="100.000000" x2="96.250000" y2="100.000000"  style="stroke:black; stroke-linecap:round; stroke-width:0.25;"/>
<line x1="92.500000" y1="36.000000" x2="100.500000" y2="36.000000"  style="stroke:black; stroke-linecap:round; stroke-width:0.25;"/>
<line x1="92.500000" y1="56.000000" x2="100.500000" y2="56.000000"  style="stroke:black; stroke-linecap:round; stroke-width:0.25;"/>
<line x1="92.500000" y1="68.000000" x2="92.500000" y2="56.000000"  style="stroke:black; stroke-linecap:round; stroke-width:0.25;"/>
<line x1="92.500000" y1="68.000000" x2="92.500000" y2="68.000000"  style="stroke:black; stroke-linecap:round; stroke-width:0.25;"/>
<line x1="100.500000" y1="36.000000" x2="100.500000" y2="48.000000"  style="stroke:black; stroke-linecap:round; stroke-width:0.25;"/>
<line x1="100.500000" y1="48.000000" x2="100.500000" y2="48.000000"  style="stroke:black; stroke-linecap:round; stroke-width:0.25;"/>
<line x1="100.500000" y1="48.000000" x2="104.500000" y2="48.000000"  style="stroke:black; stroke-linecap:round; stroke-width:0.25;"/>
<line x1="100.500000" y1="56.000000" x2="104.500000" y2="56.000000"  style="stroke:black; stroke-linecap:round; stroke-width:0.25;"/>
<line x1="120.250000" y1="100.000000" x2="124.250000" y2="100.000000"  style="stroke:black; stroke-linecap:round; stroke-width:0.25;"/>
<line x1="124.250000" y1="100.000000" x2="164.500000" y2="100.000000"  style="stroke:black; stroke-linecap:round; stroke-width:0.25;"/>
<line x1="128.500000" y1="52.000000" x2="132.500000" y2="52.000000"  style="stroke:black; stroke-linecap:round; stroke-width:0.25;"/>
<line x1="132.500000" y1="52.000000" x2="132.500000" y2="52.000000"  style="stroke:black; stroke-linecap:round; stroke-width:0.25;"/>
<line x1="132.500000" y1="52.000000" x2="136.500000" y2="52.000000"  style="stroke:black; stroke-linecap:round; stroke-width:0.25;"/>
<line x1="160.500000" y1="52.000000" x2="164.500000" y2="52.000000"  style="stroke:black; stroke-linecap:round; stroke-width:0.25;"/>
<line x1="164.500000" y1="52.000000" x2="172.500000" y2="52.000000"  style="stroke:black; stroke-linecap:round; stroke-width:0.25;"/>
<line x1="164.500000" y1="72.000000" x2="172.500000" y2="72.000000"  style="stroke:black; stroke-linecap:round; stroke-width:0.25;"/>
<line x1="164.500000" y1="100.000000" x2="164.500000" y2="72.000000"  style="stroke:black; stroke-linecap:round; stroke-width:0.25;"/>
<line x1="164.500000" y1="100.000000" x2="164.500000" y2="100.000000"  style="stroke:black; stroke-linecap:round; stroke-width:0.25;"/>
<line x1="172.500000" y1="52.000000" x2="172.500000" y2="64.000000"  style="stroke:black; stroke-linecap:round; stroke-width:0.25;"/>
<line x1="172.500000" y1="64.000000" x2="172.500000" y2="64.000000"  style="stroke:black; stroke-linecap:round; stroke-width:0.25;"/>
<line x1="172.500000" y1="64.000000" x2="176.500000" y2="64.000000"  style="stroke:black; stroke-linecap:round; stroke-width:0.25;"/>
<line x1="172.500000" y1="72.000000" x2="176.500000" y2="72.000000"  style="stroke:black; stroke-linecap:round; stroke-width:0.25;"/>
<line x1="200.500000" y1="68.000000" x2="204.500000" y2="68.000000"  style="stroke:black; stroke-linecap:round; stroke-width:0.25;"/>
<line x1="204.500000" y1="68.000000" x2="204.500000" y2="68.000000"  style="stroke:black; stroke-linecap:round; stroke-width:0.25;"/>
<line x1="204.500000" y1="68.000000" x2="208.500000" y2="68.000000"  style="stroke:black; stroke-linecap:round; stroke-width:0.25;"/>
<line x1="208.500000" y1="68.000000" x2="212.500000" y2="68.000000"  style="stroke:black; stroke-linecap:round; stroke-width:0.25;"/>
<line x1="212.500000" y1="68.000000" x2="222.500000" y2="68.000000"  style="stroke:black; stroke-linecap:round; stroke-width:0.25;"/>
</svg>
