<?xml version="1.0"?>
<svg xmlns="http://www.w3.org/2000/svg" xmlns:xlink="http://www.w3.org/1999/xlink" viewBox="0 0 495.300000 532.000000" width="247.650000mm" height="266.000000mm" version="1.1">
<a xlink:href="VocoderLinArr-0x17cfa030.svg">
<rect x="1.000000" y="1.000000" width="494.300000" height="531.000000" rx="0" ry="0" style="stroke:none;fill:#cccccc;"/>
<rect x="0.000000" y="0.000000" width="494.300000" height="531.000000" rx="0" ry="0" style="stroke:none;fill:#ffffff;"/>
</a>
<text x="10.000000" y="7.000000" font-family="Arial" font-size="7"></text>
<a xlink:href="midToTop-0x17c7dd40.svg">
<rect x="178.850000" y="25.000000" width="51.600000" height="24.000000" rx="0" ry="0" style="stroke:none;fill:#cccccc;"/>
<rect x="177.850000" y="24.000000" width="51.600000" height="24.000000" rx="0" ry="0" style="stroke:none;fill:#003366;"/>
</a>
<a xlink:href="midToTop-0x17c7dd40.svg">
<text x="203.650000" y="38.000000" font-family="Arial" font-size="7" text-anchor="middle" fill="#FFFFFF">midToTop(14)</text>
</a>
<circle cx="179.850000" cy="26.000000" r="1"/>
<rect x="95.000000" y="127.000000" width="219.300000" height="24.000000" rx="0" ry="0" style="stroke:none;fill:#cccccc;"/>
<rect x="94.000000" y="126.000000" width="219.300000" height="24.000000" rx="0" ry="0" style="stroke:none;fill:#477881;"/>
<text x="203.650000" y="140.000000" font-family="Arial" font-size="7" text-anchor="middle" fill="#FFFFFF">vslider(all filter FB, 0.0f, -1.0f, 1.0f, 0.001f)</text>
<circle cx="96.000000" cy="128.000000" r="1"/>
<line x1="85.000000" y1="117.000000" x2="85.000000" y2="159.000000"  style="stroke: black; stroke-linecap:round; stroke-width:0.25; stroke-dasharray:3,3;"/>
<line x1="85.000000" y1="159.000000" x2="322.300000" y2="159.000000"  style="stroke: black; stroke-linecap:round; stroke-width:0.25; stroke-dasharray:3,3;"/>
<line x1="322.300000" y1="159.000000" x2="322.300000" y2="117.000000"  style="stroke: black; stroke-linecap:round; stroke-width:0.25; stroke-dasharray:3,3;"/>
<line x1="85.000000" y1="117.000000" x2="90.000000" y2="117.000000"  style="stroke: black; stroke-linecap:round; stroke-width:0.25; stroke-dasharray:3,3;"/>
<line x1="173.850000" y1="117.000000" x2="322.300000" y2="117.000000"  style="stroke: black; stroke-linecap:round; stroke-width:0.25; stroke-dasharray:3,3;"/>
<text x="90.000000" y="119.000000" font-family="Arial" font-size="7">vgroup(high frequencies)</text>
<line x1="75.000000" y1="107.000000" x2="75.000000" y2="169.000000"  style="stroke: black; stroke-linecap:round; stroke-width:0.25; stroke-dasharray:3,3;"/>
<line x1="75.000000" y1="169.000000" x2="332.300000" y2="169.000000"  style="stroke: black; stroke-linecap:round; stroke-width:0.25; stroke-dasharray:3,3;"/>
<line x1="332.300000" y1="169.000000" x2="332.300000" y2="107.000000"  style="stroke: black; stroke-linecap:round; stroke-width:0.25; stroke-dasharray:3,3;"/>
<line x1="75.000000" y1="107.000000" x2="80.000000" y2="107.000000"  style="stroke: black; stroke-linecap:round; stroke-width:0.25; stroke-dasharray:3,3;"/>
<line x1="134.825000" y1="107.000000" x2="332.300000" y2="107.000000"  style="stroke: black; stroke-linecap:round; stroke-width:0.25; stroke-dasharray:3,3;"/>
<text x="80.000000" y="109.000000" font-family="Arial" font-size="7">hgroup(filters)</text>
<line x1="65.000000" y1="97.000000" x2="65.000000" y2="179.000000"  style="stroke: black; stroke-linecap:round; stroke-width:0.25; stroke-dasharray:3,3;"/>
<line x1="65.000000" y1="179.000000" x2="342.300000" y2="179.000000"  style="stroke: black; stroke-linecap:round; stroke-width:0.25; stroke-dasharray:3,3;"/>
<line x1="342.300000" y1="179.000000" x2="342.300000" y2="97.000000"  style="stroke: black; stroke-linecap:round; stroke-width:0.25; stroke-dasharray:3,3;"/>
<line x1="65.000000" y1="97.000000" x2="70.000000" y2="97.000000"  style="stroke: black; stroke-linecap:round; stroke-width:0.25; stroke-dasharray:3,3;"/>
<line x1="124.825000" y1="97.000000" x2="342.300000" y2="97.000000"  style="stroke: black; stroke-linecap:round; stroke-width:0.25; stroke-dasharray:3,3;"/>
<text x="70.000000" y="99.000000" font-family="Arial" font-size="7">hgroup(vocoder)</text>
<line x1="55.000000" y1="87.000000" x2="55.000000" y2="189.000000"  style="stroke: black; stroke-linecap:round; stroke-width:0.25; stroke-dasharray:3,3;"/>
<line x1="55.000000" y1="189.000000" x2="352.300000" y2="189.000000"  style="stroke: black; stroke-linecap:round; stroke-width:0.25; stroke-dasharray:3,3;"/>
<line x1="352.300000" y1="189.000000" x2="352.300000" y2="87.000000"  style="stroke: black; stroke-linecap:round; stroke-width:0.25; stroke-dasharray:3,3;"/>
<line x1="55.000000" y1="87.000000" x2="60.000000" y2="87.000000"  style="stroke: black; stroke-linecap:round; stroke-width:0.25; stroke-dasharray:3,3;"/>
<line x1="111.600000" y1="87.000000" x2="352.300000" y2="87.000000"  style="stroke: black; stroke-linecap:round; stroke-width:0.25; stroke-dasharray:3,3;"/>
<text x="60.000000" y="89.000000" font-family="Arial" font-size="7">hgroup(synths)</text>
<line x1="45.000000" y1="77.000000" x2="45.000000" y2="199.000000"  style="stroke: black; stroke-linecap:round; stroke-width:0.25; stroke-dasharray:3,3;"/>
<line x1="45.000000" y1="199.000000" x2="362.300000" y2="199.000000"  style="stroke: black; stroke-linecap:round; stroke-width:0.25; stroke-dasharray:3,3;"/>
<line x1="362.300000" y1="199.000000" x2="362.300000" y2="77.000000"  style="stroke: black; stroke-linecap:round; stroke-width:0.25; stroke-dasharray:3,3;"/>
<line x1="45.000000" y1="77.000000" x2="50.000000" y2="77.000000"  style="stroke: black; stroke-linecap:round; stroke-width:0.25; stroke-dasharray:3,3;"/>
<line x1="82.250000" y1="77.000000" x2="362.300000" y2="77.000000"  style="stroke: black; stroke-linecap:round; stroke-width:0.25; stroke-dasharray:3,3;"/>
<text x="50.000000" y="79.000000" font-family="Arial" font-size="7">tgroup()</text>
<line x1="35.000000" y1="67.000000" x2="35.000000" y2="209.000000"  style="stroke: black; stroke-linecap:round; stroke-width:0.25; stroke-dasharray:3,3;"/>
<line x1="35.000000" y1="209.000000" x2="372.300000" y2="209.000000"  style="stroke: black; stroke-linecap:round; stroke-width:0.25; stroke-dasharray:3,3;"/>
<line x1="372.300000" y1="209.000000" x2="372.300000" y2="67.000000"  style="stroke: black; stroke-linecap:round; stroke-width:0.25; stroke-dasharray:3,3;"/>
<line x1="35.000000" y1="67.000000" x2="40.000000" y2="67.000000"  style="stroke: black; stroke-linecap:round; stroke-width:0.25; stroke-dasharray:3,3;"/>
<line x1="110.950000" y1="67.000000" x2="372.300000" y2="67.000000"  style="stroke: black; stroke-linecap:round; stroke-width:0.25; stroke-dasharray:3,3;"/>
<text x="40.000000" y="69.000000" font-family="Arial" font-size="7">vgroup(VoiceOfFaust)</text>
<line x1="25.000000" y1="57.000000" x2="25.000000" y2="219.000000"  style="stroke: black; stroke-linecap:round; stroke-width:0.25; stroke-dasharray:3,3;"/>
<line x1="25.000000" y1="219.000000" x2="382.300000" y2="219.000000"  style="stroke: black; stroke-linecap:round; stroke-width:0.25; stroke-dasharray:3,3;"/>
<line x1="382.300000" y1="219.000000" x2="382.300000" y2="57.000000"  style="stroke: black; stroke-linecap:round; stroke-width:0.25; stroke-dasharray:3,3;"/>
<line x1="25.000000" y1="57.000000" x2="30.000000" y2="57.000000"  style="stroke: black; stroke-linecap:round; stroke-width:0.25; stroke-dasharray:3,3;"/>
<line x1="62.250000" y1="57.000000" x2="382.300000" y2="57.000000"  style="stroke: black; stroke-linecap:round; stroke-width:0.25; stroke-dasharray:3,3;"/>
<text x="30.000000" y="59.000000" font-family="Arial" font-size="7">allFBtop</text>
<rect x="400.300000" y="111.000000" width="24.000000" height="24.000000" rx="0" ry="0" style="stroke:none;fill:#cccccc;"/>
<rect x="399.300000" y="110.000000" width="24.000000" height="24.000000" rx="0" ry="0" style="stroke:none;fill:#4B71A1;"/>
<text x="411.300000" y="124.000000" font-family="Arial" font-size="7" text-anchor="middle" fill="#FFFFFF">*</text>
<circle cx="401.300000" cy="112.000000" r="1"/>
<line x1="396.300000" y1="117.000000" x2="399.300000" y2="118.000000"  transform="rotate(0.000000,399.300000,118.000000)" style="stroke: black; stroke-width:0.25;"/>
<line x1="396.300000" y1="119.000000" x2="399.300000" y2="118.000000"  transform="rotate(0.000000,399.300000,118.000000)" style="stroke: black; stroke-width:0.25;"/>
<line x1="396.300000" y1="125.000000" x2="399.300000" y2="126.000000"  transform="rotate(0.000000,399.300000,126.000000)" style="stroke: black; stroke-width:0.25;"/>
<line x1="396.300000" y1="127.000000" x2="399.300000" y2="126.000000"  transform="rotate(0.000000,399.300000,126.000000)" style="stroke: black; stroke-width:0.25;"/>
<a xlink:href="midToTop-0x17c7dd40.svg">
<rect x="138.850000" y="229.000000" width="51.600000" height="24.000000" rx="0" ry="0" style="stroke:none;fill:#cccccc;"/>
<rect x="137.850000" y="228.000000" width="51.600000" height="24.000000" rx="0" ry="0" style="stroke:none;fill:#003366;"/>
</a>
<a xlink:href="midToTop-0x17c7dd40.svg">
<text x="163.650000" y="242.000000" font-family="Arial" font-size="7" text-anchor="middle" fill="#FFFFFF">midToTop(14)</text>
</a>
<circle cx="139.850000" cy="230.000000" r="1"/>
<rect x="152.650000" y="261.000000" width="24.000000" height="24.000000" rx="0" ry="0" style="stroke:none;fill:#cccccc;"/>
<rect x="151.650000" y="260.000000" width="24.000000" height="24.000000" rx="0" ry="0" style="stroke:none;fill:#f44800;"/>
<text x="163.650000" y="274.000000" font-family="Arial" font-size="7" text-anchor="middle" fill="#FFFFFF">-1</text>
<circle cx="153.650000" cy="262.000000" r="1"/>
<rect x="206.450000" y="245.000000" width="24.000000" height="24.000000" rx="0" ry="0" style="stroke:none;fill:#cccccc;"/>
<rect x="205.450000" y="244.000000" width="24.000000" height="24.000000" rx="0" ry="0" style="stroke:none;fill:#4B71A1;"/>
<text x="217.450000" y="258.000000" font-family="Arial" font-size="7" text-anchor="middle" fill="#FFFFFF">*</text>
<circle cx="207.450000" cy="246.000000" r="1"/>
<line x1="202.450000" y1="251.000000" x2="205.450000" y2="252.000000"  transform="rotate(0.000000,205.450000,252.000000)" style="stroke: black; stroke-width:0.25;"/>
<line x1="202.450000" y1="253.000000" x2="205.450000" y2="252.000000"  transform="rotate(0.000000,205.450000,252.000000)" style="stroke: black; stroke-width:0.25;"/>
<line x1="202.450000" y1="259.000000" x2="205.450000" y2="260.000000"  transform="rotate(0.000000,205.450000,260.000000)" style="stroke: black; stroke-width:0.25;"/>
<line x1="202.450000" y1="261.000000" x2="205.450000" y2="260.000000"  transform="rotate(0.000000,205.450000,260.000000)" style="stroke: black; stroke-width:0.25;"/>
<rect x="172.650000" y="303.000000" width="24.000000" height="24.000000" rx="0" ry="0" style="stroke:none;fill:#cccccc;"/>
<rect x="171.650000" y="302.000000" width="24.000000" height="24.000000" rx="0" ry="0" style="stroke:none;fill:#f44800;"/>
<text x="183.650000" y="316.000000" font-family="Arial" font-size="7" text-anchor="middle" fill="#FFFFFF">1</text>
<circle cx="173.650000" cy="304.000000" r="1"/>
<line x1="162.650000" y1="293.000000" x2="162.650000" y2="335.000000"  style="stroke: black; stroke-linecap:round; stroke-width:0.25; stroke-dasharray:3,3;"/>
<line x1="162.650000" y1="335.000000" x2="204.650000" y2="335.000000"  style="stroke: black; stroke-linecap:round; stroke-width:0.25; stroke-dasharray:3,3;"/>
<line x1="204.650000" y1="335.000000" x2="204.650000" y2="293.000000"  style="stroke: black; stroke-linecap:round; stroke-width:0.25; stroke-dasharray:3,3;"/>
<line x1="162.650000" y1="293.000000" x2="167.650000" y2="293.000000"  style="stroke: black; stroke-linecap:round; stroke-width:0.25; stroke-dasharray:3,3;"/>
<line x1="180.550000" y1="293.000000" x2="204.650000" y2="293.000000"  style="stroke: black; stroke-linecap:round; stroke-width:0.25; stroke-dasharray:3,3;"/>
<text x="167.650000" y="295.000000" font-family="Arial" font-size="7">a0</text>
<rect x="246.450000" y="271.000000" width="24.000000" height="24.000000" rx="0" ry="0" style="stroke:none;fill:#cccccc;"/>
<rect x="245.450000" y="270.000000" width="24.000000" height="24.000000" rx="0" ry="0" style="stroke:none;fill:#4B71A1;"/>
<text x="257.450000" y="284.000000" font-family="Arial" font-size="7" text-anchor="middle" fill="#FFFFFF">+</text>
<circle cx="247.450000" cy="272.000000" r="1"/>
<line x1="242.450000" y1="277.000000" x2="245.450000" y2="278.000000"  transform="rotate(0.000000,245.450000,278.000000)" style="stroke: black; stroke-width:0.25;"/>
<line x1="242.450000" y1="279.000000" x2="245.450000" y2="278.000000"  transform="rotate(0.000000,245.450000,278.000000)" style="stroke: black; stroke-width:0.25;"/>
<line x1="242.450000" y1="285.000000" x2="245.450000" y2="286.000000"  transform="rotate(0.000000,245.450000,286.000000)" style="stroke: black; stroke-width:0.25;"/>
<line x1="242.450000" y1="287.000000" x2="245.450000" y2="286.000000"  transform="rotate(0.000000,245.450000,286.000000)" style="stroke: black; stroke-width:0.25;"/>
<rect x="95.000000" y="415.000000" width="219.300000" height="24.000000" rx="0" ry="0" style="stroke:none;fill:#cccccc;"/>
<rect x="94.000000" y="414.000000" width="219.300000" height="24.000000" rx="0" ry="0" style="stroke:none;fill:#477881;"/>
<text x="203.650000" y="428.000000" font-family="Arial" font-size="7" text-anchor="middle" fill="#FFFFFF">vslider(all filter FB, 0.0f, -1.0f, 1.0f, 0.001f)</text>
<circle cx="96.000000" cy="416.000000" r="1"/>
<line x1="85.000000" y1="405.000000" x2="85.000000" y2="447.000000"  style="stroke: black; stroke-linecap:round; stroke-width:0.25; stroke-dasharray:3,3;"/>
<line x1="85.000000" y1="447.000000" x2="322.300000" y2="447.000000"  style="stroke: black; stroke-linecap:round; stroke-width:0.25; stroke-dasharray:3,3;"/>
<line x1="322.300000" y1="447.000000" x2="322.300000" y2="405.000000"  style="stroke: black; stroke-linecap:round; stroke-width:0.25; stroke-dasharray:3,3;"/>
<line x1="85.000000" y1="405.000000" x2="90.000000" y2="405.000000"  style="stroke: black; stroke-linecap:round; stroke-width:0.25; stroke-dasharray:3,3;"/>
<line x1="170.625000" y1="405.000000" x2="322.300000" y2="405.000000"  style="stroke: black; stroke-linecap:round; stroke-width:0.25; stroke-dasharray:3,3;"/>
<text x="90.000000" y="407.000000" font-family="Arial" font-size="7">vgroup(mid frequencies)</text>
<line x1="75.000000" y1="395.000000" x2="75.000000" y2="457.000000"  style="stroke: black; stroke-linecap:round; stroke-width:0.25; stroke-dasharray:3,3;"/>
<line x1="75.000000" y1="457.000000" x2="332.300000" y2="457.000000"  style="stroke: black; stroke-linecap:round; stroke-width:0.25; stroke-dasharray:3,3;"/>
<line x1="332.300000" y1="457.000000" x2="332.300000" y2="395.000000"  style="stroke: black; stroke-linecap:round; stroke-width:0.25; stroke-dasharray:3,3;"/>
<line x1="75.000000" y1="395.000000" x2="80.000000" y2="395.000000"  style="stroke: black; stroke-linecap:round; stroke-width:0.25; stroke-dasharray:3,3;"/>
<line x1="134.825000" y1="395.000000" x2="332.300000" y2="395.000000"  style="stroke: black; stroke-linecap:round; stroke-width:0.25; stroke-dasharray:3,3;"/>
<text x="80.000000" y="397.000000" font-family="Arial" font-size="7">hgroup(filters)</text>
<line x1="65.000000" y1="385.000000" x2="65.000000" y2="467.000000"  style="stroke: black; stroke-linecap:round; stroke-width:0.25; stroke-dasharray:3,3;"/>
<line x1="65.000000" y1="467.000000" x2="342.300000" y2="467.000000"  style="stroke: black; stroke-linecap:round; stroke-width:0.25; stroke-dasharray:3,3;"/>
<line x1="342.300000" y1="467.000000" x2="342.300000" y2="385.000000"  style="stroke: black; stroke-linecap:round; stroke-width:0.25; stroke-dasharray:3,3;"/>
<line x1="65.000000" y1="385.000000" x2="70.000000" y2="385.000000"  style="stroke: black; stroke-linecap:round; stroke-width:0.25; stroke-dasharray:3,3;"/>
<line x1="124.825000" y1="385.000000" x2="342.300000" y2="385.000000"  style="stroke: black; stroke-linecap:round; stroke-width:0.25; stroke-dasharray:3,3;"/>
<text x="70.000000" y="387.000000" font-family="Arial" font-size="7">hgroup(vocoder)</text>
<line x1="55.000000" y1="375.000000" x2="55.000000" y2="477.000000"  style="stroke: black; stroke-linecap:round; stroke-width:0.25; stroke-dasharray:3,3;"/>
<line x1="55.000000" y1="477.000000" x2="352.300000" y2="477.000000"  style="stroke: black; stroke-linecap:round; stroke-width:0.25; stroke-dasharray:3,3;"/>
<line x1="352.300000" y1="477.000000" x2="352.300000" y2="375.000000"  style="stroke: black; stroke-linecap:round; stroke-width:0.25; stroke-dasharray:3,3;"/>
<line x1="55.000000" y1="375.000000" x2="60.000000" y2="375.000000"  style="stroke: black; stroke-linecap:round; stroke-width:0.25; stroke-dasharray:3,3;"/>
<line x1="111.600000" y1="375.000000" x2="352.300000" y2="375.000000"  style="stroke: black; stroke-linecap:round; stroke-width:0.25; stroke-dasharray:3,3;"/>
<text x="60.000000" y="377.000000" font-family="Arial" font-size="7">hgroup(synths)</text>
<line x1="45.000000" y1="365.000000" x2="45.000000" y2="487.000000"  style="stroke: black; stroke-linecap:round; stroke-width:0.25; stroke-dasharray:3,3;"/>
<line x1="45.000000" y1="487.000000" x2="362.300000" y2="487.000000"  style="stroke: black; stroke-linecap:round; stroke-width:0.25; stroke-dasharray:3,3;"/>
<line x1="362.300000" y1="487.000000" x2="362.300000" y2="365.000000"  style="stroke: black; stroke-linecap:round; stroke-width:0.25; stroke-dasharray:3,3;"/>
<line x1="45.000000" y1="365.000000" x2="50.000000" y2="365.000000"  style="stroke: black; stroke-linecap:round; stroke-width:0.25; stroke-dasharray:3,3;"/>
<line x1="82.250000" y1="365.000000" x2="362.300000" y2="365.000000"  style="stroke: black; stroke-linecap:round; stroke-width:0.25; stroke-dasharray:3,3;"/>
<text x="50.000000" y="367.000000" font-family="Arial" font-size="7">tgroup()</text>
<line x1="35.000000" y1="355.000000" x2="35.000000" y2="497.000000"  style="stroke: black; stroke-linecap:round; stroke-width:0.25; stroke-dasharray:3,3;"/>
<line x1="35.000000" y1="497.000000" x2="372.300000" y2="497.000000"  style="stroke: black; stroke-linecap:round; stroke-width:0.25; stroke-dasharray:3,3;"/>
<line x1="372.300000" y1="497.000000" x2="372.300000" y2="355.000000"  style="stroke: black; stroke-linecap:round; stroke-width:0.25; stroke-dasharray:3,3;"/>
<line x1="35.000000" y1="355.000000" x2="40.000000" y2="355.000000"  style="stroke: black; stroke-linecap:round; stroke-width:0.25; stroke-dasharray:3,3;"/>
<line x1="110.950000" y1="355.000000" x2="372.300000" y2="355.000000"  style="stroke: black; stroke-linecap:round; stroke-width:0.25; stroke-dasharray:3,3;"/>
<text x="40.000000" y="357.000000" font-family="Arial" font-size="7">vgroup(VoiceOfFaust)</text>
<line x1="25.000000" y1="345.000000" x2="25.000000" y2="507.000000"  style="stroke: black; stroke-linecap:round; stroke-width:0.25; stroke-dasharray:3,3;"/>
<line x1="25.000000" y1="507.000000" x2="382.300000" y2="507.000000"  style="stroke: black; stroke-linecap:round; stroke-width:0.25; stroke-dasharray:3,3;"/>
<line x1="382.300000" y1="507.000000" x2="382.300000" y2="345.000000"  style="stroke: black; stroke-linecap:round; stroke-width:0.25; stroke-dasharray:3,3;"/>
<line x1="25.000000" y1="345.000000" x2="30.000000" y2="345.000000"  style="stroke: black; stroke-linecap:round; stroke-width:0.25; stroke-dasharray:3,3;"/>
<line x1="62.250000" y1="345.000000" x2="382.300000" y2="345.000000"  style="stroke: black; stroke-linecap:round; stroke-width:0.25; stroke-dasharray:3,3;"/>
<text x="30.000000" y="347.000000" font-family="Arial" font-size="7">allFBmid</text>
<rect x="400.300000" y="357.000000" width="24.000000" height="24.000000" rx="0" ry="0" style="stroke:none;fill:#cccccc;"/>
<rect x="399.300000" y="356.000000" width="24.000000" height="24.000000" rx="0" ry="0" style="stroke:none;fill:#4B71A1;"/>
<text x="411.300000" y="370.000000" font-family="Arial" font-size="7" text-anchor="middle" fill="#FFFFFF">*</text>
<circle cx="401.300000" cy="358.000000" r="1"/>
<line x1="396.300000" y1="363.000000" x2="399.300000" y2="364.000000"  transform="rotate(0.000000,399.300000,364.000000)" style="stroke: black; stroke-width:0.25;"/>
<line x1="396.300000" y1="365.000000" x2="399.300000" y2="364.000000"  transform="rotate(0.000000,399.300000,364.000000)" style="stroke: black; stroke-width:0.25;"/>
<line x1="396.300000" y1="371.000000" x2="399.300000" y2="372.000000"  transform="rotate(0.000000,399.300000,372.000000)" style="stroke: black; stroke-width:0.25;"/>
<line x1="396.300000" y1="373.000000" x2="399.300000" y2="372.000000"  transform="rotate(0.000000,399.300000,372.000000)" style="stroke: black; stroke-width:0.25;"/>
<rect x="440.300000" y="255.000000" width="24.000000" height="24.000000" rx="0" ry="0" style="stroke:none;fill:#cccccc;"/>
<rect x="439.300000" y="254.000000" width="24.000000" height="24.000000" rx="0" ry="0" style="stroke:none;fill:#4B71A1;"/>
<text x="451.300000" y="268.000000" font-family="Arial" font-size="7" text-anchor="middle" fill="#FFFFFF">+</text>
<circle cx="441.300000" cy="256.000000" r="1"/>
<line x1="436.300000" y1="261.000000" x2="439.300000" y2="262.000000"  transform="rotate(0.000000,439.300000,262.000000)" style="stroke: black; stroke-width:0.25;"/>
<line x1="436.300000" y1="263.000000" x2="439.300000" y2="262.000000"  transform="rotate(0.000000,439.300000,262.000000)" style="stroke: black; stroke-width:0.25;"/>
<line x1="436.300000" y1="269.000000" x2="439.300000" y2="270.000000"  transform="rotate(0.000000,439.300000,270.000000)" style="stroke: black; stroke-width:0.25;"/>
<line x1="436.300000" y1="271.000000" x2="439.300000" y2="270.000000"  transform="rotate(0.000000,439.300000,270.000000)" style="stroke: black; stroke-width:0.25;"/>
<line x1="15.000000" y1="15.000000" x2="15.000000" y2="517.000000"  style="stroke: black; stroke-linecap:round; stroke-width:0.25; stroke-dasharray:3,3;"/>
<line x1="15.000000" y1="517.000000" x2="480.300000" y2="517.000000"  style="stroke: black; stroke-linecap:round; stroke-width:0.25; stroke-dasharray:3,3;"/>
<line x1="480.300000" y1="517.000000" x2="480.300000" y2="15.000000"  style="stroke: black; stroke-linecap:round; stroke-width:0.25; stroke-dasharray:3,3;"/>
<line x1="15.000000" y1="15.000000" x2="20.000000" y2="15.000000"  style="stroke: black; stroke-linecap:round; stroke-width:0.25; stroke-dasharray:3,3;"/>
<line x1="74.825000" y1="15.000000" x2="480.300000" y2="15.000000"  style="stroke: black; stroke-linecap:round; stroke-width:0.25; stroke-dasharray:3,3;"/>
<text x="20.000000" y="17.000000" font-family="Arial" font-size="7">midToTopVal(14)</text>
<line x1="482.300000" y1="265.000000" x2="485.300000" y2="266.000000"  transform="rotate(0.000000,485.300000,266.000000)" style="stroke: black; stroke-width:0.25;"/>
<line x1="482.300000" y1="267.000000" x2="485.300000" y2="266.000000"  transform="rotate(0.000000,485.300000,266.000000)" style="stroke: black; stroke-width:0.25;"/>
<line x1="175.650000" y1="272.000000" x2="179.650000" y2="272.000000"  style="stroke:black; stroke-linecap:round; stroke-width:0.25;"/>
<line x1="179.650000" y1="272.000000" x2="193.450000" y2="272.000000"  style="stroke:black; stroke-linecap:round; stroke-width:0.25;"/>
<line x1="189.450000" y1="240.000000" x2="193.450000" y2="240.000000"  style="stroke:black; stroke-linecap:round; stroke-width:0.25;"/>
<line x1="193.450000" y1="240.000000" x2="201.450000" y2="240.000000"  style="stroke:black; stroke-linecap:round; stroke-width:0.25;"/>
<line x1="193.450000" y1="260.000000" x2="201.450000" y2="260.000000"  style="stroke:black; stroke-linecap:round; stroke-width:0.25;"/>
<line x1="193.450000" y1="272.000000" x2="193.450000" y2="260.000000"  style="stroke:black; stroke-linecap:round; stroke-width:0.25;"/>
<line x1="193.450000" y1="272.000000" x2="193.450000" y2="272.000000"  style="stroke:black; stroke-linecap:round; stroke-width:0.25;"/>
<line x1="195.650000" y1="314.000000" x2="199.650000" y2="314.000000"  style="stroke:black; stroke-linecap:round; stroke-width:0.25;"/>
<line x1="199.650000" y1="314.000000" x2="209.650000" y2="314.000000"  style="stroke:black; stroke-linecap:round; stroke-width:0.25;"/>
<line x1="201.450000" y1="240.000000" x2="201.450000" y2="252.000000"  style="stroke:black; stroke-linecap:round; stroke-width:0.25;"/>
<line x1="201.450000" y1="252.000000" x2="201.450000" y2="252.000000"  style="stroke:black; stroke-linecap:round; stroke-width:0.25;"/>
<line x1="201.450000" y1="252.000000" x2="205.450000" y2="252.000000"  style="stroke:black; stroke-linecap:round; stroke-width:0.25;"/>
<line x1="201.450000" y1="260.000000" x2="205.450000" y2="260.000000"  style="stroke:black; stroke-linecap:round; stroke-width:0.25;"/>
<line x1="209.650000" y1="314.000000" x2="233.450000" y2="314.000000"  style="stroke:black; stroke-linecap:round; stroke-width:0.25;"/>
<line x1="229.450000" y1="36.000000" x2="233.450000" y2="36.000000"  style="stroke:black; stroke-linecap:round; stroke-width:0.25;"/>
<line x1="229.450000" y1="256.000000" x2="233.450000" y2="256.000000"  style="stroke:black; stroke-linecap:round; stroke-width:0.25;"/>
<line x1="233.450000" y1="36.000000" x2="387.300000" y2="36.000000"  style="stroke:black; stroke-linecap:round; stroke-width:0.25;"/>
<line x1="233.450000" y1="256.000000" x2="241.450000" y2="256.000000"  style="stroke:black; stroke-linecap:round; stroke-width:0.25;"/>
<line x1="233.450000" y1="286.000000" x2="241.450000" y2="286.000000"  style="stroke:black; stroke-linecap:round; stroke-width:0.25;"/>
<line x1="233.450000" y1="314.000000" x2="233.450000" y2="286.000000"  style="stroke:black; stroke-linecap:round; stroke-width:0.25;"/>
<line x1="233.450000" y1="314.000000" x2="233.450000" y2="314.000000"  style="stroke:black; stroke-linecap:round; stroke-width:0.25;"/>
<line x1="241.450000" y1="256.000000" x2="241.450000" y2="278.000000"  style="stroke:black; stroke-linecap:round; stroke-width:0.25;"/>
<line x1="241.450000" y1="278.000000" x2="241.450000" y2="278.000000"  style="stroke:black; stroke-linecap:round; stroke-width:0.25;"/>
<line x1="241.450000" y1="278.000000" x2="245.450000" y2="278.000000"  style="stroke:black; stroke-linecap:round; stroke-width:0.25;"/>
<line x1="241.450000" y1="286.000000" x2="245.450000" y2="286.000000"  style="stroke:black; stroke-linecap:round; stroke-width:0.25;"/>
<line x1="269.450000" y1="282.000000" x2="273.450000" y2="282.000000"  style="stroke:black; stroke-linecap:round; stroke-width:0.25;"/>
<line x1="273.450000" y1="282.000000" x2="387.300000" y2="282.000000"  style="stroke:black; stroke-linecap:round; stroke-width:0.25;"/>
<line x1="313.300000" y1="138.000000" x2="317.300000" y2="138.000000"  style="stroke:black; stroke-linecap:round; stroke-width:0.25;"/>
<line x1="313.300000" y1="426.000000" x2="317.300000" y2="426.000000"  style="stroke:black; stroke-linecap:round; stroke-width:0.25;"/>
<line x1="317.300000" y1="138.000000" x2="327.300000" y2="138.000000"  style="stroke:black; stroke-linecap:round; stroke-width:0.25;"/>
<line x1="317.300000" y1="426.000000" x2="327.300000" y2="426.000000"  style="stroke:black; stroke-linecap:round; stroke-width:0.25;"/>
<line x1="327.300000" y1="138.000000" x2="337.300000" y2="138.000000"  style="stroke:black; stroke-linecap:round; stroke-width:0.25;"/>
<line x1="327.300000" y1="426.000000" x2="337.300000" y2="426.000000"  style="stroke:black; stroke-linecap:round; stroke-width:0.25;"/>
<line x1="337.300000" y1="138.000000" x2="347.300000" y2="138.000000"  style="stroke:black; stroke-linecap:round; stroke-width:0.25;"/>
<line x1="337.300000" y1="426.000000" x2="347.300000" y2="426.000000"  style="stroke:black; stroke-linecap:round; stroke-width:0.25;"/>
<line x1="347.300000" y1="138.000000" x2="357.300000" y2="138.000000"  style="stroke:black; stroke-linecap:round; stroke-width:0.25;"/>
<line x1="347.300000" y1="426.000000" x2="357.300000" y2="426.000000"  style="stroke:black; stroke-linecap:round; stroke-width:0.25;"/>
<line x1="357.300000" y1="138.000000" x2="367.300000" y2="138.000000"  style="stroke:black; stroke-linecap:round; stroke-width:0.25;"/>
<line x1="357.300000" y1="426.000000" x2="367.300000" y2="426.000000"  style="stroke:black; stroke-linecap:round; stroke-width:0.25;"/>
<line x1="367.300000" y1="138.000000" x2="377.300000" y2="138.000000"  style="stroke:black; stroke-linecap:round; stroke-width:0.25;"/>
<line x1="367.300000" y1="426.000000" x2="377.300000" y2="426.000000"  style="stroke:black; stroke-linecap:round; stroke-width:0.25;"/>
<line x1="377.300000" y1="138.000000" x2="387.300000" y2="138.000000"  style="stroke:black; stroke-linecap:round; stroke-width:0.25;"/>
<line x1="377.300000" y1="426.000000" x2="387.300000" y2="426.000000"  style="stroke:black; stroke-linecap:round; stroke-width:0.25;"/>
<line x1="387.300000" y1="282.000000" x2="395.300000" y2="282.000000"  style="stroke:black; stroke-linecap:round; stroke-width:0.25;"/>
<line x1="387.300000" y1="36.000000" x2="395.300000" y2="36.000000"  style="stroke:black; stroke-linecap:round; stroke-width:0.25;"/>
<line x1="387.300000" y1="126.000000" x2="395.300000" y2="126.000000"  style="stroke:black; stroke-linecap:round; stroke-width:0.25;"/>
<line x1="387.300000" y1="138.000000" x2="387.300000" y2="126.000000"  style="stroke:black; stroke-linecap:round; stroke-width:0.25;"/>
<line x1="387.300000" y1="138.000000" x2="387.300000" y2="138.000000"  style="stroke:black; stroke-linecap:round; stroke-width:0.25;"/>
<line x1="387.300000" y1="372.000000" x2="395.300000" y2="372.000000"  style="stroke:black; stroke-linecap:round; stroke-width:0.25;"/>
<line x1="387.300000" y1="426.000000" x2="387.300000" y2="372.000000"  style="stroke:black; stroke-linecap:round; stroke-width:0.25;"/>
<line x1="387.300000" y1="426.000000" x2="387.300000" y2="426.000000"  style="stroke:black; stroke-linecap:round; stroke-width:0.25;"/>
<line x1="395.300000" y1="282.000000" x2="395.300000" y2="364.000000"  style="stroke:black; stroke-linecap:round; stroke-width:0.25;"/>
<line x1="395.300000" y1="364.000000" x2="395.300000" y2="364.000000"  style="stroke:black; stroke-linecap:round; stroke-width:0.25;"/>
<line x1="395.300000" y1="36.000000" x2="395.300000" y2="118.000000"  style="stroke:black; stroke-linecap:round; stroke-width:0.25;"/>
<line x1="395.300000" y1="118.000000" x2="395.300000" y2="118.000000"  style="stroke:black; stroke-linecap:round; stroke-width:0.25;"/>
<line x1="395.300000" y1="118.000000" x2="399.300000" y2="118.000000"  style="stroke:black; stroke-linecap:round; stroke-width:0.25;"/>
<line x1="395.300000" y1="126.000000" x2="399.300000" y2="126.000000"  style="stroke:black; stroke-linecap:round; stroke-width:0.25;"/>
<line x1="395.300000" y1="364.000000" x2="399.300000" y2="364.000000"  style="stroke:black; stroke-linecap:round; stroke-width:0.25;"/>
<line x1="395.300000" y1="372.000000" x2="399.300000" y2="372.000000"  style="stroke:black; stroke-linecap:round; stroke-width:0.25;"/>
<line x1="423.300000" y1="122.000000" x2="427.300000" y2="122.000000"  style="stroke:black; stroke-linecap:round; stroke-width:0.25;"/>
<line x1="423.300000" y1="368.000000" x2="427.300000" y2="368.000000"  style="stroke:black; stroke-linecap:round; stroke-width:0.25;"/>
<line x1="427.300000" y1="122.000000" x2="435.300000" y2="122.000000"  style="stroke:black; stroke-linecap:round; stroke-width:0.25;"/>
<line x1="427.300000" y1="270.000000" x2="435.300000" y2="270.000000"  style="stroke:black; stroke-linecap:round; stroke-width:0.25;"/>
<line x1="427.300000" y1="368.000000" x2="427.300000" y2="270.000000"  style="stroke:black; stroke-linecap:round; stroke-width:0.25;"/>
<line x1="427.300000" y1="368.000000" x2="427.300000" y2="368.000000"  style="stroke:black; stroke-linecap:round; stroke-width:0.25;"/>
<line x1="435.300000" y1="122.000000" x2="435.300000" y2="262.000000"  style="stroke:black; stroke-linecap:round; stroke-width:0.25;"/>
<line x1="435.300000" y1="262.000000" x2="435.300000" y2="262.000000"  style="stroke:black; stroke-linecap:round; stroke-width:0.25;"/>
<line x1="435.300000" y1="262.000000" x2="439.300000" y2="262.000000"  style="stroke:black; stroke-linecap:round; stroke-width:0.25;"/>
<line x1="435.300000" y1="270.000000" x2="439.300000" y2="270.000000"  style="stroke:black; stroke-linecap:round; stroke-width:0.25;"/>
<line x1="463.300000" y1="266.000000" x2="467.300000" y2="266.000000"  style="stroke:black; stroke-linecap:round; stroke-width:0.25;"/>
<line x1="467.300000" y1="266.000000" x2="467.300000" y2="266.000000"  style="stroke:black; stroke-linecap:round; stroke-width:0.25;"/>
<line x1="467.300000" y1="266.000000" x2="471.300000" y2="266.000000"  style="stroke:black; stroke-linecap:round; stroke-width:0.25;"/>
<line x1="471.300000" y1="266.000000" x2="475.300000" y2="266.000000"  style="stroke:black; stroke-linecap:round; stroke-width:0.25;"/>
<line x1="475.300000" y1="266.000000" x2="485.300000" y2="266.000000"  style="stroke:black; stroke-linecap:round; stroke-width:0.25;"/>
</svg>
