<?xml version="1.0"?>
<svg xmlns="http://www.w3.org/2000/svg" xmlns:xlink="http://www.w3.org/1999/xlink" viewBox="0 0 456.600000 540.000000" width="228.300000mm" height="270.000000mm" version="1.1">
<a xlink:href="midToBottomVal-0x1abca600.svg">
<rect x="1.000000" y="1.000000" width="455.600000" height="539.000000" rx="0" ry="0" style="stroke:none;fill:#cccccc;"/>
<rect x="0.000000" y="0.000000" width="455.600000" height="539.000000" rx="0" ry="0" style="stroke:none;fill:#ffffff;"/>
</a>
<text x="10.000000" y="7.000000" font-family="Arial" font-size="7"></text>
<rect x="95.000000" y="95.000000" width="180.600000" height="24.000000" rx="0" ry="0" style="stroke:none;fill:#cccccc;"/>
<rect x="94.000000" y="94.000000" width="180.600000" height="24.000000" rx="0" ry="0" style="stroke:none;fill:#477881;"/>
<text x="184.300000" y="108.000000" font-family="Arial" font-size="7" text-anchor="middle" fill="#FFFFFF">vslider(Q-band, 8.0f, 1.0f, 16.0f, 0.001f)</text>
<circle cx="96.000000" cy="96.000000" r="1"/>
<line x1="85.000000" y1="85.000000" x2="85.000000" y2="127.000000"  style="stroke: black; stroke-linecap:round; stroke-width:0.25; stroke-dasharray:3,3;"/>
<line x1="85.000000" y1="127.000000" x2="283.600000" y2="127.000000"  style="stroke: black; stroke-linecap:round; stroke-width:0.25; stroke-dasharray:3,3;"/>
<line x1="283.600000" y1="127.000000" x2="283.600000" y2="85.000000"  style="stroke: black; stroke-linecap:round; stroke-width:0.25; stroke-dasharray:3,3;"/>
<line x1="85.000000" y1="85.000000" x2="90.000000" y2="85.000000"  style="stroke: black; stroke-linecap:round; stroke-width:0.25; stroke-dasharray:3,3;"/>
<line x1="148.050000" y1="85.000000" x2="283.600000" y2="85.000000"  style="stroke: black; stroke-linecap:round; stroke-width:0.25; stroke-dasharray:3,3;"/>
<text x="90.000000" y="87.000000" font-family="Arial" font-size="7">vgroup(mid band)</text>
<line x1="75.000000" y1="75.000000" x2="75.000000" y2="137.000000"  style="stroke: black; stroke-linecap:round; stroke-width:0.25; stroke-dasharray:3,3;"/>
<line x1="75.000000" y1="137.000000" x2="293.600000" y2="137.000000"  style="stroke: black; stroke-linecap:round; stroke-width:0.25; stroke-dasharray:3,3;"/>
<line x1="293.600000" y1="137.000000" x2="293.600000" y2="75.000000"  style="stroke: black; stroke-linecap:round; stroke-width:0.25; stroke-dasharray:3,3;"/>
<line x1="75.000000" y1="75.000000" x2="80.000000" y2="75.000000"  style="stroke: black; stroke-linecap:round; stroke-width:0.25; stroke-dasharray:3,3;"/>
<line x1="134.825000" y1="75.000000" x2="293.600000" y2="75.000000"  style="stroke: black; stroke-linecap:round; stroke-width:0.25; stroke-dasharray:3,3;"/>
<text x="80.000000" y="77.000000" font-family="Arial" font-size="7">hgroup(filters)</text>
<line x1="65.000000" y1="65.000000" x2="65.000000" y2="147.000000"  style="stroke: black; stroke-linecap:round; stroke-width:0.25; stroke-dasharray:3,3;"/>
<line x1="65.000000" y1="147.000000" x2="303.600000" y2="147.000000"  style="stroke: black; stroke-linecap:round; stroke-width:0.25; stroke-dasharray:3,3;"/>
<line x1="303.600000" y1="147.000000" x2="303.600000" y2="65.000000"  style="stroke: black; stroke-linecap:round; stroke-width:0.25; stroke-dasharray:3,3;"/>
<line x1="65.000000" y1="65.000000" x2="70.000000" y2="65.000000"  style="stroke: black; stroke-linecap:round; stroke-width:0.25; stroke-dasharray:3,3;"/>
<line x1="124.825000" y1="65.000000" x2="303.600000" y2="65.000000"  style="stroke: black; stroke-linecap:round; stroke-width:0.25; stroke-dasharray:3,3;"/>
<text x="70.000000" y="67.000000" font-family="Arial" font-size="7">hgroup(vocoder)</text>
<line x1="55.000000" y1="55.000000" x2="55.000000" y2="157.000000"  style="stroke: black; stroke-linecap:round; stroke-width:0.25; stroke-dasharray:3,3;"/>
<line x1="55.000000" y1="157.000000" x2="313.600000" y2="157.000000"  style="stroke: black; stroke-linecap:round; stroke-width:0.25; stroke-dasharray:3,3;"/>
<line x1="313.600000" y1="157.000000" x2="313.600000" y2="55.000000"  style="stroke: black; stroke-linecap:round; stroke-width:0.25; stroke-dasharray:3,3;"/>
<line x1="55.000000" y1="55.000000" x2="60.000000" y2="55.000000"  style="stroke: black; stroke-linecap:round; stroke-width:0.25; stroke-dasharray:3,3;"/>
<line x1="111.600000" y1="55.000000" x2="313.600000" y2="55.000000"  style="stroke: black; stroke-linecap:round; stroke-width:0.25; stroke-dasharray:3,3;"/>
<text x="60.000000" y="57.000000" font-family="Arial" font-size="7">hgroup(synths)</text>
<line x1="45.000000" y1="45.000000" x2="45.000000" y2="167.000000"  style="stroke: black; stroke-linecap:round; stroke-width:0.25; stroke-dasharray:3,3;"/>
<line x1="45.000000" y1="167.000000" x2="323.600000" y2="167.000000"  style="stroke: black; stroke-linecap:round; stroke-width:0.25; stroke-dasharray:3,3;"/>
<line x1="323.600000" y1="167.000000" x2="323.600000" y2="45.000000"  style="stroke: black; stroke-linecap:round; stroke-width:0.25; stroke-dasharray:3,3;"/>
<line x1="45.000000" y1="45.000000" x2="50.000000" y2="45.000000"  style="stroke: black; stroke-linecap:round; stroke-width:0.25; stroke-dasharray:3,3;"/>
<line x1="82.250000" y1="45.000000" x2="323.600000" y2="45.000000"  style="stroke: black; stroke-linecap:round; stroke-width:0.25; stroke-dasharray:3,3;"/>
<text x="50.000000" y="47.000000" font-family="Arial" font-size="7">tgroup()</text>
<line x1="35.000000" y1="35.000000" x2="35.000000" y2="177.000000"  style="stroke: black; stroke-linecap:round; stroke-width:0.25; stroke-dasharray:3,3;"/>
<line x1="35.000000" y1="177.000000" x2="333.600000" y2="177.000000"  style="stroke: black; stroke-linecap:round; stroke-width:0.25; stroke-dasharray:3,3;"/>
<line x1="333.600000" y1="177.000000" x2="333.600000" y2="35.000000"  style="stroke: black; stroke-linecap:round; stroke-width:0.25; stroke-dasharray:3,3;"/>
<line x1="35.000000" y1="35.000000" x2="40.000000" y2="35.000000"  style="stroke: black; stroke-linecap:round; stroke-width:0.25; stroke-dasharray:3,3;"/>
<line x1="110.950000" y1="35.000000" x2="333.600000" y2="35.000000"  style="stroke: black; stroke-linecap:round; stroke-width:0.25; stroke-dasharray:3,3;"/>
<text x="40.000000" y="37.000000" font-family="Arial" font-size="7">vgroup(VoiceOfFaust)</text>
<line x1="25.000000" y1="25.000000" x2="25.000000" y2="187.000000"  style="stroke: black; stroke-linecap:round; stroke-width:0.25; stroke-dasharray:3,3;"/>
<line x1="25.000000" y1="187.000000" x2="343.600000" y2="187.000000"  style="stroke: black; stroke-linecap:round; stroke-width:0.25; stroke-dasharray:3,3;"/>
<line x1="343.600000" y1="187.000000" x2="343.600000" y2="25.000000"  style="stroke: black; stroke-linecap:round; stroke-width:0.25; stroke-dasharray:3,3;"/>
<line x1="25.000000" y1="25.000000" x2="30.000000" y2="25.000000"  style="stroke: black; stroke-linecap:round; stroke-width:0.25; stroke-dasharray:3,3;"/>
<line x1="75.150000" y1="25.000000" x2="343.600000" y2="25.000000"  style="stroke: black; stroke-linecap:round; stroke-width:0.25; stroke-dasharray:3,3;"/>
<text x="30.000000" y="27.000000" font-family="Arial" font-size="7">vocoderQband</text>
<rect x="153.300000" y="207.000000" width="24.000000" height="24.000000" rx="0" ry="0" style="stroke:none;fill:#cccccc;"/>
<rect x="152.300000" y="206.000000" width="24.000000" height="24.000000" rx="0" ry="0" style="stroke:none;fill:#f44800;"/>
<text x="164.300000" y="220.000000" font-family="Arial" font-size="7" text-anchor="middle" fill="#FFFFFF">13</text>
<circle cx="154.300000" cy="208.000000" r="1"/>
<line x1="143.300000" y1="197.000000" x2="143.300000" y2="239.000000"  style="stroke: black; stroke-linecap:round; stroke-width:0.25; stroke-dasharray:3,3;"/>
<line x1="143.300000" y1="239.000000" x2="185.300000" y2="239.000000"  style="stroke: black; stroke-linecap:round; stroke-width:0.25; stroke-dasharray:3,3;"/>
<line x1="185.300000" y1="239.000000" x2="185.300000" y2="197.000000"  style="stroke: black; stroke-linecap:round; stroke-width:0.25; stroke-dasharray:3,3;"/>
<line x1="143.300000" y1="197.000000" x2="148.300000" y2="197.000000"  style="stroke: black; stroke-linecap:round; stroke-width:0.25; stroke-dasharray:3,3;"/>
<line x1="180.550000" y1="197.000000" x2="185.300000" y2="197.000000"  style="stroke: black; stroke-linecap:round; stroke-width:0.25; stroke-dasharray:3,3;"/>
<text x="148.300000" y="199.000000" font-family="Arial" font-size="7">noiseMax</text>
<rect x="153.300000" y="259.000000" width="24.000000" height="24.000000" rx="0" ry="0" style="stroke:none;fill:#cccccc;"/>
<rect x="152.300000" y="258.000000" width="24.000000" height="24.000000" rx="0" ry="0" style="stroke:none;fill:#f44800;"/>
<text x="164.300000" y="272.000000" font-family="Arial" font-size="7" text-anchor="middle" fill="#FFFFFF">1</text>
<circle cx="154.300000" cy="260.000000" r="1"/>
<line x1="143.300000" y1="249.000000" x2="143.300000" y2="291.000000"  style="stroke: black; stroke-linecap:round; stroke-width:0.25; stroke-dasharray:3,3;"/>
<line x1="143.300000" y1="291.000000" x2="185.300000" y2="291.000000"  style="stroke: black; stroke-linecap:round; stroke-width:0.25; stroke-dasharray:3,3;"/>
<line x1="185.300000" y1="291.000000" x2="185.300000" y2="249.000000"  style="stroke: black; stroke-linecap:round; stroke-width:0.25; stroke-dasharray:3,3;"/>
<line x1="143.300000" y1="249.000000" x2="148.300000" y2="249.000000"  style="stroke: black; stroke-linecap:round; stroke-width:0.25; stroke-dasharray:3,3;"/>
<line x1="161.200000" y1="249.000000" x2="185.300000" y2="249.000000"  style="stroke: black; stroke-linecap:round; stroke-width:0.25; stroke-dasharray:3,3;"/>
<text x="148.300000" y="251.000000" font-family="Arial" font-size="7">a0</text>
<rect x="203.300000" y="233.000000" width="24.000000" height="24.000000" rx="0" ry="0" style="stroke:none;fill:#cccccc;"/>
<rect x="202.300000" y="232.000000" width="24.000000" height="24.000000" rx="0" ry="0" style="stroke:none;fill:#4B71A1;"/>
<text x="214.300000" y="246.000000" font-family="Arial" font-size="7" text-anchor="middle" fill="#FFFFFF">+</text>
<circle cx="204.300000" cy="234.000000" r="1"/>
<line x1="199.300000" y1="239.000000" x2="202.300000" y2="240.000000"  transform="rotate(0.000000,202.300000,240.000000)" style="stroke: black; stroke-width:0.25;"/>
<line x1="199.300000" y1="241.000000" x2="202.300000" y2="240.000000"  transform="rotate(0.000000,202.300000,240.000000)" style="stroke: black; stroke-width:0.25;"/>
<line x1="199.300000" y1="247.000000" x2="202.300000" y2="248.000000"  transform="rotate(0.000000,202.300000,248.000000)" style="stroke: black; stroke-width:0.25;"/>
<line x1="199.300000" y1="249.000000" x2="202.300000" y2="248.000000"  transform="rotate(0.000000,202.300000,248.000000)" style="stroke: black; stroke-width:0.25;"/>
<rect x="361.600000" y="147.000000" width="24.000000" height="24.000000" rx="0" ry="0" style="stroke:none;fill:#cccccc;"/>
<rect x="360.600000" y="146.000000" width="24.000000" height="24.000000" rx="0" ry="0" style="stroke:none;fill:#4B71A1;"/>
<text x="372.600000" y="160.000000" font-family="Arial" font-size="7" text-anchor="middle" fill="#FFFFFF">-</text>
<circle cx="362.600000" cy="148.000000" r="1"/>
<line x1="357.600000" y1="153.000000" x2="360.600000" y2="154.000000"  transform="rotate(0.000000,360.600000,154.000000)" style="stroke: black; stroke-width:0.25;"/>
<line x1="357.600000" y1="155.000000" x2="360.600000" y2="154.000000"  transform="rotate(0.000000,360.600000,154.000000)" style="stroke: black; stroke-width:0.25;"/>
<line x1="357.600000" y1="161.000000" x2="360.600000" y2="162.000000"  transform="rotate(0.000000,360.600000,162.000000)" style="stroke: black; stroke-width:0.25;"/>
<line x1="357.600000" y1="163.000000" x2="360.600000" y2="162.000000"  transform="rotate(0.000000,360.600000,162.000000)" style="stroke: black; stroke-width:0.25;"/>
<rect x="95.000000" y="371.000000" width="180.600000" height="24.000000" rx="0" ry="0" style="stroke:none;fill:#cccccc;"/>
<rect x="94.000000" y="370.000000" width="180.600000" height="24.000000" rx="0" ry="0" style="stroke:none;fill:#477881;"/>
<text x="184.300000" y="384.000000" font-family="Arial" font-size="7" text-anchor="middle" fill="#FFFFFF">vslider(Q-band, 8.0f, 1.0f, 16.0f, 0.001f)</text>
<circle cx="96.000000" cy="372.000000" r="1"/>
<line x1="85.000000" y1="361.000000" x2="85.000000" y2="403.000000"  style="stroke: black; stroke-linecap:round; stroke-width:0.25; stroke-dasharray:3,3;"/>
<line x1="85.000000" y1="403.000000" x2="283.600000" y2="403.000000"  style="stroke: black; stroke-linecap:round; stroke-width:0.25; stroke-dasharray:3,3;"/>
<line x1="283.600000" y1="403.000000" x2="283.600000" y2="361.000000"  style="stroke: black; stroke-linecap:round; stroke-width:0.25; stroke-dasharray:3,3;"/>
<line x1="85.000000" y1="361.000000" x2="90.000000" y2="361.000000"  style="stroke: black; stroke-linecap:round; stroke-width:0.25; stroke-dasharray:3,3;"/>
<line x1="148.050000" y1="361.000000" x2="283.600000" y2="361.000000"  style="stroke: black; stroke-linecap:round; stroke-width:0.25; stroke-dasharray:3,3;"/>
<text x="90.000000" y="363.000000" font-family="Arial" font-size="7">vgroup(mid band)</text>
<line x1="75.000000" y1="351.000000" x2="75.000000" y2="413.000000"  style="stroke: black; stroke-linecap:round; stroke-width:0.25; stroke-dasharray:3,3;"/>
<line x1="75.000000" y1="413.000000" x2="293.600000" y2="413.000000"  style="stroke: black; stroke-linecap:round; stroke-width:0.25; stroke-dasharray:3,3;"/>
<line x1="293.600000" y1="413.000000" x2="293.600000" y2="351.000000"  style="stroke: black; stroke-linecap:round; stroke-width:0.25; stroke-dasharray:3,3;"/>
<line x1="75.000000" y1="351.000000" x2="80.000000" y2="351.000000"  style="stroke: black; stroke-linecap:round; stroke-width:0.25; stroke-dasharray:3,3;"/>
<line x1="134.825000" y1="351.000000" x2="293.600000" y2="351.000000"  style="stroke: black; stroke-linecap:round; stroke-width:0.25; stroke-dasharray:3,3;"/>
<text x="80.000000" y="353.000000" font-family="Arial" font-size="7">hgroup(filters)</text>
<line x1="65.000000" y1="341.000000" x2="65.000000" y2="423.000000"  style="stroke: black; stroke-linecap:round; stroke-width:0.25; stroke-dasharray:3,3;"/>
<line x1="65.000000" y1="423.000000" x2="303.600000" y2="423.000000"  style="stroke: black; stroke-linecap:round; stroke-width:0.25; stroke-dasharray:3,3;"/>
<line x1="303.600000" y1="423.000000" x2="303.600000" y2="341.000000"  style="stroke: black; stroke-linecap:round; stroke-width:0.25; stroke-dasharray:3,3;"/>
<line x1="65.000000" y1="341.000000" x2="70.000000" y2="341.000000"  style="stroke: black; stroke-linecap:round; stroke-width:0.25; stroke-dasharray:3,3;"/>
<line x1="124.825000" y1="341.000000" x2="303.600000" y2="341.000000"  style="stroke: black; stroke-linecap:round; stroke-width:0.25; stroke-dasharray:3,3;"/>
<text x="70.000000" y="343.000000" font-family="Arial" font-size="7">hgroup(vocoder)</text>
<line x1="55.000000" y1="331.000000" x2="55.000000" y2="433.000000"  style="stroke: black; stroke-linecap:round; stroke-width:0.25; stroke-dasharray:3,3;"/>
<line x1="55.000000" y1="433.000000" x2="313.600000" y2="433.000000"  style="stroke: black; stroke-linecap:round; stroke-width:0.25; stroke-dasharray:3,3;"/>
<line x1="313.600000" y1="433.000000" x2="313.600000" y2="331.000000"  style="stroke: black; stroke-linecap:round; stroke-width:0.25; stroke-dasharray:3,3;"/>
<line x1="55.000000" y1="331.000000" x2="60.000000" y2="331.000000"  style="stroke: black; stroke-linecap:round; stroke-width:0.25; stroke-dasharray:3,3;"/>
<line x1="111.600000" y1="331.000000" x2="313.600000" y2="331.000000"  style="stroke: black; stroke-linecap:round; stroke-width:0.25; stroke-dasharray:3,3;"/>
<text x="60.000000" y="333.000000" font-family="Arial" font-size="7">hgroup(synths)</text>
<line x1="45.000000" y1="321.000000" x2="45.000000" y2="443.000000"  style="stroke: black; stroke-linecap:round; stroke-width:0.25; stroke-dasharray:3,3;"/>
<line x1="45.000000" y1="443.000000" x2="323.600000" y2="443.000000"  style="stroke: black; stroke-linecap:round; stroke-width:0.25; stroke-dasharray:3,3;"/>
<line x1="323.600000" y1="443.000000" x2="323.600000" y2="321.000000"  style="stroke: black; stroke-linecap:round; stroke-width:0.25; stroke-dasharray:3,3;"/>
<line x1="45.000000" y1="321.000000" x2="50.000000" y2="321.000000"  style="stroke: black; stroke-linecap:round; stroke-width:0.25; stroke-dasharray:3,3;"/>
<line x1="82.250000" y1="321.000000" x2="323.600000" y2="321.000000"  style="stroke: black; stroke-linecap:round; stroke-width:0.25; stroke-dasharray:3,3;"/>
<text x="50.000000" y="323.000000" font-family="Arial" font-size="7">tgroup()</text>
<line x1="35.000000" y1="311.000000" x2="35.000000" y2="453.000000"  style="stroke: black; stroke-linecap:round; stroke-width:0.25; stroke-dasharray:3,3;"/>
<line x1="35.000000" y1="453.000000" x2="333.600000" y2="453.000000"  style="stroke: black; stroke-linecap:round; stroke-width:0.25; stroke-dasharray:3,3;"/>
<line x1="333.600000" y1="453.000000" x2="333.600000" y2="311.000000"  style="stroke: black; stroke-linecap:round; stroke-width:0.25; stroke-dasharray:3,3;"/>
<line x1="35.000000" y1="311.000000" x2="40.000000" y2="311.000000"  style="stroke: black; stroke-linecap:round; stroke-width:0.25; stroke-dasharray:3,3;"/>
<line x1="110.950000" y1="311.000000" x2="333.600000" y2="311.000000"  style="stroke: black; stroke-linecap:round; stroke-width:0.25; stroke-dasharray:3,3;"/>
<text x="40.000000" y="313.000000" font-family="Arial" font-size="7">vgroup(VoiceOfFaust)</text>
<line x1="25.000000" y1="301.000000" x2="25.000000" y2="463.000000"  style="stroke: black; stroke-linecap:round; stroke-width:0.25; stroke-dasharray:3,3;"/>
<line x1="25.000000" y1="463.000000" x2="343.600000" y2="463.000000"  style="stroke: black; stroke-linecap:round; stroke-width:0.25; stroke-dasharray:3,3;"/>
<line x1="343.600000" y1="463.000000" x2="343.600000" y2="301.000000"  style="stroke: black; stroke-linecap:round; stroke-width:0.25; stroke-dasharray:3,3;"/>
<line x1="25.000000" y1="301.000000" x2="30.000000" y2="301.000000"  style="stroke: black; stroke-linecap:round; stroke-width:0.25; stroke-dasharray:3,3;"/>
<line x1="75.150000" y1="301.000000" x2="343.600000" y2="301.000000"  style="stroke: black; stroke-linecap:round; stroke-width:0.25; stroke-dasharray:3,3;"/>
<text x="30.000000" y="303.000000" font-family="Arial" font-size="7">vocoderQband</text>
<rect x="173.300000" y="483.000000" width="24.000000" height="24.000000" rx="0" ry="0" style="stroke:none;fill:#cccccc;"/>
<rect x="172.300000" y="482.000000" width="24.000000" height="24.000000" rx="0" ry="0" style="stroke:none;fill:#f44800;"/>
<text x="184.300000" y="496.000000" font-family="Arial" font-size="7" text-anchor="middle" fill="#FFFFFF">1</text>
<circle cx="174.300000" cy="484.000000" r="1"/>
<line x1="163.300000" y1="473.000000" x2="163.300000" y2="515.000000"  style="stroke: black; stroke-linecap:round; stroke-width:0.25; stroke-dasharray:3,3;"/>
<line x1="163.300000" y1="515.000000" x2="205.300000" y2="515.000000"  style="stroke: black; stroke-linecap:round; stroke-width:0.25; stroke-dasharray:3,3;"/>
<line x1="205.300000" y1="515.000000" x2="205.300000" y2="473.000000"  style="stroke: black; stroke-linecap:round; stroke-width:0.25; stroke-dasharray:3,3;"/>
<line x1="163.300000" y1="473.000000" x2="168.300000" y2="473.000000"  style="stroke: black; stroke-linecap:round; stroke-width:0.25; stroke-dasharray:3,3;"/>
<line x1="181.200000" y1="473.000000" x2="205.300000" y2="473.000000"  style="stroke: black; stroke-linecap:round; stroke-width:0.25; stroke-dasharray:3,3;"/>
<text x="168.300000" y="475.000000" font-family="Arial" font-size="7">a0</text>
<rect x="361.600000" y="397.000000" width="24.000000" height="24.000000" rx="0" ry="0" style="stroke:none;fill:#cccccc;"/>
<rect x="360.600000" y="396.000000" width="24.000000" height="24.000000" rx="0" ry="0" style="stroke:none;fill:#4B71A1;"/>
<text x="372.600000" y="410.000000" font-family="Arial" font-size="7" text-anchor="middle" fill="#FFFFFF">-</text>
<circle cx="362.600000" cy="398.000000" r="1"/>
<line x1="357.600000" y1="403.000000" x2="360.600000" y2="404.000000"  transform="rotate(0.000000,360.600000,404.000000)" style="stroke: black; stroke-width:0.25;"/>
<line x1="357.600000" y1="405.000000" x2="360.600000" y2="404.000000"  transform="rotate(0.000000,360.600000,404.000000)" style="stroke: black; stroke-width:0.25;"/>
<line x1="357.600000" y1="411.000000" x2="360.600000" y2="412.000000"  transform="rotate(0.000000,360.600000,412.000000)" style="stroke: black; stroke-width:0.25;"/>
<line x1="357.600000" y1="413.000000" x2="360.600000" y2="412.000000"  transform="rotate(0.000000,360.600000,412.000000)" style="stroke: black; stroke-width:0.25;"/>
<rect x="401.600000" y="259.000000" width="24.000000" height="24.000000" rx="0" ry="0" style="stroke:none;fill:#cccccc;"/>
<rect x="400.600000" y="258.000000" width="24.000000" height="24.000000" rx="0" ry="0" style="stroke:none;fill:#4B71A1;"/>
<text x="412.600000" y="272.000000" font-family="Arial" font-size="7" text-anchor="middle" fill="#FFFFFF">/</text>
<circle cx="402.600000" cy="260.000000" r="1"/>
<line x1="397.600000" y1="265.000000" x2="400.600000" y2="266.000000"  transform="rotate(0.000000,400.600000,266.000000)" style="stroke: black; stroke-width:0.25;"/>
<line x1="397.600000" y1="267.000000" x2="400.600000" y2="266.000000"  transform="rotate(0.000000,400.600000,266.000000)" style="stroke: black; stroke-width:0.25;"/>
<line x1="397.600000" y1="273.000000" x2="400.600000" y2="274.000000"  transform="rotate(0.000000,400.600000,274.000000)" style="stroke: black; stroke-width:0.25;"/>
<line x1="397.600000" y1="275.000000" x2="400.600000" y2="274.000000"  transform="rotate(0.000000,400.600000,274.000000)" style="stroke: black; stroke-width:0.25;"/>
<line x1="15.000000" y1="15.000000" x2="15.000000" y2="525.000000"  style="stroke: black; stroke-linecap:round; stroke-width:0.25; stroke-dasharray:3,3;"/>
<line x1="15.000000" y1="525.000000" x2="441.600000" y2="525.000000"  style="stroke: black; stroke-linecap:round; stroke-width:0.25; stroke-dasharray:3,3;"/>
<line x1="441.600000" y1="525.000000" x2="441.600000" y2="15.000000"  style="stroke: black; stroke-linecap:round; stroke-width:0.25; stroke-dasharray:3,3;"/>
<line x1="15.000000" y1="15.000000" x2="20.000000" y2="15.000000"  style="stroke: black; stroke-linecap:round; stroke-width:0.25; stroke-dasharray:3,3;"/>
<line x1="74.825000" y1="15.000000" x2="441.600000" y2="15.000000"  style="stroke: black; stroke-linecap:round; stroke-width:0.25; stroke-dasharray:3,3;"/>
<text x="20.000000" y="17.000000" font-family="Arial" font-size="7">midToBottom(13)</text>
<line x1="443.600000" y1="269.000000" x2="446.600000" y2="270.000000"  transform="rotate(0.000000,446.600000,270.000000)" style="stroke: black; stroke-width:0.25;"/>
<line x1="443.600000" y1="271.000000" x2="446.600000" y2="270.000000"  transform="rotate(0.000000,446.600000,270.000000)" style="stroke: black; stroke-width:0.25;"/>
<line x1="176.300000" y1="218.000000" x2="180.300000" y2="218.000000"  style="stroke:black; stroke-linecap:round; stroke-width:0.25;"/>
<line x1="176.300000" y1="270.000000" x2="180.300000" y2="270.000000"  style="stroke:black; stroke-linecap:round; stroke-width:0.25;"/>
<line x1="180.300000" y1="218.000000" x2="190.300000" y2="218.000000"  style="stroke:black; stroke-linecap:round; stroke-width:0.25;"/>
<line x1="180.300000" y1="270.000000" x2="190.300000" y2="270.000000"  style="stroke:black; stroke-linecap:round; stroke-width:0.25;"/>
<line x1="190.300000" y1="218.000000" x2="198.300000" y2="218.000000"  style="stroke:black; stroke-linecap:round; stroke-width:0.25;"/>
<line x1="190.300000" y1="248.000000" x2="198.300000" y2="248.000000"  style="stroke:black; stroke-linecap:round; stroke-width:0.25;"/>
<line x1="190.300000" y1="270.000000" x2="190.300000" y2="248.000000"  style="stroke:black; stroke-linecap:round; stroke-width:0.25;"/>
<line x1="190.300000" y1="270.000000" x2="190.300000" y2="270.000000"  style="stroke:black; stroke-linecap:round; stroke-width:0.25;"/>
<line x1="196.300000" y1="494.000000" x2="200.300000" y2="494.000000"  style="stroke:black; stroke-linecap:round; stroke-width:0.25;"/>
<line x1="198.300000" y1="218.000000" x2="198.300000" y2="240.000000"  style="stroke:black; stroke-linecap:round; stroke-width:0.25;"/>
<line x1="198.300000" y1="240.000000" x2="198.300000" y2="240.000000"  style="stroke:black; stroke-linecap:round; stroke-width:0.25;"/>
<line x1="198.300000" y1="240.000000" x2="202.300000" y2="240.000000"  style="stroke:black; stroke-linecap:round; stroke-width:0.25;"/>
<line x1="198.300000" y1="248.000000" x2="202.300000" y2="248.000000"  style="stroke:black; stroke-linecap:round; stroke-width:0.25;"/>
<line x1="200.300000" y1="494.000000" x2="210.300000" y2="494.000000"  style="stroke:black; stroke-linecap:round; stroke-width:0.25;"/>
<line x1="210.300000" y1="494.000000" x2="348.600000" y2="494.000000"  style="stroke:black; stroke-linecap:round; stroke-width:0.25;"/>
<line x1="226.300000" y1="244.000000" x2="230.300000" y2="244.000000"  style="stroke:black; stroke-linecap:round; stroke-width:0.25;"/>
<line x1="230.300000" y1="244.000000" x2="348.600000" y2="244.000000"  style="stroke:black; stroke-linecap:round; stroke-width:0.25;"/>
<line x1="274.600000" y1="106.000000" x2="278.600000" y2="106.000000"  style="stroke:black; stroke-linecap:round; stroke-width:0.25;"/>
<line x1="274.600000" y1="382.000000" x2="278.600000" y2="382.000000"  style="stroke:black; stroke-linecap:round; stroke-width:0.25;"/>
<line x1="278.600000" y1="106.000000" x2="288.600000" y2="106.000000"  style="stroke:black; stroke-linecap:round; stroke-width:0.25;"/>
<line x1="278.600000" y1="382.000000" x2="288.600000" y2="382.000000"  style="stroke:black; stroke-linecap:round; stroke-width:0.25;"/>
<line x1="288.600000" y1="106.000000" x2="298.600000" y2="106.000000"  style="stroke:black; stroke-linecap:round; stroke-width:0.25;"/>
<line x1="288.600000" y1="382.000000" x2="298.600000" y2="382.000000"  style="stroke:black; stroke-linecap:round; stroke-width:0.25;"/>
<line x1="298.600000" y1="106.000000" x2="308.600000" y2="106.000000"  style="stroke:black; stroke-linecap:round; stroke-width:0.25;"/>
<line x1="298.600000" y1="382.000000" x2="308.600000" y2="382.000000"  style="stroke:black; stroke-linecap:round; stroke-width:0.25;"/>
<line x1="308.600000" y1="106.000000" x2="318.600000" y2="106.000000"  style="stroke:black; stroke-linecap:round; stroke-width:0.25;"/>
<line x1="308.600000" y1="382.000000" x2="318.600000" y2="382.000000"  style="stroke:black; stroke-linecap:round; stroke-width:0.25;"/>
<line x1="318.600000" y1="106.000000" x2="328.600000" y2="106.000000"  style="stroke:black; stroke-linecap:round; stroke-width:0.25;"/>
<line x1="318.600000" y1="382.000000" x2="328.600000" y2="382.000000"  style="stroke:black; stroke-linecap:round; stroke-width:0.25;"/>
<line x1="328.600000" y1="106.000000" x2="338.600000" y2="106.000000"  style="stroke:black; stroke-linecap:round; stroke-width:0.25;"/>
<line x1="328.600000" y1="382.000000" x2="338.600000" y2="382.000000"  style="stroke:black; stroke-linecap:round; stroke-width:0.25;"/>
<line x1="338.600000" y1="106.000000" x2="348.600000" y2="106.000000"  style="stroke:black; stroke-linecap:round; stroke-width:0.25;"/>
<line x1="338.600000" y1="382.000000" x2="348.600000" y2="382.000000"  style="stroke:black; stroke-linecap:round; stroke-width:0.25;"/>
<line x1="348.600000" y1="106.000000" x2="356.600000" y2="106.000000"  style="stroke:black; stroke-linecap:round; stroke-width:0.25;"/>
<line x1="348.600000" y1="162.000000" x2="356.600000" y2="162.000000"  style="stroke:black; stroke-linecap:round; stroke-width:0.25;"/>
<line x1="348.600000" y1="244.000000" x2="348.600000" y2="162.000000"  style="stroke:black; stroke-linecap:round; stroke-width:0.25;"/>
<line x1="348.600000" y1="244.000000" x2="348.600000" y2="244.000000"  style="stroke:black; stroke-linecap:round; stroke-width:0.25;"/>
<line x1="348.600000" y1="382.000000" x2="356.600000" y2="382.000000"  style="stroke:black; stroke-linecap:round; stroke-width:0.25;"/>
<line x1="348.600000" y1="412.000000" x2="356.600000" y2="412.000000"  style="stroke:black; stroke-linecap:round; stroke-width:0.25;"/>
<line x1="348.600000" y1="494.000000" x2="348.600000" y2="412.000000"  style="stroke:black; stroke-linecap:round; stroke-width:0.25;"/>
<line x1="348.600000" y1="494.000000" x2="348.600000" y2="494.000000"  style="stroke:black; stroke-linecap:round; stroke-width:0.25;"/>
<line x1="356.600000" y1="106.000000" x2="356.600000" y2="154.000000"  style="stroke:black; stroke-linecap:round; stroke-width:0.25;"/>
<line x1="356.600000" y1="154.000000" x2="356.600000" y2="154.000000"  style="stroke:black; stroke-linecap:round; stroke-width:0.25;"/>
<line x1="356.600000" y1="154.000000" x2="360.600000" y2="154.000000"  style="stroke:black; stroke-linecap:round; stroke-width:0.25;"/>
<line x1="356.600000" y1="162.000000" x2="360.600000" y2="162.000000"  style="stroke:black; stroke-linecap:round; stroke-width:0.25;"/>
<line x1="356.600000" y1="382.000000" x2="356.600000" y2="404.000000"  style="stroke:black; stroke-linecap:round; stroke-width:0.25;"/>
<line x1="356.600000" y1="404.000000" x2="356.600000" y2="404.000000"  style="stroke:black; stroke-linecap:round; stroke-width:0.25;"/>
<line x1="356.600000" y1="404.000000" x2="360.600000" y2="404.000000"  style="stroke:black; stroke-linecap:round; stroke-width:0.25;"/>
<line x1="356.600000" y1="412.000000" x2="360.600000" y2="412.000000"  style="stroke:black; stroke-linecap:round; stroke-width:0.25;"/>
<line x1="384.600000" y1="158.000000" x2="388.600000" y2="158.000000"  style="stroke:black; stroke-linecap:round; stroke-width:0.25;"/>
<line x1="384.600000" y1="408.000000" x2="388.600000" y2="408.000000"  style="stroke:black; stroke-linecap:round; stroke-width:0.25;"/>
<line x1="388.600000" y1="158.000000" x2="396.600000" y2="158.000000"  style="stroke:black; stroke-linecap:round; stroke-width:0.25;"/>
<line x1="388.600000" y1="274.000000" x2="396.600000" y2="274.000000"  style="stroke:black; stroke-linecap:round; stroke-width:0.25;"/>
<line x1="388.600000" y1="408.000000" x2="388.600000" y2="274.000000"  style="stroke:black; stroke-linecap:round; stroke-width:0.25;"/>
<line x1="388.600000" y1="408.000000" x2="388.600000" y2="408.000000"  style="stroke:black; stroke-linecap:round; stroke-width:0.25;"/>
<line x1="396.600000" y1="158.000000" x2="396.600000" y2="266.000000"  style="stroke:black; stroke-linecap:round; stroke-width:0.25;"/>
<line x1="396.600000" y1="266.000000" x2="396.600000" y2="266.000000"  style="stroke:black; stroke-linecap:round; stroke-width:0.25;"/>
<line x1="396.600000" y1="266.000000" x2="400.600000" y2="266.000000"  style="stroke:black; stroke-linecap:round; stroke-width:0.25;"/>
<line x1="396.600000" y1="274.000000" x2="400.600000" y2="274.000000"  style="stroke:black; stroke-linecap:round; stroke-width:0.25;"/>
<line x1="424.600000" y1="270.000000" x2="428.600000" y2="270.000000"  style="stroke:black; stroke-linecap:round; stroke-width:0.25;"/>
<line x1="428.600000" y1="270.000000" x2="428.600000" y2="270.000000"  style="stroke:black; stroke-linecap:round; stroke-width:0.25;"/>
<line x1="428.600000" y1="270.000000" x2="432.600000" y2="270.000000"  style="stroke:black; stroke-linecap:round; stroke-width:0.25;"/>
<line x1="432.600000" y1="270.000000" x2="436.600000" y2="270.000000"  style="stroke:black; stroke-linecap:round; stroke-width:0.25;"/>
<line x1="436.600000" y1="270.000000" x2="446.600000" y2="270.000000"  style="stroke:black; stroke-linecap:round; stroke-width:0.25;"/>
</svg>
