<?xml version="1.0"?>
<svg xmlns="http://www.w3.org/2000/svg" xmlns:xlink="http://www.w3.org/1999/xlink" viewBox="0 0 390.040000 152.000000" width="195.020000mm" height="76.000000mm" version="1.1">
<a xlink:href="VoiceOfFaust-0x34cdb3b0.svg">
<rect x="1.000000" y="1.000000" width="389.040000" height="151.000000" rx="0" ry="0" style="stroke:none;fill:#cccccc;"/>
<rect x="0.000000" y="0.000000" width="389.040000" height="151.000000" rx="0" ry="0" style="stroke:none;fill:#ffffff;"/>
</a>
<text x="10.000000" y="7.000000" font-family="Arial" font-size="7"></text>
<a xlink:href="busWithSends-0x6cc9c10.svg">
<rect x="73.000000" y="25.000000" width="77.400000" height="48.000000" rx="0" ry="0" style="stroke:none;fill:#cccccc;"/>
<rect x="72.000000" y="24.000000" width="77.400000" height="48.000000" rx="0" ry="0" style="stroke:none;fill:#003366;"/>
</a>
<a xlink:href="busWithSends-0x6cc9c10.svg">
<text x="110.700000" y="50.000000" font-family="Arial" font-size="7" text-anchor="middle" fill="#FFFFFF">busWithSends(2)(3)</text>
</a>
<circle cx="74.000000" cy="26.000000" r="1"/>
<line x1="69.000000" y1="31.000000" x2="72.000000" y2="32.000000"  transform="rotate(0.000000,72.000000,32.000000)" style="stroke: black; stroke-width:0.25;"/>
<line x1="69.000000" y1="33.000000" x2="72.000000" y2="32.000000"  transform="rotate(0.000000,72.000000,32.000000)" style="stroke: black; stroke-width:0.25;"/>
<line x1="69.000000" y1="39.000000" x2="72.000000" y2="40.000000"  transform="rotate(0.000000,72.000000,40.000000)" style="stroke: black; stroke-width:0.25;"/>
<line x1="69.000000" y1="41.000000" x2="72.000000" y2="40.000000"  transform="rotate(0.000000,72.000000,40.000000)" style="stroke: black; stroke-width:0.25;"/>
<line x1="69.000000" y1="47.000000" x2="72.000000" y2="48.000000"  transform="rotate(0.000000,72.000000,48.000000)" style="stroke: black; stroke-width:0.25;"/>
<line x1="69.000000" y1="49.000000" x2="72.000000" y2="48.000000"  transform="rotate(0.000000,72.000000,48.000000)" style="stroke: black; stroke-width:0.25;"/>
<line x1="69.000000" y1="55.000000" x2="72.000000" y2="56.000000"  transform="rotate(0.000000,72.000000,56.000000)" style="stroke: black; stroke-width:0.25;"/>
<line x1="69.000000" y1="57.000000" x2="72.000000" y2="56.000000"  transform="rotate(0.000000,72.000000,56.000000)" style="stroke: black; stroke-width:0.25;"/>
<line x1="69.000000" y1="63.000000" x2="72.000000" y2="64.000000"  transform="rotate(0.000000,72.000000,64.000000)" style="stroke: black; stroke-width:0.25;"/>
<line x1="69.000000" y1="65.000000" x2="72.000000" y2="64.000000"  transform="rotate(0.000000,72.000000,64.000000)" style="stroke: black; stroke-width:0.25;"/>
<a xlink:href="busWithSends-0x6cc9c10.svg">
<rect x="73.000000" y="81.000000" width="77.400000" height="48.000000" rx="0" ry="0" style="stroke:none;fill:#cccccc;"/>
<rect x="72.000000" y="80.000000" width="77.400000" height="48.000000" rx="0" ry="0" style="stroke:none;fill:#003366;"/>
</a>
<a xlink:href="busWithSends-0x6cc9c10.svg">
<text x="110.700000" y="106.000000" font-family="Arial" font-size="7" text-anchor="middle" fill="#FFFFFF">busWithSends(2)(3)</text>
</a>
<circle cx="74.000000" cy="82.000000" r="1"/>
<line x1="69.000000" y1="87.000000" x2="72.000000" y2="88.000000"  transform="rotate(0.000000,72.000000,88.000000)" style="stroke: black; stroke-width:0.25;"/>
<line x1="69.000000" y1="89.000000" x2="72.000000" y2="88.000000"  transform="rotate(0.000000,72.000000,88.000000)" style="stroke: black; stroke-width:0.25;"/>
<line x1="69.000000" y1="95.000000" x2="72.000000" y2="96.000000"  transform="rotate(0.000000,72.000000,96.000000)" style="stroke: black; stroke-width:0.25;"/>
<line x1="69.000000" y1="97.000000" x2="72.000000" y2="96.000000"  transform="rotate(0.000000,72.000000,96.000000)" style="stroke: black; stroke-width:0.25;"/>
<line x1="69.000000" y1="103.000000" x2="72.000000" y2="104.000000"  transform="rotate(0.000000,72.000000,104.000000)" style="stroke: black; stroke-width:0.25;"/>
<line x1="69.000000" y1="105.000000" x2="72.000000" y2="104.000000"  transform="rotate(0.000000,72.000000,104.000000)" style="stroke: black; stroke-width:0.25;"/>
<line x1="69.000000" y1="111.000000" x2="72.000000" y2="112.000000"  transform="rotate(0.000000,72.000000,112.000000)" style="stroke: black; stroke-width:0.25;"/>
<line x1="69.000000" y1="113.000000" x2="72.000000" y2="112.000000"  transform="rotate(0.000000,72.000000,112.000000)" style="stroke: black; stroke-width:0.25;"/>
<line x1="69.000000" y1="119.000000" x2="72.000000" y2="120.000000"  transform="rotate(0.000000,72.000000,120.000000)" style="stroke: black; stroke-width:0.25;"/>
<line x1="69.000000" y1="121.000000" x2="72.000000" y2="120.000000"  transform="rotate(0.000000,72.000000,120.000000)" style="stroke: black; stroke-width:0.25;"/>
<line x1="15.000000" y1="15.000000" x2="15.000000" y2="137.000000"  style="stroke: black; stroke-linecap:round; stroke-width:0.25; stroke-dasharray:3,3;"/>
<line x1="15.000000" y1="137.000000" x2="375.040000" y2="137.000000"  style="stroke: black; stroke-linecap:round; stroke-width:0.25; stroke-dasharray:3,3;"/>
<line x1="375.040000" y1="137.000000" x2="375.040000" y2="15.000000"  style="stroke: black; stroke-linecap:round; stroke-width:0.25; stroke-dasharray:3,3;"/>
<line x1="15.000000" y1="15.000000" x2="20.000000" y2="15.000000"  style="stroke: black; stroke-linecap:round; stroke-width:0.25; stroke-dasharray:3,3;"/>
<line x1="100.625000" y1="15.000000" x2="375.040000" y2="15.000000"  style="stroke: black; stroke-linecap:round; stroke-width:0.25; stroke-dasharray:3,3;"/>
<text x="20.000000" y="17.000000" font-family="Arial" font-size="7">mixerWithSends(2)(2)(3)</text>
<line x1="377.040000" y1="55.000000" x2="380.040000" y2="56.000000"  transform="rotate(0.000000,380.040000,56.000000)" style="stroke: black; stroke-width:0.25;"/>
<line x1="377.040000" y1="57.000000" x2="380.040000" y2="56.000000"  transform="rotate(0.000000,380.040000,56.000000)" style="stroke: black; stroke-width:0.25;"/>
<line x1="377.040000" y1="63.000000" x2="380.040000" y2="64.000000"  transform="rotate(0.000000,380.040000,64.000000)" style="stroke: black; stroke-width:0.25;"/>
<line x1="377.040000" y1="65.000000" x2="380.040000" y2="64.000000"  transform="rotate(0.000000,380.040000,64.000000)" style="stroke: black; stroke-width:0.25;"/>
<line x1="377.040000" y1="71.000000" x2="380.040000" y2="72.000000"  transform="rotate(0.000000,380.040000,72.000000)" style="stroke: black; stroke-width:0.25;"/>
<line x1="377.040000" y1="73.000000" x2="380.040000" y2="72.000000"  transform="rotate(0.000000,380.040000,72.000000)" style="stroke: black; stroke-width:0.25;"/>
<line x1="377.040000" y1="79.000000" x2="380.040000" y2="80.000000"  transform="rotate(0.000000,380.040000,80.000000)" style="stroke: black; stroke-width:0.25;"/>
<line x1="377.040000" y1="81.000000" x2="380.040000" y2="80.000000"  transform="rotate(0.000000,380.040000,80.000000)" style="stroke: black; stroke-width:0.25;"/>
<line x1="377.040000" y1="87.000000" x2="380.040000" y2="88.000000"  transform="rotate(0.000000,380.040000,88.000000)" style="stroke: black; stroke-width:0.25;"/>
<line x1="377.040000" y1="89.000000" x2="380.040000" y2="88.000000"  transform="rotate(0.000000,380.040000,88.000000)" style="stroke: black; stroke-width:0.25;"/>
<line x1="377.040000" y1="95.000000" x2="380.040000" y2="96.000000"  transform="rotate(0.000000,380.040000,96.000000)" style="stroke: black; stroke-width:0.25;"/>
<line x1="377.040000" y1="97.000000" x2="380.040000" y2="96.000000"  transform="rotate(0.000000,380.040000,96.000000)" style="stroke: black; stroke-width:0.25;"/>
<line x1="10.000000" y1="40.000000" x2="20.000000" y2="40.000000"  style="stroke:black; stroke-linecap:round; stroke-width:0.25;"/>
<line x1="10.000000" y1="48.000000" x2="20.000000" y2="48.000000"  style="stroke:black; stroke-linecap:round; stroke-width:0.25;"/>
<line x1="10.000000" y1="56.000000" x2="20.000000" y2="56.000000"  style="stroke:black; stroke-linecap:round; stroke-width:0.25;"/>
<line x1="10.000000" y1="64.000000" x2="20.000000" y2="64.000000"  style="stroke:black; stroke-linecap:round; stroke-width:0.25;"/>
<line x1="10.000000" y1="72.000000" x2="20.000000" y2="72.000000"  style="stroke:black; stroke-linecap:round; stroke-width:0.25;"/>
<line x1="10.000000" y1="80.000000" x2="20.000000" y2="80.000000"  style="stroke:black; stroke-linecap:round; stroke-width:0.25;"/>
<line x1="10.000000" y1="88.000000" x2="20.000000" y2="88.000000"  style="stroke:black; stroke-linecap:round; stroke-width:0.25;"/>
<line x1="10.000000" y1="96.000000" x2="20.000000" y2="96.000000"  style="stroke:black; stroke-linecap:round; stroke-width:0.25;"/>
<line x1="10.000000" y1="104.000000" x2="20.000000" y2="104.000000"  style="stroke:black; stroke-linecap:round; stroke-width:0.25;"/>
<line x1="10.000000" y1="112.000000" x2="20.000000" y2="112.000000"  style="stroke:black; stroke-linecap:round; stroke-width:0.25;"/>
<line x1="20.000000" y1="40.000000" x2="24.000000" y2="40.000000"  style="stroke:black; stroke-linecap:round; stroke-width:0.25;"/>
<line x1="20.000000" y1="48.000000" x2="24.000000" y2="48.000000"  style="stroke:black; stroke-linecap:round; stroke-width:0.25;"/>
<line x1="20.000000" y1="56.000000" x2="24.000000" y2="56.000000"  style="stroke:black; stroke-linecap:round; stroke-width:0.25;"/>
<line x1="20.000000" y1="64.000000" x2="24.000000" y2="64.000000"  style="stroke:black; stroke-linecap:round; stroke-width:0.25;"/>
<line x1="20.000000" y1="72.000000" x2="24.000000" y2="72.000000"  style="stroke:black; stroke-linecap:round; stroke-width:0.25;"/>
<line x1="20.000000" y1="80.000000" x2="24.000000" y2="80.000000"  style="stroke:black; stroke-linecap:round; stroke-width:0.25;"/>
<line x1="20.000000" y1="88.000000" x2="24.000000" y2="88.000000"  style="stroke:black; stroke-linecap:round; stroke-width:0.25;"/>
<line x1="20.000000" y1="96.000000" x2="24.000000" y2="96.000000"  style="stroke:black; stroke-linecap:round; stroke-width:0.25;"/>
<line x1="20.000000" y1="104.000000" x2="24.000000" y2="104.000000"  style="stroke:black; stroke-linecap:round; stroke-width:0.25;"/>
<line x1="20.000000" y1="112.000000" x2="24.000000" y2="112.000000"  style="stroke:black; stroke-linecap:round; stroke-width:0.25;"/>
<line x1="24.000000" y1="40.000000" x2="28.000000" y2="40.000000"  style="stroke:black; stroke-linecap:round; stroke-width:0.25;"/>
<line x1="24.000000" y1="48.000000" x2="28.000000" y2="48.000000"  style="stroke:black; stroke-linecap:round; stroke-width:0.25;"/>
<line x1="24.000000" y1="56.000000" x2="28.000000" y2="56.000000"  style="stroke:black; stroke-linecap:round; stroke-width:0.25;"/>
<line x1="24.000000" y1="64.000000" x2="28.000000" y2="64.000000"  style="stroke:black; stroke-linecap:round; stroke-width:0.25;"/>
<line x1="24.000000" y1="72.000000" x2="28.000000" y2="72.000000"  style="stroke:black; stroke-linecap:round; stroke-width:0.25;"/>
<line x1="24.000000" y1="80.000000" x2="28.000000" y2="80.000000"  style="stroke:black; stroke-linecap:round; stroke-width:0.25;"/>
<line x1="24.000000" y1="88.000000" x2="28.000000" y2="88.000000"  style="stroke:black; stroke-linecap:round; stroke-width:0.25;"/>
<line x1="24.000000" y1="96.000000" x2="28.000000" y2="96.000000"  style="stroke:black; stroke-linecap:round; stroke-width:0.25;"/>
<line x1="24.000000" y1="104.000000" x2="28.000000" y2="104.000000"  style="stroke:black; stroke-linecap:round; stroke-width:0.25;"/>
<line x1="24.000000" y1="112.000000" x2="28.000000" y2="112.000000"  style="stroke:black; stroke-linecap:round; stroke-width:0.25;"/>
<line x1="28.000000" y1="32.000000" x2="68.000000" y2="32.000000"  style="stroke:black; stroke-linecap:round; stroke-width:0.25;"/>
<line x1="28.000000" y1="40.000000" x2="28.000000" y2="32.000000"  style="stroke:black; stroke-linecap:round; stroke-width:0.25;"/>
<line x1="28.000000" y1="40.000000" x2="28.000000" y2="40.000000"  style="stroke:black; stroke-linecap:round; stroke-width:0.25;"/>
<line x1="28.000000" y1="48.000000" x2="36.000000" y2="48.000000"  style="stroke:black; stroke-linecap:round; stroke-width:0.25;"/>
<line x1="28.000000" y1="56.000000" x2="44.000000" y2="56.000000"  style="stroke:black; stroke-linecap:round; stroke-width:0.25;"/>
<line x1="28.000000" y1="64.000000" x2="52.000000" y2="64.000000"  style="stroke:black; stroke-linecap:round; stroke-width:0.25;"/>
<line x1="28.000000" y1="72.000000" x2="60.000000" y2="72.000000"  style="stroke:black; stroke-linecap:round; stroke-width:0.25;"/>
<line x1="28.000000" y1="80.000000" x2="68.000000" y2="80.000000"  style="stroke:black; stroke-linecap:round; stroke-width:0.25;"/>
<line x1="28.000000" y1="88.000000" x2="60.000000" y2="88.000000"  style="stroke:black; stroke-linecap:round; stroke-width:0.25;"/>
<line x1="28.000000" y1="96.000000" x2="52.000000" y2="96.000000"  style="stroke:black; stroke-linecap:round; stroke-width:0.25;"/>
<line x1="28.000000" y1="104.000000" x2="44.000000" y2="104.000000"  style="stroke:black; stroke-linecap:round; stroke-width:0.25;"/>
<line x1="28.000000" y1="112.000000" x2="36.000000" y2="112.000000"  style="stroke:black; stroke-linecap:round; stroke-width:0.25;"/>
<line x1="36.000000" y1="40.000000" x2="68.000000" y2="40.000000"  style="stroke:black; stroke-linecap:round; stroke-width:0.25;"/>
<line x1="36.000000" y1="48.000000" x2="36.000000" y2="40.000000"  style="stroke:black; stroke-linecap:round; stroke-width:0.25;"/>
<line x1="36.000000" y1="112.000000" x2="36.000000" y2="120.000000"  style="stroke:black; stroke-linecap:round; stroke-width:0.25;"/>
<line x1="36.000000" y1="120.000000" x2="68.000000" y2="120.000000"  style="stroke:black; stroke-linecap:round; stroke-width:0.25;"/>
<line x1="44.000000" y1="48.000000" x2="68.000000" y2="48.000000"  style="stroke:black; stroke-linecap:round; stroke-width:0.25;"/>
<line x1="44.000000" y1="56.000000" x2="44.000000" y2="48.000000"  style="stroke:black; stroke-linecap:round; stroke-width:0.25;"/>
<line x1="44.000000" y1="104.000000" x2="44.000000" y2="112.000000"  style="stroke:black; stroke-linecap:round; stroke-width:0.25;"/>
<line x1="44.000000" y1="112.000000" x2="68.000000" y2="112.000000"  style="stroke:black; stroke-linecap:round; stroke-width:0.25;"/>
<line x1="52.000000" y1="56.000000" x2="68.000000" y2="56.000000"  style="stroke:black; stroke-linecap:round; stroke-width:0.25;"/>
<line x1="52.000000" y1="64.000000" x2="52.000000" y2="56.000000"  style="stroke:black; stroke-linecap:round; stroke-width:0.25;"/>
<line x1="52.000000" y1="96.000000" x2="52.000000" y2="104.000000"  style="stroke:black; stroke-linecap:round; stroke-width:0.25;"/>
<line x1="52.000000" y1="104.000000" x2="68.000000" y2="104.000000"  style="stroke:black; stroke-linecap:round; stroke-width:0.25;"/>
<line x1="60.000000" y1="64.000000" x2="68.000000" y2="64.000000"  style="stroke:black; stroke-linecap:round; stroke-width:0.25;"/>
<line x1="60.000000" y1="72.000000" x2="60.000000" y2="64.000000"  style="stroke:black; stroke-linecap:round; stroke-width:0.25;"/>
<line x1="60.000000" y1="88.000000" x2="60.000000" y2="96.000000"  style="stroke:black; stroke-linecap:round; stroke-width:0.25;"/>
<line x1="60.000000" y1="96.000000" x2="68.000000" y2="96.000000"  style="stroke:black; stroke-linecap:round; stroke-width:0.25;"/>
<line x1="68.000000" y1="32.000000" x2="72.000000" y2="32.000000"  style="stroke:black; stroke-linecap:round; stroke-width:0.25;"/>
<line x1="68.000000" y1="40.000000" x2="72.000000" y2="40.000000"  style="stroke:black; stroke-linecap:round; stroke-width:0.25;"/>
<line x1="68.000000" y1="48.000000" x2="72.000000" y2="48.000000"  style="stroke:black; stroke-linecap:round; stroke-width:0.25;"/>
<line x1="68.000000" y1="56.000000" x2="72.000000" y2="56.000000"  style="stroke:black; stroke-linecap:round; stroke-width:0.25;"/>
<line x1="68.000000" y1="64.000000" x2="72.000000" y2="64.000000"  style="stroke:black; stroke-linecap:round; stroke-width:0.25;"/>
<line x1="68.000000" y1="80.000000" x2="68.000000" y2="88.000000"  style="stroke:black; stroke-linecap:round; stroke-width:0.25;"/>
<line x1="68.000000" y1="88.000000" x2="68.000000" y2="88.000000"  style="stroke:black; stroke-linecap:round; stroke-width:0.25;"/>
<line x1="68.000000" y1="88.000000" x2="72.000000" y2="88.000000"  style="stroke:black; stroke-linecap:round; stroke-width:0.25;"/>
<line x1="68.000000" y1="96.000000" x2="72.000000" y2="96.000000"  style="stroke:black; stroke-linecap:round; stroke-width:0.25;"/>
<line x1="68.000000" y1="104.000000" x2="72.000000" y2="104.000000"  style="stroke:black; stroke-linecap:round; stroke-width:0.25;"/>
<line x1="68.000000" y1="112.000000" x2="72.000000" y2="112.000000"  style="stroke:black; stroke-linecap:round; stroke-width:0.25;"/>
<line x1="68.000000" y1="120.000000" x2="72.000000" y2="120.000000"  style="stroke:black; stroke-linecap:round; stroke-width:0.25;"/>
<line x1="149.400000" y1="28.000000" x2="153.400000" y2="28.000000"  style="stroke:black; stroke-linecap:round; stroke-width:0.25;"/>
<line x1="149.400000" y1="36.000000" x2="153.400000" y2="36.000000"  style="stroke:black; stroke-linecap:round; stroke-width:0.25;"/>
<line x1="149.400000" y1="44.000000" x2="153.400000" y2="44.000000"  style="stroke:black; stroke-linecap:round; stroke-width:0.25;"/>
<line x1="149.400000" y1="52.000000" x2="153.400000" y2="52.000000"  style="stroke:black; stroke-linecap:round; stroke-width:0.25;"/>
<line x1="149.400000" y1="60.000000" x2="153.400000" y2="60.000000"  style="stroke:black; stroke-linecap:round; stroke-width:0.25;"/>
<line x1="149.400000" y1="68.000000" x2="153.400000" y2="68.000000"  style="stroke:black; stroke-linecap:round; stroke-width:0.25;"/>
<line x1="149.400000" y1="84.000000" x2="153.400000" y2="84.000000"  style="stroke:black; stroke-linecap:round; stroke-width:0.25;"/>
<line x1="149.400000" y1="92.000000" x2="153.400000" y2="92.000000"  style="stroke:black; stroke-linecap:round; stroke-width:0.25;"/>
<line x1="149.400000" y1="100.000000" x2="153.400000" y2="100.000000"  style="stroke:black; stroke-linecap:round; stroke-width:0.25;"/>
<line x1="149.400000" y1="108.000000" x2="153.400000" y2="108.000000"  style="stroke:black; stroke-linecap:round; stroke-width:0.25;"/>
<line x1="149.400000" y1="116.000000" x2="153.400000" y2="116.000000"  style="stroke:black; stroke-linecap:round; stroke-width:0.25;"/>
<line x1="149.400000" y1="124.000000" x2="153.400000" y2="124.000000"  style="stroke:black; stroke-linecap:round; stroke-width:0.25;"/>
<line x1="153.400000" y1="28.000000" x2="201.400000" y2="28.000000"  style="stroke:black; stroke-linecap:round; stroke-width:0.25;"/>
<line x1="153.400000" y1="36.000000" x2="193.400000" y2="36.000000"  style="stroke:black; stroke-linecap:round; stroke-width:0.25;"/>
<line x1="153.400000" y1="44.000000" x2="185.400000" y2="44.000000"  style="stroke:black; stroke-linecap:round; stroke-width:0.25;"/>
<line x1="153.400000" y1="52.000000" x2="177.400000" y2="52.000000"  style="stroke:black; stroke-linecap:round; stroke-width:0.25;"/>
<line x1="153.400000" y1="60.000000" x2="169.400000" y2="60.000000"  style="stroke:black; stroke-linecap:round; stroke-width:0.25;"/>
<line x1="153.400000" y1="68.000000" x2="161.400000" y2="68.000000"  style="stroke:black; stroke-linecap:round; stroke-width:0.25;"/>
<line x1="153.400000" y1="80.000000" x2="201.400000" y2="80.000000"  style="stroke:black; stroke-linecap:round; stroke-width:0.25;"/>
<line x1="153.400000" y1="84.000000" x2="153.400000" y2="80.000000"  style="stroke:black; stroke-linecap:round; stroke-width:0.25;"/>
<line x1="153.400000" y1="84.000000" x2="153.400000" y2="84.000000"  style="stroke:black; stroke-linecap:round; stroke-width:0.25;"/>
<line x1="153.400000" y1="92.000000" x2="161.400000" y2="92.000000"  style="stroke:black; stroke-linecap:round; stroke-width:0.25;"/>
<line x1="153.400000" y1="100.000000" x2="169.400000" y2="100.000000"  style="stroke:black; stroke-linecap:round; stroke-width:0.25;"/>
<line x1="153.400000" y1="108.000000" x2="177.400000" y2="108.000000"  style="stroke:black; stroke-linecap:round; stroke-width:0.25;"/>
<line x1="153.400000" y1="116.000000" x2="185.400000" y2="116.000000"  style="stroke:black; stroke-linecap:round; stroke-width:0.25;"/>
<line x1="153.400000" y1="124.000000" x2="193.400000" y2="124.000000"  style="stroke:black; stroke-linecap:round; stroke-width:0.25;"/>
<line x1="161.400000" y1="68.000000" x2="161.400000" y2="72.000000"  style="stroke:black; stroke-linecap:round; stroke-width:0.25;"/>
<line x1="161.400000" y1="72.000000" x2="201.400000" y2="72.000000"  style="stroke:black; stroke-linecap:round; stroke-width:0.25;"/>
<line x1="161.400000" y1="88.000000" x2="201.400000" y2="88.000000"  style="stroke:black; stroke-linecap:round; stroke-width:0.25;"/>
<line x1="161.400000" y1="92.000000" x2="161.400000" y2="88.000000"  style="stroke:black; stroke-linecap:round; stroke-width:0.25;"/>
<line x1="169.400000" y1="60.000000" x2="169.400000" y2="64.000000"  style="stroke:black; stroke-linecap:round; stroke-width:0.25;"/>
<line x1="169.400000" y1="64.000000" x2="201.400000" y2="64.000000"  style="stroke:black; stroke-linecap:round; stroke-width:0.25;"/>
<line x1="169.400000" y1="96.000000" x2="201.400000" y2="96.000000"  style="stroke:black; stroke-linecap:round; stroke-width:0.25;"/>
<line x1="169.400000" y1="100.000000" x2="169.400000" y2="96.000000"  style="stroke:black; stroke-linecap:round; stroke-width:0.25;"/>
<line x1="177.400000" y1="52.000000" x2="177.400000" y2="56.000000"  style="stroke:black; stroke-linecap:round; stroke-width:0.25;"/>
<line x1="177.400000" y1="56.000000" x2="201.400000" y2="56.000000"  style="stroke:black; stroke-linecap:round; stroke-width:0.25;"/>
<line x1="177.400000" y1="104.000000" x2="201.400000" y2="104.000000"  style="stroke:black; stroke-linecap:round; stroke-width:0.25;"/>
<line x1="177.400000" y1="108.000000" x2="177.400000" y2="104.000000"  style="stroke:black; stroke-linecap:round; stroke-width:0.25;"/>
<line x1="185.400000" y1="44.000000" x2="185.400000" y2="48.000000"  style="stroke:black; stroke-linecap:round; stroke-width:0.25;"/>
<line x1="185.400000" y1="48.000000" x2="201.400000" y2="48.000000"  style="stroke:black; stroke-linecap:round; stroke-width:0.25;"/>
<line x1="185.400000" y1="112.000000" x2="201.400000" y2="112.000000"  style="stroke:black; stroke-linecap:round; stroke-width:0.25;"/>
<line x1="185.400000" y1="116.000000" x2="185.400000" y2="112.000000"  style="stroke:black; stroke-linecap:round; stroke-width:0.25;"/>
<line x1="193.400000" y1="36.000000" x2="193.400000" y2="40.000000"  style="stroke:black; stroke-linecap:round; stroke-width:0.25;"/>
<line x1="193.400000" y1="40.000000" x2="201.400000" y2="40.000000"  style="stroke:black; stroke-linecap:round; stroke-width:0.25;"/>
<line x1="193.400000" y1="120.000000" x2="201.400000" y2="120.000000"  style="stroke:black; stroke-linecap:round; stroke-width:0.25;"/>
<line x1="193.400000" y1="124.000000" x2="193.400000" y2="120.000000"  style="stroke:black; stroke-linecap:round; stroke-width:0.25;"/>
<line x1="201.400000" y1="28.000000" x2="201.400000" y2="32.000000"  style="stroke:black; stroke-linecap:round; stroke-width:0.25;"/>
<line x1="201.400000" y1="32.000000" x2="201.400000" y2="32.000000"  style="stroke:black; stroke-linecap:round; stroke-width:0.25;"/>
<line x1="201.400000" y1="32.000000" x2="205.400000" y2="32.000000"  style="stroke:black; stroke-linecap:round; stroke-width:0.25;"/>
<line x1="201.400000" y1="40.000000" x2="205.400000" y2="40.000000"  style="stroke:black; stroke-linecap:round; stroke-width:0.25;"/>
<line x1="201.400000" y1="48.000000" x2="205.400000" y2="48.000000"  style="stroke:black; stroke-linecap:round; stroke-width:0.25;"/>
<line x1="201.400000" y1="56.000000" x2="205.400000" y2="56.000000"  style="stroke:black; stroke-linecap:round; stroke-width:0.25;"/>
<line x1="201.400000" y1="64.000000" x2="205.400000" y2="64.000000"  style="stroke:black; stroke-linecap:round; stroke-width:0.25;"/>
<line x1="201.400000" y1="72.000000" x2="205.400000" y2="72.000000"  style="stroke:black; stroke-linecap:round; stroke-width:0.25;"/>
<line x1="201.400000" y1="80.000000" x2="205.400000" y2="80.000000"  style="stroke:black; stroke-linecap:round; stroke-width:0.25;"/>
<line x1="201.400000" y1="88.000000" x2="205.400000" y2="88.000000"  style="stroke:black; stroke-linecap:round; stroke-width:0.25;"/>
<line x1="201.400000" y1="96.000000" x2="205.400000" y2="96.000000"  style="stroke:black; stroke-linecap:round; stroke-width:0.25;"/>
<line x1="201.400000" y1="104.000000" x2="205.400000" y2="104.000000"  style="stroke:black; stroke-linecap:round; stroke-width:0.25;"/>
<line x1="201.400000" y1="112.000000" x2="205.400000" y2="112.000000"  style="stroke:black; stroke-linecap:round; stroke-width:0.25;"/>
<line x1="201.400000" y1="120.000000" x2="205.400000" y2="120.000000"  style="stroke:black; stroke-linecap:round; stroke-width:0.25;"/>
<line x1="205.400000" y1="32.000000" x2="209.400000" y2="32.000000"  style="stroke:black; stroke-linecap:round; stroke-width:0.25;"/>
<line x1="205.400000" y1="40.000000" x2="209.400000" y2="40.000000"  style="stroke:black; stroke-linecap:round; stroke-width:0.25;"/>
<line x1="205.400000" y1="48.000000" x2="209.400000" y2="48.000000"  style="stroke:black; stroke-linecap:round; stroke-width:0.25;"/>
<line x1="205.400000" y1="56.000000" x2="209.400000" y2="56.000000"  style="stroke:black; stroke-linecap:round; stroke-width:0.25;"/>
<line x1="205.400000" y1="64.000000" x2="209.400000" y2="64.000000"  style="stroke:black; stroke-linecap:round; stroke-width:0.25;"/>
<line x1="205.400000" y1="72.000000" x2="209.400000" y2="72.000000"  style="stroke:black; stroke-linecap:round; stroke-width:0.25;"/>
<line x1="205.400000" y1="80.000000" x2="209.400000" y2="80.000000"  style="stroke:black; stroke-linecap:round; stroke-width:0.25;"/>
<line x1="205.400000" y1="88.000000" x2="209.400000" y2="88.000000"  style="stroke:black; stroke-linecap:round; stroke-width:0.25;"/>
<line x1="205.400000" y1="96.000000" x2="209.400000" y2="96.000000"  style="stroke:black; stroke-linecap:round; stroke-width:0.25;"/>
<line x1="205.400000" y1="104.000000" x2="209.400000" y2="104.000000"  style="stroke:black; stroke-linecap:round; stroke-width:0.25;"/>
<line x1="205.400000" y1="112.000000" x2="209.400000" y2="112.000000"  style="stroke:black; stroke-linecap:round; stroke-width:0.25;"/>
<line x1="205.400000" y1="120.000000" x2="209.400000" y2="120.000000"  style="stroke:black; stroke-linecap:round; stroke-width:0.25;"/>
<line x1="209.400000" y1="32.000000" x2="260.040000" y2="26.720000"  style="stroke:black; stroke-linecap:round; stroke-width:0.25;"/>
<line x1="209.400000" y1="40.000000" x2="260.040000" y2="44.560000"  style="stroke:black; stroke-linecap:round; stroke-width:0.25;"/>
<line x1="209.400000" y1="48.000000" x2="260.040000" y2="62.400000"  style="stroke:black; stroke-linecap:round; stroke-width:0.25;"/>
<line x1="209.400000" y1="56.000000" x2="260.040000" y2="80.240000"  style="stroke:black; stroke-linecap:round; stroke-width:0.25;"/>
<line x1="209.400000" y1="64.000000" x2="260.040000" y2="98.080000"  style="stroke:black; stroke-linecap:round; stroke-width:0.25;"/>
<line x1="209.400000" y1="72.000000" x2="260.040000" y2="115.920000"  style="stroke:black; stroke-linecap:round; stroke-width:0.25;"/>
<line x1="209.400000" y1="80.000000" x2="260.040000" y2="36.080000"  style="stroke:black; stroke-linecap:round; stroke-width:0.25;"/>
<line x1="209.400000" y1="88.000000" x2="260.040000" y2="53.920000"  style="stroke:black; stroke-linecap:round; stroke-width:0.25;"/>
<line x1="209.400000" y1="96.000000" x2="260.040000" y2="71.760000"  style="stroke:black; stroke-linecap:round; stroke-width:0.25;"/>
<line x1="209.400000" y1="104.000000" x2="260.040000" y2="89.600000"  style="stroke:black; stroke-linecap:round; stroke-width:0.25;"/>
<line x1="209.400000" y1="112.000000" x2="260.040000" y2="107.440000"  style="stroke:black; stroke-linecap:round; stroke-width:0.25;"/>
<line x1="209.400000" y1="120.000000" x2="260.040000" y2="125.280000"  style="stroke:black; stroke-linecap:round; stroke-width:0.25;"/>
<line x1="260.040000" y1="26.720000" x2="264.040000" y2="26.720000"  style="stroke:black; stroke-linecap:round; stroke-width:0.25;"/>
<line x1="260.040000" y1="36.080000" x2="264.040000" y2="36.080000"  style="stroke:black; stroke-linecap:round; stroke-width:0.25;"/>
<line x1="260.040000" y1="44.560000" x2="264.040000" y2="44.560000"  style="stroke:black; stroke-linecap:round; stroke-width:0.25;"/>
<line x1="260.040000" y1="53.920000" x2="264.040000" y2="53.920000"  style="stroke:black; stroke-linecap:round; stroke-width:0.25;"/>
<line x1="260.040000" y1="62.400000" x2="264.040000" y2="62.400000"  style="stroke:black; stroke-linecap:round; stroke-width:0.25;"/>
<line x1="260.040000" y1="71.760000" x2="264.040000" y2="71.760000"  style="stroke:black; stroke-linecap:round; stroke-width:0.25;"/>
<line x1="260.040000" y1="80.240000" x2="264.040000" y2="80.240000"  style="stroke:black; stroke-linecap:round; stroke-width:0.25;"/>
<line x1="260.040000" y1="89.600000" x2="264.040000" y2="89.600000"  style="stroke:black; stroke-linecap:round; stroke-width:0.25;"/>
<line x1="260.040000" y1="98.080000" x2="264.040000" y2="98.080000"  style="stroke:black; stroke-linecap:round; stroke-width:0.25;"/>
<line x1="260.040000" y1="107.440000" x2="264.040000" y2="107.440000"  style="stroke:black; stroke-linecap:round; stroke-width:0.25;"/>
<line x1="260.040000" y1="115.920000" x2="264.040000" y2="115.920000"  style="stroke:black; stroke-linecap:round; stroke-width:0.25;"/>
<line x1="260.040000" y1="125.280000" x2="264.040000" y2="125.280000"  style="stroke:black; stroke-linecap:round; stroke-width:0.25;"/>
<line x1="264.040000" y1="26.720000" x2="268.040000" y2="26.720000"  style="stroke:black; stroke-linecap:round; stroke-width:0.25;"/>
<line x1="264.040000" y1="36.080000" x2="268.040000" y2="36.080000"  style="stroke:black; stroke-linecap:round; stroke-width:0.25;"/>
<line x1="264.040000" y1="44.560000" x2="268.040000" y2="44.560000"  style="stroke:black; stroke-linecap:round; stroke-width:0.25;"/>
<line x1="264.040000" y1="53.920000" x2="268.040000" y2="53.920000"  style="stroke:black; stroke-linecap:round; stroke-width:0.25;"/>
<line x1="264.040000" y1="62.400000" x2="268.040000" y2="62.400000"  style="stroke:black; stroke-linecap:round; stroke-width:0.25;"/>
<line x1="264.040000" y1="71.760000" x2="268.040000" y2="71.760000"  style="stroke:black; stroke-linecap:round; stroke-width:0.25;"/>
<line x1="264.040000" y1="80.240000" x2="268.040000" y2="80.240000"  style="stroke:black; stroke-linecap:round; stroke-width:0.25;"/>
<line x1="264.040000" y1="89.600000" x2="268.040000" y2="89.600000"  style="stroke:black; stroke-linecap:round; stroke-width:0.25;"/>
<line x1="264.040000" y1="98.080000" x2="268.040000" y2="98.080000"  style="stroke:black; stroke-linecap:round; stroke-width:0.25;"/>
<line x1="264.040000" y1="107.440000" x2="268.040000" y2="107.440000"  style="stroke:black; stroke-linecap:round; stroke-width:0.25;"/>
<line x1="264.040000" y1="115.920000" x2="268.040000" y2="115.920000"  style="stroke:black; stroke-linecap:round; stroke-width:0.25;"/>
<line x1="264.040000" y1="125.280000" x2="268.040000" y2="125.280000"  style="stroke:black; stroke-linecap:round; stroke-width:0.25;"/>
<line x1="268.040000" y1="26.720000" x2="316.040000" y2="26.720000"  style="stroke:black; stroke-linecap:round; stroke-width:0.25;"/>
<line x1="268.040000" y1="36.080000" x2="308.040000" y2="36.080000"  style="stroke:black; stroke-linecap:round; stroke-width:0.25;"/>
<line x1="268.040000" y1="44.560000" x2="300.040000" y2="44.560000"  style="stroke:black; stroke-linecap:round; stroke-width:0.25;"/>
<line x1="268.040000" y1="53.920000" x2="292.040000" y2="53.920000"  style="stroke:black; stroke-linecap:round; stroke-width:0.25;"/>
<line x1="268.040000" y1="62.400000" x2="284.040000" y2="62.400000"  style="stroke:black; stroke-linecap:round; stroke-width:0.25;"/>
<line x1="268.040000" y1="71.760000" x2="276.040000" y2="71.760000"  style="stroke:black; stroke-linecap:round; stroke-width:0.25;"/>
<line x1="268.040000" y1="80.000000" x2="316.040000" y2="80.000000"  style="stroke:black; stroke-linecap:round; stroke-width:0.25;"/>
<line x1="268.040000" y1="80.240000" x2="268.040000" y2="80.000000"  style="stroke:black; stroke-linecap:round; stroke-width:0.25;"/>
<line x1="268.040000" y1="80.240000" x2="268.040000" y2="80.240000"  style="stroke:black; stroke-linecap:round; stroke-width:0.25;"/>
<line x1="268.040000" y1="89.600000" x2="276.040000" y2="89.600000"  style="stroke:black; stroke-linecap:round; stroke-width:0.25;"/>
<line x1="268.040000" y1="98.080000" x2="284.040000" y2="98.080000"  style="stroke:black; stroke-linecap:round; stroke-width:0.25;"/>
<line x1="268.040000" y1="107.440000" x2="292.040000" y2="107.440000"  style="stroke:black; stroke-linecap:round; stroke-width:0.25;"/>
<line x1="268.040000" y1="115.920000" x2="300.040000" y2="115.920000"  style="stroke:black; stroke-linecap:round; stroke-width:0.25;"/>
<line x1="268.040000" y1="125.280000" x2="308.040000" y2="125.280000"  style="stroke:black; stroke-linecap:round; stroke-width:0.25;"/>
<line x1="276.040000" y1="71.760000" x2="276.040000" y2="72.000000"  style="stroke:black; stroke-linecap:round; stroke-width:0.25;"/>
<line x1="276.040000" y1="72.000000" x2="316.040000" y2="72.000000"  style="stroke:black; stroke-linecap:round; stroke-width:0.25;"/>
<line x1="276.040000" y1="88.000000" x2="316.040000" y2="88.000000"  style="stroke:black; stroke-linecap:round; stroke-width:0.25;"/>
<line x1="276.040000" y1="89.600000" x2="276.040000" y2="88.000000"  style="stroke:black; stroke-linecap:round; stroke-width:0.25;"/>
<line x1="284.040000" y1="62.400000" x2="284.040000" y2="64.000000"  style="stroke:black; stroke-linecap:round; stroke-width:0.25;"/>
<line x1="284.040000" y1="64.000000" x2="316.040000" y2="64.000000"  style="stroke:black; stroke-linecap:round; stroke-width:0.25;"/>
<line x1="284.040000" y1="96.000000" x2="316.040000" y2="96.000000"  style="stroke:black; stroke-linecap:round; stroke-width:0.25;"/>
<line x1="284.040000" y1="98.080000" x2="284.040000" y2="96.000000"  style="stroke:black; stroke-linecap:round; stroke-width:0.25;"/>
<line x1="292.040000" y1="53.920000" x2="292.040000" y2="56.000000"  style="stroke:black; stroke-linecap:round; stroke-width:0.25;"/>
<line x1="292.040000" y1="56.000000" x2="316.040000" y2="56.000000"  style="stroke:black; stroke-linecap:round; stroke-width:0.25;"/>
<line x1="292.040000" y1="104.000000" x2="316.040000" y2="104.000000"  style="stroke:black; stroke-linecap:round; stroke-width:0.25;"/>
<line x1="292.040000" y1="107.440000" x2="292.040000" y2="104.000000"  style="stroke:black; stroke-linecap:round; stroke-width:0.25;"/>
<line x1="300.040000" y1="44.560000" x2="300.040000" y2="48.000000"  style="stroke:black; stroke-linecap:round; stroke-width:0.25;"/>
<line x1="300.040000" y1="48.000000" x2="316.040000" y2="48.000000"  style="stroke:black; stroke-linecap:round; stroke-width:0.25;"/>
<line x1="300.040000" y1="112.000000" x2="316.040000" y2="112.000000"  style="stroke:black; stroke-linecap:round; stroke-width:0.25;"/>
<line x1="300.040000" y1="115.920000" x2="300.040000" y2="112.000000"  style="stroke:black; stroke-linecap:round; stroke-width:0.25;"/>
<line x1="308.040000" y1="36.080000" x2="308.040000" y2="40.000000"  style="stroke:black; stroke-linecap:round; stroke-width:0.25;"/>
<line x1="308.040000" y1="40.000000" x2="316.040000" y2="40.000000"  style="stroke:black; stroke-linecap:round; stroke-width:0.25;"/>
<line x1="308.040000" y1="120.000000" x2="316.040000" y2="120.000000"  style="stroke:black; stroke-linecap:round; stroke-width:0.25;"/>
<line x1="308.040000" y1="125.280000" x2="308.040000" y2="120.000000"  style="stroke:black; stroke-linecap:round; stroke-width:0.25;"/>
<line x1="316.040000" y1="26.720000" x2="316.040000" y2="32.000000"  style="stroke:black; stroke-linecap:round; stroke-width:0.25;"/>
<line x1="316.040000" y1="32.000000" x2="316.040000" y2="32.000000"  style="stroke:black; stroke-linecap:round; stroke-width:0.25;"/>
<line x1="316.040000" y1="32.000000" x2="320.040000" y2="32.000000"  style="stroke:black; stroke-linecap:round; stroke-width:0.25;"/>
<line x1="316.040000" y1="40.000000" x2="320.040000" y2="40.000000"  style="stroke:black; stroke-linecap:round; stroke-width:0.25;"/>
<line x1="316.040000" y1="48.000000" x2="320.040000" y2="48.000000"  style="stroke:black; stroke-linecap:round; stroke-width:0.25;"/>
<line x1="316.040000" y1="56.000000" x2="320.040000" y2="56.000000"  style="stroke:black; stroke-linecap:round; stroke-width:0.25;"/>
<line x1="316.040000" y1="64.000000" x2="320.040000" y2="64.000000"  style="stroke:black; stroke-linecap:round; stroke-width:0.25;"/>
<line x1="316.040000" y1="72.000000" x2="320.040000" y2="72.000000"  style="stroke:black; stroke-linecap:round; stroke-width:0.25;"/>
<line x1="316.040000" y1="80.000000" x2="320.040000" y2="80.000000"  style="stroke:black; stroke-linecap:round; stroke-width:0.25;"/>
<line x1="316.040000" y1="88.000000" x2="320.040000" y2="88.000000"  style="stroke:black; stroke-linecap:round; stroke-width:0.25;"/>
<line x1="316.040000" y1="96.000000" x2="320.040000" y2="96.000000"  style="stroke:black; stroke-linecap:round; stroke-width:0.25;"/>
<line x1="316.040000" y1="104.000000" x2="320.040000" y2="104.000000"  style="stroke:black; stroke-linecap:round; stroke-width:0.25;"/>
<line x1="316.040000" y1="112.000000" x2="320.040000" y2="112.000000"  style="stroke:black; stroke-linecap:round; stroke-width:0.25;"/>
<line x1="316.040000" y1="120.000000" x2="320.040000" y2="120.000000"  style="stroke:black; stroke-linecap:round; stroke-width:0.25;"/>
<line x1="320.040000" y1="32.000000" x2="324.040000" y2="32.000000"  style="stroke:black; stroke-linecap:round; stroke-width:0.25;"/>
<line x1="320.040000" y1="40.000000" x2="324.040000" y2="40.000000"  style="stroke:black; stroke-linecap:round; stroke-width:0.25;"/>
<line x1="320.040000" y1="48.000000" x2="324.040000" y2="48.000000"  style="stroke:black; stroke-linecap:round; stroke-width:0.25;"/>
<line x1="320.040000" y1="56.000000" x2="324.040000" y2="56.000000"  style="stroke:black; stroke-linecap:round; stroke-width:0.25;"/>
<line x1="320.040000" y1="64.000000" x2="324.040000" y2="64.000000"  style="stroke:black; stroke-linecap:round; stroke-width:0.25;"/>
<line x1="320.040000" y1="72.000000" x2="324.040000" y2="72.000000"  style="stroke:black; stroke-linecap:round; stroke-width:0.25;"/>
<line x1="320.040000" y1="80.000000" x2="324.040000" y2="80.000000"  style="stroke:black; stroke-linecap:round; stroke-width:0.25;"/>
<line x1="320.040000" y1="88.000000" x2="324.040000" y2="88.000000"  style="stroke:black; stroke-linecap:round; stroke-width:0.25;"/>
<line x1="320.040000" y1="96.000000" x2="324.040000" y2="96.000000"  style="stroke:black; stroke-linecap:round; stroke-width:0.25;"/>
<line x1="320.040000" y1="104.000000" x2="324.040000" y2="104.000000"  style="stroke:black; stroke-linecap:round; stroke-width:0.25;"/>
<line x1="320.040000" y1="112.000000" x2="324.040000" y2="112.000000"  style="stroke:black; stroke-linecap:round; stroke-width:0.25;"/>
<line x1="320.040000" y1="120.000000" x2="324.040000" y2="120.000000"  style="stroke:black; stroke-linecap:round; stroke-width:0.25;"/>
<line x1="324.040000" y1="32.000000" x2="330.040000" y2="36.000000"  style="stroke:black; stroke-linecap:round; stroke-width:0.25;"/>
<line x1="324.040000" y1="40.000000" x2="330.040000" y2="36.000000"  style="stroke:black; stroke-linecap:round; stroke-width:0.25;"/>
<line x1="324.040000" y1="48.000000" x2="330.040000" y2="52.000000"  style="stroke:black; stroke-linecap:round; stroke-width:0.25;"/>
<line x1="324.040000" y1="56.000000" x2="330.040000" y2="52.000000"  style="stroke:black; stroke-linecap:round; stroke-width:0.25;"/>
<line x1="324.040000" y1="64.000000" x2="330.040000" y2="68.000000"  style="stroke:black; stroke-linecap:round; stroke-width:0.25;"/>
<line x1="324.040000" y1="72.000000" x2="330.040000" y2="68.000000"  style="stroke:black; stroke-linecap:round; stroke-width:0.25;"/>
<line x1="324.040000" y1="80.000000" x2="330.040000" y2="84.000000"  style="stroke:black; stroke-linecap:round; stroke-width:0.25;"/>
<line x1="324.040000" y1="88.000000" x2="330.040000" y2="84.000000"  style="stroke:black; stroke-linecap:round; stroke-width:0.25;"/>
<line x1="324.040000" y1="96.000000" x2="330.040000" y2="100.000000"  style="stroke:black; stroke-linecap:round; stroke-width:0.25;"/>
<line x1="324.040000" y1="104.000000" x2="330.040000" y2="100.000000"  style="stroke:black; stroke-linecap:round; stroke-width:0.25;"/>
<line x1="324.040000" y1="112.000000" x2="330.040000" y2="116.000000"  style="stroke:black; stroke-linecap:round; stroke-width:0.25;"/>
<line x1="324.040000" y1="120.000000" x2="330.040000" y2="116.000000"  style="stroke:black; stroke-linecap:round; stroke-width:0.25;"/>
<line x1="330.040000" y1="36.000000" x2="334.040000" y2="36.000000"  style="stroke:black; stroke-linecap:round; stroke-width:0.25;"/>
<line x1="330.040000" y1="52.000000" x2="334.040000" y2="52.000000"  style="stroke:black; stroke-linecap:round; stroke-width:0.25;"/>
<line x1="330.040000" y1="68.000000" x2="334.040000" y2="68.000000"  style="stroke:black; stroke-linecap:round; stroke-width:0.25;"/>
<line x1="330.040000" y1="84.000000" x2="334.040000" y2="84.000000"  style="stroke:black; stroke-linecap:round; stroke-width:0.25;"/>
<line x1="330.040000" y1="100.000000" x2="334.040000" y2="100.000000"  style="stroke:black; stroke-linecap:round; stroke-width:0.25;"/>
<line x1="330.040000" y1="116.000000" x2="334.040000" y2="116.000000"  style="stroke:black; stroke-linecap:round; stroke-width:0.25;"/>
<line x1="334.040000" y1="36.000000" x2="338.040000" y2="36.000000"  style="stroke:black; stroke-linecap:round; stroke-width:0.25;"/>
<line x1="334.040000" y1="52.000000" x2="338.040000" y2="52.000000"  style="stroke:black; stroke-linecap:round; stroke-width:0.25;"/>
<line x1="334.040000" y1="68.000000" x2="338.040000" y2="68.000000"  style="stroke:black; stroke-linecap:round; stroke-width:0.25;"/>
<line x1="334.040000" y1="84.000000" x2="338.040000" y2="84.000000"  style="stroke:black; stroke-linecap:round; stroke-width:0.25;"/>
<line x1="334.040000" y1="100.000000" x2="338.040000" y2="100.000000"  style="stroke:black; stroke-linecap:round; stroke-width:0.25;"/>
<line x1="334.040000" y1="116.000000" x2="338.040000" y2="116.000000"  style="stroke:black; stroke-linecap:round; stroke-width:0.25;"/>
<line x1="338.040000" y1="36.000000" x2="362.040000" y2="36.000000"  style="stroke:black; stroke-linecap:round; stroke-width:0.25;"/>
<line x1="338.040000" y1="52.000000" x2="354.040000" y2="52.000000"  style="stroke:black; stroke-linecap:round; stroke-width:0.25;"/>
<line x1="338.040000" y1="68.000000" x2="346.040000" y2="68.000000"  style="stroke:black; stroke-linecap:round; stroke-width:0.25;"/>
<line x1="338.040000" y1="80.000000" x2="362.040000" y2="80.000000"  style="stroke:black; stroke-linecap:round; stroke-width:0.25;"/>
<line x1="338.040000" y1="84.000000" x2="338.040000" y2="80.000000"  style="stroke:black; stroke-linecap:round; stroke-width:0.25;"/>
<line x1="338.040000" y1="84.000000" x2="338.040000" y2="84.000000"  style="stroke:black; stroke-linecap:round; stroke-width:0.25;"/>
<line x1="338.040000" y1="100.000000" x2="346.040000" y2="100.000000"  style="stroke:black; stroke-linecap:round; stroke-width:0.25;"/>
<line x1="338.040000" y1="116.000000" x2="354.040000" y2="116.000000"  style="stroke:black; stroke-linecap:round; stroke-width:0.25;"/>
<line x1="346.040000" y1="68.000000" x2="346.040000" y2="72.000000"  style="stroke:black; stroke-linecap:round; stroke-width:0.25;"/>
<line x1="346.040000" y1="72.000000" x2="362.040000" y2="72.000000"  style="stroke:black; stroke-linecap:round; stroke-width:0.25;"/>
<line x1="346.040000" y1="88.000000" x2="362.040000" y2="88.000000"  style="stroke:black; stroke-linecap:round; stroke-width:0.25;"/>
<line x1="346.040000" y1="100.000000" x2="346.040000" y2="88.000000"  style="stroke:black; stroke-linecap:round; stroke-width:0.25;"/>
<line x1="354.040000" y1="52.000000" x2="354.040000" y2="64.000000"  style="stroke:black; stroke-linecap:round; stroke-width:0.25;"/>
<line x1="354.040000" y1="64.000000" x2="362.040000" y2="64.000000"  style="stroke:black; stroke-linecap:round; stroke-width:0.25;"/>
<line x1="354.040000" y1="96.000000" x2="362.040000" y2="96.000000"  style="stroke:black; stroke-linecap:round; stroke-width:0.25;"/>
<line x1="354.040000" y1="116.000000" x2="354.040000" y2="96.000000"  style="stroke:black; stroke-linecap:round; stroke-width:0.25;"/>
<line x1="362.040000" y1="36.000000" x2="362.040000" y2="56.000000"  style="stroke:black; stroke-linecap:round; stroke-width:0.25;"/>
<line x1="362.040000" y1="56.000000" x2="362.040000" y2="56.000000"  style="stroke:black; stroke-linecap:round; stroke-width:0.25;"/>
<line x1="362.040000" y1="56.000000" x2="366.040000" y2="56.000000"  style="stroke:black; stroke-linecap:round; stroke-width:0.25;"/>
<line x1="362.040000" y1="64.000000" x2="366.040000" y2="64.000000"  style="stroke:black; stroke-linecap:round; stroke-width:0.25;"/>
<line x1="362.040000" y1="72.000000" x2="366.040000" y2="72.000000"  style="stroke:black; stroke-linecap:round; stroke-width:0.25;"/>
<line x1="362.040000" y1="80.000000" x2="366.040000" y2="80.000000"  style="stroke:black; stroke-linecap:round; stroke-width:0.25;"/>
<line x1="362.040000" y1="88.000000" x2="366.040000" y2="88.000000"  style="stroke:black; stroke-linecap:round; stroke-width:0.25;"/>
<line x1="362.040000" y1="96.000000" x2="366.040000" y2="96.000000"  style="stroke:black; stroke-linecap:round; stroke-width:0.25;"/>
<line x1="366.040000" y1="56.000000" x2="370.040000" y2="56.000000"  style="stroke:black; stroke-linecap:round; stroke-width:0.25;"/>
<line x1="366.040000" y1="64.000000" x2="370.040000" y2="64.000000"  style="stroke:black; stroke-linecap:round; stroke-width:0.25;"/>
<line x1="366.040000" y1="72.000000" x2="370.040000" y2="72.000000"  style="stroke:black; stroke-linecap:round; stroke-width:0.25;"/>
<line x1="366.040000" y1="80.000000" x2="370.040000" y2="80.000000"  style="stroke:black; stroke-linecap:round; stroke-width:0.25;"/>
<line x1="366.040000" y1="88.000000" x2="370.040000" y2="88.000000"  style="stroke:black; stroke-linecap:round; stroke-width:0.25;"/>
<line x1="366.040000" y1="96.000000" x2="370.040000" y2="96.000000"  style="stroke:black; stroke-linecap:round; stroke-width:0.25;"/>
<line x1="370.040000" y1="56.000000" x2="380.040000" y2="56.000000"  style="stroke:black; stroke-linecap:round; stroke-width:0.25;"/>
<line x1="370.040000" y1="64.000000" x2="380.040000" y2="64.000000"  style="stroke:black; stroke-linecap:round; stroke-width:0.25;"/>
<line x1="370.040000" y1="72.000000" x2="380.040000" y2="72.000000"  style="stroke:black; stroke-linecap:round; stroke-width:0.25;"/>
<line x1="370.040000" y1="80.000000" x2="380.040000" y2="80.000000"  style="stroke:black; stroke-linecap:round; stroke-width:0.25;"/>
<line x1="370.040000" y1="88.000000" x2="380.040000" y2="88.000000"  style="stroke:black; stroke-linecap:round; stroke-width:0.25;"/>
<line x1="370.040000" y1="96.000000" x2="380.040000" y2="96.000000"  style="stroke:black; stroke-linecap:round; stroke-width:0.25;"/>
</svg>
