<?xml version="1.0"?>
<svg xmlns="http://www.w3.org/2000/svg" xmlns:xlink="http://www.w3.org/1999/xlink" viewBox="0 0 266.700000 320.000000" width="133.350000mm" height="160.000000mm" version="1.1">
<a xlink:href="supersawpulse-0x2e8ff9b0.svg">
<rect x="1.000000" y="1.000000" width="265.700000" height="319.000000" rx="0" ry="0" style="stroke:none;fill:#cccccc;"/>
<rect x="0.000000" y="0.000000" width="265.700000" height="319.000000" rx="0" ry="0" style="stroke:none;fill:#ffffff;"/>
</a>
<text x="10.000000" y="7.000000" font-family="Arial" font-size="7"></text>
<a xlink:href="mainmix-0x29f4dd50.svg">
<rect x="65.000000" y="33.000000" width="38.700000" height="24.000000" rx="0" ry="0" style="stroke:none;fill:#cccccc;"/>
<rect x="64.000000" y="32.000000" width="38.700000" height="24.000000" rx="0" ry="0" style="stroke:none;fill:#003366;"/>
</a>
<a xlink:href="mainmix-0x29f4dd50.svg">
<text x="83.350000" y="46.000000" font-family="Arial" font-size="7" text-anchor="middle" fill="#FFFFFF">mainmix</text>
</a>
<circle cx="66.000000" cy="34.000000" r="1"/>
<rect x="119.700000" y="29.000000" width="24.000000" height="24.000000" rx="0" ry="0" style="stroke:none;fill:#cccccc;"/>
<rect x="118.700000" y="28.000000" width="24.000000" height="24.000000" rx="0" ry="0" style="stroke:none;fill:#4B71A1;"/>
<text x="130.700000" y="42.000000" font-family="Arial" font-size="7" text-anchor="middle" fill="#FFFFFF">*</text>
<circle cx="120.700000" cy="30.000000" r="1"/>
<line x1="115.700000" y1="35.000000" x2="118.700000" y2="36.000000"  transform="rotate(0.000000,118.700000,36.000000)" style="stroke: black; stroke-width:0.25;"/>
<line x1="115.700000" y1="37.000000" x2="118.700000" y2="36.000000"  transform="rotate(0.000000,118.700000,36.000000)" style="stroke: black; stroke-width:0.25;"/>
<line x1="115.700000" y1="43.000000" x2="118.700000" y2="44.000000"  transform="rotate(0.000000,118.700000,44.000000)" style="stroke: black; stroke-width:0.25;"/>
<line x1="115.700000" y1="45.000000" x2="118.700000" y2="44.000000"  transform="rotate(0.000000,118.700000,44.000000)" style="stroke: black; stroke-width:0.25;"/>
<a xlink:href="detunemix-0x29f4a7c0.svg">
<rect x="65.000000" y="73.000000" width="38.700000" height="24.000000" rx="0" ry="0" style="stroke:none;fill:#cccccc;"/>
<rect x="64.000000" y="72.000000" width="38.700000" height="24.000000" rx="0" ry="0" style="stroke:none;fill:#003366;"/>
</a>
<a xlink:href="detunemix-0x29f4a7c0.svg">
<text x="83.350000" y="86.000000" font-family="Arial" font-size="7" text-anchor="middle" fill="#FFFFFF">detunemix</text>
</a>
<circle cx="66.000000" cy="74.000000" r="1"/>
<rect x="119.700000" y="69.000000" width="24.000000" height="24.000000" rx="0" ry="0" style="stroke:none;fill:#cccccc;"/>
<rect x="118.700000" y="68.000000" width="24.000000" height="24.000000" rx="0" ry="0" style="stroke:none;fill:#4B71A1;"/>
<text x="130.700000" y="82.000000" font-family="Arial" font-size="7" text-anchor="middle" fill="#FFFFFF">*</text>
<circle cx="120.700000" cy="70.000000" r="1"/>
<line x1="115.700000" y1="75.000000" x2="118.700000" y2="76.000000"  transform="rotate(0.000000,118.700000,76.000000)" style="stroke: black; stroke-width:0.25;"/>
<line x1="115.700000" y1="77.000000" x2="118.700000" y2="76.000000"  transform="rotate(0.000000,118.700000,76.000000)" style="stroke: black; stroke-width:0.25;"/>
<line x1="115.700000" y1="83.000000" x2="118.700000" y2="84.000000"  transform="rotate(0.000000,118.700000,84.000000)" style="stroke: black; stroke-width:0.25;"/>
<line x1="115.700000" y1="85.000000" x2="118.700000" y2="84.000000"  transform="rotate(0.000000,118.700000,84.000000)" style="stroke: black; stroke-width:0.25;"/>
<a xlink:href="detunemix-0x29f4a7c0.svg">
<rect x="65.000000" y="113.000000" width="38.700000" height="24.000000" rx="0" ry="0" style="stroke:none;fill:#cccccc;"/>
<rect x="64.000000" y="112.000000" width="38.700000" height="24.000000" rx="0" ry="0" style="stroke:none;fill:#003366;"/>
</a>
<a xlink:href="detunemix-0x29f4a7c0.svg">
<text x="83.350000" y="126.000000" font-family="Arial" font-size="7" text-anchor="middle" fill="#FFFFFF">detunemix</text>
</a>
<circle cx="66.000000" cy="114.000000" r="1"/>
<rect x="119.700000" y="109.000000" width="24.000000" height="24.000000" rx="0" ry="0" style="stroke:none;fill:#cccccc;"/>
<rect x="118.700000" y="108.000000" width="24.000000" height="24.000000" rx="0" ry="0" style="stroke:none;fill:#4B71A1;"/>
<text x="130.700000" y="122.000000" font-family="Arial" font-size="7" text-anchor="middle" fill="#FFFFFF">*</text>
<circle cx="120.700000" cy="110.000000" r="1"/>
<line x1="115.700000" y1="115.000000" x2="118.700000" y2="116.000000"  transform="rotate(0.000000,118.700000,116.000000)" style="stroke: black; stroke-width:0.25;"/>
<line x1="115.700000" y1="117.000000" x2="118.700000" y2="116.000000"  transform="rotate(0.000000,118.700000,116.000000)" style="stroke: black; stroke-width:0.25;"/>
<line x1="115.700000" y1="123.000000" x2="118.700000" y2="124.000000"  transform="rotate(0.000000,118.700000,124.000000)" style="stroke: black; stroke-width:0.25;"/>
<line x1="115.700000" y1="125.000000" x2="118.700000" y2="124.000000"  transform="rotate(0.000000,118.700000,124.000000)" style="stroke: black; stroke-width:0.25;"/>
<a xlink:href="detunemix-0x29f4a7c0.svg">
<rect x="65.000000" y="153.000000" width="38.700000" height="24.000000" rx="0" ry="0" style="stroke:none;fill:#cccccc;"/>
<rect x="64.000000" y="152.000000" width="38.700000" height="24.000000" rx="0" ry="0" style="stroke:none;fill:#003366;"/>
</a>
<a xlink:href="detunemix-0x29f4a7c0.svg">
<text x="83.350000" y="166.000000" font-family="Arial" font-size="7" text-anchor="middle" fill="#FFFFFF">detunemix</text>
</a>
<circle cx="66.000000" cy="154.000000" r="1"/>
<rect x="119.700000" y="149.000000" width="24.000000" height="24.000000" rx="0" ry="0" style="stroke:none;fill:#cccccc;"/>
<rect x="118.700000" y="148.000000" width="24.000000" height="24.000000" rx="0" ry="0" style="stroke:none;fill:#4B71A1;"/>
<text x="130.700000" y="162.000000" font-family="Arial" font-size="7" text-anchor="middle" fill="#FFFFFF">*</text>
<circle cx="120.700000" cy="150.000000" r="1"/>
<line x1="115.700000" y1="155.000000" x2="118.700000" y2="156.000000"  transform="rotate(0.000000,118.700000,156.000000)" style="stroke: black; stroke-width:0.25;"/>
<line x1="115.700000" y1="157.000000" x2="118.700000" y2="156.000000"  transform="rotate(0.000000,118.700000,156.000000)" style="stroke: black; stroke-width:0.25;"/>
<line x1="115.700000" y1="163.000000" x2="118.700000" y2="164.000000"  transform="rotate(0.000000,118.700000,164.000000)" style="stroke: black; stroke-width:0.25;"/>
<line x1="115.700000" y1="165.000000" x2="118.700000" y2="164.000000"  transform="rotate(0.000000,118.700000,164.000000)" style="stroke: black; stroke-width:0.25;"/>
<a xlink:href="detunemix-0x29f4a7c0.svg">
<rect x="65.000000" y="193.000000" width="38.700000" height="24.000000" rx="0" ry="0" style="stroke:none;fill:#cccccc;"/>
<rect x="64.000000" y="192.000000" width="38.700000" height="24.000000" rx="0" ry="0" style="stroke:none;fill:#003366;"/>
</a>
<a xlink:href="detunemix-0x29f4a7c0.svg">
<text x="83.350000" y="206.000000" font-family="Arial" font-size="7" text-anchor="middle" fill="#FFFFFF">detunemix</text>
</a>
<circle cx="66.000000" cy="194.000000" r="1"/>
<rect x="119.700000" y="189.000000" width="24.000000" height="24.000000" rx="0" ry="0" style="stroke:none;fill:#cccccc;"/>
<rect x="118.700000" y="188.000000" width="24.000000" height="24.000000" rx="0" ry="0" style="stroke:none;fill:#4B71A1;"/>
<text x="130.700000" y="202.000000" font-family="Arial" font-size="7" text-anchor="middle" fill="#FFFFFF">*</text>
<circle cx="120.700000" cy="190.000000" r="1"/>
<line x1="115.700000" y1="195.000000" x2="118.700000" y2="196.000000"  transform="rotate(0.000000,118.700000,196.000000)" style="stroke: black; stroke-width:0.25;"/>
<line x1="115.700000" y1="197.000000" x2="118.700000" y2="196.000000"  transform="rotate(0.000000,118.700000,196.000000)" style="stroke: black; stroke-width:0.25;"/>
<line x1="115.700000" y1="203.000000" x2="118.700000" y2="204.000000"  transform="rotate(0.000000,118.700000,204.000000)" style="stroke: black; stroke-width:0.25;"/>
<line x1="115.700000" y1="205.000000" x2="118.700000" y2="204.000000"  transform="rotate(0.000000,118.700000,204.000000)" style="stroke: black; stroke-width:0.25;"/>
<a xlink:href="detunemix-0x29f4a7c0.svg">
<rect x="65.000000" y="233.000000" width="38.700000" height="24.000000" rx="0" ry="0" style="stroke:none;fill:#cccccc;"/>
<rect x="64.000000" y="232.000000" width="38.700000" height="24.000000" rx="0" ry="0" style="stroke:none;fill:#003366;"/>
</a>
<a xlink:href="detunemix-0x29f4a7c0.svg">
<text x="83.350000" y="246.000000" font-family="Arial" font-size="7" text-anchor="middle" fill="#FFFFFF">detunemix</text>
</a>
<circle cx="66.000000" cy="234.000000" r="1"/>
<rect x="119.700000" y="229.000000" width="24.000000" height="24.000000" rx="0" ry="0" style="stroke:none;fill:#cccccc;"/>
<rect x="118.700000" y="228.000000" width="24.000000" height="24.000000" rx="0" ry="0" style="stroke:none;fill:#4B71A1;"/>
<text x="130.700000" y="242.000000" font-family="Arial" font-size="7" text-anchor="middle" fill="#FFFFFF">*</text>
<circle cx="120.700000" cy="230.000000" r="1"/>
<line x1="115.700000" y1="235.000000" x2="118.700000" y2="236.000000"  transform="rotate(0.000000,118.700000,236.000000)" style="stroke: black; stroke-width:0.25;"/>
<line x1="115.700000" y1="237.000000" x2="118.700000" y2="236.000000"  transform="rotate(0.000000,118.700000,236.000000)" style="stroke: black; stroke-width:0.25;"/>
<line x1="115.700000" y1="243.000000" x2="118.700000" y2="244.000000"  transform="rotate(0.000000,118.700000,244.000000)" style="stroke: black; stroke-width:0.25;"/>
<line x1="115.700000" y1="245.000000" x2="118.700000" y2="244.000000"  transform="rotate(0.000000,118.700000,244.000000)" style="stroke: black; stroke-width:0.25;"/>
<a xlink:href="detunemix-0x29f4a7c0.svg">
<rect x="65.000000" y="273.000000" width="38.700000" height="24.000000" rx="0" ry="0" style="stroke:none;fill:#cccccc;"/>
<rect x="64.000000" y="272.000000" width="38.700000" height="24.000000" rx="0" ry="0" style="stroke:none;fill:#003366;"/>
</a>
<a xlink:href="detunemix-0x29f4a7c0.svg">
<text x="83.350000" y="286.000000" font-family="Arial" font-size="7" text-anchor="middle" fill="#FFFFFF">detunemix</text>
</a>
<circle cx="66.000000" cy="274.000000" r="1"/>
<rect x="119.700000" y="269.000000" width="24.000000" height="24.000000" rx="0" ry="0" style="stroke:none;fill:#cccccc;"/>
<rect x="118.700000" y="268.000000" width="24.000000" height="24.000000" rx="0" ry="0" style="stroke:none;fill:#4B71A1;"/>
<text x="130.700000" y="282.000000" font-family="Arial" font-size="7" text-anchor="middle" fill="#FFFFFF">*</text>
<circle cx="120.700000" cy="270.000000" r="1"/>
<line x1="115.700000" y1="275.000000" x2="118.700000" y2="276.000000"  transform="rotate(0.000000,118.700000,276.000000)" style="stroke: black; stroke-width:0.25;"/>
<line x1="115.700000" y1="277.000000" x2="118.700000" y2="276.000000"  transform="rotate(0.000000,118.700000,276.000000)" style="stroke: black; stroke-width:0.25;"/>
<line x1="115.700000" y1="283.000000" x2="118.700000" y2="284.000000"  transform="rotate(0.000000,118.700000,284.000000)" style="stroke: black; stroke-width:0.25;"/>
<line x1="115.700000" y1="285.000000" x2="118.700000" y2="284.000000"  transform="rotate(0.000000,118.700000,284.000000)" style="stroke: black; stroke-width:0.25;"/>
<polygon fill="#ffffff" stroke="black" stroke-width=".25" points="222.699997,156.500000 231.699997,160.000000 222.699997,163.500000"/>
<circle  fill="#ffffff" stroke="black" stroke-width=".25" cx="233.199997" cy="160.000000" r="1.500000"/>
<line x1="15.000000" y1="15.000000" x2="15.000000" y2="305.000000"  style="stroke: black; stroke-linecap:round; stroke-width:0.25; stroke-dasharray:3,3;"/>
<line x1="15.000000" y1="305.000000" x2="251.700000" y2="305.000000"  style="stroke: black; stroke-linecap:round; stroke-width:0.25; stroke-dasharray:3,3;"/>
<line x1="251.700000" y1="305.000000" x2="251.700000" y2="15.000000"  style="stroke: black; stroke-linecap:round; stroke-width:0.25; stroke-dasharray:3,3;"/>
<line x1="15.000000" y1="15.000000" x2="20.000000" y2="15.000000"  style="stroke: black; stroke-linecap:round; stroke-width:0.25; stroke-dasharray:3,3;"/>
<line x1="119.975000" y1="15.000000" x2="251.700000" y2="15.000000"  style="stroke: black; stroke-linecap:round; stroke-width:0.25; stroke-dasharray:3,3;"/>
<text x="20.000000" y="17.000000" font-family="Arial" font-size="7">mixer(vgroup(...,0.999f : *))</text>
<line x1="253.700000" y1="159.000000" x2="256.700000" y2="160.000000"  transform="rotate(0.000000,256.700000,160.000000)" style="stroke: black; stroke-width:0.25;"/>
<line x1="253.700000" y1="161.000000" x2="256.700000" y2="160.000000"  transform="rotate(0.000000,256.700000,160.000000)" style="stroke: black; stroke-width:0.25;"/>
<line x1="10.000000" y1="136.000000" x2="20.000000" y2="136.000000"  style="stroke:black; stroke-linecap:round; stroke-width:0.25;"/>
<line x1="10.000000" y1="144.000000" x2="20.000000" y2="144.000000"  style="stroke:black; stroke-linecap:round; stroke-width:0.25;"/>
<line x1="10.000000" y1="152.000000" x2="20.000000" y2="152.000000"  style="stroke:black; stroke-linecap:round; stroke-width:0.25;"/>
<line x1="10.000000" y1="160.000000" x2="20.000000" y2="160.000000"  style="stroke:black; stroke-linecap:round; stroke-width:0.25;"/>
<line x1="10.000000" y1="168.000000" x2="20.000000" y2="168.000000"  style="stroke:black; stroke-linecap:round; stroke-width:0.25;"/>
<line x1="10.000000" y1="176.000000" x2="20.000000" y2="176.000000"  style="stroke:black; stroke-linecap:round; stroke-width:0.25;"/>
<line x1="10.000000" y1="184.000000" x2="20.000000" y2="184.000000"  style="stroke:black; stroke-linecap:round; stroke-width:0.25;"/>
<line x1="20.000000" y1="136.000000" x2="24.000000" y2="136.000000"  style="stroke:black; stroke-linecap:round; stroke-width:0.25;"/>
<line x1="20.000000" y1="144.000000" x2="24.000000" y2="144.000000"  style="stroke:black; stroke-linecap:round; stroke-width:0.25;"/>
<line x1="20.000000" y1="152.000000" x2="24.000000" y2="152.000000"  style="stroke:black; stroke-linecap:round; stroke-width:0.25;"/>
<line x1="20.000000" y1="160.000000" x2="24.000000" y2="160.000000"  style="stroke:black; stroke-linecap:round; stroke-width:0.25;"/>
<line x1="20.000000" y1="168.000000" x2="24.000000" y2="168.000000"  style="stroke:black; stroke-linecap:round; stroke-width:0.25;"/>
<line x1="20.000000" y1="176.000000" x2="24.000000" y2="176.000000"  style="stroke:black; stroke-linecap:round; stroke-width:0.25;"/>
<line x1="20.000000" y1="184.000000" x2="24.000000" y2="184.000000"  style="stroke:black; stroke-linecap:round; stroke-width:0.25;"/>
<line x1="24.000000" y1="136.000000" x2="28.000000" y2="136.000000"  style="stroke:black; stroke-linecap:round; stroke-width:0.25;"/>
<line x1="24.000000" y1="144.000000" x2="28.000000" y2="144.000000"  style="stroke:black; stroke-linecap:round; stroke-width:0.25;"/>
<line x1="24.000000" y1="152.000000" x2="28.000000" y2="152.000000"  style="stroke:black; stroke-linecap:round; stroke-width:0.25;"/>
<line x1="24.000000" y1="160.000000" x2="28.000000" y2="160.000000"  style="stroke:black; stroke-linecap:round; stroke-width:0.25;"/>
<line x1="24.000000" y1="168.000000" x2="28.000000" y2="168.000000"  style="stroke:black; stroke-linecap:round; stroke-width:0.25;"/>
<line x1="24.000000" y1="176.000000" x2="28.000000" y2="176.000000"  style="stroke:black; stroke-linecap:round; stroke-width:0.25;"/>
<line x1="24.000000" y1="184.000000" x2="28.000000" y2="184.000000"  style="stroke:black; stroke-linecap:round; stroke-width:0.25;"/>
<line x1="28.000000" y1="24.000000" x2="60.000000" y2="24.000000"  style="stroke:black; stroke-linecap:round; stroke-width:0.25;"/>
<line x1="28.000000" y1="136.000000" x2="28.000000" y2="24.000000"  style="stroke:black; stroke-linecap:round; stroke-width:0.25;"/>
<line x1="28.000000" y1="136.000000" x2="28.000000" y2="136.000000"  style="stroke:black; stroke-linecap:round; stroke-width:0.25;"/>
<line x1="28.000000" y1="144.000000" x2="36.000000" y2="144.000000"  style="stroke:black; stroke-linecap:round; stroke-width:0.25;"/>
<line x1="28.000000" y1="152.000000" x2="44.000000" y2="152.000000"  style="stroke:black; stroke-linecap:round; stroke-width:0.25;"/>
<line x1="28.000000" y1="160.000000" x2="52.000000" y2="160.000000"  style="stroke:black; stroke-linecap:round; stroke-width:0.25;"/>
<line x1="28.000000" y1="168.000000" x2="60.000000" y2="168.000000"  style="stroke:black; stroke-linecap:round; stroke-width:0.25;"/>
<line x1="28.000000" y1="176.000000" x2="52.000000" y2="176.000000"  style="stroke:black; stroke-linecap:round; stroke-width:0.25;"/>
<line x1="28.000000" y1="184.000000" x2="44.000000" y2="184.000000"  style="stroke:black; stroke-linecap:round; stroke-width:0.25;"/>
<line x1="36.000000" y1="64.000000" x2="60.000000" y2="64.000000"  style="stroke:black; stroke-linecap:round; stroke-width:0.25;"/>
<line x1="36.000000" y1="144.000000" x2="36.000000" y2="64.000000"  style="stroke:black; stroke-linecap:round; stroke-width:0.25;"/>
<line x1="44.000000" y1="104.000000" x2="60.000000" y2="104.000000"  style="stroke:black; stroke-linecap:round; stroke-width:0.25;"/>
<line x1="44.000000" y1="152.000000" x2="44.000000" y2="104.000000"  style="stroke:black; stroke-linecap:round; stroke-width:0.25;"/>
<line x1="44.000000" y1="184.000000" x2="44.000000" y2="264.000000"  style="stroke:black; stroke-linecap:round; stroke-width:0.25;"/>
<line x1="44.000000" y1="264.000000" x2="60.000000" y2="264.000000"  style="stroke:black; stroke-linecap:round; stroke-width:0.25;"/>
<line x1="52.000000" y1="144.000000" x2="60.000000" y2="144.000000"  style="stroke:black; stroke-linecap:round; stroke-width:0.25;"/>
<line x1="52.000000" y1="160.000000" x2="52.000000" y2="144.000000"  style="stroke:black; stroke-linecap:round; stroke-width:0.25;"/>
<line x1="52.000000" y1="176.000000" x2="52.000000" y2="224.000000"  style="stroke:black; stroke-linecap:round; stroke-width:0.25;"/>
<line x1="52.000000" y1="224.000000" x2="60.000000" y2="224.000000"  style="stroke:black; stroke-linecap:round; stroke-width:0.25;"/>
<line x1="60.000000" y1="24.000000" x2="83.350000" y2="24.000000"  style="stroke:black; stroke-linecap:round; stroke-width:0.25;"/>
<line x1="60.000000" y1="64.000000" x2="83.350000" y2="64.000000"  style="stroke:black; stroke-linecap:round; stroke-width:0.25;"/>
<line x1="60.000000" y1="104.000000" x2="83.350000" y2="104.000000"  style="stroke:black; stroke-linecap:round; stroke-width:0.25;"/>
<line x1="60.000000" y1="144.000000" x2="83.350000" y2="144.000000"  style="stroke:black; stroke-linecap:round; stroke-width:0.25;"/>
<line x1="60.000000" y1="168.000000" x2="60.000000" y2="184.000000"  style="stroke:black; stroke-linecap:round; stroke-width:0.25;"/>
<line x1="60.000000" y1="184.000000" x2="60.000000" y2="184.000000"  style="stroke:black; stroke-linecap:round; stroke-width:0.25;"/>
<line x1="60.000000" y1="184.000000" x2="83.350000" y2="184.000000"  style="stroke:black; stroke-linecap:round; stroke-width:0.25;"/>
<line x1="60.000000" y1="224.000000" x2="83.350000" y2="224.000000"  style="stroke:black; stroke-linecap:round; stroke-width:0.25;"/>
<line x1="60.000000" y1="264.000000" x2="83.350000" y2="264.000000"  style="stroke:black; stroke-linecap:round; stroke-width:0.25;"/>
<line x1="83.350000" y1="24.000000" x2="106.700000" y2="24.000000"  style="stroke:black; stroke-linecap:round; stroke-width:0.25;"/>
<line x1="83.350000" y1="64.000000" x2="106.700000" y2="64.000000"  style="stroke:black; stroke-linecap:round; stroke-width:0.25;"/>
<line x1="83.350000" y1="104.000000" x2="106.700000" y2="104.000000"  style="stroke:black; stroke-linecap:round; stroke-width:0.25;"/>
<line x1="83.350000" y1="144.000000" x2="106.700000" y2="144.000000"  style="stroke:black; stroke-linecap:round; stroke-width:0.25;"/>
<line x1="83.350000" y1="184.000000" x2="106.700000" y2="184.000000"  style="stroke:black; stroke-linecap:round; stroke-width:0.25;"/>
<line x1="83.350000" y1="224.000000" x2="106.700000" y2="224.000000"  style="stroke:black; stroke-linecap:round; stroke-width:0.25;"/>
<line x1="83.350000" y1="264.000000" x2="106.700000" y2="264.000000"  style="stroke:black; stroke-linecap:round; stroke-width:0.25;"/>
<line x1="102.700000" y1="44.000000" x2="106.700000" y2="44.000000"  style="stroke:black; stroke-linecap:round; stroke-width:0.25;"/>
<line x1="102.700000" y1="84.000000" x2="106.700000" y2="84.000000"  style="stroke:black; stroke-linecap:round; stroke-width:0.25;"/>
<line x1="102.700000" y1="124.000000" x2="106.700000" y2="124.000000"  style="stroke:black; stroke-linecap:round; stroke-width:0.25;"/>
<line x1="102.700000" y1="164.000000" x2="106.700000" y2="164.000000"  style="stroke:black; stroke-linecap:round; stroke-width:0.25;"/>
<line x1="102.700000" y1="204.000000" x2="106.700000" y2="204.000000"  style="stroke:black; stroke-linecap:round; stroke-width:0.25;"/>
<line x1="102.700000" y1="244.000000" x2="106.700000" y2="244.000000"  style="stroke:black; stroke-linecap:round; stroke-width:0.25;"/>
<line x1="102.700000" y1="284.000000" x2="106.700000" y2="284.000000"  style="stroke:black; stroke-linecap:round; stroke-width:0.25;"/>
<line x1="106.700000" y1="24.000000" x2="114.700000" y2="24.000000"  style="stroke:black; stroke-linecap:round; stroke-width:0.25;"/>
<line x1="106.700000" y1="44.000000" x2="114.700000" y2="44.000000"  style="stroke:black; stroke-linecap:round; stroke-width:0.25;"/>
<line x1="106.700000" y1="64.000000" x2="114.700000" y2="64.000000"  style="stroke:black; stroke-linecap:round; stroke-width:0.25;"/>
<line x1="106.700000" y1="84.000000" x2="114.700000" y2="84.000000"  style="stroke:black; stroke-linecap:round; stroke-width:0.25;"/>
<line x1="106.700000" y1="104.000000" x2="114.700000" y2="104.000000"  style="stroke:black; stroke-linecap:round; stroke-width:0.25;"/>
<line x1="106.700000" y1="124.000000" x2="114.700000" y2="124.000000"  style="stroke:black; stroke-linecap:round; stroke-width:0.25;"/>
<line x1="106.700000" y1="144.000000" x2="114.700000" y2="144.000000"  style="stroke:black; stroke-linecap:round; stroke-width:0.25;"/>
<line x1="106.700000" y1="164.000000" x2="114.700000" y2="164.000000"  style="stroke:black; stroke-linecap:round; stroke-width:0.25;"/>
<line x1="106.700000" y1="184.000000" x2="114.700000" y2="184.000000"  style="stroke:black; stroke-linecap:round; stroke-width:0.25;"/>
<line x1="106.700000" y1="204.000000" x2="114.700000" y2="204.000000"  style="stroke:black; stroke-linecap:round; stroke-width:0.25;"/>
<line x1="106.700000" y1="224.000000" x2="114.700000" y2="224.000000"  style="stroke:black; stroke-linecap:round; stroke-width:0.25;"/>
<line x1="106.700000" y1="244.000000" x2="114.700000" y2="244.000000"  style="stroke:black; stroke-linecap:round; stroke-width:0.25;"/>
<line x1="106.700000" y1="264.000000" x2="114.700000" y2="264.000000"  style="stroke:black; stroke-linecap:round; stroke-width:0.25;"/>
<line x1="106.700000" y1="284.000000" x2="114.700000" y2="284.000000"  style="stroke:black; stroke-linecap:round; stroke-width:0.25;"/>
<line x1="114.700000" y1="24.000000" x2="114.700000" y2="36.000000"  style="stroke:black; stroke-linecap:round; stroke-width:0.25;"/>
<line x1="114.700000" y1="36.000000" x2="114.700000" y2="36.000000"  style="stroke:black; stroke-linecap:round; stroke-width:0.25;"/>
<line x1="114.700000" y1="36.000000" x2="118.700000" y2="36.000000"  style="stroke:black; stroke-linecap:round; stroke-width:0.25;"/>
<line x1="114.700000" y1="44.000000" x2="118.700000" y2="44.000000"  style="stroke:black; stroke-linecap:round; stroke-width:0.25;"/>
<line x1="114.700000" y1="64.000000" x2="114.700000" y2="76.000000"  style="stroke:black; stroke-linecap:round; stroke-width:0.25;"/>
<line x1="114.700000" y1="76.000000" x2="114.700000" y2="76.000000"  style="stroke:black; stroke-linecap:round; stroke-width:0.25;"/>
<line x1="114.700000" y1="76.000000" x2="118.700000" y2="76.000000"  style="stroke:black; stroke-linecap:round; stroke-width:0.25;"/>
<line x1="114.700000" y1="84.000000" x2="118.700000" y2="84.000000"  style="stroke:black; stroke-linecap:round; stroke-width:0.25;"/>
<line x1="114.700000" y1="104.000000" x2="114.700000" y2="116.000000"  style="stroke:black; stroke-linecap:round; stroke-width:0.25;"/>
<line x1="114.700000" y1="116.000000" x2="114.700000" y2="116.000000"  style="stroke:black; stroke-linecap:round; stroke-width:0.25;"/>
<line x1="114.700000" y1="116.000000" x2="118.700000" y2="116.000000"  style="stroke:black; stroke-linecap:round; stroke-width:0.25;"/>
<line x1="114.700000" y1="124.000000" x2="118.700000" y2="124.000000"  style="stroke:black; stroke-linecap:round; stroke-width:0.25;"/>
<line x1="114.700000" y1="144.000000" x2="114.700000" y2="156.000000"  style="stroke:black; stroke-linecap:round; stroke-width:0.25;"/>
<line x1="114.700000" y1="156.000000" x2="114.700000" y2="156.000000"  style="stroke:black; stroke-linecap:round; stroke-width:0.25;"/>
<line x1="114.700000" y1="156.000000" x2="118.700000" y2="156.000000"  style="stroke:black; stroke-linecap:round; stroke-width:0.25;"/>
<line x1="114.700000" y1="164.000000" x2="118.700000" y2="164.000000"  style="stroke:black; stroke-linecap:round; stroke-width:0.25;"/>
<line x1="114.700000" y1="184.000000" x2="114.700000" y2="196.000000"  style="stroke:black; stroke-linecap:round; stroke-width:0.25;"/>
<line x1="114.700000" y1="196.000000" x2="114.700000" y2="196.000000"  style="stroke:black; stroke-linecap:round; stroke-width:0.25;"/>
<line x1="114.700000" y1="196.000000" x2="118.700000" y2="196.000000"  style="stroke:black; stroke-linecap:round; stroke-width:0.25;"/>
<line x1="114.700000" y1="204.000000" x2="118.700000" y2="204.000000"  style="stroke:black; stroke-linecap:round; stroke-width:0.25;"/>
<line x1="114.700000" y1="224.000000" x2="114.700000" y2="236.000000"  style="stroke:black; stroke-linecap:round; stroke-width:0.25;"/>
<line x1="114.700000" y1="236.000000" x2="114.700000" y2="236.000000"  style="stroke:black; stroke-linecap:round; stroke-width:0.25;"/>
<line x1="114.700000" y1="236.000000" x2="118.700000" y2="236.000000"  style="stroke:black; stroke-linecap:round; stroke-width:0.25;"/>
<line x1="114.700000" y1="244.000000" x2="118.700000" y2="244.000000"  style="stroke:black; stroke-linecap:round; stroke-width:0.25;"/>
<line x1="114.700000" y1="264.000000" x2="114.700000" y2="276.000000"  style="stroke:black; stroke-linecap:round; stroke-width:0.25;"/>
<line x1="114.700000" y1="276.000000" x2="114.700000" y2="276.000000"  style="stroke:black; stroke-linecap:round; stroke-width:0.25;"/>
<line x1="114.700000" y1="276.000000" x2="118.700000" y2="276.000000"  style="stroke:black; stroke-linecap:round; stroke-width:0.25;"/>
<line x1="114.700000" y1="284.000000" x2="118.700000" y2="284.000000"  style="stroke:black; stroke-linecap:round; stroke-width:0.25;"/>
<line x1="142.700000" y1="40.000000" x2="146.700000" y2="40.000000"  style="stroke:black; stroke-linecap:round; stroke-width:0.25;"/>
<line x1="142.700000" y1="80.000000" x2="146.700000" y2="80.000000"  style="stroke:black; stroke-linecap:round; stroke-width:0.25;"/>
<line x1="142.700000" y1="120.000000" x2="146.700000" y2="120.000000"  style="stroke:black; stroke-linecap:round; stroke-width:0.25;"/>
<line x1="142.700000" y1="160.000000" x2="146.700000" y2="160.000000"  style="stroke:black; stroke-linecap:round; stroke-width:0.25;"/>
<line x1="142.700000" y1="200.000000" x2="146.700000" y2="200.000000"  style="stroke:black; stroke-linecap:round; stroke-width:0.25;"/>
<line x1="142.700000" y1="240.000000" x2="146.700000" y2="240.000000"  style="stroke:black; stroke-linecap:round; stroke-width:0.25;"/>
<line x1="142.700000" y1="280.000000" x2="146.700000" y2="280.000000"  style="stroke:black; stroke-linecap:round; stroke-width:0.25;"/>
<line x1="146.700000" y1="40.000000" x2="218.700000" y2="160.000000"  style="stroke:black; stroke-linecap:round; stroke-width:0.25;"/>
<line x1="146.700000" y1="80.000000" x2="218.700000" y2="160.000000"  style="stroke:black; stroke-linecap:round; stroke-width:0.25;"/>
<line x1="146.700000" y1="120.000000" x2="218.700000" y2="160.000000"  style="stroke:black; stroke-linecap:round; stroke-width:0.25;"/>
<line x1="146.700000" y1="160.000000" x2="218.700000" y2="160.000000"  style="stroke:black; stroke-linecap:round; stroke-width:0.25;"/>
<line x1="146.700000" y1="200.000000" x2="218.700000" y2="160.000000"  style="stroke:black; stroke-linecap:round; stroke-width:0.25;"/>
<line x1="146.700000" y1="240.000000" x2="218.700000" y2="160.000000"  style="stroke:black; stroke-linecap:round; stroke-width:0.25;"/>
<line x1="146.700000" y1="280.000000" x2="218.700000" y2="160.000000"  style="stroke:black; stroke-linecap:round; stroke-width:0.25;"/>
<line x1="218.700000" y1="160.000000" x2="222.700000" y2="160.000000"  style="stroke:black; stroke-linecap:round; stroke-width:0.25;"/>
<line x1="234.700000" y1="160.000000" x2="238.700000" y2="160.000000"  style="stroke:black; stroke-linecap:round; stroke-width:0.25;"/>
<line x1="238.700000" y1="160.000000" x2="238.700000" y2="160.000000"  style="stroke:black; stroke-linecap:round; stroke-width:0.25;"/>
<line x1="238.700000" y1="160.000000" x2="242.700000" y2="160.000000"  style="stroke:black; stroke-linecap:round; stroke-width:0.25;"/>
<line x1="242.700000" y1="160.000000" x2="246.700000" y2="160.000000"  style="stroke:black; stroke-linecap:round; stroke-width:0.25;"/>
<line x1="246.700000" y1="160.000000" x2="256.700000" y2="160.000000"  style="stroke:black; stroke-linecap:round; stroke-width:0.25;"/>
</svg>
