<?xml version="1.0"?>
<svg xmlns="http://www.w3.org/2000/svg" xmlns:xlink="http://www.w3.org/1999/xlink" viewBox="0 0 370.300000 464.000000" width="185.150000mm" height="232.000000mm" version="1.1">
<a xlink:href="ctrl-0x3012fce0.svg">
<rect x="1.000000" y="1.000000" width="369.300000" height="463.000000" rx="0" ry="0" style="stroke:none;fill:#cccccc;"/>
<rect x="0.000000" y="0.000000" width="369.300000" height="463.000000" rx="0" ry="0" style="stroke:none;fill:#ffffff;"/>
</a>
<text x="10.000000" y="7.000000" font-family="Arial" font-size="7"></text>
<rect x="98.800000" y="25.000000" width="24.000000" height="24.000000" rx="0" ry="0" style="stroke:none;fill:#cccccc;"/>
<rect x="97.800000" y="24.000000" width="24.000000" height="24.000000" rx="0" ry="0" style="stroke:none;fill:#47945E;"/>
<text x="109.800000" y="38.000000" font-family="Arial" font-size="7" text-anchor="middle" fill="#FFFFFF">ip</text>
<circle cx="99.800000" cy="26.000000" r="1"/>
<rect x="98.800000" y="57.000000" width="24.000000" height="24.000000" rx="0" ry="0" style="stroke:none;fill:#cccccc;"/>
<rect x="97.800000" y="56.000000" width="24.000000" height="24.000000" rx="0" ry="0" style="stroke:none;fill:#f44800;"/>
<text x="109.800000" y="70.000000" font-family="Arial" font-size="7" text-anchor="middle" fill="#FFFFFF">1</text>
<circle cx="99.800000" cy="58.000000" r="1"/>
<rect x="138.800000" y="41.000000" width="24.000000" height="24.000000" rx="0" ry="0" style="stroke:none;fill:#cccccc;"/>
<rect x="137.800000" y="40.000000" width="24.000000" height="24.000000" rx="0" ry="0" style="stroke:none;fill:#4B71A1;"/>
<text x="149.800000" y="54.000000" font-family="Arial" font-size="7" text-anchor="middle" fill="#FFFFFF">&gt;=</text>
<circle cx="139.800000" cy="42.000000" r="1"/>
<line x1="134.800000" y1="47.000000" x2="137.800000" y2="48.000000"  transform="rotate(0.000000,137.800000,48.000000)" style="stroke: black; stroke-width:0.25;"/>
<line x1="134.800000" y1="49.000000" x2="137.800000" y2="48.000000"  transform="rotate(0.000000,137.800000,48.000000)" style="stroke: black; stroke-width:0.25;"/>
<line x1="134.800000" y1="55.000000" x2="137.800000" y2="56.000000"  transform="rotate(0.000000,137.800000,56.000000)" style="stroke: black; stroke-width:0.25;"/>
<line x1="134.800000" y1="57.000000" x2="137.800000" y2="56.000000"  transform="rotate(0.000000,137.800000,56.000000)" style="stroke: black; stroke-width:0.25;"/>
<rect x="98.800000" y="89.000000" width="24.000000" height="24.000000" rx="0" ry="0" style="stroke:none;fill:#cccccc;"/>
<rect x="97.800000" y="88.000000" width="24.000000" height="24.000000" rx="0" ry="0" style="stroke:none;fill:#47945E;"/>
<text x="109.800000" y="102.000000" font-family="Arial" font-size="7" text-anchor="middle" fill="#FFFFFF">d1</text>
<circle cx="99.800000" cy="90.000000" r="1"/>
<a xlink:href="slowTotal-0x30420a70.svg">
<rect x="25.000000" y="121.000000" width="51.600000" height="24.000000" rx="0" ry="0" style="stroke:none;fill:#cccccc;"/>
<rect x="24.000000" y="120.000000" width="51.600000" height="24.000000" rx="0" ry="0" style="stroke:none;fill:#003366;"/>
</a>
<a xlink:href="slowTotal-0x30420a70.svg">
<text x="49.800000" y="134.000000" font-family="Arial" font-size="7" text-anchor="middle" fill="#FFFFFF">slowTotal(0)</text>
</a>
<circle cx="26.000000" cy="122.000000" r="1"/>
<a xlink:href="fastTotal-0x30491200.svg">
<rect x="25.000000" y="153.000000" width="51.600000" height="24.000000" rx="0" ry="0" style="stroke:none;fill:#cccccc;"/>
<rect x="24.000000" y="152.000000" width="51.600000" height="24.000000" rx="0" ry="0" style="stroke:none;fill:#003366;"/>
</a>
<a xlink:href="fastTotal-0x30491200.svg">
<text x="49.800000" y="166.000000" font-family="Arial" font-size="7" text-anchor="middle" fill="#FFFFFF">fastTotal(1)</text>
</a>
<circle cx="26.000000" cy="154.000000" r="1"/>
<rect x="92.600000" y="137.000000" width="24.000000" height="24.000000" rx="0" ry="0" style="stroke:none;fill:#cccccc;"/>
<rect x="91.600000" y="136.000000" width="24.000000" height="24.000000" rx="0" ry="0" style="stroke:none;fill:#4B71A1;"/>
<text x="103.600000" y="150.000000" font-family="Arial" font-size="7" text-anchor="middle" fill="#FFFFFF">+</text>
<circle cx="93.600000" cy="138.000000" r="1"/>
<line x1="88.600000" y1="143.000000" x2="91.600000" y2="144.000000"  transform="rotate(0.000000,91.600000,144.000000)" style="stroke: black; stroke-width:0.25;"/>
<line x1="88.600000" y1="145.000000" x2="91.600000" y2="144.000000"  transform="rotate(0.000000,91.600000,144.000000)" style="stroke: black; stroke-width:0.25;"/>
<line x1="88.600000" y1="151.000000" x2="91.600000" y2="152.000000"  transform="rotate(0.000000,91.600000,152.000000)" style="stroke: black; stroke-width:0.25;"/>
<line x1="88.600000" y1="153.000000" x2="91.600000" y2="152.000000"  transform="rotate(0.000000,91.600000,152.000000)" style="stroke: black; stroke-width:0.25;"/>
<rect x="58.800000" y="195.000000" width="24.000000" height="24.000000" rx="0" ry="0" style="stroke:none;fill:#cccccc;"/>
<rect x="57.800000" y="194.000000" width="24.000000" height="24.000000" rx="0" ry="0" style="stroke:none;fill:#f44800;"/>
<text x="69.800000" y="208.000000" font-family="Arial" font-size="7" text-anchor="middle" fill="#FFFFFF">3</text>
<circle cx="59.800000" cy="196.000000" r="1"/>
<line x1="48.800000" y1="185.000000" x2="48.800000" y2="227.000000"  style="stroke: black; stroke-linecap:round; stroke-width:0.25; stroke-dasharray:3,3;"/>
<line x1="48.800000" y1="227.000000" x2="90.800000" y2="227.000000"  style="stroke: black; stroke-linecap:round; stroke-width:0.25; stroke-dasharray:3,3;"/>
<line x1="90.800000" y1="227.000000" x2="90.800000" y2="185.000000"  style="stroke: black; stroke-linecap:round; stroke-width:0.25; stroke-dasharray:3,3;"/>
<line x1="48.800000" y1="185.000000" x2="53.800000" y2="185.000000"  style="stroke: black; stroke-linecap:round; stroke-width:0.25; stroke-dasharray:3,3;"/>
<line x1="82.825000" y1="185.000000" x2="90.800000" y2="185.000000"  style="stroke: black; stroke-linecap:round; stroke-width:0.25; stroke-dasharray:3,3;"/>
<text x="53.800000" y="187.000000" font-family="Arial" font-size="7">nrSends</text>
<rect x="132.600000" y="163.000000" width="24.000000" height="24.000000" rx="0" ry="0" style="stroke:none;fill:#cccccc;"/>
<rect x="131.600000" y="162.000000" width="24.000000" height="24.000000" rx="0" ry="0" style="stroke:none;fill:#4B71A1;"/>
<text x="143.600000" y="176.000000" font-family="Arial" font-size="7" text-anchor="middle" fill="#FFFFFF">+</text>
<circle cx="133.600000" cy="164.000000" r="1"/>
<line x1="128.600000" y1="169.000000" x2="131.600000" y2="170.000000"  transform="rotate(0.000000,131.600000,170.000000)" style="stroke: black; stroke-width:0.25;"/>
<line x1="128.600000" y1="171.000000" x2="131.600000" y2="170.000000"  transform="rotate(0.000000,131.600000,170.000000)" style="stroke: black; stroke-width:0.25;"/>
<line x1="128.600000" y1="177.000000" x2="131.600000" y2="178.000000"  transform="rotate(0.000000,131.600000,178.000000)" style="stroke: black; stroke-width:0.25;"/>
<line x1="128.600000" y1="179.000000" x2="131.600000" y2="178.000000"  transform="rotate(0.000000,131.600000,178.000000)" style="stroke: black; stroke-width:0.25;"/>
<a xlink:href="ms-0x21d9ad0.svg">
<rect x="78.800000" y="237.000000" width="24.000000" height="24.000000" rx="0" ry="0" style="stroke:none;fill:#cccccc;"/>
<rect x="77.800000" y="236.000000" width="24.000000" height="24.000000" rx="0" ry="0" style="stroke:none;fill:#003366;"/>
</a>
<a xlink:href="ms-0x21d9ad0.svg">
<text x="89.800000" y="250.000000" font-family="Arial" font-size="7" text-anchor="middle" fill="#FFFFFF">ms</text>
</a>
<circle cx="79.800000" cy="238.000000" r="1"/>
<rect x="172.600000" y="179.000000" width="24.000000" height="24.000000" rx="0" ry="0" style="stroke:none;fill:#cccccc;"/>
<rect x="171.600000" y="178.000000" width="24.000000" height="24.000000" rx="0" ry="0" style="stroke:none;fill:#4B71A1;"/>
<text x="183.600000" y="192.000000" font-family="Arial" font-size="7" text-anchor="middle" fill="#FFFFFF">*</text>
<circle cx="173.600000" cy="180.000000" r="1"/>
<line x1="168.600000" y1="185.000000" x2="171.600000" y2="186.000000"  transform="rotate(0.000000,171.600000,186.000000)" style="stroke: black; stroke-width:0.25;"/>
<line x1="168.600000" y1="187.000000" x2="171.600000" y2="186.000000"  transform="rotate(0.000000,171.600000,186.000000)" style="stroke: black; stroke-width:0.25;"/>
<line x1="168.600000" y1="193.000000" x2="171.600000" y2="194.000000"  transform="rotate(0.000000,171.600000,194.000000)" style="stroke: black; stroke-width:0.25;"/>
<line x1="168.600000" y1="195.000000" x2="171.600000" y2="194.000000"  transform="rotate(0.000000,171.600000,194.000000)" style="stroke: black; stroke-width:0.25;"/>
<rect x="212.600000" y="163.000000" width="24.000000" height="24.000000" rx="0" ry="0" style="stroke:none;fill:#cccccc;"/>
<rect x="211.600000" y="162.000000" width="24.000000" height="24.000000" rx="0" ry="0" style="stroke:none;fill:#4B71A1;"/>
<text x="223.600000" y="176.000000" font-family="Arial" font-size="7" text-anchor="middle" fill="#FFFFFF">!=</text>
<circle cx="213.600000" cy="164.000000" r="1"/>
<line x1="208.600000" y1="169.000000" x2="211.600000" y2="170.000000"  transform="rotate(0.000000,211.600000,170.000000)" style="stroke: black; stroke-width:0.25;"/>
<line x1="208.600000" y1="171.000000" x2="211.600000" y2="170.000000"  transform="rotate(0.000000,211.600000,170.000000)" style="stroke: black; stroke-width:0.25;"/>
<line x1="208.600000" y1="177.000000" x2="211.600000" y2="178.000000"  transform="rotate(0.000000,211.600000,178.000000)" style="stroke: black; stroke-width:0.25;"/>
<line x1="208.600000" y1="179.000000" x2="211.600000" y2="178.000000"  transform="rotate(0.000000,211.600000,178.000000)" style="stroke: black; stroke-width:0.25;"/>
<rect x="252.600000" y="131.000000" width="24.000000" height="24.000000" rx="0" ry="0" style="stroke:none;fill:#cccccc;"/>
<rect x="251.600000" y="130.000000" width="24.000000" height="24.000000" rx="0" ry="0" style="stroke:none;fill:#4B71A1;"/>
<text x="263.600000" y="144.000000" font-family="Arial" font-size="7" text-anchor="middle" fill="#FFFFFF">&amp;</text>
<circle cx="253.600000" cy="132.000000" r="1"/>
<line x1="248.600000" y1="137.000000" x2="251.600000" y2="138.000000"  transform="rotate(0.000000,251.600000,138.000000)" style="stroke: black; stroke-width:0.25;"/>
<line x1="248.600000" y1="139.000000" x2="251.600000" y2="138.000000"  transform="rotate(0.000000,251.600000,138.000000)" style="stroke: black; stroke-width:0.25;"/>
<line x1="248.600000" y1="145.000000" x2="251.600000" y2="146.000000"  transform="rotate(0.000000,251.600000,146.000000)" style="stroke: black; stroke-width:0.25;"/>
<line x1="248.600000" y1="147.000000" x2="251.600000" y2="146.000000"  transform="rotate(0.000000,251.600000,146.000000)" style="stroke: black; stroke-width:0.25;"/>
<rect x="138.800000" y="269.000000" width="24.000000" height="24.000000" rx="0" ry="0" style="stroke:none;fill:#cccccc;"/>
<rect x="137.800000" y="268.000000" width="24.000000" height="24.000000" rx="0" ry="0" style="stroke:none;fill:#47945E;"/>
<text x="149.800000" y="282.000000" font-family="Arial" font-size="7" text-anchor="middle" fill="#FFFFFF">d0</text>
<circle cx="139.800000" cy="270.000000" r="1"/>
<a xlink:href="slowTotal-0x30420a70.svg">
<rect x="65.000000" y="301.000000" width="51.600000" height="24.000000" rx="0" ry="0" style="stroke:none;fill:#cccccc;"/>
<rect x="64.000000" y="300.000000" width="51.600000" height="24.000000" rx="0" ry="0" style="stroke:none;fill:#003366;"/>
</a>
<a xlink:href="slowTotal-0x30420a70.svg">
<text x="89.800000" y="314.000000" font-family="Arial" font-size="7" text-anchor="middle" fill="#FFFFFF">slowTotal(0)</text>
</a>
<circle cx="66.000000" cy="302.000000" r="1"/>
<a xlink:href="fastTotal-0x30491200.svg">
<rect x="65.000000" y="333.000000" width="51.600000" height="24.000000" rx="0" ry="0" style="stroke:none;fill:#cccccc;"/>
<rect x="64.000000" y="332.000000" width="51.600000" height="24.000000" rx="0" ry="0" style="stroke:none;fill:#003366;"/>
</a>
<a xlink:href="fastTotal-0x30491200.svg">
<text x="89.800000" y="346.000000" font-family="Arial" font-size="7" text-anchor="middle" fill="#FFFFFF">fastTotal(1)</text>
</a>
<circle cx="66.000000" cy="334.000000" r="1"/>
<rect x="132.600000" y="317.000000" width="24.000000" height="24.000000" rx="0" ry="0" style="stroke:none;fill:#cccccc;"/>
<rect x="131.600000" y="316.000000" width="24.000000" height="24.000000" rx="0" ry="0" style="stroke:none;fill:#4B71A1;"/>
<text x="143.600000" y="330.000000" font-family="Arial" font-size="7" text-anchor="middle" fill="#FFFFFF">+</text>
<circle cx="133.600000" cy="318.000000" r="1"/>
<line x1="128.600000" y1="323.000000" x2="131.600000" y2="324.000000"  transform="rotate(0.000000,131.600000,324.000000)" style="stroke: black; stroke-width:0.25;"/>
<line x1="128.600000" y1="325.000000" x2="131.600000" y2="324.000000"  transform="rotate(0.000000,131.600000,324.000000)" style="stroke: black; stroke-width:0.25;"/>
<line x1="128.600000" y1="331.000000" x2="131.600000" y2="332.000000"  transform="rotate(0.000000,131.600000,332.000000)" style="stroke: black; stroke-width:0.25;"/>
<line x1="128.600000" y1="333.000000" x2="131.600000" y2="332.000000"  transform="rotate(0.000000,131.600000,332.000000)" style="stroke: black; stroke-width:0.25;"/>
<rect x="98.800000" y="375.000000" width="24.000000" height="24.000000" rx="0" ry="0" style="stroke:none;fill:#cccccc;"/>
<rect x="97.800000" y="374.000000" width="24.000000" height="24.000000" rx="0" ry="0" style="stroke:none;fill:#f44800;"/>
<text x="109.800000" y="388.000000" font-family="Arial" font-size="7" text-anchor="middle" fill="#FFFFFF">3</text>
<circle cx="99.800000" cy="376.000000" r="1"/>
<line x1="88.800000" y1="365.000000" x2="88.800000" y2="407.000000"  style="stroke: black; stroke-linecap:round; stroke-width:0.25; stroke-dasharray:3,3;"/>
<line x1="88.800000" y1="407.000000" x2="130.800000" y2="407.000000"  style="stroke: black; stroke-linecap:round; stroke-width:0.25; stroke-dasharray:3,3;"/>
<line x1="130.800000" y1="407.000000" x2="130.800000" y2="365.000000"  style="stroke: black; stroke-linecap:round; stroke-width:0.25; stroke-dasharray:3,3;"/>
<line x1="88.800000" y1="365.000000" x2="93.800000" y2="365.000000"  style="stroke: black; stroke-linecap:round; stroke-width:0.25; stroke-dasharray:3,3;"/>
<line x1="122.825000" y1="365.000000" x2="130.800000" y2="365.000000"  style="stroke: black; stroke-linecap:round; stroke-width:0.25; stroke-dasharray:3,3;"/>
<text x="93.800000" y="367.000000" font-family="Arial" font-size="7">nrSends</text>
<rect x="172.600000" y="343.000000" width="24.000000" height="24.000000" rx="0" ry="0" style="stroke:none;fill:#cccccc;"/>
<rect x="171.600000" y="342.000000" width="24.000000" height="24.000000" rx="0" ry="0" style="stroke:none;fill:#4B71A1;"/>
<text x="183.600000" y="356.000000" font-family="Arial" font-size="7" text-anchor="middle" fill="#FFFFFF">+</text>
<circle cx="173.600000" cy="344.000000" r="1"/>
<line x1="168.600000" y1="349.000000" x2="171.600000" y2="350.000000"  transform="rotate(0.000000,171.600000,350.000000)" style="stroke: black; stroke-width:0.25;"/>
<line x1="168.600000" y1="351.000000" x2="171.600000" y2="350.000000"  transform="rotate(0.000000,171.600000,350.000000)" style="stroke: black; stroke-width:0.25;"/>
<line x1="168.600000" y1="357.000000" x2="171.600000" y2="358.000000"  transform="rotate(0.000000,171.600000,358.000000)" style="stroke: black; stroke-width:0.25;"/>
<line x1="168.600000" y1="359.000000" x2="171.600000" y2="358.000000"  transform="rotate(0.000000,171.600000,358.000000)" style="stroke: black; stroke-width:0.25;"/>
<a xlink:href="ms-0x21d9ad0.svg">
<rect x="118.800000" y="417.000000" width="24.000000" height="24.000000" rx="0" ry="0" style="stroke:none;fill:#cccccc;"/>
<rect x="117.800000" y="416.000000" width="24.000000" height="24.000000" rx="0" ry="0" style="stroke:none;fill:#003366;"/>
</a>
<a xlink:href="ms-0x21d9ad0.svg">
<text x="129.800000" y="430.000000" font-family="Arial" font-size="7" text-anchor="middle" fill="#FFFFFF">ms</text>
</a>
<circle cx="119.800000" cy="418.000000" r="1"/>
<rect x="212.600000" y="359.000000" width="24.000000" height="24.000000" rx="0" ry="0" style="stroke:none;fill:#cccccc;"/>
<rect x="211.600000" y="358.000000" width="24.000000" height="24.000000" rx="0" ry="0" style="stroke:none;fill:#4B71A1;"/>
<text x="223.600000" y="372.000000" font-family="Arial" font-size="7" text-anchor="middle" fill="#FFFFFF">*</text>
<circle cx="213.600000" cy="360.000000" r="1"/>
<line x1="208.600000" y1="365.000000" x2="211.600000" y2="366.000000"  transform="rotate(0.000000,211.600000,366.000000)" style="stroke: black; stroke-width:0.25;"/>
<line x1="208.600000" y1="367.000000" x2="211.600000" y2="366.000000"  transform="rotate(0.000000,211.600000,366.000000)" style="stroke: black; stroke-width:0.25;"/>
<line x1="208.600000" y1="373.000000" x2="211.600000" y2="374.000000"  transform="rotate(0.000000,211.600000,374.000000)" style="stroke: black; stroke-width:0.25;"/>
<line x1="208.600000" y1="375.000000" x2="211.600000" y2="374.000000"  transform="rotate(0.000000,211.600000,374.000000)" style="stroke: black; stroke-width:0.25;"/>
<rect x="300.600000" y="221.000000" width="38.700000" height="24.000000" rx="0" ry="0" style="stroke:none;fill:#cccccc;"/>
<rect x="299.600000" y="220.000000" width="38.700000" height="24.000000" rx="0" ry="0" style="stroke:none;fill:#4B71A1;"/>
<text x="318.950000" y="234.000000" font-family="Arial" font-size="7" text-anchor="middle" fill="#FFFFFF">select2</text>
<circle cx="301.600000" cy="222.000000" r="1"/>
<line x1="296.600000" y1="223.000000" x2="299.600000" y2="224.000000"  transform="rotate(0.000000,299.600000,224.000000)" style="stroke: black; stroke-width:0.25;"/>
<line x1="296.600000" y1="225.000000" x2="299.600000" y2="224.000000"  transform="rotate(0.000000,299.600000,224.000000)" style="stroke: black; stroke-width:0.25;"/>
<line x1="296.600000" y1="231.000000" x2="299.600000" y2="232.000000"  transform="rotate(0.000000,299.600000,232.000000)" style="stroke: black; stroke-width:0.25;"/>
<line x1="296.600000" y1="233.000000" x2="299.600000" y2="232.000000"  transform="rotate(0.000000,299.600000,232.000000)" style="stroke: black; stroke-width:0.25;"/>
<line x1="296.600000" y1="239.000000" x2="299.600000" y2="240.000000"  transform="rotate(0.000000,299.600000,240.000000)" style="stroke: black; stroke-width:0.25;"/>
<line x1="296.600000" y1="241.000000" x2="299.600000" y2="240.000000"  transform="rotate(0.000000,299.600000,240.000000)" style="stroke: black; stroke-width:0.25;"/>
<line x1="15.000000" y1="15.000000" x2="15.000000" y2="449.000000"  style="stroke: black; stroke-linecap:round; stroke-width:0.25; stroke-dasharray:3,3;"/>
<line x1="15.000000" y1="449.000000" x2="355.300000" y2="449.000000"  style="stroke: black; stroke-linecap:round; stroke-width:0.25; stroke-dasharray:3,3;"/>
<line x1="355.300000" y1="449.000000" x2="355.300000" y2="15.000000"  style="stroke: black; stroke-linecap:round; stroke-width:0.25; stroke-dasharray:3,3;"/>
<line x1="15.000000" y1="15.000000" x2="20.000000" y2="15.000000"  style="stroke: black; stroke-linecap:round; stroke-width:0.25; stroke-dasharray:3,3;"/>
<line x1="36.125000" y1="15.000000" x2="355.300000" y2="15.000000"  style="stroke: black; stroke-linecap:round; stroke-width:0.25; stroke-dasharray:3,3;"/>
<text x="20.000000" y="17.000000" font-family="Arial" font-size="7">nd0</text>
<line x1="357.300000" y1="231.000000" x2="360.300000" y2="232.000000"  transform="rotate(0.000000,360.300000,232.000000)" style="stroke: black; stroke-width:0.25;"/>
<line x1="357.300000" y1="233.000000" x2="360.300000" y2="232.000000"  transform="rotate(0.000000,360.300000,232.000000)" style="stroke: black; stroke-width:0.25;"/>
<line x1="75.600000" y1="132.000000" x2="79.600000" y2="132.000000"  style="stroke:black; stroke-linecap:round; stroke-width:0.25;"/>
<line x1="75.600000" y1="164.000000" x2="79.600000" y2="164.000000"  style="stroke:black; stroke-linecap:round; stroke-width:0.25;"/>
<line x1="79.600000" y1="132.000000" x2="87.600000" y2="132.000000"  style="stroke:black; stroke-linecap:round; stroke-width:0.25;"/>
<line x1="79.600000" y1="152.000000" x2="87.600000" y2="152.000000"  style="stroke:black; stroke-linecap:round; stroke-width:0.25;"/>
<line x1="79.600000" y1="164.000000" x2="79.600000" y2="152.000000"  style="stroke:black; stroke-linecap:round; stroke-width:0.25;"/>
<line x1="79.600000" y1="164.000000" x2="79.600000" y2="164.000000"  style="stroke:black; stroke-linecap:round; stroke-width:0.25;"/>
<line x1="81.800000" y1="206.000000" x2="85.800000" y2="206.000000"  style="stroke:black; stroke-linecap:round; stroke-width:0.25;"/>
<line x1="85.800000" y1="206.000000" x2="95.800000" y2="206.000000"  style="stroke:black; stroke-linecap:round; stroke-width:0.25;"/>
<line x1="87.600000" y1="132.000000" x2="87.600000" y2="144.000000"  style="stroke:black; stroke-linecap:round; stroke-width:0.25;"/>
<line x1="87.600000" y1="144.000000" x2="87.600000" y2="144.000000"  style="stroke:black; stroke-linecap:round; stroke-width:0.25;"/>
<line x1="87.600000" y1="144.000000" x2="91.600000" y2="144.000000"  style="stroke:black; stroke-linecap:round; stroke-width:0.25;"/>
<line x1="87.600000" y1="152.000000" x2="91.600000" y2="152.000000"  style="stroke:black; stroke-linecap:round; stroke-width:0.25;"/>
<line x1="95.800000" y1="206.000000" x2="119.600000" y2="206.000000"  style="stroke:black; stroke-linecap:round; stroke-width:0.25;"/>
<line x1="101.800000" y1="248.000000" x2="105.800000" y2="248.000000"  style="stroke:black; stroke-linecap:round; stroke-width:0.25;"/>
<line x1="105.800000" y1="248.000000" x2="159.600000" y2="248.000000"  style="stroke:black; stroke-linecap:round; stroke-width:0.25;"/>
<line x1="115.600000" y1="148.000000" x2="119.600000" y2="148.000000"  style="stroke:black; stroke-linecap:round; stroke-width:0.25;"/>
<line x1="115.600000" y1="312.000000" x2="119.600000" y2="312.000000"  style="stroke:black; stroke-linecap:round; stroke-width:0.25;"/>
<line x1="115.600000" y1="344.000000" x2="119.600000" y2="344.000000"  style="stroke:black; stroke-linecap:round; stroke-width:0.25;"/>
<line x1="119.600000" y1="148.000000" x2="127.600000" y2="148.000000"  style="stroke:black; stroke-linecap:round; stroke-width:0.25;"/>
<line x1="119.600000" y1="178.000000" x2="127.600000" y2="178.000000"  style="stroke:black; stroke-linecap:round; stroke-width:0.25;"/>
<line x1="119.600000" y1="206.000000" x2="119.600000" y2="178.000000"  style="stroke:black; stroke-linecap:round; stroke-width:0.25;"/>
<line x1="119.600000" y1="206.000000" x2="119.600000" y2="206.000000"  style="stroke:black; stroke-linecap:round; stroke-width:0.25;"/>
<line x1="119.600000" y1="312.000000" x2="127.600000" y2="312.000000"  style="stroke:black; stroke-linecap:round; stroke-width:0.25;"/>
<line x1="119.600000" y1="332.000000" x2="127.600000" y2="332.000000"  style="stroke:black; stroke-linecap:round; stroke-width:0.25;"/>
<line x1="119.600000" y1="344.000000" x2="119.600000" y2="332.000000"  style="stroke:black; stroke-linecap:round; stroke-width:0.25;"/>
<line x1="119.600000" y1="344.000000" x2="119.600000" y2="344.000000"  style="stroke:black; stroke-linecap:round; stroke-width:0.25;"/>
<line x1="121.800000" y1="36.000000" x2="125.800000" y2="36.000000"  style="stroke:black; stroke-linecap:round; stroke-width:0.25;"/>
<line x1="121.800000" y1="68.000000" x2="125.800000" y2="68.000000"  style="stroke:black; stroke-linecap:round; stroke-width:0.25;"/>
<line x1="121.800000" y1="100.000000" x2="125.800000" y2="100.000000"  style="stroke:black; stroke-linecap:round; stroke-width:0.25;"/>
<line x1="121.800000" y1="386.000000" x2="125.800000" y2="386.000000"  style="stroke:black; stroke-linecap:round; stroke-width:0.25;"/>
<line x1="125.800000" y1="36.000000" x2="133.800000" y2="36.000000"  style="stroke:black; stroke-linecap:round; stroke-width:0.25;"/>
<line x1="125.800000" y1="56.000000" x2="133.800000" y2="56.000000"  style="stroke:black; stroke-linecap:round; stroke-width:0.25;"/>
<line x1="125.800000" y1="68.000000" x2="125.800000" y2="56.000000"  style="stroke:black; stroke-linecap:round; stroke-width:0.25;"/>
<line x1="125.800000" y1="68.000000" x2="125.800000" y2="68.000000"  style="stroke:black; stroke-linecap:round; stroke-width:0.25;"/>
<line x1="125.800000" y1="100.000000" x2="199.600000" y2="100.000000"  style="stroke:black; stroke-linecap:round; stroke-width:0.25;"/>
<line x1="125.800000" y1="386.000000" x2="135.800000" y2="386.000000"  style="stroke:black; stroke-linecap:round; stroke-width:0.25;"/>
<line x1="127.600000" y1="148.000000" x2="127.600000" y2="170.000000"  style="stroke:black; stroke-linecap:round; stroke-width:0.25;"/>
<line x1="127.600000" y1="170.000000" x2="127.600000" y2="170.000000"  style="stroke:black; stroke-linecap:round; stroke-width:0.25;"/>
<line x1="127.600000" y1="170.000000" x2="131.600000" y2="170.000000"  style="stroke:black; stroke-linecap:round; stroke-width:0.25;"/>
<line x1="127.600000" y1="178.000000" x2="131.600000" y2="178.000000"  style="stroke:black; stroke-linecap:round; stroke-width:0.25;"/>
<line x1="127.600000" y1="312.000000" x2="127.600000" y2="324.000000"  style="stroke:black; stroke-linecap:round; stroke-width:0.25;"/>
<line x1="127.600000" y1="324.000000" x2="127.600000" y2="324.000000"  style="stroke:black; stroke-linecap:round; stroke-width:0.25;"/>
<line x1="127.600000" y1="324.000000" x2="131.600000" y2="324.000000"  style="stroke:black; stroke-linecap:round; stroke-width:0.25;"/>
<line x1="127.600000" y1="332.000000" x2="131.600000" y2="332.000000"  style="stroke:black; stroke-linecap:round; stroke-width:0.25;"/>
<line x1="133.800000" y1="36.000000" x2="133.800000" y2="48.000000"  style="stroke:black; stroke-linecap:round; stroke-width:0.25;"/>
<line x1="133.800000" y1="48.000000" x2="133.800000" y2="48.000000"  style="stroke:black; stroke-linecap:round; stroke-width:0.25;"/>
<line x1="133.800000" y1="48.000000" x2="137.800000" y2="48.000000"  style="stroke:black; stroke-linecap:round; stroke-width:0.25;"/>
<line x1="133.800000" y1="56.000000" x2="137.800000" y2="56.000000"  style="stroke:black; stroke-linecap:round; stroke-width:0.25;"/>
<line x1="135.800000" y1="386.000000" x2="159.600000" y2="386.000000"  style="stroke:black; stroke-linecap:round; stroke-width:0.25;"/>
<line x1="141.800000" y1="428.000000" x2="145.800000" y2="428.000000"  style="stroke:black; stroke-linecap:round; stroke-width:0.25;"/>
<line x1="145.800000" y1="428.000000" x2="199.600000" y2="428.000000"  style="stroke:black; stroke-linecap:round; stroke-width:0.25;"/>
<line x1="155.600000" y1="174.000000" x2="159.600000" y2="174.000000"  style="stroke:black; stroke-linecap:round; stroke-width:0.25;"/>
<line x1="155.600000" y1="328.000000" x2="159.600000" y2="328.000000"  style="stroke:black; stroke-linecap:round; stroke-width:0.25;"/>
<line x1="159.600000" y1="174.000000" x2="167.600000" y2="174.000000"  style="stroke:black; stroke-linecap:round; stroke-width:0.25;"/>
<line x1="159.600000" y1="194.000000" x2="167.600000" y2="194.000000"  style="stroke:black; stroke-linecap:round; stroke-width:0.25;"/>
<line x1="159.600000" y1="248.000000" x2="159.600000" y2="194.000000"  style="stroke:black; stroke-linecap:round; stroke-width:0.25;"/>
<line x1="159.600000" y1="248.000000" x2="159.600000" y2="248.000000"  style="stroke:black; stroke-linecap:round; stroke-width:0.25;"/>
<line x1="159.600000" y1="328.000000" x2="167.600000" y2="328.000000"  style="stroke:black; stroke-linecap:round; stroke-width:0.25;"/>
<line x1="159.600000" y1="358.000000" x2="167.600000" y2="358.000000"  style="stroke:black; stroke-linecap:round; stroke-width:0.25;"/>
<line x1="159.600000" y1="386.000000" x2="159.600000" y2="358.000000"  style="stroke:black; stroke-linecap:round; stroke-width:0.25;"/>
<line x1="159.600000" y1="386.000000" x2="159.600000" y2="386.000000"  style="stroke:black; stroke-linecap:round; stroke-width:0.25;"/>
<line x1="161.800000" y1="52.000000" x2="165.800000" y2="52.000000"  style="stroke:black; stroke-linecap:round; stroke-width:0.25;"/>
<line x1="161.800000" y1="280.000000" x2="165.800000" y2="280.000000"  style="stroke:black; stroke-linecap:round; stroke-width:0.25;"/>
<line x1="165.800000" y1="52.000000" x2="239.600000" y2="52.000000"  style="stroke:black; stroke-linecap:round; stroke-width:0.25;"/>
<line x1="165.800000" y1="280.000000" x2="239.600000" y2="280.000000"  style="stroke:black; stroke-linecap:round; stroke-width:0.25;"/>
<line x1="167.600000" y1="174.000000" x2="167.600000" y2="186.000000"  style="stroke:black; stroke-linecap:round; stroke-width:0.25;"/>
<line x1="167.600000" y1="186.000000" x2="167.600000" y2="186.000000"  style="stroke:black; stroke-linecap:round; stroke-width:0.25;"/>
<line x1="167.600000" y1="186.000000" x2="171.600000" y2="186.000000"  style="stroke:black; stroke-linecap:round; stroke-width:0.25;"/>
<line x1="167.600000" y1="194.000000" x2="171.600000" y2="194.000000"  style="stroke:black; stroke-linecap:round; stroke-width:0.25;"/>
<line x1="167.600000" y1="328.000000" x2="167.600000" y2="350.000000"  style="stroke:black; stroke-linecap:round; stroke-width:0.25;"/>
<line x1="167.600000" y1="350.000000" x2="167.600000" y2="350.000000"  style="stroke:black; stroke-linecap:round; stroke-width:0.25;"/>
<line x1="167.600000" y1="350.000000" x2="171.600000" y2="350.000000"  style="stroke:black; stroke-linecap:round; stroke-width:0.25;"/>
<line x1="167.600000" y1="358.000000" x2="171.600000" y2="358.000000"  style="stroke:black; stroke-linecap:round; stroke-width:0.25;"/>
<line x1="195.600000" y1="190.000000" x2="199.600000" y2="190.000000"  style="stroke:black; stroke-linecap:round; stroke-width:0.25;"/>
<line x1="195.600000" y1="354.000000" x2="199.600000" y2="354.000000"  style="stroke:black; stroke-linecap:round; stroke-width:0.25;"/>
<line x1="199.600000" y1="100.000000" x2="207.600000" y2="100.000000"  style="stroke:black; stroke-linecap:round; stroke-width:0.25;"/>
<line x1="199.600000" y1="178.000000" x2="207.600000" y2="178.000000"  style="stroke:black; stroke-linecap:round; stroke-width:0.25;"/>
<line x1="199.600000" y1="190.000000" x2="199.600000" y2="178.000000"  style="stroke:black; stroke-linecap:round; stroke-width:0.25;"/>
<line x1="199.600000" y1="190.000000" x2="199.600000" y2="190.000000"  style="stroke:black; stroke-linecap:round; stroke-width:0.25;"/>
<line x1="199.600000" y1="354.000000" x2="207.600000" y2="354.000000"  style="stroke:black; stroke-linecap:round; stroke-width:0.25;"/>
<line x1="199.600000" y1="374.000000" x2="207.600000" y2="374.000000"  style="stroke:black; stroke-linecap:round; stroke-width:0.25;"/>
<line x1="199.600000" y1="428.000000" x2="199.600000" y2="374.000000"  style="stroke:black; stroke-linecap:round; stroke-width:0.25;"/>
<line x1="199.600000" y1="428.000000" x2="199.600000" y2="428.000000"  style="stroke:black; stroke-linecap:round; stroke-width:0.25;"/>
<line x1="207.600000" y1="100.000000" x2="207.600000" y2="170.000000"  style="stroke:black; stroke-linecap:round; stroke-width:0.25;"/>
<line x1="207.600000" y1="170.000000" x2="207.600000" y2="170.000000"  style="stroke:black; stroke-linecap:round; stroke-width:0.25;"/>
<line x1="207.600000" y1="170.000000" x2="211.600000" y2="170.000000"  style="stroke:black; stroke-linecap:round; stroke-width:0.25;"/>
<line x1="207.600000" y1="178.000000" x2="211.600000" y2="178.000000"  style="stroke:black; stroke-linecap:round; stroke-width:0.25;"/>
<line x1="207.600000" y1="354.000000" x2="207.600000" y2="366.000000"  style="stroke:black; stroke-linecap:round; stroke-width:0.25;"/>
<line x1="207.600000" y1="366.000000" x2="207.600000" y2="366.000000"  style="stroke:black; stroke-linecap:round; stroke-width:0.25;"/>
<line x1="207.600000" y1="366.000000" x2="211.600000" y2="366.000000"  style="stroke:black; stroke-linecap:round; stroke-width:0.25;"/>
<line x1="207.600000" y1="374.000000" x2="211.600000" y2="374.000000"  style="stroke:black; stroke-linecap:round; stroke-width:0.25;"/>
<line x1="235.600000" y1="174.000000" x2="239.600000" y2="174.000000"  style="stroke:black; stroke-linecap:round; stroke-width:0.25;"/>
<line x1="235.600000" y1="370.000000" x2="239.600000" y2="370.000000"  style="stroke:black; stroke-linecap:round; stroke-width:0.25;"/>
<line x1="239.600000" y1="146.000000" x2="247.600000" y2="146.000000"  style="stroke:black; stroke-linecap:round; stroke-width:0.25;"/>
<line x1="239.600000" y1="174.000000" x2="239.600000" y2="146.000000"  style="stroke:black; stroke-linecap:round; stroke-width:0.25;"/>
<line x1="239.600000" y1="174.000000" x2="239.600000" y2="174.000000"  style="stroke:black; stroke-linecap:round; stroke-width:0.25;"/>
<line x1="239.600000" y1="52.000000" x2="247.600000" y2="52.000000"  style="stroke:black; stroke-linecap:round; stroke-width:0.25;"/>
<line x1="239.600000" y1="280.000000" x2="279.600000" y2="280.000000"  style="stroke:black; stroke-linecap:round; stroke-width:0.25;"/>
<line x1="239.600000" y1="370.000000" x2="279.600000" y2="370.000000"  style="stroke:black; stroke-linecap:round; stroke-width:0.25;"/>
<line x1="247.600000" y1="138.000000" x2="251.600000" y2="138.000000"  style="stroke:black; stroke-linecap:round; stroke-width:0.25;"/>
<line x1="247.600000" y1="146.000000" x2="251.600000" y2="146.000000"  style="stroke:black; stroke-linecap:round; stroke-width:0.25;"/>
<line x1="247.600000" y1="52.000000" x2="247.600000" y2="138.000000"  style="stroke:black; stroke-linecap:round; stroke-width:0.25;"/>
<line x1="247.600000" y1="138.000000" x2="247.600000" y2="138.000000"  style="stroke:black; stroke-linecap:round; stroke-width:0.25;"/>
<line x1="275.600000" y1="142.000000" x2="279.600000" y2="142.000000"  style="stroke:black; stroke-linecap:round; stroke-width:0.25;"/>
<line x1="279.600000" y1="142.000000" x2="295.600000" y2="142.000000"  style="stroke:black; stroke-linecap:round; stroke-width:0.25;"/>
<line x1="279.600000" y1="232.000000" x2="295.600000" y2="232.000000"  style="stroke:black; stroke-linecap:round; stroke-width:0.25;"/>
<line x1="279.600000" y1="280.000000" x2="279.600000" y2="232.000000"  style="stroke:black; stroke-linecap:round; stroke-width:0.25;"/>
<line x1="279.600000" y1="280.000000" x2="279.600000" y2="280.000000"  style="stroke:black; stroke-linecap:round; stroke-width:0.25;"/>
<line x1="279.600000" y1="370.000000" x2="287.600000" y2="370.000000"  style="stroke:black; stroke-linecap:round; stroke-width:0.25;"/>
<line x1="287.600000" y1="240.000000" x2="295.600000" y2="240.000000"  style="stroke:black; stroke-linecap:round; stroke-width:0.25;"/>
<line x1="287.600000" y1="370.000000" x2="287.600000" y2="240.000000"  style="stroke:black; stroke-linecap:round; stroke-width:0.25;"/>
<line x1="295.600000" y1="142.000000" x2="295.600000" y2="224.000000"  style="stroke:black; stroke-linecap:round; stroke-width:0.25;"/>
<line x1="295.600000" y1="224.000000" x2="295.600000" y2="224.000000"  style="stroke:black; stroke-linecap:round; stroke-width:0.25;"/>
<line x1="295.600000" y1="224.000000" x2="299.600000" y2="224.000000"  style="stroke:black; stroke-linecap:round; stroke-width:0.25;"/>
<line x1="295.600000" y1="232.000000" x2="299.600000" y2="232.000000"  style="stroke:black; stroke-linecap:round; stroke-width:0.25;"/>
<line x1="295.600000" y1="240.000000" x2="299.600000" y2="240.000000"  style="stroke:black; stroke-linecap:round; stroke-width:0.25;"/>
<line x1="338.300000" y1="232.000000" x2="342.300000" y2="232.000000"  style="stroke:black; stroke-linecap:round; stroke-width:0.25;"/>
<line x1="342.300000" y1="232.000000" x2="342.300000" y2="232.000000"  style="stroke:black; stroke-linecap:round; stroke-width:0.25;"/>
<line x1="342.300000" y1="232.000000" x2="346.300000" y2="232.000000"  style="stroke:black; stroke-linecap:round; stroke-width:0.25;"/>
<line x1="346.300000" y1="232.000000" x2="350.300000" y2="232.000000"  style="stroke:black; stroke-linecap:round; stroke-width:0.25;"/>
<line x1="350.300000" y1="232.000000" x2="360.300000" y2="232.000000"  style="stroke:black; stroke-linecap:round; stroke-width:0.25;"/>
</svg>
