<?xml version="1.0"?>
<svg xmlns="http://www.w3.org/2000/svg" xmlns:xlink="http://www.w3.org/1999/xlink" viewBox="0 0 383.200000 424.000000" width="191.600000mm" height="212.000000mm" version="1.1">
<a xlink:href="ctrl-0x32b91df0.svg">
<rect x="1.000000" y="1.000000" width="382.200000" height="423.000000" rx="0" ry="0" style="stroke:none;fill:#cccccc;"/>
<rect x="0.000000" y="0.000000" width="382.200000" height="423.000000" rx="0" ry="0" style="stroke:none;fill:#ffffff;"/>
</a>
<text x="10.000000" y="7.000000" font-family="Arial" font-size="7"></text>
<rect x="105.250000" y="25.000000" width="24.000000" height="24.000000" rx="0" ry="0" style="stroke:none;fill:#cccccc;"/>
<rect x="104.250000" y="24.000000" width="24.000000" height="24.000000" rx="0" ry="0" style="stroke:none;fill:#47945E;"/>
<text x="116.250000" y="38.000000" font-family="Arial" font-size="7" text-anchor="middle" fill="#FFFFFF">ip</text>
<circle cx="106.250000" cy="26.000000" r="1"/>
<rect x="105.250000" y="57.000000" width="24.000000" height="24.000000" rx="0" ry="0" style="stroke:none;fill:#cccccc;"/>
<rect x="104.250000" y="56.000000" width="24.000000" height="24.000000" rx="0" ry="0" style="stroke:none;fill:#f44800;"/>
<text x="116.250000" y="70.000000" font-family="Arial" font-size="7" text-anchor="middle" fill="#FFFFFF">0</text>
<circle cx="106.250000" cy="58.000000" r="1"/>
<rect x="145.250000" y="41.000000" width="24.000000" height="24.000000" rx="0" ry="0" style="stroke:none;fill:#cccccc;"/>
<rect x="144.250000" y="40.000000" width="24.000000" height="24.000000" rx="0" ry="0" style="stroke:none;fill:#4B71A1;"/>
<text x="156.250000" y="54.000000" font-family="Arial" font-size="7" text-anchor="middle" fill="#FFFFFF">&lt;=</text>
<circle cx="146.250000" cy="42.000000" r="1"/>
<line x1="141.250000" y1="47.000000" x2="144.250000" y2="48.000000"  transform="rotate(0.000000,144.250000,48.000000)" style="stroke: black; stroke-width:0.25;"/>
<line x1="141.250000" y1="49.000000" x2="144.250000" y2="48.000000"  transform="rotate(0.000000,144.250000,48.000000)" style="stroke: black; stroke-width:0.25;"/>
<line x1="141.250000" y1="55.000000" x2="144.250000" y2="56.000000"  transform="rotate(0.000000,144.250000,56.000000)" style="stroke: black; stroke-width:0.25;"/>
<line x1="141.250000" y1="57.000000" x2="144.250000" y2="56.000000"  transform="rotate(0.000000,144.250000,56.000000)" style="stroke: black; stroke-width:0.25;"/>
<rect x="105.250000" y="89.000000" width="24.000000" height="24.000000" rx="0" ry="0" style="stroke:none;fill:#cccccc;"/>
<rect x="104.250000" y="88.000000" width="24.000000" height="24.000000" rx="0" ry="0" style="stroke:none;fill:#47945E;"/>
<text x="116.250000" y="102.000000" font-family="Arial" font-size="7" text-anchor="middle" fill="#FFFFFF">d0</text>
<circle cx="106.250000" cy="90.000000" r="1"/>
<a xlink:href="slowTotal-0x32e88320.svg">
<rect x="25.000000" y="121.000000" width="64.500000" height="24.000000" rx="0" ry="0" style="stroke:none;fill:#cccccc;"/>
<rect x="24.000000" y="120.000000" width="64.500000" height="24.000000" rx="0" ry="0" style="stroke:none;fill:#003366;"/>
</a>
<a xlink:href="slowTotal-0x32e88320.svg">
<text x="56.250000" y="134.000000" font-family="Arial" font-size="7" text-anchor="middle" fill="#FFFFFF">slowTotal(10)</text>
</a>
<circle cx="26.000000" cy="122.000000" r="1"/>
<a xlink:href="fastTotal-0x32efa930.svg">
<rect x="25.000000" y="153.000000" width="64.500000" height="24.000000" rx="0" ry="0" style="stroke:none;fill:#cccccc;"/>
<rect x="24.000000" y="152.000000" width="64.500000" height="24.000000" rx="0" ry="0" style="stroke:none;fill:#003366;"/>
</a>
<a xlink:href="fastTotal-0x32efa930.svg">
<text x="56.250000" y="166.000000" font-family="Arial" font-size="7" text-anchor="middle" fill="#FFFFFF">fastTotal(11)</text>
</a>
<circle cx="26.000000" cy="154.000000" r="1"/>
<rect x="105.500000" y="137.000000" width="24.000000" height="24.000000" rx="0" ry="0" style="stroke:none;fill:#cccccc;"/>
<rect x="104.500000" y="136.000000" width="24.000000" height="24.000000" rx="0" ry="0" style="stroke:none;fill:#4B71A1;"/>
<text x="116.500000" y="150.000000" font-family="Arial" font-size="7" text-anchor="middle" fill="#FFFFFF">+</text>
<circle cx="106.500000" cy="138.000000" r="1"/>
<line x1="101.500000" y1="143.000000" x2="104.500000" y2="144.000000"  transform="rotate(0.000000,104.500000,144.000000)" style="stroke: black; stroke-width:0.25;"/>
<line x1="101.500000" y1="145.000000" x2="104.500000" y2="144.000000"  transform="rotate(0.000000,104.500000,144.000000)" style="stroke: black; stroke-width:0.25;"/>
<line x1="101.500000" y1="151.000000" x2="104.500000" y2="152.000000"  transform="rotate(0.000000,104.500000,152.000000)" style="stroke: black; stroke-width:0.25;"/>
<line x1="101.500000" y1="153.000000" x2="104.500000" y2="152.000000"  transform="rotate(0.000000,104.500000,152.000000)" style="stroke: black; stroke-width:0.25;"/>
<rect x="65.250000" y="185.000000" width="24.000000" height="24.000000" rx="0" ry="0" style="stroke:none;fill:#cccccc;"/>
<rect x="64.250000" y="184.000000" width="24.000000" height="24.000000" rx="0" ry="0" style="stroke:none;fill:#f44800;"/>
<text x="76.250000" y="198.000000" font-family="Arial" font-size="7" text-anchor="middle" fill="#FFFFFF">10</text>
<circle cx="66.250000" cy="186.000000" r="1"/>
<rect x="145.500000" y="153.000000" width="24.000000" height="24.000000" rx="0" ry="0" style="stroke:none;fill:#cccccc;"/>
<rect x="144.500000" y="152.000000" width="24.000000" height="24.000000" rx="0" ry="0" style="stroke:none;fill:#4B71A1;"/>
<text x="156.500000" y="166.000000" font-family="Arial" font-size="7" text-anchor="middle" fill="#FFFFFF">+</text>
<circle cx="146.500000" cy="154.000000" r="1"/>
<line x1="141.500000" y1="159.000000" x2="144.500000" y2="160.000000"  transform="rotate(0.000000,144.500000,160.000000)" style="stroke: black; stroke-width:0.25;"/>
<line x1="141.500000" y1="161.000000" x2="144.500000" y2="160.000000"  transform="rotate(0.000000,144.500000,160.000000)" style="stroke: black; stroke-width:0.25;"/>
<line x1="141.500000" y1="167.000000" x2="144.500000" y2="168.000000"  transform="rotate(0.000000,144.500000,168.000000)" style="stroke: black; stroke-width:0.25;"/>
<line x1="141.500000" y1="169.000000" x2="144.500000" y2="168.000000"  transform="rotate(0.000000,144.500000,168.000000)" style="stroke: black; stroke-width:0.25;"/>
<a xlink:href="ms-0x21d9ad0.svg">
<rect x="85.250000" y="217.000000" width="24.000000" height="24.000000" rx="0" ry="0" style="stroke:none;fill:#cccccc;"/>
<rect x="84.250000" y="216.000000" width="24.000000" height="24.000000" rx="0" ry="0" style="stroke:none;fill:#003366;"/>
</a>
<a xlink:href="ms-0x21d9ad0.svg">
<text x="96.250000" y="230.000000" font-family="Arial" font-size="7" text-anchor="middle" fill="#FFFFFF">ms</text>
</a>
<circle cx="86.250000" cy="218.000000" r="1"/>
<rect x="185.500000" y="169.000000" width="24.000000" height="24.000000" rx="0" ry="0" style="stroke:none;fill:#cccccc;"/>
<rect x="184.500000" y="168.000000" width="24.000000" height="24.000000" rx="0" ry="0" style="stroke:none;fill:#4B71A1;"/>
<text x="196.500000" y="182.000000" font-family="Arial" font-size="7" text-anchor="middle" fill="#FFFFFF">*</text>
<circle cx="186.500000" cy="170.000000" r="1"/>
<line x1="181.500000" y1="175.000000" x2="184.500000" y2="176.000000"  transform="rotate(0.000000,184.500000,176.000000)" style="stroke: black; stroke-width:0.25;"/>
<line x1="181.500000" y1="177.000000" x2="184.500000" y2="176.000000"  transform="rotate(0.000000,184.500000,176.000000)" style="stroke: black; stroke-width:0.25;"/>
<line x1="181.500000" y1="183.000000" x2="184.500000" y2="184.000000"  transform="rotate(0.000000,184.500000,184.000000)" style="stroke: black; stroke-width:0.25;"/>
<line x1="181.500000" y1="185.000000" x2="184.500000" y2="184.000000"  transform="rotate(0.000000,184.500000,184.000000)" style="stroke: black; stroke-width:0.25;"/>
<rect x="225.500000" y="153.000000" width="24.000000" height="24.000000" rx="0" ry="0" style="stroke:none;fill:#cccccc;"/>
<rect x="224.500000" y="152.000000" width="24.000000" height="24.000000" rx="0" ry="0" style="stroke:none;fill:#4B71A1;"/>
<text x="236.500000" y="166.000000" font-family="Arial" font-size="7" text-anchor="middle" fill="#FFFFFF">!=</text>
<circle cx="226.500000" cy="154.000000" r="1"/>
<line x1="221.500000" y1="159.000000" x2="224.500000" y2="160.000000"  transform="rotate(0.000000,224.500000,160.000000)" style="stroke: black; stroke-width:0.25;"/>
<line x1="221.500000" y1="161.000000" x2="224.500000" y2="160.000000"  transform="rotate(0.000000,224.500000,160.000000)" style="stroke: black; stroke-width:0.25;"/>
<line x1="221.500000" y1="167.000000" x2="224.500000" y2="168.000000"  transform="rotate(0.000000,224.500000,168.000000)" style="stroke: black; stroke-width:0.25;"/>
<line x1="221.500000" y1="169.000000" x2="224.500000" y2="168.000000"  transform="rotate(0.000000,224.500000,168.000000)" style="stroke: black; stroke-width:0.25;"/>
<rect x="265.500000" y="121.000000" width="24.000000" height="24.000000" rx="0" ry="0" style="stroke:none;fill:#cccccc;"/>
<rect x="264.500000" y="120.000000" width="24.000000" height="24.000000" rx="0" ry="0" style="stroke:none;fill:#4B71A1;"/>
<text x="276.500000" y="134.000000" font-family="Arial" font-size="7" text-anchor="middle" fill="#FFFFFF">&amp;</text>
<circle cx="266.500000" cy="122.000000" r="1"/>
<line x1="261.500000" y1="127.000000" x2="264.500000" y2="128.000000"  transform="rotate(0.000000,264.500000,128.000000)" style="stroke: black; stroke-width:0.25;"/>
<line x1="261.500000" y1="129.000000" x2="264.500000" y2="128.000000"  transform="rotate(0.000000,264.500000,128.000000)" style="stroke: black; stroke-width:0.25;"/>
<line x1="261.500000" y1="135.000000" x2="264.500000" y2="136.000000"  transform="rotate(0.000000,264.500000,136.000000)" style="stroke: black; stroke-width:0.25;"/>
<line x1="261.500000" y1="137.000000" x2="264.500000" y2="136.000000"  transform="rotate(0.000000,264.500000,136.000000)" style="stroke: black; stroke-width:0.25;"/>
<rect x="145.250000" y="249.000000" width="24.000000" height="24.000000" rx="0" ry="0" style="stroke:none;fill:#cccccc;"/>
<rect x="144.250000" y="248.000000" width="24.000000" height="24.000000" rx="0" ry="0" style="stroke:none;fill:#47945E;"/>
<text x="156.250000" y="262.000000" font-family="Arial" font-size="7" text-anchor="middle" fill="#FFFFFF">d1</text>
<circle cx="146.250000" cy="250.000000" r="1"/>
<a xlink:href="slowTotal-0x32e88320.svg">
<rect x="65.000000" y="281.000000" width="64.500000" height="24.000000" rx="0" ry="0" style="stroke:none;fill:#cccccc;"/>
<rect x="64.000000" y="280.000000" width="64.500000" height="24.000000" rx="0" ry="0" style="stroke:none;fill:#003366;"/>
</a>
<a xlink:href="slowTotal-0x32e88320.svg">
<text x="96.250000" y="294.000000" font-family="Arial" font-size="7" text-anchor="middle" fill="#FFFFFF">slowTotal(10)</text>
</a>
<circle cx="66.000000" cy="282.000000" r="1"/>
<a xlink:href="fastTotal-0x32efa930.svg">
<rect x="65.000000" y="313.000000" width="64.500000" height="24.000000" rx="0" ry="0" style="stroke:none;fill:#cccccc;"/>
<rect x="64.000000" y="312.000000" width="64.500000" height="24.000000" rx="0" ry="0" style="stroke:none;fill:#003366;"/>
</a>
<a xlink:href="fastTotal-0x32efa930.svg">
<text x="96.250000" y="326.000000" font-family="Arial" font-size="7" text-anchor="middle" fill="#FFFFFF">fastTotal(11)</text>
</a>
<circle cx="66.000000" cy="314.000000" r="1"/>
<rect x="145.500000" y="297.000000" width="24.000000" height="24.000000" rx="0" ry="0" style="stroke:none;fill:#cccccc;"/>
<rect x="144.500000" y="296.000000" width="24.000000" height="24.000000" rx="0" ry="0" style="stroke:none;fill:#4B71A1;"/>
<text x="156.500000" y="310.000000" font-family="Arial" font-size="7" text-anchor="middle" fill="#FFFFFF">+</text>
<circle cx="146.500000" cy="298.000000" r="1"/>
<line x1="141.500000" y1="303.000000" x2="144.500000" y2="304.000000"  transform="rotate(0.000000,144.500000,304.000000)" style="stroke: black; stroke-width:0.25;"/>
<line x1="141.500000" y1="305.000000" x2="144.500000" y2="304.000000"  transform="rotate(0.000000,144.500000,304.000000)" style="stroke: black; stroke-width:0.25;"/>
<line x1="141.500000" y1="311.000000" x2="144.500000" y2="312.000000"  transform="rotate(0.000000,144.500000,312.000000)" style="stroke: black; stroke-width:0.25;"/>
<line x1="141.500000" y1="313.000000" x2="144.500000" y2="312.000000"  transform="rotate(0.000000,144.500000,312.000000)" style="stroke: black; stroke-width:0.25;"/>
<rect x="105.250000" y="345.000000" width="24.000000" height="24.000000" rx="0" ry="0" style="stroke:none;fill:#cccccc;"/>
<rect x="104.250000" y="344.000000" width="24.000000" height="24.000000" rx="0" ry="0" style="stroke:none;fill:#f44800;"/>
<text x="116.250000" y="358.000000" font-family="Arial" font-size="7" text-anchor="middle" fill="#FFFFFF">10</text>
<circle cx="106.250000" cy="346.000000" r="1"/>
<rect x="185.500000" y="313.000000" width="24.000000" height="24.000000" rx="0" ry="0" style="stroke:none;fill:#cccccc;"/>
<rect x="184.500000" y="312.000000" width="24.000000" height="24.000000" rx="0" ry="0" style="stroke:none;fill:#4B71A1;"/>
<text x="196.500000" y="326.000000" font-family="Arial" font-size="7" text-anchor="middle" fill="#FFFFFF">+</text>
<circle cx="186.500000" cy="314.000000" r="1"/>
<line x1="181.500000" y1="319.000000" x2="184.500000" y2="320.000000"  transform="rotate(0.000000,184.500000,320.000000)" style="stroke: black; stroke-width:0.25;"/>
<line x1="181.500000" y1="321.000000" x2="184.500000" y2="320.000000"  transform="rotate(0.000000,184.500000,320.000000)" style="stroke: black; stroke-width:0.25;"/>
<line x1="181.500000" y1="327.000000" x2="184.500000" y2="328.000000"  transform="rotate(0.000000,184.500000,328.000000)" style="stroke: black; stroke-width:0.25;"/>
<line x1="181.500000" y1="329.000000" x2="184.500000" y2="328.000000"  transform="rotate(0.000000,184.500000,328.000000)" style="stroke: black; stroke-width:0.25;"/>
<a xlink:href="ms-0x21d9ad0.svg">
<rect x="125.250000" y="377.000000" width="24.000000" height="24.000000" rx="0" ry="0" style="stroke:none;fill:#cccccc;"/>
<rect x="124.250000" y="376.000000" width="24.000000" height="24.000000" rx="0" ry="0" style="stroke:none;fill:#003366;"/>
</a>
<a xlink:href="ms-0x21d9ad0.svg">
<text x="136.250000" y="390.000000" font-family="Arial" font-size="7" text-anchor="middle" fill="#FFFFFF">ms</text>
</a>
<circle cx="126.250000" cy="378.000000" r="1"/>
<rect x="225.500000" y="329.000000" width="24.000000" height="24.000000" rx="0" ry="0" style="stroke:none;fill:#cccccc;"/>
<rect x="224.500000" y="328.000000" width="24.000000" height="24.000000" rx="0" ry="0" style="stroke:none;fill:#4B71A1;"/>
<text x="236.500000" y="342.000000" font-family="Arial" font-size="7" text-anchor="middle" fill="#FFFFFF">*</text>
<circle cx="226.500000" cy="330.000000" r="1"/>
<line x1="221.500000" y1="335.000000" x2="224.500000" y2="336.000000"  transform="rotate(0.000000,224.500000,336.000000)" style="stroke: black; stroke-width:0.25;"/>
<line x1="221.500000" y1="337.000000" x2="224.500000" y2="336.000000"  transform="rotate(0.000000,224.500000,336.000000)" style="stroke: black; stroke-width:0.25;"/>
<line x1="221.500000" y1="343.000000" x2="224.500000" y2="344.000000"  transform="rotate(0.000000,224.500000,344.000000)" style="stroke: black; stroke-width:0.25;"/>
<line x1="221.500000" y1="345.000000" x2="224.500000" y2="344.000000"  transform="rotate(0.000000,224.500000,344.000000)" style="stroke: black; stroke-width:0.25;"/>
<rect x="313.500000" y="201.000000" width="38.700000" height="24.000000" rx="0" ry="0" style="stroke:none;fill:#cccccc;"/>
<rect x="312.500000" y="200.000000" width="38.700000" height="24.000000" rx="0" ry="0" style="stroke:none;fill:#4B71A1;"/>
<text x="331.850000" y="214.000000" font-family="Arial" font-size="7" text-anchor="middle" fill="#FFFFFF">select2</text>
<circle cx="314.500000" cy="202.000000" r="1"/>
<line x1="309.500000" y1="203.000000" x2="312.500000" y2="204.000000"  transform="rotate(0.000000,312.500000,204.000000)" style="stroke: black; stroke-width:0.25;"/>
<line x1="309.500000" y1="205.000000" x2="312.500000" y2="204.000000"  transform="rotate(0.000000,312.500000,204.000000)" style="stroke: black; stroke-width:0.25;"/>
<line x1="309.500000" y1="211.000000" x2="312.500000" y2="212.000000"  transform="rotate(0.000000,312.500000,212.000000)" style="stroke: black; stroke-width:0.25;"/>
<line x1="309.500000" y1="213.000000" x2="312.500000" y2="212.000000"  transform="rotate(0.000000,312.500000,212.000000)" style="stroke: black; stroke-width:0.25;"/>
<line x1="309.500000" y1="219.000000" x2="312.500000" y2="220.000000"  transform="rotate(0.000000,312.500000,220.000000)" style="stroke: black; stroke-width:0.25;"/>
<line x1="309.500000" y1="221.000000" x2="312.500000" y2="220.000000"  transform="rotate(0.000000,312.500000,220.000000)" style="stroke: black; stroke-width:0.25;"/>
<line x1="15.000000" y1="15.000000" x2="15.000000" y2="409.000000"  style="stroke: black; stroke-linecap:round; stroke-width:0.25; stroke-dasharray:3,3;"/>
<line x1="15.000000" y1="409.000000" x2="368.200000" y2="409.000000"  style="stroke: black; stroke-linecap:round; stroke-width:0.25; stroke-dasharray:3,3;"/>
<line x1="368.200000" y1="409.000000" x2="368.200000" y2="15.000000"  style="stroke: black; stroke-linecap:round; stroke-width:0.25; stroke-dasharray:3,3;"/>
<line x1="15.000000" y1="15.000000" x2="20.000000" y2="15.000000"  style="stroke: black; stroke-linecap:round; stroke-width:0.25; stroke-dasharray:3,3;"/>
<line x1="36.125000" y1="15.000000" x2="368.200000" y2="15.000000"  style="stroke: black; stroke-linecap:round; stroke-width:0.25; stroke-dasharray:3,3;"/>
<text x="20.000000" y="17.000000" font-family="Arial" font-size="7">nd1</text>
<line x1="370.200000" y1="211.000000" x2="373.200000" y2="212.000000"  transform="rotate(0.000000,373.200000,212.000000)" style="stroke: black; stroke-width:0.25;"/>
<line x1="370.200000" y1="213.000000" x2="373.200000" y2="212.000000"  transform="rotate(0.000000,373.200000,212.000000)" style="stroke: black; stroke-width:0.25;"/>
<line x1="88.250000" y1="196.000000" x2="92.250000" y2="196.000000"  style="stroke:black; stroke-linecap:round; stroke-width:0.25;"/>
<line x1="88.500000" y1="132.000000" x2="92.500000" y2="132.000000"  style="stroke:black; stroke-linecap:round; stroke-width:0.25;"/>
<line x1="88.500000" y1="164.000000" x2="92.500000" y2="164.000000"  style="stroke:black; stroke-linecap:round; stroke-width:0.25;"/>
<line x1="92.250000" y1="196.000000" x2="132.500000" y2="196.000000"  style="stroke:black; stroke-linecap:round; stroke-width:0.25;"/>
<line x1="92.500000" y1="132.000000" x2="100.500000" y2="132.000000"  style="stroke:black; stroke-linecap:round; stroke-width:0.25;"/>
<line x1="92.500000" y1="152.000000" x2="100.500000" y2="152.000000"  style="stroke:black; stroke-linecap:round; stroke-width:0.25;"/>
<line x1="92.500000" y1="164.000000" x2="92.500000" y2="152.000000"  style="stroke:black; stroke-linecap:round; stroke-width:0.25;"/>
<line x1="92.500000" y1="164.000000" x2="92.500000" y2="164.000000"  style="stroke:black; stroke-linecap:round; stroke-width:0.25;"/>
<line x1="100.500000" y1="132.000000" x2="100.500000" y2="144.000000"  style="stroke:black; stroke-linecap:round; stroke-width:0.25;"/>
<line x1="100.500000" y1="144.000000" x2="100.500000" y2="144.000000"  style="stroke:black; stroke-linecap:round; stroke-width:0.25;"/>
<line x1="100.500000" y1="144.000000" x2="104.500000" y2="144.000000"  style="stroke:black; stroke-linecap:round; stroke-width:0.25;"/>
<line x1="100.500000" y1="152.000000" x2="104.500000" y2="152.000000"  style="stroke:black; stroke-linecap:round; stroke-width:0.25;"/>
<line x1="108.250000" y1="228.000000" x2="112.250000" y2="228.000000"  style="stroke:black; stroke-linecap:round; stroke-width:0.25;"/>
<line x1="112.250000" y1="228.000000" x2="172.500000" y2="228.000000"  style="stroke:black; stroke-linecap:round; stroke-width:0.25;"/>
<line x1="128.250000" y1="36.000000" x2="132.250000" y2="36.000000"  style="stroke:black; stroke-linecap:round; stroke-width:0.25;"/>
<line x1="128.250000" y1="68.000000" x2="132.250000" y2="68.000000"  style="stroke:black; stroke-linecap:round; stroke-width:0.25;"/>
<line x1="128.250000" y1="100.000000" x2="132.250000" y2="100.000000"  style="stroke:black; stroke-linecap:round; stroke-width:0.25;"/>
<line x1="128.250000" y1="356.000000" x2="132.250000" y2="356.000000"  style="stroke:black; stroke-linecap:round; stroke-width:0.25;"/>
<line x1="128.500000" y1="148.000000" x2="132.500000" y2="148.000000"  style="stroke:black; stroke-linecap:round; stroke-width:0.25;"/>
<line x1="128.500000" y1="292.000000" x2="132.500000" y2="292.000000"  style="stroke:black; stroke-linecap:round; stroke-width:0.25;"/>
<line x1="128.500000" y1="324.000000" x2="132.500000" y2="324.000000"  style="stroke:black; stroke-linecap:round; stroke-width:0.25;"/>
<line x1="132.250000" y1="36.000000" x2="140.250000" y2="36.000000"  style="stroke:black; stroke-linecap:round; stroke-width:0.25;"/>
<line x1="132.250000" y1="56.000000" x2="140.250000" y2="56.000000"  style="stroke:black; stroke-linecap:round; stroke-width:0.25;"/>
<line x1="132.250000" y1="68.000000" x2="132.250000" y2="56.000000"  style="stroke:black; stroke-linecap:round; stroke-width:0.25;"/>
<line x1="132.250000" y1="68.000000" x2="132.250000" y2="68.000000"  style="stroke:black; stroke-linecap:round; stroke-width:0.25;"/>
<line x1="132.250000" y1="100.000000" x2="212.500000" y2="100.000000"  style="stroke:black; stroke-linecap:round; stroke-width:0.25;"/>
<line x1="132.250000" y1="356.000000" x2="172.500000" y2="356.000000"  style="stroke:black; stroke-linecap:round; stroke-width:0.25;"/>
<line x1="132.500000" y1="148.000000" x2="140.500000" y2="148.000000"  style="stroke:black; stroke-linecap:round; stroke-width:0.25;"/>
<line x1="132.500000" y1="168.000000" x2="140.500000" y2="168.000000"  style="stroke:black; stroke-linecap:round; stroke-width:0.25;"/>
<line x1="132.500000" y1="196.000000" x2="132.500000" y2="168.000000"  style="stroke:black; stroke-linecap:round; stroke-width:0.25;"/>
<line x1="132.500000" y1="196.000000" x2="132.500000" y2="196.000000"  style="stroke:black; stroke-linecap:round; stroke-width:0.25;"/>
<line x1="132.500000" y1="292.000000" x2="140.500000" y2="292.000000"  style="stroke:black; stroke-linecap:round; stroke-width:0.25;"/>
<line x1="132.500000" y1="312.000000" x2="140.500000" y2="312.000000"  style="stroke:black; stroke-linecap:round; stroke-width:0.25;"/>
<line x1="132.500000" y1="324.000000" x2="132.500000" y2="312.000000"  style="stroke:black; stroke-linecap:round; stroke-width:0.25;"/>
<line x1="132.500000" y1="324.000000" x2="132.500000" y2="324.000000"  style="stroke:black; stroke-linecap:round; stroke-width:0.25;"/>
<line x1="140.250000" y1="36.000000" x2="140.250000" y2="48.000000"  style="stroke:black; stroke-linecap:round; stroke-width:0.25;"/>
<line x1="140.250000" y1="48.000000" x2="140.250000" y2="48.000000"  style="stroke:black; stroke-linecap:round; stroke-width:0.25;"/>
<line x1="140.250000" y1="48.000000" x2="144.250000" y2="48.000000"  style="stroke:black; stroke-linecap:round; stroke-width:0.25;"/>
<line x1="140.250000" y1="56.000000" x2="144.250000" y2="56.000000"  style="stroke:black; stroke-linecap:round; stroke-width:0.25;"/>
<line x1="140.500000" y1="148.000000" x2="140.500000" y2="160.000000"  style="stroke:black; stroke-linecap:round; stroke-width:0.25;"/>
<line x1="140.500000" y1="160.000000" x2="140.500000" y2="160.000000"  style="stroke:black; stroke-linecap:round; stroke-width:0.25;"/>
<line x1="140.500000" y1="160.000000" x2="144.500000" y2="160.000000"  style="stroke:black; stroke-linecap:round; stroke-width:0.25;"/>
<line x1="140.500000" y1="168.000000" x2="144.500000" y2="168.000000"  style="stroke:black; stroke-linecap:round; stroke-width:0.25;"/>
<line x1="140.500000" y1="292.000000" x2="140.500000" y2="304.000000"  style="stroke:black; stroke-linecap:round; stroke-width:0.25;"/>
<line x1="140.500000" y1="304.000000" x2="140.500000" y2="304.000000"  style="stroke:black; stroke-linecap:round; stroke-width:0.25;"/>
<line x1="140.500000" y1="304.000000" x2="144.500000" y2="304.000000"  style="stroke:black; stroke-linecap:round; stroke-width:0.25;"/>
<line x1="140.500000" y1="312.000000" x2="144.500000" y2="312.000000"  style="stroke:black; stroke-linecap:round; stroke-width:0.25;"/>
<line x1="148.250000" y1="388.000000" x2="152.250000" y2="388.000000"  style="stroke:black; stroke-linecap:round; stroke-width:0.25;"/>
<line x1="152.250000" y1="388.000000" x2="212.500000" y2="388.000000"  style="stroke:black; stroke-linecap:round; stroke-width:0.25;"/>
<line x1="168.250000" y1="52.000000" x2="172.250000" y2="52.000000"  style="stroke:black; stroke-linecap:round; stroke-width:0.25;"/>
<line x1="168.250000" y1="260.000000" x2="172.250000" y2="260.000000"  style="stroke:black; stroke-linecap:round; stroke-width:0.25;"/>
<line x1="168.500000" y1="164.000000" x2="172.500000" y2="164.000000"  style="stroke:black; stroke-linecap:round; stroke-width:0.25;"/>
<line x1="168.500000" y1="308.000000" x2="172.500000" y2="308.000000"  style="stroke:black; stroke-linecap:round; stroke-width:0.25;"/>
<line x1="172.250000" y1="52.000000" x2="252.500000" y2="52.000000"  style="stroke:black; stroke-linecap:round; stroke-width:0.25;"/>
<line x1="172.250000" y1="260.000000" x2="252.500000" y2="260.000000"  style="stroke:black; stroke-linecap:round; stroke-width:0.25;"/>
<line x1="172.500000" y1="164.000000" x2="180.500000" y2="164.000000"  style="stroke:black; stroke-linecap:round; stroke-width:0.25;"/>
<line x1="172.500000" y1="184.000000" x2="180.500000" y2="184.000000"  style="stroke:black; stroke-linecap:round; stroke-width:0.25;"/>
<line x1="172.500000" y1="228.000000" x2="172.500000" y2="184.000000"  style="stroke:black; stroke-linecap:round; stroke-width:0.25;"/>
<line x1="172.500000" y1="228.000000" x2="172.500000" y2="228.000000"  style="stroke:black; stroke-linecap:round; stroke-width:0.25;"/>
<line x1="172.500000" y1="308.000000" x2="180.500000" y2="308.000000"  style="stroke:black; stroke-linecap:round; stroke-width:0.25;"/>
<line x1="172.500000" y1="328.000000" x2="180.500000" y2="328.000000"  style="stroke:black; stroke-linecap:round; stroke-width:0.25;"/>
<line x1="172.500000" y1="356.000000" x2="172.500000" y2="328.000000"  style="stroke:black; stroke-linecap:round; stroke-width:0.25;"/>
<line x1="172.500000" y1="356.000000" x2="172.500000" y2="356.000000"  style="stroke:black; stroke-linecap:round; stroke-width:0.25;"/>
<line x1="180.500000" y1="164.000000" x2="180.500000" y2="176.000000"  style="stroke:black; stroke-linecap:round; stroke-width:0.25;"/>
<line x1="180.500000" y1="176.000000" x2="180.500000" y2="176.000000"  style="stroke:black; stroke-linecap:round; stroke-width:0.25;"/>
<line x1="180.500000" y1="176.000000" x2="184.500000" y2="176.000000"  style="stroke:black; stroke-linecap:round; stroke-width:0.25;"/>
<line x1="180.500000" y1="184.000000" x2="184.500000" y2="184.000000"  style="stroke:black; stroke-linecap:round; stroke-width:0.25;"/>
<line x1="180.500000" y1="308.000000" x2="180.500000" y2="320.000000"  style="stroke:black; stroke-linecap:round; stroke-width:0.25;"/>
<line x1="180.500000" y1="320.000000" x2="180.500000" y2="320.000000"  style="stroke:black; stroke-linecap:round; stroke-width:0.25;"/>
<line x1="180.500000" y1="320.000000" x2="184.500000" y2="320.000000"  style="stroke:black; stroke-linecap:round; stroke-width:0.25;"/>
<line x1="180.500000" y1="328.000000" x2="184.500000" y2="328.000000"  style="stroke:black; stroke-linecap:round; stroke-width:0.25;"/>
<line x1="208.500000" y1="180.000000" x2="212.500000" y2="180.000000"  style="stroke:black; stroke-linecap:round; stroke-width:0.25;"/>
<line x1="208.500000" y1="324.000000" x2="212.500000" y2="324.000000"  style="stroke:black; stroke-linecap:round; stroke-width:0.25;"/>
<line x1="212.500000" y1="100.000000" x2="220.500000" y2="100.000000"  style="stroke:black; stroke-linecap:round; stroke-width:0.25;"/>
<line x1="212.500000" y1="168.000000" x2="220.500000" y2="168.000000"  style="stroke:black; stroke-linecap:round; stroke-width:0.25;"/>
<line x1="212.500000" y1="180.000000" x2="212.500000" y2="168.000000"  style="stroke:black; stroke-linecap:round; stroke-width:0.25;"/>
<line x1="212.500000" y1="180.000000" x2="212.500000" y2="180.000000"  style="stroke:black; stroke-linecap:round; stroke-width:0.25;"/>
<line x1="212.500000" y1="324.000000" x2="220.500000" y2="324.000000"  style="stroke:black; stroke-linecap:round; stroke-width:0.25;"/>
<line x1="212.500000" y1="344.000000" x2="220.500000" y2="344.000000"  style="stroke:black; stroke-linecap:round; stroke-width:0.25;"/>
<line x1="212.500000" y1="388.000000" x2="212.500000" y2="344.000000"  style="stroke:black; stroke-linecap:round; stroke-width:0.25;"/>
<line x1="212.500000" y1="388.000000" x2="212.500000" y2="388.000000"  style="stroke:black; stroke-linecap:round; stroke-width:0.25;"/>
<line x1="220.500000" y1="100.000000" x2="220.500000" y2="160.000000"  style="stroke:black; stroke-linecap:round; stroke-width:0.25;"/>
<line x1="220.500000" y1="160.000000" x2="220.500000" y2="160.000000"  style="stroke:black; stroke-linecap:round; stroke-width:0.25;"/>
<line x1="220.500000" y1="160.000000" x2="224.500000" y2="160.000000"  style="stroke:black; stroke-linecap:round; stroke-width:0.25;"/>
<line x1="220.500000" y1="168.000000" x2="224.500000" y2="168.000000"  style="stroke:black; stroke-linecap:round; stroke-width:0.25;"/>
<line x1="220.500000" y1="324.000000" x2="220.500000" y2="336.000000"  style="stroke:black; stroke-linecap:round; stroke-width:0.25;"/>
<line x1="220.500000" y1="336.000000" x2="220.500000" y2="336.000000"  style="stroke:black; stroke-linecap:round; stroke-width:0.25;"/>
<line x1="220.500000" y1="336.000000" x2="224.500000" y2="336.000000"  style="stroke:black; stroke-linecap:round; stroke-width:0.25;"/>
<line x1="220.500000" y1="344.000000" x2="224.500000" y2="344.000000"  style="stroke:black; stroke-linecap:round; stroke-width:0.25;"/>
<line x1="248.500000" y1="164.000000" x2="252.500000" y2="164.000000"  style="stroke:black; stroke-linecap:round; stroke-width:0.25;"/>
<line x1="248.500000" y1="340.000000" x2="252.500000" y2="340.000000"  style="stroke:black; stroke-linecap:round; stroke-width:0.25;"/>
<line x1="252.500000" y1="52.000000" x2="260.500000" y2="52.000000"  style="stroke:black; stroke-linecap:round; stroke-width:0.25;"/>
<line x1="252.500000" y1="136.000000" x2="260.500000" y2="136.000000"  style="stroke:black; stroke-linecap:round; stroke-width:0.25;"/>
<line x1="252.500000" y1="164.000000" x2="252.500000" y2="136.000000"  style="stroke:black; stroke-linecap:round; stroke-width:0.25;"/>
<line x1="252.500000" y1="164.000000" x2="252.500000" y2="164.000000"  style="stroke:black; stroke-linecap:round; stroke-width:0.25;"/>
<line x1="252.500000" y1="260.000000" x2="292.500000" y2="260.000000"  style="stroke:black; stroke-linecap:round; stroke-width:0.25;"/>
<line x1="252.500000" y1="340.000000" x2="292.500000" y2="340.000000"  style="stroke:black; stroke-linecap:round; stroke-width:0.25;"/>
<line x1="260.500000" y1="52.000000" x2="260.500000" y2="128.000000"  style="stroke:black; stroke-linecap:round; stroke-width:0.25;"/>
<line x1="260.500000" y1="128.000000" x2="260.500000" y2="128.000000"  style="stroke:black; stroke-linecap:round; stroke-width:0.25;"/>
<line x1="260.500000" y1="128.000000" x2="264.500000" y2="128.000000"  style="stroke:black; stroke-linecap:round; stroke-width:0.25;"/>
<line x1="260.500000" y1="136.000000" x2="264.500000" y2="136.000000"  style="stroke:black; stroke-linecap:round; stroke-width:0.25;"/>
<line x1="288.500000" y1="132.000000" x2="292.500000" y2="132.000000"  style="stroke:black; stroke-linecap:round; stroke-width:0.25;"/>
<line x1="292.500000" y1="132.000000" x2="308.500000" y2="132.000000"  style="stroke:black; stroke-linecap:round; stroke-width:0.25;"/>
<line x1="292.500000" y1="212.000000" x2="308.500000" y2="212.000000"  style="stroke:black; stroke-linecap:round; stroke-width:0.25;"/>
<line x1="292.500000" y1="260.000000" x2="292.500000" y2="212.000000"  style="stroke:black; stroke-linecap:round; stroke-width:0.25;"/>
<line x1="292.500000" y1="260.000000" x2="292.500000" y2="260.000000"  style="stroke:black; stroke-linecap:round; stroke-width:0.25;"/>
<line x1="292.500000" y1="340.000000" x2="300.500000" y2="340.000000"  style="stroke:black; stroke-linecap:round; stroke-width:0.25;"/>
<line x1="300.500000" y1="220.000000" x2="308.500000" y2="220.000000"  style="stroke:black; stroke-linecap:round; stroke-width:0.25;"/>
<line x1="300.500000" y1="340.000000" x2="300.500000" y2="220.000000"  style="stroke:black; stroke-linecap:round; stroke-width:0.25;"/>
<line x1="308.500000" y1="132.000000" x2="308.500000" y2="204.000000"  style="stroke:black; stroke-linecap:round; stroke-width:0.25;"/>
<line x1="308.500000" y1="204.000000" x2="308.500000" y2="204.000000"  style="stroke:black; stroke-linecap:round; stroke-width:0.25;"/>
<line x1="308.500000" y1="204.000000" x2="312.500000" y2="204.000000"  style="stroke:black; stroke-linecap:round; stroke-width:0.25;"/>
<line x1="308.500000" y1="212.000000" x2="312.500000" y2="212.000000"  style="stroke:black; stroke-linecap:round; stroke-width:0.25;"/>
<line x1="308.500000" y1="220.000000" x2="312.500000" y2="220.000000"  style="stroke:black; stroke-linecap:round; stroke-width:0.25;"/>
<line x1="351.200000" y1="212.000000" x2="355.200000" y2="212.000000"  style="stroke:black; stroke-linecap:round; stroke-width:0.25;"/>
<line x1="355.200000" y1="212.000000" x2="355.200000" y2="212.000000"  style="stroke:black; stroke-linecap:round; stroke-width:0.25;"/>
<line x1="355.200000" y1="212.000000" x2="359.200000" y2="212.000000"  style="stroke:black; stroke-linecap:round; stroke-width:0.25;"/>
<line x1="359.200000" y1="212.000000" x2="363.200000" y2="212.000000"  style="stroke:black; stroke-linecap:round; stroke-width:0.25;"/>
<line x1="363.200000" y1="212.000000" x2="373.200000" y2="212.000000"  style="stroke:black; stroke-linecap:round; stroke-width:0.25;"/>
</svg>
