<?xml version="1.0"?>
<svg xmlns="http://www.w3.org/2000/svg" xmlns:xlink="http://www.w3.org/1999/xlink" viewBox="0 0 229.400000 220.000000" width="114.700000mm" height="110.000000mm" version="1.1">
<a xlink:href="state-0x322c6bb0.svg">
<rect x="1.000000" y="1.000000" width="228.400000" height="219.000000" rx="0" ry="0" style="stroke:none;fill:#cccccc;"/>
<rect x="0.000000" y="0.000000" width="228.400000" height="219.000000" rx="0" ry="0" style="stroke:none;fill:#ffffff;"/>
</a>
<text x="10.000000" y="7.000000" font-family="Arial" font-size="7"></text>
<a xlink:href="fastD-0x42a4a10.svg">
<rect x="41.000000" y="25.000000" width="38.700000" height="24.000000" rx="0" ry="0" style="stroke:none;fill:#cccccc;"/>
<rect x="40.000000" y="24.000000" width="38.700000" height="24.000000" rx="0" ry="0" style="stroke:none;fill:#003366;"/>
</a>
<a xlink:href="fastD-0x42a4a10.svg">
<text x="59.350000" y="38.000000" font-family="Arial" font-size="7" text-anchor="middle" fill="#FFFFFF">fastD(7)</text>
</a>
<circle cx="42.000000" cy="26.000000" r="1"/>
<a xlink:href="fastD-0x42a4a10.svg">
<rect x="25.000000" y="57.000000" width="38.700000" height="24.000000" rx="0" ry="0" style="stroke:none;fill:#cccccc;"/>
<rect x="24.000000" y="56.000000" width="38.700000" height="24.000000" rx="0" ry="0" style="stroke:none;fill:#003366;"/>
</a>
<a xlink:href="fastD-0x42a4a10.svg">
<text x="43.350000" y="70.000000" font-family="Arial" font-size="7" text-anchor="middle" fill="#FFFFFF">fastD(7)</text>
</a>
<circle cx="26.000000" cy="58.000000" r="1"/>
<rect x="71.700000" y="57.000000" width="24.000000" height="24.000000" rx="0" ry="0" style="stroke:none;fill:#cccccc;"/>
<rect x="70.700000" y="56.000000" width="24.000000" height="24.000000" rx="0" ry="0" style="stroke:none;fill:#4B71A1;"/>
<text x="82.700000" y="70.000000" font-family="Arial" font-size="7" text-anchor="middle" fill="#FFFFFF">mem</text>
<circle cx="72.700000" cy="58.000000" r="1"/>
<line x1="67.700000" y1="67.000000" x2="70.700000" y2="68.000000"  transform="rotate(0.000000,70.700000,68.000000)" style="stroke: black; stroke-width:0.25;"/>
<line x1="67.700000" y1="69.000000" x2="70.700000" y2="68.000000"  transform="rotate(0.000000,70.700000,68.000000)" style="stroke: black; stroke-width:0.25;"/>
<rect x="111.700000" y="41.000000" width="24.000000" height="24.000000" rx="0" ry="0" style="stroke:none;fill:#cccccc;"/>
<rect x="110.700000" y="40.000000" width="24.000000" height="24.000000" rx="0" ry="0" style="stroke:none;fill:#4B71A1;"/>
<text x="122.700000" y="54.000000" font-family="Arial" font-size="7" text-anchor="middle" fill="#FFFFFF">!=</text>
<circle cx="112.700000" cy="42.000000" r="1"/>
<line x1="107.700000" y1="47.000000" x2="110.700000" y2="48.000000"  transform="rotate(0.000000,110.700000,48.000000)" style="stroke: black; stroke-width:0.25;"/>
<line x1="107.700000" y1="49.000000" x2="110.700000" y2="48.000000"  transform="rotate(0.000000,110.700000,48.000000)" style="stroke: black; stroke-width:0.25;"/>
<line x1="107.700000" y1="55.000000" x2="110.700000" y2="56.000000"  transform="rotate(0.000000,110.700000,56.000000)" style="stroke: black; stroke-width:0.25;"/>
<line x1="107.700000" y1="57.000000" x2="110.700000" y2="56.000000"  transform="rotate(0.000000,110.700000,56.000000)" style="stroke: black; stroke-width:0.25;"/>
<rect x="48.350000" y="89.000000" width="24.000000" height="24.000000" rx="0" ry="0" style="stroke:none;fill:#cccccc;"/>
<rect x="47.350000" y="88.000000" width="24.000000" height="24.000000" rx="0" ry="0" style="stroke:none;fill:#47945E;"/>
<text x="59.350000" y="102.000000" font-family="Arial" font-size="7" text-anchor="middle" fill="#FFFFFF">t</text>
<circle cx="49.350000" cy="90.000000" r="1"/>
<rect x="48.350000" y="131.000000" width="24.000000" height="24.000000" rx="0" ry="0" style="stroke:none;fill:#cccccc;"/>
<rect x="47.350000" y="130.000000" width="24.000000" height="24.000000" rx="0" ry="0" style="stroke:none;fill:#f44800;"/>
<text x="59.350000" y="144.000000" font-family="Arial" font-size="7" text-anchor="middle" fill="#FFFFFF">1</text>
<circle cx="49.350000" cy="132.000000" r="1"/>
<line x1="38.350000" y1="121.000000" x2="38.350000" y2="163.000000"  style="stroke: black; stroke-linecap:round; stroke-width:0.25; stroke-dasharray:3,3;"/>
<line x1="38.350000" y1="163.000000" x2="80.350000" y2="163.000000"  style="stroke: black; stroke-linecap:round; stroke-width:0.25; stroke-dasharray:3,3;"/>
<line x1="80.350000" y1="163.000000" x2="80.350000" y2="121.000000"  style="stroke: black; stroke-linecap:round; stroke-width:0.25; stroke-dasharray:3,3;"/>
<line x1="38.350000" y1="121.000000" x2="43.350000" y2="121.000000"  style="stroke: black; stroke-linecap:round; stroke-width:0.25; stroke-dasharray:3,3;"/>
<line x1="56.250000" y1="121.000000" x2="80.350000" y2="121.000000"  style="stroke: black; stroke-linecap:round; stroke-width:0.25; stroke-dasharray:3,3;"/>
<text x="43.350000" y="123.000000" font-family="Arial" font-size="7">a0</text>
<rect x="98.350000" y="115.000000" width="24.000000" height="24.000000" rx="0" ry="0" style="stroke:none;fill:#cccccc;"/>
<rect x="97.350000" y="114.000000" width="24.000000" height="24.000000" rx="0" ry="0" style="stroke:none;fill:#4B71A1;"/>
<text x="109.350000" y="128.000000" font-family="Arial" font-size="7" text-anchor="middle" fill="#FFFFFF">-</text>
<circle cx="99.350000" cy="116.000000" r="1"/>
<line x1="94.350000" y1="121.000000" x2="97.350000" y2="122.000000"  transform="rotate(0.000000,97.350000,122.000000)" style="stroke: black; stroke-width:0.25;"/>
<line x1="94.350000" y1="123.000000" x2="97.350000" y2="122.000000"  transform="rotate(0.000000,97.350000,122.000000)" style="stroke: black; stroke-width:0.25;"/>
<line x1="94.350000" y1="129.000000" x2="97.350000" y2="130.000000"  transform="rotate(0.000000,97.350000,130.000000)" style="stroke: black; stroke-width:0.25;"/>
<line x1="94.350000" y1="131.000000" x2="97.350000" y2="130.000000"  transform="rotate(0.000000,97.350000,130.000000)" style="stroke: black; stroke-width:0.25;"/>
<a xlink:href="samples-0x3d12580.svg">
<rect x="61.000000" y="173.000000" width="38.700000" height="24.000000" rx="0" ry="0" style="stroke:none;fill:#cccccc;"/>
<rect x="60.000000" y="172.000000" width="38.700000" height="24.000000" rx="0" ry="0" style="stroke:none;fill:#003366;"/>
</a>
<a xlink:href="samples-0x3d12580.svg">
<text x="79.350000" y="186.000000" font-family="Arial" font-size="7" text-anchor="middle" fill="#FFFFFF">samples</text>
</a>
<circle cx="62.000000" cy="174.000000" r="1"/>
<rect x="159.700000" y="99.000000" width="38.700000" height="24.000000" rx="0" ry="0" style="stroke:none;fill:#cccccc;"/>
<rect x="158.700000" y="98.000000" width="38.700000" height="24.000000" rx="0" ry="0" style="stroke:none;fill:#4B71A1;"/>
<text x="178.050000" y="112.000000" font-family="Arial" font-size="7" text-anchor="middle" fill="#FFFFFF">select2</text>
<circle cx="160.700000" cy="100.000000" r="1"/>
<line x1="155.700000" y1="101.000000" x2="158.700000" y2="102.000000"  transform="rotate(0.000000,158.700000,102.000000)" style="stroke: black; stroke-width:0.25;"/>
<line x1="155.700000" y1="103.000000" x2="158.700000" y2="102.000000"  transform="rotate(0.000000,158.700000,102.000000)" style="stroke: black; stroke-width:0.25;"/>
<line x1="155.700000" y1="109.000000" x2="158.700000" y2="110.000000"  transform="rotate(0.000000,158.700000,110.000000)" style="stroke: black; stroke-width:0.25;"/>
<line x1="155.700000" y1="111.000000" x2="158.700000" y2="110.000000"  transform="rotate(0.000000,158.700000,110.000000)" style="stroke: black; stroke-width:0.25;"/>
<line x1="155.700000" y1="117.000000" x2="158.700000" y2="118.000000"  transform="rotate(0.000000,158.700000,118.000000)" style="stroke: black; stroke-width:0.25;"/>
<line x1="155.700000" y1="119.000000" x2="158.700000" y2="118.000000"  transform="rotate(0.000000,158.700000,118.000000)" style="stroke: black; stroke-width:0.25;"/>
<line x1="15.000000" y1="15.000000" x2="15.000000" y2="205.000000"  style="stroke: black; stroke-linecap:round; stroke-width:0.25; stroke-dasharray:3,3;"/>
<line x1="15.000000" y1="205.000000" x2="214.400000" y2="205.000000"  style="stroke: black; stroke-linecap:round; stroke-width:0.25; stroke-dasharray:3,3;"/>
<line x1="214.400000" y1="205.000000" x2="214.400000" y2="15.000000"  style="stroke: black; stroke-linecap:round; stroke-width:0.25; stroke-dasharray:3,3;"/>
<line x1="15.000000" y1="15.000000" x2="20.000000" y2="15.000000"  style="stroke: black; stroke-linecap:round; stroke-width:0.25; stroke-dasharray:3,3;"/>
<line x1="32.900000" y1="15.000000" x2="214.400000" y2="15.000000"  style="stroke: black; stroke-linecap:round; stroke-width:0.25; stroke-dasharray:3,3;"/>
<text x="20.000000" y="17.000000" font-family="Arial" font-size="7">nt</text>
<line x1="216.400000" y1="109.000000" x2="219.400000" y2="110.000000"  transform="rotate(0.000000,219.400000,110.000000)" style="stroke: black; stroke-width:0.25;"/>
<line x1="216.400000" y1="111.000000" x2="219.400000" y2="110.000000"  transform="rotate(0.000000,219.400000,110.000000)" style="stroke: black; stroke-width:0.25;"/>
<line x1="62.700000" y1="68.000000" x2="66.700000" y2="68.000000"  style="stroke:black; stroke-linecap:round; stroke-width:0.25;"/>
<line x1="66.700000" y1="68.000000" x2="66.700000" y2="68.000000"  style="stroke:black; stroke-linecap:round; stroke-width:0.25;"/>
<line x1="66.700000" y1="68.000000" x2="70.700000" y2="68.000000"  style="stroke:black; stroke-linecap:round; stroke-width:0.25;"/>
<line x1="71.350000" y1="100.000000" x2="75.350000" y2="100.000000"  style="stroke:black; stroke-linecap:round; stroke-width:0.25;"/>
<line x1="71.350000" y1="142.000000" x2="75.350000" y2="142.000000"  style="stroke:black; stroke-linecap:round; stroke-width:0.25;"/>
<line x1="75.350000" y1="100.000000" x2="85.350000" y2="100.000000"  style="stroke:black; stroke-linecap:round; stroke-width:0.25;"/>
<line x1="75.350000" y1="142.000000" x2="85.350000" y2="142.000000"  style="stroke:black; stroke-linecap:round; stroke-width:0.25;"/>
<line x1="78.700000" y1="36.000000" x2="82.700000" y2="36.000000"  style="stroke:black; stroke-linecap:round; stroke-width:0.25;"/>
<line x1="82.700000" y1="36.000000" x2="98.700000" y2="36.000000"  style="stroke:black; stroke-linecap:round; stroke-width:0.25;"/>
<line x1="85.350000" y1="100.000000" x2="93.350000" y2="100.000000"  style="stroke:black; stroke-linecap:round; stroke-width:0.25;"/>
<line x1="85.350000" y1="130.000000" x2="93.350000" y2="130.000000"  style="stroke:black; stroke-linecap:round; stroke-width:0.25;"/>
<line x1="85.350000" y1="142.000000" x2="85.350000" y2="130.000000"  style="stroke:black; stroke-linecap:round; stroke-width:0.25;"/>
<line x1="85.350000" y1="142.000000" x2="85.350000" y2="142.000000"  style="stroke:black; stroke-linecap:round; stroke-width:0.25;"/>
<line x1="93.350000" y1="100.000000" x2="93.350000" y2="122.000000"  style="stroke:black; stroke-linecap:round; stroke-width:0.25;"/>
<line x1="93.350000" y1="122.000000" x2="93.350000" y2="122.000000"  style="stroke:black; stroke-linecap:round; stroke-width:0.25;"/>
<line x1="93.350000" y1="122.000000" x2="97.350000" y2="122.000000"  style="stroke:black; stroke-linecap:round; stroke-width:0.25;"/>
<line x1="93.350000" y1="130.000000" x2="97.350000" y2="130.000000"  style="stroke:black; stroke-linecap:round; stroke-width:0.25;"/>
<line x1="94.700000" y1="68.000000" x2="98.700000" y2="68.000000"  style="stroke:black; stroke-linecap:round; stroke-width:0.25;"/>
<line x1="98.700000" y1="36.000000" x2="106.700000" y2="36.000000"  style="stroke:black; stroke-linecap:round; stroke-width:0.25;"/>
<line x1="98.700000" y1="56.000000" x2="106.700000" y2="56.000000"  style="stroke:black; stroke-linecap:round; stroke-width:0.25;"/>
<line x1="98.700000" y1="68.000000" x2="98.700000" y2="56.000000"  style="stroke:black; stroke-linecap:round; stroke-width:0.25;"/>
<line x1="98.700000" y1="68.000000" x2="98.700000" y2="68.000000"  style="stroke:black; stroke-linecap:round; stroke-width:0.25;"/>
<line x1="98.700000" y1="184.000000" x2="102.700000" y2="184.000000"  style="stroke:black; stroke-linecap:round; stroke-width:0.25;"/>
<line x1="102.700000" y1="184.000000" x2="125.350000" y2="184.000000"  style="stroke:black; stroke-linecap:round; stroke-width:0.25;"/>
<line x1="106.700000" y1="36.000000" x2="106.700000" y2="48.000000"  style="stroke:black; stroke-linecap:round; stroke-width:0.25;"/>
<line x1="106.700000" y1="48.000000" x2="106.700000" y2="48.000000"  style="stroke:black; stroke-linecap:round; stroke-width:0.25;"/>
<line x1="106.700000" y1="48.000000" x2="110.700000" y2="48.000000"  style="stroke:black; stroke-linecap:round; stroke-width:0.25;"/>
<line x1="106.700000" y1="56.000000" x2="110.700000" y2="56.000000"  style="stroke:black; stroke-linecap:round; stroke-width:0.25;"/>
<line x1="121.350000" y1="126.000000" x2="125.350000" y2="126.000000"  style="stroke:black; stroke-linecap:round; stroke-width:0.25;"/>
<line x1="125.350000" y1="126.000000" x2="138.700000" y2="126.000000"  style="stroke:black; stroke-linecap:round; stroke-width:0.25;"/>
<line x1="125.350000" y1="184.000000" x2="138.700000" y2="184.000000"  style="stroke:black; stroke-linecap:round; stroke-width:0.25;"/>
<line x1="134.700000" y1="52.000000" x2="138.700000" y2="52.000000"  style="stroke:black; stroke-linecap:round; stroke-width:0.25;"/>
<line x1="138.700000" y1="52.000000" x2="154.700000" y2="52.000000"  style="stroke:black; stroke-linecap:round; stroke-width:0.25;"/>
<line x1="138.700000" y1="110.000000" x2="154.700000" y2="110.000000"  style="stroke:black; stroke-linecap:round; stroke-width:0.25;"/>
<line x1="138.700000" y1="126.000000" x2="138.700000" y2="110.000000"  style="stroke:black; stroke-linecap:round; stroke-width:0.25;"/>
<line x1="138.700000" y1="126.000000" x2="138.700000" y2="126.000000"  style="stroke:black; stroke-linecap:round; stroke-width:0.25;"/>
<line x1="138.700000" y1="184.000000" x2="146.700000" y2="184.000000"  style="stroke:black; stroke-linecap:round; stroke-width:0.25;"/>
<line x1="146.700000" y1="118.000000" x2="154.700000" y2="118.000000"  style="stroke:black; stroke-linecap:round; stroke-width:0.25;"/>
<line x1="146.700000" y1="184.000000" x2="146.700000" y2="118.000000"  style="stroke:black; stroke-linecap:round; stroke-width:0.25;"/>
<line x1="154.700000" y1="52.000000" x2="154.700000" y2="102.000000"  style="stroke:black; stroke-linecap:round; stroke-width:0.25;"/>
<line x1="154.700000" y1="102.000000" x2="154.700000" y2="102.000000"  style="stroke:black; stroke-linecap:round; stroke-width:0.25;"/>
<line x1="154.700000" y1="102.000000" x2="158.700000" y2="102.000000"  style="stroke:black; stroke-linecap:round; stroke-width:0.25;"/>
<line x1="154.700000" y1="110.000000" x2="158.700000" y2="110.000000"  style="stroke:black; stroke-linecap:round; stroke-width:0.25;"/>
<line x1="154.700000" y1="118.000000" x2="158.700000" y2="118.000000"  style="stroke:black; stroke-linecap:round; stroke-width:0.25;"/>
<line x1="197.400000" y1="110.000000" x2="201.400000" y2="110.000000"  style="stroke:black; stroke-linecap:round; stroke-width:0.25;"/>
<line x1="201.400000" y1="110.000000" x2="201.400000" y2="110.000000"  style="stroke:black; stroke-linecap:round; stroke-width:0.25;"/>
<line x1="201.400000" y1="110.000000" x2="205.400000" y2="110.000000"  style="stroke:black; stroke-linecap:round; stroke-width:0.25;"/>
<line x1="205.400000" y1="110.000000" x2="209.400000" y2="110.000000"  style="stroke:black; stroke-linecap:round; stroke-width:0.25;"/>
<line x1="209.400000" y1="110.000000" x2="219.400000" y2="110.000000"  style="stroke:black; stroke-linecap:round; stroke-width:0.25;"/>
</svg>
