<?xml version="1.0"?>
<svg xmlns="http://www.w3.org/2000/svg" xmlns:xlink="http://www.w3.org/1999/xlink" viewBox="0 0 286.400000 168.000000" width="143.200000mm" height="84.000000mm" version="1.1">
<a xlink:href="ctrl-0x3121aa90.svg">
<rect x="1.000000" y="1.000000" width="285.400000" height="167.000000" rx="0" ry="0" style="stroke:none;fill:#cccccc;"/>
<rect x="0.000000" y="0.000000" width="285.400000" height="167.000000" rx="0" ry="0" style="stroke:none;fill:#ffffff;"/>
</a>
<text x="10.000000" y="7.000000" font-family="Arial" font-size="7"></text>
<rect x="76.850000" y="25.000000" width="24.000000" height="24.000000" rx="0" ry="0" style="stroke:none;fill:#cccccc;"/>
<rect x="75.850000" y="24.000000" width="24.000000" height="24.000000" rx="0" ry="0" style="stroke:none;fill:#47945E;"/>
<text x="87.850000" y="38.000000" font-family="Arial" font-size="7" text-anchor="middle" fill="#FFFFFF">v</text>
<circle cx="77.850000" cy="26.000000" r="1"/>
<rect x="76.850000" y="57.000000" width="24.000000" height="24.000000" rx="0" ry="0" style="stroke:none;fill:#cccccc;"/>
<rect x="75.850000" y="56.000000" width="24.000000" height="24.000000" rx="0" ry="0" style="stroke:none;fill:#f44800;"/>
<text x="87.850000" y="70.000000" font-family="Arial" font-size="7" text-anchor="middle" fill="#FFFFFF">0</text>
<circle cx="77.850000" cy="58.000000" r="1"/>
<rect x="116.850000" y="41.000000" width="24.000000" height="24.000000" rx="0" ry="0" style="stroke:none;fill:#cccccc;"/>
<rect x="115.850000" y="40.000000" width="24.000000" height="24.000000" rx="0" ry="0" style="stroke:none;fill:#4B71A1;"/>
<text x="127.850000" y="54.000000" font-family="Arial" font-size="7" text-anchor="middle" fill="#FFFFFF">!=</text>
<circle cx="117.850000" cy="42.000000" r="1"/>
<line x1="112.850000" y1="47.000000" x2="115.850000" y2="48.000000"  transform="rotate(0.000000,115.850000,48.000000)" style="stroke: black; stroke-width:0.25;"/>
<line x1="112.850000" y1="49.000000" x2="115.850000" y2="48.000000"  transform="rotate(0.000000,115.850000,48.000000)" style="stroke: black; stroke-width:0.25;"/>
<line x1="112.850000" y1="55.000000" x2="115.850000" y2="56.000000"  transform="rotate(0.000000,115.850000,56.000000)" style="stroke: black; stroke-width:0.25;"/>
<line x1="112.850000" y1="57.000000" x2="115.850000" y2="56.000000"  transform="rotate(0.000000,115.850000,56.000000)" style="stroke: black; stroke-width:0.25;"/>
<a xlink:href="if-0x31a83ea0.svg">
<rect x="44.350000" y="89.000000" width="129.000000" height="24.000000" rx="0" ry="0" style="stroke:none;fill:#cccccc;"/>
<rect x="43.350000" y="88.000000" width="129.000000" height="24.000000" rx="0" ry="0" style="stroke:none;fill:#003366;"/>
</a>
<a xlink:href="if-0x31a83ea0.svg">
<text x="107.850000" y="102.000000" font-family="Arial" font-size="7" text-anchor="middle" fill="#FFFFFF">if((x3688,0.0...5f : select2)</text>
</a>
<circle cx="45.350000" cy="90.000000" r="1"/>
<a xlink:href="if-0x3180dc30.svg">
<rect x="25.000000" y="121.000000" width="167.700000" height="24.000000" rx="0" ry="0" style="stroke:none;fill:#cccccc;"/>
<rect x="24.000000" y="120.000000" width="167.700000" height="24.000000" rx="0" ry="0" style="stroke:none;fill:#003366;"/>
</a>
<a xlink:href="if-0x3180dc30.svg">
<text x="107.850000" y="134.000000" font-family="Arial" font-size="7" text-anchor="middle" fill="#FFFFFF">if((x3688,0.0....0f : &lt;) : &amp;)(x3687)(0)</text>
</a>
<circle cx="26.000000" cy="122.000000" r="1"/>
<rect x="216.700000" y="73.000000" width="38.700000" height="24.000000" rx="0" ry="0" style="stroke:none;fill:#cccccc;"/>
<rect x="215.700000" y="72.000000" width="38.700000" height="24.000000" rx="0" ry="0" style="stroke:none;fill:#4B71A1;"/>
<text x="235.050000" y="86.000000" font-family="Arial" font-size="7" text-anchor="middle" fill="#FFFFFF">select2</text>
<circle cx="217.700000" cy="74.000000" r="1"/>
<line x1="212.700000" y1="75.000000" x2="215.700000" y2="76.000000"  transform="rotate(0.000000,215.700000,76.000000)" style="stroke: black; stroke-width:0.25;"/>
<line x1="212.700000" y1="77.000000" x2="215.700000" y2="76.000000"  transform="rotate(0.000000,215.700000,76.000000)" style="stroke: black; stroke-width:0.25;"/>
<line x1="212.700000" y1="83.000000" x2="215.700000" y2="84.000000"  transform="rotate(0.000000,215.700000,84.000000)" style="stroke: black; stroke-width:0.25;"/>
<line x1="212.700000" y1="85.000000" x2="215.700000" y2="84.000000"  transform="rotate(0.000000,215.700000,84.000000)" style="stroke: black; stroke-width:0.25;"/>
<line x1="212.700000" y1="91.000000" x2="215.700000" y2="92.000000"  transform="rotate(0.000000,215.700000,92.000000)" style="stroke: black; stroke-width:0.25;"/>
<line x1="212.700000" y1="93.000000" x2="215.700000" y2="92.000000"  transform="rotate(0.000000,215.700000,92.000000)" style="stroke: black; stroke-width:0.25;"/>
<line x1="15.000000" y1="15.000000" x2="15.000000" y2="153.000000"  style="stroke: black; stroke-linecap:round; stroke-width:0.25; stroke-dasharray:3,3;"/>
<line x1="15.000000" y1="153.000000" x2="271.400000" y2="153.000000"  style="stroke: black; stroke-linecap:round; stroke-width:0.25; stroke-dasharray:3,3;"/>
<line x1="271.400000" y1="153.000000" x2="271.400000" y2="15.000000"  style="stroke: black; stroke-linecap:round; stroke-width:0.25; stroke-dasharray:3,3;"/>
<line x1="15.000000" y1="15.000000" x2="20.000000" y2="15.000000"  style="stroke: black; stroke-linecap:round; stroke-width:0.25; stroke-dasharray:3,3;"/>
<line x1="32.900000" y1="15.000000" x2="271.400000" y2="15.000000"  style="stroke: black; stroke-linecap:round; stroke-width:0.25; stroke-dasharray:3,3;"/>
<text x="20.000000" y="17.000000" font-family="Arial" font-size="7">nv</text>
<line x1="273.400000" y1="83.000000" x2="276.400000" y2="84.000000"  transform="rotate(0.000000,276.400000,84.000000)" style="stroke: black; stroke-width:0.25;"/>
<line x1="273.400000" y1="85.000000" x2="276.400000" y2="84.000000"  transform="rotate(0.000000,276.400000,84.000000)" style="stroke: black; stroke-width:0.25;"/>
<line x1="99.850000" y1="36.000000" x2="103.850000" y2="36.000000"  style="stroke:black; stroke-linecap:round; stroke-width:0.25;"/>
<line x1="99.850000" y1="68.000000" x2="103.850000" y2="68.000000"  style="stroke:black; stroke-linecap:round; stroke-width:0.25;"/>
<line x1="103.850000" y1="36.000000" x2="111.850000" y2="36.000000"  style="stroke:black; stroke-linecap:round; stroke-width:0.25;"/>
<line x1="103.850000" y1="56.000000" x2="111.850000" y2="56.000000"  style="stroke:black; stroke-linecap:round; stroke-width:0.25;"/>
<line x1="103.850000" y1="68.000000" x2="103.850000" y2="56.000000"  style="stroke:black; stroke-linecap:round; stroke-width:0.25;"/>
<line x1="103.850000" y1="68.000000" x2="103.850000" y2="68.000000"  style="stroke:black; stroke-linecap:round; stroke-width:0.25;"/>
<line x1="111.850000" y1="36.000000" x2="111.850000" y2="48.000000"  style="stroke:black; stroke-linecap:round; stroke-width:0.25;"/>
<line x1="111.850000" y1="48.000000" x2="111.850000" y2="48.000000"  style="stroke:black; stroke-linecap:round; stroke-width:0.25;"/>
<line x1="111.850000" y1="48.000000" x2="115.850000" y2="48.000000"  style="stroke:black; stroke-linecap:round; stroke-width:0.25;"/>
<line x1="111.850000" y1="56.000000" x2="115.850000" y2="56.000000"  style="stroke:black; stroke-linecap:round; stroke-width:0.25;"/>
<line x1="139.850000" y1="52.000000" x2="143.850000" y2="52.000000"  style="stroke:black; stroke-linecap:round; stroke-width:0.25;"/>
<line x1="143.850000" y1="52.000000" x2="195.700000" y2="52.000000"  style="stroke:black; stroke-linecap:round; stroke-width:0.25;"/>
<line x1="172.350000" y1="100.000000" x2="176.350000" y2="100.000000"  style="stroke:black; stroke-linecap:round; stroke-width:0.25;"/>
<line x1="176.350000" y1="100.000000" x2="195.700000" y2="100.000000"  style="stroke:black; stroke-linecap:round; stroke-width:0.25;"/>
<line x1="191.700000" y1="132.000000" x2="195.700000" y2="132.000000"  style="stroke:black; stroke-linecap:round; stroke-width:0.25;"/>
<line x1="195.700000" y1="52.000000" x2="211.700000" y2="52.000000"  style="stroke:black; stroke-linecap:round; stroke-width:0.25;"/>
<line x1="195.700000" y1="84.000000" x2="211.700000" y2="84.000000"  style="stroke:black; stroke-linecap:round; stroke-width:0.25;"/>
<line x1="195.700000" y1="100.000000" x2="195.700000" y2="84.000000"  style="stroke:black; stroke-linecap:round; stroke-width:0.25;"/>
<line x1="195.700000" y1="100.000000" x2="195.700000" y2="100.000000"  style="stroke:black; stroke-linecap:round; stroke-width:0.25;"/>
<line x1="195.700000" y1="132.000000" x2="203.700000" y2="132.000000"  style="stroke:black; stroke-linecap:round; stroke-width:0.25;"/>
<line x1="203.700000" y1="92.000000" x2="211.700000" y2="92.000000"  style="stroke:black; stroke-linecap:round; stroke-width:0.25;"/>
<line x1="203.700000" y1="132.000000" x2="203.700000" y2="92.000000"  style="stroke:black; stroke-linecap:round; stroke-width:0.25;"/>
<line x1="211.700000" y1="52.000000" x2="211.700000" y2="76.000000"  style="stroke:black; stroke-linecap:round; stroke-width:0.25;"/>
<line x1="211.700000" y1="76.000000" x2="211.700000" y2="76.000000"  style="stroke:black; stroke-linecap:round; stroke-width:0.25;"/>
<line x1="211.700000" y1="76.000000" x2="215.700000" y2="76.000000"  style="stroke:black; stroke-linecap:round; stroke-width:0.25;"/>
<line x1="211.700000" y1="84.000000" x2="215.700000" y2="84.000000"  style="stroke:black; stroke-linecap:round; stroke-width:0.25;"/>
<line x1="211.700000" y1="92.000000" x2="215.700000" y2="92.000000"  style="stroke:black; stroke-linecap:round; stroke-width:0.25;"/>
<line x1="254.400000" y1="84.000000" x2="258.400000" y2="84.000000"  style="stroke:black; stroke-linecap:round; stroke-width:0.25;"/>
<line x1="258.400000" y1="84.000000" x2="258.400000" y2="84.000000"  style="stroke:black; stroke-linecap:round; stroke-width:0.25;"/>
<line x1="258.400000" y1="84.000000" x2="262.400000" y2="84.000000"  style="stroke:black; stroke-linecap:round; stroke-width:0.25;"/>
<line x1="262.400000" y1="84.000000" x2="266.400000" y2="84.000000"  style="stroke:black; stroke-linecap:round; stroke-width:0.25;"/>
<line x1="266.400000" y1="84.000000" x2="276.400000" y2="84.000000"  style="stroke:black; stroke-linecap:round; stroke-width:0.25;"/>
</svg>
