<?xml version="1.0"?>
<svg xmlns="http://www.w3.org/2000/svg" xmlns:xlink="http://www.w3.org/1999/xlink" viewBox="0 0 772.600000 132.000000" width="386.300000mm" height="66.000000mm" version="1.1">
<a xlink:href="SH-0x35c1940.svg">
<rect x="1.000000" y="1.000000" width="771.600000" height="131.000000" rx="0" ry="0" style="stroke:none;fill:#cccccc;"/>
<rect x="0.000000" y="0.000000" width="771.600000" height="131.000000" rx="0" ry="0" style="stroke:none;fill:#ffffff;"/>
</a>
<text x="10.000000" y="7.000000" font-family="Arial" font-size="7"></text>
<a xlink:href="SH-0x3221030.svg">
<rect x="41.000000" y="71.000000" width="129.000000" height="24.000000" rx="0" ry="0" style="stroke:none;fill:#cccccc;"/>
<rect x="40.000000" y="70.000000" width="129.000000" height="24.000000" rx="0" ry="0" style="stroke:none;fill:#003366;"/>
</a>
<a xlink:href="SH-0x3221030.svg">
<text x="104.500000" y="84.000000" font-family="Arial" font-size="7" text-anchor="middle" fill="#FFFFFF">SH(_,(((_,1 :... /),0.5f : +)</text>
</a>
<circle cx="42.000000" cy="72.000000" r="1"/>
<line x1="37.000000" y1="77.000000" x2="40.000000" y2="78.000000"  transform="rotate(0.000000,40.000000,78.000000)" style="stroke: black; stroke-width:0.25;"/>
<line x1="37.000000" y1="79.000000" x2="40.000000" y2="78.000000"  transform="rotate(0.000000,40.000000,78.000000)" style="stroke: black; stroke-width:0.25;"/>
<line x1="37.000000" y1="85.000000" x2="40.000000" y2="86.000000"  transform="rotate(0.000000,40.000000,86.000000)" style="stroke: black; stroke-width:0.25;"/>
<line x1="37.000000" y1="87.000000" x2="40.000000" y2="86.000000"  transform="rotate(0.000000,40.000000,86.000000)" style="stroke: black; stroke-width:0.25;"/>
<rect x="178.000000" y="71.000000" width="24.000000" height="24.000000" rx="0" ry="0" style="stroke:none;fill:#cccccc;"/>
<rect x="177.000000" y="70.000000" width="24.000000" height="24.000000" rx="0" ry="0" style="stroke:none;fill:#4B71A1;"/>
<text x="189.000000" y="84.000000" font-family="Arial" font-size="7" text-anchor="middle" fill="#FFFFFF">log</text>
<circle cx="179.000000" cy="72.000000" r="1"/>
<line x1="174.000000" y1="81.000000" x2="177.000000" y2="82.000000"  transform="rotate(0.000000,177.000000,82.000000)" style="stroke: black; stroke-width:0.25;"/>
<line x1="174.000000" y1="83.000000" x2="177.000000" y2="82.000000"  transform="rotate(0.000000,177.000000,82.000000)" style="stroke: black; stroke-width:0.25;"/>
<rect x="218.000000" y="75.000000" width="25.800000" height="24.000000" rx="0" ry="0" style="stroke:none;fill:#cccccc;"/>
<rect x="217.000000" y="74.000000" width="25.800000" height="24.000000" rx="0" ry="0" style="stroke:none;fill:#f44800;"/>
<text x="229.900000" y="88.000000" font-family="Arial" font-size="7" text-anchor="middle" fill="#FFFFFF">-1000</text>
<circle cx="219.000000" cy="76.000000" r="1"/>
<rect x="259.800000" y="71.000000" width="24.000000" height="24.000000" rx="0" ry="0" style="stroke:none;fill:#cccccc;"/>
<rect x="258.800000" y="70.000000" width="24.000000" height="24.000000" rx="0" ry="0" style="stroke:none;fill:#4B71A1;"/>
<text x="270.800000" y="84.000000" font-family="Arial" font-size="7" text-anchor="middle" fill="#FFFFFF">*</text>
<circle cx="260.800000" cy="72.000000" r="1"/>
<line x1="255.800000" y1="77.000000" x2="258.800000" y2="78.000000"  transform="rotate(0.000000,258.800000,78.000000)" style="stroke: black; stroke-width:0.25;"/>
<line x1="255.800000" y1="79.000000" x2="258.800000" y2="78.000000"  transform="rotate(0.000000,258.800000,78.000000)" style="stroke: black; stroke-width:0.25;"/>
<line x1="255.800000" y1="85.000000" x2="258.800000" y2="86.000000"  transform="rotate(0.000000,258.800000,86.000000)" style="stroke: black; stroke-width:0.25;"/>
<line x1="255.800000" y1="87.000000" x2="258.800000" y2="86.000000"  transform="rotate(0.000000,258.800000,86.000000)" style="stroke: black; stroke-width:0.25;"/>
<a xlink:href="ms-0x21d9ad0.svg">
<rect x="299.800000" y="75.000000" width="24.000000" height="24.000000" rx="0" ry="0" style="stroke:none;fill:#cccccc;"/>
<rect x="298.800000" y="74.000000" width="24.000000" height="24.000000" rx="0" ry="0" style="stroke:none;fill:#003366;"/>
</a>
<a xlink:href="ms-0x21d9ad0.svg">
<text x="310.800000" y="88.000000" font-family="Arial" font-size="7" text-anchor="middle" fill="#FFFFFF">ms</text>
</a>
<circle cx="300.800000" cy="76.000000" r="1"/>
<rect x="339.800000" y="71.000000" width="24.000000" height="24.000000" rx="0" ry="0" style="stroke:none;fill:#cccccc;"/>
<rect x="338.800000" y="70.000000" width="24.000000" height="24.000000" rx="0" ry="0" style="stroke:none;fill:#4B71A1;"/>
<text x="350.800000" y="84.000000" font-family="Arial" font-size="7" text-anchor="middle" fill="#FFFFFF">*</text>
<circle cx="340.800000" cy="72.000000" r="1"/>
<line x1="335.800000" y1="77.000000" x2="338.800000" y2="78.000000"  transform="rotate(0.000000,338.800000,78.000000)" style="stroke: black; stroke-width:0.25;"/>
<line x1="335.800000" y1="79.000000" x2="338.800000" y2="78.000000"  transform="rotate(0.000000,338.800000,78.000000)" style="stroke: black; stroke-width:0.25;"/>
<line x1="335.800000" y1="85.000000" x2="338.800000" y2="86.000000"  transform="rotate(0.000000,338.800000,86.000000)" style="stroke: black; stroke-width:0.25;"/>
<line x1="335.800000" y1="87.000000" x2="338.800000" y2="86.000000"  transform="rotate(0.000000,338.800000,86.000000)" style="stroke: black; stroke-width:0.25;"/>
<a xlink:href="silentFor-0x35c10c0.svg">
<rect x="193.050000" y="35.000000" width="38.700000" height="24.000000" rx="0" ry="0" style="stroke:none;fill:#cccccc;"/>
<rect x="192.050000" y="34.000000" width="38.700000" height="24.000000" rx="0" ry="0" style="stroke:none;fill:#003366;"/>
</a>
<a xlink:href="silentFor-0x35c10c0.svg">
<text x="211.400000" y="48.000000" font-family="Arial" font-size="7" text-anchor="middle" fill="#FFFFFF">silentFor</text>
</a>
<circle cx="228.750000" cy="56.000000" r="1"/>
<line x1="233.750000" y1="45.000000" x2="230.750000" y2="46.000000"  transform="rotate(0.000000,230.750000,46.000000)" style="stroke: black; stroke-width:0.25;"/>
<line x1="233.750000" y1="47.000000" x2="230.750000" y2="46.000000"  transform="rotate(0.000000,230.750000,46.000000)" style="stroke: black; stroke-width:0.25;"/>
<line x1="364.800000" y1="82.000000" x2="364.800000" y2="78.000000"  style="stroke:black; stroke-linecap:round; stroke-width:0.25;"/>
<line x1="364.800000" y1="78.000000" x2="368.800000" y2="78.000000"  style="stroke:black; stroke-linecap:round; stroke-width:0.25;"/>
<line x1="368.800000" y1="78.000000" x2="368.800000" y2="82.000000"  style="stroke:black; stroke-linecap:round; stroke-width:0.25;"/>
<rect x="405.800000" y="35.000000" width="24.000000" height="24.000000" rx="0" ry="0" style="stroke:none;fill:#cccccc;"/>
<rect x="404.800000" y="34.000000" width="24.000000" height="24.000000" rx="0" ry="0" style="stroke:none;fill:#f44800;"/>
<text x="416.800000" y="48.000000" font-family="Arial" font-size="7" text-anchor="middle" fill="#FFFFFF">667</text>
<circle cx="406.800000" cy="36.000000" r="1"/>
<line x1="395.800000" y1="25.000000" x2="395.800000" y2="67.000000"  style="stroke: black; stroke-linecap:round; stroke-width:0.25; stroke-dasharray:3,3;"/>
<line x1="395.800000" y1="67.000000" x2="437.800000" y2="67.000000"  style="stroke: black; stroke-linecap:round; stroke-width:0.25; stroke-dasharray:3,3;"/>
<line x1="437.800000" y1="67.000000" x2="437.800000" y2="25.000000"  style="stroke: black; stroke-linecap:round; stroke-width:0.25; stroke-dasharray:3,3;"/>
<line x1="395.800000" y1="25.000000" x2="400.800000" y2="25.000000"  style="stroke: black; stroke-linecap:round; stroke-width:0.25; stroke-dasharray:3,3;"/>
<line x1="429.825000" y1="25.000000" x2="437.800000" y2="25.000000"  style="stroke: black; stroke-linecap:round; stroke-width:0.25; stroke-dasharray:3,3;"/>
<text x="400.800000" y="27.000000" font-family="Arial" font-size="7">poisMin</text>
<a xlink:href="ms-0x21d9ad0.svg">
<rect x="405.800000" y="77.000000" width="24.000000" height="24.000000" rx="0" ry="0" style="stroke:none;fill:#cccccc;"/>
<rect x="404.800000" y="76.000000" width="24.000000" height="24.000000" rx="0" ry="0" style="stroke:none;fill:#003366;"/>
</a>
<a xlink:href="ms-0x21d9ad0.svg">
<text x="416.800000" y="90.000000" font-family="Arial" font-size="7" text-anchor="middle" fill="#FFFFFF">ms</text>
</a>
<circle cx="406.800000" cy="78.000000" r="1"/>
<rect x="455.800000" y="51.000000" width="24.000000" height="24.000000" rx="0" ry="0" style="stroke:none;fill:#cccccc;"/>
<rect x="454.800000" y="50.000000" width="24.000000" height="24.000000" rx="0" ry="0" style="stroke:none;fill:#4B71A1;"/>
<text x="466.800000" y="64.000000" font-family="Arial" font-size="7" text-anchor="middle" fill="#FFFFFF">*</text>
<circle cx="456.800000" cy="52.000000" r="1"/>
<line x1="451.800000" y1="57.000000" x2="454.800000" y2="58.000000"  transform="rotate(0.000000,454.800000,58.000000)" style="stroke: black; stroke-width:0.25;"/>
<line x1="451.800000" y1="59.000000" x2="454.800000" y2="58.000000"  transform="rotate(0.000000,454.800000,58.000000)" style="stroke: black; stroke-width:0.25;"/>
<line x1="451.800000" y1="65.000000" x2="454.800000" y2="66.000000"  transform="rotate(0.000000,454.800000,66.000000)" style="stroke: black; stroke-width:0.25;"/>
<line x1="451.800000" y1="67.000000" x2="454.800000" y2="66.000000"  transform="rotate(0.000000,454.800000,66.000000)" style="stroke: black; stroke-width:0.25;"/>
<rect x="495.800000" y="55.000000" width="24.000000" height="24.000000" rx="0" ry="0" style="stroke:none;fill:#cccccc;"/>
<rect x="494.800000" y="54.000000" width="24.000000" height="24.000000" rx="0" ry="0" style="stroke:none;fill:#4B71A1;"/>
<text x="506.800000" y="68.000000" font-family="Arial" font-size="7" text-anchor="middle" fill="#FFFFFF">max</text>
<circle cx="496.800000" cy="56.000000" r="1"/>
<line x1="491.800000" y1="61.000000" x2="494.800000" y2="62.000000"  transform="rotate(0.000000,494.800000,62.000000)" style="stroke: black; stroke-width:0.25;"/>
<line x1="491.800000" y1="63.000000" x2="494.800000" y2="62.000000"  transform="rotate(0.000000,494.800000,62.000000)" style="stroke: black; stroke-width:0.25;"/>
<line x1="491.800000" y1="69.000000" x2="494.800000" y2="70.000000"  transform="rotate(0.000000,494.800000,70.000000)" style="stroke: black; stroke-width:0.25;"/>
<line x1="491.800000" y1="71.000000" x2="494.800000" y2="70.000000"  transform="rotate(0.000000,494.800000,70.000000)" style="stroke: black; stroke-width:0.25;"/>
<rect x="545.800000" y="35.000000" width="25.800000" height="24.000000" rx="0" ry="0" style="stroke:none;fill:#cccccc;"/>
<rect x="544.800000" y="34.000000" width="25.800000" height="24.000000" rx="0" ry="0" style="stroke:none;fill:#f44800;"/>
<text x="557.700000" y="48.000000" font-family="Arial" font-size="7" text-anchor="middle" fill="#FFFFFF">4444</text>
<circle cx="546.800000" cy="36.000000" r="1"/>
<line x1="535.800000" y1="25.000000" x2="535.800000" y2="67.000000"  style="stroke: black; stroke-linecap:round; stroke-width:0.25; stroke-dasharray:3,3;"/>
<line x1="535.800000" y1="67.000000" x2="579.600000" y2="67.000000"  style="stroke: black; stroke-linecap:round; stroke-width:0.25; stroke-dasharray:3,3;"/>
<line x1="579.600000" y1="67.000000" x2="579.600000" y2="25.000000"  style="stroke: black; stroke-linecap:round; stroke-width:0.25; stroke-dasharray:3,3;"/>
<line x1="535.800000" y1="25.000000" x2="540.800000" y2="25.000000"  style="stroke: black; stroke-linecap:round; stroke-width:0.25; stroke-dasharray:3,3;"/>
<line x1="569.825000" y1="25.000000" x2="579.600000" y2="25.000000"  style="stroke: black; stroke-linecap:round; stroke-width:0.25; stroke-dasharray:3,3;"/>
<text x="540.800000" y="27.000000" font-family="Arial" font-size="7">poisMax</text>
<a xlink:href="ms-0x21d9ad0.svg">
<rect x="546.700000" y="77.000000" width="24.000000" height="24.000000" rx="0" ry="0" style="stroke:none;fill:#cccccc;"/>
<rect x="545.700000" y="76.000000" width="24.000000" height="24.000000" rx="0" ry="0" style="stroke:none;fill:#003366;"/>
</a>
<a xlink:href="ms-0x21d9ad0.svg">
<text x="557.700000" y="90.000000" font-family="Arial" font-size="7" text-anchor="middle" fill="#FFFFFF">ms</text>
</a>
<circle cx="547.700000" cy="78.000000" r="1"/>
<rect x="597.600000" y="51.000000" width="24.000000" height="24.000000" rx="0" ry="0" style="stroke:none;fill:#cccccc;"/>
<rect x="596.600000" y="50.000000" width="24.000000" height="24.000000" rx="0" ry="0" style="stroke:none;fill:#4B71A1;"/>
<text x="608.600000" y="64.000000" font-family="Arial" font-size="7" text-anchor="middle" fill="#FFFFFF">*</text>
<circle cx="598.600000" cy="52.000000" r="1"/>
<line x1="593.600000" y1="57.000000" x2="596.600000" y2="58.000000"  transform="rotate(0.000000,596.600000,58.000000)" style="stroke: black; stroke-width:0.25;"/>
<line x1="593.600000" y1="59.000000" x2="596.600000" y2="58.000000"  transform="rotate(0.000000,596.600000,58.000000)" style="stroke: black; stroke-width:0.25;"/>
<line x1="593.600000" y1="65.000000" x2="596.600000" y2="66.000000"  transform="rotate(0.000000,596.600000,66.000000)" style="stroke: black; stroke-width:0.25;"/>
<line x1="593.600000" y1="67.000000" x2="596.600000" y2="66.000000"  transform="rotate(0.000000,596.600000,66.000000)" style="stroke: black; stroke-width:0.25;"/>
<rect x="637.600000" y="55.000000" width="24.000000" height="24.000000" rx="0" ry="0" style="stroke:none;fill:#cccccc;"/>
<rect x="636.600000" y="54.000000" width="24.000000" height="24.000000" rx="0" ry="0" style="stroke:none;fill:#4B71A1;"/>
<text x="648.600000" y="68.000000" font-family="Arial" font-size="7" text-anchor="middle" fill="#FFFFFF">min</text>
<circle cx="638.600000" cy="56.000000" r="1"/>
<line x1="633.600000" y1="61.000000" x2="636.600000" y2="62.000000"  transform="rotate(0.000000,636.600000,62.000000)" style="stroke: black; stroke-width:0.25;"/>
<line x1="633.600000" y1="63.000000" x2="636.600000" y2="62.000000"  transform="rotate(0.000000,636.600000,62.000000)" style="stroke: black; stroke-width:0.25;"/>
<line x1="633.600000" y1="69.000000" x2="636.600000" y2="70.000000"  transform="rotate(0.000000,636.600000,70.000000)" style="stroke: black; stroke-width:0.25;"/>
<line x1="633.600000" y1="71.000000" x2="636.600000" y2="70.000000"  transform="rotate(0.000000,636.600000,70.000000)" style="stroke: black; stroke-width:0.25;"/>
<a xlink:href="ms-0x21d9ad0.svg">
<rect x="677.600000" y="59.000000" width="24.000000" height="24.000000" rx="0" ry="0" style="stroke:none;fill:#cccccc;"/>
<rect x="676.600000" y="58.000000" width="24.000000" height="24.000000" rx="0" ry="0" style="stroke:none;fill:#003366;"/>
</a>
<a xlink:href="ms-0x21d9ad0.svg">
<text x="688.600000" y="72.000000" font-family="Arial" font-size="7" text-anchor="middle" fill="#FFFFFF">ms</text>
</a>
<circle cx="678.600000" cy="60.000000" r="1"/>
<rect x="717.600000" y="55.000000" width="24.000000" height="24.000000" rx="0" ry="0" style="stroke:none;fill:#cccccc;"/>
<rect x="716.600000" y="54.000000" width="24.000000" height="24.000000" rx="0" ry="0" style="stroke:none;fill:#4B71A1;"/>
<text x="728.600000" y="68.000000" font-family="Arial" font-size="7" text-anchor="middle" fill="#FFFFFF">/</text>
<circle cx="718.600000" cy="56.000000" r="1"/>
<line x1="713.600000" y1="61.000000" x2="716.600000" y2="62.000000"  transform="rotate(0.000000,716.600000,62.000000)" style="stroke: black; stroke-width:0.25;"/>
<line x1="713.600000" y1="63.000000" x2="716.600000" y2="62.000000"  transform="rotate(0.000000,716.600000,62.000000)" style="stroke: black; stroke-width:0.25;"/>
<line x1="713.600000" y1="69.000000" x2="716.600000" y2="70.000000"  transform="rotate(0.000000,716.600000,70.000000)" style="stroke: black; stroke-width:0.25;"/>
<line x1="713.600000" y1="71.000000" x2="716.600000" y2="70.000000"  transform="rotate(0.000000,716.600000,70.000000)" style="stroke: black; stroke-width:0.25;"/>
<line x1="15.000000" y1="15.000000" x2="15.000000" y2="117.000000"  style="stroke: black; stroke-linecap:round; stroke-width:0.25; stroke-dasharray:3,3;"/>
<line x1="15.000000" y1="117.000000" x2="757.600000" y2="117.000000"  style="stroke: black; stroke-linecap:round; stroke-width:0.25; stroke-dasharray:3,3;"/>
<line x1="757.600000" y1="117.000000" x2="757.600000" y2="15.000000"  style="stroke: black; stroke-linecap:round; stroke-width:0.25; stroke-dasharray:3,3;"/>
<line x1="15.000000" y1="15.000000" x2="20.000000" y2="15.000000"  style="stroke: black; stroke-linecap:round; stroke-width:0.25; stroke-dasharray:3,3;"/>
<line x1="49.025000" y1="15.000000" x2="757.600000" y2="15.000000"  style="stroke: black; stroke-linecap:round; stroke-width:0.25; stroke-dasharray:3,3;"/>
<text x="20.000000" y="17.000000" font-family="Arial" font-size="7">pois(8)</text>
<line x1="759.600000" y1="65.000000" x2="762.600000" y2="66.000000"  transform="rotate(0.000000,762.600000,66.000000)" style="stroke: black; stroke-width:0.25;"/>
<line x1="759.600000" y1="67.000000" x2="762.600000" y2="66.000000"  transform="rotate(0.000000,762.600000,66.000000)" style="stroke: black; stroke-width:0.25;"/>
<line x1="28.000000" y1="42.000000" x2="28.000000" y2="86.000000"  style="stroke:black; stroke-linecap:round; stroke-width:0.25;"/>
<line x1="28.000000" y1="86.000000" x2="36.000000" y2="86.000000"  style="stroke:black; stroke-linecap:round; stroke-width:0.25;"/>
<line x1="36.000000" y1="42.000000" x2="28.000000" y2="42.000000"  style="stroke:black; stroke-linecap:round; stroke-width:0.25;"/>
<line x1="36.000000" y1="50.000000" x2="36.000000" y2="50.000000"  style="stroke:black; stroke-linecap:round; stroke-width:0.25;"/>
<line x1="36.000000" y1="50.000000" x2="36.000000" y2="78.000000"  style="stroke:black; stroke-linecap:round; stroke-width:0.25;"/>
<line x1="36.000000" y1="78.000000" x2="36.000000" y2="78.000000"  style="stroke:black; stroke-linecap:round; stroke-width:0.25;"/>
<line x1="36.000000" y1="78.000000" x2="40.000000" y2="78.000000"  style="stroke:black; stroke-linecap:round; stroke-width:0.25;"/>
<line x1="36.000000" y1="86.000000" x2="40.000000" y2="86.000000"  style="stroke:black; stroke-linecap:round; stroke-width:0.25;"/>
<line x1="168.050000" y1="42.000000" x2="36.000000" y2="42.000000"  style="stroke:black; stroke-linecap:round; stroke-width:0.25;"/>
<line x1="168.050000" y1="50.000000" x2="36.000000" y2="50.000000"  style="stroke:black; stroke-linecap:round; stroke-width:0.25;"/>
<line x1="169.000000" y1="82.000000" x2="173.000000" y2="82.000000"  style="stroke:black; stroke-linecap:round; stroke-width:0.25;"/>
<line x1="172.050000" y1="42.000000" x2="168.050000" y2="42.000000"  style="stroke:black; stroke-linecap:round; stroke-width:0.25;"/>
<line x1="172.050000" y1="50.000000" x2="168.050000" y2="50.000000"  style="stroke:black; stroke-linecap:round; stroke-width:0.25;"/>
<line x1="173.000000" y1="82.000000" x2="173.000000" y2="82.000000"  style="stroke:black; stroke-linecap:round; stroke-width:0.25;"/>
<line x1="173.000000" y1="82.000000" x2="177.000000" y2="82.000000"  style="stroke:black; stroke-linecap:round; stroke-width:0.25;"/>
<line x1="176.050000" y1="42.000000" x2="172.050000" y2="42.000000"  style="stroke:black; stroke-linecap:round; stroke-width:0.25;"/>
<line x1="176.050000" y1="50.000000" x2="172.050000" y2="50.000000"  style="stroke:black; stroke-linecap:round; stroke-width:0.25;"/>
<line x1="188.050000" y1="46.000000" x2="176.050000" y2="42.000000"  style="stroke:black; stroke-linecap:round; stroke-width:0.25;"/>
<line x1="188.050000" y1="46.000000" x2="176.050000" y2="50.000000"  style="stroke:black; stroke-linecap:round; stroke-width:0.25;"/>
<line x1="192.050000" y1="46.000000" x2="188.050000" y2="46.000000"  style="stroke:black; stroke-linecap:round; stroke-width:0.25;"/>
<line x1="201.000000" y1="82.000000" x2="205.000000" y2="82.000000"  style="stroke:black; stroke-linecap:round; stroke-width:0.25;"/>
<line x1="205.000000" y1="66.000000" x2="213.000000" y2="66.000000"  style="stroke:black; stroke-linecap:round; stroke-width:0.25;"/>
<line x1="205.000000" y1="82.000000" x2="205.000000" y2="66.000000"  style="stroke:black; stroke-linecap:round; stroke-width:0.25;"/>
<line x1="205.000000" y1="82.000000" x2="205.000000" y2="82.000000"  style="stroke:black; stroke-linecap:round; stroke-width:0.25;"/>
<line x1="213.000000" y1="66.000000" x2="229.900000" y2="66.000000"  style="stroke:black; stroke-linecap:round; stroke-width:0.25;"/>
<line x1="229.900000" y1="66.000000" x2="246.800000" y2="66.000000"  style="stroke:black; stroke-linecap:round; stroke-width:0.25;"/>
<line x1="234.750000" y1="46.000000" x2="230.750000" y2="46.000000"  style="stroke:black; stroke-linecap:round; stroke-width:0.25;"/>
<line x1="242.800000" y1="86.000000" x2="246.800000" y2="86.000000"  style="stroke:black; stroke-linecap:round; stroke-width:0.25;"/>
<line x1="246.800000" y1="66.000000" x2="254.800000" y2="66.000000"  style="stroke:black; stroke-linecap:round; stroke-width:0.25;"/>
<line x1="246.800000" y1="86.000000" x2="254.800000" y2="86.000000"  style="stroke:black; stroke-linecap:round; stroke-width:0.25;"/>
<line x1="254.800000" y1="66.000000" x2="254.800000" y2="78.000000"  style="stroke:black; stroke-linecap:round; stroke-width:0.25;"/>
<line x1="254.800000" y1="78.000000" x2="254.800000" y2="78.000000"  style="stroke:black; stroke-linecap:round; stroke-width:0.25;"/>
<line x1="254.800000" y1="78.000000" x2="258.800000" y2="78.000000"  style="stroke:black; stroke-linecap:round; stroke-width:0.25;"/>
<line x1="254.800000" y1="86.000000" x2="258.800000" y2="86.000000"  style="stroke:black; stroke-linecap:round; stroke-width:0.25;"/>
<line x1="282.800000" y1="82.000000" x2="286.800000" y2="82.000000"  style="stroke:black; stroke-linecap:round; stroke-width:0.25;"/>
<line x1="286.800000" y1="66.000000" x2="294.800000" y2="66.000000"  style="stroke:black; stroke-linecap:round; stroke-width:0.25;"/>
<line x1="286.800000" y1="82.000000" x2="286.800000" y2="66.000000"  style="stroke:black; stroke-linecap:round; stroke-width:0.25;"/>
<line x1="286.800000" y1="82.000000" x2="286.800000" y2="82.000000"  style="stroke:black; stroke-linecap:round; stroke-width:0.25;"/>
<line x1="294.800000" y1="66.000000" x2="310.800000" y2="66.000000"  style="stroke:black; stroke-linecap:round; stroke-width:0.25;"/>
<line x1="310.800000" y1="66.000000" x2="326.800000" y2="66.000000"  style="stroke:black; stroke-linecap:round; stroke-width:0.25;"/>
<line x1="322.800000" y1="86.000000" x2="326.800000" y2="86.000000"  style="stroke:black; stroke-linecap:round; stroke-width:0.25;"/>
<line x1="326.800000" y1="66.000000" x2="334.800000" y2="66.000000"  style="stroke:black; stroke-linecap:round; stroke-width:0.25;"/>
<line x1="326.800000" y1="86.000000" x2="334.800000" y2="86.000000"  style="stroke:black; stroke-linecap:round; stroke-width:0.25;"/>
<line x1="334.800000" y1="66.000000" x2="334.800000" y2="78.000000"  style="stroke:black; stroke-linecap:round; stroke-width:0.25;"/>
<line x1="334.800000" y1="78.000000" x2="334.800000" y2="78.000000"  style="stroke:black; stroke-linecap:round; stroke-width:0.25;"/>
<line x1="334.800000" y1="78.000000" x2="338.800000" y2="78.000000"  style="stroke:black; stroke-linecap:round; stroke-width:0.25;"/>
<line x1="334.800000" y1="86.000000" x2="338.800000" y2="86.000000"  style="stroke:black; stroke-linecap:round; stroke-width:0.25;"/>
<line x1="362.800000" y1="82.000000" x2="366.800000" y2="82.000000"  style="stroke:black; stroke-linecap:round; stroke-width:0.25;"/>
<line x1="366.800000" y1="46.000000" x2="234.750000" y2="46.000000"  style="stroke:black; stroke-linecap:round; stroke-width:0.25;"/>
<line x1="366.800000" y1="46.000000" x2="366.800000" y2="46.000000"  style="stroke:black; stroke-linecap:round; stroke-width:0.25;"/>
<line x1="366.800000" y1="78.000000" x2="366.800000" y2="46.000000"  style="stroke:black; stroke-linecap:round; stroke-width:0.25;"/>
<line x1="366.800000" y1="82.000000" x2="368.800000" y2="82.000000"  style="stroke:black; stroke-linecap:round; stroke-width:0.25;"/>
<line x1="368.800000" y1="82.000000" x2="382.800000" y2="82.000000"  style="stroke:black; stroke-linecap:round; stroke-width:0.25;"/>
<line x1="382.800000" y1="82.000000" x2="390.800000" y2="82.000000"  style="stroke:black; stroke-linecap:round; stroke-width:0.25;"/>
<line x1="390.800000" y1="82.000000" x2="390.800000" y2="108.000000"  style="stroke:black; stroke-linecap:round; stroke-width:0.25;"/>
<line x1="390.800000" y1="108.000000" x2="390.800000" y2="108.000000"  style="stroke:black; stroke-linecap:round; stroke-width:0.25;"/>
<line x1="390.800000" y1="108.000000" x2="436.800000" y2="108.000000"  style="stroke:black; stroke-linecap:round; stroke-width:0.25;"/>
<line x1="428.800000" y1="46.000000" x2="432.800000" y2="46.000000"  style="stroke:black; stroke-linecap:round; stroke-width:0.25;"/>
<line x1="428.800000" y1="88.000000" x2="432.800000" y2="88.000000"  style="stroke:black; stroke-linecap:round; stroke-width:0.25;"/>
<line x1="432.800000" y1="46.000000" x2="442.800000" y2="46.000000"  style="stroke:black; stroke-linecap:round; stroke-width:0.25;"/>
<line x1="432.800000" y1="88.000000" x2="442.800000" y2="88.000000"  style="stroke:black; stroke-linecap:round; stroke-width:0.25;"/>
<line x1="436.800000" y1="108.000000" x2="482.800000" y2="108.000000"  style="stroke:black; stroke-linecap:round; stroke-width:0.25;"/>
<line x1="442.800000" y1="46.000000" x2="450.800000" y2="46.000000"  style="stroke:black; stroke-linecap:round; stroke-width:0.25;"/>
<line x1="442.800000" y1="66.000000" x2="450.800000" y2="66.000000"  style="stroke:black; stroke-linecap:round; stroke-width:0.25;"/>
<line x1="442.800000" y1="88.000000" x2="442.800000" y2="66.000000"  style="stroke:black; stroke-linecap:round; stroke-width:0.25;"/>
<line x1="442.800000" y1="88.000000" x2="442.800000" y2="88.000000"  style="stroke:black; stroke-linecap:round; stroke-width:0.25;"/>
<line x1="450.800000" y1="46.000000" x2="450.800000" y2="58.000000"  style="stroke:black; stroke-linecap:round; stroke-width:0.25;"/>
<line x1="450.800000" y1="58.000000" x2="450.800000" y2="58.000000"  style="stroke:black; stroke-linecap:round; stroke-width:0.25;"/>
<line x1="450.800000" y1="58.000000" x2="454.800000" y2="58.000000"  style="stroke:black; stroke-linecap:round; stroke-width:0.25;"/>
<line x1="450.800000" y1="66.000000" x2="454.800000" y2="66.000000"  style="stroke:black; stroke-linecap:round; stroke-width:0.25;"/>
<line x1="478.800000" y1="62.000000" x2="482.800000" y2="62.000000"  style="stroke:black; stroke-linecap:round; stroke-width:0.25;"/>
<line x1="482.800000" y1="62.000000" x2="490.800000" y2="62.000000"  style="stroke:black; stroke-linecap:round; stroke-width:0.25;"/>
<line x1="482.800000" y1="70.000000" x2="490.800000" y2="70.000000"  style="stroke:black; stroke-linecap:round; stroke-width:0.25;"/>
<line x1="482.800000" y1="108.000000" x2="482.800000" y2="70.000000"  style="stroke:black; stroke-linecap:round; stroke-width:0.25;"/>
<line x1="482.800000" y1="108.000000" x2="482.800000" y2="108.000000"  style="stroke:black; stroke-linecap:round; stroke-width:0.25;"/>
<line x1="490.800000" y1="62.000000" x2="494.800000" y2="62.000000"  style="stroke:black; stroke-linecap:round; stroke-width:0.25;"/>
<line x1="490.800000" y1="70.000000" x2="494.800000" y2="70.000000"  style="stroke:black; stroke-linecap:round; stroke-width:0.25;"/>
<line x1="518.800000" y1="66.000000" x2="522.800000" y2="66.000000"  style="stroke:black; stroke-linecap:round; stroke-width:0.25;"/>
<line x1="522.800000" y1="66.000000" x2="530.800000" y2="66.000000"  style="stroke:black; stroke-linecap:round; stroke-width:0.25;"/>
<line x1="530.800000" y1="66.000000" x2="530.800000" y2="108.000000"  style="stroke:black; stroke-linecap:round; stroke-width:0.25;"/>
<line x1="530.800000" y1="108.000000" x2="530.800000" y2="108.000000"  style="stroke:black; stroke-linecap:round; stroke-width:0.25;"/>
<line x1="530.800000" y1="108.000000" x2="577.700000" y2="108.000000"  style="stroke:black; stroke-linecap:round; stroke-width:0.25;"/>
<line x1="569.700000" y1="88.000000" x2="573.700000" y2="88.000000"  style="stroke:black; stroke-linecap:round; stroke-width:0.25;"/>
<line x1="570.600000" y1="46.000000" x2="574.600000" y2="46.000000"  style="stroke:black; stroke-linecap:round; stroke-width:0.25;"/>
<line x1="573.700000" y1="88.000000" x2="584.600000" y2="88.000000"  style="stroke:black; stroke-linecap:round; stroke-width:0.25;"/>
<line x1="574.600000" y1="46.000000" x2="584.600000" y2="46.000000"  style="stroke:black; stroke-linecap:round; stroke-width:0.25;"/>
<line x1="577.700000" y1="108.000000" x2="624.600000" y2="108.000000"  style="stroke:black; stroke-linecap:round; stroke-width:0.25;"/>
<line x1="584.600000" y1="46.000000" x2="592.600000" y2="46.000000"  style="stroke:black; stroke-linecap:round; stroke-width:0.25;"/>
<line x1="584.600000" y1="66.000000" x2="592.600000" y2="66.000000"  style="stroke:black; stroke-linecap:round; stroke-width:0.25;"/>
<line x1="584.600000" y1="88.000000" x2="584.600000" y2="66.000000"  style="stroke:black; stroke-linecap:round; stroke-width:0.25;"/>
<line x1="584.600000" y1="88.000000" x2="584.600000" y2="88.000000"  style="stroke:black; stroke-linecap:round; stroke-width:0.25;"/>
<line x1="592.600000" y1="46.000000" x2="592.600000" y2="58.000000"  style="stroke:black; stroke-linecap:round; stroke-width:0.25;"/>
<line x1="592.600000" y1="58.000000" x2="592.600000" y2="58.000000"  style="stroke:black; stroke-linecap:round; stroke-width:0.25;"/>
<line x1="592.600000" y1="58.000000" x2="596.600000" y2="58.000000"  style="stroke:black; stroke-linecap:round; stroke-width:0.25;"/>
<line x1="592.600000" y1="66.000000" x2="596.600000" y2="66.000000"  style="stroke:black; stroke-linecap:round; stroke-width:0.25;"/>
<line x1="620.600000" y1="62.000000" x2="624.600000" y2="62.000000"  style="stroke:black; stroke-linecap:round; stroke-width:0.25;"/>
<line x1="624.600000" y1="62.000000" x2="632.600000" y2="62.000000"  style="stroke:black; stroke-linecap:round; stroke-width:0.25;"/>
<line x1="624.600000" y1="70.000000" x2="632.600000" y2="70.000000"  style="stroke:black; stroke-linecap:round; stroke-width:0.25;"/>
<line x1="624.600000" y1="108.000000" x2="624.600000" y2="70.000000"  style="stroke:black; stroke-linecap:round; stroke-width:0.25;"/>
<line x1="624.600000" y1="108.000000" x2="624.600000" y2="108.000000"  style="stroke:black; stroke-linecap:round; stroke-width:0.25;"/>
<line x1="632.600000" y1="62.000000" x2="636.600000" y2="62.000000"  style="stroke:black; stroke-linecap:round; stroke-width:0.25;"/>
<line x1="632.600000" y1="70.000000" x2="636.600000" y2="70.000000"  style="stroke:black; stroke-linecap:round; stroke-width:0.25;"/>
<line x1="660.600000" y1="66.000000" x2="664.600000" y2="66.000000"  style="stroke:black; stroke-linecap:round; stroke-width:0.25;"/>
<line x1="664.600000" y1="50.000000" x2="672.600000" y2="50.000000"  style="stroke:black; stroke-linecap:round; stroke-width:0.25;"/>
<line x1="664.600000" y1="66.000000" x2="664.600000" y2="50.000000"  style="stroke:black; stroke-linecap:round; stroke-width:0.25;"/>
<line x1="664.600000" y1="66.000000" x2="664.600000" y2="66.000000"  style="stroke:black; stroke-linecap:round; stroke-width:0.25;"/>
<line x1="672.600000" y1="50.000000" x2="688.600000" y2="50.000000"  style="stroke:black; stroke-linecap:round; stroke-width:0.25;"/>
<line x1="688.600000" y1="50.000000" x2="704.600000" y2="50.000000"  style="stroke:black; stroke-linecap:round; stroke-width:0.25;"/>
<line x1="700.600000" y1="70.000000" x2="704.600000" y2="70.000000"  style="stroke:black; stroke-linecap:round; stroke-width:0.25;"/>
<line x1="704.600000" y1="50.000000" x2="712.600000" y2="50.000000"  style="stroke:black; stroke-linecap:round; stroke-width:0.25;"/>
<line x1="704.600000" y1="70.000000" x2="712.600000" y2="70.000000"  style="stroke:black; stroke-linecap:round; stroke-width:0.25;"/>
<line x1="712.600000" y1="50.000000" x2="712.600000" y2="62.000000"  style="stroke:black; stroke-linecap:round; stroke-width:0.25;"/>
<line x1="712.600000" y1="62.000000" x2="712.600000" y2="62.000000"  style="stroke:black; stroke-linecap:round; stroke-width:0.25;"/>
<line x1="712.600000" y1="62.000000" x2="716.600000" y2="62.000000"  style="stroke:black; stroke-linecap:round; stroke-width:0.25;"/>
<line x1="712.600000" y1="70.000000" x2="716.600000" y2="70.000000"  style="stroke:black; stroke-linecap:round; stroke-width:0.25;"/>
<line x1="740.600000" y1="66.000000" x2="744.600000" y2="66.000000"  style="stroke:black; stroke-linecap:round; stroke-width:0.25;"/>
<line x1="744.600000" y1="66.000000" x2="744.600000" y2="66.000000"  style="stroke:black; stroke-linecap:round; stroke-width:0.25;"/>
<line x1="744.600000" y1="66.000000" x2="748.600000" y2="66.000000"  style="stroke:black; stroke-linecap:round; stroke-width:0.25;"/>
<line x1="748.600000" y1="66.000000" x2="752.600000" y2="66.000000"  style="stroke:black; stroke-linecap:round; stroke-width:0.25;"/>
<line x1="752.600000" y1="66.000000" x2="762.600000" y2="66.000000"  style="stroke:black; stroke-linecap:round; stroke-width:0.25;"/>
</svg>
