<?xml version="1.0"?>
<svg xmlns="http://www.w3.org/2000/svg" xmlns:xlink="http://www.w3.org/1999/xlink" viewBox="0 0 669.800000 296.000000" width="334.900000mm" height="148.000000mm" version="1.1">
<a xlink:href="process.svg">
<rect x="1.000000" y="1.000000" width="668.800000" height="295.000000" rx="0" ry="0" style="stroke:none;fill:#cccccc;"/>
<rect x="0.000000" y="0.000000" width="668.800000" height="295.000000" rx="0" ry="0" style="stroke:none;fill:#ffffff;"/>
</a>
<text x="10.000000" y="7.000000" font-family="Arial" font-size="7"></text>
<a xlink:href="cleanVolume-0x2e570980.svg">
<rect x="73.700000" y="25.000000" width="51.600000" height="24.000000" rx="0" ry="0" style="stroke:none;fill:#cccccc;"/>
<rect x="72.700000" y="24.000000" width="51.600000" height="24.000000" rx="0" ry="0" style="stroke:none;fill:#003366;"/>
</a>
<a xlink:href="cleanVolume-0x2e570980.svg">
<text x="98.500000" y="38.000000" font-family="Arial" font-size="7" text-anchor="middle" fill="#FFFFFF">cleanVolume</text>
</a>
<circle cx="74.700000" cy="26.000000" r="1"/>
<a xlink:href="cleanChorus-0x2e5612e0.svg">
<rect x="73.700000" y="57.000000" width="51.600000" height="24.000000" rx="0" ry="0" style="stroke:none;fill:#cccccc;"/>
<rect x="72.700000" y="56.000000" width="51.600000" height="24.000000" rx="0" ry="0" style="stroke:none;fill:#003366;"/>
</a>
<a xlink:href="cleanChorus-0x2e5612e0.svg">
<text x="98.500000" y="70.000000" font-family="Arial" font-size="7" text-anchor="middle" fill="#FFFFFF">cleanChorus</text>
</a>
<circle cx="74.700000" cy="58.000000" r="1"/>
<a xlink:href="cleanpmFX-0x2e551b60.svg">
<rect x="80.150000" y="89.000000" width="38.700000" height="24.000000" rx="0" ry="0" style="stroke:none;fill:#cccccc;"/>
<rect x="79.150000" y="88.000000" width="38.700000" height="24.000000" rx="0" ry="0" style="stroke:none;fill:#003366;"/>
</a>
<a xlink:href="cleanpmFX-0x2e551b60.svg">
<text x="98.500000" y="102.000000" font-family="Arial" font-size="7" text-anchor="middle" fill="#FFFFFF">cleanpmFX</text>
</a>
<circle cx="81.150000" cy="90.000000" r="1"/>
<a xlink:href="voice-0x2e67ac30.svg">
<rect x="25.000000" y="121.000000" width="129.000000" height="24.000000" rx="0" ry="0" style="stroke:none;fill:#cccccc;"/>
<rect x="24.000000" y="120.000000" width="129.000000" height="24.000000" rx="0" ry="0" style="stroke:none;fill:#003366;"/>
</a>
<a xlink:href="voice-0x2e67ac30.svg">
<text x="88.500000" y="134.000000" font-family="Arial" font-size="7" text-anchor="middle" fill="#FFFFFF">voice(x1)((((...))) : attach)</text>
</a>
<circle cx="26.000000" cy="122.000000" r="1"/>
<a xlink:href="vocoderVolume-0x2d60ff20.svg">
<rect x="67.250000" y="153.000000" width="64.500000" height="24.000000" rx="0" ry="0" style="stroke:none;fill:#cccccc;"/>
<rect x="66.250000" y="152.000000" width="64.500000" height="24.000000" rx="0" ry="0" style="stroke:none;fill:#003366;"/>
</a>
<a xlink:href="vocoderVolume-0x2d60ff20.svg">
<text x="98.500000" y="166.000000" font-family="Arial" font-size="7" text-anchor="middle" fill="#FFFFFF">vocoderVolume</text>
</a>
<circle cx="68.250000" cy="154.000000" r="1"/>
<a xlink:href="vocoderChorus-0x2d6006b0.svg">
<rect x="67.250000" y="185.000000" width="64.500000" height="24.000000" rx="0" ry="0" style="stroke:none;fill:#cccccc;"/>
<rect x="66.250000" y="184.000000" width="64.500000" height="24.000000" rx="0" ry="0" style="stroke:none;fill:#003366;"/>
</a>
<a xlink:href="vocoderChorus-0x2d6006b0.svg">
<text x="98.500000" y="198.000000" font-family="Arial" font-size="7" text-anchor="middle" fill="#FFFFFF">vocoderChorus</text>
</a>
<circle cx="68.250000" cy="186.000000" r="1"/>
<a xlink:href="vocoderpmFX-0x2d5f0bd0.svg">
<rect x="73.700000" y="217.000000" width="51.600000" height="24.000000" rx="0" ry="0" style="stroke:none;fill:#cccccc;"/>
<rect x="72.700000" y="216.000000" width="51.600000" height="24.000000" rx="0" ry="0" style="stroke:none;fill:#003366;"/>
</a>
<a xlink:href="vocoderpmFX-0x2d5f0bd0.svg">
<text x="98.500000" y="230.000000" font-family="Arial" font-size="7" text-anchor="middle" fill="#FFFFFF">vocoderpmFX</text>
</a>
<circle cx="74.700000" cy="218.000000" r="1"/>
<a xlink:href="StereoVocoder-0x3012e260.svg">
<rect x="35.000000" y="249.000000" width="129.000000" height="24.000000" rx="0" ry="0" style="stroke:none;fill:#cccccc;"/>
<rect x="34.000000" y="248.000000" width="129.000000" height="24.000000" rx="0" ry="0" style="stroke:none;fill:#003366;"/>
</a>
<a xlink:href="StereoVocoder-0x3012e260.svg">
<text x="98.500000" y="262.000000" font-family="Arial" font-size="7" text-anchor="middle" fill="#FFFFFF">StereoVocoder...: select2)~_)</text>
</a>
<circle cx="36.000000" cy="250.000000" r="1"/>
<a xlink:href="mixerWithSends-0x6da9bf0.svg">
<rect x="222.000000" y="109.000000" width="103.200000" height="80.000000" rx="0" ry="0" style="stroke:none;fill:#cccccc;"/>
<rect x="221.000000" y="108.000000" width="103.200000" height="80.000000" rx="0" ry="0" style="stroke:none;fill:#003366;"/>
</a>
<a xlink:href="mixerWithSends-0x6da9bf0.svg">
<text x="272.600000" y="150.000000" font-family="Arial" font-size="7" text-anchor="middle" fill="#FFFFFF">mixerWithSends(2)(2)(3)</text>
</a>
<circle cx="223.000000" cy="110.000000" r="1"/>
<line x1="218.000000" y1="111.000000" x2="221.000000" y2="112.000000"  transform="rotate(0.000000,221.000000,112.000000)" style="stroke: black; stroke-width:0.25;"/>
<line x1="218.000000" y1="113.000000" x2="221.000000" y2="112.000000"  transform="rotate(0.000000,221.000000,112.000000)" style="stroke: black; stroke-width:0.25;"/>
<line x1="218.000000" y1="119.000000" x2="221.000000" y2="120.000000"  transform="rotate(0.000000,221.000000,120.000000)" style="stroke: black; stroke-width:0.25;"/>
<line x1="218.000000" y1="121.000000" x2="221.000000" y2="120.000000"  transform="rotate(0.000000,221.000000,120.000000)" style="stroke: black; stroke-width:0.25;"/>
<line x1="218.000000" y1="127.000000" x2="221.000000" y2="128.000000"  transform="rotate(0.000000,221.000000,128.000000)" style="stroke: black; stroke-width:0.25;"/>
<line x1="218.000000" y1="129.000000" x2="221.000000" y2="128.000000"  transform="rotate(0.000000,221.000000,128.000000)" style="stroke: black; stroke-width:0.25;"/>
<line x1="218.000000" y1="135.000000" x2="221.000000" y2="136.000000"  transform="rotate(0.000000,221.000000,136.000000)" style="stroke: black; stroke-width:0.25;"/>
<line x1="218.000000" y1="137.000000" x2="221.000000" y2="136.000000"  transform="rotate(0.000000,221.000000,136.000000)" style="stroke: black; stroke-width:0.25;"/>
<line x1="218.000000" y1="143.000000" x2="221.000000" y2="144.000000"  transform="rotate(0.000000,221.000000,144.000000)" style="stroke: black; stroke-width:0.25;"/>
<line x1="218.000000" y1="145.000000" x2="221.000000" y2="144.000000"  transform="rotate(0.000000,221.000000,144.000000)" style="stroke: black; stroke-width:0.25;"/>
<line x1="218.000000" y1="151.000000" x2="221.000000" y2="152.000000"  transform="rotate(0.000000,221.000000,152.000000)" style="stroke: black; stroke-width:0.25;"/>
<line x1="218.000000" y1="153.000000" x2="221.000000" y2="152.000000"  transform="rotate(0.000000,221.000000,152.000000)" style="stroke: black; stroke-width:0.25;"/>
<line x1="218.000000" y1="159.000000" x2="221.000000" y2="160.000000"  transform="rotate(0.000000,221.000000,160.000000)" style="stroke: black; stroke-width:0.25;"/>
<line x1="218.000000" y1="161.000000" x2="221.000000" y2="160.000000"  transform="rotate(0.000000,221.000000,160.000000)" style="stroke: black; stroke-width:0.25;"/>
<line x1="218.000000" y1="167.000000" x2="221.000000" y2="168.000000"  transform="rotate(0.000000,221.000000,168.000000)" style="stroke: black; stroke-width:0.25;"/>
<line x1="218.000000" y1="169.000000" x2="221.000000" y2="168.000000"  transform="rotate(0.000000,221.000000,168.000000)" style="stroke: black; stroke-width:0.25;"/>
<line x1="218.000000" y1="175.000000" x2="221.000000" y2="176.000000"  transform="rotate(0.000000,221.000000,176.000000)" style="stroke: black; stroke-width:0.25;"/>
<line x1="218.000000" y1="177.000000" x2="221.000000" y2="176.000000"  transform="rotate(0.000000,221.000000,176.000000)" style="stroke: black; stroke-width:0.25;"/>
<line x1="218.000000" y1="183.000000" x2="221.000000" y2="184.000000"  transform="rotate(0.000000,221.000000,184.000000)" style="stroke: black; stroke-width:0.25;"/>
<line x1="218.000000" y1="185.000000" x2="221.000000" y2="184.000000"  transform="rotate(0.000000,221.000000,184.000000)" style="stroke: black; stroke-width:0.25;"/>
<a xlink:href="stereoChorus-0x334131f0.svg">
<rect x="411.900000" y="113.000000" width="51.600000" height="24.000000" rx="0" ry="0" style="stroke:none;fill:#cccccc;"/>
<rect x="410.900000" y="112.000000" width="51.600000" height="24.000000" rx="0" ry="0" style="stroke:none;fill:#003366;"/>
</a>
<a xlink:href="stereoChorus-0x334131f0.svg">
<text x="436.700000" y="126.000000" font-family="Arial" font-size="7" text-anchor="middle" fill="#FFFFFF">stereoChorus</text>
</a>
<circle cx="412.900000" cy="114.000000" r="1"/>
<line x1="407.900000" y1="119.000000" x2="410.900000" y2="120.000000"  transform="rotate(0.000000,410.900000,120.000000)" style="stroke: black; stroke-width:0.25;"/>
<line x1="407.900000" y1="121.000000" x2="410.900000" y2="120.000000"  transform="rotate(0.000000,410.900000,120.000000)" style="stroke: black; stroke-width:0.25;"/>
<line x1="407.900000" y1="127.000000" x2="410.900000" y2="128.000000"  transform="rotate(0.000000,410.900000,128.000000)" style="stroke: black; stroke-width:0.25;"/>
<line x1="407.900000" y1="129.000000" x2="410.900000" y2="128.000000"  transform="rotate(0.000000,410.900000,128.000000)" style="stroke: black; stroke-width:0.25;"/>
<a xlink:href="pmFX-0x33724240.svg">
<rect x="373.200000" y="145.000000" width="129.000000" height="24.000000" rx="0" ry="0" style="stroke:none;fill:#cccccc;"/>
<rect x="372.200000" y="144.000000" width="129.000000" height="24.000000" rx="0" ry="0" style="stroke:none;fill:#003366;"/>
</a>
<a xlink:href="pmFX-0x33724240.svg">
<text x="436.700000" y="158.000000" font-family="Arial" font-size="7" text-anchor="middle" fill="#FFFFFF">pmFX((((vgrou...99f : *))))))</text>
</a>
<circle cx="374.200000" cy="146.000000" r="1"/>
<line x1="369.200000" y1="155.000000" x2="372.200000" y2="156.000000"  transform="rotate(0.000000,372.200000,156.000000)" style="stroke: black; stroke-width:0.25;"/>
<line x1="369.200000" y1="157.000000" x2="372.200000" y2="156.000000"  transform="rotate(0.000000,372.200000,156.000000)" style="stroke: black; stroke-width:0.25;"/>
<a xlink:href="pmFX-0x3440c300.svg">
<rect x="373.200000" y="177.000000" width="129.000000" height="24.000000" rx="0" ry="0" style="stroke:none;fill:#cccccc;"/>
<rect x="372.200000" y="176.000000" width="129.000000" height="24.000000" rx="0" ry="0" style="stroke:none;fill:#003366;"/>
</a>
<a xlink:href="pmFX-0x3440c300.svg">
<text x="436.700000" y="190.000000" font-family="Arial" font-size="7" text-anchor="middle" fill="#FFFFFF">pmFX((((vgrou...: *))))) : -)</text>
</a>
<circle cx="374.200000" cy="178.000000" r="1"/>
<line x1="369.200000" y1="187.000000" x2="372.200000" y2="188.000000"  transform="rotate(0.000000,372.200000,188.000000)" style="stroke: black; stroke-width:0.25;"/>
<line x1="369.200000" y1="189.000000" x2="372.200000" y2="188.000000"  transform="rotate(0.000000,372.200000,188.000000)" style="stroke: black; stroke-width:0.25;"/>
<line x1="15.000000" y1="15.000000" x2="15.000000" y2="281.000000"  style="stroke: black; stroke-linecap:round; stroke-width:0.25; stroke-dasharray:3,3;"/>
<line x1="15.000000" y1="281.000000" x2="654.800000" y2="281.000000"  style="stroke: black; stroke-linecap:round; stroke-width:0.25; stroke-dasharray:3,3;"/>
<line x1="654.800000" y1="281.000000" x2="654.800000" y2="15.000000"  style="stroke: black; stroke-linecap:round; stroke-width:0.25; stroke-dasharray:3,3;"/>
<line x1="15.000000" y1="15.000000" x2="20.000000" y2="15.000000"  style="stroke: black; stroke-linecap:round; stroke-width:0.25; stroke-dasharray:3,3;"/>
<line x1="119.975000" y1="15.000000" x2="654.800000" y2="15.000000"  style="stroke: black; stroke-linecap:round; stroke-width:0.25; stroke-dasharray:3,3;"/>
<text x="20.000000" y="17.000000" font-family="Arial" font-size="7">VoiceOfFaust(...: select2)~_)</text>
<line x1="656.800000" y1="143.000000" x2="659.800000" y2="144.000000"  transform="rotate(0.000000,659.800000,144.000000)" style="stroke: black; stroke-width:0.25;"/>
<line x1="656.800000" y1="145.000000" x2="659.800000" y2="144.000000"  transform="rotate(0.000000,659.800000,144.000000)" style="stroke: black; stroke-width:0.25;"/>
<line x1="656.800000" y1="151.000000" x2="659.800000" y2="152.000000"  transform="rotate(0.000000,659.800000,152.000000)" style="stroke: black; stroke-width:0.25;"/>
<line x1="656.800000" y1="153.000000" x2="659.800000" y2="152.000000"  transform="rotate(0.000000,659.800000,152.000000)" style="stroke: black; stroke-width:0.25;"/>
<line x1="117.850000" y1="100.000000" x2="121.850000" y2="100.000000"  style="stroke:black; stroke-linecap:round; stroke-width:0.25;"/>
<line x1="121.850000" y1="100.000000" x2="177.000000" y2="100.000000"  style="stroke:black; stroke-linecap:round; stroke-width:0.25;"/>
<line x1="124.300000" y1="36.000000" x2="128.300000" y2="36.000000"  style="stroke:black; stroke-linecap:round; stroke-width:0.25;"/>
<line x1="124.300000" y1="68.000000" x2="128.300000" y2="68.000000"  style="stroke:black; stroke-linecap:round; stroke-width:0.25;"/>
<line x1="124.300000" y1="228.000000" x2="128.300000" y2="228.000000"  style="stroke:black; stroke-linecap:round; stroke-width:0.25;"/>
<line x1="128.300000" y1="36.000000" x2="177.000000" y2="36.000000"  style="stroke:black; stroke-linecap:round; stroke-width:0.25;"/>
<line x1="128.300000" y1="68.000000" x2="177.000000" y2="68.000000"  style="stroke:black; stroke-linecap:round; stroke-width:0.25;"/>
<line x1="128.300000" y1="228.000000" x2="167.000000" y2="228.000000"  style="stroke:black; stroke-linecap:round; stroke-width:0.25;"/>
<line x1="130.750000" y1="164.000000" x2="134.750000" y2="164.000000"  style="stroke:black; stroke-linecap:round; stroke-width:0.25;"/>
<line x1="130.750000" y1="196.000000" x2="134.750000" y2="196.000000"  style="stroke:black; stroke-linecap:round; stroke-width:0.25;"/>
<line x1="134.750000" y1="164.000000" x2="167.000000" y2="164.000000"  style="stroke:black; stroke-linecap:round; stroke-width:0.25;"/>
<line x1="134.750000" y1="196.000000" x2="167.000000" y2="196.000000"  style="stroke:black; stroke-linecap:round; stroke-width:0.25;"/>
<line x1="153.000000" y1="132.000000" x2="157.000000" y2="132.000000"  style="stroke:black; stroke-linecap:round; stroke-width:0.25;"/>
<line x1="157.000000" y1="132.000000" x2="169.000000" y2="128.000000"  style="stroke:black; stroke-linecap:round; stroke-width:0.25;"/>
<line x1="157.000000" y1="132.000000" x2="169.000000" y2="136.000000"  style="stroke:black; stroke-linecap:round; stroke-width:0.25;"/>
<line x1="163.000000" y1="256.000000" x2="167.000000" y2="256.000000"  style="stroke:black; stroke-linecap:round; stroke-width:0.25;"/>
<line x1="163.000000" y1="264.000000" x2="167.000000" y2="264.000000"  style="stroke:black; stroke-linecap:round; stroke-width:0.25;"/>
<line x1="167.000000" y1="164.000000" x2="177.000000" y2="164.000000"  style="stroke:black; stroke-linecap:round; stroke-width:0.25;"/>
<line x1="167.000000" y1="196.000000" x2="177.000000" y2="196.000000"  style="stroke:black; stroke-linecap:round; stroke-width:0.25;"/>
<line x1="167.000000" y1="228.000000" x2="177.000000" y2="228.000000"  style="stroke:black; stroke-linecap:round; stroke-width:0.25;"/>
<line x1="167.000000" y1="256.000000" x2="177.000000" y2="256.000000"  style="stroke:black; stroke-linecap:round; stroke-width:0.25;"/>
<line x1="167.000000" y1="264.000000" x2="177.000000" y2="264.000000"  style="stroke:black; stroke-linecap:round; stroke-width:0.25;"/>
<line x1="169.000000" y1="128.000000" x2="173.000000" y2="128.000000"  style="stroke:black; stroke-linecap:round; stroke-width:0.25;"/>
<line x1="169.000000" y1="136.000000" x2="173.000000" y2="136.000000"  style="stroke:black; stroke-linecap:round; stroke-width:0.25;"/>
<line x1="173.000000" y1="128.000000" x2="177.000000" y2="128.000000"  style="stroke:black; stroke-linecap:round; stroke-width:0.25;"/>
<line x1="173.000000" y1="136.000000" x2="177.000000" y2="136.000000"  style="stroke:black; stroke-linecap:round; stroke-width:0.25;"/>
<line x1="177.000000" y1="36.000000" x2="217.000000" y2="36.000000"  style="stroke:black; stroke-linecap:round; stroke-width:0.25;"/>
<line x1="177.000000" y1="68.000000" x2="209.000000" y2="68.000000"  style="stroke:black; stroke-linecap:round; stroke-width:0.25;"/>
<line x1="177.000000" y1="100.000000" x2="201.000000" y2="100.000000"  style="stroke:black; stroke-linecap:round; stroke-width:0.25;"/>
<line x1="177.000000" y1="128.000000" x2="193.000000" y2="128.000000"  style="stroke:black; stroke-linecap:round; stroke-width:0.25;"/>
<line x1="177.000000" y1="136.000000" x2="185.000000" y2="136.000000"  style="stroke:black; stroke-linecap:round; stroke-width:0.25;"/>
<line x1="177.000000" y1="152.000000" x2="217.000000" y2="152.000000"  style="stroke:black; stroke-linecap:round; stroke-width:0.25;"/>
<line x1="177.000000" y1="164.000000" x2="177.000000" y2="152.000000"  style="stroke:black; stroke-linecap:round; stroke-width:0.25;"/>
<line x1="177.000000" y1="164.000000" x2="177.000000" y2="164.000000"  style="stroke:black; stroke-linecap:round; stroke-width:0.25;"/>
<line x1="177.000000" y1="196.000000" x2="185.000000" y2="196.000000"  style="stroke:black; stroke-linecap:round; stroke-width:0.25;"/>
<line x1="177.000000" y1="228.000000" x2="193.000000" y2="228.000000"  style="stroke:black; stroke-linecap:round; stroke-width:0.25;"/>
<line x1="177.000000" y1="256.000000" x2="201.000000" y2="256.000000"  style="stroke:black; stroke-linecap:round; stroke-width:0.25;"/>
<line x1="177.000000" y1="264.000000" x2="209.000000" y2="264.000000"  style="stroke:black; stroke-linecap:round; stroke-width:0.25;"/>
<line x1="185.000000" y1="136.000000" x2="185.000000" y2="144.000000"  style="stroke:black; stroke-linecap:round; stroke-width:0.25;"/>
<line x1="185.000000" y1="144.000000" x2="217.000000" y2="144.000000"  style="stroke:black; stroke-linecap:round; stroke-width:0.25;"/>
<line x1="185.000000" y1="160.000000" x2="217.000000" y2="160.000000"  style="stroke:black; stroke-linecap:round; stroke-width:0.25;"/>
<line x1="185.000000" y1="196.000000" x2="185.000000" y2="160.000000"  style="stroke:black; stroke-linecap:round; stroke-width:0.25;"/>
<line x1="193.000000" y1="128.000000" x2="193.000000" y2="136.000000"  style="stroke:black; stroke-linecap:round; stroke-width:0.25;"/>
<line x1="193.000000" y1="136.000000" x2="217.000000" y2="136.000000"  style="stroke:black; stroke-linecap:round; stroke-width:0.25;"/>
<line x1="193.000000" y1="168.000000" x2="217.000000" y2="168.000000"  style="stroke:black; stroke-linecap:round; stroke-width:0.25;"/>
<line x1="193.000000" y1="228.000000" x2="193.000000" y2="168.000000"  style="stroke:black; stroke-linecap:round; stroke-width:0.25;"/>
<line x1="201.000000" y1="100.000000" x2="201.000000" y2="128.000000"  style="stroke:black; stroke-linecap:round; stroke-width:0.25;"/>
<line x1="201.000000" y1="128.000000" x2="217.000000" y2="128.000000"  style="stroke:black; stroke-linecap:round; stroke-width:0.25;"/>
<line x1="201.000000" y1="176.000000" x2="217.000000" y2="176.000000"  style="stroke:black; stroke-linecap:round; stroke-width:0.25;"/>
<line x1="201.000000" y1="256.000000" x2="201.000000" y2="176.000000"  style="stroke:black; stroke-linecap:round; stroke-width:0.25;"/>
<line x1="209.000000" y1="68.000000" x2="209.000000" y2="120.000000"  style="stroke:black; stroke-linecap:round; stroke-width:0.25;"/>
<line x1="209.000000" y1="120.000000" x2="217.000000" y2="120.000000"  style="stroke:black; stroke-linecap:round; stroke-width:0.25;"/>
<line x1="209.000000" y1="184.000000" x2="217.000000" y2="184.000000"  style="stroke:black; stroke-linecap:round; stroke-width:0.25;"/>
<line x1="209.000000" y1="264.000000" x2="209.000000" y2="184.000000"  style="stroke:black; stroke-linecap:round; stroke-width:0.25;"/>
<line x1="217.000000" y1="36.000000" x2="217.000000" y2="112.000000"  style="stroke:black; stroke-linecap:round; stroke-width:0.25;"/>
<line x1="217.000000" y1="112.000000" x2="217.000000" y2="112.000000"  style="stroke:black; stroke-linecap:round; stroke-width:0.25;"/>
<line x1="217.000000" y1="112.000000" x2="221.000000" y2="112.000000"  style="stroke:black; stroke-linecap:round; stroke-width:0.25;"/>
<line x1="217.000000" y1="120.000000" x2="221.000000" y2="120.000000"  style="stroke:black; stroke-linecap:round; stroke-width:0.25;"/>
<line x1="217.000000" y1="128.000000" x2="221.000000" y2="128.000000"  style="stroke:black; stroke-linecap:round; stroke-width:0.25;"/>
<line x1="217.000000" y1="136.000000" x2="221.000000" y2="136.000000"  style="stroke:black; stroke-linecap:round; stroke-width:0.25;"/>
<line x1="217.000000" y1="144.000000" x2="221.000000" y2="144.000000"  style="stroke:black; stroke-linecap:round; stroke-width:0.25;"/>
<line x1="217.000000" y1="152.000000" x2="221.000000" y2="152.000000"  style="stroke:black; stroke-linecap:round; stroke-width:0.25;"/>
<line x1="217.000000" y1="160.000000" x2="221.000000" y2="160.000000"  style="stroke:black; stroke-linecap:round; stroke-width:0.25;"/>
<line x1="217.000000" y1="168.000000" x2="221.000000" y2="168.000000"  style="stroke:black; stroke-linecap:round; stroke-width:0.25;"/>
<line x1="217.000000" y1="176.000000" x2="221.000000" y2="176.000000"  style="stroke:black; stroke-linecap:round; stroke-width:0.25;"/>
<line x1="217.000000" y1="184.000000" x2="221.000000" y2="184.000000"  style="stroke:black; stroke-linecap:round; stroke-width:0.25;"/>
<line x1="324.200000" y1="128.000000" x2="328.200000" y2="128.000000"  style="stroke:black; stroke-linecap:round; stroke-width:0.25;"/>
<line x1="324.200000" y1="136.000000" x2="328.200000" y2="136.000000"  style="stroke:black; stroke-linecap:round; stroke-width:0.25;"/>
<line x1="324.200000" y1="144.000000" x2="328.200000" y2="144.000000"  style="stroke:black; stroke-linecap:round; stroke-width:0.25;"/>
<line x1="324.200000" y1="152.000000" x2="328.200000" y2="152.000000"  style="stroke:black; stroke-linecap:round; stroke-width:0.25;"/>
<line x1="324.200000" y1="160.000000" x2="328.200000" y2="160.000000"  style="stroke:black; stroke-linecap:round; stroke-width:0.25;"/>
<line x1="324.200000" y1="168.000000" x2="328.200000" y2="168.000000"  style="stroke:black; stroke-linecap:round; stroke-width:0.25;"/>
<line x1="328.200000" y1="96.000000" x2="368.200000" y2="96.000000"  style="stroke:black; stroke-linecap:round; stroke-width:0.25;"/>
<line x1="328.200000" y1="128.000000" x2="328.200000" y2="96.000000"  style="stroke:black; stroke-linecap:round; stroke-width:0.25;"/>
<line x1="328.200000" y1="128.000000" x2="328.200000" y2="128.000000"  style="stroke:black; stroke-linecap:round; stroke-width:0.25;"/>
<line x1="328.200000" y1="136.000000" x2="336.200000" y2="136.000000"  style="stroke:black; stroke-linecap:round; stroke-width:0.25;"/>
<line x1="328.200000" y1="144.000000" x2="344.200000" y2="144.000000"  style="stroke:black; stroke-linecap:round; stroke-width:0.25;"/>
<line x1="328.200000" y1="152.000000" x2="352.200000" y2="152.000000"  style="stroke:black; stroke-linecap:round; stroke-width:0.25;"/>
<line x1="328.200000" y1="160.000000" x2="360.200000" y2="160.000000"  style="stroke:black; stroke-linecap:round; stroke-width:0.25;"/>
<line x1="328.200000" y1="168.000000" x2="368.200000" y2="168.000000"  style="stroke:black; stroke-linecap:round; stroke-width:0.25;"/>
<line x1="336.200000" y1="104.000000" x2="368.200000" y2="104.000000"  style="stroke:black; stroke-linecap:round; stroke-width:0.25;"/>
<line x1="336.200000" y1="136.000000" x2="336.200000" y2="104.000000"  style="stroke:black; stroke-linecap:round; stroke-width:0.25;"/>
<line x1="344.200000" y1="120.000000" x2="368.200000" y2="120.000000"  style="stroke:black; stroke-linecap:round; stroke-width:0.25;"/>
<line x1="344.200000" y1="144.000000" x2="344.200000" y2="120.000000"  style="stroke:black; stroke-linecap:round; stroke-width:0.25;"/>
<line x1="352.200000" y1="128.000000" x2="368.200000" y2="128.000000"  style="stroke:black; stroke-linecap:round; stroke-width:0.25;"/>
<line x1="352.200000" y1="152.000000" x2="352.200000" y2="128.000000"  style="stroke:black; stroke-linecap:round; stroke-width:0.25;"/>
<line x1="360.200000" y1="156.000000" x2="368.200000" y2="156.000000"  style="stroke:black; stroke-linecap:round; stroke-width:0.25;"/>
<line x1="360.200000" y1="160.000000" x2="360.200000" y2="156.000000"  style="stroke:black; stroke-linecap:round; stroke-width:0.25;"/>
<line x1="368.200000" y1="96.000000" x2="436.700000" y2="96.000000"  style="stroke:black; stroke-linecap:round; stroke-width:0.25;"/>
<line x1="368.200000" y1="104.000000" x2="436.700000" y2="104.000000"  style="stroke:black; stroke-linecap:round; stroke-width:0.25;"/>
<line x1="368.200000" y1="120.000000" x2="406.900000" y2="120.000000"  style="stroke:black; stroke-linecap:round; stroke-width:0.25;"/>
<line x1="368.200000" y1="128.000000" x2="406.900000" y2="128.000000"  style="stroke:black; stroke-linecap:round; stroke-width:0.25;"/>
<line x1="368.200000" y1="156.000000" x2="372.200000" y2="156.000000"  style="stroke:black; stroke-linecap:round; stroke-width:0.25;"/>
<line x1="368.200000" y1="168.000000" x2="368.200000" y2="188.000000"  style="stroke:black; stroke-linecap:round; stroke-width:0.25;"/>
<line x1="368.200000" y1="188.000000" x2="368.200000" y2="188.000000"  style="stroke:black; stroke-linecap:round; stroke-width:0.25;"/>
<line x1="368.200000" y1="188.000000" x2="372.200000" y2="188.000000"  style="stroke:black; stroke-linecap:round; stroke-width:0.25;"/>
<line x1="406.900000" y1="120.000000" x2="410.900000" y2="120.000000"  style="stroke:black; stroke-linecap:round; stroke-width:0.25;"/>
<line x1="406.900000" y1="128.000000" x2="410.900000" y2="128.000000"  style="stroke:black; stroke-linecap:round; stroke-width:0.25;"/>
<line x1="436.700000" y1="96.000000" x2="505.200000" y2="96.000000"  style="stroke:black; stroke-linecap:round; stroke-width:0.25;"/>
<line x1="436.700000" y1="104.000000" x2="505.200000" y2="104.000000"  style="stroke:black; stroke-linecap:round; stroke-width:0.25;"/>
<line x1="462.500000" y1="120.000000" x2="466.500000" y2="120.000000"  style="stroke:black; stroke-linecap:round; stroke-width:0.25;"/>
<line x1="462.500000" y1="128.000000" x2="466.500000" y2="128.000000"  style="stroke:black; stroke-linecap:round; stroke-width:0.25;"/>
<line x1="466.500000" y1="120.000000" x2="505.200000" y2="120.000000"  style="stroke:black; stroke-linecap:round; stroke-width:0.25;"/>
<line x1="466.500000" y1="128.000000" x2="505.200000" y2="128.000000"  style="stroke:black; stroke-linecap:round; stroke-width:0.25;"/>
<line x1="501.200000" y1="156.000000" x2="505.200000" y2="156.000000"  style="stroke:black; stroke-linecap:round; stroke-width:0.25;"/>
<line x1="501.200000" y1="188.000000" x2="505.200000" y2="188.000000"  style="stroke:black; stroke-linecap:round; stroke-width:0.25;"/>
<line x1="505.200000" y1="96.000000" x2="545.200000" y2="96.000000"  style="stroke:black; stroke-linecap:round; stroke-width:0.25;"/>
<line x1="505.200000" y1="104.000000" x2="537.200000" y2="104.000000"  style="stroke:black; stroke-linecap:round; stroke-width:0.25;"/>
<line x1="505.200000" y1="120.000000" x2="529.200000" y2="120.000000"  style="stroke:black; stroke-linecap:round; stroke-width:0.25;"/>
<line x1="505.200000" y1="128.000000" x2="521.200000" y2="128.000000"  style="stroke:black; stroke-linecap:round; stroke-width:0.25;"/>
<line x1="505.200000" y1="156.000000" x2="513.200000" y2="156.000000"  style="stroke:black; stroke-linecap:round; stroke-width:0.25;"/>
<line x1="505.200000" y1="168.000000" x2="545.200000" y2="168.000000"  style="stroke:black; stroke-linecap:round; stroke-width:0.25;"/>
<line x1="505.200000" y1="188.000000" x2="505.200000" y2="168.000000"  style="stroke:black; stroke-linecap:round; stroke-width:0.25;"/>
<line x1="505.200000" y1="188.000000" x2="505.200000" y2="188.000000"  style="stroke:black; stroke-linecap:round; stroke-width:0.25;"/>
<line x1="513.200000" y1="156.000000" x2="513.200000" y2="160.000000"  style="stroke:black; stroke-linecap:round; stroke-width:0.25;"/>
<line x1="513.200000" y1="160.000000" x2="545.200000" y2="160.000000"  style="stroke:black; stroke-linecap:round; stroke-width:0.25;"/>
<line x1="521.200000" y1="128.000000" x2="521.200000" y2="152.000000"  style="stroke:black; stroke-linecap:round; stroke-width:0.25;"/>
<line x1="521.200000" y1="152.000000" x2="545.200000" y2="152.000000"  style="stroke:black; stroke-linecap:round; stroke-width:0.25;"/>
<line x1="529.200000" y1="120.000000" x2="529.200000" y2="144.000000"  style="stroke:black; stroke-linecap:round; stroke-width:0.25;"/>
<line x1="529.200000" y1="144.000000" x2="545.200000" y2="144.000000"  style="stroke:black; stroke-linecap:round; stroke-width:0.25;"/>
<line x1="537.200000" y1="104.000000" x2="537.200000" y2="136.000000"  style="stroke:black; stroke-linecap:round; stroke-width:0.25;"/>
<line x1="537.200000" y1="136.000000" x2="545.200000" y2="136.000000"  style="stroke:black; stroke-linecap:round; stroke-width:0.25;"/>
<line x1="545.200000" y1="96.000000" x2="545.200000" y2="128.000000"  style="stroke:black; stroke-linecap:round; stroke-width:0.25;"/>
<line x1="545.200000" y1="128.000000" x2="545.200000" y2="128.000000"  style="stroke:black; stroke-linecap:round; stroke-width:0.25;"/>
<line x1="545.200000" y1="128.000000" x2="549.200000" y2="128.000000"  style="stroke:black; stroke-linecap:round; stroke-width:0.25;"/>
<line x1="545.200000" y1="136.000000" x2="549.200000" y2="136.000000"  style="stroke:black; stroke-linecap:round; stroke-width:0.25;"/>
<line x1="545.200000" y1="144.000000" x2="549.200000" y2="144.000000"  style="stroke:black; stroke-linecap:round; stroke-width:0.25;"/>
<line x1="545.200000" y1="152.000000" x2="549.200000" y2="152.000000"  style="stroke:black; stroke-linecap:round; stroke-width:0.25;"/>
<line x1="545.200000" y1="160.000000" x2="549.200000" y2="160.000000"  style="stroke:black; stroke-linecap:round; stroke-width:0.25;"/>
<line x1="545.200000" y1="168.000000" x2="549.200000" y2="168.000000"  style="stroke:black; stroke-linecap:round; stroke-width:0.25;"/>
<line x1="549.200000" y1="128.000000" x2="553.200000" y2="128.000000"  style="stroke:black; stroke-linecap:round; stroke-width:0.25;"/>
<line x1="549.200000" y1="136.000000" x2="553.200000" y2="136.000000"  style="stroke:black; stroke-linecap:round; stroke-width:0.25;"/>
<line x1="549.200000" y1="144.000000" x2="553.200000" y2="144.000000"  style="stroke:black; stroke-linecap:round; stroke-width:0.25;"/>
<line x1="549.200000" y1="152.000000" x2="553.200000" y2="152.000000"  style="stroke:black; stroke-linecap:round; stroke-width:0.25;"/>
<line x1="549.200000" y1="160.000000" x2="553.200000" y2="160.000000"  style="stroke:black; stroke-linecap:round; stroke-width:0.25;"/>
<line x1="549.200000" y1="168.000000" x2="553.200000" y2="168.000000"  style="stroke:black; stroke-linecap:round; stroke-width:0.25;"/>
<line x1="553.200000" y1="128.000000" x2="577.800000" y2="126.800000"  style="stroke:black; stroke-linecap:round; stroke-width:0.25;"/>
<line x1="553.200000" y1="136.000000" x2="577.800000" y2="152.080000"  style="stroke:black; stroke-linecap:round; stroke-width:0.25;"/>
<line x1="553.200000" y1="144.000000" x2="577.800000" y2="135.360000"  style="stroke:black; stroke-linecap:round; stroke-width:0.25;"/>
<line x1="553.200000" y1="152.000000" x2="577.800000" y2="160.640000"  style="stroke:black; stroke-linecap:round; stroke-width:0.25;"/>
<line x1="553.200000" y1="160.000000" x2="577.800000" y2="143.920000"  style="stroke:black; stroke-linecap:round; stroke-width:0.25;"/>
<line x1="553.200000" y1="168.000000" x2="577.800000" y2="169.200000"  style="stroke:black; stroke-linecap:round; stroke-width:0.25;"/>
<line x1="577.800000" y1="126.800000" x2="581.800000" y2="126.800000"  style="stroke:black; stroke-linecap:round; stroke-width:0.25;"/>
<line x1="577.800000" y1="135.360000" x2="581.800000" y2="135.360000"  style="stroke:black; stroke-linecap:round; stroke-width:0.25;"/>
<line x1="577.800000" y1="143.920000" x2="581.800000" y2="143.920000"  style="stroke:black; stroke-linecap:round; stroke-width:0.25;"/>
<line x1="577.800000" y1="152.080000" x2="581.800000" y2="152.080000"  style="stroke:black; stroke-linecap:round; stroke-width:0.25;"/>
<line x1="577.800000" y1="160.640000" x2="581.800000" y2="160.640000"  style="stroke:black; stroke-linecap:round; stroke-width:0.25;"/>
<line x1="577.800000" y1="169.200000" x2="581.800000" y2="169.200000"  style="stroke:black; stroke-linecap:round; stroke-width:0.25;"/>
<line x1="581.800000" y1="126.800000" x2="585.800000" y2="126.800000"  style="stroke:black; stroke-linecap:round; stroke-width:0.25;"/>
<line x1="581.800000" y1="135.360000" x2="585.800000" y2="135.360000"  style="stroke:black; stroke-linecap:round; stroke-width:0.25;"/>
<line x1="581.800000" y1="143.920000" x2="585.800000" y2="143.920000"  style="stroke:black; stroke-linecap:round; stroke-width:0.25;"/>
<line x1="581.800000" y1="152.080000" x2="585.800000" y2="152.080000"  style="stroke:black; stroke-linecap:round; stroke-width:0.25;"/>
<line x1="581.800000" y1="160.640000" x2="585.800000" y2="160.640000"  style="stroke:black; stroke-linecap:round; stroke-width:0.25;"/>
<line x1="581.800000" y1="169.200000" x2="585.800000" y2="169.200000"  style="stroke:black; stroke-linecap:round; stroke-width:0.25;"/>
<line x1="585.800000" y1="126.800000" x2="609.800000" y2="126.800000"  style="stroke:black; stroke-linecap:round; stroke-width:0.25;"/>
<line x1="585.800000" y1="135.360000" x2="601.800000" y2="135.360000"  style="stroke:black; stroke-linecap:round; stroke-width:0.25;"/>
<line x1="585.800000" y1="143.920000" x2="593.800000" y2="143.920000"  style="stroke:black; stroke-linecap:round; stroke-width:0.25;"/>
<line x1="585.800000" y1="152.000000" x2="609.800000" y2="152.000000"  style="stroke:black; stroke-linecap:round; stroke-width:0.25;"/>
<line x1="585.800000" y1="152.080000" x2="585.800000" y2="152.000000"  style="stroke:black; stroke-linecap:round; stroke-width:0.25;"/>
<line x1="585.800000" y1="152.080000" x2="585.800000" y2="152.080000"  style="stroke:black; stroke-linecap:round; stroke-width:0.25;"/>
<line x1="585.800000" y1="160.640000" x2="593.800000" y2="160.640000"  style="stroke:black; stroke-linecap:round; stroke-width:0.25;"/>
<line x1="585.800000" y1="169.200000" x2="601.800000" y2="169.200000"  style="stroke:black; stroke-linecap:round; stroke-width:0.25;"/>
<line x1="593.800000" y1="143.920000" x2="593.800000" y2="144.000000"  style="stroke:black; stroke-linecap:round; stroke-width:0.25;"/>
<line x1="593.800000" y1="144.000000" x2="609.800000" y2="144.000000"  style="stroke:black; stroke-linecap:round; stroke-width:0.25;"/>
<line x1="593.800000" y1="160.000000" x2="609.800000" y2="160.000000"  style="stroke:black; stroke-linecap:round; stroke-width:0.25;"/>
<line x1="593.800000" y1="160.640000" x2="593.800000" y2="160.000000"  style="stroke:black; stroke-linecap:round; stroke-width:0.25;"/>
<line x1="601.800000" y1="135.360000" x2="601.800000" y2="136.000000"  style="stroke:black; stroke-linecap:round; stroke-width:0.25;"/>
<line x1="601.800000" y1="136.000000" x2="609.800000" y2="136.000000"  style="stroke:black; stroke-linecap:round; stroke-width:0.25;"/>
<line x1="601.800000" y1="168.000000" x2="609.800000" y2="168.000000"  style="stroke:black; stroke-linecap:round; stroke-width:0.25;"/>
<line x1="601.800000" y1="169.200000" x2="601.800000" y2="168.000000"  style="stroke:black; stroke-linecap:round; stroke-width:0.25;"/>
<line x1="609.800000" y1="126.800000" x2="609.800000" y2="128.000000"  style="stroke:black; stroke-linecap:round; stroke-width:0.25;"/>
<line x1="609.800000" y1="128.000000" x2="609.800000" y2="128.000000"  style="stroke:black; stroke-linecap:round; stroke-width:0.25;"/>
<line x1="609.800000" y1="128.000000" x2="613.800000" y2="128.000000"  style="stroke:black; stroke-linecap:round; stroke-width:0.25;"/>
<line x1="609.800000" y1="136.000000" x2="613.800000" y2="136.000000"  style="stroke:black; stroke-linecap:round; stroke-width:0.25;"/>
<line x1="609.800000" y1="144.000000" x2="613.800000" y2="144.000000"  style="stroke:black; stroke-linecap:round; stroke-width:0.25;"/>
<line x1="609.800000" y1="152.000000" x2="613.800000" y2="152.000000"  style="stroke:black; stroke-linecap:round; stroke-width:0.25;"/>
<line x1="609.800000" y1="160.000000" x2="613.800000" y2="160.000000"  style="stroke:black; stroke-linecap:round; stroke-width:0.25;"/>
<line x1="609.800000" y1="168.000000" x2="613.800000" y2="168.000000"  style="stroke:black; stroke-linecap:round; stroke-width:0.25;"/>
<line x1="613.800000" y1="128.000000" x2="617.800000" y2="128.000000"  style="stroke:black; stroke-linecap:round; stroke-width:0.25;"/>
<line x1="613.800000" y1="136.000000" x2="617.800000" y2="136.000000"  style="stroke:black; stroke-linecap:round; stroke-width:0.25;"/>
<line x1="613.800000" y1="144.000000" x2="617.800000" y2="144.000000"  style="stroke:black; stroke-linecap:round; stroke-width:0.25;"/>
<line x1="613.800000" y1="152.000000" x2="617.800000" y2="152.000000"  style="stroke:black; stroke-linecap:round; stroke-width:0.25;"/>
<line x1="613.800000" y1="160.000000" x2="617.800000" y2="160.000000"  style="stroke:black; stroke-linecap:round; stroke-width:0.25;"/>
<line x1="613.800000" y1="168.000000" x2="617.800000" y2="168.000000"  style="stroke:black; stroke-linecap:round; stroke-width:0.25;"/>
<line x1="617.800000" y1="128.000000" x2="625.800000" y2="136.000000"  style="stroke:black; stroke-linecap:round; stroke-width:0.25;"/>
<line x1="617.800000" y1="136.000000" x2="625.800000" y2="136.000000"  style="stroke:black; stroke-linecap:round; stroke-width:0.25;"/>
<line x1="617.800000" y1="144.000000" x2="625.800000" y2="136.000000"  style="stroke:black; stroke-linecap:round; stroke-width:0.25;"/>
<line x1="617.800000" y1="152.000000" x2="625.800000" y2="160.000000"  style="stroke:black; stroke-linecap:round; stroke-width:0.25;"/>
<line x1="617.800000" y1="160.000000" x2="625.800000" y2="160.000000"  style="stroke:black; stroke-linecap:round; stroke-width:0.25;"/>
<line x1="617.800000" y1="168.000000" x2="625.800000" y2="160.000000"  style="stroke:black; stroke-linecap:round; stroke-width:0.25;"/>
<line x1="625.800000" y1="136.000000" x2="629.800000" y2="136.000000"  style="stroke:black; stroke-linecap:round; stroke-width:0.25;"/>
<line x1="625.800000" y1="160.000000" x2="629.800000" y2="160.000000"  style="stroke:black; stroke-linecap:round; stroke-width:0.25;"/>
<line x1="629.800000" y1="136.000000" x2="633.800000" y2="136.000000"  style="stroke:black; stroke-linecap:round; stroke-width:0.25;"/>
<line x1="629.800000" y1="160.000000" x2="633.800000" y2="160.000000"  style="stroke:black; stroke-linecap:round; stroke-width:0.25;"/>
<line x1="633.800000" y1="136.000000" x2="641.800000" y2="136.000000"  style="stroke:black; stroke-linecap:round; stroke-width:0.25;"/>
<line x1="633.800000" y1="152.000000" x2="641.800000" y2="152.000000"  style="stroke:black; stroke-linecap:round; stroke-width:0.25;"/>
<line x1="633.800000" y1="160.000000" x2="633.800000" y2="152.000000"  style="stroke:black; stroke-linecap:round; stroke-width:0.25;"/>
<line x1="633.800000" y1="160.000000" x2="633.800000" y2="160.000000"  style="stroke:black; stroke-linecap:round; stroke-width:0.25;"/>
<line x1="641.800000" y1="144.000000" x2="645.800000" y2="144.000000"  style="stroke:black; stroke-linecap:round; stroke-width:0.25;"/>
<line x1="641.800000" y1="152.000000" x2="645.800000" y2="152.000000"  style="stroke:black; stroke-linecap:round; stroke-width:0.25;"/>
<line x1="641.800000" y1="136.000000" x2="641.800000" y2="144.000000"  style="stroke:black; stroke-linecap:round; stroke-width:0.25;"/>
<line x1="641.800000" y1="144.000000" x2="641.800000" y2="144.000000"  style="stroke:black; stroke-linecap:round; stroke-width:0.25;"/>
<line x1="645.800000" y1="144.000000" x2="649.800000" y2="144.000000"  style="stroke:black; stroke-linecap:round; stroke-width:0.25;"/>
<line x1="645.800000" y1="152.000000" x2="649.800000" y2="152.000000"  style="stroke:black; stroke-linecap:round; stroke-width:0.25;"/>
<line x1="649.800000" y1="144.000000" x2="659.800000" y2="144.000000"  style="stroke:black; stroke-linecap:round; stroke-width:0.25;"/>
<line x1="649.800000" y1="152.000000" x2="659.800000" y2="152.000000"  style="stroke:black; stroke-linecap:round; stroke-width:0.25;"/>
</svg>
