<?xml version="1.0"?>
<svg xmlns="http://www.w3.org/2000/svg" xmlns:xlink="http://www.w3.org/1999/xlink" viewBox="0 0 351.500000 152.000000" width="175.750000mm" height="76.000000mm" version="1.1">
<a xlink:href="bypass-0x244e1870.svg">
<rect x="1.000000" y="1.000000" width="350.500000" height="151.000000" rx="0" ry="0" style="stroke:none;fill:#cccccc;"/>
<rect x="0.000000" y="0.000000" width="350.500000" height="151.000000" rx="0" ry="0" style="stroke:none;fill:#ffffff;"/>
</a>
<text x="10.000000" y="7.000000" font-family="Arial" font-size="7"></text>
<rect x="131.500000" y="33.000000" width="24.000000" height="24.000000" rx="0" ry="0" style="stroke:none;fill:#cccccc;"/>
<rect x="130.500000" y="32.000000" width="24.000000" height="24.000000" rx="0" ry="0" style="stroke:none;fill:#4B71A1;"/>
<text x="142.500000" y="46.000000" font-family="Arial" font-size="7" text-anchor="middle" fill="#FFFFFF">&gt;</text>
<circle cx="132.500000" cy="34.000000" r="1"/>
<line x1="127.500000" y1="39.000000" x2="130.500000" y2="40.000000"  transform="rotate(0.000000,130.500000,40.000000)" style="stroke: black; stroke-width:0.25;"/>
<line x1="127.500000" y1="41.000000" x2="130.500000" y2="40.000000"  transform="rotate(0.000000,130.500000,40.000000)" style="stroke: black; stroke-width:0.25;"/>
<line x1="127.500000" y1="47.000000" x2="130.500000" y2="48.000000"  transform="rotate(0.000000,130.500000,48.000000)" style="stroke: black; stroke-width:0.25;"/>
<line x1="127.500000" y1="49.000000" x2="130.500000" y2="48.000000"  transform="rotate(0.000000,130.500000,48.000000)" style="stroke: black; stroke-width:0.25;"/>
<a xlink:href="tau2pole-0x37cf2e0.svg">
<rect x="117.700000" y="65.000000" width="51.600000" height="24.000000" rx="0" ry="0" style="stroke:none;fill:#cccccc;"/>
<rect x="116.700000" y="64.000000" width="51.600000" height="24.000000" rx="0" ry="0" style="stroke:none;fill:#003366;"/>
</a>
<a xlink:href="tau2pole-0x37cf2e0.svg">
<text x="142.500000" y="78.000000" font-family="Arial" font-size="7" text-anchor="middle" fill="#FFFFFF">tau2pole(0)</text>
</a>
<circle cx="118.700000" cy="66.000000" r="1"/>
<a xlink:href="tau2pole-0x3958750.svg">
<rect x="79.000000" y="97.000000" width="129.000000" height="24.000000" rx="0" ry="0" style="stroke:none;fill:#cccccc;"/>
<rect x="78.000000" y="96.000000" width="129.000000" height="24.000000" rx="0" ry="0" style="stroke:none;fill:#003366;"/>
</a>
<a xlink:href="tau2pole-0x3958750.svg">
<text x="142.500000" y="110.000000" font-family="Arial" font-size="7" text-anchor="middle" fill="#FFFFFF">tau2pole(1,((...25f : *) : /)</text>
</a>
<circle cx="80.000000" cy="98.000000" r="1"/>
<rect x="224.000000" y="65.000000" width="38.700000" height="24.000000" rx="0" ry="0" style="stroke:none;fill:#cccccc;"/>
<rect x="223.000000" y="64.000000" width="38.700000" height="24.000000" rx="0" ry="0" style="stroke:none;fill:#4B71A1;"/>
<text x="242.350000" y="78.000000" font-family="Arial" font-size="7" text-anchor="middle" fill="#FFFFFF">select2</text>
<circle cx="225.000000" cy="66.000000" r="1"/>
<line x1="220.000000" y1="67.000000" x2="223.000000" y2="68.000000"  transform="rotate(0.000000,223.000000,68.000000)" style="stroke: black; stroke-width:0.25;"/>
<line x1="220.000000" y1="69.000000" x2="223.000000" y2="68.000000"  transform="rotate(0.000000,223.000000,68.000000)" style="stroke: black; stroke-width:0.25;"/>
<line x1="220.000000" y1="75.000000" x2="223.000000" y2="76.000000"  transform="rotate(0.000000,223.000000,76.000000)" style="stroke: black; stroke-width:0.25;"/>
<line x1="220.000000" y1="77.000000" x2="223.000000" y2="76.000000"  transform="rotate(0.000000,223.000000,76.000000)" style="stroke: black; stroke-width:0.25;"/>
<line x1="220.000000" y1="83.000000" x2="223.000000" y2="84.000000"  transform="rotate(0.000000,223.000000,84.000000)" style="stroke: black; stroke-width:0.25;"/>
<line x1="220.000000" y1="85.000000" x2="223.000000" y2="84.000000"  transform="rotate(0.000000,223.000000,84.000000)" style="stroke: black; stroke-width:0.25;"/>
<a xlink:href="smooth-0x395a8f0.svg">
<rect x="278.700000" y="69.000000" width="25.800000" height="24.000000" rx="0" ry="0" style="stroke:none;fill:#cccccc;"/>
<rect x="277.700000" y="68.000000" width="25.800000" height="24.000000" rx="0" ry="0" style="stroke:none;fill:#003366;"/>
</a>
<a xlink:href="smooth-0x395a8f0.svg">
<text x="290.600000" y="82.000000" font-family="Arial" font-size="7" text-anchor="middle" fill="#FFFFFF">smooth</text>
</a>
<circle cx="279.700000" cy="70.000000" r="1"/>
<line x1="274.700000" y1="75.000000" x2="277.700000" y2="76.000000"  transform="rotate(0.000000,277.700000,76.000000)" style="stroke: black; stroke-width:0.25;"/>
<line x1="274.700000" y1="77.000000" x2="277.700000" y2="76.000000"  transform="rotate(0.000000,277.700000,76.000000)" style="stroke: black; stroke-width:0.25;"/>
<line x1="274.700000" y1="83.000000" x2="277.700000" y2="84.000000"  transform="rotate(0.000000,277.700000,84.000000)" style="stroke: black; stroke-width:0.25;"/>
<line x1="274.700000" y1="85.000000" x2="277.700000" y2="84.000000"  transform="rotate(0.000000,277.700000,84.000000)" style="stroke: black; stroke-width:0.25;"/>
<line x1="305.500000" y1="80.000000" x2="305.500000" y2="76.000000"  style="stroke:black; stroke-linecap:round; stroke-width:0.25;"/>
<line x1="305.500000" y1="76.000000" x2="309.500000" y2="76.000000"  style="stroke:black; stroke-linecap:round; stroke-width:0.25;"/>
<line x1="309.500000" y1="76.000000" x2="309.500000" y2="80.000000"  style="stroke:black; stroke-linecap:round; stroke-width:0.25;"/>
<line x1="15.000000" y1="15.000000" x2="15.000000" y2="137.000000"  style="stroke: black; stroke-linecap:round; stroke-width:0.25; stroke-dasharray:3,3;"/>
<line x1="15.000000" y1="137.000000" x2="336.500000" y2="137.000000"  style="stroke: black; stroke-linecap:round; stroke-width:0.25; stroke-dasharray:3,3;"/>
<line x1="336.500000" y1="137.000000" x2="336.500000" y2="15.000000"  style="stroke: black; stroke-linecap:round; stroke-width:0.25; stroke-dasharray:3,3;"/>
<line x1="15.000000" y1="15.000000" x2="20.000000" y2="15.000000"  style="stroke: black; stroke-linecap:round; stroke-width:0.25; stroke-dasharray:3,3;"/>
<line x1="119.975000" y1="15.000000" x2="336.500000" y2="15.000000"  style="stroke: black; stroke-linecap:round; stroke-width:0.25; stroke-dasharray:3,3;"/>
<text x="20.000000" y="17.000000" font-family="Arial" font-size="7">lag_ud(0)(1,(...25f : *) : /)</text>
<line x1="338.500000" y1="75.000000" x2="341.500000" y2="76.000000"  transform="rotate(0.000000,341.500000,76.000000)" style="stroke: black; stroke-width:0.25;"/>
<line x1="338.500000" y1="77.000000" x2="341.500000" y2="76.000000"  transform="rotate(0.000000,341.500000,76.000000)" style="stroke: black; stroke-width:0.25;"/>
<line x1="10.000000" y1="76.000000" x2="20.000000" y2="76.000000"  style="stroke:black; stroke-linecap:round; stroke-width:0.25;"/>
<line x1="20.000000" y1="76.000000" x2="24.000000" y2="76.000000"  style="stroke:black; stroke-linecap:round; stroke-width:0.25;"/>
<line x1="24.000000" y1="76.000000" x2="28.000000" y2="76.000000"  style="stroke:black; stroke-linecap:round; stroke-width:0.25;"/>
<line x1="28.000000" y1="76.000000" x2="28.000000" y2="76.000000"  style="stroke:black; stroke-linecap:round; stroke-width:0.25;"/>
<line x1="28.000000" y1="76.000000" x2="32.000000" y2="76.000000"  style="stroke:black; stroke-linecap:round; stroke-width:0.25;"/>
<line x1="32.000000" y1="76.000000" x2="36.000000" y2="76.000000"  style="stroke:black; stroke-linecap:round; stroke-width:0.25;"/>
<line x1="36.000000" y1="76.000000" x2="66.000000" y2="48.000000"  style="stroke:black; stroke-linecap:round; stroke-width:0.25;"/>
<line x1="36.000000" y1="76.000000" x2="66.000000" y2="128.000000"  style="stroke:black; stroke-linecap:round; stroke-width:0.25;"/>
<line x1="66.000000" y1="48.000000" x2="74.000000" y2="48.000000"  style="stroke:black; stroke-linecap:round; stroke-width:0.25;"/>
<line x1="66.000000" y1="128.000000" x2="74.000000" y2="128.000000"  style="stroke:black; stroke-linecap:round; stroke-width:0.25;"/>
<line x1="74.000000" y1="24.000000" x2="74.000000" y2="24.000000"  style="stroke:black; stroke-linecap:round; stroke-width:0.25;"/>
<line x1="74.000000" y1="24.000000" x2="74.000000" y2="40.000000"  style="stroke:black; stroke-linecap:round; stroke-width:0.25;"/>
<line x1="74.000000" y1="40.000000" x2="74.000000" y2="40.000000"  style="stroke:black; stroke-linecap:round; stroke-width:0.25;"/>
<line x1="74.000000" y1="40.000000" x2="126.500000" y2="40.000000"  style="stroke:black; stroke-linecap:round; stroke-width:0.25;"/>
<line x1="74.000000" y1="48.000000" x2="126.500000" y2="48.000000"  style="stroke:black; stroke-linecap:round; stroke-width:0.25;"/>
<line x1="74.000000" y1="128.000000" x2="169.850000" y2="128.000000"  style="stroke:black; stroke-linecap:round; stroke-width:0.25;"/>
<line x1="126.500000" y1="40.000000" x2="130.500000" y2="40.000000"  style="stroke:black; stroke-linecap:round; stroke-width:0.25;"/>
<line x1="126.500000" y1="48.000000" x2="130.500000" y2="48.000000"  style="stroke:black; stroke-linecap:round; stroke-width:0.25;"/>
<line x1="154.500000" y1="44.000000" x2="158.500000" y2="44.000000"  style="stroke:black; stroke-linecap:round; stroke-width:0.25;"/>
<line x1="158.500000" y1="44.000000" x2="211.000000" y2="44.000000"  style="stroke:black; stroke-linecap:round; stroke-width:0.25;"/>
<line x1="168.300000" y1="76.000000" x2="172.300000" y2="76.000000"  style="stroke:black; stroke-linecap:round; stroke-width:0.25;"/>
<line x1="169.850000" y1="128.000000" x2="265.700000" y2="128.000000"  style="stroke:black; stroke-linecap:round; stroke-width:0.25;"/>
<line x1="172.300000" y1="76.000000" x2="211.000000" y2="76.000000"  style="stroke:black; stroke-linecap:round; stroke-width:0.25;"/>
<line x1="190.750000" y1="24.000000" x2="74.000000" y2="24.000000"  style="stroke:black; stroke-linecap:round; stroke-width:0.25;"/>
<line x1="207.000000" y1="108.000000" x2="211.000000" y2="108.000000"  style="stroke:black; stroke-linecap:round; stroke-width:0.25;"/>
<line x1="211.000000" y1="44.000000" x2="219.000000" y2="44.000000"  style="stroke:black; stroke-linecap:round; stroke-width:0.25;"/>
<line x1="211.000000" y1="76.000000" x2="219.000000" y2="76.000000"  style="stroke:black; stroke-linecap:round; stroke-width:0.25;"/>
<line x1="211.000000" y1="84.000000" x2="219.000000" y2="84.000000"  style="stroke:black; stroke-linecap:round; stroke-width:0.25;"/>
<line x1="211.000000" y1="108.000000" x2="211.000000" y2="84.000000"  style="stroke:black; stroke-linecap:round; stroke-width:0.25;"/>
<line x1="211.000000" y1="108.000000" x2="211.000000" y2="108.000000"  style="stroke:black; stroke-linecap:round; stroke-width:0.25;"/>
<line x1="219.000000" y1="44.000000" x2="219.000000" y2="68.000000"  style="stroke:black; stroke-linecap:round; stroke-width:0.25;"/>
<line x1="219.000000" y1="68.000000" x2="219.000000" y2="68.000000"  style="stroke:black; stroke-linecap:round; stroke-width:0.25;"/>
<line x1="219.000000" y1="68.000000" x2="223.000000" y2="68.000000"  style="stroke:black; stroke-linecap:round; stroke-width:0.25;"/>
<line x1="219.000000" y1="76.000000" x2="223.000000" y2="76.000000"  style="stroke:black; stroke-linecap:round; stroke-width:0.25;"/>
<line x1="219.000000" y1="84.000000" x2="223.000000" y2="84.000000"  style="stroke:black; stroke-linecap:round; stroke-width:0.25;"/>
<line x1="261.700000" y1="76.000000" x2="265.700000" y2="76.000000"  style="stroke:black; stroke-linecap:round; stroke-width:0.25;"/>
<line x1="265.700000" y1="76.000000" x2="273.700000" y2="76.000000"  style="stroke:black; stroke-linecap:round; stroke-width:0.25;"/>
<line x1="265.700000" y1="84.000000" x2="273.700000" y2="84.000000"  style="stroke:black; stroke-linecap:round; stroke-width:0.25;"/>
<line x1="265.700000" y1="128.000000" x2="265.700000" y2="84.000000"  style="stroke:black; stroke-linecap:round; stroke-width:0.25;"/>
<line x1="265.700000" y1="128.000000" x2="265.700000" y2="128.000000"  style="stroke:black; stroke-linecap:round; stroke-width:0.25;"/>
<line x1="273.700000" y1="76.000000" x2="277.700000" y2="76.000000"  style="stroke:black; stroke-linecap:round; stroke-width:0.25;"/>
<line x1="273.700000" y1="84.000000" x2="277.700000" y2="84.000000"  style="stroke:black; stroke-linecap:round; stroke-width:0.25;"/>
<line x1="303.500000" y1="80.000000" x2="307.500000" y2="80.000000"  style="stroke:black; stroke-linecap:round; stroke-width:0.25;"/>
<line x1="307.500000" y1="24.000000" x2="190.750000" y2="24.000000"  style="stroke:black; stroke-linecap:round; stroke-width:0.25;"/>
<line x1="307.500000" y1="24.000000" x2="307.500000" y2="24.000000"  style="stroke:black; stroke-linecap:round; stroke-width:0.25;"/>
<line x1="307.500000" y1="76.000000" x2="307.500000" y2="24.000000"  style="stroke:black; stroke-linecap:round; stroke-width:0.25;"/>
<line x1="307.500000" y1="80.000000" x2="309.500000" y2="80.000000"  style="stroke:black; stroke-linecap:round; stroke-width:0.25;"/>
<line x1="309.500000" y1="80.000000" x2="315.500000" y2="80.000000"  style="stroke:black; stroke-linecap:round; stroke-width:0.25;"/>
<line x1="315.500000" y1="76.000000" x2="323.500000" y2="76.000000"  style="stroke:black; stroke-linecap:round; stroke-width:0.25;"/>
<line x1="315.500000" y1="80.000000" x2="315.500000" y2="76.000000"  style="stroke:black; stroke-linecap:round; stroke-width:0.25;"/>
<line x1="315.500000" y1="80.000000" x2="315.500000" y2="80.000000"  style="stroke:black; stroke-linecap:round; stroke-width:0.25;"/>
<line x1="323.500000" y1="76.000000" x2="327.500000" y2="76.000000"  style="stroke:black; stroke-linecap:round; stroke-width:0.25;"/>
<line x1="327.500000" y1="76.000000" x2="331.500000" y2="76.000000"  style="stroke:black; stroke-linecap:round; stroke-width:0.25;"/>
<line x1="331.500000" y1="76.000000" x2="341.500000" y2="76.000000"  style="stroke:black; stroke-linecap:round; stroke-width:0.25;"/>
</svg>
