<?xml version="1.0"?>
<svg xmlns="http://www.w3.org/2000/svg" xmlns:xlink="http://www.w3.org/1999/xlink" viewBox="0 0 415.300000 372.000000" width="207.650000mm" height="186.000000mm" version="1.1">
<a xlink:href="VocoderLinArr-0x13f747d0.svg">
<rect x="1.000000" y="1.000000" width="414.300000" height="371.000000" rx="0" ry="0" style="stroke:none;fill:#cccccc;"/>
<rect x="0.000000" y="0.000000" width="414.300000" height="371.000000" rx="0" ry="0" style="stroke:none;fill:#ffffff;"/>
</a>
<text x="10.000000" y="7.000000" font-family="Arial" font-size="7"></text>
<a xlink:href="midToTop-0x13ef7880.svg">
<rect x="138.850000" y="25.000000" width="51.600000" height="24.000000" rx="0" ry="0" style="stroke:none;fill:#cccccc;"/>
<rect x="137.850000" y="24.000000" width="51.600000" height="24.000000" rx="0" ry="0" style="stroke:none;fill:#003366;"/>
</a>
<a xlink:href="midToTop-0x13ef7880.svg">
<text x="163.650000" y="38.000000" font-family="Arial" font-size="7" text-anchor="middle" fill="#FFFFFF">midToTop(14)</text>
</a>
<circle cx="139.850000" cy="26.000000" r="1"/>
<rect x="55.000000" y="87.000000" width="219.300000" height="24.000000" rx="0" ry="0" style="stroke:none;fill:#cccccc;"/>
<rect x="54.000000" y="86.000000" width="219.300000" height="24.000000" rx="0" ry="0" style="stroke:none;fill:#477881;"/>
<text x="163.650000" y="100.000000" font-family="Arial" font-size="7" text-anchor="middle" fill="#FFFFFF">vslider(indexTop, 1e+02f, 0.001f, 1e+02f, 0.001f)</text>
<circle cx="56.000000" cy="88.000000" r="1"/>
<line x1="45.000000" y1="77.000000" x2="45.000000" y2="119.000000"  style="stroke: black; stroke-linecap:round; stroke-width:0.25; stroke-dasharray:3,3;"/>
<line x1="45.000000" y1="119.000000" x2="282.300000" y2="119.000000"  style="stroke: black; stroke-linecap:round; stroke-width:0.25; stroke-dasharray:3,3;"/>
<line x1="282.300000" y1="119.000000" x2="282.300000" y2="77.000000"  style="stroke: black; stroke-linecap:round; stroke-width:0.25; stroke-dasharray:3,3;"/>
<line x1="45.000000" y1="77.000000" x2="50.000000" y2="77.000000"  style="stroke: black; stroke-linecap:round; stroke-width:0.25; stroke-dasharray:3,3;"/>
<line x1="133.850000" y1="77.000000" x2="282.300000" y2="77.000000"  style="stroke: black; stroke-linecap:round; stroke-width:0.25; stroke-dasharray:3,3;"/>
<text x="50.000000" y="79.000000" font-family="Arial" font-size="7">vgroup(high frequencies)</text>
<line x1="35.000000" y1="67.000000" x2="35.000000" y2="129.000000"  style="stroke: black; stroke-linecap:round; stroke-width:0.25; stroke-dasharray:3,3;"/>
<line x1="35.000000" y1="129.000000" x2="292.300000" y2="129.000000"  style="stroke: black; stroke-linecap:round; stroke-width:0.25; stroke-dasharray:3,3;"/>
<line x1="292.300000" y1="129.000000" x2="292.300000" y2="67.000000"  style="stroke: black; stroke-linecap:round; stroke-width:0.25; stroke-dasharray:3,3;"/>
<line x1="35.000000" y1="67.000000" x2="40.000000" y2="67.000000"  style="stroke: black; stroke-linecap:round; stroke-width:0.25; stroke-dasharray:3,3;"/>
<line x1="104.500000" y1="67.000000" x2="292.300000" y2="67.000000"  style="stroke: black; stroke-linecap:round; stroke-width:0.25; stroke-dasharray:3,3;"/>
<text x="40.000000" y="69.000000" font-family="Arial" font-size="7">hgroup(parameters)</text>
<line x1="25.000000" y1="57.000000" x2="25.000000" y2="139.000000"  style="stroke: black; stroke-linecap:round; stroke-width:0.25; stroke-dasharray:3,3;"/>
<line x1="25.000000" y1="139.000000" x2="302.300000" y2="139.000000"  style="stroke: black; stroke-linecap:round; stroke-width:0.25; stroke-dasharray:3,3;"/>
<line x1="302.300000" y1="139.000000" x2="302.300000" y2="57.000000"  style="stroke: black; stroke-linecap:round; stroke-width:0.25; stroke-dasharray:3,3;"/>
<line x1="25.000000" y1="57.000000" x2="30.000000" y2="57.000000"  style="stroke: black; stroke-linecap:round; stroke-width:0.25; stroke-dasharray:3,3;"/>
<line x1="71.925000" y1="57.000000" x2="302.300000" y2="57.000000"  style="stroke: black; stroke-linecap:round; stroke-width:0.25; stroke-dasharray:3,3;"/>
<text x="30.000000" y="59.000000" font-family="Arial" font-size="7">pafIndexTop</text>
<rect x="320.300000" y="71.000000" width="24.000000" height="24.000000" rx="0" ry="0" style="stroke:none;fill:#cccccc;"/>
<rect x="319.300000" y="70.000000" width="24.000000" height="24.000000" rx="0" ry="0" style="stroke:none;fill:#4B71A1;"/>
<text x="331.300000" y="84.000000" font-family="Arial" font-size="7" text-anchor="middle" fill="#FFFFFF">*</text>
<circle cx="321.300000" cy="72.000000" r="1"/>
<line x1="316.300000" y1="77.000000" x2="319.300000" y2="78.000000"  transform="rotate(0.000000,319.300000,78.000000)" style="stroke: black; stroke-width:0.25;"/>
<line x1="316.300000" y1="79.000000" x2="319.300000" y2="78.000000"  transform="rotate(0.000000,319.300000,78.000000)" style="stroke: black; stroke-width:0.25;"/>
<line x1="316.300000" y1="85.000000" x2="319.300000" y2="86.000000"  transform="rotate(0.000000,319.300000,86.000000)" style="stroke: black; stroke-width:0.25;"/>
<line x1="316.300000" y1="87.000000" x2="319.300000" y2="86.000000"  transform="rotate(0.000000,319.300000,86.000000)" style="stroke: black; stroke-width:0.25;"/>
<a xlink:href="midToTop-0x13ef7880.svg">
<rect x="98.850000" y="149.000000" width="51.600000" height="24.000000" rx="0" ry="0" style="stroke:none;fill:#cccccc;"/>
<rect x="97.850000" y="148.000000" width="51.600000" height="24.000000" rx="0" ry="0" style="stroke:none;fill:#003366;"/>
</a>
<a xlink:href="midToTop-0x13ef7880.svg">
<text x="123.650000" y="162.000000" font-family="Arial" font-size="7" text-anchor="middle" fill="#FFFFFF">midToTop(14)</text>
</a>
<circle cx="99.850000" cy="150.000000" r="1"/>
<rect x="112.650000" y="181.000000" width="24.000000" height="24.000000" rx="0" ry="0" style="stroke:none;fill:#cccccc;"/>
<rect x="111.650000" y="180.000000" width="24.000000" height="24.000000" rx="0" ry="0" style="stroke:none;fill:#f44800;"/>
<text x="123.650000" y="194.000000" font-family="Arial" font-size="7" text-anchor="middle" fill="#FFFFFF">-1</text>
<circle cx="113.650000" cy="182.000000" r="1"/>
<rect x="166.450000" y="165.000000" width="24.000000" height="24.000000" rx="0" ry="0" style="stroke:none;fill:#cccccc;"/>
<rect x="165.450000" y="164.000000" width="24.000000" height="24.000000" rx="0" ry="0" style="stroke:none;fill:#4B71A1;"/>
<text x="177.450000" y="178.000000" font-family="Arial" font-size="7" text-anchor="middle" fill="#FFFFFF">*</text>
<circle cx="167.450000" cy="166.000000" r="1"/>
<line x1="162.450000" y1="171.000000" x2="165.450000" y2="172.000000"  transform="rotate(0.000000,165.450000,172.000000)" style="stroke: black; stroke-width:0.25;"/>
<line x1="162.450000" y1="173.000000" x2="165.450000" y2="172.000000"  transform="rotate(0.000000,165.450000,172.000000)" style="stroke: black; stroke-width:0.25;"/>
<line x1="162.450000" y1="179.000000" x2="165.450000" y2="180.000000"  transform="rotate(0.000000,165.450000,180.000000)" style="stroke: black; stroke-width:0.25;"/>
<line x1="162.450000" y1="181.000000" x2="165.450000" y2="180.000000"  transform="rotate(0.000000,165.450000,180.000000)" style="stroke: black; stroke-width:0.25;"/>
<rect x="132.650000" y="223.000000" width="24.000000" height="24.000000" rx="0" ry="0" style="stroke:none;fill:#cccccc;"/>
<rect x="131.650000" y="222.000000" width="24.000000" height="24.000000" rx="0" ry="0" style="stroke:none;fill:#f44800;"/>
<text x="143.650000" y="236.000000" font-family="Arial" font-size="7" text-anchor="middle" fill="#FFFFFF">1</text>
<circle cx="133.650000" cy="224.000000" r="1"/>
<line x1="122.650000" y1="213.000000" x2="122.650000" y2="255.000000"  style="stroke: black; stroke-linecap:round; stroke-width:0.25; stroke-dasharray:3,3;"/>
<line x1="122.650000" y1="255.000000" x2="164.650000" y2="255.000000"  style="stroke: black; stroke-linecap:round; stroke-width:0.25; stroke-dasharray:3,3;"/>
<line x1="164.650000" y1="255.000000" x2="164.650000" y2="213.000000"  style="stroke: black; stroke-linecap:round; stroke-width:0.25; stroke-dasharray:3,3;"/>
<line x1="122.650000" y1="213.000000" x2="127.650000" y2="213.000000"  style="stroke: black; stroke-linecap:round; stroke-width:0.25; stroke-dasharray:3,3;"/>
<line x1="140.550000" y1="213.000000" x2="164.650000" y2="213.000000"  style="stroke: black; stroke-linecap:round; stroke-width:0.25; stroke-dasharray:3,3;"/>
<text x="127.650000" y="215.000000" font-family="Arial" font-size="7">b1</text>
<rect x="206.450000" y="191.000000" width="24.000000" height="24.000000" rx="0" ry="0" style="stroke:none;fill:#cccccc;"/>
<rect x="205.450000" y="190.000000" width="24.000000" height="24.000000" rx="0" ry="0" style="stroke:none;fill:#4B71A1;"/>
<text x="217.450000" y="204.000000" font-family="Arial" font-size="7" text-anchor="middle" fill="#FFFFFF">+</text>
<circle cx="207.450000" cy="192.000000" r="1"/>
<line x1="202.450000" y1="197.000000" x2="205.450000" y2="198.000000"  transform="rotate(0.000000,205.450000,198.000000)" style="stroke: black; stroke-width:0.25;"/>
<line x1="202.450000" y1="199.000000" x2="205.450000" y2="198.000000"  transform="rotate(0.000000,205.450000,198.000000)" style="stroke: black; stroke-width:0.25;"/>
<line x1="202.450000" y1="205.000000" x2="205.450000" y2="206.000000"  transform="rotate(0.000000,205.450000,206.000000)" style="stroke: black; stroke-width:0.25;"/>
<line x1="202.450000" y1="207.000000" x2="205.450000" y2="206.000000"  transform="rotate(0.000000,205.450000,206.000000)" style="stroke: black; stroke-width:0.25;"/>
<rect x="55.000000" y="295.000000" width="219.300000" height="24.000000" rx="0" ry="0" style="stroke:none;fill:#cccccc;"/>
<rect x="54.000000" y="294.000000" width="219.300000" height="24.000000" rx="0" ry="0" style="stroke:none;fill:#477881;"/>
<text x="163.650000" y="308.000000" font-family="Arial" font-size="7" text-anchor="middle" fill="#FFFFFF">vslider(indexMid, 5e+01f, 0.001f, 1e+02f, 0.001f)</text>
<circle cx="56.000000" cy="296.000000" r="1"/>
<line x1="45.000000" y1="285.000000" x2="45.000000" y2="327.000000"  style="stroke: black; stroke-linecap:round; stroke-width:0.25; stroke-dasharray:3,3;"/>
<line x1="45.000000" y1="327.000000" x2="282.300000" y2="327.000000"  style="stroke: black; stroke-linecap:round; stroke-width:0.25; stroke-dasharray:3,3;"/>
<line x1="282.300000" y1="327.000000" x2="282.300000" y2="285.000000"  style="stroke: black; stroke-linecap:round; stroke-width:0.25; stroke-dasharray:3,3;"/>
<line x1="45.000000" y1="285.000000" x2="50.000000" y2="285.000000"  style="stroke: black; stroke-linecap:round; stroke-width:0.25; stroke-dasharray:3,3;"/>
<line x1="130.625000" y1="285.000000" x2="282.300000" y2="285.000000"  style="stroke: black; stroke-linecap:round; stroke-width:0.25; stroke-dasharray:3,3;"/>
<text x="50.000000" y="287.000000" font-family="Arial" font-size="7">vgroup(mid frequencies)</text>
<line x1="35.000000" y1="275.000000" x2="35.000000" y2="337.000000"  style="stroke: black; stroke-linecap:round; stroke-width:0.25; stroke-dasharray:3,3;"/>
<line x1="35.000000" y1="337.000000" x2="292.300000" y2="337.000000"  style="stroke: black; stroke-linecap:round; stroke-width:0.25; stroke-dasharray:3,3;"/>
<line x1="292.300000" y1="337.000000" x2="292.300000" y2="275.000000"  style="stroke: black; stroke-linecap:round; stroke-width:0.25; stroke-dasharray:3,3;"/>
<line x1="35.000000" y1="275.000000" x2="40.000000" y2="275.000000"  style="stroke: black; stroke-linecap:round; stroke-width:0.25; stroke-dasharray:3,3;"/>
<line x1="104.500000" y1="275.000000" x2="292.300000" y2="275.000000"  style="stroke: black; stroke-linecap:round; stroke-width:0.25; stroke-dasharray:3,3;"/>
<text x="40.000000" y="277.000000" font-family="Arial" font-size="7">hgroup(parameters)</text>
<line x1="25.000000" y1="265.000000" x2="25.000000" y2="347.000000"  style="stroke: black; stroke-linecap:round; stroke-width:0.25; stroke-dasharray:3,3;"/>
<line x1="25.000000" y1="347.000000" x2="302.300000" y2="347.000000"  style="stroke: black; stroke-linecap:round; stroke-width:0.25; stroke-dasharray:3,3;"/>
<line x1="302.300000" y1="347.000000" x2="302.300000" y2="265.000000"  style="stroke: black; stroke-linecap:round; stroke-width:0.25; stroke-dasharray:3,3;"/>
<line x1="25.000000" y1="265.000000" x2="30.000000" y2="265.000000"  style="stroke: black; stroke-linecap:round; stroke-width:0.25; stroke-dasharray:3,3;"/>
<line x1="71.925000" y1="265.000000" x2="302.300000" y2="265.000000"  style="stroke: black; stroke-linecap:round; stroke-width:0.25; stroke-dasharray:3,3;"/>
<text x="30.000000" y="267.000000" font-family="Arial" font-size="7">pafIndexMid</text>
<rect x="320.300000" y="237.000000" width="24.000000" height="24.000000" rx="0" ry="0" style="stroke:none;fill:#cccccc;"/>
<rect x="319.300000" y="236.000000" width="24.000000" height="24.000000" rx="0" ry="0" style="stroke:none;fill:#4B71A1;"/>
<text x="331.300000" y="250.000000" font-family="Arial" font-size="7" text-anchor="middle" fill="#FFFFFF">*</text>
<circle cx="321.300000" cy="238.000000" r="1"/>
<line x1="316.300000" y1="243.000000" x2="319.300000" y2="244.000000"  transform="rotate(0.000000,319.300000,244.000000)" style="stroke: black; stroke-width:0.25;"/>
<line x1="316.300000" y1="245.000000" x2="319.300000" y2="244.000000"  transform="rotate(0.000000,319.300000,244.000000)" style="stroke: black; stroke-width:0.25;"/>
<line x1="316.300000" y1="251.000000" x2="319.300000" y2="252.000000"  transform="rotate(0.000000,319.300000,252.000000)" style="stroke: black; stroke-width:0.25;"/>
<line x1="316.300000" y1="253.000000" x2="319.300000" y2="252.000000"  transform="rotate(0.000000,319.300000,252.000000)" style="stroke: black; stroke-width:0.25;"/>
<rect x="360.300000" y="175.000000" width="24.000000" height="24.000000" rx="0" ry="0" style="stroke:none;fill:#cccccc;"/>
<rect x="359.300000" y="174.000000" width="24.000000" height="24.000000" rx="0" ry="0" style="stroke:none;fill:#4B71A1;"/>
<text x="371.300000" y="188.000000" font-family="Arial" font-size="7" text-anchor="middle" fill="#FFFFFF">+</text>
<circle cx="361.300000" cy="176.000000" r="1"/>
<line x1="356.300000" y1="181.000000" x2="359.300000" y2="182.000000"  transform="rotate(0.000000,359.300000,182.000000)" style="stroke: black; stroke-width:0.25;"/>
<line x1="356.300000" y1="183.000000" x2="359.300000" y2="182.000000"  transform="rotate(0.000000,359.300000,182.000000)" style="stroke: black; stroke-width:0.25;"/>
<line x1="356.300000" y1="189.000000" x2="359.300000" y2="190.000000"  transform="rotate(0.000000,359.300000,190.000000)" style="stroke: black; stroke-width:0.25;"/>
<line x1="356.300000" y1="191.000000" x2="359.300000" y2="190.000000"  transform="rotate(0.000000,359.300000,190.000000)" style="stroke: black; stroke-width:0.25;"/>
<line x1="15.000000" y1="15.000000" x2="15.000000" y2="357.000000"  style="stroke: black; stroke-linecap:round; stroke-width:0.25; stroke-dasharray:3,3;"/>
<line x1="15.000000" y1="357.000000" x2="400.300000" y2="357.000000"  style="stroke: black; stroke-linecap:round; stroke-width:0.25; stroke-dasharray:3,3;"/>
<line x1="400.300000" y1="357.000000" x2="400.300000" y2="15.000000"  style="stroke: black; stroke-linecap:round; stroke-width:0.25; stroke-dasharray:3,3;"/>
<line x1="15.000000" y1="15.000000" x2="20.000000" y2="15.000000"  style="stroke: black; stroke-linecap:round; stroke-width:0.25; stroke-dasharray:3,3;"/>
<line x1="74.825000" y1="15.000000" x2="400.300000" y2="15.000000"  style="stroke: black; stroke-linecap:round; stroke-width:0.25; stroke-dasharray:3,3;"/>
<text x="20.000000" y="17.000000" font-family="Arial" font-size="7">midToTopVal(14)</text>
<line x1="402.300000" y1="185.000000" x2="405.300000" y2="186.000000"  transform="rotate(0.000000,405.300000,186.000000)" style="stroke: black; stroke-width:0.25;"/>
<line x1="402.300000" y1="187.000000" x2="405.300000" y2="186.000000"  transform="rotate(0.000000,405.300000,186.000000)" style="stroke: black; stroke-width:0.25;"/>
<line x1="135.650000" y1="192.000000" x2="139.650000" y2="192.000000"  style="stroke:black; stroke-linecap:round; stroke-width:0.25;"/>
<line x1="139.650000" y1="192.000000" x2="153.450000" y2="192.000000"  style="stroke:black; stroke-linecap:round; stroke-width:0.25;"/>
<line x1="149.450000" y1="160.000000" x2="153.450000" y2="160.000000"  style="stroke:black; stroke-linecap:round; stroke-width:0.25;"/>
<line x1="153.450000" y1="160.000000" x2="161.450000" y2="160.000000"  style="stroke:black; stroke-linecap:round; stroke-width:0.25;"/>
<line x1="153.450000" y1="180.000000" x2="161.450000" y2="180.000000"  style="stroke:black; stroke-linecap:round; stroke-width:0.25;"/>
<line x1="153.450000" y1="192.000000" x2="153.450000" y2="180.000000"  style="stroke:black; stroke-linecap:round; stroke-width:0.25;"/>
<line x1="153.450000" y1="192.000000" x2="153.450000" y2="192.000000"  style="stroke:black; stroke-linecap:round; stroke-width:0.25;"/>
<line x1="155.650000" y1="234.000000" x2="159.650000" y2="234.000000"  style="stroke:black; stroke-linecap:round; stroke-width:0.25;"/>
<line x1="159.650000" y1="234.000000" x2="169.650000" y2="234.000000"  style="stroke:black; stroke-linecap:round; stroke-width:0.25;"/>
<line x1="161.450000" y1="160.000000" x2="161.450000" y2="172.000000"  style="stroke:black; stroke-linecap:round; stroke-width:0.25;"/>
<line x1="161.450000" y1="172.000000" x2="161.450000" y2="172.000000"  style="stroke:black; stroke-linecap:round; stroke-width:0.25;"/>
<line x1="161.450000" y1="172.000000" x2="165.450000" y2="172.000000"  style="stroke:black; stroke-linecap:round; stroke-width:0.25;"/>
<line x1="161.450000" y1="180.000000" x2="165.450000" y2="180.000000"  style="stroke:black; stroke-linecap:round; stroke-width:0.25;"/>
<line x1="169.650000" y1="234.000000" x2="193.450000" y2="234.000000"  style="stroke:black; stroke-linecap:round; stroke-width:0.25;"/>
<line x1="189.450000" y1="36.000000" x2="193.450000" y2="36.000000"  style="stroke:black; stroke-linecap:round; stroke-width:0.25;"/>
<line x1="189.450000" y1="176.000000" x2="193.450000" y2="176.000000"  style="stroke:black; stroke-linecap:round; stroke-width:0.25;"/>
<line x1="193.450000" y1="36.000000" x2="307.300000" y2="36.000000"  style="stroke:black; stroke-linecap:round; stroke-width:0.25;"/>
<line x1="193.450000" y1="176.000000" x2="201.450000" y2="176.000000"  style="stroke:black; stroke-linecap:round; stroke-width:0.25;"/>
<line x1="193.450000" y1="206.000000" x2="201.450000" y2="206.000000"  style="stroke:black; stroke-linecap:round; stroke-width:0.25;"/>
<line x1="193.450000" y1="234.000000" x2="193.450000" y2="206.000000"  style="stroke:black; stroke-linecap:round; stroke-width:0.25;"/>
<line x1="193.450000" y1="234.000000" x2="193.450000" y2="234.000000"  style="stroke:black; stroke-linecap:round; stroke-width:0.25;"/>
<line x1="201.450000" y1="176.000000" x2="201.450000" y2="198.000000"  style="stroke:black; stroke-linecap:round; stroke-width:0.25;"/>
<line x1="201.450000" y1="198.000000" x2="201.450000" y2="198.000000"  style="stroke:black; stroke-linecap:round; stroke-width:0.25;"/>
<line x1="201.450000" y1="198.000000" x2="205.450000" y2="198.000000"  style="stroke:black; stroke-linecap:round; stroke-width:0.25;"/>
<line x1="201.450000" y1="206.000000" x2="205.450000" y2="206.000000"  style="stroke:black; stroke-linecap:round; stroke-width:0.25;"/>
<line x1="229.450000" y1="202.000000" x2="233.450000" y2="202.000000"  style="stroke:black; stroke-linecap:round; stroke-width:0.25;"/>
<line x1="233.450000" y1="202.000000" x2="307.300000" y2="202.000000"  style="stroke:black; stroke-linecap:round; stroke-width:0.25;"/>
<line x1="273.300000" y1="98.000000" x2="277.300000" y2="98.000000"  style="stroke:black; stroke-linecap:round; stroke-width:0.25;"/>
<line x1="273.300000" y1="306.000000" x2="277.300000" y2="306.000000"  style="stroke:black; stroke-linecap:round; stroke-width:0.25;"/>
<line x1="277.300000" y1="98.000000" x2="287.300000" y2="98.000000"  style="stroke:black; stroke-linecap:round; stroke-width:0.25;"/>
<line x1="277.300000" y1="306.000000" x2="287.300000" y2="306.000000"  style="stroke:black; stroke-linecap:round; stroke-width:0.25;"/>
<line x1="287.300000" y1="98.000000" x2="297.300000" y2="98.000000"  style="stroke:black; stroke-linecap:round; stroke-width:0.25;"/>
<line x1="287.300000" y1="306.000000" x2="297.300000" y2="306.000000"  style="stroke:black; stroke-linecap:round; stroke-width:0.25;"/>
<line x1="297.300000" y1="98.000000" x2="307.300000" y2="98.000000"  style="stroke:black; stroke-linecap:round; stroke-width:0.25;"/>
<line x1="297.300000" y1="306.000000" x2="307.300000" y2="306.000000"  style="stroke:black; stroke-linecap:round; stroke-width:0.25;"/>
<line x1="307.300000" y1="36.000000" x2="315.300000" y2="36.000000"  style="stroke:black; stroke-linecap:round; stroke-width:0.25;"/>
<line x1="307.300000" y1="86.000000" x2="315.300000" y2="86.000000"  style="stroke:black; stroke-linecap:round; stroke-width:0.25;"/>
<line x1="307.300000" y1="98.000000" x2="307.300000" y2="86.000000"  style="stroke:black; stroke-linecap:round; stroke-width:0.25;"/>
<line x1="307.300000" y1="98.000000" x2="307.300000" y2="98.000000"  style="stroke:black; stroke-linecap:round; stroke-width:0.25;"/>
<line x1="307.300000" y1="202.000000" x2="315.300000" y2="202.000000"  style="stroke:black; stroke-linecap:round; stroke-width:0.25;"/>
<line x1="307.300000" y1="252.000000" x2="315.300000" y2="252.000000"  style="stroke:black; stroke-linecap:round; stroke-width:0.25;"/>
<line x1="307.300000" y1="306.000000" x2="307.300000" y2="252.000000"  style="stroke:black; stroke-linecap:round; stroke-width:0.25;"/>
<line x1="307.300000" y1="306.000000" x2="307.300000" y2="306.000000"  style="stroke:black; stroke-linecap:round; stroke-width:0.25;"/>
<line x1="315.300000" y1="36.000000" x2="315.300000" y2="78.000000"  style="stroke:black; stroke-linecap:round; stroke-width:0.25;"/>
<line x1="315.300000" y1="78.000000" x2="315.300000" y2="78.000000"  style="stroke:black; stroke-linecap:round; stroke-width:0.25;"/>
<line x1="315.300000" y1="78.000000" x2="319.300000" y2="78.000000"  style="stroke:black; stroke-linecap:round; stroke-width:0.25;"/>
<line x1="315.300000" y1="86.000000" x2="319.300000" y2="86.000000"  style="stroke:black; stroke-linecap:round; stroke-width:0.25;"/>
<line x1="315.300000" y1="202.000000" x2="315.300000" y2="244.000000"  style="stroke:black; stroke-linecap:round; stroke-width:0.25;"/>
<line x1="315.300000" y1="244.000000" x2="315.300000" y2="244.000000"  style="stroke:black; stroke-linecap:round; stroke-width:0.25;"/>
<line x1="315.300000" y1="244.000000" x2="319.300000" y2="244.000000"  style="stroke:black; stroke-linecap:round; stroke-width:0.25;"/>
<line x1="315.300000" y1="252.000000" x2="319.300000" y2="252.000000"  style="stroke:black; stroke-linecap:round; stroke-width:0.25;"/>
<line x1="343.300000" y1="82.000000" x2="347.300000" y2="82.000000"  style="stroke:black; stroke-linecap:round; stroke-width:0.25;"/>
<line x1="343.300000" y1="248.000000" x2="347.300000" y2="248.000000"  style="stroke:black; stroke-linecap:round; stroke-width:0.25;"/>
<line x1="347.300000" y1="82.000000" x2="355.300000" y2="82.000000"  style="stroke:black; stroke-linecap:round; stroke-width:0.25;"/>
<line x1="347.300000" y1="190.000000" x2="355.300000" y2="190.000000"  style="stroke:black; stroke-linecap:round; stroke-width:0.25;"/>
<line x1="347.300000" y1="248.000000" x2="347.300000" y2="190.000000"  style="stroke:black; stroke-linecap:round; stroke-width:0.25;"/>
<line x1="347.300000" y1="248.000000" x2="347.300000" y2="248.000000"  style="stroke:black; stroke-linecap:round; stroke-width:0.25;"/>
<line x1="355.300000" y1="82.000000" x2="355.300000" y2="182.000000"  style="stroke:black; stroke-linecap:round; stroke-width:0.25;"/>
<line x1="355.300000" y1="182.000000" x2="355.300000" y2="182.000000"  style="stroke:black; stroke-linecap:round; stroke-width:0.25;"/>
<line x1="355.300000" y1="182.000000" x2="359.300000" y2="182.000000"  style="stroke:black; stroke-linecap:round; stroke-width:0.25;"/>
<line x1="355.300000" y1="190.000000" x2="359.300000" y2="190.000000"  style="stroke:black; stroke-linecap:round; stroke-width:0.25;"/>
<line x1="383.300000" y1="186.000000" x2="387.300000" y2="186.000000"  style="stroke:black; stroke-linecap:round; stroke-width:0.25;"/>
<line x1="387.300000" y1="186.000000" x2="387.300000" y2="186.000000"  style="stroke:black; stroke-linecap:round; stroke-width:0.25;"/>
<line x1="387.300000" y1="186.000000" x2="391.300000" y2="186.000000"  style="stroke:black; stroke-linecap:round; stroke-width:0.25;"/>
<line x1="391.300000" y1="186.000000" x2="395.300000" y2="186.000000"  style="stroke:black; stroke-linecap:round; stroke-width:0.25;"/>
<line x1="395.300000" y1="186.000000" x2="405.300000" y2="186.000000"  style="stroke:black; stroke-linecap:round; stroke-width:0.25;"/>
</svg>
