<?xml version="1.0"?>
<svg xmlns="http://www.w3.org/2000/svg" xmlns:xlink="http://www.w3.org/1999/xlink" viewBox="0 0 428.200000 372.000000" width="214.100000mm" height="186.000000mm" version="1.1">
<a xlink:href="VocoderLinArr-0x13f747d0.svg">
<rect x="1.000000" y="1.000000" width="427.200000" height="371.000000" rx="0" ry="0" style="stroke:none;fill:#cccccc;"/>
<rect x="0.000000" y="0.000000" width="427.200000" height="371.000000" rx="0" ry="0" style="stroke:none;fill:#ffffff;"/>
</a>
<text x="10.000000" y="7.000000" font-family="Arial" font-size="7"></text>
<a xlink:href="midToBottom-0x13efaac0.svg">
<rect x="138.850000" y="25.000000" width="64.500000" height="24.000000" rx="0" ry="0" style="stroke:none;fill:#cccccc;"/>
<rect x="137.850000" y="24.000000" width="64.500000" height="24.000000" rx="0" ry="0" style="stroke:none;fill:#003366;"/>
</a>
<a xlink:href="midToBottom-0x13efaac0.svg">
<text x="170.100000" y="38.000000" font-family="Arial" font-size="7" text-anchor="middle" fill="#FFFFFF">midToBottom(14)</text>
</a>
<circle cx="139.850000" cy="26.000000" r="1"/>
<rect x="55.000000" y="87.000000" width="232.200000" height="24.000000" rx="0" ry="0" style="stroke:none;fill:#cccccc;"/>
<rect x="54.000000" y="86.000000" width="232.200000" height="24.000000" rx="0" ry="0" style="stroke:none;fill:#477881;"/>
<text x="170.100000" y="100.000000" font-family="Arial" font-size="7" text-anchor="middle" fill="#FFFFFF">vslider(indexBottom, 0.001f, 0.001f, 1e+02f, 0.001f)</text>
<circle cx="56.000000" cy="88.000000" r="1"/>
<line x1="45.000000" y1="77.000000" x2="45.000000" y2="119.000000"  style="stroke: black; stroke-linecap:round; stroke-width:0.25; stroke-dasharray:3,3;"/>
<line x1="45.000000" y1="119.000000" x2="295.200000" y2="119.000000"  style="stroke: black; stroke-linecap:round; stroke-width:0.25; stroke-dasharray:3,3;"/>
<line x1="295.200000" y1="119.000000" x2="295.200000" y2="77.000000"  style="stroke: black; stroke-linecap:round; stroke-width:0.25; stroke-dasharray:3,3;"/>
<line x1="45.000000" y1="77.000000" x2="50.000000" y2="77.000000"  style="stroke: black; stroke-linecap:round; stroke-width:0.25; stroke-dasharray:3,3;"/>
<line x1="130.625000" y1="77.000000" x2="295.200000" y2="77.000000"  style="stroke: black; stroke-linecap:round; stroke-width:0.25; stroke-dasharray:3,3;"/>
<text x="50.000000" y="79.000000" font-family="Arial" font-size="7">vgroup(low frequencies)</text>
<line x1="35.000000" y1="67.000000" x2="35.000000" y2="129.000000"  style="stroke: black; stroke-linecap:round; stroke-width:0.25; stroke-dasharray:3,3;"/>
<line x1="35.000000" y1="129.000000" x2="305.200000" y2="129.000000"  style="stroke: black; stroke-linecap:round; stroke-width:0.25; stroke-dasharray:3,3;"/>
<line x1="305.200000" y1="129.000000" x2="305.200000" y2="67.000000"  style="stroke: black; stroke-linecap:round; stroke-width:0.25; stroke-dasharray:3,3;"/>
<line x1="35.000000" y1="67.000000" x2="40.000000" y2="67.000000"  style="stroke: black; stroke-linecap:round; stroke-width:0.25; stroke-dasharray:3,3;"/>
<line x1="104.500000" y1="67.000000" x2="305.200000" y2="67.000000"  style="stroke: black; stroke-linecap:round; stroke-width:0.25; stroke-dasharray:3,3;"/>
<text x="40.000000" y="69.000000" font-family="Arial" font-size="7">hgroup(parameters)</text>
<line x1="25.000000" y1="57.000000" x2="25.000000" y2="139.000000"  style="stroke: black; stroke-linecap:round; stroke-width:0.25; stroke-dasharray:3,3;"/>
<line x1="25.000000" y1="139.000000" x2="315.200000" y2="139.000000"  style="stroke: black; stroke-linecap:round; stroke-width:0.25; stroke-dasharray:3,3;"/>
<line x1="315.200000" y1="139.000000" x2="315.200000" y2="57.000000"  style="stroke: black; stroke-linecap:round; stroke-width:0.25; stroke-dasharray:3,3;"/>
<line x1="25.000000" y1="57.000000" x2="30.000000" y2="57.000000"  style="stroke: black; stroke-linecap:round; stroke-width:0.25; stroke-dasharray:3,3;"/>
<line x1="81.600000" y1="57.000000" x2="315.200000" y2="57.000000"  style="stroke: black; stroke-linecap:round; stroke-width:0.25; stroke-dasharray:3,3;"/>
<text x="30.000000" y="59.000000" font-family="Arial" font-size="7">pafIndexBottom</text>
<rect x="333.200000" y="71.000000" width="24.000000" height="24.000000" rx="0" ry="0" style="stroke:none;fill:#cccccc;"/>
<rect x="332.200000" y="70.000000" width="24.000000" height="24.000000" rx="0" ry="0" style="stroke:none;fill:#4B71A1;"/>
<text x="344.200000" y="84.000000" font-family="Arial" font-size="7" text-anchor="middle" fill="#FFFFFF">*</text>
<circle cx="334.200000" cy="72.000000" r="1"/>
<line x1="329.200000" y1="77.000000" x2="332.200000" y2="78.000000"  transform="rotate(0.000000,332.200000,78.000000)" style="stroke: black; stroke-width:0.25;"/>
<line x1="329.200000" y1="79.000000" x2="332.200000" y2="78.000000"  transform="rotate(0.000000,332.200000,78.000000)" style="stroke: black; stroke-width:0.25;"/>
<line x1="329.200000" y1="85.000000" x2="332.200000" y2="86.000000"  transform="rotate(0.000000,332.200000,86.000000)" style="stroke: black; stroke-width:0.25;"/>
<line x1="329.200000" y1="87.000000" x2="332.200000" y2="86.000000"  transform="rotate(0.000000,332.200000,86.000000)" style="stroke: black; stroke-width:0.25;"/>
<a xlink:href="midToBottom-0x13efaac0.svg">
<rect x="98.850000" y="149.000000" width="64.500000" height="24.000000" rx="0" ry="0" style="stroke:none;fill:#cccccc;"/>
<rect x="97.850000" y="148.000000" width="64.500000" height="24.000000" rx="0" ry="0" style="stroke:none;fill:#003366;"/>
</a>
<a xlink:href="midToBottom-0x13efaac0.svg">
<text x="130.100000" y="162.000000" font-family="Arial" font-size="7" text-anchor="middle" fill="#FFFFFF">midToBottom(14)</text>
</a>
<circle cx="99.850000" cy="150.000000" r="1"/>
<rect x="119.100000" y="181.000000" width="24.000000" height="24.000000" rx="0" ry="0" style="stroke:none;fill:#cccccc;"/>
<rect x="118.100000" y="180.000000" width="24.000000" height="24.000000" rx="0" ry="0" style="stroke:none;fill:#f44800;"/>
<text x="130.100000" y="194.000000" font-family="Arial" font-size="7" text-anchor="middle" fill="#FFFFFF">-1</text>
<circle cx="120.100000" cy="182.000000" r="1"/>
<rect x="179.350000" y="165.000000" width="24.000000" height="24.000000" rx="0" ry="0" style="stroke:none;fill:#cccccc;"/>
<rect x="178.350000" y="164.000000" width="24.000000" height="24.000000" rx="0" ry="0" style="stroke:none;fill:#4B71A1;"/>
<text x="190.350000" y="178.000000" font-family="Arial" font-size="7" text-anchor="middle" fill="#FFFFFF">*</text>
<circle cx="180.350000" cy="166.000000" r="1"/>
<line x1="175.350000" y1="171.000000" x2="178.350000" y2="172.000000"  transform="rotate(0.000000,178.350000,172.000000)" style="stroke: black; stroke-width:0.25;"/>
<line x1="175.350000" y1="173.000000" x2="178.350000" y2="172.000000"  transform="rotate(0.000000,178.350000,172.000000)" style="stroke: black; stroke-width:0.25;"/>
<line x1="175.350000" y1="179.000000" x2="178.350000" y2="180.000000"  transform="rotate(0.000000,178.350000,180.000000)" style="stroke: black; stroke-width:0.25;"/>
<line x1="175.350000" y1="181.000000" x2="178.350000" y2="180.000000"  transform="rotate(0.000000,178.350000,180.000000)" style="stroke: black; stroke-width:0.25;"/>
<rect x="139.100000" y="223.000000" width="24.000000" height="24.000000" rx="0" ry="0" style="stroke:none;fill:#cccccc;"/>
<rect x="138.100000" y="222.000000" width="24.000000" height="24.000000" rx="0" ry="0" style="stroke:none;fill:#f44800;"/>
<text x="150.100000" y="236.000000" font-family="Arial" font-size="7" text-anchor="middle" fill="#FFFFFF">1</text>
<circle cx="140.100000" cy="224.000000" r="1"/>
<line x1="129.100000" y1="213.000000" x2="129.100000" y2="255.000000"  style="stroke: black; stroke-linecap:round; stroke-width:0.25; stroke-dasharray:3,3;"/>
<line x1="129.100000" y1="255.000000" x2="171.100000" y2="255.000000"  style="stroke: black; stroke-linecap:round; stroke-width:0.25; stroke-dasharray:3,3;"/>
<line x1="171.100000" y1="255.000000" x2="171.100000" y2="213.000000"  style="stroke: black; stroke-linecap:round; stroke-width:0.25; stroke-dasharray:3,3;"/>
<line x1="129.100000" y1="213.000000" x2="134.100000" y2="213.000000"  style="stroke: black; stroke-linecap:round; stroke-width:0.25; stroke-dasharray:3,3;"/>
<line x1="147.000000" y1="213.000000" x2="171.100000" y2="213.000000"  style="stroke: black; stroke-linecap:round; stroke-width:0.25; stroke-dasharray:3,3;"/>
<text x="134.100000" y="215.000000" font-family="Arial" font-size="7">b1</text>
<rect x="219.350000" y="191.000000" width="24.000000" height="24.000000" rx="0" ry="0" style="stroke:none;fill:#cccccc;"/>
<rect x="218.350000" y="190.000000" width="24.000000" height="24.000000" rx="0" ry="0" style="stroke:none;fill:#4B71A1;"/>
<text x="230.350000" y="204.000000" font-family="Arial" font-size="7" text-anchor="middle" fill="#FFFFFF">+</text>
<circle cx="220.350000" cy="192.000000" r="1"/>
<line x1="215.350000" y1="197.000000" x2="218.350000" y2="198.000000"  transform="rotate(0.000000,218.350000,198.000000)" style="stroke: black; stroke-width:0.25;"/>
<line x1="215.350000" y1="199.000000" x2="218.350000" y2="198.000000"  transform="rotate(0.000000,218.350000,198.000000)" style="stroke: black; stroke-width:0.25;"/>
<line x1="215.350000" y1="205.000000" x2="218.350000" y2="206.000000"  transform="rotate(0.000000,218.350000,206.000000)" style="stroke: black; stroke-width:0.25;"/>
<line x1="215.350000" y1="207.000000" x2="218.350000" y2="206.000000"  transform="rotate(0.000000,218.350000,206.000000)" style="stroke: black; stroke-width:0.25;"/>
<rect x="61.450000" y="295.000000" width="219.300000" height="24.000000" rx="0" ry="0" style="stroke:none;fill:#cccccc;"/>
<rect x="60.450000" y="294.000000" width="219.300000" height="24.000000" rx="0" ry="0" style="stroke:none;fill:#477881;"/>
<text x="170.100000" y="308.000000" font-family="Arial" font-size="7" text-anchor="middle" fill="#FFFFFF">vslider(indexMid, 5e+01f, 0.001f, 1e+02f, 0.001f)</text>
<circle cx="62.450000" cy="296.000000" r="1"/>
<line x1="51.450000" y1="285.000000" x2="51.450000" y2="327.000000"  style="stroke: black; stroke-linecap:round; stroke-width:0.25; stroke-dasharray:3,3;"/>
<line x1="51.450000" y1="327.000000" x2="288.750000" y2="327.000000"  style="stroke: black; stroke-linecap:round; stroke-width:0.25; stroke-dasharray:3,3;"/>
<line x1="288.750000" y1="327.000000" x2="288.750000" y2="285.000000"  style="stroke: black; stroke-linecap:round; stroke-width:0.25; stroke-dasharray:3,3;"/>
<line x1="51.450000" y1="285.000000" x2="56.450000" y2="285.000000"  style="stroke: black; stroke-linecap:round; stroke-width:0.25; stroke-dasharray:3,3;"/>
<line x1="137.075000" y1="285.000000" x2="288.750000" y2="285.000000"  style="stroke: black; stroke-linecap:round; stroke-width:0.25; stroke-dasharray:3,3;"/>
<text x="56.450000" y="287.000000" font-family="Arial" font-size="7">vgroup(mid frequencies)</text>
<line x1="41.450000" y1="275.000000" x2="41.450000" y2="337.000000"  style="stroke: black; stroke-linecap:round; stroke-width:0.25; stroke-dasharray:3,3;"/>
<line x1="41.450000" y1="337.000000" x2="298.750000" y2="337.000000"  style="stroke: black; stroke-linecap:round; stroke-width:0.25; stroke-dasharray:3,3;"/>
<line x1="298.750000" y1="337.000000" x2="298.750000" y2="275.000000"  style="stroke: black; stroke-linecap:round; stroke-width:0.25; stroke-dasharray:3,3;"/>
<line x1="41.450000" y1="275.000000" x2="46.450000" y2="275.000000"  style="stroke: black; stroke-linecap:round; stroke-width:0.25; stroke-dasharray:3,3;"/>
<line x1="110.950000" y1="275.000000" x2="298.750000" y2="275.000000"  style="stroke: black; stroke-linecap:round; stroke-width:0.25; stroke-dasharray:3,3;"/>
<text x="46.450000" y="277.000000" font-family="Arial" font-size="7">hgroup(parameters)</text>
<line x1="31.450000" y1="265.000000" x2="31.450000" y2="347.000000"  style="stroke: black; stroke-linecap:round; stroke-width:0.25; stroke-dasharray:3,3;"/>
<line x1="31.450000" y1="347.000000" x2="308.750000" y2="347.000000"  style="stroke: black; stroke-linecap:round; stroke-width:0.25; stroke-dasharray:3,3;"/>
<line x1="308.750000" y1="347.000000" x2="308.750000" y2="265.000000"  style="stroke: black; stroke-linecap:round; stroke-width:0.25; stroke-dasharray:3,3;"/>
<line x1="31.450000" y1="265.000000" x2="36.450000" y2="265.000000"  style="stroke: black; stroke-linecap:round; stroke-width:0.25; stroke-dasharray:3,3;"/>
<line x1="78.375000" y1="265.000000" x2="308.750000" y2="265.000000"  style="stroke: black; stroke-linecap:round; stroke-width:0.25; stroke-dasharray:3,3;"/>
<text x="36.450000" y="267.000000" font-family="Arial" font-size="7">pafIndexMid</text>
<rect x="326.750000" y="237.000000" width="24.000000" height="24.000000" rx="0" ry="0" style="stroke:none;fill:#cccccc;"/>
<rect x="325.750000" y="236.000000" width="24.000000" height="24.000000" rx="0" ry="0" style="stroke:none;fill:#4B71A1;"/>
<text x="337.750000" y="250.000000" font-family="Arial" font-size="7" text-anchor="middle" fill="#FFFFFF">*</text>
<circle cx="327.750000" cy="238.000000" r="1"/>
<line x1="322.750000" y1="243.000000" x2="325.750000" y2="244.000000"  transform="rotate(0.000000,325.750000,244.000000)" style="stroke: black; stroke-width:0.25;"/>
<line x1="322.750000" y1="245.000000" x2="325.750000" y2="244.000000"  transform="rotate(0.000000,325.750000,244.000000)" style="stroke: black; stroke-width:0.25;"/>
<line x1="322.750000" y1="251.000000" x2="325.750000" y2="252.000000"  transform="rotate(0.000000,325.750000,252.000000)" style="stroke: black; stroke-width:0.25;"/>
<line x1="322.750000" y1="253.000000" x2="325.750000" y2="252.000000"  transform="rotate(0.000000,325.750000,252.000000)" style="stroke: black; stroke-width:0.25;"/>
<rect x="373.200000" y="175.000000" width="24.000000" height="24.000000" rx="0" ry="0" style="stroke:none;fill:#cccccc;"/>
<rect x="372.200000" y="174.000000" width="24.000000" height="24.000000" rx="0" ry="0" style="stroke:none;fill:#4B71A1;"/>
<text x="384.200000" y="188.000000" font-family="Arial" font-size="7" text-anchor="middle" fill="#FFFFFF">+</text>
<circle cx="374.200000" cy="176.000000" r="1"/>
<line x1="369.200000" y1="181.000000" x2="372.200000" y2="182.000000"  transform="rotate(0.000000,372.200000,182.000000)" style="stroke: black; stroke-width:0.25;"/>
<line x1="369.200000" y1="183.000000" x2="372.200000" y2="182.000000"  transform="rotate(0.000000,372.200000,182.000000)" style="stroke: black; stroke-width:0.25;"/>
<line x1="369.200000" y1="189.000000" x2="372.200000" y2="190.000000"  transform="rotate(0.000000,372.200000,190.000000)" style="stroke: black; stroke-width:0.25;"/>
<line x1="369.200000" y1="191.000000" x2="372.200000" y2="190.000000"  transform="rotate(0.000000,372.200000,190.000000)" style="stroke: black; stroke-width:0.25;"/>
<line x1="15.000000" y1="15.000000" x2="15.000000" y2="357.000000"  style="stroke: black; stroke-linecap:round; stroke-width:0.25; stroke-dasharray:3,3;"/>
<line x1="15.000000" y1="357.000000" x2="413.200000" y2="357.000000"  style="stroke: black; stroke-linecap:round; stroke-width:0.25; stroke-dasharray:3,3;"/>
<line x1="413.200000" y1="357.000000" x2="413.200000" y2="15.000000"  style="stroke: black; stroke-linecap:round; stroke-width:0.25; stroke-dasharray:3,3;"/>
<line x1="15.000000" y1="15.000000" x2="20.000000" y2="15.000000"  style="stroke: black; stroke-linecap:round; stroke-width:0.25; stroke-dasharray:3,3;"/>
<line x1="84.500000" y1="15.000000" x2="413.200000" y2="15.000000"  style="stroke: black; stroke-linecap:round; stroke-width:0.25; stroke-dasharray:3,3;"/>
<text x="20.000000" y="17.000000" font-family="Arial" font-size="7">midToBottomVal(14)</text>
<line x1="415.200000" y1="185.000000" x2="418.200000" y2="186.000000"  transform="rotate(0.000000,418.200000,186.000000)" style="stroke: black; stroke-width:0.25;"/>
<line x1="415.200000" y1="187.000000" x2="418.200000" y2="186.000000"  transform="rotate(0.000000,418.200000,186.000000)" style="stroke: black; stroke-width:0.25;"/>
<line x1="142.100000" y1="192.000000" x2="146.100000" y2="192.000000"  style="stroke:black; stroke-linecap:round; stroke-width:0.25;"/>
<line x1="146.100000" y1="192.000000" x2="166.350000" y2="192.000000"  style="stroke:black; stroke-linecap:round; stroke-width:0.25;"/>
<line x1="162.100000" y1="234.000000" x2="166.100000" y2="234.000000"  style="stroke:black; stroke-linecap:round; stroke-width:0.25;"/>
<line x1="162.350000" y1="160.000000" x2="166.350000" y2="160.000000"  style="stroke:black; stroke-linecap:round; stroke-width:0.25;"/>
<line x1="166.100000" y1="234.000000" x2="176.100000" y2="234.000000"  style="stroke:black; stroke-linecap:round; stroke-width:0.25;"/>
<line x1="166.350000" y1="160.000000" x2="174.350000" y2="160.000000"  style="stroke:black; stroke-linecap:round; stroke-width:0.25;"/>
<line x1="166.350000" y1="180.000000" x2="174.350000" y2="180.000000"  style="stroke:black; stroke-linecap:round; stroke-width:0.25;"/>
<line x1="166.350000" y1="192.000000" x2="166.350000" y2="180.000000"  style="stroke:black; stroke-linecap:round; stroke-width:0.25;"/>
<line x1="166.350000" y1="192.000000" x2="166.350000" y2="192.000000"  style="stroke:black; stroke-linecap:round; stroke-width:0.25;"/>
<line x1="174.350000" y1="160.000000" x2="174.350000" y2="172.000000"  style="stroke:black; stroke-linecap:round; stroke-width:0.25;"/>
<line x1="174.350000" y1="172.000000" x2="174.350000" y2="172.000000"  style="stroke:black; stroke-linecap:round; stroke-width:0.25;"/>
<line x1="174.350000" y1="172.000000" x2="178.350000" y2="172.000000"  style="stroke:black; stroke-linecap:round; stroke-width:0.25;"/>
<line x1="174.350000" y1="180.000000" x2="178.350000" y2="180.000000"  style="stroke:black; stroke-linecap:round; stroke-width:0.25;"/>
<line x1="176.100000" y1="234.000000" x2="206.350000" y2="234.000000"  style="stroke:black; stroke-linecap:round; stroke-width:0.25;"/>
<line x1="202.350000" y1="36.000000" x2="206.350000" y2="36.000000"  style="stroke:black; stroke-linecap:round; stroke-width:0.25;"/>
<line x1="202.350000" y1="176.000000" x2="206.350000" y2="176.000000"  style="stroke:black; stroke-linecap:round; stroke-width:0.25;"/>
<line x1="206.350000" y1="36.000000" x2="320.200000" y2="36.000000"  style="stroke:black; stroke-linecap:round; stroke-width:0.25;"/>
<line x1="206.350000" y1="176.000000" x2="214.350000" y2="176.000000"  style="stroke:black; stroke-linecap:round; stroke-width:0.25;"/>
<line x1="206.350000" y1="206.000000" x2="214.350000" y2="206.000000"  style="stroke:black; stroke-linecap:round; stroke-width:0.25;"/>
<line x1="206.350000" y1="234.000000" x2="206.350000" y2="206.000000"  style="stroke:black; stroke-linecap:round; stroke-width:0.25;"/>
<line x1="206.350000" y1="234.000000" x2="206.350000" y2="234.000000"  style="stroke:black; stroke-linecap:round; stroke-width:0.25;"/>
<line x1="214.350000" y1="176.000000" x2="214.350000" y2="198.000000"  style="stroke:black; stroke-linecap:round; stroke-width:0.25;"/>
<line x1="214.350000" y1="198.000000" x2="214.350000" y2="198.000000"  style="stroke:black; stroke-linecap:round; stroke-width:0.25;"/>
<line x1="214.350000" y1="198.000000" x2="218.350000" y2="198.000000"  style="stroke:black; stroke-linecap:round; stroke-width:0.25;"/>
<line x1="214.350000" y1="206.000000" x2="218.350000" y2="206.000000"  style="stroke:black; stroke-linecap:round; stroke-width:0.25;"/>
<line x1="242.350000" y1="202.000000" x2="246.350000" y2="202.000000"  style="stroke:black; stroke-linecap:round; stroke-width:0.25;"/>
<line x1="246.350000" y1="202.000000" x2="313.750000" y2="202.000000"  style="stroke:black; stroke-linecap:round; stroke-width:0.25;"/>
<line x1="279.750000" y1="306.000000" x2="283.750000" y2="306.000000"  style="stroke:black; stroke-linecap:round; stroke-width:0.25;"/>
<line x1="283.750000" y1="306.000000" x2="293.750000" y2="306.000000"  style="stroke:black; stroke-linecap:round; stroke-width:0.25;"/>
<line x1="286.200000" y1="98.000000" x2="290.200000" y2="98.000000"  style="stroke:black; stroke-linecap:round; stroke-width:0.25;"/>
<line x1="290.200000" y1="98.000000" x2="300.200000" y2="98.000000"  style="stroke:black; stroke-linecap:round; stroke-width:0.25;"/>
<line x1="293.750000" y1="306.000000" x2="303.750000" y2="306.000000"  style="stroke:black; stroke-linecap:round; stroke-width:0.25;"/>
<line x1="300.200000" y1="98.000000" x2="310.200000" y2="98.000000"  style="stroke:black; stroke-linecap:round; stroke-width:0.25;"/>
<line x1="303.750000" y1="306.000000" x2="313.750000" y2="306.000000"  style="stroke:black; stroke-linecap:round; stroke-width:0.25;"/>
<line x1="310.200000" y1="98.000000" x2="320.200000" y2="98.000000"  style="stroke:black; stroke-linecap:round; stroke-width:0.25;"/>
<line x1="313.750000" y1="202.000000" x2="321.750000" y2="202.000000"  style="stroke:black; stroke-linecap:round; stroke-width:0.25;"/>
<line x1="313.750000" y1="252.000000" x2="321.750000" y2="252.000000"  style="stroke:black; stroke-linecap:round; stroke-width:0.25;"/>
<line x1="313.750000" y1="306.000000" x2="313.750000" y2="252.000000"  style="stroke:black; stroke-linecap:round; stroke-width:0.25;"/>
<line x1="313.750000" y1="306.000000" x2="313.750000" y2="306.000000"  style="stroke:black; stroke-linecap:round; stroke-width:0.25;"/>
<line x1="320.200000" y1="36.000000" x2="328.200000" y2="36.000000"  style="stroke:black; stroke-linecap:round; stroke-width:0.25;"/>
<line x1="320.200000" y1="86.000000" x2="328.200000" y2="86.000000"  style="stroke:black; stroke-linecap:round; stroke-width:0.25;"/>
<line x1="320.200000" y1="98.000000" x2="320.200000" y2="86.000000"  style="stroke:black; stroke-linecap:round; stroke-width:0.25;"/>
<line x1="320.200000" y1="98.000000" x2="320.200000" y2="98.000000"  style="stroke:black; stroke-linecap:round; stroke-width:0.25;"/>
<line x1="321.750000" y1="202.000000" x2="321.750000" y2="244.000000"  style="stroke:black; stroke-linecap:round; stroke-width:0.25;"/>
<line x1="321.750000" y1="244.000000" x2="321.750000" y2="244.000000"  style="stroke:black; stroke-linecap:round; stroke-width:0.25;"/>
<line x1="321.750000" y1="244.000000" x2="325.750000" y2="244.000000"  style="stroke:black; stroke-linecap:round; stroke-width:0.25;"/>
<line x1="321.750000" y1="252.000000" x2="325.750000" y2="252.000000"  style="stroke:black; stroke-linecap:round; stroke-width:0.25;"/>
<line x1="328.200000" y1="36.000000" x2="328.200000" y2="78.000000"  style="stroke:black; stroke-linecap:round; stroke-width:0.25;"/>
<line x1="328.200000" y1="78.000000" x2="328.200000" y2="78.000000"  style="stroke:black; stroke-linecap:round; stroke-width:0.25;"/>
<line x1="328.200000" y1="78.000000" x2="332.200000" y2="78.000000"  style="stroke:black; stroke-linecap:round; stroke-width:0.25;"/>
<line x1="328.200000" y1="86.000000" x2="332.200000" y2="86.000000"  style="stroke:black; stroke-linecap:round; stroke-width:0.25;"/>
<line x1="349.750000" y1="248.000000" x2="353.750000" y2="248.000000"  style="stroke:black; stroke-linecap:round; stroke-width:0.25;"/>
<line x1="353.750000" y1="248.000000" x2="360.200000" y2="248.000000"  style="stroke:black; stroke-linecap:round; stroke-width:0.25;"/>
<line x1="356.200000" y1="82.000000" x2="360.200000" y2="82.000000"  style="stroke:black; stroke-linecap:round; stroke-width:0.25;"/>
<line x1="360.200000" y1="82.000000" x2="368.200000" y2="82.000000"  style="stroke:black; stroke-linecap:round; stroke-width:0.25;"/>
<line x1="360.200000" y1="190.000000" x2="368.200000" y2="190.000000"  style="stroke:black; stroke-linecap:round; stroke-width:0.25;"/>
<line x1="360.200000" y1="248.000000" x2="360.200000" y2="190.000000"  style="stroke:black; stroke-linecap:round; stroke-width:0.25;"/>
<line x1="360.200000" y1="248.000000" x2="360.200000" y2="248.000000"  style="stroke:black; stroke-linecap:round; stroke-width:0.25;"/>
<line x1="368.200000" y1="82.000000" x2="368.200000" y2="182.000000"  style="stroke:black; stroke-linecap:round; stroke-width:0.25;"/>
<line x1="368.200000" y1="182.000000" x2="368.200000" y2="182.000000"  style="stroke:black; stroke-linecap:round; stroke-width:0.25;"/>
<line x1="368.200000" y1="182.000000" x2="372.200000" y2="182.000000"  style="stroke:black; stroke-linecap:round; stroke-width:0.25;"/>
<line x1="368.200000" y1="190.000000" x2="372.200000" y2="190.000000"  style="stroke:black; stroke-linecap:round; stroke-width:0.25;"/>
<line x1="396.200000" y1="186.000000" x2="400.200000" y2="186.000000"  style="stroke:black; stroke-linecap:round; stroke-width:0.25;"/>
<line x1="400.200000" y1="186.000000" x2="400.200000" y2="186.000000"  style="stroke:black; stroke-linecap:round; stroke-width:0.25;"/>
<line x1="400.200000" y1="186.000000" x2="404.200000" y2="186.000000"  style="stroke:black; stroke-linecap:round; stroke-width:0.25;"/>
<line x1="404.200000" y1="186.000000" x2="408.200000" y2="186.000000"  style="stroke:black; stroke-linecap:round; stroke-width:0.25;"/>
<line x1="408.200000" y1="186.000000" x2="418.200000" y2="186.000000"  style="stroke:black; stroke-linecap:round; stroke-width:0.25;"/>
</svg>
