<?xml version="1.0"?>
<svg xmlns="http://www.w3.org/2000/svg" xmlns:xlink="http://www.w3.org/1999/xlink" viewBox="0 0 265.000000 208.000000" width="132.500000mm" height="104.000000mm" version="1.1">
<a xlink:href="c-0x233653f0.svg">
<rect x="1.000000" y="1.000000" width="264.000000" height="207.000000" rx="0" ry="0" style="stroke:none;fill:#cccccc;"/>
<rect x="0.000000" y="0.000000" width="264.000000" height="207.000000" rx="0" ry="0" style="stroke:none;fill:#ffffff;"/>
</a>
<text x="10.000000" y="7.000000" font-family="Arial" font-size="7"></text>
<rect x="77.500000" y="35.000000" width="24.000000" height="24.000000" rx="0" ry="0" style="stroke:none;fill:#cccccc;"/>
<rect x="76.500000" y="34.000000" width="24.000000" height="24.000000" rx="0" ry="0" style="stroke:none;fill:#f44800;"/>
<text x="88.500000" y="48.000000" font-family="Arial" font-size="7" text-anchor="middle" fill="#FFFFFF">2</text>
<circle cx="78.500000" cy="36.000000" r="1"/>
<line x1="67.500000" y1="25.000000" x2="67.500000" y2="67.000000"  style="stroke: black; stroke-linecap:round; stroke-width:0.25; stroke-dasharray:3,3;"/>
<line x1="67.500000" y1="67.000000" x2="109.500000" y2="67.000000"  style="stroke: black; stroke-linecap:round; stroke-width:0.25; stroke-dasharray:3,3;"/>
<line x1="109.500000" y1="67.000000" x2="109.500000" y2="25.000000"  style="stroke: black; stroke-linecap:round; stroke-width:0.25; stroke-dasharray:3,3;"/>
<line x1="67.500000" y1="25.000000" x2="72.500000" y2="25.000000"  style="stroke: black; stroke-linecap:round; stroke-width:0.25; stroke-dasharray:3,3;"/>
<line x1="82.175000" y1="25.000000" x2="109.500000" y2="25.000000"  style="stroke: black; stroke-linecap:round; stroke-width:0.25; stroke-dasharray:3,3;"/>
<text x="72.500000" y="27.000000" font-family="Arial" font-size="7">M</text>
<rect x="70.150000" y="87.000000" width="38.700000" height="24.000000" rx="0" ry="0" style="stroke:none;fill:#cccccc;"/>
<rect x="69.150000" y="86.000000" width="38.700000" height="24.000000" rx="0" ry="0" style="stroke:none;fill:#f44800;"/>
<text x="88.500000" y="100.000000" font-family="Arial" font-size="7" text-anchor="middle" fill="#FFFFFF">3.14159</text>
<circle cx="71.150000" cy="88.000000" r="1"/>
<line x1="60.150000" y1="77.000000" x2="60.150000" y2="119.000000"  style="stroke: black; stroke-linecap:round; stroke-width:0.25; stroke-dasharray:3,3;"/>
<line x1="60.150000" y1="119.000000" x2="116.850000" y2="119.000000"  style="stroke: black; stroke-linecap:round; stroke-width:0.25; stroke-dasharray:3,3;"/>
<line x1="116.850000" y1="119.000000" x2="116.850000" y2="77.000000"  style="stroke: black; stroke-linecap:round; stroke-width:0.25; stroke-dasharray:3,3;"/>
<line x1="60.150000" y1="77.000000" x2="65.150000" y2="77.000000"  style="stroke: black; stroke-linecap:round; stroke-width:0.25; stroke-dasharray:3,3;"/>
<line x1="78.050000" y1="77.000000" x2="116.850000" y2="77.000000"  style="stroke: black; stroke-linecap:round; stroke-width:0.25; stroke-dasharray:3,3;"/>
<text x="65.150000" y="79.000000" font-family="Arial" font-size="7">PI</text>
<rect x="134.850000" y="61.000000" width="24.000000" height="24.000000" rx="0" ry="0" style="stroke:none;fill:#cccccc;"/>
<rect x="133.850000" y="60.000000" width="24.000000" height="24.000000" rx="0" ry="0" style="stroke:none;fill:#4B71A1;"/>
<text x="145.850000" y="74.000000" font-family="Arial" font-size="7" text-anchor="middle" fill="#FFFFFF">*</text>
<circle cx="135.850000" cy="62.000000" r="1"/>
<line x1="130.850000" y1="67.000000" x2="133.850000" y2="68.000000"  transform="rotate(0.000000,133.850000,68.000000)" style="stroke: black; stroke-width:0.25;"/>
<line x1="130.850000" y1="69.000000" x2="133.850000" y2="68.000000"  transform="rotate(0.000000,133.850000,68.000000)" style="stroke: black; stroke-width:0.25;"/>
<line x1="130.850000" y1="75.000000" x2="133.850000" y2="76.000000"  transform="rotate(0.000000,133.850000,76.000000)" style="stroke: black; stroke-width:0.25;"/>
<line x1="130.850000" y1="77.000000" x2="133.850000" y2="76.000000"  transform="rotate(0.000000,133.850000,76.000000)" style="stroke: black; stroke-width:0.25;"/>
<a xlink:href="masterPitch-0x23364b30.svg">
<rect x="25.000000" y="129.000000" width="129.000000" height="24.000000" rx="0" ry="0" style="stroke:none;fill:#cccccc;"/>
<rect x="24.000000" y="128.000000" width="129.000000" height="24.000000" rx="0" ry="0" style="stroke:none;fill:#003366;"/>
</a>
<a xlink:href="masterPitch-0x23364b30.svg">
<text x="88.500000" y="142.000000" font-family="Arial" font-size="7" text-anchor="middle" fill="#FFFFFF">masterPitch(x..., lenv = {}])</text>
</a>
<circle cx="26.000000" cy="130.000000" r="1"/>
<rect x="76.600000" y="161.000000" width="25.800000" height="24.000000" rx="0" ry="0" style="stroke:none;fill:#cccccc;"/>
<rect x="75.600000" y="160.000000" width="25.800000" height="24.000000" rx="0" ry="0" style="stroke:none;fill:#f44800;"/>
<text x="88.500000" y="174.000000" font-family="Arial" font-size="7" text-anchor="middle" fill="#FFFFFF">0.75</text>
<circle cx="77.600000" cy="162.000000" r="1"/>
<rect x="170.000000" y="145.000000" width="24.000000" height="24.000000" rx="0" ry="0" style="stroke:none;fill:#cccccc;"/>
<rect x="169.000000" y="144.000000" width="24.000000" height="24.000000" rx="0" ry="0" style="stroke:none;fill:#4B71A1;"/>
<text x="181.000000" y="158.000000" font-family="Arial" font-size="7" text-anchor="middle" fill="#FFFFFF">*</text>
<circle cx="171.000000" cy="146.000000" r="1"/>
<line x1="166.000000" y1="151.000000" x2="169.000000" y2="152.000000"  transform="rotate(0.000000,169.000000,152.000000)" style="stroke: black; stroke-width:0.25;"/>
<line x1="166.000000" y1="153.000000" x2="169.000000" y2="152.000000"  transform="rotate(0.000000,169.000000,152.000000)" style="stroke: black; stroke-width:0.25;"/>
<line x1="166.000000" y1="159.000000" x2="169.000000" y2="160.000000"  transform="rotate(0.000000,169.000000,160.000000)" style="stroke: black; stroke-width:0.25;"/>
<line x1="166.000000" y1="161.000000" x2="169.000000" y2="160.000000"  transform="rotate(0.000000,169.000000,160.000000)" style="stroke: black; stroke-width:0.25;"/>
<rect x="210.000000" y="93.000000" width="24.000000" height="24.000000" rx="0" ry="0" style="stroke:none;fill:#cccccc;"/>
<rect x="209.000000" y="92.000000" width="24.000000" height="24.000000" rx="0" ry="0" style="stroke:none;fill:#4B71A1;"/>
<text x="221.000000" y="106.000000" font-family="Arial" font-size="7" text-anchor="middle" fill="#FFFFFF">*</text>
<circle cx="211.000000" cy="94.000000" r="1"/>
<line x1="206.000000" y1="99.000000" x2="209.000000" y2="100.000000"  transform="rotate(0.000000,209.000000,100.000000)" style="stroke: black; stroke-width:0.25;"/>
<line x1="206.000000" y1="101.000000" x2="209.000000" y2="100.000000"  transform="rotate(0.000000,209.000000,100.000000)" style="stroke: black; stroke-width:0.25;"/>
<line x1="206.000000" y1="107.000000" x2="209.000000" y2="108.000000"  transform="rotate(0.000000,209.000000,108.000000)" style="stroke: black; stroke-width:0.25;"/>
<line x1="206.000000" y1="109.000000" x2="209.000000" y2="108.000000"  transform="rotate(0.000000,209.000000,108.000000)" style="stroke: black; stroke-width:0.25;"/>
<line x1="15.000000" y1="15.000000" x2="15.000000" y2="193.000000"  style="stroke: black; stroke-linecap:round; stroke-width:0.25; stroke-dasharray:3,3;"/>
<line x1="15.000000" y1="193.000000" x2="250.000000" y2="193.000000"  style="stroke: black; stroke-linecap:round; stroke-width:0.25; stroke-dasharray:3,3;"/>
<line x1="250.000000" y1="193.000000" x2="250.000000" y2="15.000000"  style="stroke: black; stroke-linecap:round; stroke-width:0.25; stroke-dasharray:3,3;"/>
<line x1="15.000000" y1="15.000000" x2="20.000000" y2="15.000000"  style="stroke: black; stroke-linecap:round; stroke-width:0.25; stroke-dasharray:3,3;"/>
<line x1="32.900000" y1="15.000000" x2="250.000000" y2="15.000000"  style="stroke: black; stroke-linecap:round; stroke-width:0.25; stroke-dasharray:3,3;"/>
<text x="20.000000" y="17.000000" font-family="Arial" font-size="7">w1</text>
<line x1="252.000000" y1="103.000000" x2="255.000000" y2="104.000000"  transform="rotate(0.000000,255.000000,104.000000)" style="stroke: black; stroke-width:0.25;"/>
<line x1="252.000000" y1="105.000000" x2="255.000000" y2="104.000000"  transform="rotate(0.000000,255.000000,104.000000)" style="stroke: black; stroke-width:0.25;"/>
<line x1="100.500000" y1="46.000000" x2="104.500000" y2="46.000000"  style="stroke:black; stroke-linecap:round; stroke-width:0.25;"/>
<line x1="101.400000" y1="172.000000" x2="105.400000" y2="172.000000"  style="stroke:black; stroke-linecap:round; stroke-width:0.25;"/>
<line x1="104.500000" y1="46.000000" x2="114.500000" y2="46.000000"  style="stroke:black; stroke-linecap:round; stroke-width:0.25;"/>
<line x1="105.400000" y1="172.000000" x2="157.000000" y2="172.000000"  style="stroke:black; stroke-linecap:round; stroke-width:0.25;"/>
<line x1="107.850000" y1="98.000000" x2="111.850000" y2="98.000000"  style="stroke:black; stroke-linecap:round; stroke-width:0.25;"/>
<line x1="111.850000" y1="98.000000" x2="121.850000" y2="98.000000"  style="stroke:black; stroke-linecap:round; stroke-width:0.25;"/>
<line x1="114.500000" y1="46.000000" x2="121.850000" y2="46.000000"  style="stroke:black; stroke-linecap:round; stroke-width:0.25;"/>
<line x1="121.850000" y1="46.000000" x2="129.850000" y2="46.000000"  style="stroke:black; stroke-linecap:round; stroke-width:0.25;"/>
<line x1="121.850000" y1="76.000000" x2="129.850000" y2="76.000000"  style="stroke:black; stroke-linecap:round; stroke-width:0.25;"/>
<line x1="121.850000" y1="98.000000" x2="121.850000" y2="76.000000"  style="stroke:black; stroke-linecap:round; stroke-width:0.25;"/>
<line x1="121.850000" y1="98.000000" x2="121.850000" y2="98.000000"  style="stroke:black; stroke-linecap:round; stroke-width:0.25;"/>
<line x1="129.850000" y1="46.000000" x2="129.850000" y2="68.000000"  style="stroke:black; stroke-linecap:round; stroke-width:0.25;"/>
<line x1="129.850000" y1="68.000000" x2="129.850000" y2="68.000000"  style="stroke:black; stroke-linecap:round; stroke-width:0.25;"/>
<line x1="129.850000" y1="68.000000" x2="133.850000" y2="68.000000"  style="stroke:black; stroke-linecap:round; stroke-width:0.25;"/>
<line x1="129.850000" y1="76.000000" x2="133.850000" y2="76.000000"  style="stroke:black; stroke-linecap:round; stroke-width:0.25;"/>
<line x1="153.000000" y1="140.000000" x2="157.000000" y2="140.000000"  style="stroke:black; stroke-linecap:round; stroke-width:0.25;"/>
<line x1="157.000000" y1="140.000000" x2="165.000000" y2="140.000000"  style="stroke:black; stroke-linecap:round; stroke-width:0.25;"/>
<line x1="157.000000" y1="160.000000" x2="165.000000" y2="160.000000"  style="stroke:black; stroke-linecap:round; stroke-width:0.25;"/>
<line x1="157.000000" y1="172.000000" x2="157.000000" y2="160.000000"  style="stroke:black; stroke-linecap:round; stroke-width:0.25;"/>
<line x1="157.000000" y1="172.000000" x2="157.000000" y2="172.000000"  style="stroke:black; stroke-linecap:round; stroke-width:0.25;"/>
<line x1="157.850000" y1="72.000000" x2="161.850000" y2="72.000000"  style="stroke:black; stroke-linecap:round; stroke-width:0.25;"/>
<line x1="161.850000" y1="72.000000" x2="197.000000" y2="72.000000"  style="stroke:black; stroke-linecap:round; stroke-width:0.25;"/>
<line x1="165.000000" y1="140.000000" x2="165.000000" y2="152.000000"  style="stroke:black; stroke-linecap:round; stroke-width:0.25;"/>
<line x1="165.000000" y1="152.000000" x2="165.000000" y2="152.000000"  style="stroke:black; stroke-linecap:round; stroke-width:0.25;"/>
<line x1="165.000000" y1="152.000000" x2="169.000000" y2="152.000000"  style="stroke:black; stroke-linecap:round; stroke-width:0.25;"/>
<line x1="165.000000" y1="160.000000" x2="169.000000" y2="160.000000"  style="stroke:black; stroke-linecap:round; stroke-width:0.25;"/>
<line x1="193.000000" y1="156.000000" x2="197.000000" y2="156.000000"  style="stroke:black; stroke-linecap:round; stroke-width:0.25;"/>
<line x1="197.000000" y1="72.000000" x2="205.000000" y2="72.000000"  style="stroke:black; stroke-linecap:round; stroke-width:0.25;"/>
<line x1="197.000000" y1="108.000000" x2="205.000000" y2="108.000000"  style="stroke:black; stroke-linecap:round; stroke-width:0.25;"/>
<line x1="197.000000" y1="156.000000" x2="197.000000" y2="108.000000"  style="stroke:black; stroke-linecap:round; stroke-width:0.25;"/>
<line x1="197.000000" y1="156.000000" x2="197.000000" y2="156.000000"  style="stroke:black; stroke-linecap:round; stroke-width:0.25;"/>
<line x1="205.000000" y1="72.000000" x2="205.000000" y2="100.000000"  style="stroke:black; stroke-linecap:round; stroke-width:0.25;"/>
<line x1="205.000000" y1="100.000000" x2="205.000000" y2="100.000000"  style="stroke:black; stroke-linecap:round; stroke-width:0.25;"/>
<line x1="205.000000" y1="100.000000" x2="209.000000" y2="100.000000"  style="stroke:black; stroke-linecap:round; stroke-width:0.25;"/>
<line x1="205.000000" y1="108.000000" x2="209.000000" y2="108.000000"  style="stroke:black; stroke-linecap:round; stroke-width:0.25;"/>
<line x1="233.000000" y1="104.000000" x2="237.000000" y2="104.000000"  style="stroke:black; stroke-linecap:round; stroke-width:0.25;"/>
<line x1="237.000000" y1="104.000000" x2="237.000000" y2="104.000000"  style="stroke:black; stroke-linecap:round; stroke-width:0.25;"/>
<line x1="237.000000" y1="104.000000" x2="241.000000" y2="104.000000"  style="stroke:black; stroke-linecap:round; stroke-width:0.25;"/>
<line x1="241.000000" y1="104.000000" x2="245.000000" y2="104.000000"  style="stroke:black; stroke-linecap:round; stroke-width:0.25;"/>
<line x1="245.000000" y1="104.000000" x2="255.000000" y2="104.000000"  style="stroke:black; stroke-linecap:round; stroke-width:0.25;"/>
</svg>
