<?xml version="1.0"?>
<svg xmlns="http://www.w3.org/2000/svg" xmlns:xlink="http://www.w3.org/1999/xlink" viewBox="0 0 312.500000 272.000000" width="156.250000mm" height="136.000000mm" version="1.1">
<a xlink:href="centerWrap-0x23ddc020.svg">
<rect x="1.000000" y="1.000000" width="311.500000" height="271.000000" rx="0" ry="0" style="stroke:none;fill:#cccccc;"/>
<rect x="0.000000" y="0.000000" width="311.500000" height="271.000000" rx="0" ry="0" style="stroke:none;fill:#ffffff;"/>
</a>
<text x="10.000000" y="7.000000" font-family="Arial" font-size="7"></text>
<rect x="131.900000" y="43.000000" width="24.000000" height="24.000000" rx="0" ry="0" style="stroke:none;fill:#cccccc;"/>
<rect x="130.900000" y="42.000000" width="24.000000" height="24.000000" rx="0" ry="0" style="stroke:none;fill:#f44800;"/>
<text x="142.900000" y="56.000000" font-family="Arial" font-size="7" text-anchor="middle" fill="#FFFFFF">0</text>
<circle cx="132.900000" cy="44.000000" r="1"/>
<line x1="121.900000" y1="33.000000" x2="121.900000" y2="75.000000"  style="stroke: black; stroke-linecap:round; stroke-width:0.25; stroke-dasharray:3,3;"/>
<line x1="121.900000" y1="75.000000" x2="163.900000" y2="75.000000"  style="stroke: black; stroke-linecap:round; stroke-width:0.25; stroke-dasharray:3,3;"/>
<line x1="163.900000" y1="75.000000" x2="163.900000" y2="33.000000"  style="stroke: black; stroke-linecap:round; stroke-width:0.25; stroke-dasharray:3,3;"/>
<line x1="121.900000" y1="33.000000" x2="126.900000" y2="33.000000"  style="stroke: black; stroke-linecap:round; stroke-width:0.25; stroke-dasharray:3,3;"/>
<line x1="139.800000" y1="33.000000" x2="163.900000" y2="33.000000"  style="stroke: black; stroke-linecap:round; stroke-width:0.25; stroke-dasharray:3,3;"/>
<text x="126.900000" y="35.000000" font-family="Arial" font-size="7">b2</text>
<rect x="181.900000" y="39.000000" width="24.000000" height="24.000000" rx="0" ry="0" style="stroke:none;fill:#cccccc;"/>
<rect x="180.900000" y="38.000000" width="24.000000" height="24.000000" rx="0" ry="0" style="stroke:none;fill:#4B71A1;"/>
<text x="192.900000" y="52.000000" font-family="Arial" font-size="7" text-anchor="middle" fill="#FFFFFF">&gt;</text>
<circle cx="182.900000" cy="40.000000" r="1"/>
<line x1="177.900000" y1="45.000000" x2="180.900000" y2="46.000000"  transform="rotate(0.000000,180.900000,46.000000)" style="stroke: black; stroke-width:0.25;"/>
<line x1="177.900000" y1="47.000000" x2="180.900000" y2="46.000000"  transform="rotate(0.000000,180.900000,46.000000)" style="stroke: black; stroke-width:0.25;"/>
<line x1="177.900000" y1="53.000000" x2="180.900000" y2="54.000000"  transform="rotate(0.000000,180.900000,54.000000)" style="stroke: black; stroke-width:0.25;"/>
<line x1="177.900000" y1="55.000000" x2="180.900000" y2="54.000000"  transform="rotate(0.000000,180.900000,54.000000)" style="stroke: black; stroke-width:0.25;"/>
<rect x="111.000000" y="103.000000" width="24.000000" height="24.000000" rx="0" ry="0" style="stroke:none;fill:#cccccc;"/>
<rect x="110.000000" y="102.000000" width="24.000000" height="24.000000" rx="0" ry="0" style="stroke:none;fill:#f44800;"/>
<text x="122.000000" y="116.000000" font-family="Arial" font-size="7" text-anchor="middle" fill="#FFFFFF">1</text>
<circle cx="112.000000" cy="104.000000" r="1"/>
<line x1="101.000000" y1="93.000000" x2="101.000000" y2="135.000000"  style="stroke: black; stroke-linecap:round; stroke-width:0.25; stroke-dasharray:3,3;"/>
<line x1="101.000000" y1="135.000000" x2="143.000000" y2="135.000000"  style="stroke: black; stroke-linecap:round; stroke-width:0.25; stroke-dasharray:3,3;"/>
<line x1="143.000000" y1="135.000000" x2="143.000000" y2="93.000000"  style="stroke: black; stroke-linecap:round; stroke-width:0.25; stroke-dasharray:3,3;"/>
<line x1="101.000000" y1="93.000000" x2="106.000000" y2="93.000000"  style="stroke: black; stroke-linecap:round; stroke-width:0.25; stroke-dasharray:3,3;"/>
<line x1="118.900000" y1="93.000000" x2="143.000000" y2="93.000000"  style="stroke: black; stroke-linecap:round; stroke-width:0.25; stroke-dasharray:3,3;"/>
<text x="106.000000" y="95.000000" font-family="Arial" font-size="7">b1</text>
<rect x="161.000000" y="99.000000" width="25.800000" height="24.000000" rx="0" ry="0" style="stroke:none;fill:#cccccc;"/>
<rect x="160.000000" y="98.000000" width="25.800000" height="24.000000" rx="0" ry="0" style="stroke:none;fill:#4B71A1;"/>
<text x="172.900000" y="112.000000" font-family="Arial" font-size="7" text-anchor="middle" fill="#FFFFFF">fmod</text>
<circle cx="162.000000" cy="100.000000" r="1"/>
<line x1="157.000000" y1="105.000000" x2="160.000000" y2="106.000000"  transform="rotate(0.000000,160.000000,106.000000)" style="stroke: black; stroke-width:0.25;"/>
<line x1="157.000000" y1="107.000000" x2="160.000000" y2="106.000000"  transform="rotate(0.000000,160.000000,106.000000)" style="stroke: black; stroke-width:0.25;"/>
<line x1="157.000000" y1="113.000000" x2="160.000000" y2="114.000000"  transform="rotate(0.000000,160.000000,114.000000)" style="stroke: black; stroke-width:0.25;"/>
<line x1="157.000000" y1="115.000000" x2="160.000000" y2="114.000000"  transform="rotate(0.000000,160.000000,114.000000)" style="stroke: black; stroke-width:0.25;"/>
<rect x="131.900000" y="155.000000" width="24.000000" height="24.000000" rx="0" ry="0" style="stroke:none;fill:#cccccc;"/>
<rect x="130.900000" y="154.000000" width="24.000000" height="24.000000" rx="0" ry="0" style="stroke:none;fill:#f44800;"/>
<text x="142.900000" y="168.000000" font-family="Arial" font-size="7" text-anchor="middle" fill="#FFFFFF">1</text>
<circle cx="132.900000" cy="156.000000" r="1"/>
<line x1="121.900000" y1="145.000000" x2="121.900000" y2="187.000000"  style="stroke: black; stroke-linecap:round; stroke-width:0.25; stroke-dasharray:3,3;"/>
<line x1="121.900000" y1="187.000000" x2="163.900000" y2="187.000000"  style="stroke: black; stroke-linecap:round; stroke-width:0.25; stroke-dasharray:3,3;"/>
<line x1="163.900000" y1="187.000000" x2="163.900000" y2="145.000000"  style="stroke: black; stroke-linecap:round; stroke-width:0.25; stroke-dasharray:3,3;"/>
<line x1="121.900000" y1="145.000000" x2="126.900000" y2="145.000000"  style="stroke: black; stroke-linecap:round; stroke-width:0.25; stroke-dasharray:3,3;"/>
<line x1="139.800000" y1="145.000000" x2="163.900000" y2="145.000000"  style="stroke: black; stroke-linecap:round; stroke-width:0.25; stroke-dasharray:3,3;"/>
<text x="126.900000" y="147.000000" font-family="Arial" font-size="7">b1</text>
<rect x="202.800000" y="125.000000" width="24.000000" height="24.000000" rx="0" ry="0" style="stroke:none;fill:#cccccc;"/>
<rect x="201.800000" y="124.000000" width="24.000000" height="24.000000" rx="0" ry="0" style="stroke:none;fill:#4B71A1;"/>
<text x="213.800000" y="138.000000" font-family="Arial" font-size="7" text-anchor="middle" fill="#FFFFFF">+</text>
<circle cx="203.800000" cy="126.000000" r="1"/>
<line x1="198.800000" y1="131.000000" x2="201.800000" y2="132.000000"  transform="rotate(0.000000,201.800000,132.000000)" style="stroke: black; stroke-width:0.25;"/>
<line x1="198.800000" y1="133.000000" x2="201.800000" y2="132.000000"  transform="rotate(0.000000,201.800000,132.000000)" style="stroke: black; stroke-width:0.25;"/>
<line x1="198.800000" y1="139.000000" x2="201.800000" y2="140.000000"  transform="rotate(0.000000,201.800000,140.000000)" style="stroke: black; stroke-width:0.25;"/>
<line x1="198.800000" y1="141.000000" x2="201.800000" y2="140.000000"  transform="rotate(0.000000,201.800000,140.000000)" style="stroke: black; stroke-width:0.25;"/>
<rect x="131.000000" y="215.000000" width="24.000000" height="24.000000" rx="0" ry="0" style="stroke:none;fill:#cccccc;"/>
<rect x="130.000000" y="214.000000" width="24.000000" height="24.000000" rx="0" ry="0" style="stroke:none;fill:#f44800;"/>
<text x="142.000000" y="228.000000" font-family="Arial" font-size="7" text-anchor="middle" fill="#FFFFFF">1</text>
<circle cx="132.000000" cy="216.000000" r="1"/>
<line x1="121.000000" y1="205.000000" x2="121.000000" y2="247.000000"  style="stroke: black; stroke-linecap:round; stroke-width:0.25; stroke-dasharray:3,3;"/>
<line x1="121.000000" y1="247.000000" x2="163.000000" y2="247.000000"  style="stroke: black; stroke-linecap:round; stroke-width:0.25; stroke-dasharray:3,3;"/>
<line x1="163.000000" y1="247.000000" x2="163.000000" y2="205.000000"  style="stroke: black; stroke-linecap:round; stroke-width:0.25; stroke-dasharray:3,3;"/>
<line x1="121.000000" y1="205.000000" x2="126.000000" y2="205.000000"  style="stroke: black; stroke-linecap:round; stroke-width:0.25; stroke-dasharray:3,3;"/>
<line x1="138.900000" y1="205.000000" x2="163.000000" y2="205.000000"  style="stroke: black; stroke-linecap:round; stroke-width:0.25; stroke-dasharray:3,3;"/>
<text x="126.000000" y="207.000000" font-family="Arial" font-size="7">b1</text>
<rect x="181.000000" y="211.000000" width="25.800000" height="24.000000" rx="0" ry="0" style="stroke:none;fill:#cccccc;"/>
<rect x="180.000000" y="210.000000" width="25.800000" height="24.000000" rx="0" ry="0" style="stroke:none;fill:#4B71A1;"/>
<text x="192.900000" y="224.000000" font-family="Arial" font-size="7" text-anchor="middle" fill="#FFFFFF">fmod</text>
<circle cx="182.000000" cy="212.000000" r="1"/>
<line x1="177.000000" y1="217.000000" x2="180.000000" y2="218.000000"  transform="rotate(0.000000,180.000000,218.000000)" style="stroke: black; stroke-width:0.25;"/>
<line x1="177.000000" y1="219.000000" x2="180.000000" y2="218.000000"  transform="rotate(0.000000,180.000000,218.000000)" style="stroke: black; stroke-width:0.25;"/>
<line x1="177.000000" y1="225.000000" x2="180.000000" y2="226.000000"  transform="rotate(0.000000,180.000000,226.000000)" style="stroke: black; stroke-width:0.25;"/>
<line x1="177.000000" y1="227.000000" x2="180.000000" y2="226.000000"  transform="rotate(0.000000,180.000000,226.000000)" style="stroke: black; stroke-width:0.25;"/>
<rect x="242.800000" y="125.000000" width="38.700000" height="24.000000" rx="0" ry="0" style="stroke:none;fill:#cccccc;"/>
<rect x="241.800000" y="124.000000" width="38.700000" height="24.000000" rx="0" ry="0" style="stroke:none;fill:#4B71A1;"/>
<text x="261.150000" y="138.000000" font-family="Arial" font-size="7" text-anchor="middle" fill="#FFFFFF">select2</text>
<circle cx="243.800000" cy="126.000000" r="1"/>
<line x1="238.800000" y1="127.000000" x2="241.800000" y2="128.000000"  transform="rotate(0.000000,241.800000,128.000000)" style="stroke: black; stroke-width:0.25;"/>
<line x1="238.800000" y1="129.000000" x2="241.800000" y2="128.000000"  transform="rotate(0.000000,241.800000,128.000000)" style="stroke: black; stroke-width:0.25;"/>
<line x1="238.800000" y1="135.000000" x2="241.800000" y2="136.000000"  transform="rotate(0.000000,241.800000,136.000000)" style="stroke: black; stroke-width:0.25;"/>
<line x1="238.800000" y1="137.000000" x2="241.800000" y2="136.000000"  transform="rotate(0.000000,241.800000,136.000000)" style="stroke: black; stroke-width:0.25;"/>
<line x1="238.800000" y1="143.000000" x2="241.800000" y2="144.000000"  transform="rotate(0.000000,241.800000,144.000000)" style="stroke: black; stroke-width:0.25;"/>
<line x1="238.800000" y1="145.000000" x2="241.800000" y2="144.000000"  transform="rotate(0.000000,241.800000,144.000000)" style="stroke: black; stroke-width:0.25;"/>
<line x1="15.000000" y1="15.000000" x2="15.000000" y2="257.000000"  style="stroke: black; stroke-linecap:round; stroke-width:0.25; stroke-dasharray:3,3;"/>
<line x1="15.000000" y1="257.000000" x2="297.500000" y2="257.000000"  style="stroke: black; stroke-linecap:round; stroke-width:0.25; stroke-dasharray:3,3;"/>
<line x1="297.500000" y1="257.000000" x2="297.500000" y2="15.000000"  style="stroke: black; stroke-linecap:round; stroke-width:0.25; stroke-dasharray:3,3;"/>
<line x1="15.000000" y1="15.000000" x2="20.000000" y2="15.000000"  style="stroke: black; stroke-linecap:round; stroke-width:0.25; stroke-dasharray:3,3;"/>
<line x1="39.350000" y1="15.000000" x2="297.500000" y2="15.000000"  style="stroke: black; stroke-linecap:round; stroke-width:0.25; stroke-dasharray:3,3;"/>
<text x="20.000000" y="17.000000" font-family="Arial" font-size="7">wrap</text>
<line x1="299.500000" y1="135.000000" x2="302.500000" y2="136.000000"  transform="rotate(0.000000,302.500000,136.000000)" style="stroke: black; stroke-width:0.25;"/>
<line x1="299.500000" y1="137.000000" x2="302.500000" y2="136.000000"  transform="rotate(0.000000,302.500000,136.000000)" style="stroke: black; stroke-width:0.25;"/>
<line x1="10.000000" y1="136.000000" x2="20.000000" y2="136.000000"  style="stroke:black; stroke-linecap:round; stroke-width:0.25;"/>
<line x1="20.000000" y1="136.000000" x2="24.000000" y2="136.000000"  style="stroke:black; stroke-linecap:round; stroke-width:0.25;"/>
<line x1="24.000000" y1="136.000000" x2="28.000000" y2="136.000000"  style="stroke:black; stroke-linecap:round; stroke-width:0.25;"/>
<line x1="28.000000" y1="136.000000" x2="28.000000" y2="136.000000"  style="stroke:black; stroke-linecap:round; stroke-width:0.25;"/>
<line x1="28.000000" y1="136.000000" x2="32.000000" y2="136.000000"  style="stroke:black; stroke-linecap:round; stroke-width:0.25;"/>
<line x1="32.000000" y1="136.000000" x2="36.000000" y2="136.000000"  style="stroke:black; stroke-linecap:round; stroke-width:0.25;"/>
<line x1="36.000000" y1="136.000000" x2="96.000000" y2="24.000000"  style="stroke:black; stroke-linecap:round; stroke-width:0.25;"/>
<line x1="36.000000" y1="136.000000" x2="96.000000" y2="84.000000"  style="stroke:black; stroke-linecap:round; stroke-width:0.25;"/>
<line x1="36.000000" y1="136.000000" x2="96.000000" y2="196.000000"  style="stroke:black; stroke-linecap:round; stroke-width:0.25;"/>
<line x1="96.000000" y1="24.000000" x2="116.900000" y2="24.000000"  style="stroke:black; stroke-linecap:round; stroke-width:0.25;"/>
<line x1="96.000000" y1="84.000000" x2="122.000000" y2="84.000000"  style="stroke:black; stroke-linecap:round; stroke-width:0.25;"/>
<line x1="96.000000" y1="196.000000" x2="116.000000" y2="196.000000"  style="stroke:black; stroke-linecap:round; stroke-width:0.25;"/>
<line x1="116.000000" y1="196.000000" x2="142.000000" y2="196.000000"  style="stroke:black; stroke-linecap:round; stroke-width:0.25;"/>
<line x1="116.900000" y1="24.000000" x2="142.900000" y2="24.000000"  style="stroke:black; stroke-linecap:round; stroke-width:0.25;"/>
<line x1="122.000000" y1="84.000000" x2="148.000000" y2="84.000000"  style="stroke:black; stroke-linecap:round; stroke-width:0.25;"/>
<line x1="134.000000" y1="114.000000" x2="138.000000" y2="114.000000"  style="stroke:black; stroke-linecap:round; stroke-width:0.25;"/>
<line x1="138.000000" y1="114.000000" x2="148.000000" y2="114.000000"  style="stroke:black; stroke-linecap:round; stroke-width:0.25;"/>
<line x1="142.000000" y1="196.000000" x2="168.000000" y2="196.000000"  style="stroke:black; stroke-linecap:round; stroke-width:0.25;"/>
<line x1="142.900000" y1="24.000000" x2="168.900000" y2="24.000000"  style="stroke:black; stroke-linecap:round; stroke-width:0.25;"/>
<line x1="148.000000" y1="84.000000" x2="156.000000" y2="84.000000"  style="stroke:black; stroke-linecap:round; stroke-width:0.25;"/>
<line x1="148.000000" y1="114.000000" x2="156.000000" y2="114.000000"  style="stroke:black; stroke-linecap:round; stroke-width:0.25;"/>
<line x1="154.000000" y1="226.000000" x2="158.000000" y2="226.000000"  style="stroke:black; stroke-linecap:round; stroke-width:0.25;"/>
<line x1="154.900000" y1="54.000000" x2="158.900000" y2="54.000000"  style="stroke:black; stroke-linecap:round; stroke-width:0.25;"/>
<line x1="154.900000" y1="166.000000" x2="158.900000" y2="166.000000"  style="stroke:black; stroke-linecap:round; stroke-width:0.25;"/>
<line x1="156.000000" y1="84.000000" x2="156.000000" y2="106.000000"  style="stroke:black; stroke-linecap:round; stroke-width:0.25;"/>
<line x1="156.000000" y1="106.000000" x2="156.000000" y2="106.000000"  style="stroke:black; stroke-linecap:round; stroke-width:0.25;"/>
<line x1="156.000000" y1="106.000000" x2="160.000000" y2="106.000000"  style="stroke:black; stroke-linecap:round; stroke-width:0.25;"/>
<line x1="156.000000" y1="114.000000" x2="160.000000" y2="114.000000"  style="stroke:black; stroke-linecap:round; stroke-width:0.25;"/>
<line x1="158.000000" y1="226.000000" x2="168.000000" y2="226.000000"  style="stroke:black; stroke-linecap:round; stroke-width:0.25;"/>
<line x1="158.900000" y1="54.000000" x2="168.900000" y2="54.000000"  style="stroke:black; stroke-linecap:round; stroke-width:0.25;"/>
<line x1="158.900000" y1="166.000000" x2="168.900000" y2="166.000000"  style="stroke:black; stroke-linecap:round; stroke-width:0.25;"/>
<line x1="168.000000" y1="196.000000" x2="176.000000" y2="196.000000"  style="stroke:black; stroke-linecap:round; stroke-width:0.25;"/>
<line x1="168.000000" y1="226.000000" x2="176.000000" y2="226.000000"  style="stroke:black; stroke-linecap:round; stroke-width:0.25;"/>
<line x1="168.900000" y1="24.000000" x2="176.900000" y2="24.000000"  style="stroke:black; stroke-linecap:round; stroke-width:0.25;"/>
<line x1="168.900000" y1="54.000000" x2="176.900000" y2="54.000000"  style="stroke:black; stroke-linecap:round; stroke-width:0.25;"/>
<line x1="168.900000" y1="166.000000" x2="189.800000" y2="166.000000"  style="stroke:black; stroke-linecap:round; stroke-width:0.25;"/>
<line x1="176.000000" y1="196.000000" x2="176.000000" y2="218.000000"  style="stroke:black; stroke-linecap:round; stroke-width:0.25;"/>
<line x1="176.000000" y1="218.000000" x2="176.000000" y2="218.000000"  style="stroke:black; stroke-linecap:round; stroke-width:0.25;"/>
<line x1="176.000000" y1="218.000000" x2="180.000000" y2="218.000000"  style="stroke:black; stroke-linecap:round; stroke-width:0.25;"/>
<line x1="176.000000" y1="226.000000" x2="180.000000" y2="226.000000"  style="stroke:black; stroke-linecap:round; stroke-width:0.25;"/>
<line x1="176.900000" y1="24.000000" x2="176.900000" y2="46.000000"  style="stroke:black; stroke-linecap:round; stroke-width:0.25;"/>
<line x1="176.900000" y1="46.000000" x2="176.900000" y2="46.000000"  style="stroke:black; stroke-linecap:round; stroke-width:0.25;"/>
<line x1="176.900000" y1="46.000000" x2="180.900000" y2="46.000000"  style="stroke:black; stroke-linecap:round; stroke-width:0.25;"/>
<line x1="176.900000" y1="54.000000" x2="180.900000" y2="54.000000"  style="stroke:black; stroke-linecap:round; stroke-width:0.25;"/>
<line x1="185.800000" y1="110.000000" x2="189.800000" y2="110.000000"  style="stroke:black; stroke-linecap:round; stroke-width:0.25;"/>
<line x1="189.800000" y1="110.000000" x2="197.800000" y2="110.000000"  style="stroke:black; stroke-linecap:round; stroke-width:0.25;"/>
<line x1="189.800000" y1="140.000000" x2="197.800000" y2="140.000000"  style="stroke:black; stroke-linecap:round; stroke-width:0.25;"/>
<line x1="189.800000" y1="166.000000" x2="189.800000" y2="140.000000"  style="stroke:black; stroke-linecap:round; stroke-width:0.25;"/>
<line x1="189.800000" y1="166.000000" x2="189.800000" y2="166.000000"  style="stroke:black; stroke-linecap:round; stroke-width:0.25;"/>
<line x1="197.800000" y1="110.000000" x2="197.800000" y2="132.000000"  style="stroke:black; stroke-linecap:round; stroke-width:0.25;"/>
<line x1="197.800000" y1="132.000000" x2="197.800000" y2="132.000000"  style="stroke:black; stroke-linecap:round; stroke-width:0.25;"/>
<line x1="197.800000" y1="132.000000" x2="201.800000" y2="132.000000"  style="stroke:black; stroke-linecap:round; stroke-width:0.25;"/>
<line x1="197.800000" y1="140.000000" x2="201.800000" y2="140.000000"  style="stroke:black; stroke-linecap:round; stroke-width:0.25;"/>
<line x1="204.900000" y1="50.000000" x2="208.900000" y2="50.000000"  style="stroke:black; stroke-linecap:round; stroke-width:0.25;"/>
<line x1="205.800000" y1="222.000000" x2="209.800000" y2="222.000000"  style="stroke:black; stroke-linecap:round; stroke-width:0.25;"/>
<line x1="208.900000" y1="50.000000" x2="229.800000" y2="50.000000"  style="stroke:black; stroke-linecap:round; stroke-width:0.25;"/>
<line x1="209.800000" y1="222.000000" x2="229.800000" y2="222.000000"  style="stroke:black; stroke-linecap:round; stroke-width:0.25;"/>
<line x1="225.800000" y1="136.000000" x2="229.800000" y2="136.000000"  style="stroke:black; stroke-linecap:round; stroke-width:0.25;"/>
<line x1="229.800000" y1="50.000000" x2="237.800000" y2="50.000000"  style="stroke:black; stroke-linecap:round; stroke-width:0.25;"/>
<line x1="229.800000" y1="136.000000" x2="237.800000" y2="136.000000"  style="stroke:black; stroke-linecap:round; stroke-width:0.25;"/>
<line x1="229.800000" y1="144.000000" x2="237.800000" y2="144.000000"  style="stroke:black; stroke-linecap:round; stroke-width:0.25;"/>
<line x1="229.800000" y1="222.000000" x2="229.800000" y2="144.000000"  style="stroke:black; stroke-linecap:round; stroke-width:0.25;"/>
<line x1="229.800000" y1="222.000000" x2="229.800000" y2="222.000000"  style="stroke:black; stroke-linecap:round; stroke-width:0.25;"/>
<line x1="237.800000" y1="50.000000" x2="237.800000" y2="128.000000"  style="stroke:black; stroke-linecap:round; stroke-width:0.25;"/>
<line x1="237.800000" y1="128.000000" x2="237.800000" y2="128.000000"  style="stroke:black; stroke-linecap:round; stroke-width:0.25;"/>
<line x1="237.800000" y1="128.000000" x2="241.800000" y2="128.000000"  style="stroke:black; stroke-linecap:round; stroke-width:0.25;"/>
<line x1="237.800000" y1="136.000000" x2="241.800000" y2="136.000000"  style="stroke:black; stroke-linecap:round; stroke-width:0.25;"/>
<line x1="237.800000" y1="144.000000" x2="241.800000" y2="144.000000"  style="stroke:black; stroke-linecap:round; stroke-width:0.25;"/>
<line x1="280.500000" y1="136.000000" x2="284.500000" y2="136.000000"  style="stroke:black; stroke-linecap:round; stroke-width:0.25;"/>
<line x1="284.500000" y1="136.000000" x2="284.500000" y2="136.000000"  style="stroke:black; stroke-linecap:round; stroke-width:0.25;"/>
<line x1="284.500000" y1="136.000000" x2="288.500000" y2="136.000000"  style="stroke:black; stroke-linecap:round; stroke-width:0.25;"/>
<line x1="288.500000" y1="136.000000" x2="292.500000" y2="136.000000"  style="stroke:black; stroke-linecap:round; stroke-width:0.25;"/>
<line x1="292.500000" y1="136.000000" x2="302.500000" y2="136.000000"  style="stroke:black; stroke-linecap:round; stroke-width:0.25;"/>
</svg>
