<?xml version="1.0"?>
<svg xmlns="http://www.w3.org/2000/svg" xmlns:xlink="http://www.w3.org/1999/xlink" viewBox="0 0 253.800000 336.000000" width="126.900000mm" height="168.000000mm" version="1.1">
<a xlink:href="PHi-0xa3094b0.svg">
<rect x="1.000000" y="1.000000" width="252.800000" height="335.000000" rx="0" ry="0" style="stroke:none;fill:#cccccc;"/>
<rect x="0.000000" y="0.000000" width="252.800000" height="335.000000" rx="0" ry="0" style="stroke:none;fill:#ffffff;"/>
</a>
<text x="10.000000" y="7.000000" font-family="Arial" font-size="7"></text>
<a xlink:href="i-0xa308d70.svg">
<rect x="51.900000" y="25.000000" width="24.000000" height="24.000000" rx="0" ry="0" style="stroke:none;fill:#cccccc;"/>
<rect x="50.900000" y="24.000000" width="24.000000" height="24.000000" rx="0" ry="0" style="stroke:none;fill:#003366;"/>
</a>
<a xlink:href="i-0xa308d70.svg">
<text x="62.900000" y="38.000000" font-family="Arial" font-size="7" text-anchor="middle" fill="#FFFFFF">i</text>
</a>
<circle cx="52.900000" cy="26.000000" r="1"/>
<a xlink:href="tablesize-0x2969f10.svg">
<rect x="44.550000" y="57.000000" width="38.700000" height="24.000000" rx="0" ry="0" style="stroke:none;fill:#cccccc;"/>
<rect x="43.550000" y="56.000000" width="38.700000" height="24.000000" rx="0" ry="0" style="stroke:none;fill:#003366;"/>
</a>
<a xlink:href="tablesize-0x2969f10.svg">
<text x="62.900000" y="70.000000" font-family="Arial" font-size="7" text-anchor="middle" fill="#FFFFFF">tablesize</text>
</a>
<circle cx="45.550000" cy="58.000000" r="1"/>
<rect x="99.250000" y="41.000000" width="24.000000" height="24.000000" rx="0" ry="0" style="stroke:none;fill:#cccccc;"/>
<rect x="98.250000" y="40.000000" width="24.000000" height="24.000000" rx="0" ry="0" style="stroke:none;fill:#4B71A1;"/>
<text x="110.250000" y="54.000000" font-family="Arial" font-size="7" text-anchor="middle" fill="#FFFFFF">/</text>
<circle cx="100.250000" cy="42.000000" r="1"/>
<line x1="95.250000" y1="47.000000" x2="98.250000" y2="48.000000"  transform="rotate(0.000000,98.250000,48.000000)" style="stroke: black; stroke-width:0.25;"/>
<line x1="95.250000" y1="49.000000" x2="98.250000" y2="48.000000"  transform="rotate(0.000000,98.250000,48.000000)" style="stroke: black; stroke-width:0.25;"/>
<line x1="95.250000" y1="55.000000" x2="98.250000" y2="56.000000"  transform="rotate(0.000000,98.250000,56.000000)" style="stroke: black; stroke-width:0.25;"/>
<line x1="95.250000" y1="57.000000" x2="98.250000" y2="56.000000"  transform="rotate(0.000000,98.250000,56.000000)" style="stroke: black; stroke-width:0.25;"/>
<rect x="51.900000" y="99.000000" width="24.000000" height="24.000000" rx="0" ry="0" style="stroke:none;fill:#cccccc;"/>
<rect x="50.900000" y="98.000000" width="24.000000" height="24.000000" rx="0" ry="0" style="stroke:none;fill:#f44800;"/>
<text x="62.900000" y="112.000000" font-family="Arial" font-size="7" text-anchor="middle" fill="#FFFFFF">0</text>
<circle cx="52.900000" cy="100.000000" r="1"/>
<line x1="41.900000" y1="89.000000" x2="41.900000" y2="131.000000"  style="stroke: black; stroke-linecap:round; stroke-width:0.25; stroke-dasharray:3,3;"/>
<line x1="41.900000" y1="131.000000" x2="83.900000" y2="131.000000"  style="stroke: black; stroke-linecap:round; stroke-width:0.25; stroke-dasharray:3,3;"/>
<line x1="83.900000" y1="131.000000" x2="83.900000" y2="89.000000"  style="stroke: black; stroke-linecap:round; stroke-width:0.25; stroke-dasharray:3,3;"/>
<line x1="41.900000" y1="89.000000" x2="46.900000" y2="89.000000"  style="stroke: black; stroke-linecap:round; stroke-width:0.25; stroke-dasharray:3,3;"/>
<line x1="63.025000" y1="89.000000" x2="83.900000" y2="89.000000"  style="stroke: black; stroke-linecap:round; stroke-width:0.25; stroke-dasharray:3,3;"/>
<text x="46.900000" y="91.000000" font-family="Arial" font-size="7">b11</text>
<a xlink:href="PMphase-0x3586700.svg">
<rect x="44.550000" y="141.000000" width="38.700000" height="24.000000" rx="0" ry="0" style="stroke:none;fill:#cccccc;"/>
<rect x="43.550000" y="140.000000" width="38.700000" height="24.000000" rx="0" ry="0" style="stroke:none;fill:#003366;"/>
</a>
<a xlink:href="PMphase-0x3586700.svg">
<text x="62.900000" y="154.000000" font-family="Arial" font-size="7" text-anchor="middle" fill="#FFFFFF">PMphase</text>
</a>
<circle cx="45.550000" cy="142.000000" r="1"/>
<rect x="101.900000" y="115.000000" width="24.000000" height="24.000000" rx="0" ry="0" style="stroke:none;fill:#cccccc;"/>
<rect x="100.900000" y="114.000000" width="24.000000" height="24.000000" rx="0" ry="0" style="stroke:none;fill:#4B71A1;"/>
<text x="112.900000" y="128.000000" font-family="Arial" font-size="7" text-anchor="middle" fill="#FFFFFF">-</text>
<circle cx="102.900000" cy="116.000000" r="1"/>
<line x1="97.900000" y1="121.000000" x2="100.900000" y2="122.000000"  transform="rotate(0.000000,100.900000,122.000000)" style="stroke: black; stroke-width:0.25;"/>
<line x1="97.900000" y1="123.000000" x2="100.900000" y2="122.000000"  transform="rotate(0.000000,100.900000,122.000000)" style="stroke: black; stroke-width:0.25;"/>
<line x1="97.900000" y1="129.000000" x2="100.900000" y2="130.000000"  transform="rotate(0.000000,100.900000,130.000000)" style="stroke: black; stroke-width:0.25;"/>
<line x1="97.900000" y1="131.000000" x2="100.900000" y2="130.000000"  transform="rotate(0.000000,100.900000,130.000000)" style="stroke: black; stroke-width:0.25;"/>
<rect x="141.900000" y="83.000000" width="24.000000" height="24.000000" rx="0" ry="0" style="stroke:none;fill:#cccccc;"/>
<rect x="140.900000" y="82.000000" width="24.000000" height="24.000000" rx="0" ry="0" style="stroke:none;fill:#4B71A1;"/>
<text x="152.900000" y="96.000000" font-family="Arial" font-size="7" text-anchor="middle" fill="#FFFFFF">+</text>
<circle cx="142.900000" cy="84.000000" r="1"/>
<line x1="137.900000" y1="89.000000" x2="140.900000" y2="90.000000"  transform="rotate(0.000000,140.900000,90.000000)" style="stroke: black; stroke-width:0.25;"/>
<line x1="137.900000" y1="91.000000" x2="140.900000" y2="90.000000"  transform="rotate(0.000000,140.900000,90.000000)" style="stroke: black; stroke-width:0.25;"/>
<line x1="137.900000" y1="97.000000" x2="140.900000" y2="98.000000"  transform="rotate(0.000000,140.900000,98.000000)" style="stroke: black; stroke-width:0.25;"/>
<line x1="137.900000" y1="99.000000" x2="140.900000" y2="98.000000"  transform="rotate(0.000000,140.900000,98.000000)" style="stroke: black; stroke-width:0.25;"/>
<a xlink:href="i-0xa308d70.svg">
<rect x="35.000000" y="173.000000" width="24.000000" height="24.000000" rx="0" ry="0" style="stroke:none;fill:#cccccc;"/>
<rect x="34.000000" y="172.000000" width="24.000000" height="24.000000" rx="0" ry="0" style="stroke:none;fill:#003366;"/>
</a>
<a xlink:href="i-0xa308d70.svg">
<text x="46.000000" y="186.000000" font-family="Arial" font-size="7" text-anchor="middle" fill="#FFFFFF">i</text>
</a>
<circle cx="36.000000" cy="174.000000" r="1"/>
<a xlink:href="tablesize-0x2969f10.svg">
<rect x="27.650000" y="205.000000" width="38.700000" height="24.000000" rx="0" ry="0" style="stroke:none;fill:#cccccc;"/>
<rect x="26.650000" y="204.000000" width="38.700000" height="24.000000" rx="0" ry="0" style="stroke:none;fill:#003366;"/>
</a>
<a xlink:href="tablesize-0x2969f10.svg">
<text x="46.000000" y="218.000000" font-family="Arial" font-size="7" text-anchor="middle" fill="#FFFFFF">tablesize</text>
</a>
<circle cx="28.650000" cy="206.000000" r="1"/>
<rect x="82.350000" y="189.000000" width="24.000000" height="24.000000" rx="0" ry="0" style="stroke:none;fill:#cccccc;"/>
<rect x="81.350000" y="188.000000" width="24.000000" height="24.000000" rx="0" ry="0" style="stroke:none;fill:#4B71A1;"/>
<text x="93.350000" y="202.000000" font-family="Arial" font-size="7" text-anchor="middle" fill="#FFFFFF">/</text>
<circle cx="83.350000" cy="190.000000" r="1"/>
<line x1="78.350000" y1="195.000000" x2="81.350000" y2="196.000000"  transform="rotate(0.000000,81.350000,196.000000)" style="stroke: black; stroke-width:0.25;"/>
<line x1="78.350000" y1="197.000000" x2="81.350000" y2="196.000000"  transform="rotate(0.000000,81.350000,196.000000)" style="stroke: black; stroke-width:0.25;"/>
<line x1="78.350000" y1="203.000000" x2="81.350000" y2="204.000000"  transform="rotate(0.000000,81.350000,204.000000)" style="stroke: black; stroke-width:0.25;"/>
<line x1="78.350000" y1="205.000000" x2="81.350000" y2="204.000000"  transform="rotate(0.000000,81.350000,204.000000)" style="stroke: black; stroke-width:0.25;"/>
<rect x="35.000000" y="247.000000" width="24.000000" height="24.000000" rx="0" ry="0" style="stroke:none;fill:#cccccc;"/>
<rect x="34.000000" y="246.000000" width="24.000000" height="24.000000" rx="0" ry="0" style="stroke:none;fill:#f44800;"/>
<text x="46.000000" y="260.000000" font-family="Arial" font-size="7" text-anchor="middle" fill="#FFFFFF">0</text>
<circle cx="36.000000" cy="248.000000" r="1"/>
<line x1="25.000000" y1="237.000000" x2="25.000000" y2="279.000000"  style="stroke: black; stroke-linecap:round; stroke-width:0.25; stroke-dasharray:3,3;"/>
<line x1="25.000000" y1="279.000000" x2="67.000000" y2="279.000000"  style="stroke: black; stroke-linecap:round; stroke-width:0.25; stroke-dasharray:3,3;"/>
<line x1="67.000000" y1="279.000000" x2="67.000000" y2="237.000000"  style="stroke: black; stroke-linecap:round; stroke-width:0.25; stroke-dasharray:3,3;"/>
<line x1="25.000000" y1="237.000000" x2="30.000000" y2="237.000000"  style="stroke: black; stroke-linecap:round; stroke-width:0.25; stroke-dasharray:3,3;"/>
<line x1="46.125000" y1="237.000000" x2="67.000000" y2="237.000000"  style="stroke: black; stroke-linecap:round; stroke-width:0.25; stroke-dasharray:3,3;"/>
<text x="30.000000" y="239.000000" font-family="Arial" font-size="7">b11</text>
<a xlink:href="PMphase-0x3586700.svg">
<rect x="27.650000" y="289.000000" width="38.700000" height="24.000000" rx="0" ry="0" style="stroke:none;fill:#cccccc;"/>
<rect x="26.650000" y="288.000000" width="38.700000" height="24.000000" rx="0" ry="0" style="stroke:none;fill:#003366;"/>
</a>
<a xlink:href="PMphase-0x3586700.svg">
<text x="46.000000" y="302.000000" font-family="Arial" font-size="7" text-anchor="middle" fill="#FFFFFF">PMphase</text>
</a>
<circle cx="28.650000" cy="290.000000" r="1"/>
<rect x="85.000000" y="263.000000" width="24.000000" height="24.000000" rx="0" ry="0" style="stroke:none;fill:#cccccc;"/>
<rect x="84.000000" y="262.000000" width="24.000000" height="24.000000" rx="0" ry="0" style="stroke:none;fill:#4B71A1;"/>
<text x="96.000000" y="276.000000" font-family="Arial" font-size="7" text-anchor="middle" fill="#FFFFFF">-</text>
<circle cx="86.000000" cy="264.000000" r="1"/>
<line x1="81.000000" y1="269.000000" x2="84.000000" y2="270.000000"  transform="rotate(0.000000,84.000000,270.000000)" style="stroke: black; stroke-width:0.25;"/>
<line x1="81.000000" y1="271.000000" x2="84.000000" y2="270.000000"  transform="rotate(0.000000,84.000000,270.000000)" style="stroke: black; stroke-width:0.25;"/>
<line x1="81.000000" y1="277.000000" x2="84.000000" y2="278.000000"  transform="rotate(0.000000,84.000000,278.000000)" style="stroke: black; stroke-width:0.25;"/>
<line x1="81.000000" y1="279.000000" x2="84.000000" y2="278.000000"  transform="rotate(0.000000,84.000000,278.000000)" style="stroke: black; stroke-width:0.25;"/>
<rect x="125.000000" y="231.000000" width="24.000000" height="24.000000" rx="0" ry="0" style="stroke:none;fill:#cccccc;"/>
<rect x="124.000000" y="230.000000" width="24.000000" height="24.000000" rx="0" ry="0" style="stroke:none;fill:#4B71A1;"/>
<text x="136.000000" y="244.000000" font-family="Arial" font-size="7" text-anchor="middle" fill="#FFFFFF">+</text>
<circle cx="126.000000" cy="232.000000" r="1"/>
<line x1="121.000000" y1="237.000000" x2="124.000000" y2="238.000000"  transform="rotate(0.000000,124.000000,238.000000)" style="stroke: black; stroke-width:0.25;"/>
<line x1="121.000000" y1="239.000000" x2="124.000000" y2="238.000000"  transform="rotate(0.000000,124.000000,238.000000)" style="stroke: black; stroke-width:0.25;"/>
<line x1="121.000000" y1="245.000000" x2="124.000000" y2="246.000000"  transform="rotate(0.000000,124.000000,246.000000)" style="stroke: black; stroke-width:0.25;"/>
<line x1="121.000000" y1="247.000000" x2="124.000000" y2="246.000000"  transform="rotate(0.000000,124.000000,246.000000)" style="stroke: black; stroke-width:0.25;"/>
<rect x="157.000000" y="231.000000" width="25.800000" height="24.000000" rx="0" ry="0" style="stroke:none;fill:#cccccc;"/>
<rect x="156.000000" y="230.000000" width="25.800000" height="24.000000" rx="0" ry="0" style="stroke:none;fill:#4B71A1;"/>
<text x="168.900000" y="244.000000" font-family="Arial" font-size="7" text-anchor="middle" fill="#FFFFFF">floor</text>
<circle cx="158.000000" cy="232.000000" r="1"/>
<line x1="153.000000" y1="241.000000" x2="156.000000" y2="242.000000"  transform="rotate(0.000000,156.000000,242.000000)" style="stroke: black; stroke-width:0.25;"/>
<line x1="153.000000" y1="243.000000" x2="156.000000" y2="242.000000"  transform="rotate(0.000000,156.000000,242.000000)" style="stroke: black; stroke-width:0.25;"/>
<rect x="198.800000" y="157.000000" width="24.000000" height="24.000000" rx="0" ry="0" style="stroke:none;fill:#cccccc;"/>
<rect x="197.800000" y="156.000000" width="24.000000" height="24.000000" rx="0" ry="0" style="stroke:none;fill:#4B71A1;"/>
<text x="209.800000" y="170.000000" font-family="Arial" font-size="7" text-anchor="middle" fill="#FFFFFF">-</text>
<circle cx="199.800000" cy="158.000000" r="1"/>
<line x1="194.800000" y1="163.000000" x2="197.800000" y2="164.000000"  transform="rotate(0.000000,197.800000,164.000000)" style="stroke: black; stroke-width:0.25;"/>
<line x1="194.800000" y1="165.000000" x2="197.800000" y2="164.000000"  transform="rotate(0.000000,197.800000,164.000000)" style="stroke: black; stroke-width:0.25;"/>
<line x1="194.800000" y1="171.000000" x2="197.800000" y2="172.000000"  transform="rotate(0.000000,197.800000,172.000000)" style="stroke: black; stroke-width:0.25;"/>
<line x1="194.800000" y1="173.000000" x2="197.800000" y2="172.000000"  transform="rotate(0.000000,197.800000,172.000000)" style="stroke: black; stroke-width:0.25;"/>
<line x1="15.000000" y1="15.000000" x2="15.000000" y2="321.000000"  style="stroke: black; stroke-linecap:round; stroke-width:0.25; stroke-dasharray:3,3;"/>
<line x1="15.000000" y1="321.000000" x2="238.800000" y2="321.000000"  style="stroke: black; stroke-linecap:round; stroke-width:0.25; stroke-dasharray:3,3;"/>
<line x1="238.800000" y1="321.000000" x2="238.800000" y2="15.000000"  style="stroke: black; stroke-linecap:round; stroke-width:0.25; stroke-dasharray:3,3;"/>
<line x1="15.000000" y1="15.000000" x2="20.000000" y2="15.000000"  style="stroke: black; stroke-linecap:round; stroke-width:0.25; stroke-dasharray:3,3;"/>
<line x1="119.975000" y1="15.000000" x2="238.800000" y2="15.000000"  style="stroke: black; stroke-linecap:round; stroke-width:0.25; stroke-dasharray:3,3;"/>
<text x="20.000000" y="17.000000" font-family="Arial" font-size="7">fracPart(((((...))) : -) : +)</text>
<line x1="240.800000" y1="167.000000" x2="243.800000" y2="168.000000"  transform="rotate(0.000000,243.800000,168.000000)" style="stroke: black; stroke-width:0.25;"/>
<line x1="240.800000" y1="169.000000" x2="243.800000" y2="168.000000"  transform="rotate(0.000000,243.800000,168.000000)" style="stroke: black; stroke-width:0.25;"/>
<line x1="58.000000" y1="184.000000" x2="62.000000" y2="184.000000"  style="stroke:black; stroke-linecap:round; stroke-width:0.25;"/>
<line x1="58.000000" y1="258.000000" x2="62.000000" y2="258.000000"  style="stroke:black; stroke-linecap:round; stroke-width:0.25;"/>
<line x1="62.000000" y1="184.000000" x2="69.350000" y2="184.000000"  style="stroke:black; stroke-linecap:round; stroke-width:0.25;"/>
<line x1="62.000000" y1="258.000000" x2="72.000000" y2="258.000000"  style="stroke:black; stroke-linecap:round; stroke-width:0.25;"/>
<line x1="65.350000" y1="216.000000" x2="69.350000" y2="216.000000"  style="stroke:black; stroke-linecap:round; stroke-width:0.25;"/>
<line x1="65.350000" y1="300.000000" x2="69.350000" y2="300.000000"  style="stroke:black; stroke-linecap:round; stroke-width:0.25;"/>
<line x1="69.350000" y1="184.000000" x2="77.350000" y2="184.000000"  style="stroke:black; stroke-linecap:round; stroke-width:0.25;"/>
<line x1="69.350000" y1="204.000000" x2="77.350000" y2="204.000000"  style="stroke:black; stroke-linecap:round; stroke-width:0.25;"/>
<line x1="69.350000" y1="216.000000" x2="69.350000" y2="204.000000"  style="stroke:black; stroke-linecap:round; stroke-width:0.25;"/>
<line x1="69.350000" y1="216.000000" x2="69.350000" y2="216.000000"  style="stroke:black; stroke-linecap:round; stroke-width:0.25;"/>
<line x1="69.350000" y1="300.000000" x2="72.000000" y2="300.000000"  style="stroke:black; stroke-linecap:round; stroke-width:0.25;"/>
<line x1="72.000000" y1="258.000000" x2="80.000000" y2="258.000000"  style="stroke:black; stroke-linecap:round; stroke-width:0.25;"/>
<line x1="72.000000" y1="278.000000" x2="80.000000" y2="278.000000"  style="stroke:black; stroke-linecap:round; stroke-width:0.25;"/>
<line x1="72.000000" y1="300.000000" x2="72.000000" y2="278.000000"  style="stroke:black; stroke-linecap:round; stroke-width:0.25;"/>
<line x1="72.000000" y1="300.000000" x2="72.000000" y2="300.000000"  style="stroke:black; stroke-linecap:round; stroke-width:0.25;"/>
<line x1="74.900000" y1="36.000000" x2="78.900000" y2="36.000000"  style="stroke:black; stroke-linecap:round; stroke-width:0.25;"/>
<line x1="74.900000" y1="110.000000" x2="78.900000" y2="110.000000"  style="stroke:black; stroke-linecap:round; stroke-width:0.25;"/>
<line x1="77.350000" y1="184.000000" x2="77.350000" y2="196.000000"  style="stroke:black; stroke-linecap:round; stroke-width:0.25;"/>
<line x1="77.350000" y1="196.000000" x2="77.350000" y2="196.000000"  style="stroke:black; stroke-linecap:round; stroke-width:0.25;"/>
<line x1="77.350000" y1="196.000000" x2="81.350000" y2="196.000000"  style="stroke:black; stroke-linecap:round; stroke-width:0.25;"/>
<line x1="77.350000" y1="204.000000" x2="81.350000" y2="204.000000"  style="stroke:black; stroke-linecap:round; stroke-width:0.25;"/>
<line x1="78.900000" y1="36.000000" x2="86.250000" y2="36.000000"  style="stroke:black; stroke-linecap:round; stroke-width:0.25;"/>
<line x1="78.900000" y1="110.000000" x2="88.900000" y2="110.000000"  style="stroke:black; stroke-linecap:round; stroke-width:0.25;"/>
<line x1="80.000000" y1="258.000000" x2="80.000000" y2="270.000000"  style="stroke:black; stroke-linecap:round; stroke-width:0.25;"/>
<line x1="80.000000" y1="270.000000" x2="80.000000" y2="270.000000"  style="stroke:black; stroke-linecap:round; stroke-width:0.25;"/>
<line x1="80.000000" y1="270.000000" x2="84.000000" y2="270.000000"  style="stroke:black; stroke-linecap:round; stroke-width:0.25;"/>
<line x1="80.000000" y1="278.000000" x2="84.000000" y2="278.000000"  style="stroke:black; stroke-linecap:round; stroke-width:0.25;"/>
<line x1="82.250000" y1="68.000000" x2="86.250000" y2="68.000000"  style="stroke:black; stroke-linecap:round; stroke-width:0.25;"/>
<line x1="82.250000" y1="152.000000" x2="86.250000" y2="152.000000"  style="stroke:black; stroke-linecap:round; stroke-width:0.25;"/>
<line x1="86.250000" y1="36.000000" x2="94.250000" y2="36.000000"  style="stroke:black; stroke-linecap:round; stroke-width:0.25;"/>
<line x1="86.250000" y1="56.000000" x2="94.250000" y2="56.000000"  style="stroke:black; stroke-linecap:round; stroke-width:0.25;"/>
<line x1="86.250000" y1="68.000000" x2="86.250000" y2="56.000000"  style="stroke:black; stroke-linecap:round; stroke-width:0.25;"/>
<line x1="86.250000" y1="68.000000" x2="86.250000" y2="68.000000"  style="stroke:black; stroke-linecap:round; stroke-width:0.25;"/>
<line x1="86.250000" y1="152.000000" x2="88.900000" y2="152.000000"  style="stroke:black; stroke-linecap:round; stroke-width:0.25;"/>
<line x1="88.900000" y1="110.000000" x2="96.900000" y2="110.000000"  style="stroke:black; stroke-linecap:round; stroke-width:0.25;"/>
<line x1="88.900000" y1="130.000000" x2="96.900000" y2="130.000000"  style="stroke:black; stroke-linecap:round; stroke-width:0.25;"/>
<line x1="88.900000" y1="152.000000" x2="88.900000" y2="130.000000"  style="stroke:black; stroke-linecap:round; stroke-width:0.25;"/>
<line x1="88.900000" y1="152.000000" x2="88.900000" y2="152.000000"  style="stroke:black; stroke-linecap:round; stroke-width:0.25;"/>
<line x1="94.250000" y1="36.000000" x2="94.250000" y2="48.000000"  style="stroke:black; stroke-linecap:round; stroke-width:0.25;"/>
<line x1="94.250000" y1="48.000000" x2="94.250000" y2="48.000000"  style="stroke:black; stroke-linecap:round; stroke-width:0.25;"/>
<line x1="94.250000" y1="48.000000" x2="98.250000" y2="48.000000"  style="stroke:black; stroke-linecap:round; stroke-width:0.25;"/>
<line x1="94.250000" y1="56.000000" x2="98.250000" y2="56.000000"  style="stroke:black; stroke-linecap:round; stroke-width:0.25;"/>
<line x1="96.900000" y1="110.000000" x2="96.900000" y2="122.000000"  style="stroke:black; stroke-linecap:round; stroke-width:0.25;"/>
<line x1="96.900000" y1="122.000000" x2="96.900000" y2="122.000000"  style="stroke:black; stroke-linecap:round; stroke-width:0.25;"/>
<line x1="96.900000" y1="122.000000" x2="100.900000" y2="122.000000"  style="stroke:black; stroke-linecap:round; stroke-width:0.25;"/>
<line x1="96.900000" y1="130.000000" x2="100.900000" y2="130.000000"  style="stroke:black; stroke-linecap:round; stroke-width:0.25;"/>
<line x1="105.350000" y1="200.000000" x2="109.350000" y2="200.000000"  style="stroke:black; stroke-linecap:round; stroke-width:0.25;"/>
<line x1="108.000000" y1="274.000000" x2="112.000000" y2="274.000000"  style="stroke:black; stroke-linecap:round; stroke-width:0.25;"/>
<line x1="109.350000" y1="200.000000" x2="112.000000" y2="200.000000"  style="stroke:black; stroke-linecap:round; stroke-width:0.25;"/>
<line x1="112.000000" y1="200.000000" x2="120.000000" y2="200.000000"  style="stroke:black; stroke-linecap:round; stroke-width:0.25;"/>
<line x1="112.000000" y1="246.000000" x2="120.000000" y2="246.000000"  style="stroke:black; stroke-linecap:round; stroke-width:0.25;"/>
<line x1="112.000000" y1="274.000000" x2="112.000000" y2="246.000000"  style="stroke:black; stroke-linecap:round; stroke-width:0.25;"/>
<line x1="112.000000" y1="274.000000" x2="112.000000" y2="274.000000"  style="stroke:black; stroke-linecap:round; stroke-width:0.25;"/>
<line x1="120.000000" y1="200.000000" x2="120.000000" y2="238.000000"  style="stroke:black; stroke-linecap:round; stroke-width:0.25;"/>
<line x1="120.000000" y1="238.000000" x2="120.000000" y2="238.000000"  style="stroke:black; stroke-linecap:round; stroke-width:0.25;"/>
<line x1="120.000000" y1="238.000000" x2="124.000000" y2="238.000000"  style="stroke:black; stroke-linecap:round; stroke-width:0.25;"/>
<line x1="120.000000" y1="246.000000" x2="124.000000" y2="246.000000"  style="stroke:black; stroke-linecap:round; stroke-width:0.25;"/>
<line x1="122.250000" y1="52.000000" x2="126.250000" y2="52.000000"  style="stroke:black; stroke-linecap:round; stroke-width:0.25;"/>
<line x1="124.900000" y1="126.000000" x2="128.900000" y2="126.000000"  style="stroke:black; stroke-linecap:round; stroke-width:0.25;"/>
<line x1="126.250000" y1="52.000000" x2="128.900000" y2="52.000000"  style="stroke:black; stroke-linecap:round; stroke-width:0.25;"/>
<line x1="128.900000" y1="52.000000" x2="136.900000" y2="52.000000"  style="stroke:black; stroke-linecap:round; stroke-width:0.25;"/>
<line x1="128.900000" y1="98.000000" x2="136.900000" y2="98.000000"  style="stroke:black; stroke-linecap:round; stroke-width:0.25;"/>
<line x1="128.900000" y1="126.000000" x2="128.900000" y2="98.000000"  style="stroke:black; stroke-linecap:round; stroke-width:0.25;"/>
<line x1="128.900000" y1="126.000000" x2="128.900000" y2="126.000000"  style="stroke:black; stroke-linecap:round; stroke-width:0.25;"/>
<line x1="136.900000" y1="52.000000" x2="136.900000" y2="90.000000"  style="stroke:black; stroke-linecap:round; stroke-width:0.25;"/>
<line x1="136.900000" y1="90.000000" x2="136.900000" y2="90.000000"  style="stroke:black; stroke-linecap:round; stroke-width:0.25;"/>
<line x1="136.900000" y1="90.000000" x2="140.900000" y2="90.000000"  style="stroke:black; stroke-linecap:round; stroke-width:0.25;"/>
<line x1="136.900000" y1="98.000000" x2="140.900000" y2="98.000000"  style="stroke:black; stroke-linecap:round; stroke-width:0.25;"/>
<line x1="148.000000" y1="242.000000" x2="152.000000" y2="242.000000"  style="stroke:black; stroke-linecap:round; stroke-width:0.25;"/>
<line x1="152.000000" y1="242.000000" x2="152.000000" y2="242.000000"  style="stroke:black; stroke-linecap:round; stroke-width:0.25;"/>
<line x1="152.000000" y1="242.000000" x2="156.000000" y2="242.000000"  style="stroke:black; stroke-linecap:round; stroke-width:0.25;"/>
<line x1="164.900000" y1="94.000000" x2="168.900000" y2="94.000000"  style="stroke:black; stroke-linecap:round; stroke-width:0.25;"/>
<line x1="168.900000" y1="94.000000" x2="185.800000" y2="94.000000"  style="stroke:black; stroke-linecap:round; stroke-width:0.25;"/>
<line x1="181.800000" y1="242.000000" x2="185.800000" y2="242.000000"  style="stroke:black; stroke-linecap:round; stroke-width:0.25;"/>
<line x1="185.800000" y1="94.000000" x2="193.800000" y2="94.000000"  style="stroke:black; stroke-linecap:round; stroke-width:0.25;"/>
<line x1="185.800000" y1="172.000000" x2="193.800000" y2="172.000000"  style="stroke:black; stroke-linecap:round; stroke-width:0.25;"/>
<line x1="185.800000" y1="242.000000" x2="185.800000" y2="172.000000"  style="stroke:black; stroke-linecap:round; stroke-width:0.25;"/>
<line x1="185.800000" y1="242.000000" x2="185.800000" y2="242.000000"  style="stroke:black; stroke-linecap:round; stroke-width:0.25;"/>
<line x1="193.800000" y1="94.000000" x2="193.800000" y2="164.000000"  style="stroke:black; stroke-linecap:round; stroke-width:0.25;"/>
<line x1="193.800000" y1="164.000000" x2="193.800000" y2="164.000000"  style="stroke:black; stroke-linecap:round; stroke-width:0.25;"/>
<line x1="193.800000" y1="164.000000" x2="197.800000" y2="164.000000"  style="stroke:black; stroke-linecap:round; stroke-width:0.25;"/>
<line x1="193.800000" y1="172.000000" x2="197.800000" y2="172.000000"  style="stroke:black; stroke-linecap:round; stroke-width:0.25;"/>
<line x1="221.800000" y1="168.000000" x2="225.800000" y2="168.000000"  style="stroke:black; stroke-linecap:round; stroke-width:0.25;"/>
<line x1="225.800000" y1="168.000000" x2="225.800000" y2="168.000000"  style="stroke:black; stroke-linecap:round; stroke-width:0.25;"/>
<line x1="225.800000" y1="168.000000" x2="229.800000" y2="168.000000"  style="stroke:black; stroke-linecap:round; stroke-width:0.25;"/>
<line x1="229.800000" y1="168.000000" x2="233.800000" y2="168.000000"  style="stroke:black; stroke-linecap:round; stroke-width:0.25;"/>
<line x1="233.800000" y1="168.000000" x2="243.800000" y2="168.000000"  style="stroke:black; stroke-linecap:round; stroke-width:0.25;"/>
</svg>
