<?xml version="1.0"?>
<svg xmlns="http://www.w3.org/2000/svg" xmlns:xlink="http://www.w3.org/1999/xlink" viewBox="0 0 226.700000 240.000000" width="113.350000mm" height="120.000000mm" version="1.1">
<a xlink:href="PHosci-0xa5da5c0.svg">
<rect x="1.000000" y="1.000000" width="225.700000" height="239.000000" rx="0" ry="0" style="stroke:none;fill:#cccccc;"/>
<rect x="0.000000" y="0.000000" width="225.700000" height="239.000000" rx="0" ry="0" style="stroke:none;fill:#ffffff;"/>
</a>
<text x="10.000000" y="7.000000" font-family="Arial" font-size="7"></text>
<a xlink:href="tablesize-0x2969f10.svg">
<rect x="43.650000" y="25.000000" width="38.700000" height="24.000000" rx="0" ry="0" style="stroke:none;fill:#cccccc;"/>
<rect x="42.650000" y="24.000000" width="38.700000" height="24.000000" rx="0" ry="0" style="stroke:none;fill:#003366;"/>
</a>
<a xlink:href="tablesize-0x2969f10.svg">
<text x="62.000000" y="38.000000" font-family="Arial" font-size="7" text-anchor="middle" fill="#FFFFFF">tablesize</text>
</a>
<circle cx="44.650000" cy="26.000000" r="1"/>
<rect x="51.000000" y="67.000000" width="24.000000" height="24.000000" rx="0" ry="0" style="stroke:none;fill:#cccccc;"/>
<rect x="50.000000" y="66.000000" width="24.000000" height="24.000000" rx="0" ry="0" style="stroke:none;fill:#f44800;"/>
<text x="62.000000" y="80.000000" font-family="Arial" font-size="7" text-anchor="middle" fill="#FFFFFF">1</text>
<circle cx="52.000000" cy="68.000000" r="1"/>
<line x1="41.000000" y1="57.000000" x2="41.000000" y2="99.000000"  style="stroke: black; stroke-linecap:round; stroke-width:0.25; stroke-dasharray:3,3;"/>
<line x1="41.000000" y1="99.000000" x2="83.000000" y2="99.000000"  style="stroke: black; stroke-linecap:round; stroke-width:0.25; stroke-dasharray:3,3;"/>
<line x1="83.000000" y1="99.000000" x2="83.000000" y2="57.000000"  style="stroke: black; stroke-linecap:round; stroke-width:0.25; stroke-dasharray:3,3;"/>
<line x1="41.000000" y1="57.000000" x2="46.000000" y2="57.000000"  style="stroke: black; stroke-linecap:round; stroke-width:0.25; stroke-dasharray:3,3;"/>
<line x1="55.675000" y1="57.000000" x2="83.000000" y2="57.000000"  style="stroke: black; stroke-linecap:round; stroke-width:0.25; stroke-dasharray:3,3;"/>
<text x="46.000000" y="59.000000" font-family="Arial" font-size="7">N</text>
<rect x="101.000000" y="51.000000" width="24.000000" height="24.000000" rx="0" ry="0" style="stroke:none;fill:#cccccc;"/>
<rect x="100.000000" y="50.000000" width="24.000000" height="24.000000" rx="0" ry="0" style="stroke:none;fill:#4B71A1;"/>
<text x="112.000000" y="64.000000" font-family="Arial" font-size="7" text-anchor="middle" fill="#FFFFFF">+</text>
<circle cx="102.000000" cy="52.000000" r="1"/>
<line x1="97.000000" y1="57.000000" x2="100.000000" y2="58.000000"  transform="rotate(0.000000,100.000000,58.000000)" style="stroke: black; stroke-width:0.25;"/>
<line x1="97.000000" y1="59.000000" x2="100.000000" y2="58.000000"  transform="rotate(0.000000,100.000000,58.000000)" style="stroke: black; stroke-width:0.25;"/>
<line x1="97.000000" y1="65.000000" x2="100.000000" y2="66.000000"  transform="rotate(0.000000,100.000000,66.000000)" style="stroke: black; stroke-width:0.25;"/>
<line x1="97.000000" y1="67.000000" x2="100.000000" y2="66.000000"  transform="rotate(0.000000,100.000000,66.000000)" style="stroke: black; stroke-width:0.25;"/>
<a xlink:href="sinwaveform-0x5ebb640.svg">
<rect x="57.200000" y="109.000000" width="51.600000" height="24.000000" rx="0" ry="0" style="stroke:none;fill:#cccccc;"/>
<rect x="56.200000" y="108.000000" width="51.600000" height="24.000000" rx="0" ry="0" style="stroke:none;fill:#003366;"/>
</a>
<a xlink:href="sinwaveform-0x5ebb640.svg">
<text x="82.000000" y="122.000000" font-family="Arial" font-size="7" text-anchor="middle" fill="#FFFFFF">sinwaveform</text>
</a>
<circle cx="58.200000" cy="110.000000" r="1"/>
<a xlink:href="PHi-0xa5d94e0.svg">
<rect x="35.000000" y="141.000000" width="24.000000" height="24.000000" rx="0" ry="0" style="stroke:none;fill:#cccccc;"/>
<rect x="34.000000" y="140.000000" width="24.000000" height="24.000000" rx="0" ry="0" style="stroke:none;fill:#003366;"/>
</a>
<a xlink:href="PHi-0xa5d94e0.svg">
<text x="46.000000" y="154.000000" font-family="Arial" font-size="7" text-anchor="middle" fill="#FFFFFF">PHi</text>
</a>
<circle cx="36.000000" cy="142.000000" r="1"/>
<rect x="35.000000" y="183.000000" width="24.000000" height="24.000000" rx="0" ry="0" style="stroke:none;fill:#cccccc;"/>
<rect x="34.000000" y="182.000000" width="24.000000" height="24.000000" rx="0" ry="0" style="stroke:none;fill:#f44800;"/>
<text x="46.000000" y="196.000000" font-family="Arial" font-size="7" text-anchor="middle" fill="#FFFFFF">1</text>
<circle cx="36.000000" cy="184.000000" r="1"/>
<line x1="25.000000" y1="173.000000" x2="25.000000" y2="215.000000"  style="stroke: black; stroke-linecap:round; stroke-width:0.25; stroke-dasharray:3,3;"/>
<line x1="25.000000" y1="215.000000" x2="67.000000" y2="215.000000"  style="stroke: black; stroke-linecap:round; stroke-width:0.25; stroke-dasharray:3,3;"/>
<line x1="67.000000" y1="215.000000" x2="67.000000" y2="173.000000"  style="stroke: black; stroke-linecap:round; stroke-width:0.25; stroke-dasharray:3,3;"/>
<line x1="25.000000" y1="173.000000" x2="30.000000" y2="173.000000"  style="stroke: black; stroke-linecap:round; stroke-width:0.25; stroke-dasharray:3,3;"/>
<line x1="39.675000" y1="173.000000" x2="67.000000" y2="173.000000"  style="stroke: black; stroke-linecap:round; stroke-width:0.25; stroke-dasharray:3,3;"/>
<text x="30.000000" y="175.000000" font-family="Arial" font-size="7">N</text>
<rect x="85.000000" y="167.000000" width="24.000000" height="24.000000" rx="0" ry="0" style="stroke:none;fill:#cccccc;"/>
<rect x="84.000000" y="166.000000" width="24.000000" height="24.000000" rx="0" ry="0" style="stroke:none;fill:#4B71A1;"/>
<text x="96.000000" y="180.000000" font-family="Arial" font-size="7" text-anchor="middle" fill="#FFFFFF">+</text>
<circle cx="86.000000" cy="168.000000" r="1"/>
<line x1="81.000000" y1="173.000000" x2="84.000000" y2="174.000000"  transform="rotate(0.000000,84.000000,174.000000)" style="stroke: black; stroke-width:0.25;"/>
<line x1="81.000000" y1="175.000000" x2="84.000000" y2="174.000000"  transform="rotate(0.000000,84.000000,174.000000)" style="stroke: black; stroke-width:0.25;"/>
<line x1="81.000000" y1="181.000000" x2="84.000000" y2="182.000000"  transform="rotate(0.000000,84.000000,182.000000)" style="stroke: black; stroke-width:0.25;"/>
<line x1="81.000000" y1="183.000000" x2="84.000000" y2="182.000000"  transform="rotate(0.000000,84.000000,182.000000)" style="stroke: black; stroke-width:0.25;"/>
<rect x="117.000000" y="167.000000" width="24.000000" height="24.000000" rx="0" ry="0" style="stroke:none;fill:#cccccc;"/>
<rect x="116.000000" y="166.000000" width="24.000000" height="24.000000" rx="0" ry="0" style="stroke:none;fill:#4B71A1;"/>
<text x="128.000000" y="180.000000" font-family="Arial" font-size="7" text-anchor="middle" fill="#FFFFFF">int</text>
<circle cx="118.000000" cy="168.000000" r="1"/>
<line x1="113.000000" y1="177.000000" x2="116.000000" y2="178.000000"  transform="rotate(0.000000,116.000000,178.000000)" style="stroke: black; stroke-width:0.25;"/>
<line x1="113.000000" y1="179.000000" x2="116.000000" y2="178.000000"  transform="rotate(0.000000,116.000000,178.000000)" style="stroke: black; stroke-width:0.25;"/>
<rect x="157.000000" y="109.000000" width="38.700000" height="24.000000" rx="0" ry="0" style="stroke:none;fill:#cccccc;"/>
<rect x="156.000000" y="108.000000" width="38.700000" height="24.000000" rx="0" ry="0" style="stroke:none;fill:#4B71A1;"/>
<text x="175.350000" y="122.000000" font-family="Arial" font-size="7" text-anchor="middle" fill="#FFFFFF">rdtable</text>
<circle cx="158.000000" cy="110.000000" r="1"/>
<line x1="153.000000" y1="111.000000" x2="156.000000" y2="112.000000"  transform="rotate(0.000000,156.000000,112.000000)" style="stroke: black; stroke-width:0.25;"/>
<line x1="153.000000" y1="113.000000" x2="156.000000" y2="112.000000"  transform="rotate(0.000000,156.000000,112.000000)" style="stroke: black; stroke-width:0.25;"/>
<line x1="153.000000" y1="119.000000" x2="156.000000" y2="120.000000"  transform="rotate(0.000000,156.000000,120.000000)" style="stroke: black; stroke-width:0.25;"/>
<line x1="153.000000" y1="121.000000" x2="156.000000" y2="120.000000"  transform="rotate(0.000000,156.000000,120.000000)" style="stroke: black; stroke-width:0.25;"/>
<line x1="153.000000" y1="127.000000" x2="156.000000" y2="128.000000"  transform="rotate(0.000000,156.000000,128.000000)" style="stroke: black; stroke-width:0.25;"/>
<line x1="153.000000" y1="129.000000" x2="156.000000" y2="128.000000"  transform="rotate(0.000000,156.000000,128.000000)" style="stroke: black; stroke-width:0.25;"/>
<line x1="15.000000" y1="15.000000" x2="15.000000" y2="225.000000"  style="stroke: black; stroke-linecap:round; stroke-width:0.25; stroke-dasharray:3,3;"/>
<line x1="15.000000" y1="225.000000" x2="211.700000" y2="225.000000"  style="stroke: black; stroke-linecap:round; stroke-width:0.25; stroke-dasharray:3,3;"/>
<line x1="211.700000" y1="225.000000" x2="211.700000" y2="15.000000"  style="stroke: black; stroke-linecap:round; stroke-width:0.25; stroke-dasharray:3,3;"/>
<line x1="15.000000" y1="15.000000" x2="20.000000" y2="15.000000"  style="stroke: black; stroke-linecap:round; stroke-width:0.25; stroke-dasharray:3,3;"/>
<line x1="32.900000" y1="15.000000" x2="211.700000" y2="15.000000"  style="stroke: black; stroke-linecap:round; stroke-width:0.25; stroke-dasharray:3,3;"/>
<text x="20.000000" y="17.000000" font-family="Arial" font-size="7">s2</text>
<line x1="213.700000" y1="119.000000" x2="216.700000" y2="120.000000"  transform="rotate(0.000000,216.700000,120.000000)" style="stroke: black; stroke-width:0.25;"/>
<line x1="213.700000" y1="121.000000" x2="216.700000" y2="120.000000"  transform="rotate(0.000000,216.700000,120.000000)" style="stroke: black; stroke-width:0.25;"/>
<line x1="58.000000" y1="152.000000" x2="62.000000" y2="152.000000"  style="stroke:black; stroke-linecap:round; stroke-width:0.25;"/>
<line x1="58.000000" y1="194.000000" x2="62.000000" y2="194.000000"  style="stroke:black; stroke-linecap:round; stroke-width:0.25;"/>
<line x1="62.000000" y1="152.000000" x2="72.000000" y2="152.000000"  style="stroke:black; stroke-linecap:round; stroke-width:0.25;"/>
<line x1="62.000000" y1="194.000000" x2="72.000000" y2="194.000000"  style="stroke:black; stroke-linecap:round; stroke-width:0.25;"/>
<line x1="72.000000" y1="152.000000" x2="80.000000" y2="152.000000"  style="stroke:black; stroke-linecap:round; stroke-width:0.25;"/>
<line x1="72.000000" y1="182.000000" x2="80.000000" y2="182.000000"  style="stroke:black; stroke-linecap:round; stroke-width:0.25;"/>
<line x1="72.000000" y1="194.000000" x2="72.000000" y2="182.000000"  style="stroke:black; stroke-linecap:round; stroke-width:0.25;"/>
<line x1="72.000000" y1="194.000000" x2="72.000000" y2="194.000000"  style="stroke:black; stroke-linecap:round; stroke-width:0.25;"/>
<line x1="74.000000" y1="78.000000" x2="78.000000" y2="78.000000"  style="stroke:black; stroke-linecap:round; stroke-width:0.25;"/>
<line x1="78.000000" y1="78.000000" x2="88.000000" y2="78.000000"  style="stroke:black; stroke-linecap:round; stroke-width:0.25;"/>
<line x1="80.000000" y1="152.000000" x2="80.000000" y2="174.000000"  style="stroke:black; stroke-linecap:round; stroke-width:0.25;"/>
<line x1="80.000000" y1="174.000000" x2="80.000000" y2="174.000000"  style="stroke:black; stroke-linecap:round; stroke-width:0.25;"/>
<line x1="80.000000" y1="174.000000" x2="84.000000" y2="174.000000"  style="stroke:black; stroke-linecap:round; stroke-width:0.25;"/>
<line x1="80.000000" y1="182.000000" x2="84.000000" y2="182.000000"  style="stroke:black; stroke-linecap:round; stroke-width:0.25;"/>
<line x1="81.350000" y1="36.000000" x2="85.350000" y2="36.000000"  style="stroke:black; stroke-linecap:round; stroke-width:0.25;"/>
<line x1="85.350000" y1="36.000000" x2="88.000000" y2="36.000000"  style="stroke:black; stroke-linecap:round; stroke-width:0.25;"/>
<line x1="88.000000" y1="36.000000" x2="96.000000" y2="36.000000"  style="stroke:black; stroke-linecap:round; stroke-width:0.25;"/>
<line x1="88.000000" y1="66.000000" x2="96.000000" y2="66.000000"  style="stroke:black; stroke-linecap:round; stroke-width:0.25;"/>
<line x1="88.000000" y1="78.000000" x2="88.000000" y2="66.000000"  style="stroke:black; stroke-linecap:round; stroke-width:0.25;"/>
<line x1="88.000000" y1="78.000000" x2="88.000000" y2="78.000000"  style="stroke:black; stroke-linecap:round; stroke-width:0.25;"/>
<line x1="96.000000" y1="36.000000" x2="96.000000" y2="58.000000"  style="stroke:black; stroke-linecap:round; stroke-width:0.25;"/>
<line x1="96.000000" y1="58.000000" x2="96.000000" y2="58.000000"  style="stroke:black; stroke-linecap:round; stroke-width:0.25;"/>
<line x1="96.000000" y1="58.000000" x2="100.000000" y2="58.000000"  style="stroke:black; stroke-linecap:round; stroke-width:0.25;"/>
<line x1="96.000000" y1="66.000000" x2="100.000000" y2="66.000000"  style="stroke:black; stroke-linecap:round; stroke-width:0.25;"/>
<line x1="107.800000" y1="120.000000" x2="111.800000" y2="120.000000"  style="stroke:black; stroke-linecap:round; stroke-width:0.25;"/>
<line x1="108.000000" y1="178.000000" x2="112.000000" y2="178.000000"  style="stroke:black; stroke-linecap:round; stroke-width:0.25;"/>
<line x1="111.800000" y1="120.000000" x2="144.000000" y2="120.000000"  style="stroke:black; stroke-linecap:round; stroke-width:0.25;"/>
<line x1="112.000000" y1="178.000000" x2="112.000000" y2="178.000000"  style="stroke:black; stroke-linecap:round; stroke-width:0.25;"/>
<line x1="112.000000" y1="178.000000" x2="116.000000" y2="178.000000"  style="stroke:black; stroke-linecap:round; stroke-width:0.25;"/>
<line x1="124.000000" y1="62.000000" x2="128.000000" y2="62.000000"  style="stroke:black; stroke-linecap:round; stroke-width:0.25;"/>
<line x1="128.000000" y1="62.000000" x2="144.000000" y2="62.000000"  style="stroke:black; stroke-linecap:round; stroke-width:0.25;"/>
<line x1="140.000000" y1="178.000000" x2="144.000000" y2="178.000000"  style="stroke:black; stroke-linecap:round; stroke-width:0.25;"/>
<line x1="144.000000" y1="62.000000" x2="152.000000" y2="62.000000"  style="stroke:black; stroke-linecap:round; stroke-width:0.25;"/>
<line x1="144.000000" y1="120.000000" x2="152.000000" y2="120.000000"  style="stroke:black; stroke-linecap:round; stroke-width:0.25;"/>
<line x1="144.000000" y1="128.000000" x2="152.000000" y2="128.000000"  style="stroke:black; stroke-linecap:round; stroke-width:0.25;"/>
<line x1="144.000000" y1="178.000000" x2="144.000000" y2="128.000000"  style="stroke:black; stroke-linecap:round; stroke-width:0.25;"/>
<line x1="144.000000" y1="178.000000" x2="144.000000" y2="178.000000"  style="stroke:black; stroke-linecap:round; stroke-width:0.25;"/>
<line x1="152.000000" y1="62.000000" x2="152.000000" y2="112.000000"  style="stroke:black; stroke-linecap:round; stroke-width:0.25;"/>
<line x1="152.000000" y1="112.000000" x2="152.000000" y2="112.000000"  style="stroke:black; stroke-linecap:round; stroke-width:0.25;"/>
<line x1="152.000000" y1="112.000000" x2="156.000000" y2="112.000000"  style="stroke:black; stroke-linecap:round; stroke-width:0.25;"/>
<line x1="152.000000" y1="120.000000" x2="156.000000" y2="120.000000"  style="stroke:black; stroke-linecap:round; stroke-width:0.25;"/>
<line x1="152.000000" y1="128.000000" x2="156.000000" y2="128.000000"  style="stroke:black; stroke-linecap:round; stroke-width:0.25;"/>
<line x1="194.700000" y1="120.000000" x2="198.700000" y2="120.000000"  style="stroke:black; stroke-linecap:round; stroke-width:0.25;"/>
<line x1="198.700000" y1="120.000000" x2="198.700000" y2="120.000000"  style="stroke:black; stroke-linecap:round; stroke-width:0.25;"/>
<line x1="198.700000" y1="120.000000" x2="202.700000" y2="120.000000"  style="stroke:black; stroke-linecap:round; stroke-width:0.25;"/>
<line x1="202.700000" y1="120.000000" x2="206.700000" y2="120.000000"  style="stroke:black; stroke-linecap:round; stroke-width:0.25;"/>
<line x1="206.700000" y1="120.000000" x2="216.700000" y2="120.000000"  style="stroke:black; stroke-linecap:round; stroke-width:0.25;"/>
</svg>
