<?xml version="1.0"?>
<svg xmlns="http://www.w3.org/2000/svg" xmlns:xlink="http://www.w3.org/1999/xlink" viewBox="0 0 467.340000 128.000000" width="233.670000mm" height="64.000000mm" version="1.1">
<a xlink:href="my-0x243036c0.svg">
<rect x="1.000000" y="1.000000" width="466.340000" height="127.000000" rx="0" ry="0" style="stroke:none;fill:#cccccc;"/>
<rect x="0.000000" y="0.000000" width="466.340000" height="127.000000" rx="0" ry="0" style="stroke:none;fill:#ffffff;"/>
</a>
<text x="10.000000" y="7.000000" font-family="Arial" font-size="7"></text>
<a xlink:href="inswitch-0x2ac5f40.svg">
<rect x="65.000000" y="49.000000" width="38.700000" height="24.000000" rx="0" ry="0" style="stroke:none;fill:#cccccc;"/>
<rect x="64.000000" y="48.000000" width="38.700000" height="24.000000" rx="0" ry="0" style="stroke:none;fill:#003366;"/>
</a>
<a xlink:href="inswitch-0x2ac5f40.svg">
<text x="83.350000" y="62.000000" font-family="Arial" font-size="7" text-anchor="middle" fill="#FFFFFF">inswitch</text>
</a>
<circle cx="66.000000" cy="50.000000" r="1"/>
<line x1="61.000000" y1="59.000000" x2="64.000000" y2="60.000000"  transform="rotate(0.000000,64.000000,60.000000)" style="stroke: black; stroke-width:0.25;"/>
<line x1="61.000000" y1="61.000000" x2="64.000000" y2="60.000000"  transform="rotate(0.000000,64.000000,60.000000)" style="stroke: black; stroke-width:0.25;"/>
<a xlink:href="lag-0x2ab23f0.svg">
<rect x="111.700000" y="49.000000" width="141.900000" height="24.000000" rx="0" ry="0" style="stroke:none;fill:#cccccc;"/>
<rect x="110.700000" y="48.000000" width="141.900000" height="24.000000" rx="0" ry="0" style="stroke:none;fill:#003366;"/>
</a>
<a xlink:href="lag-0x2ab23f0.svg">
<text x="181.650000" y="62.000000" font-family="Arial" font-size="7" text-anchor="middle" fill="#FFFFFF">lag_ud(1,((((...25f : *) : /)(0)</text>
</a>
<circle cx="112.700000" cy="50.000000" r="1"/>
<line x1="107.700000" y1="59.000000" x2="110.700000" y2="60.000000"  transform="rotate(0.000000,110.700000,60.000000)" style="stroke: black; stroke-width:0.25;"/>
<line x1="107.700000" y1="61.000000" x2="110.700000" y2="60.000000"  transform="rotate(0.000000,110.700000,60.000000)" style="stroke: black; stroke-width:0.25;"/>
<rect x="329.640000" y="45.000000" width="24.000000" height="24.000000" rx="0" ry="0" style="stroke:none;fill:#cccccc;"/>
<rect x="328.640000" y="44.000000" width="24.000000" height="24.000000" rx="0" ry="0" style="stroke:none;fill:#f44800;"/>
<text x="340.640000" y="58.000000" font-family="Arial" font-size="7" text-anchor="middle" fill="#FFFFFF">0</text>
<circle cx="330.640000" cy="46.000000" r="1"/>
<line x1="319.640000" y1="35.000000" x2="319.640000" y2="77.000000"  style="stroke: black; stroke-linecap:round; stroke-width:0.25; stroke-dasharray:3,3;"/>
<line x1="319.640000" y1="77.000000" x2="361.640000" y2="77.000000"  style="stroke: black; stroke-linecap:round; stroke-width:0.25; stroke-dasharray:3,3;"/>
<line x1="361.640000" y1="77.000000" x2="361.640000" y2="35.000000"  style="stroke: black; stroke-linecap:round; stroke-width:0.25; stroke-dasharray:3,3;"/>
<line x1="319.640000" y1="35.000000" x2="324.640000" y2="35.000000"  style="stroke: black; stroke-linecap:round; stroke-width:0.25; stroke-dasharray:3,3;"/>
<line x1="337.540000" y1="35.000000" x2="361.640000" y2="35.000000"  style="stroke: black; stroke-linecap:round; stroke-width:0.25; stroke-dasharray:3,3;"/>
<text x="324.640000" y="37.000000" font-family="Arial" font-size="7">b2</text>
<rect x="387.640000" y="53.000000" width="38.700000" height="24.000000" rx="0" ry="0" style="stroke:none;fill:#cccccc;"/>
<rect x="386.640000" y="52.000000" width="38.700000" height="24.000000" rx="0" ry="0" style="stroke:none;fill:#4B71A1;"/>
<text x="405.990000" y="66.000000" font-family="Arial" font-size="7" text-anchor="middle" fill="#FFFFFF">select2</text>
<circle cx="388.640000" cy="54.000000" r="1"/>
<line x1="383.640000" y1="55.000000" x2="386.640000" y2="56.000000"  transform="rotate(0.000000,386.640000,56.000000)" style="stroke: black; stroke-width:0.25;"/>
<line x1="383.640000" y1="57.000000" x2="386.640000" y2="56.000000"  transform="rotate(0.000000,386.640000,56.000000)" style="stroke: black; stroke-width:0.25;"/>
<line x1="383.640000" y1="63.000000" x2="386.640000" y2="64.000000"  transform="rotate(0.000000,386.640000,64.000000)" style="stroke: black; stroke-width:0.25;"/>
<line x1="383.640000" y1="65.000000" x2="386.640000" y2="64.000000"  transform="rotate(0.000000,386.640000,64.000000)" style="stroke: black; stroke-width:0.25;"/>
<line x1="383.640000" y1="71.000000" x2="386.640000" y2="72.000000"  transform="rotate(0.000000,386.640000,72.000000)" style="stroke: black; stroke-width:0.25;"/>
<line x1="383.640000" y1="73.000000" x2="386.640000" y2="72.000000"  transform="rotate(0.000000,386.640000,72.000000)" style="stroke: black; stroke-width:0.25;"/>
<line x1="269.600000" y1="25.000000" x2="269.600000" y2="103.000000"  style="stroke: black; stroke-linecap:round; stroke-width:0.25; stroke-dasharray:3,3;"/>
<line x1="269.600000" y1="103.000000" x2="434.340000" y2="103.000000"  style="stroke: black; stroke-linecap:round; stroke-width:0.25; stroke-dasharray:3,3;"/>
<line x1="434.340000" y1="103.000000" x2="434.340000" y2="25.000000"  style="stroke: black; stroke-linecap:round; stroke-width:0.25; stroke-dasharray:3,3;"/>
<line x1="269.600000" y1="25.000000" x2="274.600000" y2="25.000000"  style="stroke: black; stroke-linecap:round; stroke-width:0.25; stroke-dasharray:3,3;"/>
<line x1="310.075000" y1="25.000000" x2="434.340000" y2="25.000000"  style="stroke: black; stroke-linecap:round; stroke-width:0.25; stroke-dasharray:3,3;"/>
<text x="274.600000" y="27.000000" font-family="Arial" font-size="7">outswitch</text>
<line x1="15.000000" y1="15.000000" x2="15.000000" y2="113.000000"  style="stroke: black; stroke-linecap:round; stroke-width:0.25; stroke-dasharray:3,3;"/>
<line x1="15.000000" y1="113.000000" x2="452.340000" y2="113.000000"  style="stroke: black; stroke-linecap:round; stroke-width:0.25; stroke-dasharray:3,3;"/>
<line x1="452.340000" y1="113.000000" x2="452.340000" y2="15.000000"  style="stroke: black; stroke-linecap:round; stroke-width:0.25; stroke-dasharray:3,3;"/>
<line x1="15.000000" y1="15.000000" x2="20.000000" y2="15.000000"  style="stroke: black; stroke-linecap:round; stroke-width:0.25; stroke-dasharray:3,3;"/>
<line x1="119.975000" y1="15.000000" x2="452.340000" y2="15.000000"  style="stroke: black; stroke-linecap:round; stroke-width:0.25; stroke-dasharray:3,3;"/>
<text x="20.000000" y="17.000000" font-family="Arial" font-size="7">bypass(0)(_&lt;:...env = {}])~_)</text>
<line x1="454.340000" y1="63.000000" x2="457.340000" y2="64.000000"  transform="rotate(0.000000,457.340000,64.000000)" style="stroke: black; stroke-width:0.25;"/>
<line x1="454.340000" y1="65.000000" x2="457.340000" y2="64.000000"  transform="rotate(0.000000,457.340000,64.000000)" style="stroke: black; stroke-width:0.25;"/>
<line x1="10.000000" y1="64.000000" x2="20.000000" y2="64.000000"  style="stroke:black; stroke-linecap:round; stroke-width:0.25;"/>
<line x1="20.000000" y1="64.000000" x2="24.000000" y2="64.000000"  style="stroke:black; stroke-linecap:round; stroke-width:0.25;"/>
<line x1="24.000000" y1="64.000000" x2="28.000000" y2="64.000000"  style="stroke:black; stroke-linecap:round; stroke-width:0.25;"/>
<line x1="28.000000" y1="64.000000" x2="28.000000" y2="64.000000"  style="stroke:black; stroke-linecap:round; stroke-width:0.25;"/>
<line x1="28.000000" y1="64.000000" x2="32.000000" y2="64.000000"  style="stroke:black; stroke-linecap:round; stroke-width:0.25;"/>
<line x1="32.000000" y1="64.000000" x2="36.000000" y2="64.000000"  style="stroke:black; stroke-linecap:round; stroke-width:0.25;"/>
<line x1="36.000000" y1="64.000000" x2="60.000000" y2="60.000000"  style="stroke:black; stroke-linecap:round; stroke-width:0.25;"/>
<line x1="36.000000" y1="64.000000" x2="60.000000" y2="80.000000"  style="stroke:black; stroke-linecap:round; stroke-width:0.25;"/>
<line x1="60.000000" y1="60.000000" x2="64.000000" y2="60.000000"  style="stroke:black; stroke-linecap:round; stroke-width:0.25;"/>
<line x1="60.000000" y1="80.000000" x2="158.300000" y2="80.000000"  style="stroke:black; stroke-linecap:round; stroke-width:0.25;"/>
<line x1="102.700000" y1="60.000000" x2="106.700000" y2="60.000000"  style="stroke:black; stroke-linecap:round; stroke-width:0.25;"/>
<line x1="106.700000" y1="60.000000" x2="106.700000" y2="60.000000"  style="stroke:black; stroke-linecap:round; stroke-width:0.25;"/>
<line x1="106.700000" y1="60.000000" x2="110.700000" y2="60.000000"  style="stroke:black; stroke-linecap:round; stroke-width:0.25;"/>
<line x1="158.300000" y1="80.000000" x2="256.600000" y2="80.000000"  style="stroke:black; stroke-linecap:round; stroke-width:0.25;"/>
<line x1="252.600000" y1="60.000000" x2="256.600000" y2="60.000000"  style="stroke:black; stroke-linecap:round; stroke-width:0.25;"/>
<line x1="256.600000" y1="60.000000" x2="264.600000" y2="60.000000"  style="stroke:black; stroke-linecap:round; stroke-width:0.25;"/>
<line x1="256.600000" y1="68.000000" x2="264.600000" y2="68.000000"  style="stroke:black; stroke-linecap:round; stroke-width:0.25;"/>
<line x1="256.600000" y1="80.000000" x2="256.600000" y2="68.000000"  style="stroke:black; stroke-linecap:round; stroke-width:0.25;"/>
<line x1="256.600000" y1="80.000000" x2="256.600000" y2="80.000000"  style="stroke:black; stroke-linecap:round; stroke-width:0.25;"/>
<line x1="264.600000" y1="60.000000" x2="274.600000" y2="60.000000"  style="stroke:black; stroke-linecap:round; stroke-width:0.25;"/>
<line x1="264.600000" y1="68.000000" x2="274.600000" y2="68.000000"  style="stroke:black; stroke-linecap:round; stroke-width:0.25;"/>
<line x1="274.600000" y1="60.000000" x2="278.600000" y2="60.000000"  style="stroke:black; stroke-linecap:round; stroke-width:0.25;"/>
<line x1="274.600000" y1="68.000000" x2="278.600000" y2="68.000000"  style="stroke:black; stroke-linecap:round; stroke-width:0.25;"/>
<line x1="278.600000" y1="60.000000" x2="282.600000" y2="60.000000"  style="stroke:black; stroke-linecap:round; stroke-width:0.25;"/>
<line x1="278.600000" y1="68.000000" x2="282.600000" y2="68.000000"  style="stroke:black; stroke-linecap:round; stroke-width:0.25;"/>
<line x1="282.600000" y1="60.000000" x2="290.640000" y2="59.920000"  style="stroke:black; stroke-linecap:round; stroke-width:0.25;"/>
<line x1="282.600000" y1="68.000000" x2="290.640000" y2="68.080000"  style="stroke:black; stroke-linecap:round; stroke-width:0.25;"/>
<line x1="290.640000" y1="59.920000" x2="294.640000" y2="59.920000"  style="stroke:black; stroke-linecap:round; stroke-width:0.25;"/>
<line x1="290.640000" y1="68.080000" x2="294.640000" y2="68.080000"  style="stroke:black; stroke-linecap:round; stroke-width:0.25;"/>
<line x1="294.640000" y1="59.920000" x2="298.640000" y2="59.920000"  style="stroke:black; stroke-linecap:round; stroke-width:0.25;"/>
<line x1="294.640000" y1="68.080000" x2="298.640000" y2="68.080000"  style="stroke:black; stroke-linecap:round; stroke-width:0.25;"/>
<line x1="298.640000" y1="59.920000" x2="314.640000" y2="59.920000"  style="stroke:black; stroke-linecap:round; stroke-width:0.25;"/>
<line x1="298.640000" y1="68.080000" x2="306.640000" y2="68.080000"  style="stroke:black; stroke-linecap:round; stroke-width:0.25;"/>
<line x1="306.640000" y1="68.080000" x2="306.640000" y2="94.000000"  style="stroke:black; stroke-linecap:round; stroke-width:0.25;"/>
<line x1="306.640000" y1="94.000000" x2="314.640000" y2="94.000000"  style="stroke:black; stroke-linecap:round; stroke-width:0.25;"/>
<line x1="314.640000" y1="59.920000" x2="314.640000" y2="86.000000"  style="stroke:black; stroke-linecap:round; stroke-width:0.25;"/>
<line x1="314.640000" y1="86.000000" x2="314.640000" y2="86.000000"  style="stroke:black; stroke-linecap:round; stroke-width:0.25;"/>
<line x1="314.640000" y1="86.000000" x2="340.640000" y2="86.000000"  style="stroke:black; stroke-linecap:round; stroke-width:0.25;"/>
<line x1="314.640000" y1="94.000000" x2="340.640000" y2="94.000000"  style="stroke:black; stroke-linecap:round; stroke-width:0.25;"/>
<line x1="340.640000" y1="86.000000" x2="366.640000" y2="86.000000"  style="stroke:black; stroke-linecap:round; stroke-width:0.25;"/>
<line x1="340.640000" y1="94.000000" x2="366.640000" y2="94.000000"  style="stroke:black; stroke-linecap:round; stroke-width:0.25;"/>
<line x1="352.640000" y1="56.000000" x2="356.640000" y2="56.000000"  style="stroke:black; stroke-linecap:round; stroke-width:0.25;"/>
<line x1="356.640000" y1="56.000000" x2="366.640000" y2="56.000000"  style="stroke:black; stroke-linecap:round; stroke-width:0.25;"/>
<line x1="366.640000" y1="56.000000" x2="382.640000" y2="56.000000"  style="stroke:black; stroke-linecap:round; stroke-width:0.25;"/>
<line x1="366.640000" y1="64.000000" x2="382.640000" y2="64.000000"  style="stroke:black; stroke-linecap:round; stroke-width:0.25;"/>
<line x1="366.640000" y1="86.000000" x2="366.640000" y2="64.000000"  style="stroke:black; stroke-linecap:round; stroke-width:0.25;"/>
<line x1="366.640000" y1="86.000000" x2="366.640000" y2="86.000000"  style="stroke:black; stroke-linecap:round; stroke-width:0.25;"/>
<line x1="366.640000" y1="94.000000" x2="374.640000" y2="94.000000"  style="stroke:black; stroke-linecap:round; stroke-width:0.25;"/>
<line x1="374.640000" y1="72.000000" x2="382.640000" y2="72.000000"  style="stroke:black; stroke-linecap:round; stroke-width:0.25;"/>
<line x1="374.640000" y1="94.000000" x2="374.640000" y2="72.000000"  style="stroke:black; stroke-linecap:round; stroke-width:0.25;"/>
<line x1="382.640000" y1="56.000000" x2="386.640000" y2="56.000000"  style="stroke:black; stroke-linecap:round; stroke-width:0.25;"/>
<line x1="382.640000" y1="64.000000" x2="386.640000" y2="64.000000"  style="stroke:black; stroke-linecap:round; stroke-width:0.25;"/>
<line x1="382.640000" y1="72.000000" x2="386.640000" y2="72.000000"  style="stroke:black; stroke-linecap:round; stroke-width:0.25;"/>
<line x1="425.340000" y1="64.000000" x2="429.340000" y2="64.000000"  style="stroke:black; stroke-linecap:round; stroke-width:0.25;"/>
<line x1="429.340000" y1="64.000000" x2="439.340000" y2="64.000000"  style="stroke:black; stroke-linecap:round; stroke-width:0.25;"/>
<line x1="439.340000" y1="64.000000" x2="443.340000" y2="64.000000"  style="stroke:black; stroke-linecap:round; stroke-width:0.25;"/>
<line x1="439.340000" y1="64.000000" x2="439.340000" y2="64.000000"  style="stroke:black; stroke-linecap:round; stroke-width:0.25;"/>
<line x1="443.340000" y1="64.000000" x2="447.340000" y2="64.000000"  style="stroke:black; stroke-linecap:round; stroke-width:0.25;"/>
<line x1="447.340000" y1="64.000000" x2="457.340000" y2="64.000000"  style="stroke:black; stroke-linecap:round; stroke-width:0.25;"/>
</svg>
