<?xml version="1.0"?>
<svg xmlns="http://www.w3.org/2000/svg" xmlns:xlink="http://www.w3.org/1999/xlink" viewBox="0 0 551.600000 428.000000" width="275.800000mm" height="214.000000mm" version="1.1">
<a xlink:href="czOscs-0x1c7697a0.svg">
<rect x="1.000000" y="1.000000" width="550.600000" height="427.000000" rx="0" ry="0" style="stroke:none;fill:#cccccc;"/>
<rect x="0.000000" y="0.000000" width="550.600000" height="427.000000" rx="0" ry="0" style="stroke:none;fill:#ffffff;"/>
</a>
<text x="10.000000" y="7.000000" font-family="Arial" font-size="7"></text>
<rect x="41.000000" y="187.000000" width="25.800000" height="24.000000" rx="0" ry="0" style="stroke:none;fill:#cccccc;"/>
<rect x="40.000000" y="186.000000" width="25.800000" height="24.000000" rx="0" ry="0" style="stroke:none;fill:#47945E;"/>
<text x="52.900000" y="200.000000" font-family="Arial" font-size="7" text-anchor="middle" fill="#FFFFFF">fund</text>
<circle cx="42.000000" cy="188.000000" r="1"/>
<line x1="37.000000" y1="197.000000" x2="40.000000" y2="198.000000"  transform="rotate(0.000000,40.000000,198.000000)" style="stroke: black; stroke-width:0.25;"/>
<line x1="37.000000" y1="199.000000" x2="40.000000" y2="198.000000"  transform="rotate(0.000000,40.000000,198.000000)" style="stroke: black; stroke-width:0.25;"/>
<rect x="41.900000" y="219.000000" width="24.000000" height="24.000000" rx="0" ry="0" style="stroke:none;fill:#cccccc;"/>
<rect x="40.900000" y="218.000000" width="24.000000" height="24.000000" rx="0" ry="0" style="stroke:none;fill:#47945E;"/>
<text x="52.900000" y="232.000000" font-family="Arial" font-size="7" text-anchor="middle" fill="#FFFFFF">res</text>
<circle cx="42.900000" cy="220.000000" r="1"/>
<line x1="37.900000" y1="229.000000" x2="40.900000" y2="230.000000"  transform="rotate(0.000000,40.900000,230.000000)" style="stroke: black; stroke-width:0.25;"/>
<line x1="37.900000" y1="231.000000" x2="40.900000" y2="230.000000"  transform="rotate(0.000000,40.900000,230.000000)" style="stroke: black; stroke-width:0.25;"/>
<rect x="104.800000" y="25.000000" width="24.000000" height="24.000000" rx="0" ry="0" style="stroke:none;fill:#cccccc;"/>
<rect x="103.800000" y="24.000000" width="24.000000" height="24.000000" rx="0" ry="0" style="stroke:none;fill:#f44800;"/>
<text x="115.800000" y="38.000000" font-family="Arial" font-size="7" text-anchor="middle" fill="#FFFFFF">-1</text>
<circle cx="105.800000" cy="26.000000" r="1"/>
<rect x="84.800000" y="67.000000" width="24.000000" height="24.000000" rx="0" ry="0" style="stroke:none;fill:#cccccc;"/>
<rect x="83.800000" y="66.000000" width="24.000000" height="24.000000" rx="0" ry="0" style="stroke:none;fill:#f44800;"/>
<text x="95.800000" y="80.000000" font-family="Arial" font-size="7" text-anchor="middle" fill="#FFFFFF">1</text>
<circle cx="85.800000" cy="68.000000" r="1"/>
<line x1="74.800000" y1="57.000000" x2="74.800000" y2="99.000000"  style="stroke: black; stroke-linecap:round; stroke-width:0.25; stroke-dasharray:3,3;"/>
<line x1="74.800000" y1="99.000000" x2="116.800000" y2="99.000000"  style="stroke: black; stroke-linecap:round; stroke-width:0.25; stroke-dasharray:3,3;"/>
<line x1="116.800000" y1="99.000000" x2="116.800000" y2="57.000000"  style="stroke: black; stroke-linecap:round; stroke-width:0.25; stroke-dasharray:3,3;"/>
<line x1="74.800000" y1="57.000000" x2="79.800000" y2="57.000000"  style="stroke: black; stroke-linecap:round; stroke-width:0.25; stroke-dasharray:3,3;"/>
<line x1="92.700000" y1="57.000000" x2="116.800000" y2="57.000000"  style="stroke: black; stroke-linecap:round; stroke-width:0.25; stroke-dasharray:3,3;"/>
<text x="79.800000" y="59.000000" font-family="Arial" font-size="7">b1</text>
<rect x="83.900000" y="109.000000" width="25.800000" height="24.000000" rx="0" ry="0" style="stroke:none;fill:#cccccc;"/>
<rect x="82.900000" y="108.000000" width="25.800000" height="24.000000" rx="0" ry="0" style="stroke:none;fill:#47945E;"/>
<text x="95.800000" y="122.000000" font-family="Arial" font-size="7" text-anchor="middle" fill="#FFFFFF">fund</text>
<circle cx="84.900000" cy="110.000000" r="1"/>
<rect x="134.800000" y="83.000000" width="24.000000" height="24.000000" rx="0" ry="0" style="stroke:none;fill:#cccccc;"/>
<rect x="133.800000" y="82.000000" width="24.000000" height="24.000000" rx="0" ry="0" style="stroke:none;fill:#4B71A1;"/>
<text x="145.800000" y="96.000000" font-family="Arial" font-size="7" text-anchor="middle" fill="#FFFFFF">-</text>
<circle cx="135.800000" cy="84.000000" r="1"/>
<line x1="130.800000" y1="89.000000" x2="133.800000" y2="90.000000"  transform="rotate(0.000000,133.800000,90.000000)" style="stroke: black; stroke-width:0.25;"/>
<line x1="130.800000" y1="91.000000" x2="133.800000" y2="90.000000"  transform="rotate(0.000000,133.800000,90.000000)" style="stroke: black; stroke-width:0.25;"/>
<line x1="130.800000" y1="97.000000" x2="133.800000" y2="98.000000"  transform="rotate(0.000000,133.800000,98.000000)" style="stroke: black; stroke-width:0.25;"/>
<line x1="130.800000" y1="99.000000" x2="133.800000" y2="98.000000"  transform="rotate(0.000000,133.800000,98.000000)" style="stroke: black; stroke-width:0.25;"/>
<rect x="174.800000" y="67.000000" width="24.000000" height="24.000000" rx="0" ry="0" style="stroke:none;fill:#cccccc;"/>
<rect x="173.800000" y="66.000000" width="24.000000" height="24.000000" rx="0" ry="0" style="stroke:none;fill:#4B71A1;"/>
<text x="185.800000" y="80.000000" font-family="Arial" font-size="7" text-anchor="middle" fill="#FFFFFF">*</text>
<circle cx="175.800000" cy="68.000000" r="1"/>
<line x1="170.800000" y1="73.000000" x2="173.800000" y2="74.000000"  transform="rotate(0.000000,173.800000,74.000000)" style="stroke: black; stroke-width:0.25;"/>
<line x1="170.800000" y1="75.000000" x2="173.800000" y2="74.000000"  transform="rotate(0.000000,173.800000,74.000000)" style="stroke: black; stroke-width:0.25;"/>
<line x1="170.800000" y1="81.000000" x2="173.800000" y2="82.000000"  transform="rotate(0.000000,173.800000,82.000000)" style="stroke: black; stroke-width:0.25;"/>
<line x1="170.800000" y1="83.000000" x2="173.800000" y2="82.000000"  transform="rotate(0.000000,173.800000,82.000000)" style="stroke: black; stroke-width:0.25;"/>
<rect x="214.800000" y="63.000000" width="25.800000" height="24.000000" rx="0" ry="0" style="stroke:none;fill:#cccccc;"/>
<rect x="213.800000" y="62.000000" width="25.800000" height="24.000000" rx="0" ry="0" style="stroke:none;fill:#f44800;"/>
<text x="226.700000" y="76.000000" font-family="Arial" font-size="7" text-anchor="middle" fill="#FFFFFF">-0.5</text>
<circle cx="215.800000" cy="64.000000" r="1"/>
<rect x="256.600000" y="67.000000" width="24.000000" height="24.000000" rx="0" ry="0" style="stroke:none;fill:#cccccc;"/>
<rect x="255.600000" y="66.000000" width="24.000000" height="24.000000" rx="0" ry="0" style="stroke:none;fill:#4B71A1;"/>
<text x="267.600000" y="80.000000" font-family="Arial" font-size="7" text-anchor="middle" fill="#FFFFFF">max</text>
<circle cx="257.600000" cy="68.000000" r="1"/>
<line x1="252.600000" y1="73.000000" x2="255.600000" y2="74.000000"  transform="rotate(0.000000,255.600000,74.000000)" style="stroke: black; stroke-width:0.25;"/>
<line x1="252.600000" y1="75.000000" x2="255.600000" y2="74.000000"  transform="rotate(0.000000,255.600000,74.000000)" style="stroke: black; stroke-width:0.25;"/>
<line x1="252.600000" y1="81.000000" x2="255.600000" y2="82.000000"  transform="rotate(0.000000,255.600000,82.000000)" style="stroke: black; stroke-width:0.25;"/>
<line x1="252.600000" y1="83.000000" x2="255.600000" y2="82.000000"  transform="rotate(0.000000,255.600000,82.000000)" style="stroke: black; stroke-width:0.25;"/>
<rect x="296.600000" y="37.000000" width="24.000000" height="24.000000" rx="0" ry="0" style="stroke:none;fill:#cccccc;"/>
<rect x="295.600000" y="36.000000" width="24.000000" height="24.000000" rx="0" ry="0" style="stroke:none;fill:#f44800;"/>
<text x="307.600000" y="50.000000" font-family="Arial" font-size="7" text-anchor="middle" fill="#FFFFFF">0.5</text>
<circle cx="297.600000" cy="38.000000" r="1"/>
<rect x="336.600000" y="41.000000" width="24.000000" height="24.000000" rx="0" ry="0" style="stroke:none;fill:#cccccc;"/>
<rect x="335.600000" y="40.000000" width="24.000000" height="24.000000" rx="0" ry="0" style="stroke:none;fill:#4B71A1;"/>
<text x="347.600000" y="54.000000" font-family="Arial" font-size="7" text-anchor="middle" fill="#FFFFFF">min</text>
<circle cx="337.600000" cy="42.000000" r="1"/>
<line x1="332.600000" y1="47.000000" x2="335.600000" y2="48.000000"  transform="rotate(0.000000,335.600000,48.000000)" style="stroke: black; stroke-width:0.25;"/>
<line x1="332.600000" y1="49.000000" x2="335.600000" y2="48.000000"  transform="rotate(0.000000,335.600000,48.000000)" style="stroke: black; stroke-width:0.25;"/>
<line x1="332.600000" y1="55.000000" x2="335.600000" y2="56.000000"  transform="rotate(0.000000,335.600000,56.000000)" style="stroke: black; stroke-width:0.25;"/>
<line x1="332.600000" y1="57.000000" x2="335.600000" y2="56.000000"  transform="rotate(0.000000,335.600000,56.000000)" style="stroke: black; stroke-width:0.25;"/>
<rect x="316.600000" y="87.000000" width="24.000000" height="24.000000" rx="0" ry="0" style="stroke:none;fill:#cccccc;"/>
<rect x="315.600000" y="86.000000" width="24.000000" height="24.000000" rx="0" ry="0" style="stroke:none;fill:#f44800;"/>
<text x="327.600000" y="100.000000" font-family="Arial" font-size="7" text-anchor="middle" fill="#FFFFFF">2</text>
<circle cx="317.600000" cy="88.000000" r="1"/>
<line x1="306.600000" y1="77.000000" x2="306.600000" y2="119.000000"  style="stroke: black; stroke-linecap:round; stroke-width:0.25; stroke-dasharray:3,3;"/>
<line x1="306.600000" y1="119.000000" x2="348.600000" y2="119.000000"  style="stroke: black; stroke-linecap:round; stroke-width:0.25; stroke-dasharray:3,3;"/>
<line x1="348.600000" y1="119.000000" x2="348.600000" y2="77.000000"  style="stroke: black; stroke-linecap:round; stroke-width:0.25; stroke-dasharray:3,3;"/>
<line x1="306.600000" y1="77.000000" x2="311.600000" y2="77.000000"  style="stroke: black; stroke-linecap:round; stroke-width:0.25; stroke-dasharray:3,3;"/>
<line x1="321.275000" y1="77.000000" x2="348.600000" y2="77.000000"  style="stroke: black; stroke-linecap:round; stroke-width:0.25; stroke-dasharray:3,3;"/>
<text x="311.600000" y="79.000000" font-family="Arial" font-size="7">M</text>
<rect x="376.600000" y="67.000000" width="24.000000" height="24.000000" rx="0" ry="0" style="stroke:none;fill:#cccccc;"/>
<rect x="375.600000" y="66.000000" width="24.000000" height="24.000000" rx="0" ry="0" style="stroke:none;fill:#4B71A1;"/>
<text x="387.600000" y="80.000000" font-family="Arial" font-size="7" text-anchor="middle" fill="#FFFFFF">*</text>
<circle cx="377.600000" cy="68.000000" r="1"/>
<line x1="372.600000" y1="73.000000" x2="375.600000" y2="74.000000"  transform="rotate(0.000000,375.600000,74.000000)" style="stroke: black; stroke-width:0.25;"/>
<line x1="372.600000" y1="75.000000" x2="375.600000" y2="74.000000"  transform="rotate(0.000000,375.600000,74.000000)" style="stroke: black; stroke-width:0.25;"/>
<line x1="372.600000" y1="81.000000" x2="375.600000" y2="82.000000"  transform="rotate(0.000000,375.600000,82.000000)" style="stroke: black; stroke-width:0.25;"/>
<line x1="372.600000" y1="83.000000" x2="375.600000" y2="82.000000"  transform="rotate(0.000000,375.600000,82.000000)" style="stroke: black; stroke-width:0.25;"/>
<a xlink:href="fracPart-0x1c758560.svg">
<rect x="97.200000" y="141.000000" width="129.000000" height="24.000000" rx="0" ry="0" style="stroke:none;fill:#cccccc;"/>
<rect x="96.200000" y="140.000000" width="129.000000" height="24.000000" rx="0" ry="0" style="stroke:none;fill:#003366;"/>
</a>
<a xlink:href="fracPart-0x1c758560.svg">
<text x="160.700000" y="154.000000" font-family="Arial" font-size="7" text-anchor="middle" fill="#FFFFFF">fracPart((x21...) : *),1 : +)</text>
</a>
<circle cx="98.200000" cy="142.000000" r="1"/>
<rect x="149.700000" y="183.000000" width="24.000000" height="24.000000" rx="0" ry="0" style="stroke:none;fill:#cccccc;"/>
<rect x="148.700000" y="182.000000" width="24.000000" height="24.000000" rx="0" ry="0" style="stroke:none;fill:#f44800;"/>
<text x="160.700000" y="196.000000" font-family="Arial" font-size="7" text-anchor="middle" fill="#FFFFFF">2</text>
<circle cx="150.700000" cy="184.000000" r="1"/>
<line x1="139.700000" y1="173.000000" x2="139.700000" y2="215.000000"  style="stroke: black; stroke-linecap:round; stroke-width:0.25; stroke-dasharray:3,3;"/>
<line x1="139.700000" y1="215.000000" x2="181.700000" y2="215.000000"  style="stroke: black; stroke-linecap:round; stroke-width:0.25; stroke-dasharray:3,3;"/>
<line x1="181.700000" y1="215.000000" x2="181.700000" y2="173.000000"  style="stroke: black; stroke-linecap:round; stroke-width:0.25; stroke-dasharray:3,3;"/>
<line x1="139.700000" y1="173.000000" x2="144.700000" y2="173.000000"  style="stroke: black; stroke-linecap:round; stroke-width:0.25; stroke-dasharray:3,3;"/>
<line x1="154.375000" y1="173.000000" x2="181.700000" y2="173.000000"  style="stroke: black; stroke-linecap:round; stroke-width:0.25; stroke-dasharray:3,3;"/>
<text x="144.700000" y="175.000000" font-family="Arial" font-size="7">M</text>
<rect x="242.200000" y="167.000000" width="24.000000" height="24.000000" rx="0" ry="0" style="stroke:none;fill:#cccccc;"/>
<rect x="241.200000" y="166.000000" width="24.000000" height="24.000000" rx="0" ry="0" style="stroke:none;fill:#4B71A1;"/>
<text x="253.200000" y="180.000000" font-family="Arial" font-size="7" text-anchor="middle" fill="#FFFFFF">*</text>
<circle cx="243.200000" cy="168.000000" r="1"/>
<line x1="238.200000" y1="173.000000" x2="241.200000" y2="174.000000"  transform="rotate(0.000000,241.200000,174.000000)" style="stroke: black; stroke-width:0.25;"/>
<line x1="238.200000" y1="175.000000" x2="241.200000" y2="174.000000"  transform="rotate(0.000000,241.200000,174.000000)" style="stroke: black; stroke-width:0.25;"/>
<line x1="238.200000" y1="181.000000" x2="241.200000" y2="182.000000"  transform="rotate(0.000000,241.200000,182.000000)" style="stroke: black; stroke-width:0.25;"/>
<line x1="238.200000" y1="183.000000" x2="241.200000" y2="182.000000"  transform="rotate(0.000000,241.200000,182.000000)" style="stroke: black; stroke-width:0.25;"/>
<rect x="162.350000" y="235.000000" width="38.700000" height="24.000000" rx="0" ry="0" style="stroke:none;fill:#cccccc;"/>
<rect x="161.350000" y="234.000000" width="38.700000" height="24.000000" rx="0" ry="0" style="stroke:none;fill:#f44800;"/>
<text x="180.700000" y="248.000000" font-family="Arial" font-size="7" text-anchor="middle" fill="#FFFFFF">3.14159</text>
<circle cx="163.350000" cy="236.000000" r="1"/>
<line x1="152.350000" y1="225.000000" x2="152.350000" y2="267.000000"  style="stroke: black; stroke-linecap:round; stroke-width:0.25; stroke-dasharray:3,3;"/>
<line x1="152.350000" y1="267.000000" x2="209.050000" y2="267.000000"  style="stroke: black; stroke-linecap:round; stroke-width:0.25; stroke-dasharray:3,3;"/>
<line x1="209.050000" y1="267.000000" x2="209.050000" y2="225.000000"  style="stroke: black; stroke-linecap:round; stroke-width:0.25; stroke-dasharray:3,3;"/>
<line x1="152.350000" y1="225.000000" x2="157.350000" y2="225.000000"  style="stroke: black; stroke-linecap:round; stroke-width:0.25; stroke-dasharray:3,3;"/>
<line x1="170.250000" y1="225.000000" x2="209.050000" y2="225.000000"  style="stroke: black; stroke-linecap:round; stroke-width:0.25; stroke-dasharray:3,3;"/>
<text x="157.350000" y="227.000000" font-family="Arial" font-size="7">PI</text>
<rect x="282.200000" y="193.000000" width="24.000000" height="24.000000" rx="0" ry="0" style="stroke:none;fill:#cccccc;"/>
<rect x="281.200000" y="192.000000" width="24.000000" height="24.000000" rx="0" ry="0" style="stroke:none;fill:#4B71A1;"/>
<text x="293.200000" y="206.000000" font-family="Arial" font-size="7" text-anchor="middle" fill="#FFFFFF">*</text>
<circle cx="283.200000" cy="194.000000" r="1"/>
<line x1="278.200000" y1="199.000000" x2="281.200000" y2="200.000000"  transform="rotate(0.000000,281.200000,200.000000)" style="stroke: black; stroke-width:0.25;"/>
<line x1="278.200000" y1="201.000000" x2="281.200000" y2="200.000000"  transform="rotate(0.000000,281.200000,200.000000)" style="stroke: black; stroke-width:0.25;"/>
<line x1="278.200000" y1="207.000000" x2="281.200000" y2="208.000000"  transform="rotate(0.000000,281.200000,208.000000)" style="stroke: black; stroke-width:0.25;"/>
<line x1="278.200000" y1="209.000000" x2="281.200000" y2="208.000000"  transform="rotate(0.000000,281.200000,208.000000)" style="stroke: black; stroke-width:0.25;"/>
<rect x="314.200000" y="193.000000" width="24.000000" height="24.000000" rx="0" ry="0" style="stroke:none;fill:#cccccc;"/>
<rect x="313.200000" y="192.000000" width="24.000000" height="24.000000" rx="0" ry="0" style="stroke:none;fill:#4B71A1;"/>
<text x="325.200000" y="206.000000" font-family="Arial" font-size="7" text-anchor="middle" fill="#FFFFFF">cos</text>
<circle cx="315.200000" cy="194.000000" r="1"/>
<line x1="310.200000" y1="203.000000" x2="313.200000" y2="204.000000"  transform="rotate(0.000000,313.200000,204.000000)" style="stroke: black; stroke-width:0.25;"/>
<line x1="310.200000" y1="205.000000" x2="313.200000" y2="204.000000"  transform="rotate(0.000000,313.200000,204.000000)" style="stroke: black; stroke-width:0.25;"/>
<rect x="205.700000" y="277.000000" width="24.000000" height="24.000000" rx="0" ry="0" style="stroke:none;fill:#cccccc;"/>
<rect x="204.700000" y="276.000000" width="24.000000" height="24.000000" rx="0" ry="0" style="stroke:none;fill:#f44800;"/>
<text x="216.700000" y="290.000000" font-family="Arial" font-size="7" text-anchor="middle" fill="#FFFFFF">-1</text>
<circle cx="206.700000" cy="278.000000" r="1"/>
<rect x="354.200000" y="209.000000" width="24.000000" height="24.000000" rx="0" ry="0" style="stroke:none;fill:#cccccc;"/>
<rect x="353.200000" y="208.000000" width="24.000000" height="24.000000" rx="0" ry="0" style="stroke:none;fill:#4B71A1;"/>
<text x="365.200000" y="222.000000" font-family="Arial" font-size="7" text-anchor="middle" fill="#FFFFFF">*</text>
<circle cx="355.200000" cy="210.000000" r="1"/>
<line x1="350.200000" y1="215.000000" x2="353.200000" y2="216.000000"  transform="rotate(0.000000,353.200000,216.000000)" style="stroke: black; stroke-width:0.25;"/>
<line x1="350.200000" y1="217.000000" x2="353.200000" y2="216.000000"  transform="rotate(0.000000,353.200000,216.000000)" style="stroke: black; stroke-width:0.25;"/>
<line x1="350.200000" y1="223.000000" x2="353.200000" y2="224.000000"  transform="rotate(0.000000,353.200000,224.000000)" style="stroke: black; stroke-width:0.25;"/>
<line x1="350.200000" y1="225.000000" x2="353.200000" y2="224.000000"  transform="rotate(0.000000,353.200000,224.000000)" style="stroke: black; stroke-width:0.25;"/>
<rect x="416.600000" y="151.000000" width="24.000000" height="24.000000" rx="0" ry="0" style="stroke:none;fill:#cccccc;"/>
<rect x="415.600000" y="150.000000" width="24.000000" height="24.000000" rx="0" ry="0" style="stroke:none;fill:#4B71A1;"/>
<text x="427.600000" y="164.000000" font-family="Arial" font-size="7" text-anchor="middle" fill="#FFFFFF">*</text>
<circle cx="417.600000" cy="152.000000" r="1"/>
<line x1="412.600000" y1="157.000000" x2="415.600000" y2="158.000000"  transform="rotate(0.000000,415.600000,158.000000)" style="stroke: black; stroke-width:0.25;"/>
<line x1="412.600000" y1="159.000000" x2="415.600000" y2="158.000000"  transform="rotate(0.000000,415.600000,158.000000)" style="stroke: black; stroke-width:0.25;"/>
<line x1="412.600000" y1="165.000000" x2="415.600000" y2="166.000000"  transform="rotate(0.000000,415.600000,166.000000)" style="stroke: black; stroke-width:0.25;"/>
<line x1="412.600000" y1="167.000000" x2="415.600000" y2="166.000000"  transform="rotate(0.000000,415.600000,166.000000)" style="stroke: black; stroke-width:0.25;"/>
<rect x="245.700000" y="319.000000" width="24.000000" height="24.000000" rx="0" ry="0" style="stroke:none;fill:#cccccc;"/>
<rect x="244.700000" y="318.000000" width="24.000000" height="24.000000" rx="0" ry="0" style="stroke:none;fill:#f44800;"/>
<text x="256.700000" y="332.000000" font-family="Arial" font-size="7" text-anchor="middle" fill="#FFFFFF">1</text>
<circle cx="246.700000" cy="320.000000" r="1"/>
<line x1="235.700000" y1="309.000000" x2="235.700000" y2="351.000000"  style="stroke: black; stroke-linecap:round; stroke-width:0.25; stroke-dasharray:3,3;"/>
<line x1="235.700000" y1="351.000000" x2="277.700000" y2="351.000000"  style="stroke: black; stroke-linecap:round; stroke-width:0.25; stroke-dasharray:3,3;"/>
<line x1="277.700000" y1="351.000000" x2="277.700000" y2="309.000000"  style="stroke: black; stroke-linecap:round; stroke-width:0.25; stroke-dasharray:3,3;"/>
<line x1="235.700000" y1="309.000000" x2="240.700000" y2="309.000000"  style="stroke: black; stroke-linecap:round; stroke-width:0.25; stroke-dasharray:3,3;"/>
<line x1="253.600000" y1="309.000000" x2="277.700000" y2="309.000000"  style="stroke: black; stroke-linecap:round; stroke-width:0.25; stroke-dasharray:3,3;"/>
<text x="240.700000" y="311.000000" font-family="Arial" font-size="7">b1</text>
<rect x="456.600000" y="177.000000" width="24.000000" height="24.000000" rx="0" ry="0" style="stroke:none;fill:#cccccc;"/>
<rect x="455.600000" y="176.000000" width="24.000000" height="24.000000" rx="0" ry="0" style="stroke:none;fill:#4B71A1;"/>
<text x="467.600000" y="190.000000" font-family="Arial" font-size="7" text-anchor="middle" fill="#FFFFFF">+</text>
<circle cx="457.600000" cy="178.000000" r="1"/>
<line x1="452.600000" y1="183.000000" x2="455.600000" y2="184.000000"  transform="rotate(0.000000,455.600000,184.000000)" style="stroke: black; stroke-width:0.25;"/>
<line x1="452.600000" y1="185.000000" x2="455.600000" y2="184.000000"  transform="rotate(0.000000,455.600000,184.000000)" style="stroke: black; stroke-width:0.25;"/>
<line x1="452.600000" y1="191.000000" x2="455.600000" y2="192.000000"  transform="rotate(0.000000,455.600000,192.000000)" style="stroke: black; stroke-width:0.25;"/>
<line x1="452.600000" y1="193.000000" x2="455.600000" y2="192.000000"  transform="rotate(0.000000,455.600000,192.000000)" style="stroke: black; stroke-width:0.25;"/>
<rect x="265.700000" y="371.000000" width="24.000000" height="24.000000" rx="0" ry="0" style="stroke:none;fill:#cccccc;"/>
<rect x="264.700000" y="370.000000" width="24.000000" height="24.000000" rx="0" ry="0" style="stroke:none;fill:#f44800;"/>
<text x="276.700000" y="384.000000" font-family="Arial" font-size="7" text-anchor="middle" fill="#FFFFFF">1</text>
<circle cx="266.700000" cy="372.000000" r="1"/>
<line x1="255.700000" y1="361.000000" x2="255.700000" y2="403.000000"  style="stroke: black; stroke-linecap:round; stroke-width:0.25; stroke-dasharray:3,3;"/>
<line x1="255.700000" y1="403.000000" x2="297.700000" y2="403.000000"  style="stroke: black; stroke-linecap:round; stroke-width:0.25; stroke-dasharray:3,3;"/>
<line x1="297.700000" y1="403.000000" x2="297.700000" y2="361.000000"  style="stroke: black; stroke-linecap:round; stroke-width:0.25; stroke-dasharray:3,3;"/>
<line x1="255.700000" y1="361.000000" x2="260.700000" y2="361.000000"  style="stroke: black; stroke-linecap:round; stroke-width:0.25; stroke-dasharray:3,3;"/>
<line x1="273.600000" y1="361.000000" x2="297.700000" y2="361.000000"  style="stroke: black; stroke-linecap:round; stroke-width:0.25; stroke-dasharray:3,3;"/>
<text x="260.700000" y="363.000000" font-family="Arial" font-size="7">b1</text>
<rect x="496.600000" y="203.000000" width="24.000000" height="24.000000" rx="0" ry="0" style="stroke:none;fill:#cccccc;"/>
<rect x="495.600000" y="202.000000" width="24.000000" height="24.000000" rx="0" ry="0" style="stroke:none;fill:#4B71A1;"/>
<text x="507.600000" y="216.000000" font-family="Arial" font-size="7" text-anchor="middle" fill="#FFFFFF">+</text>
<circle cx="497.600000" cy="204.000000" r="1"/>
<line x1="492.600000" y1="209.000000" x2="495.600000" y2="210.000000"  transform="rotate(0.000000,495.600000,210.000000)" style="stroke: black; stroke-width:0.25;"/>
<line x1="492.600000" y1="211.000000" x2="495.600000" y2="210.000000"  transform="rotate(0.000000,495.600000,210.000000)" style="stroke: black; stroke-width:0.25;"/>
<line x1="492.600000" y1="217.000000" x2="495.600000" y2="218.000000"  transform="rotate(0.000000,495.600000,218.000000)" style="stroke: black; stroke-width:0.25;"/>
<line x1="492.600000" y1="219.000000" x2="495.600000" y2="218.000000"  transform="rotate(0.000000,495.600000,218.000000)" style="stroke: black; stroke-width:0.25;"/>
<line x1="15.000000" y1="15.000000" x2="15.000000" y2="413.000000"  style="stroke: black; stroke-linecap:round; stroke-width:0.25; stroke-dasharray:3,3;"/>
<line x1="15.000000" y1="413.000000" x2="536.600000" y2="413.000000"  style="stroke: black; stroke-linecap:round; stroke-width:0.25; stroke-dasharray:3,3;"/>
<line x1="536.600000" y1="413.000000" x2="536.600000" y2="15.000000"  style="stroke: black; stroke-linecap:round; stroke-width:0.25; stroke-dasharray:3,3;"/>
<line x1="15.000000" y1="15.000000" x2="20.000000" y2="15.000000"  style="stroke: black; stroke-linecap:round; stroke-width:0.25; stroke-dasharray:3,3;"/>
<line x1="55.475000" y1="15.000000" x2="536.600000" y2="15.000000"  style="stroke: black; stroke-linecap:round; stroke-width:0.25; stroke-dasharray:3,3;"/>
<text x="20.000000" y="17.000000" font-family="Arial" font-size="7">CZrestrap</text>
<line x1="538.600000" y1="213.000000" x2="541.600000" y2="214.000000"  transform="rotate(0.000000,541.600000,214.000000)" style="stroke: black; stroke-width:0.25;"/>
<line x1="538.600000" y1="215.000000" x2="541.600000" y2="214.000000"  transform="rotate(0.000000,541.600000,214.000000)" style="stroke: black; stroke-width:0.25;"/>
<line x1="10.000000" y1="210.000000" x2="20.000000" y2="210.000000"  style="stroke:black; stroke-linecap:round; stroke-width:0.25;"/>
<line x1="10.000000" y1="218.000000" x2="20.000000" y2="218.000000"  style="stroke:black; stroke-linecap:round; stroke-width:0.25;"/>
<line x1="20.000000" y1="210.000000" x2="24.000000" y2="210.000000"  style="stroke:black; stroke-linecap:round; stroke-width:0.25;"/>
<line x1="20.000000" y1="218.000000" x2="24.000000" y2="218.000000"  style="stroke:black; stroke-linecap:round; stroke-width:0.25;"/>
<line x1="24.000000" y1="210.000000" x2="28.000000" y2="210.000000"  style="stroke:black; stroke-linecap:round; stroke-width:0.25;"/>
<line x1="24.000000" y1="218.000000" x2="28.000000" y2="218.000000"  style="stroke:black; stroke-linecap:round; stroke-width:0.25;"/>
<line x1="28.000000" y1="198.000000" x2="36.000000" y2="198.000000"  style="stroke:black; stroke-linecap:round; stroke-width:0.25;"/>
<line x1="28.000000" y1="210.000000" x2="28.000000" y2="198.000000"  style="stroke:black; stroke-linecap:round; stroke-width:0.25;"/>
<line x1="28.000000" y1="210.000000" x2="28.000000" y2="210.000000"  style="stroke:black; stroke-linecap:round; stroke-width:0.25;"/>
<line x1="28.000000" y1="218.000000" x2="36.000000" y2="218.000000"  style="stroke:black; stroke-linecap:round; stroke-width:0.25;"/>
<line x1="36.000000" y1="198.000000" x2="40.000000" y2="198.000000"  style="stroke:black; stroke-linecap:round; stroke-width:0.25;"/>
<line x1="36.000000" y1="218.000000" x2="36.000000" y2="230.000000"  style="stroke:black; stroke-linecap:round; stroke-width:0.25;"/>
<line x1="36.000000" y1="230.000000" x2="36.000000" y2="230.000000"  style="stroke:black; stroke-linecap:round; stroke-width:0.25;"/>
<line x1="36.000000" y1="230.000000" x2="36.900000" y2="230.000000"  style="stroke:black; stroke-linecap:round; stroke-width:0.25;"/>
<line x1="36.900000" y1="230.000000" x2="40.900000" y2="230.000000"  style="stroke:black; stroke-linecap:round; stroke-width:0.25;"/>
<line x1="107.800000" y1="78.000000" x2="111.800000" y2="78.000000"  style="stroke:black; stroke-linecap:round; stroke-width:0.25;"/>
<line x1="108.700000" y1="120.000000" x2="112.700000" y2="120.000000"  style="stroke:black; stroke-linecap:round; stroke-width:0.25;"/>
<line x1="111.800000" y1="78.000000" x2="121.800000" y2="78.000000"  style="stroke:black; stroke-linecap:round; stroke-width:0.25;"/>
<line x1="112.700000" y1="120.000000" x2="121.800000" y2="120.000000"  style="stroke:black; stroke-linecap:round; stroke-width:0.25;"/>
<line x1="121.800000" y1="78.000000" x2="129.800000" y2="78.000000"  style="stroke:black; stroke-linecap:round; stroke-width:0.25;"/>
<line x1="121.800000" y1="98.000000" x2="129.800000" y2="98.000000"  style="stroke:black; stroke-linecap:round; stroke-width:0.25;"/>
<line x1="121.800000" y1="120.000000" x2="121.800000" y2="98.000000"  style="stroke:black; stroke-linecap:round; stroke-width:0.25;"/>
<line x1="121.800000" y1="120.000000" x2="121.800000" y2="120.000000"  style="stroke:black; stroke-linecap:round; stroke-width:0.25;"/>
<line x1="127.800000" y1="36.000000" x2="131.800000" y2="36.000000"  style="stroke:black; stroke-linecap:round; stroke-width:0.25;"/>
<line x1="129.800000" y1="78.000000" x2="129.800000" y2="90.000000"  style="stroke:black; stroke-linecap:round; stroke-width:0.25;"/>
<line x1="129.800000" y1="90.000000" x2="129.800000" y2="90.000000"  style="stroke:black; stroke-linecap:round; stroke-width:0.25;"/>
<line x1="129.800000" y1="90.000000" x2="133.800000" y2="90.000000"  style="stroke:black; stroke-linecap:round; stroke-width:0.25;"/>
<line x1="129.800000" y1="98.000000" x2="133.800000" y2="98.000000"  style="stroke:black; stroke-linecap:round; stroke-width:0.25;"/>
<line x1="131.800000" y1="36.000000" x2="161.800000" y2="36.000000"  style="stroke:black; stroke-linecap:round; stroke-width:0.25;"/>
<line x1="157.800000" y1="94.000000" x2="161.800000" y2="94.000000"  style="stroke:black; stroke-linecap:round; stroke-width:0.25;"/>
<line x1="161.800000" y1="36.000000" x2="169.800000" y2="36.000000"  style="stroke:black; stroke-linecap:round; stroke-width:0.25;"/>
<line x1="161.800000" y1="82.000000" x2="169.800000" y2="82.000000"  style="stroke:black; stroke-linecap:round; stroke-width:0.25;"/>
<line x1="161.800000" y1="94.000000" x2="161.800000" y2="82.000000"  style="stroke:black; stroke-linecap:round; stroke-width:0.25;"/>
<line x1="161.800000" y1="94.000000" x2="161.800000" y2="94.000000"  style="stroke:black; stroke-linecap:round; stroke-width:0.25;"/>
<line x1="169.800000" y1="36.000000" x2="169.800000" y2="74.000000"  style="stroke:black; stroke-linecap:round; stroke-width:0.25;"/>
<line x1="169.800000" y1="74.000000" x2="169.800000" y2="74.000000"  style="stroke:black; stroke-linecap:round; stroke-width:0.25;"/>
<line x1="169.800000" y1="74.000000" x2="173.800000" y2="74.000000"  style="stroke:black; stroke-linecap:round; stroke-width:0.25;"/>
<line x1="169.800000" y1="82.000000" x2="173.800000" y2="82.000000"  style="stroke:black; stroke-linecap:round; stroke-width:0.25;"/>
<line x1="172.700000" y1="194.000000" x2="176.700000" y2="194.000000"  style="stroke:black; stroke-linecap:round; stroke-width:0.25;"/>
<line x1="176.700000" y1="194.000000" x2="186.700000" y2="194.000000"  style="stroke:black; stroke-linecap:round; stroke-width:0.25;"/>
<line x1="186.700000" y1="194.000000" x2="229.200000" y2="194.000000"  style="stroke:black; stroke-linecap:round; stroke-width:0.25;"/>
<line x1="197.800000" y1="78.000000" x2="201.800000" y2="78.000000"  style="stroke:black; stroke-linecap:round; stroke-width:0.25;"/>
<line x1="200.050000" y1="246.000000" x2="204.050000" y2="246.000000"  style="stroke:black; stroke-linecap:round; stroke-width:0.25;"/>
<line x1="201.800000" y1="78.000000" x2="209.800000" y2="78.000000"  style="stroke:black; stroke-linecap:round; stroke-width:0.25;"/>
<line x1="204.050000" y1="246.000000" x2="214.050000" y2="246.000000"  style="stroke:black; stroke-linecap:round; stroke-width:0.25;"/>
<line x1="209.800000" y1="78.000000" x2="209.800000" y2="94.000000"  style="stroke:black; stroke-linecap:round; stroke-width:0.25;"/>
<line x1="209.800000" y1="94.000000" x2="209.800000" y2="94.000000"  style="stroke:black; stroke-linecap:round; stroke-width:0.25;"/>
<line x1="209.800000" y1="94.000000" x2="226.700000" y2="94.000000"  style="stroke:black; stroke-linecap:round; stroke-width:0.25;"/>
<line x1="214.050000" y1="246.000000" x2="269.200000" y2="246.000000"  style="stroke:black; stroke-linecap:round; stroke-width:0.25;"/>
<line x1="225.200000" y1="152.000000" x2="229.200000" y2="152.000000"  style="stroke:black; stroke-linecap:round; stroke-width:0.25;"/>
<line x1="226.700000" y1="94.000000" x2="243.600000" y2="94.000000"  style="stroke:black; stroke-linecap:round; stroke-width:0.25;"/>
<line x1="228.700000" y1="288.000000" x2="232.700000" y2="288.000000"  style="stroke:black; stroke-linecap:round; stroke-width:0.25;"/>
<line x1="229.200000" y1="152.000000" x2="237.200000" y2="152.000000"  style="stroke:black; stroke-linecap:round; stroke-width:0.25;"/>
<line x1="229.200000" y1="182.000000" x2="237.200000" y2="182.000000"  style="stroke:black; stroke-linecap:round; stroke-width:0.25;"/>
<line x1="229.200000" y1="194.000000" x2="229.200000" y2="182.000000"  style="stroke:black; stroke-linecap:round; stroke-width:0.25;"/>
<line x1="229.200000" y1="194.000000" x2="229.200000" y2="194.000000"  style="stroke:black; stroke-linecap:round; stroke-width:0.25;"/>
<line x1="232.700000" y1="288.000000" x2="341.200000" y2="288.000000"  style="stroke:black; stroke-linecap:round; stroke-width:0.25;"/>
<line x1="237.200000" y1="152.000000" x2="237.200000" y2="174.000000"  style="stroke:black; stroke-linecap:round; stroke-width:0.25;"/>
<line x1="237.200000" y1="174.000000" x2="237.200000" y2="174.000000"  style="stroke:black; stroke-linecap:round; stroke-width:0.25;"/>
<line x1="237.200000" y1="174.000000" x2="241.200000" y2="174.000000"  style="stroke:black; stroke-linecap:round; stroke-width:0.25;"/>
<line x1="237.200000" y1="182.000000" x2="241.200000" y2="182.000000"  style="stroke:black; stroke-linecap:round; stroke-width:0.25;"/>
<line x1="239.600000" y1="74.000000" x2="243.600000" y2="74.000000"  style="stroke:black; stroke-linecap:round; stroke-width:0.25;"/>
<line x1="243.600000" y1="74.000000" x2="251.600000" y2="74.000000"  style="stroke:black; stroke-linecap:round; stroke-width:0.25;"/>
<line x1="243.600000" y1="82.000000" x2="251.600000" y2="82.000000"  style="stroke:black; stroke-linecap:round; stroke-width:0.25;"/>
<line x1="243.600000" y1="94.000000" x2="243.600000" y2="82.000000"  style="stroke:black; stroke-linecap:round; stroke-width:0.25;"/>
<line x1="243.600000" y1="94.000000" x2="243.600000" y2="94.000000"  style="stroke:black; stroke-linecap:round; stroke-width:0.25;"/>
<line x1="251.600000" y1="74.000000" x2="255.600000" y2="74.000000"  style="stroke:black; stroke-linecap:round; stroke-width:0.25;"/>
<line x1="251.600000" y1="82.000000" x2="255.600000" y2="82.000000"  style="stroke:black; stroke-linecap:round; stroke-width:0.25;"/>
<line x1="265.200000" y1="178.000000" x2="269.200000" y2="178.000000"  style="stroke:black; stroke-linecap:round; stroke-width:0.25;"/>
<line x1="268.700000" y1="330.000000" x2="272.700000" y2="330.000000"  style="stroke:black; stroke-linecap:round; stroke-width:0.25;"/>
<line x1="269.200000" y1="178.000000" x2="277.200000" y2="178.000000"  style="stroke:black; stroke-linecap:round; stroke-width:0.25;"/>
<line x1="269.200000" y1="208.000000" x2="277.200000" y2="208.000000"  style="stroke:black; stroke-linecap:round; stroke-width:0.25;"/>
<line x1="269.200000" y1="246.000000" x2="269.200000" y2="208.000000"  style="stroke:black; stroke-linecap:round; stroke-width:0.25;"/>
<line x1="269.200000" y1="246.000000" x2="269.200000" y2="246.000000"  style="stroke:black; stroke-linecap:round; stroke-width:0.25;"/>
<line x1="272.700000" y1="330.000000" x2="282.700000" y2="330.000000"  style="stroke:black; stroke-linecap:round; stroke-width:0.25;"/>
<line x1="277.200000" y1="178.000000" x2="277.200000" y2="200.000000"  style="stroke:black; stroke-linecap:round; stroke-width:0.25;"/>
<line x1="277.200000" y1="200.000000" x2="277.200000" y2="200.000000"  style="stroke:black; stroke-linecap:round; stroke-width:0.25;"/>
<line x1="277.200000" y1="200.000000" x2="281.200000" y2="200.000000"  style="stroke:black; stroke-linecap:round; stroke-width:0.25;"/>
<line x1="277.200000" y1="208.000000" x2="281.200000" y2="208.000000"  style="stroke:black; stroke-linecap:round; stroke-width:0.25;"/>
<line x1="279.600000" y1="78.000000" x2="283.600000" y2="78.000000"  style="stroke:black; stroke-linecap:round; stroke-width:0.25;"/>
<line x1="282.700000" y1="330.000000" x2="443.600000" y2="330.000000"  style="stroke:black; stroke-linecap:round; stroke-width:0.25;"/>
<line x1="283.600000" y1="68.000000" x2="291.600000" y2="68.000000"  style="stroke:black; stroke-linecap:round; stroke-width:0.25;"/>
<line x1="283.600000" y1="78.000000" x2="283.600000" y2="68.000000"  style="stroke:black; stroke-linecap:round; stroke-width:0.25;"/>
<line x1="283.600000" y1="78.000000" x2="283.600000" y2="78.000000"  style="stroke:black; stroke-linecap:round; stroke-width:0.25;"/>
<line x1="288.700000" y1="382.000000" x2="292.700000" y2="382.000000"  style="stroke:black; stroke-linecap:round; stroke-width:0.25;"/>
<line x1="291.600000" y1="68.000000" x2="307.600000" y2="68.000000"  style="stroke:black; stroke-linecap:round; stroke-width:0.25;"/>
<line x1="292.700000" y1="382.000000" x2="302.700000" y2="382.000000"  style="stroke:black; stroke-linecap:round; stroke-width:0.25;"/>
<line x1="302.700000" y1="382.000000" x2="483.600000" y2="382.000000"  style="stroke:black; stroke-linecap:round; stroke-width:0.25;"/>
<line x1="305.200000" y1="204.000000" x2="309.200000" y2="204.000000"  style="stroke:black; stroke-linecap:round; stroke-width:0.25;"/>
<line x1="307.600000" y1="68.000000" x2="323.600000" y2="68.000000"  style="stroke:black; stroke-linecap:round; stroke-width:0.25;"/>
<line x1="309.200000" y1="204.000000" x2="309.200000" y2="204.000000"  style="stroke:black; stroke-linecap:round; stroke-width:0.25;"/>
<line x1="309.200000" y1="204.000000" x2="313.200000" y2="204.000000"  style="stroke:black; stroke-linecap:round; stroke-width:0.25;"/>
<line x1="319.600000" y1="48.000000" x2="323.600000" y2="48.000000"  style="stroke:black; stroke-linecap:round; stroke-width:0.25;"/>
<line x1="323.600000" y1="48.000000" x2="331.600000" y2="48.000000"  style="stroke:black; stroke-linecap:round; stroke-width:0.25;"/>
<line x1="323.600000" y1="56.000000" x2="331.600000" y2="56.000000"  style="stroke:black; stroke-linecap:round; stroke-width:0.25;"/>
<line x1="323.600000" y1="68.000000" x2="323.600000" y2="56.000000"  style="stroke:black; stroke-linecap:round; stroke-width:0.25;"/>
<line x1="323.600000" y1="68.000000" x2="323.600000" y2="68.000000"  style="stroke:black; stroke-linecap:round; stroke-width:0.25;"/>
<line x1="331.600000" y1="48.000000" x2="335.600000" y2="48.000000"  style="stroke:black; stroke-linecap:round; stroke-width:0.25;"/>
<line x1="331.600000" y1="56.000000" x2="335.600000" y2="56.000000"  style="stroke:black; stroke-linecap:round; stroke-width:0.25;"/>
<line x1="337.200000" y1="204.000000" x2="341.200000" y2="204.000000"  style="stroke:black; stroke-linecap:round; stroke-width:0.25;"/>
<line x1="339.600000" y1="98.000000" x2="343.600000" y2="98.000000"  style="stroke:black; stroke-linecap:round; stroke-width:0.25;"/>
<line x1="341.200000" y1="204.000000" x2="349.200000" y2="204.000000"  style="stroke:black; stroke-linecap:round; stroke-width:0.25;"/>
<line x1="341.200000" y1="224.000000" x2="349.200000" y2="224.000000"  style="stroke:black; stroke-linecap:round; stroke-width:0.25;"/>
<line x1="341.200000" y1="288.000000" x2="341.200000" y2="224.000000"  style="stroke:black; stroke-linecap:round; stroke-width:0.25;"/>
<line x1="341.200000" y1="288.000000" x2="341.200000" y2="288.000000"  style="stroke:black; stroke-linecap:round; stroke-width:0.25;"/>
<line x1="343.600000" y1="98.000000" x2="353.600000" y2="98.000000"  style="stroke:black; stroke-linecap:round; stroke-width:0.25;"/>
<line x1="349.200000" y1="204.000000" x2="349.200000" y2="216.000000"  style="stroke:black; stroke-linecap:round; stroke-width:0.25;"/>
<line x1="349.200000" y1="216.000000" x2="349.200000" y2="216.000000"  style="stroke:black; stroke-linecap:round; stroke-width:0.25;"/>
<line x1="349.200000" y1="216.000000" x2="353.200000" y2="216.000000"  style="stroke:black; stroke-linecap:round; stroke-width:0.25;"/>
<line x1="349.200000" y1="224.000000" x2="353.200000" y2="224.000000"  style="stroke:black; stroke-linecap:round; stroke-width:0.25;"/>
<line x1="353.600000" y1="98.000000" x2="363.600000" y2="98.000000"  style="stroke:black; stroke-linecap:round; stroke-width:0.25;"/>
<line x1="359.600000" y1="52.000000" x2="363.600000" y2="52.000000"  style="stroke:black; stroke-linecap:round; stroke-width:0.25;"/>
<line x1="363.600000" y1="52.000000" x2="371.600000" y2="52.000000"  style="stroke:black; stroke-linecap:round; stroke-width:0.25;"/>
<line x1="363.600000" y1="82.000000" x2="371.600000" y2="82.000000"  style="stroke:black; stroke-linecap:round; stroke-width:0.25;"/>
<line x1="363.600000" y1="98.000000" x2="363.600000" y2="82.000000"  style="stroke:black; stroke-linecap:round; stroke-width:0.25;"/>
<line x1="363.600000" y1="98.000000" x2="363.600000" y2="98.000000"  style="stroke:black; stroke-linecap:round; stroke-width:0.25;"/>
<line x1="371.600000" y1="52.000000" x2="371.600000" y2="74.000000"  style="stroke:black; stroke-linecap:round; stroke-width:0.25;"/>
<line x1="371.600000" y1="74.000000" x2="371.600000" y2="74.000000"  style="stroke:black; stroke-linecap:round; stroke-width:0.25;"/>
<line x1="371.600000" y1="74.000000" x2="375.600000" y2="74.000000"  style="stroke:black; stroke-linecap:round; stroke-width:0.25;"/>
<line x1="371.600000" y1="82.000000" x2="375.600000" y2="82.000000"  style="stroke:black; stroke-linecap:round; stroke-width:0.25;"/>
<line x1="377.200000" y1="220.000000" x2="381.200000" y2="220.000000"  style="stroke:black; stroke-linecap:round; stroke-width:0.25;"/>
<line x1="381.200000" y1="220.000000" x2="403.600000" y2="220.000000"  style="stroke:black; stroke-linecap:round; stroke-width:0.25;"/>
<line x1="399.600000" y1="78.000000" x2="403.600000" y2="78.000000"  style="stroke:black; stroke-linecap:round; stroke-width:0.25;"/>
<line x1="403.600000" y1="78.000000" x2="411.600000" y2="78.000000"  style="stroke:black; stroke-linecap:round; stroke-width:0.25;"/>
<line x1="403.600000" y1="166.000000" x2="411.600000" y2="166.000000"  style="stroke:black; stroke-linecap:round; stroke-width:0.25;"/>
<line x1="403.600000" y1="220.000000" x2="403.600000" y2="166.000000"  style="stroke:black; stroke-linecap:round; stroke-width:0.25;"/>
<line x1="403.600000" y1="220.000000" x2="403.600000" y2="220.000000"  style="stroke:black; stroke-linecap:round; stroke-width:0.25;"/>
<line x1="411.600000" y1="78.000000" x2="411.600000" y2="158.000000"  style="stroke:black; stroke-linecap:round; stroke-width:0.25;"/>
<line x1="411.600000" y1="158.000000" x2="411.600000" y2="158.000000"  style="stroke:black; stroke-linecap:round; stroke-width:0.25;"/>
<line x1="411.600000" y1="158.000000" x2="415.600000" y2="158.000000"  style="stroke:black; stroke-linecap:round; stroke-width:0.25;"/>
<line x1="411.600000" y1="166.000000" x2="415.600000" y2="166.000000"  style="stroke:black; stroke-linecap:round; stroke-width:0.25;"/>
<line x1="439.600000" y1="162.000000" x2="443.600000" y2="162.000000"  style="stroke:black; stroke-linecap:round; stroke-width:0.25;"/>
<line x1="443.600000" y1="162.000000" x2="451.600000" y2="162.000000"  style="stroke:black; stroke-linecap:round; stroke-width:0.25;"/>
<line x1="443.600000" y1="192.000000" x2="451.600000" y2="192.000000"  style="stroke:black; stroke-linecap:round; stroke-width:0.25;"/>
<line x1="443.600000" y1="330.000000" x2="443.600000" y2="192.000000"  style="stroke:black; stroke-linecap:round; stroke-width:0.25;"/>
<line x1="443.600000" y1="330.000000" x2="443.600000" y2="330.000000"  style="stroke:black; stroke-linecap:round; stroke-width:0.25;"/>
<line x1="451.600000" y1="162.000000" x2="451.600000" y2="184.000000"  style="stroke:black; stroke-linecap:round; stroke-width:0.25;"/>
<line x1="451.600000" y1="184.000000" x2="451.600000" y2="184.000000"  style="stroke:black; stroke-linecap:round; stroke-width:0.25;"/>
<line x1="451.600000" y1="184.000000" x2="455.600000" y2="184.000000"  style="stroke:black; stroke-linecap:round; stroke-width:0.25;"/>
<line x1="451.600000" y1="192.000000" x2="455.600000" y2="192.000000"  style="stroke:black; stroke-linecap:round; stroke-width:0.25;"/>
<line x1="479.600000" y1="188.000000" x2="483.600000" y2="188.000000"  style="stroke:black; stroke-linecap:round; stroke-width:0.25;"/>
<line x1="483.600000" y1="188.000000" x2="491.600000" y2="188.000000"  style="stroke:black; stroke-linecap:round; stroke-width:0.25;"/>
<line x1="483.600000" y1="218.000000" x2="491.600000" y2="218.000000"  style="stroke:black; stroke-linecap:round; stroke-width:0.25;"/>
<line x1="483.600000" y1="382.000000" x2="483.600000" y2="218.000000"  style="stroke:black; stroke-linecap:round; stroke-width:0.25;"/>
<line x1="483.600000" y1="382.000000" x2="483.600000" y2="382.000000"  style="stroke:black; stroke-linecap:round; stroke-width:0.25;"/>
<line x1="491.600000" y1="188.000000" x2="491.600000" y2="210.000000"  style="stroke:black; stroke-linecap:round; stroke-width:0.25;"/>
<line x1="491.600000" y1="210.000000" x2="491.600000" y2="210.000000"  style="stroke:black; stroke-linecap:round; stroke-width:0.25;"/>
<line x1="491.600000" y1="210.000000" x2="495.600000" y2="210.000000"  style="stroke:black; stroke-linecap:round; stroke-width:0.25;"/>
<line x1="491.600000" y1="218.000000" x2="495.600000" y2="218.000000"  style="stroke:black; stroke-linecap:round; stroke-width:0.25;"/>
<line x1="519.600000" y1="214.000000" x2="523.600000" y2="214.000000"  style="stroke:black; stroke-linecap:round; stroke-width:0.25;"/>
<line x1="523.600000" y1="214.000000" x2="523.600000" y2="214.000000"  style="stroke:black; stroke-linecap:round; stroke-width:0.25;"/>
<line x1="523.600000" y1="214.000000" x2="527.600000" y2="214.000000"  style="stroke:black; stroke-linecap:round; stroke-width:0.25;"/>
<line x1="527.600000" y1="214.000000" x2="531.600000" y2="214.000000"  style="stroke:black; stroke-linecap:round; stroke-width:0.25;"/>
<line x1="531.600000" y1="214.000000" x2="541.600000" y2="214.000000"  style="stroke:black; stroke-linecap:round; stroke-width:0.25;"/>
</svg>
