<?xml version="1.0"?>
<svg xmlns="http://www.w3.org/2000/svg" xmlns:xlink="http://www.w3.org/1999/xlink" viewBox="0 0 200.500000 256.000000" width="100.250000mm" height="128.000000mm" version="1.1">
<a xlink:href="freqs-0x23b62150.svg">
<rect x="1.000000" y="1.000000" width="199.500000" height="255.000000" rx="0" ry="0" style="stroke:none;fill:#cccccc;"/>
<rect x="0.000000" y="0.000000" width="199.500000" height="255.000000" rx="0" ry="0" style="stroke:none;fill:#ffffff;"/>
</a>
<text x="10.000000" y="7.000000" font-family="Arial" font-size="7"></text>
<a xlink:href="phaseNoiseFreqs-0x23b19270.svg">
<rect x="65.000000" y="65.000000" width="64.500000" height="128.000000" rx="0" ry="0" style="stroke:none;fill:#cccccc;"/>
<rect x="64.000000" y="64.000000" width="64.500000" height="128.000000" rx="0" ry="0" style="stroke:none;fill:#003366;"/>
</a>
<a xlink:href="phaseNoiseFreqs-0x23b19270.svg">
<text x="96.250000" y="130.000000" font-family="Arial" font-size="7" text-anchor="middle" fill="#FFFFFF">phaseNoiseFreqs</text>
</a>
<circle cx="66.000000" cy="66.000000" r="1"/>
<line x1="55.000000" y1="55.000000" x2="55.000000" y2="201.000000"  style="stroke: black; stroke-linecap:round; stroke-width:0.25; stroke-dasharray:3,3;"/>
<line x1="55.000000" y1="201.000000" x2="137.500000" y2="201.000000"  style="stroke: black; stroke-linecap:round; stroke-width:0.25; stroke-dasharray:3,3;"/>
<line x1="137.500000" y1="201.000000" x2="137.500000" y2="55.000000"  style="stroke: black; stroke-linecap:round; stroke-width:0.25; stroke-dasharray:3,3;"/>
<line x1="55.000000" y1="55.000000" x2="60.000000" y2="55.000000"  style="stroke: black; stroke-linecap:round; stroke-width:0.25; stroke-dasharray:3,3;"/>
<line x1="121.275000" y1="55.000000" x2="137.500000" y2="55.000000"  style="stroke: black; stroke-linecap:round; stroke-width:0.25; stroke-dasharray:3,3;"/>
<text x="60.000000" y="57.000000" font-family="Arial" font-size="7">hgroup(CZvocoder)</text>
<line x1="45.000000" y1="45.000000" x2="45.000000" y2="211.000000"  style="stroke: black; stroke-linecap:round; stroke-width:0.25; stroke-dasharray:3,3;"/>
<line x1="45.000000" y1="211.000000" x2="147.500000" y2="211.000000"  style="stroke: black; stroke-linecap:round; stroke-width:0.25; stroke-dasharray:3,3;"/>
<line x1="147.500000" y1="211.000000" x2="147.500000" y2="45.000000"  style="stroke: black; stroke-linecap:round; stroke-width:0.25; stroke-dasharray:3,3;"/>
<line x1="45.000000" y1="45.000000" x2="50.000000" y2="45.000000"  style="stroke: black; stroke-linecap:round; stroke-width:0.25; stroke-dasharray:3,3;"/>
<line x1="101.600000" y1="45.000000" x2="147.500000" y2="45.000000"  style="stroke: black; stroke-linecap:round; stroke-width:0.25; stroke-dasharray:3,3;"/>
<text x="50.000000" y="47.000000" font-family="Arial" font-size="7">hgroup(synths)</text>
<line x1="35.000000" y1="35.000000" x2="35.000000" y2="221.000000"  style="stroke: black; stroke-linecap:round; stroke-width:0.25; stroke-dasharray:3,3;"/>
<line x1="35.000000" y1="221.000000" x2="157.500000" y2="221.000000"  style="stroke: black; stroke-linecap:round; stroke-width:0.25; stroke-dasharray:3,3;"/>
<line x1="157.500000" y1="221.000000" x2="157.500000" y2="35.000000"  style="stroke: black; stroke-linecap:round; stroke-width:0.25; stroke-dasharray:3,3;"/>
<line x1="35.000000" y1="35.000000" x2="40.000000" y2="35.000000"  style="stroke: black; stroke-linecap:round; stroke-width:0.25; stroke-dasharray:3,3;"/>
<line x1="72.250000" y1="35.000000" x2="157.500000" y2="35.000000"  style="stroke: black; stroke-linecap:round; stroke-width:0.25; stroke-dasharray:3,3;"/>
<text x="40.000000" y="37.000000" font-family="Arial" font-size="7">tgroup()</text>
<line x1="25.000000" y1="25.000000" x2="25.000000" y2="231.000000"  style="stroke: black; stroke-linecap:round; stroke-width:0.25; stroke-dasharray:3,3;"/>
<line x1="25.000000" y1="231.000000" x2="167.500000" y2="231.000000"  style="stroke: black; stroke-linecap:round; stroke-width:0.25; stroke-dasharray:3,3;"/>
<line x1="167.500000" y1="231.000000" x2="167.500000" y2="25.000000"  style="stroke: black; stroke-linecap:round; stroke-width:0.25; stroke-dasharray:3,3;"/>
<line x1="25.000000" y1="25.000000" x2="30.000000" y2="25.000000"  style="stroke: black; stroke-linecap:round; stroke-width:0.25; stroke-dasharray:3,3;"/>
<line x1="100.950000" y1="25.000000" x2="167.500000" y2="25.000000"  style="stroke: black; stroke-linecap:round; stroke-width:0.25; stroke-dasharray:3,3;"/>
<text x="30.000000" y="27.000000" font-family="Arial" font-size="7">vgroup(VoiceOfFaust)</text>
<line x1="15.000000" y1="15.000000" x2="15.000000" y2="241.000000"  style="stroke: black; stroke-linecap:round; stroke-width:0.25; stroke-dasharray:3,3;"/>
<line x1="15.000000" y1="241.000000" x2="185.500000" y2="241.000000"  style="stroke: black; stroke-linecap:round; stroke-width:0.25; stroke-dasharray:3,3;"/>
<line x1="185.500000" y1="241.000000" x2="185.500000" y2="15.000000"  style="stroke: black; stroke-linecap:round; stroke-width:0.25; stroke-dasharray:3,3;"/>
<line x1="15.000000" y1="15.000000" x2="20.000000" y2="15.000000"  style="stroke: black; stroke-linecap:round; stroke-width:0.25; stroke-dasharray:3,3;"/>
<line x1="119.975000" y1="15.000000" x2="185.500000" y2="15.000000"  style="stroke: black; stroke-linecap:round; stroke-width:0.25; stroke-dasharray:3,3;"/>
<text x="20.000000" y="17.000000" font-family="Arial" font-size="7">czVocoderGrou..., lenv = {}])</text>
<line x1="187.500000" y1="67.000000" x2="190.500000" y2="68.000000"  transform="rotate(0.000000,190.500000,68.000000)" style="stroke: black; stroke-width:0.25;"/>
<line x1="187.500000" y1="69.000000" x2="190.500000" y2="68.000000"  transform="rotate(0.000000,190.500000,68.000000)" style="stroke: black; stroke-width:0.25;"/>
<line x1="187.500000" y1="75.000000" x2="190.500000" y2="76.000000"  transform="rotate(0.000000,190.500000,76.000000)" style="stroke: black; stroke-width:0.25;"/>
<line x1="187.500000" y1="77.000000" x2="190.500000" y2="76.000000"  transform="rotate(0.000000,190.500000,76.000000)" style="stroke: black; stroke-width:0.25;"/>
<line x1="187.500000" y1="83.000000" x2="190.500000" y2="84.000000"  transform="rotate(0.000000,190.500000,84.000000)" style="stroke: black; stroke-width:0.25;"/>
<line x1="187.500000" y1="85.000000" x2="190.500000" y2="84.000000"  transform="rotate(0.000000,190.500000,84.000000)" style="stroke: black; stroke-width:0.25;"/>
<line x1="187.500000" y1="91.000000" x2="190.500000" y2="92.000000"  transform="rotate(0.000000,190.500000,92.000000)" style="stroke: black; stroke-width:0.25;"/>
<line x1="187.500000" y1="93.000000" x2="190.500000" y2="92.000000"  transform="rotate(0.000000,190.500000,92.000000)" style="stroke: black; stroke-width:0.25;"/>
<line x1="187.500000" y1="99.000000" x2="190.500000" y2="100.000000"  transform="rotate(0.000000,190.500000,100.000000)" style="stroke: black; stroke-width:0.25;"/>
<line x1="187.500000" y1="101.000000" x2="190.500000" y2="100.000000"  transform="rotate(0.000000,190.500000,100.000000)" style="stroke: black; stroke-width:0.25;"/>
<line x1="187.500000" y1="107.000000" x2="190.500000" y2="108.000000"  transform="rotate(0.000000,190.500000,108.000000)" style="stroke: black; stroke-width:0.25;"/>
<line x1="187.500000" y1="109.000000" x2="190.500000" y2="108.000000"  transform="rotate(0.000000,190.500000,108.000000)" style="stroke: black; stroke-width:0.25;"/>
<line x1="187.500000" y1="115.000000" x2="190.500000" y2="116.000000"  transform="rotate(0.000000,190.500000,116.000000)" style="stroke: black; stroke-width:0.25;"/>
<line x1="187.500000" y1="117.000000" x2="190.500000" y2="116.000000"  transform="rotate(0.000000,190.500000,116.000000)" style="stroke: black; stroke-width:0.25;"/>
<line x1="187.500000" y1="123.000000" x2="190.500000" y2="124.000000"  transform="rotate(0.000000,190.500000,124.000000)" style="stroke: black; stroke-width:0.25;"/>
<line x1="187.500000" y1="125.000000" x2="190.500000" y2="124.000000"  transform="rotate(0.000000,190.500000,124.000000)" style="stroke: black; stroke-width:0.25;"/>
<line x1="187.500000" y1="131.000000" x2="190.500000" y2="132.000000"  transform="rotate(0.000000,190.500000,132.000000)" style="stroke: black; stroke-width:0.25;"/>
<line x1="187.500000" y1="133.000000" x2="190.500000" y2="132.000000"  transform="rotate(0.000000,190.500000,132.000000)" style="stroke: black; stroke-width:0.25;"/>
<line x1="187.500000" y1="139.000000" x2="190.500000" y2="140.000000"  transform="rotate(0.000000,190.500000,140.000000)" style="stroke: black; stroke-width:0.25;"/>
<line x1="187.500000" y1="141.000000" x2="190.500000" y2="140.000000"  transform="rotate(0.000000,190.500000,140.000000)" style="stroke: black; stroke-width:0.25;"/>
<line x1="187.500000" y1="147.000000" x2="190.500000" y2="148.000000"  transform="rotate(0.000000,190.500000,148.000000)" style="stroke: black; stroke-width:0.25;"/>
<line x1="187.500000" y1="149.000000" x2="190.500000" y2="148.000000"  transform="rotate(0.000000,190.500000,148.000000)" style="stroke: black; stroke-width:0.25;"/>
<line x1="187.500000" y1="155.000000" x2="190.500000" y2="156.000000"  transform="rotate(0.000000,190.500000,156.000000)" style="stroke: black; stroke-width:0.25;"/>
<line x1="187.500000" y1="157.000000" x2="190.500000" y2="156.000000"  transform="rotate(0.000000,190.500000,156.000000)" style="stroke: black; stroke-width:0.25;"/>
<line x1="187.500000" y1="163.000000" x2="190.500000" y2="164.000000"  transform="rotate(0.000000,190.500000,164.000000)" style="stroke: black; stroke-width:0.25;"/>
<line x1="187.500000" y1="165.000000" x2="190.500000" y2="164.000000"  transform="rotate(0.000000,190.500000,164.000000)" style="stroke: black; stroke-width:0.25;"/>
<line x1="187.500000" y1="171.000000" x2="190.500000" y2="172.000000"  transform="rotate(0.000000,190.500000,172.000000)" style="stroke: black; stroke-width:0.25;"/>
<line x1="187.500000" y1="173.000000" x2="190.500000" y2="172.000000"  transform="rotate(0.000000,190.500000,172.000000)" style="stroke: black; stroke-width:0.25;"/>
<line x1="187.500000" y1="179.000000" x2="190.500000" y2="180.000000"  transform="rotate(0.000000,190.500000,180.000000)" style="stroke: black; stroke-width:0.25;"/>
<line x1="187.500000" y1="181.000000" x2="190.500000" y2="180.000000"  transform="rotate(0.000000,190.500000,180.000000)" style="stroke: black; stroke-width:0.25;"/>
<line x1="187.500000" y1="187.000000" x2="190.500000" y2="188.000000"  transform="rotate(0.000000,190.500000,188.000000)" style="stroke: black; stroke-width:0.25;"/>
<line x1="187.500000" y1="189.000000" x2="190.500000" y2="188.000000"  transform="rotate(0.000000,190.500000,188.000000)" style="stroke: black; stroke-width:0.25;"/>
<line x1="128.500000" y1="68.000000" x2="132.500000" y2="68.000000"  style="stroke:black; stroke-linecap:round; stroke-width:0.25;"/>
<line x1="128.500000" y1="76.000000" x2="132.500000" y2="76.000000"  style="stroke:black; stroke-linecap:round; stroke-width:0.25;"/>
<line x1="128.500000" y1="84.000000" x2="132.500000" y2="84.000000"  style="stroke:black; stroke-linecap:round; stroke-width:0.25;"/>
<line x1="128.500000" y1="92.000000" x2="132.500000" y2="92.000000"  style="stroke:black; stroke-linecap:round; stroke-width:0.25;"/>
<line x1="128.500000" y1="100.000000" x2="132.500000" y2="100.000000"  style="stroke:black; stroke-linecap:round; stroke-width:0.25;"/>
<line x1="128.500000" y1="108.000000" x2="132.500000" y2="108.000000"  style="stroke:black; stroke-linecap:round; stroke-width:0.25;"/>
<line x1="128.500000" y1="116.000000" x2="132.500000" y2="116.000000"  style="stroke:black; stroke-linecap:round; stroke-width:0.25;"/>
<line x1="128.500000" y1="124.000000" x2="132.500000" y2="124.000000"  style="stroke:black; stroke-linecap:round; stroke-width:0.25;"/>
<line x1="128.500000" y1="132.000000" x2="132.500000" y2="132.000000"  style="stroke:black; stroke-linecap:round; stroke-width:0.25;"/>
<line x1="128.500000" y1="140.000000" x2="132.500000" y2="140.000000"  style="stroke:black; stroke-linecap:round; stroke-width:0.25;"/>
<line x1="128.500000" y1="148.000000" x2="132.500000" y2="148.000000"  style="stroke:black; stroke-linecap:round; stroke-width:0.25;"/>
<line x1="128.500000" y1="156.000000" x2="132.500000" y2="156.000000"  style="stroke:black; stroke-linecap:round; stroke-width:0.25;"/>
<line x1="128.500000" y1="164.000000" x2="132.500000" y2="164.000000"  style="stroke:black; stroke-linecap:round; stroke-width:0.25;"/>
<line x1="128.500000" y1="172.000000" x2="132.500000" y2="172.000000"  style="stroke:black; stroke-linecap:round; stroke-width:0.25;"/>
<line x1="128.500000" y1="180.000000" x2="132.500000" y2="180.000000"  style="stroke:black; stroke-linecap:round; stroke-width:0.25;"/>
<line x1="128.500000" y1="188.000000" x2="132.500000" y2="188.000000"  style="stroke:black; stroke-linecap:round; stroke-width:0.25;"/>
<line x1="132.500000" y1="68.000000" x2="142.500000" y2="68.000000"  style="stroke:black; stroke-linecap:round; stroke-width:0.25;"/>
<line x1="132.500000" y1="76.000000" x2="142.500000" y2="76.000000"  style="stroke:black; stroke-linecap:round; stroke-width:0.25;"/>
<line x1="132.500000" y1="84.000000" x2="142.500000" y2="84.000000"  style="stroke:black; stroke-linecap:round; stroke-width:0.25;"/>
<line x1="132.500000" y1="92.000000" x2="142.500000" y2="92.000000"  style="stroke:black; stroke-linecap:round; stroke-width:0.25;"/>
<line x1="132.500000" y1="100.000000" x2="142.500000" y2="100.000000"  style="stroke:black; stroke-linecap:round; stroke-width:0.25;"/>
<line x1="132.500000" y1="108.000000" x2="142.500000" y2="108.000000"  style="stroke:black; stroke-linecap:round; stroke-width:0.25;"/>
<line x1="132.500000" y1="116.000000" x2="142.500000" y2="116.000000"  style="stroke:black; stroke-linecap:round; stroke-width:0.25;"/>
<line x1="132.500000" y1="124.000000" x2="142.500000" y2="124.000000"  style="stroke:black; stroke-linecap:round; stroke-width:0.25;"/>
<line x1="132.500000" y1="132.000000" x2="142.500000" y2="132.000000"  style="stroke:black; stroke-linecap:round; stroke-width:0.25;"/>
<line x1="132.500000" y1="140.000000" x2="142.500000" y2="140.000000"  style="stroke:black; stroke-linecap:round; stroke-width:0.25;"/>
<line x1="132.500000" y1="148.000000" x2="142.500000" y2="148.000000"  style="stroke:black; stroke-linecap:round; stroke-width:0.25;"/>
<line x1="132.500000" y1="156.000000" x2="142.500000" y2="156.000000"  style="stroke:black; stroke-linecap:round; stroke-width:0.25;"/>
<line x1="132.500000" y1="164.000000" x2="142.500000" y2="164.000000"  style="stroke:black; stroke-linecap:round; stroke-width:0.25;"/>
<line x1="132.500000" y1="172.000000" x2="142.500000" y2="172.000000"  style="stroke:black; stroke-linecap:round; stroke-width:0.25;"/>
<line x1="132.500000" y1="180.000000" x2="142.500000" y2="180.000000"  style="stroke:black; stroke-linecap:round; stroke-width:0.25;"/>
<line x1="132.500000" y1="188.000000" x2="142.500000" y2="188.000000"  style="stroke:black; stroke-linecap:round; stroke-width:0.25;"/>
<line x1="142.500000" y1="68.000000" x2="152.500000" y2="68.000000"  style="stroke:black; stroke-linecap:round; stroke-width:0.25;"/>
<line x1="142.500000" y1="76.000000" x2="152.500000" y2="76.000000"  style="stroke:black; stroke-linecap:round; stroke-width:0.25;"/>
<line x1="142.500000" y1="84.000000" x2="152.500000" y2="84.000000"  style="stroke:black; stroke-linecap:round; stroke-width:0.25;"/>
<line x1="142.500000" y1="92.000000" x2="152.500000" y2="92.000000"  style="stroke:black; stroke-linecap:round; stroke-width:0.25;"/>
<line x1="142.500000" y1="100.000000" x2="152.500000" y2="100.000000"  style="stroke:black; stroke-linecap:round; stroke-width:0.25;"/>
<line x1="142.500000" y1="108.000000" x2="152.500000" y2="108.000000"  style="stroke:black; stroke-linecap:round; stroke-width:0.25;"/>
<line x1="142.500000" y1="116.000000" x2="152.500000" y2="116.000000"  style="stroke:black; stroke-linecap:round; stroke-width:0.25;"/>
<line x1="142.500000" y1="124.000000" x2="152.500000" y2="124.000000"  style="stroke:black; stroke-linecap:round; stroke-width:0.25;"/>
<line x1="142.500000" y1="132.000000" x2="152.500000" y2="132.000000"  style="stroke:black; stroke-linecap:round; stroke-width:0.25;"/>
<line x1="142.500000" y1="140.000000" x2="152.500000" y2="140.000000"  style="stroke:black; stroke-linecap:round; stroke-width:0.25;"/>
<line x1="142.500000" y1="148.000000" x2="152.500000" y2="148.000000"  style="stroke:black; stroke-linecap:round; stroke-width:0.25;"/>
<line x1="142.500000" y1="156.000000" x2="152.500000" y2="156.000000"  style="stroke:black; stroke-linecap:round; stroke-width:0.25;"/>
<line x1="142.500000" y1="164.000000" x2="152.500000" y2="164.000000"  style="stroke:black; stroke-linecap:round; stroke-width:0.25;"/>
<line x1="142.500000" y1="172.000000" x2="152.500000" y2="172.000000"  style="stroke:black; stroke-linecap:round; stroke-width:0.25;"/>
<line x1="142.500000" y1="180.000000" x2="152.500000" y2="180.000000"  style="stroke:black; stroke-linecap:round; stroke-width:0.25;"/>
<line x1="142.500000" y1="188.000000" x2="152.500000" y2="188.000000"  style="stroke:black; stroke-linecap:round; stroke-width:0.25;"/>
<line x1="152.500000" y1="68.000000" x2="162.500000" y2="68.000000"  style="stroke:black; stroke-linecap:round; stroke-width:0.25;"/>
<line x1="152.500000" y1="76.000000" x2="162.500000" y2="76.000000"  style="stroke:black; stroke-linecap:round; stroke-width:0.25;"/>
<line x1="152.500000" y1="84.000000" x2="162.500000" y2="84.000000"  style="stroke:black; stroke-linecap:round; stroke-width:0.25;"/>
<line x1="152.500000" y1="92.000000" x2="162.500000" y2="92.000000"  style="stroke:black; stroke-linecap:round; stroke-width:0.25;"/>
<line x1="152.500000" y1="100.000000" x2="162.500000" y2="100.000000"  style="stroke:black; stroke-linecap:round; stroke-width:0.25;"/>
<line x1="152.500000" y1="108.000000" x2="162.500000" y2="108.000000"  style="stroke:black; stroke-linecap:round; stroke-width:0.25;"/>
<line x1="152.500000" y1="116.000000" x2="162.500000" y2="116.000000"  style="stroke:black; stroke-linecap:round; stroke-width:0.25;"/>
<line x1="152.500000" y1="124.000000" x2="162.500000" y2="124.000000"  style="stroke:black; stroke-linecap:round; stroke-width:0.25;"/>
<line x1="152.500000" y1="132.000000" x2="162.500000" y2="132.000000"  style="stroke:black; stroke-linecap:round; stroke-width:0.25;"/>
<line x1="152.500000" y1="140.000000" x2="162.500000" y2="140.000000"  style="stroke:black; stroke-linecap:round; stroke-width:0.25;"/>
<line x1="152.500000" y1="148.000000" x2="162.500000" y2="148.000000"  style="stroke:black; stroke-linecap:round; stroke-width:0.25;"/>
<line x1="152.500000" y1="156.000000" x2="162.500000" y2="156.000000"  style="stroke:black; stroke-linecap:round; stroke-width:0.25;"/>
<line x1="152.500000" y1="164.000000" x2="162.500000" y2="164.000000"  style="stroke:black; stroke-linecap:round; stroke-width:0.25;"/>
<line x1="152.500000" y1="172.000000" x2="162.500000" y2="172.000000"  style="stroke:black; stroke-linecap:round; stroke-width:0.25;"/>
<line x1="152.500000" y1="180.000000" x2="162.500000" y2="180.000000"  style="stroke:black; stroke-linecap:round; stroke-width:0.25;"/>
<line x1="152.500000" y1="188.000000" x2="162.500000" y2="188.000000"  style="stroke:black; stroke-linecap:round; stroke-width:0.25;"/>
<line x1="162.500000" y1="68.000000" x2="172.500000" y2="68.000000"  style="stroke:black; stroke-linecap:round; stroke-width:0.25;"/>
<line x1="162.500000" y1="76.000000" x2="172.500000" y2="76.000000"  style="stroke:black; stroke-linecap:round; stroke-width:0.25;"/>
<line x1="162.500000" y1="84.000000" x2="172.500000" y2="84.000000"  style="stroke:black; stroke-linecap:round; stroke-width:0.25;"/>
<line x1="162.500000" y1="92.000000" x2="172.500000" y2="92.000000"  style="stroke:black; stroke-linecap:round; stroke-width:0.25;"/>
<line x1="162.500000" y1="100.000000" x2="172.500000" y2="100.000000"  style="stroke:black; stroke-linecap:round; stroke-width:0.25;"/>
<line x1="162.500000" y1="108.000000" x2="172.500000" y2="108.000000"  style="stroke:black; stroke-linecap:round; stroke-width:0.25;"/>
<line x1="162.500000" y1="116.000000" x2="172.500000" y2="116.000000"  style="stroke:black; stroke-linecap:round; stroke-width:0.25;"/>
<line x1="162.500000" y1="124.000000" x2="172.500000" y2="124.000000"  style="stroke:black; stroke-linecap:round; stroke-width:0.25;"/>
<line x1="162.500000" y1="132.000000" x2="172.500000" y2="132.000000"  style="stroke:black; stroke-linecap:round; stroke-width:0.25;"/>
<line x1="162.500000" y1="140.000000" x2="172.500000" y2="140.000000"  style="stroke:black; stroke-linecap:round; stroke-width:0.25;"/>
<line x1="162.500000" y1="148.000000" x2="172.500000" y2="148.000000"  style="stroke:black; stroke-linecap:round; stroke-width:0.25;"/>
<line x1="162.500000" y1="156.000000" x2="172.500000" y2="156.000000"  style="stroke:black; stroke-linecap:round; stroke-width:0.25;"/>
<line x1="162.500000" y1="164.000000" x2="172.500000" y2="164.000000"  style="stroke:black; stroke-linecap:round; stroke-width:0.25;"/>
<line x1="162.500000" y1="172.000000" x2="172.500000" y2="172.000000"  style="stroke:black; stroke-linecap:round; stroke-width:0.25;"/>
<line x1="162.500000" y1="180.000000" x2="172.500000" y2="180.000000"  style="stroke:black; stroke-linecap:round; stroke-width:0.25;"/>
<line x1="162.500000" y1="188.000000" x2="172.500000" y2="188.000000"  style="stroke:black; stroke-linecap:round; stroke-width:0.25;"/>
<line x1="172.500000" y1="68.000000" x2="172.500000" y2="68.000000"  style="stroke:black; stroke-linecap:round; stroke-width:0.25;"/>
<line x1="172.500000" y1="68.000000" x2="176.500000" y2="68.000000"  style="stroke:black; stroke-linecap:round; stroke-width:0.25;"/>
<line x1="172.500000" y1="76.000000" x2="172.500000" y2="76.000000"  style="stroke:black; stroke-linecap:round; stroke-width:0.25;"/>
<line x1="172.500000" y1="76.000000" x2="176.500000" y2="76.000000"  style="stroke:black; stroke-linecap:round; stroke-width:0.25;"/>
<line x1="172.500000" y1="84.000000" x2="172.500000" y2="84.000000"  style="stroke:black; stroke-linecap:round; stroke-width:0.25;"/>
<line x1="172.500000" y1="84.000000" x2="176.500000" y2="84.000000"  style="stroke:black; stroke-linecap:round; stroke-width:0.25;"/>
<line x1="172.500000" y1="92.000000" x2="172.500000" y2="92.000000"  style="stroke:black; stroke-linecap:round; stroke-width:0.25;"/>
<line x1="172.500000" y1="92.000000" x2="176.500000" y2="92.000000"  style="stroke:black; stroke-linecap:round; stroke-width:0.25;"/>
<line x1="172.500000" y1="100.000000" x2="172.500000" y2="100.000000"  style="stroke:black; stroke-linecap:round; stroke-width:0.25;"/>
<line x1="172.500000" y1="100.000000" x2="176.500000" y2="100.000000"  style="stroke:black; stroke-linecap:round; stroke-width:0.25;"/>
<line x1="172.500000" y1="108.000000" x2="172.500000" y2="108.000000"  style="stroke:black; stroke-linecap:round; stroke-width:0.25;"/>
<line x1="172.500000" y1="108.000000" x2="176.500000" y2="108.000000"  style="stroke:black; stroke-linecap:round; stroke-width:0.25;"/>
<line x1="172.500000" y1="116.000000" x2="172.500000" y2="116.000000"  style="stroke:black; stroke-linecap:round; stroke-width:0.25;"/>
<line x1="172.500000" y1="116.000000" x2="176.500000" y2="116.000000"  style="stroke:black; stroke-linecap:round; stroke-width:0.25;"/>
<line x1="172.500000" y1="124.000000" x2="172.500000" y2="124.000000"  style="stroke:black; stroke-linecap:round; stroke-width:0.25;"/>
<line x1="172.500000" y1="124.000000" x2="176.500000" y2="124.000000"  style="stroke:black; stroke-linecap:round; stroke-width:0.25;"/>
<line x1="172.500000" y1="132.000000" x2="172.500000" y2="132.000000"  style="stroke:black; stroke-linecap:round; stroke-width:0.25;"/>
<line x1="172.500000" y1="132.000000" x2="176.500000" y2="132.000000"  style="stroke:black; stroke-linecap:round; stroke-width:0.25;"/>
<line x1="172.500000" y1="140.000000" x2="172.500000" y2="140.000000"  style="stroke:black; stroke-linecap:round; stroke-width:0.25;"/>
<line x1="172.500000" y1="140.000000" x2="176.500000" y2="140.000000"  style="stroke:black; stroke-linecap:round; stroke-width:0.25;"/>
<line x1="172.500000" y1="148.000000" x2="172.500000" y2="148.000000"  style="stroke:black; stroke-linecap:round; stroke-width:0.25;"/>
<line x1="172.500000" y1="148.000000" x2="176.500000" y2="148.000000"  style="stroke:black; stroke-linecap:round; stroke-width:0.25;"/>
<line x1="172.500000" y1="156.000000" x2="172.500000" y2="156.000000"  style="stroke:black; stroke-linecap:round; stroke-width:0.25;"/>
<line x1="172.500000" y1="156.000000" x2="176.500000" y2="156.000000"  style="stroke:black; stroke-linecap:round; stroke-width:0.25;"/>
<line x1="172.500000" y1="164.000000" x2="172.500000" y2="164.000000"  style="stroke:black; stroke-linecap:round; stroke-width:0.25;"/>
<line x1="172.500000" y1="164.000000" x2="176.500000" y2="164.000000"  style="stroke:black; stroke-linecap:round; stroke-width:0.25;"/>
<line x1="172.500000" y1="172.000000" x2="172.500000" y2="172.000000"  style="stroke:black; stroke-linecap:round; stroke-width:0.25;"/>
<line x1="172.500000" y1="172.000000" x2="176.500000" y2="172.000000"  style="stroke:black; stroke-linecap:round; stroke-width:0.25;"/>
<line x1="172.500000" y1="180.000000" x2="172.500000" y2="180.000000"  style="stroke:black; stroke-linecap:round; stroke-width:0.25;"/>
<line x1="172.500000" y1="180.000000" x2="176.500000" y2="180.000000"  style="stroke:black; stroke-linecap:round; stroke-width:0.25;"/>
<line x1="172.500000" y1="188.000000" x2="172.500000" y2="188.000000"  style="stroke:black; stroke-linecap:round; stroke-width:0.25;"/>
<line x1="172.500000" y1="188.000000" x2="176.500000" y2="188.000000"  style="stroke:black; stroke-linecap:round; stroke-width:0.25;"/>
<line x1="176.500000" y1="68.000000" x2="180.500000" y2="68.000000"  style="stroke:black; stroke-linecap:round; stroke-width:0.25;"/>
<line x1="176.500000" y1="76.000000" x2="180.500000" y2="76.000000"  style="stroke:black; stroke-linecap:round; stroke-width:0.25;"/>
<line x1="176.500000" y1="84.000000" x2="180.500000" y2="84.000000"  style="stroke:black; stroke-linecap:round; stroke-width:0.25;"/>
<line x1="176.500000" y1="92.000000" x2="180.500000" y2="92.000000"  style="stroke:black; stroke-linecap:round; stroke-width:0.25;"/>
<line x1="176.500000" y1="100.000000" x2="180.500000" y2="100.000000"  style="stroke:black; stroke-linecap:round; stroke-width:0.25;"/>
<line x1="176.500000" y1="108.000000" x2="180.500000" y2="108.000000"  style="stroke:black; stroke-linecap:round; stroke-width:0.25;"/>
<line x1="176.500000" y1="116.000000" x2="180.500000" y2="116.000000"  style="stroke:black; stroke-linecap:round; stroke-width:0.25;"/>
<line x1="176.500000" y1="124.000000" x2="180.500000" y2="124.000000"  style="stroke:black; stroke-linecap:round; stroke-width:0.25;"/>
<line x1="176.500000" y1="132.000000" x2="180.500000" y2="132.000000"  style="stroke:black; stroke-linecap:round; stroke-width:0.25;"/>
<line x1="176.500000" y1="140.000000" x2="180.500000" y2="140.000000"  style="stroke:black; stroke-linecap:round; stroke-width:0.25;"/>
<line x1="176.500000" y1="148.000000" x2="180.500000" y2="148.000000"  style="stroke:black; stroke-linecap:round; stroke-width:0.25;"/>
<line x1="176.500000" y1="156.000000" x2="180.500000" y2="156.000000"  style="stroke:black; stroke-linecap:round; stroke-width:0.25;"/>
<line x1="176.500000" y1="164.000000" x2="180.500000" y2="164.000000"  style="stroke:black; stroke-linecap:round; stroke-width:0.25;"/>
<line x1="176.500000" y1="172.000000" x2="180.500000" y2="172.000000"  style="stroke:black; stroke-linecap:round; stroke-width:0.25;"/>
<line x1="176.500000" y1="180.000000" x2="180.500000" y2="180.000000"  style="stroke:black; stroke-linecap:round; stroke-width:0.25;"/>
<line x1="176.500000" y1="188.000000" x2="180.500000" y2="188.000000"  style="stroke:black; stroke-linecap:round; stroke-width:0.25;"/>
<line x1="180.500000" y1="68.000000" x2="190.500000" y2="68.000000"  style="stroke:black; stroke-linecap:round; stroke-width:0.25;"/>
<line x1="180.500000" y1="76.000000" x2="190.500000" y2="76.000000"  style="stroke:black; stroke-linecap:round; stroke-width:0.25;"/>
<line x1="180.500000" y1="84.000000" x2="190.500000" y2="84.000000"  style="stroke:black; stroke-linecap:round; stroke-width:0.25;"/>
<line x1="180.500000" y1="92.000000" x2="190.500000" y2="92.000000"  style="stroke:black; stroke-linecap:round; stroke-width:0.25;"/>
<line x1="180.500000" y1="100.000000" x2="190.500000" y2="100.000000"  style="stroke:black; stroke-linecap:round; stroke-width:0.25;"/>
<line x1="180.500000" y1="108.000000" x2="190.500000" y2="108.000000"  style="stroke:black; stroke-linecap:round; stroke-width:0.25;"/>
<line x1="180.500000" y1="116.000000" x2="190.500000" y2="116.000000"  style="stroke:black; stroke-linecap:round; stroke-width:0.25;"/>
<line x1="180.500000" y1="124.000000" x2="190.500000" y2="124.000000"  style="stroke:black; stroke-linecap:round; stroke-width:0.25;"/>
<line x1="180.500000" y1="132.000000" x2="190.500000" y2="132.000000"  style="stroke:black; stroke-linecap:round; stroke-width:0.25;"/>
<line x1="180.500000" y1="140.000000" x2="190.500000" y2="140.000000"  style="stroke:black; stroke-linecap:round; stroke-width:0.25;"/>
<line x1="180.500000" y1="148.000000" x2="190.500000" y2="148.000000"  style="stroke:black; stroke-linecap:round; stroke-width:0.25;"/>
<line x1="180.500000" y1="156.000000" x2="190.500000" y2="156.000000"  style="stroke:black; stroke-linecap:round; stroke-width:0.25;"/>
<line x1="180.500000" y1="164.000000" x2="190.500000" y2="164.000000"  style="stroke:black; stroke-linecap:round; stroke-width:0.25;"/>
<line x1="180.500000" y1="172.000000" x2="190.500000" y2="172.000000"  style="stroke:black; stroke-linecap:round; stroke-width:0.25;"/>
<line x1="180.500000" y1="180.000000" x2="190.500000" y2="180.000000"  style="stroke:black; stroke-linecap:round; stroke-width:0.25;"/>
<line x1="180.500000" y1="188.000000" x2="190.500000" y2="188.000000"  style="stroke:black; stroke-linecap:round; stroke-width:0.25;"/>
</svg>
