<?xml version="1.0"?>
<svg xmlns="http://www.w3.org/2000/svg" xmlns:xlink="http://www.w3.org/1999/xlink" viewBox="0 0 333.800000 328.000000" width="166.900000mm" height="164.000000mm" version="1.1">
<a xlink:href="CZrestrap-0x2315ca70.svg">
<rect x="1.000000" y="1.000000" width="332.800000" height="327.000000" rx="0" ry="0" style="stroke:none;fill:#cccccc;"/>
<rect x="0.000000" y="0.000000" width="332.800000" height="327.000000" rx="0" ry="0" style="stroke:none;fill:#ffffff;"/>
</a>
<text x="10.000000" y="7.000000" font-family="Arial" font-size="7"></text>
<rect x="91.000000" y="25.000000" width="25.800000" height="24.000000" rx="0" ry="0" style="stroke:none;fill:#cccccc;"/>
<rect x="90.000000" y="24.000000" width="25.800000" height="24.000000" rx="0" ry="0" style="stroke:none;fill:#47945E;"/>
<text x="102.900000" y="38.000000" font-family="Arial" font-size="7" text-anchor="middle" fill="#FFFFFF">fund</text>
<circle cx="92.000000" cy="26.000000" r="1"/>
<rect x="41.900000" y="71.000000" width="24.000000" height="24.000000" rx="0" ry="0" style="stroke:none;fill:#cccccc;"/>
<rect x="40.900000" y="70.000000" width="24.000000" height="24.000000" rx="0" ry="0" style="stroke:none;fill:#47945E;"/>
<text x="52.900000" y="84.000000" font-family="Arial" font-size="7" text-anchor="middle" fill="#FFFFFF">res</text>
<circle cx="42.900000" cy="72.000000" r="1"/>
<rect x="91.900000" y="67.000000" width="24.000000" height="24.000000" rx="0" ry="0" style="stroke:none;fill:#cccccc;"/>
<rect x="90.900000" y="66.000000" width="24.000000" height="24.000000" rx="0" ry="0" style="stroke:none;fill:#f44800;"/>
<text x="102.900000" y="80.000000" font-family="Arial" font-size="7" text-anchor="middle" fill="#FFFFFF">1</text>
<circle cx="92.900000" cy="68.000000" r="1"/>
<line x1="81.900000" y1="57.000000" x2="81.900000" y2="99.000000"  style="stroke: black; stroke-linecap:round; stroke-width:0.25; stroke-dasharray:3,3;"/>
<line x1="81.900000" y1="99.000000" x2="123.900000" y2="99.000000"  style="stroke: black; stroke-linecap:round; stroke-width:0.25; stroke-dasharray:3,3;"/>
<line x1="123.900000" y1="99.000000" x2="123.900000" y2="57.000000"  style="stroke: black; stroke-linecap:round; stroke-width:0.25; stroke-dasharray:3,3;"/>
<line x1="81.900000" y1="57.000000" x2="86.900000" y2="57.000000"  style="stroke: black; stroke-linecap:round; stroke-width:0.25; stroke-dasharray:3,3;"/>
<line x1="99.800000" y1="57.000000" x2="123.900000" y2="57.000000"  style="stroke: black; stroke-linecap:round; stroke-width:0.25; stroke-dasharray:3,3;"/>
<text x="86.900000" y="59.000000" font-family="Arial" font-size="7">b1</text>
<rect x="141.900000" y="71.000000" width="24.000000" height="24.000000" rx="0" ry="0" style="stroke:none;fill:#cccccc;"/>
<rect x="140.900000" y="70.000000" width="24.000000" height="24.000000" rx="0" ry="0" style="stroke:none;fill:#4B71A1;"/>
<text x="152.900000" y="84.000000" font-family="Arial" font-size="7" text-anchor="middle" fill="#FFFFFF">max</text>
<circle cx="142.900000" cy="72.000000" r="1"/>
<line x1="137.900000" y1="77.000000" x2="140.900000" y2="78.000000"  transform="rotate(0.000000,140.900000,78.000000)" style="stroke: black; stroke-width:0.25;"/>
<line x1="137.900000" y1="79.000000" x2="140.900000" y2="78.000000"  transform="rotate(0.000000,140.900000,78.000000)" style="stroke: black; stroke-width:0.25;"/>
<line x1="137.900000" y1="85.000000" x2="140.900000" y2="86.000000"  transform="rotate(0.000000,140.900000,86.000000)" style="stroke: black; stroke-width:0.25;"/>
<line x1="137.900000" y1="87.000000" x2="140.900000" y2="86.000000"  transform="rotate(0.000000,140.900000,86.000000)" style="stroke: black; stroke-width:0.25;"/>
<rect x="181.900000" y="55.000000" width="24.000000" height="24.000000" rx="0" ry="0" style="stroke:none;fill:#cccccc;"/>
<rect x="180.900000" y="54.000000" width="24.000000" height="24.000000" rx="0" ry="0" style="stroke:none;fill:#4B71A1;"/>
<text x="192.900000" y="68.000000" font-family="Arial" font-size="7" text-anchor="middle" fill="#FFFFFF">*</text>
<circle cx="182.900000" cy="56.000000" r="1"/>
<line x1="177.900000" y1="61.000000" x2="180.900000" y2="62.000000"  transform="rotate(0.000000,180.900000,62.000000)" style="stroke: black; stroke-width:0.25;"/>
<line x1="177.900000" y1="63.000000" x2="180.900000" y2="62.000000"  transform="rotate(0.000000,180.900000,62.000000)" style="stroke: black; stroke-width:0.25;"/>
<line x1="177.900000" y1="69.000000" x2="180.900000" y2="70.000000"  transform="rotate(0.000000,180.900000,70.000000)" style="stroke: black; stroke-width:0.25;"/>
<line x1="177.900000" y1="71.000000" x2="180.900000" y2="70.000000"  transform="rotate(0.000000,180.900000,70.000000)" style="stroke: black; stroke-width:0.25;"/>
<rect x="111.900000" y="127.000000" width="24.000000" height="24.000000" rx="0" ry="0" style="stroke:none;fill:#cccccc;"/>
<rect x="110.900000" y="126.000000" width="24.000000" height="24.000000" rx="0" ry="0" style="stroke:none;fill:#f44800;"/>
<text x="122.900000" y="140.000000" font-family="Arial" font-size="7" text-anchor="middle" fill="#FFFFFF">1</text>
<circle cx="112.900000" cy="128.000000" r="1"/>
<line x1="101.900000" y1="117.000000" x2="101.900000" y2="159.000000"  style="stroke: black; stroke-linecap:round; stroke-width:0.25; stroke-dasharray:3,3;"/>
<line x1="101.900000" y1="159.000000" x2="143.900000" y2="159.000000"  style="stroke: black; stroke-linecap:round; stroke-width:0.25; stroke-dasharray:3,3;"/>
<line x1="143.900000" y1="159.000000" x2="143.900000" y2="117.000000"  style="stroke: black; stroke-linecap:round; stroke-width:0.25; stroke-dasharray:3,3;"/>
<line x1="101.900000" y1="117.000000" x2="106.900000" y2="117.000000"  style="stroke: black; stroke-linecap:round; stroke-width:0.25; stroke-dasharray:3,3;"/>
<line x1="119.800000" y1="117.000000" x2="143.900000" y2="117.000000"  style="stroke: black; stroke-linecap:round; stroke-width:0.25; stroke-dasharray:3,3;"/>
<text x="106.900000" y="119.000000" font-family="Arial" font-size="7">b1</text>
<rect x="221.900000" y="81.000000" width="24.000000" height="24.000000" rx="0" ry="0" style="stroke:none;fill:#cccccc;"/>
<rect x="220.900000" y="80.000000" width="24.000000" height="24.000000" rx="0" ry="0" style="stroke:none;fill:#4B71A1;"/>
<text x="232.900000" y="94.000000" font-family="Arial" font-size="7" text-anchor="middle" fill="#FFFFFF">+</text>
<circle cx="222.900000" cy="82.000000" r="1"/>
<line x1="217.900000" y1="87.000000" x2="220.900000" y2="88.000000"  transform="rotate(0.000000,220.900000,88.000000)" style="stroke: black; stroke-width:0.25;"/>
<line x1="217.900000" y1="89.000000" x2="220.900000" y2="88.000000"  transform="rotate(0.000000,220.900000,88.000000)" style="stroke: black; stroke-width:0.25;"/>
<line x1="217.900000" y1="95.000000" x2="220.900000" y2="96.000000"  transform="rotate(0.000000,220.900000,96.000000)" style="stroke: black; stroke-width:0.25;"/>
<line x1="217.900000" y1="97.000000" x2="220.900000" y2="96.000000"  transform="rotate(0.000000,220.900000,96.000000)" style="stroke: black; stroke-width:0.25;"/>
<rect x="74.100000" y="169.000000" width="25.800000" height="24.000000" rx="0" ry="0" style="stroke:none;fill:#cccccc;"/>
<rect x="73.100000" y="168.000000" width="25.800000" height="24.000000" rx="0" ry="0" style="stroke:none;fill:#47945E;"/>
<text x="86.000000" y="182.000000" font-family="Arial" font-size="7" text-anchor="middle" fill="#FFFFFF">fund</text>
<circle cx="75.100000" cy="170.000000" r="1"/>
<rect x="25.000000" y="215.000000" width="24.000000" height="24.000000" rx="0" ry="0" style="stroke:none;fill:#cccccc;"/>
<rect x="24.000000" y="214.000000" width="24.000000" height="24.000000" rx="0" ry="0" style="stroke:none;fill:#47945E;"/>
<text x="36.000000" y="228.000000" font-family="Arial" font-size="7" text-anchor="middle" fill="#FFFFFF">res</text>
<circle cx="26.000000" cy="216.000000" r="1"/>
<rect x="75.000000" y="211.000000" width="24.000000" height="24.000000" rx="0" ry="0" style="stroke:none;fill:#cccccc;"/>
<rect x="74.000000" y="210.000000" width="24.000000" height="24.000000" rx="0" ry="0" style="stroke:none;fill:#f44800;"/>
<text x="86.000000" y="224.000000" font-family="Arial" font-size="7" text-anchor="middle" fill="#FFFFFF">1</text>
<circle cx="76.000000" cy="212.000000" r="1"/>
<line x1="65.000000" y1="201.000000" x2="65.000000" y2="243.000000"  style="stroke: black; stroke-linecap:round; stroke-width:0.25; stroke-dasharray:3,3;"/>
<line x1="65.000000" y1="243.000000" x2="107.000000" y2="243.000000"  style="stroke: black; stroke-linecap:round; stroke-width:0.25; stroke-dasharray:3,3;"/>
<line x1="107.000000" y1="243.000000" x2="107.000000" y2="201.000000"  style="stroke: black; stroke-linecap:round; stroke-width:0.25; stroke-dasharray:3,3;"/>
<line x1="65.000000" y1="201.000000" x2="70.000000" y2="201.000000"  style="stroke: black; stroke-linecap:round; stroke-width:0.25; stroke-dasharray:3,3;"/>
<line x1="82.900000" y1="201.000000" x2="107.000000" y2="201.000000"  style="stroke: black; stroke-linecap:round; stroke-width:0.25; stroke-dasharray:3,3;"/>
<text x="70.000000" y="203.000000" font-family="Arial" font-size="7">b1</text>
<rect x="125.000000" y="215.000000" width="24.000000" height="24.000000" rx="0" ry="0" style="stroke:none;fill:#cccccc;"/>
<rect x="124.000000" y="214.000000" width="24.000000" height="24.000000" rx="0" ry="0" style="stroke:none;fill:#4B71A1;"/>
<text x="136.000000" y="228.000000" font-family="Arial" font-size="7" text-anchor="middle" fill="#FFFFFF">max</text>
<circle cx="126.000000" cy="216.000000" r="1"/>
<line x1="121.000000" y1="221.000000" x2="124.000000" y2="222.000000"  transform="rotate(0.000000,124.000000,222.000000)" style="stroke: black; stroke-width:0.25;"/>
<line x1="121.000000" y1="223.000000" x2="124.000000" y2="222.000000"  transform="rotate(0.000000,124.000000,222.000000)" style="stroke: black; stroke-width:0.25;"/>
<line x1="121.000000" y1="229.000000" x2="124.000000" y2="230.000000"  transform="rotate(0.000000,124.000000,230.000000)" style="stroke: black; stroke-width:0.25;"/>
<line x1="121.000000" y1="231.000000" x2="124.000000" y2="230.000000"  transform="rotate(0.000000,124.000000,230.000000)" style="stroke: black; stroke-width:0.25;"/>
<rect x="165.000000" y="199.000000" width="24.000000" height="24.000000" rx="0" ry="0" style="stroke:none;fill:#cccccc;"/>
<rect x="164.000000" y="198.000000" width="24.000000" height="24.000000" rx="0" ry="0" style="stroke:none;fill:#4B71A1;"/>
<text x="176.000000" y="212.000000" font-family="Arial" font-size="7" text-anchor="middle" fill="#FFFFFF">*</text>
<circle cx="166.000000" cy="200.000000" r="1"/>
<line x1="161.000000" y1="205.000000" x2="164.000000" y2="206.000000"  transform="rotate(0.000000,164.000000,206.000000)" style="stroke: black; stroke-width:0.25;"/>
<line x1="161.000000" y1="207.000000" x2="164.000000" y2="206.000000"  transform="rotate(0.000000,164.000000,206.000000)" style="stroke: black; stroke-width:0.25;"/>
<line x1="161.000000" y1="213.000000" x2="164.000000" y2="214.000000"  transform="rotate(0.000000,164.000000,214.000000)" style="stroke: black; stroke-width:0.25;"/>
<line x1="161.000000" y1="215.000000" x2="164.000000" y2="214.000000"  transform="rotate(0.000000,164.000000,214.000000)" style="stroke: black; stroke-width:0.25;"/>
<rect x="95.000000" y="271.000000" width="24.000000" height="24.000000" rx="0" ry="0" style="stroke:none;fill:#cccccc;"/>
<rect x="94.000000" y="270.000000" width="24.000000" height="24.000000" rx="0" ry="0" style="stroke:none;fill:#f44800;"/>
<text x="106.000000" y="284.000000" font-family="Arial" font-size="7" text-anchor="middle" fill="#FFFFFF">1</text>
<circle cx="96.000000" cy="272.000000" r="1"/>
<line x1="85.000000" y1="261.000000" x2="85.000000" y2="303.000000"  style="stroke: black; stroke-linecap:round; stroke-width:0.25; stroke-dasharray:3,3;"/>
<line x1="85.000000" y1="303.000000" x2="127.000000" y2="303.000000"  style="stroke: black; stroke-linecap:round; stroke-width:0.25; stroke-dasharray:3,3;"/>
<line x1="127.000000" y1="303.000000" x2="127.000000" y2="261.000000"  style="stroke: black; stroke-linecap:round; stroke-width:0.25; stroke-dasharray:3,3;"/>
<line x1="85.000000" y1="261.000000" x2="90.000000" y2="261.000000"  style="stroke: black; stroke-linecap:round; stroke-width:0.25; stroke-dasharray:3,3;"/>
<line x1="102.900000" y1="261.000000" x2="127.000000" y2="261.000000"  style="stroke: black; stroke-linecap:round; stroke-width:0.25; stroke-dasharray:3,3;"/>
<text x="90.000000" y="263.000000" font-family="Arial" font-size="7">b1</text>
<rect x="205.000000" y="225.000000" width="24.000000" height="24.000000" rx="0" ry="0" style="stroke:none;fill:#cccccc;"/>
<rect x="204.000000" y="224.000000" width="24.000000" height="24.000000" rx="0" ry="0" style="stroke:none;fill:#4B71A1;"/>
<text x="216.000000" y="238.000000" font-family="Arial" font-size="7" text-anchor="middle" fill="#FFFFFF">+</text>
<circle cx="206.000000" cy="226.000000" r="1"/>
<line x1="201.000000" y1="231.000000" x2="204.000000" y2="232.000000"  transform="rotate(0.000000,204.000000,232.000000)" style="stroke: black; stroke-width:0.25;"/>
<line x1="201.000000" y1="233.000000" x2="204.000000" y2="232.000000"  transform="rotate(0.000000,204.000000,232.000000)" style="stroke: black; stroke-width:0.25;"/>
<line x1="201.000000" y1="239.000000" x2="204.000000" y2="240.000000"  transform="rotate(0.000000,204.000000,240.000000)" style="stroke: black; stroke-width:0.25;"/>
<line x1="201.000000" y1="241.000000" x2="204.000000" y2="240.000000"  transform="rotate(0.000000,204.000000,240.000000)" style="stroke: black; stroke-width:0.25;"/>
<rect x="237.000000" y="225.000000" width="25.800000" height="24.000000" rx="0" ry="0" style="stroke:none;fill:#cccccc;"/>
<rect x="236.000000" y="224.000000" width="25.800000" height="24.000000" rx="0" ry="0" style="stroke:none;fill:#4B71A1;"/>
<text x="248.900000" y="238.000000" font-family="Arial" font-size="7" text-anchor="middle" fill="#FFFFFF">floor</text>
<circle cx="238.000000" cy="226.000000" r="1"/>
<line x1="233.000000" y1="235.000000" x2="236.000000" y2="236.000000"  transform="rotate(0.000000,236.000000,236.000000)" style="stroke: black; stroke-width:0.25;"/>
<line x1="233.000000" y1="237.000000" x2="236.000000" y2="236.000000"  transform="rotate(0.000000,236.000000,236.000000)" style="stroke: black; stroke-width:0.25;"/>
<rect x="278.800000" y="153.000000" width="24.000000" height="24.000000" rx="0" ry="0" style="stroke:none;fill:#cccccc;"/>
<rect x="277.800000" y="152.000000" width="24.000000" height="24.000000" rx="0" ry="0" style="stroke:none;fill:#4B71A1;"/>
<text x="289.800000" y="166.000000" font-family="Arial" font-size="7" text-anchor="middle" fill="#FFFFFF">-</text>
<circle cx="279.800000" cy="154.000000" r="1"/>
<line x1="274.800000" y1="159.000000" x2="277.800000" y2="160.000000"  transform="rotate(0.000000,277.800000,160.000000)" style="stroke: black; stroke-width:0.25;"/>
<line x1="274.800000" y1="161.000000" x2="277.800000" y2="160.000000"  transform="rotate(0.000000,277.800000,160.000000)" style="stroke: black; stroke-width:0.25;"/>
<line x1="274.800000" y1="167.000000" x2="277.800000" y2="168.000000"  transform="rotate(0.000000,277.800000,168.000000)" style="stroke: black; stroke-width:0.25;"/>
<line x1="274.800000" y1="169.000000" x2="277.800000" y2="168.000000"  transform="rotate(0.000000,277.800000,168.000000)" style="stroke: black; stroke-width:0.25;"/>
<line x1="15.000000" y1="15.000000" x2="15.000000" y2="313.000000"  style="stroke: black; stroke-linecap:round; stroke-width:0.25; stroke-dasharray:3,3;"/>
<line x1="15.000000" y1="313.000000" x2="318.800000" y2="313.000000"  style="stroke: black; stroke-linecap:round; stroke-width:0.25; stroke-dasharray:3,3;"/>
<line x1="318.800000" y1="313.000000" x2="318.800000" y2="15.000000"  style="stroke: black; stroke-linecap:round; stroke-width:0.25; stroke-dasharray:3,3;"/>
<line x1="15.000000" y1="15.000000" x2="20.000000" y2="15.000000"  style="stroke: black; stroke-linecap:round; stroke-width:0.25; stroke-dasharray:3,3;"/>
<line x1="119.975000" y1="15.000000" x2="318.800000" y2="15.000000"  style="stroke: black; stroke-linecap:round; stroke-width:0.25; stroke-dasharray:3,3;"/>
<text x="20.000000" y="17.000000" font-family="Arial" font-size="7">fracPart((x11...) : *),1 : +)</text>
<line x1="320.800000" y1="163.000000" x2="323.800000" y2="164.000000"  transform="rotate(0.000000,323.800000,164.000000)" style="stroke: black; stroke-width:0.25;"/>
<line x1="320.800000" y1="165.000000" x2="323.800000" y2="164.000000"  transform="rotate(0.000000,323.800000,164.000000)" style="stroke: black; stroke-width:0.25;"/>
<line x1="48.000000" y1="226.000000" x2="52.000000" y2="226.000000"  style="stroke:black; stroke-linecap:round; stroke-width:0.25;"/>
<line x1="52.000000" y1="226.000000" x2="60.000000" y2="226.000000"  style="stroke:black; stroke-linecap:round; stroke-width:0.25;"/>
<line x1="60.000000" y1="226.000000" x2="60.000000" y2="252.000000"  style="stroke:black; stroke-linecap:round; stroke-width:0.25;"/>
<line x1="60.000000" y1="252.000000" x2="60.000000" y2="252.000000"  style="stroke:black; stroke-linecap:round; stroke-width:0.25;"/>
<line x1="60.000000" y1="252.000000" x2="86.000000" y2="252.000000"  style="stroke:black; stroke-linecap:round; stroke-width:0.25;"/>
<line x1="64.900000" y1="82.000000" x2="68.900000" y2="82.000000"  style="stroke:black; stroke-linecap:round; stroke-width:0.25;"/>
<line x1="68.900000" y1="82.000000" x2="76.900000" y2="82.000000"  style="stroke:black; stroke-linecap:round; stroke-width:0.25;"/>
<line x1="76.900000" y1="82.000000" x2="76.900000" y2="108.000000"  style="stroke:black; stroke-linecap:round; stroke-width:0.25;"/>
<line x1="76.900000" y1="108.000000" x2="76.900000" y2="108.000000"  style="stroke:black; stroke-linecap:round; stroke-width:0.25;"/>
<line x1="76.900000" y1="108.000000" x2="102.900000" y2="108.000000"  style="stroke:black; stroke-linecap:round; stroke-width:0.25;"/>
<line x1="86.000000" y1="252.000000" x2="112.000000" y2="252.000000"  style="stroke:black; stroke-linecap:round; stroke-width:0.25;"/>
<line x1="98.000000" y1="222.000000" x2="102.000000" y2="222.000000"  style="stroke:black; stroke-linecap:round; stroke-width:0.25;"/>
<line x1="98.900000" y1="180.000000" x2="102.900000" y2="180.000000"  style="stroke:black; stroke-linecap:round; stroke-width:0.25;"/>
<line x1="102.000000" y1="222.000000" x2="112.000000" y2="222.000000"  style="stroke:black; stroke-linecap:round; stroke-width:0.25;"/>
<line x1="102.900000" y1="180.000000" x2="152.000000" y2="180.000000"  style="stroke:black; stroke-linecap:round; stroke-width:0.25;"/>
<line x1="102.900000" y1="108.000000" x2="128.900000" y2="108.000000"  style="stroke:black; stroke-linecap:round; stroke-width:0.25;"/>
<line x1="112.000000" y1="222.000000" x2="120.000000" y2="222.000000"  style="stroke:black; stroke-linecap:round; stroke-width:0.25;"/>
<line x1="112.000000" y1="230.000000" x2="120.000000" y2="230.000000"  style="stroke:black; stroke-linecap:round; stroke-width:0.25;"/>
<line x1="112.000000" y1="252.000000" x2="112.000000" y2="230.000000"  style="stroke:black; stroke-linecap:round; stroke-width:0.25;"/>
<line x1="112.000000" y1="252.000000" x2="112.000000" y2="252.000000"  style="stroke:black; stroke-linecap:round; stroke-width:0.25;"/>
<line x1="114.900000" y1="78.000000" x2="118.900000" y2="78.000000"  style="stroke:black; stroke-linecap:round; stroke-width:0.25;"/>
<line x1="115.800000" y1="36.000000" x2="119.800000" y2="36.000000"  style="stroke:black; stroke-linecap:round; stroke-width:0.25;"/>
<line x1="118.000000" y1="282.000000" x2="122.000000" y2="282.000000"  style="stroke:black; stroke-linecap:round; stroke-width:0.25;"/>
<line x1="118.900000" y1="78.000000" x2="128.900000" y2="78.000000"  style="stroke:black; stroke-linecap:round; stroke-width:0.25;"/>
<line x1="119.800000" y1="36.000000" x2="168.900000" y2="36.000000"  style="stroke:black; stroke-linecap:round; stroke-width:0.25;"/>
<line x1="120.000000" y1="222.000000" x2="124.000000" y2="222.000000"  style="stroke:black; stroke-linecap:round; stroke-width:0.25;"/>
<line x1="120.000000" y1="230.000000" x2="124.000000" y2="230.000000"  style="stroke:black; stroke-linecap:round; stroke-width:0.25;"/>
<line x1="122.000000" y1="282.000000" x2="132.000000" y2="282.000000"  style="stroke:black; stroke-linecap:round; stroke-width:0.25;"/>
<line x1="128.900000" y1="78.000000" x2="136.900000" y2="78.000000"  style="stroke:black; stroke-linecap:round; stroke-width:0.25;"/>
<line x1="128.900000" y1="86.000000" x2="136.900000" y2="86.000000"  style="stroke:black; stroke-linecap:round; stroke-width:0.25;"/>
<line x1="128.900000" y1="108.000000" x2="128.900000" y2="86.000000"  style="stroke:black; stroke-linecap:round; stroke-width:0.25;"/>
<line x1="128.900000" y1="108.000000" x2="128.900000" y2="108.000000"  style="stroke:black; stroke-linecap:round; stroke-width:0.25;"/>
<line x1="132.000000" y1="282.000000" x2="192.000000" y2="282.000000"  style="stroke:black; stroke-linecap:round; stroke-width:0.25;"/>
<line x1="134.900000" y1="138.000000" x2="138.900000" y2="138.000000"  style="stroke:black; stroke-linecap:round; stroke-width:0.25;"/>
<line x1="136.900000" y1="78.000000" x2="140.900000" y2="78.000000"  style="stroke:black; stroke-linecap:round; stroke-width:0.25;"/>
<line x1="136.900000" y1="86.000000" x2="140.900000" y2="86.000000"  style="stroke:black; stroke-linecap:round; stroke-width:0.25;"/>
<line x1="138.900000" y1="138.000000" x2="148.900000" y2="138.000000"  style="stroke:black; stroke-linecap:round; stroke-width:0.25;"/>
<line x1="148.000000" y1="226.000000" x2="152.000000" y2="226.000000"  style="stroke:black; stroke-linecap:round; stroke-width:0.25;"/>
<line x1="148.900000" y1="138.000000" x2="208.900000" y2="138.000000"  style="stroke:black; stroke-linecap:round; stroke-width:0.25;"/>
<line x1="152.000000" y1="180.000000" x2="160.000000" y2="180.000000"  style="stroke:black; stroke-linecap:round; stroke-width:0.25;"/>
<line x1="152.000000" y1="214.000000" x2="160.000000" y2="214.000000"  style="stroke:black; stroke-linecap:round; stroke-width:0.25;"/>
<line x1="152.000000" y1="226.000000" x2="152.000000" y2="214.000000"  style="stroke:black; stroke-linecap:round; stroke-width:0.25;"/>
<line x1="152.000000" y1="226.000000" x2="152.000000" y2="226.000000"  style="stroke:black; stroke-linecap:round; stroke-width:0.25;"/>
<line x1="160.000000" y1="180.000000" x2="160.000000" y2="206.000000"  style="stroke:black; stroke-linecap:round; stroke-width:0.25;"/>
<line x1="160.000000" y1="206.000000" x2="160.000000" y2="206.000000"  style="stroke:black; stroke-linecap:round; stroke-width:0.25;"/>
<line x1="160.000000" y1="206.000000" x2="164.000000" y2="206.000000"  style="stroke:black; stroke-linecap:round; stroke-width:0.25;"/>
<line x1="160.000000" y1="214.000000" x2="164.000000" y2="214.000000"  style="stroke:black; stroke-linecap:round; stroke-width:0.25;"/>
<line x1="164.900000" y1="82.000000" x2="168.900000" y2="82.000000"  style="stroke:black; stroke-linecap:round; stroke-width:0.25;"/>
<line x1="168.900000" y1="36.000000" x2="176.900000" y2="36.000000"  style="stroke:black; stroke-linecap:round; stroke-width:0.25;"/>
<line x1="168.900000" y1="70.000000" x2="176.900000" y2="70.000000"  style="stroke:black; stroke-linecap:round; stroke-width:0.25;"/>
<line x1="168.900000" y1="82.000000" x2="168.900000" y2="70.000000"  style="stroke:black; stroke-linecap:round; stroke-width:0.25;"/>
<line x1="168.900000" y1="82.000000" x2="168.900000" y2="82.000000"  style="stroke:black; stroke-linecap:round; stroke-width:0.25;"/>
<line x1="176.900000" y1="36.000000" x2="176.900000" y2="62.000000"  style="stroke:black; stroke-linecap:round; stroke-width:0.25;"/>
<line x1="176.900000" y1="62.000000" x2="176.900000" y2="62.000000"  style="stroke:black; stroke-linecap:round; stroke-width:0.25;"/>
<line x1="176.900000" y1="62.000000" x2="180.900000" y2="62.000000"  style="stroke:black; stroke-linecap:round; stroke-width:0.25;"/>
<line x1="176.900000" y1="70.000000" x2="180.900000" y2="70.000000"  style="stroke:black; stroke-linecap:round; stroke-width:0.25;"/>
<line x1="188.000000" y1="210.000000" x2="192.000000" y2="210.000000"  style="stroke:black; stroke-linecap:round; stroke-width:0.25;"/>
<line x1="192.000000" y1="210.000000" x2="200.000000" y2="210.000000"  style="stroke:black; stroke-linecap:round; stroke-width:0.25;"/>
<line x1="192.000000" y1="240.000000" x2="200.000000" y2="240.000000"  style="stroke:black; stroke-linecap:round; stroke-width:0.25;"/>
<line x1="192.000000" y1="282.000000" x2="192.000000" y2="240.000000"  style="stroke:black; stroke-linecap:round; stroke-width:0.25;"/>
<line x1="192.000000" y1="282.000000" x2="192.000000" y2="282.000000"  style="stroke:black; stroke-linecap:round; stroke-width:0.25;"/>
<line x1="200.000000" y1="210.000000" x2="200.000000" y2="232.000000"  style="stroke:black; stroke-linecap:round; stroke-width:0.25;"/>
<line x1="200.000000" y1="232.000000" x2="200.000000" y2="232.000000"  style="stroke:black; stroke-linecap:round; stroke-width:0.25;"/>
<line x1="200.000000" y1="232.000000" x2="204.000000" y2="232.000000"  style="stroke:black; stroke-linecap:round; stroke-width:0.25;"/>
<line x1="200.000000" y1="240.000000" x2="204.000000" y2="240.000000"  style="stroke:black; stroke-linecap:round; stroke-width:0.25;"/>
<line x1="204.900000" y1="66.000000" x2="208.900000" y2="66.000000"  style="stroke:black; stroke-linecap:round; stroke-width:0.25;"/>
<line x1="208.900000" y1="66.000000" x2="216.900000" y2="66.000000"  style="stroke:black; stroke-linecap:round; stroke-width:0.25;"/>
<line x1="208.900000" y1="96.000000" x2="216.900000" y2="96.000000"  style="stroke:black; stroke-linecap:round; stroke-width:0.25;"/>
<line x1="208.900000" y1="138.000000" x2="208.900000" y2="96.000000"  style="stroke:black; stroke-linecap:round; stroke-width:0.25;"/>
<line x1="208.900000" y1="138.000000" x2="208.900000" y2="138.000000"  style="stroke:black; stroke-linecap:round; stroke-width:0.25;"/>
<line x1="216.900000" y1="66.000000" x2="216.900000" y2="88.000000"  style="stroke:black; stroke-linecap:round; stroke-width:0.25;"/>
<line x1="216.900000" y1="88.000000" x2="216.900000" y2="88.000000"  style="stroke:black; stroke-linecap:round; stroke-width:0.25;"/>
<line x1="216.900000" y1="88.000000" x2="220.900000" y2="88.000000"  style="stroke:black; stroke-linecap:round; stroke-width:0.25;"/>
<line x1="216.900000" y1="96.000000" x2="220.900000" y2="96.000000"  style="stroke:black; stroke-linecap:round; stroke-width:0.25;"/>
<line x1="228.000000" y1="236.000000" x2="232.000000" y2="236.000000"  style="stroke:black; stroke-linecap:round; stroke-width:0.25;"/>
<line x1="232.000000" y1="236.000000" x2="232.000000" y2="236.000000"  style="stroke:black; stroke-linecap:round; stroke-width:0.25;"/>
<line x1="232.000000" y1="236.000000" x2="236.000000" y2="236.000000"  style="stroke:black; stroke-linecap:round; stroke-width:0.25;"/>
<line x1="244.900000" y1="92.000000" x2="248.900000" y2="92.000000"  style="stroke:black; stroke-linecap:round; stroke-width:0.25;"/>
<line x1="248.900000" y1="92.000000" x2="265.800000" y2="92.000000"  style="stroke:black; stroke-linecap:round; stroke-width:0.25;"/>
<line x1="261.800000" y1="236.000000" x2="265.800000" y2="236.000000"  style="stroke:black; stroke-linecap:round; stroke-width:0.25;"/>
<line x1="265.800000" y1="92.000000" x2="273.800000" y2="92.000000"  style="stroke:black; stroke-linecap:round; stroke-width:0.25;"/>
<line x1="265.800000" y1="168.000000" x2="273.800000" y2="168.000000"  style="stroke:black; stroke-linecap:round; stroke-width:0.25;"/>
<line x1="265.800000" y1="236.000000" x2="265.800000" y2="168.000000"  style="stroke:black; stroke-linecap:round; stroke-width:0.25;"/>
<line x1="265.800000" y1="236.000000" x2="265.800000" y2="236.000000"  style="stroke:black; stroke-linecap:round; stroke-width:0.25;"/>
<line x1="273.800000" y1="92.000000" x2="273.800000" y2="160.000000"  style="stroke:black; stroke-linecap:round; stroke-width:0.25;"/>
<line x1="273.800000" y1="160.000000" x2="273.800000" y2="160.000000"  style="stroke:black; stroke-linecap:round; stroke-width:0.25;"/>
<line x1="273.800000" y1="160.000000" x2="277.800000" y2="160.000000"  style="stroke:black; stroke-linecap:round; stroke-width:0.25;"/>
<line x1="273.800000" y1="168.000000" x2="277.800000" y2="168.000000"  style="stroke:black; stroke-linecap:round; stroke-width:0.25;"/>
<line x1="301.800000" y1="164.000000" x2="305.800000" y2="164.000000"  style="stroke:black; stroke-linecap:round; stroke-width:0.25;"/>
<line x1="305.800000" y1="164.000000" x2="305.800000" y2="164.000000"  style="stroke:black; stroke-linecap:round; stroke-width:0.25;"/>
<line x1="305.800000" y1="164.000000" x2="309.800000" y2="164.000000"  style="stroke:black; stroke-linecap:round; stroke-width:0.25;"/>
<line x1="309.800000" y1="164.000000" x2="313.800000" y2="164.000000"  style="stroke:black; stroke-linecap:round; stroke-width:0.25;"/>
<line x1="313.800000" y1="164.000000" x2="323.800000" y2="164.000000"  style="stroke:black; stroke-linecap:round; stroke-width:0.25;"/>
</svg>
