<?xml version="1.0"?>
<svg xmlns="http://www.w3.org/2000/svg" xmlns:xlink="http://www.w3.org/1999/xlink" viewBox="0 0 367.700000 164.000000" width="183.850000mm" height="82.000000mm" version="1.1">
<a xlink:href="czFunds-0x1cb22cf0.svg">
<rect x="1.000000" y="1.000000" width="366.700000" height="163.000000" rx="0" ry="0" style="stroke:none;fill:#cccccc;"/>
<rect x="0.000000" y="0.000000" width="366.700000" height="163.000000" rx="0" ry="0" style="stroke:none;fill:#ffffff;"/>
</a>
<text x="10.000000" y="7.000000" font-family="Arial" font-size="7"></text>
<rect x="93.500000" y="35.000000" width="24.000000" height="24.000000" rx="0" ry="0" style="stroke:none;fill:#cccccc;"/>
<rect x="92.500000" y="34.000000" width="24.000000" height="24.000000" rx="0" ry="0" style="stroke:none;fill:#f44800;"/>
<text x="104.500000" y="48.000000" font-family="Arial" font-size="7" text-anchor="middle" fill="#FFFFFF">4</text>
<circle cx="94.500000" cy="36.000000" r="1"/>
<line x1="83.500000" y1="25.000000" x2="83.500000" y2="67.000000"  style="stroke: black; stroke-linecap:round; stroke-width:0.25; stroke-dasharray:3,3;"/>
<line x1="83.500000" y1="67.000000" x2="125.500000" y2="67.000000"  style="stroke: black; stroke-linecap:round; stroke-width:0.25; stroke-dasharray:3,3;"/>
<line x1="125.500000" y1="67.000000" x2="125.500000" y2="25.000000"  style="stroke: black; stroke-linecap:round; stroke-width:0.25; stroke-dasharray:3,3;"/>
<line x1="83.500000" y1="25.000000" x2="88.500000" y2="25.000000"  style="stroke: black; stroke-linecap:round; stroke-width:0.25; stroke-dasharray:3,3;"/>
<line x1="107.850000" y1="25.000000" x2="125.500000" y2="25.000000"  style="stroke: black; stroke-linecap:round; stroke-width:0.25; stroke-dasharray:3,3;"/>
<text x="88.500000" y="27.000000" font-family="Arial" font-size="7">FAC3</text>
<a xlink:href="czVocoderGrou-0x1c6ceca0.svg">
<rect x="41.000000" y="77.000000" width="129.000000" height="24.000000" rx="0" ry="0" style="stroke:none;fill:#cccccc;"/>
<rect x="40.000000" y="76.000000" width="129.000000" height="24.000000" rx="0" ry="0" style="stroke:none;fill:#003366;"/>
</a>
<a xlink:href="czVocoderGrou-0x1c6ceca0.svg">
<text x="104.500000" y="90.000000" font-family="Arial" font-size="7" text-anchor="middle" fill="#FFFFFF">czVocoderGrou...),4 : *):&gt;_))</text>
</a>
<circle cx="42.000000" cy="78.000000" r="1"/>
<rect x="186.000000" y="51.000000" width="24.000000" height="24.000000" rx="0" ry="0" style="stroke:none;fill:#cccccc;"/>
<rect x="185.000000" y="50.000000" width="24.000000" height="24.000000" rx="0" ry="0" style="stroke:none;fill:#4B71A1;"/>
<text x="197.000000" y="64.000000" font-family="Arial" font-size="7" text-anchor="middle" fill="#FFFFFF">*</text>
<circle cx="187.000000" cy="52.000000" r="1"/>
<line x1="182.000000" y1="57.000000" x2="185.000000" y2="58.000000"  transform="rotate(0.000000,185.000000,58.000000)" style="stroke: black; stroke-width:0.25;"/>
<line x1="182.000000" y1="59.000000" x2="185.000000" y2="58.000000"  transform="rotate(0.000000,185.000000,58.000000)" style="stroke: black; stroke-width:0.25;"/>
<line x1="182.000000" y1="65.000000" x2="185.000000" y2="66.000000"  transform="rotate(0.000000,185.000000,66.000000)" style="stroke: black; stroke-width:0.25;"/>
<line x1="182.000000" y1="67.000000" x2="185.000000" y2="66.000000"  transform="rotate(0.000000,185.000000,66.000000)" style="stroke: black; stroke-width:0.25;"/>
<a xlink:href="masterIndex-0x1cb1f0f0.svg">
<rect x="61.000000" y="109.000000" width="129.000000" height="24.000000" rx="0" ry="0" style="stroke:none;fill:#cccccc;"/>
<rect x="60.000000" y="108.000000" width="129.000000" height="24.000000" rx="0" ry="0" style="stroke:none;fill:#003366;"/>
</a>
<a xlink:href="masterIndex-0x1cb1f0f0.svg">
<text x="124.500000" y="122.000000" font-family="Arial" font-size="7" text-anchor="middle" fill="#FFFFFF">masterIndex(v..., lenv = {}])</text>
</a>
<circle cx="62.000000" cy="110.000000" r="1"/>
<rect x="226.000000" y="67.000000" width="24.000000" height="24.000000" rx="0" ry="0" style="stroke:none;fill:#cccccc;"/>
<rect x="225.000000" y="66.000000" width="24.000000" height="24.000000" rx="0" ry="0" style="stroke:none;fill:#4B71A1;"/>
<text x="237.000000" y="80.000000" font-family="Arial" font-size="7" text-anchor="middle" fill="#FFFFFF">*</text>
<circle cx="227.000000" cy="68.000000" r="1"/>
<line x1="222.000000" y1="73.000000" x2="225.000000" y2="74.000000"  transform="rotate(0.000000,225.000000,74.000000)" style="stroke: black; stroke-width:0.25;"/>
<line x1="222.000000" y1="75.000000" x2="225.000000" y2="74.000000"  transform="rotate(0.000000,225.000000,74.000000)" style="stroke: black; stroke-width:0.25;"/>
<line x1="222.000000" y1="81.000000" x2="225.000000" y2="82.000000"  transform="rotate(0.000000,225.000000,82.000000)" style="stroke: black; stroke-width:0.25;"/>
<line x1="222.000000" y1="83.000000" x2="225.000000" y2="82.000000"  transform="rotate(0.000000,225.000000,82.000000)" style="stroke: black; stroke-width:0.25;"/>
<rect x="266.000000" y="71.000000" width="24.000000" height="24.000000" rx="0" ry="0" style="stroke:none;fill:#cccccc;"/>
<rect x="265.000000" y="70.000000" width="24.000000" height="24.000000" rx="0" ry="0" style="stroke:none;fill:#4B71A1;"/>
<text x="277.000000" y="84.000000" font-family="Arial" font-size="7" text-anchor="middle" fill="#FFFFFF">+</text>
<circle cx="267.000000" cy="72.000000" r="1"/>
<line x1="262.000000" y1="77.000000" x2="265.000000" y2="78.000000"  transform="rotate(0.000000,265.000000,78.000000)" style="stroke: black; stroke-width:0.25;"/>
<line x1="262.000000" y1="79.000000" x2="265.000000" y2="78.000000"  transform="rotate(0.000000,265.000000,78.000000)" style="stroke: black; stroke-width:0.25;"/>
<line x1="262.000000" y1="85.000000" x2="265.000000" y2="86.000000"  transform="rotate(0.000000,265.000000,86.000000)" style="stroke: black; stroke-width:0.25;"/>
<line x1="262.000000" y1="87.000000" x2="265.000000" y2="86.000000"  transform="rotate(0.000000,265.000000,86.000000)" style="stroke: black; stroke-width:0.25;"/>
<a xlink:href="fracPart-0x1cb1f030.svg">
<rect x="298.000000" y="71.000000" width="38.700000" height="24.000000" rx="0" ry="0" style="stroke:none;fill:#cccccc;"/>
<rect x="297.000000" y="70.000000" width="38.700000" height="24.000000" rx="0" ry="0" style="stroke:none;fill:#003366;"/>
</a>
<a xlink:href="fracPart-0x1cb1f030.svg">
<text x="316.350000" y="84.000000" font-family="Arial" font-size="7" text-anchor="middle" fill="#FFFFFF">fracPart</text>
</a>
<circle cx="299.000000" cy="72.000000" r="1"/>
<line x1="294.000000" y1="81.000000" x2="297.000000" y2="82.000000"  transform="rotate(0.000000,297.000000,82.000000)" style="stroke: black; stroke-width:0.25;"/>
<line x1="294.000000" y1="83.000000" x2="297.000000" y2="82.000000"  transform="rotate(0.000000,297.000000,82.000000)" style="stroke: black; stroke-width:0.25;"/>
<line x1="15.000000" y1="15.000000" x2="15.000000" y2="149.000000"  style="stroke: black; stroke-linecap:round; stroke-width:0.25; stroke-dasharray:3,3;"/>
<line x1="15.000000" y1="149.000000" x2="352.700000" y2="149.000000"  style="stroke: black; stroke-linecap:round; stroke-width:0.25; stroke-dasharray:3,3;"/>
<line x1="352.700000" y1="149.000000" x2="352.700000" y2="15.000000"  style="stroke: black; stroke-linecap:round; stroke-width:0.25; stroke-dasharray:3,3;"/>
<line x1="15.000000" y1="15.000000" x2="20.000000" y2="15.000000"  style="stroke: black; stroke-linecap:round; stroke-width:0.25; stroke-dasharray:3,3;"/>
<line x1="129.650000" y1="15.000000" x2="352.700000" y2="15.000000"  style="stroke: black; stroke-linecap:round; stroke-width:0.25; stroke-dasharray:3,3;"/>
<text x="20.000000" y="17.000000" font-family="Arial" font-size="7">fundPhase(vgr...: *):&gt;_))))))(_)</text>
<line x1="354.700000" y1="81.000000" x2="357.700000" y2="82.000000"  transform="rotate(0.000000,357.700000,82.000000)" style="stroke: black; stroke-width:0.25;"/>
<line x1="354.700000" y1="83.000000" x2="357.700000" y2="82.000000"  transform="rotate(0.000000,357.700000,82.000000)" style="stroke: black; stroke-width:0.25;"/>
<line x1="10.000000" y1="82.000000" x2="20.000000" y2="82.000000"  style="stroke:black; stroke-linecap:round; stroke-width:0.25;"/>
<line x1="20.000000" y1="82.000000" x2="24.000000" y2="82.000000"  style="stroke:black; stroke-linecap:round; stroke-width:0.25;"/>
<line x1="24.000000" y1="82.000000" x2="28.000000" y2="82.000000"  style="stroke:black; stroke-linecap:round; stroke-width:0.25;"/>
<line x1="28.000000" y1="82.000000" x2="36.000000" y2="82.000000"  style="stroke:black; stroke-linecap:round; stroke-width:0.25;"/>
<line x1="36.000000" y1="82.000000" x2="36.000000" y2="140.000000"  style="stroke:black; stroke-linecap:round; stroke-width:0.25;"/>
<line x1="36.000000" y1="140.000000" x2="36.000000" y2="140.000000"  style="stroke:black; stroke-linecap:round; stroke-width:0.25;"/>
<line x1="36.000000" y1="140.000000" x2="144.500000" y2="140.000000"  style="stroke:black; stroke-linecap:round; stroke-width:0.25;"/>
<line x1="116.500000" y1="46.000000" x2="120.500000" y2="46.000000"  style="stroke:black; stroke-linecap:round; stroke-width:0.25;"/>
<line x1="120.500000" y1="46.000000" x2="130.500000" y2="46.000000"  style="stroke:black; stroke-linecap:round; stroke-width:0.25;"/>
<line x1="130.500000" y1="46.000000" x2="173.000000" y2="46.000000"  style="stroke:black; stroke-linecap:round; stroke-width:0.25;"/>
<line x1="144.500000" y1="140.000000" x2="253.000000" y2="140.000000"  style="stroke:black; stroke-linecap:round; stroke-width:0.25;"/>
<line x1="169.000000" y1="88.000000" x2="173.000000" y2="88.000000"  style="stroke:black; stroke-linecap:round; stroke-width:0.25;"/>
<line x1="173.000000" y1="46.000000" x2="181.000000" y2="46.000000"  style="stroke:black; stroke-linecap:round; stroke-width:0.25;"/>
<line x1="173.000000" y1="66.000000" x2="181.000000" y2="66.000000"  style="stroke:black; stroke-linecap:round; stroke-width:0.25;"/>
<line x1="173.000000" y1="88.000000" x2="173.000000" y2="66.000000"  style="stroke:black; stroke-linecap:round; stroke-width:0.25;"/>
<line x1="173.000000" y1="88.000000" x2="173.000000" y2="88.000000"  style="stroke:black; stroke-linecap:round; stroke-width:0.25;"/>
<line x1="181.000000" y1="46.000000" x2="181.000000" y2="58.000000"  style="stroke:black; stroke-linecap:round; stroke-width:0.25;"/>
<line x1="181.000000" y1="58.000000" x2="181.000000" y2="58.000000"  style="stroke:black; stroke-linecap:round; stroke-width:0.25;"/>
<line x1="181.000000" y1="58.000000" x2="185.000000" y2="58.000000"  style="stroke:black; stroke-linecap:round; stroke-width:0.25;"/>
<line x1="181.000000" y1="66.000000" x2="185.000000" y2="66.000000"  style="stroke:black; stroke-linecap:round; stroke-width:0.25;"/>
<line x1="189.000000" y1="120.000000" x2="193.000000" y2="120.000000"  style="stroke:black; stroke-linecap:round; stroke-width:0.25;"/>
<line x1="193.000000" y1="120.000000" x2="213.000000" y2="120.000000"  style="stroke:black; stroke-linecap:round; stroke-width:0.25;"/>
<line x1="209.000000" y1="62.000000" x2="213.000000" y2="62.000000"  style="stroke:black; stroke-linecap:round; stroke-width:0.25;"/>
<line x1="213.000000" y1="62.000000" x2="221.000000" y2="62.000000"  style="stroke:black; stroke-linecap:round; stroke-width:0.25;"/>
<line x1="213.000000" y1="82.000000" x2="221.000000" y2="82.000000"  style="stroke:black; stroke-linecap:round; stroke-width:0.25;"/>
<line x1="213.000000" y1="120.000000" x2="213.000000" y2="82.000000"  style="stroke:black; stroke-linecap:round; stroke-width:0.25;"/>
<line x1="213.000000" y1="120.000000" x2="213.000000" y2="120.000000"  style="stroke:black; stroke-linecap:round; stroke-width:0.25;"/>
<line x1="221.000000" y1="62.000000" x2="221.000000" y2="74.000000"  style="stroke:black; stroke-linecap:round; stroke-width:0.25;"/>
<line x1="221.000000" y1="74.000000" x2="221.000000" y2="74.000000"  style="stroke:black; stroke-linecap:round; stroke-width:0.25;"/>
<line x1="221.000000" y1="74.000000" x2="225.000000" y2="74.000000"  style="stroke:black; stroke-linecap:round; stroke-width:0.25;"/>
<line x1="221.000000" y1="82.000000" x2="225.000000" y2="82.000000"  style="stroke:black; stroke-linecap:round; stroke-width:0.25;"/>
<line x1="249.000000" y1="78.000000" x2="253.000000" y2="78.000000"  style="stroke:black; stroke-linecap:round; stroke-width:0.25;"/>
<line x1="253.000000" y1="78.000000" x2="261.000000" y2="78.000000"  style="stroke:black; stroke-linecap:round; stroke-width:0.25;"/>
<line x1="253.000000" y1="86.000000" x2="261.000000" y2="86.000000"  style="stroke:black; stroke-linecap:round; stroke-width:0.25;"/>
<line x1="253.000000" y1="140.000000" x2="253.000000" y2="86.000000"  style="stroke:black; stroke-linecap:round; stroke-width:0.25;"/>
<line x1="253.000000" y1="140.000000" x2="253.000000" y2="140.000000"  style="stroke:black; stroke-linecap:round; stroke-width:0.25;"/>
<line x1="261.000000" y1="78.000000" x2="265.000000" y2="78.000000"  style="stroke:black; stroke-linecap:round; stroke-width:0.25;"/>
<line x1="261.000000" y1="86.000000" x2="265.000000" y2="86.000000"  style="stroke:black; stroke-linecap:round; stroke-width:0.25;"/>
<line x1="289.000000" y1="82.000000" x2="293.000000" y2="82.000000"  style="stroke:black; stroke-linecap:round; stroke-width:0.25;"/>
<line x1="293.000000" y1="82.000000" x2="293.000000" y2="82.000000"  style="stroke:black; stroke-linecap:round; stroke-width:0.25;"/>
<line x1="293.000000" y1="82.000000" x2="297.000000" y2="82.000000"  style="stroke:black; stroke-linecap:round; stroke-width:0.25;"/>
<line x1="335.700000" y1="82.000000" x2="339.700000" y2="82.000000"  style="stroke:black; stroke-linecap:round; stroke-width:0.25;"/>
<line x1="339.700000" y1="82.000000" x2="339.700000" y2="82.000000"  style="stroke:black; stroke-linecap:round; stroke-width:0.25;"/>
<line x1="339.700000" y1="82.000000" x2="343.700000" y2="82.000000"  style="stroke:black; stroke-linecap:round; stroke-width:0.25;"/>
<line x1="343.700000" y1="82.000000" x2="347.700000" y2="82.000000"  style="stroke:black; stroke-linecap:round; stroke-width:0.25;"/>
<line x1="347.700000" y1="82.000000" x2="357.700000" y2="82.000000"  style="stroke:black; stroke-linecap:round; stroke-width:0.25;"/>
</svg>
