<?xml version="1.0"?>
<svg xmlns="http://www.w3.org/2000/svg" xmlns:xlink="http://www.w3.org/1999/xlink" viewBox="0 0 245.400000 136.000000" width="122.700000mm" height="68.000000mm" version="1.1">
<a xlink:href="hz2pianokey-0x14c2d420.svg">
<rect x="1.000000" y="1.000000" width="244.400000" height="135.000000" rx="0" ry="0" style="stroke:none;fill:#cccccc;"/>
<rect x="0.000000" y="0.000000" width="244.400000" height="135.000000" rx="0" ry="0" style="stroke:none;fill:#ffffff;"/>
</a>
<text x="10.000000" y="7.000000" font-family="Arial" font-size="7"></text>
<a xlink:href="phaseNoiseFreqTo-0x14c15c00.svg">
<rect x="25.000000" y="25.000000" width="77.400000" height="24.000000" rx="0" ry="0" style="stroke:none;fill:#cccccc;"/>
<rect x="24.000000" y="24.000000" width="77.400000" height="24.000000" rx="0" ry="0" style="stroke:none;fill:#003366;"/>
</a>
<a xlink:href="phaseNoiseFreqTo-0x14c15c00.svg">
<text x="62.700000" y="38.000000" font-family="Arial" font-size="7" text-anchor="middle" fill="#FFFFFF">phaseNoiseFreqTop</text>
</a>
<circle cx="26.000000" cy="26.000000" r="1"/>
<rect x="51.700000" y="57.000000" width="24.000000" height="24.000000" rx="0" ry="0" style="stroke:none;fill:#cccccc;"/>
<rect x="50.700000" y="56.000000" width="24.000000" height="24.000000" rx="0" ry="0" style="stroke:none;fill:#f44800;"/>
<text x="62.700000" y="70.000000" font-family="Arial" font-size="7" text-anchor="middle" fill="#FFFFFF">440</text>
<circle cx="52.700000" cy="58.000000" r="1"/>
<rect x="118.400000" y="41.000000" width="24.000000" height="24.000000" rx="0" ry="0" style="stroke:none;fill:#cccccc;"/>
<rect x="117.400000" y="40.000000" width="24.000000" height="24.000000" rx="0" ry="0" style="stroke:none;fill:#4B71A1;"/>
<text x="129.400000" y="54.000000" font-family="Arial" font-size="7" text-anchor="middle" fill="#FFFFFF">/</text>
<circle cx="119.400000" cy="42.000000" r="1"/>
<line x1="114.400000" y1="47.000000" x2="117.400000" y2="48.000000"  transform="rotate(0.000000,117.400000,48.000000)" style="stroke: black; stroke-width:0.25;"/>
<line x1="114.400000" y1="49.000000" x2="117.400000" y2="48.000000"  transform="rotate(0.000000,117.400000,48.000000)" style="stroke: black; stroke-width:0.25;"/>
<line x1="114.400000" y1="55.000000" x2="117.400000" y2="56.000000"  transform="rotate(0.000000,117.400000,56.000000)" style="stroke: black; stroke-width:0.25;"/>
<line x1="114.400000" y1="57.000000" x2="117.400000" y2="56.000000"  transform="rotate(0.000000,117.400000,56.000000)" style="stroke: black; stroke-width:0.25;"/>
<rect x="150.400000" y="41.000000" width="24.000000" height="24.000000" rx="0" ry="0" style="stroke:none;fill:#cccccc;"/>
<rect x="149.400000" y="40.000000" width="24.000000" height="24.000000" rx="0" ry="0" style="stroke:none;fill:#4B71A1;"/>
<text x="161.400000" y="54.000000" font-family="Arial" font-size="7" text-anchor="middle" fill="#FFFFFF">log</text>
<circle cx="151.400000" cy="42.000000" r="1"/>
<line x1="146.400000" y1="51.000000" x2="149.400000" y2="52.000000"  transform="rotate(0.000000,149.400000,52.000000)" style="stroke: black; stroke-width:0.25;"/>
<line x1="146.400000" y1="53.000000" x2="149.400000" y2="52.000000"  transform="rotate(0.000000,149.400000,52.000000)" style="stroke: black; stroke-width:0.25;"/>
<rect x="71.700000" y="89.000000" width="24.000000" height="24.000000" rx="0" ry="0" style="stroke:none;fill:#cccccc;"/>
<rect x="70.700000" y="88.000000" width="24.000000" height="24.000000" rx="0" ry="0" style="stroke:none;fill:#f44800;"/>
<text x="82.700000" y="102.000000" font-family="Arial" font-size="7" text-anchor="middle" fill="#FFFFFF">2</text>
<circle cx="72.700000" cy="90.000000" r="1"/>
<rect x="103.700000" y="89.000000" width="24.000000" height="24.000000" rx="0" ry="0" style="stroke:none;fill:#cccccc;"/>
<rect x="102.700000" y="88.000000" width="24.000000" height="24.000000" rx="0" ry="0" style="stroke:none;fill:#4B71A1;"/>
<text x="114.700000" y="102.000000" font-family="Arial" font-size="7" text-anchor="middle" fill="#FFFFFF">log</text>
<circle cx="104.700000" cy="90.000000" r="1"/>
<line x1="99.700000" y1="99.000000" x2="102.700000" y2="100.000000"  transform="rotate(0.000000,102.700000,100.000000)" style="stroke: black; stroke-width:0.25;"/>
<line x1="99.700000" y1="101.000000" x2="102.700000" y2="100.000000"  transform="rotate(0.000000,102.700000,100.000000)" style="stroke: black; stroke-width:0.25;"/>
<rect x="190.400000" y="57.000000" width="24.000000" height="24.000000" rx="0" ry="0" style="stroke:none;fill:#cccccc;"/>
<rect x="189.400000" y="56.000000" width="24.000000" height="24.000000" rx="0" ry="0" style="stroke:none;fill:#4B71A1;"/>
<text x="201.400000" y="70.000000" font-family="Arial" font-size="7" text-anchor="middle" fill="#FFFFFF">/</text>
<circle cx="191.400000" cy="58.000000" r="1"/>
<line x1="186.400000" y1="63.000000" x2="189.400000" y2="64.000000"  transform="rotate(0.000000,189.400000,64.000000)" style="stroke: black; stroke-width:0.25;"/>
<line x1="186.400000" y1="65.000000" x2="189.400000" y2="64.000000"  transform="rotate(0.000000,189.400000,64.000000)" style="stroke: black; stroke-width:0.25;"/>
<line x1="186.400000" y1="71.000000" x2="189.400000" y2="72.000000"  transform="rotate(0.000000,189.400000,72.000000)" style="stroke: black; stroke-width:0.25;"/>
<line x1="186.400000" y1="73.000000" x2="189.400000" y2="72.000000"  transform="rotate(0.000000,189.400000,72.000000)" style="stroke: black; stroke-width:0.25;"/>
<line x1="15.000000" y1="15.000000" x2="15.000000" y2="121.000000"  style="stroke: black; stroke-linecap:round; stroke-width:0.25; stroke-dasharray:3,3;"/>
<line x1="15.000000" y1="121.000000" x2="230.400000" y2="121.000000"  style="stroke: black; stroke-linecap:round; stroke-width:0.25; stroke-dasharray:3,3;"/>
<line x1="230.400000" y1="121.000000" x2="230.400000" y2="15.000000"  style="stroke: black; stroke-linecap:round; stroke-width:0.25; stroke-dasharray:3,3;"/>
<line x1="15.000000" y1="15.000000" x2="20.000000" y2="15.000000"  style="stroke: black; stroke-linecap:round; stroke-width:0.25; stroke-dasharray:3,3;"/>
<line x1="119.975000" y1="15.000000" x2="230.400000" y2="15.000000"  style="stroke: black; stroke-linecap:round; stroke-width:0.25; stroke-dasharray:3,3;"/>
<text x="20.000000" y="17.000000" font-family="Arial" font-size="7">log2(hgroup(&quot;...4.4e+02f : /)</text>
<line x1="232.400000" y1="67.000000" x2="235.400000" y2="68.000000"  transform="rotate(0.000000,235.400000,68.000000)" style="stroke: black; stroke-width:0.25;"/>
<line x1="232.400000" y1="69.000000" x2="235.400000" y2="68.000000"  transform="rotate(0.000000,235.400000,68.000000)" style="stroke: black; stroke-width:0.25;"/>
<line x1="74.700000" y1="68.000000" x2="78.700000" y2="68.000000"  style="stroke:black; stroke-linecap:round; stroke-width:0.25;"/>
<line x1="78.700000" y1="68.000000" x2="105.400000" y2="68.000000"  style="stroke:black; stroke-linecap:round; stroke-width:0.25;"/>
<line x1="94.700000" y1="100.000000" x2="98.700000" y2="100.000000"  style="stroke:black; stroke-linecap:round; stroke-width:0.25;"/>
<line x1="98.700000" y1="100.000000" x2="98.700000" y2="100.000000"  style="stroke:black; stroke-linecap:round; stroke-width:0.25;"/>
<line x1="98.700000" y1="100.000000" x2="102.700000" y2="100.000000"  style="stroke:black; stroke-linecap:round; stroke-width:0.25;"/>
<line x1="101.400000" y1="36.000000" x2="105.400000" y2="36.000000"  style="stroke:black; stroke-linecap:round; stroke-width:0.25;"/>
<line x1="105.400000" y1="56.000000" x2="113.400000" y2="56.000000"  style="stroke:black; stroke-linecap:round; stroke-width:0.25;"/>
<line x1="105.400000" y1="68.000000" x2="105.400000" y2="56.000000"  style="stroke:black; stroke-linecap:round; stroke-width:0.25;"/>
<line x1="105.400000" y1="68.000000" x2="105.400000" y2="68.000000"  style="stroke:black; stroke-linecap:round; stroke-width:0.25;"/>
<line x1="105.400000" y1="36.000000" x2="113.400000" y2="36.000000"  style="stroke:black; stroke-linecap:round; stroke-width:0.25;"/>
<line x1="113.400000" y1="36.000000" x2="113.400000" y2="48.000000"  style="stroke:black; stroke-linecap:round; stroke-width:0.25;"/>
<line x1="113.400000" y1="48.000000" x2="113.400000" y2="48.000000"  style="stroke:black; stroke-linecap:round; stroke-width:0.25;"/>
<line x1="113.400000" y1="48.000000" x2="117.400000" y2="48.000000"  style="stroke:black; stroke-linecap:round; stroke-width:0.25;"/>
<line x1="113.400000" y1="56.000000" x2="117.400000" y2="56.000000"  style="stroke:black; stroke-linecap:round; stroke-width:0.25;"/>
<line x1="126.700000" y1="100.000000" x2="130.700000" y2="100.000000"  style="stroke:black; stroke-linecap:round; stroke-width:0.25;"/>
<line x1="130.700000" y1="100.000000" x2="177.400000" y2="100.000000"  style="stroke:black; stroke-linecap:round; stroke-width:0.25;"/>
<line x1="141.400000" y1="52.000000" x2="145.400000" y2="52.000000"  style="stroke:black; stroke-linecap:round; stroke-width:0.25;"/>
<line x1="145.400000" y1="52.000000" x2="145.400000" y2="52.000000"  style="stroke:black; stroke-linecap:round; stroke-width:0.25;"/>
<line x1="145.400000" y1="52.000000" x2="149.400000" y2="52.000000"  style="stroke:black; stroke-linecap:round; stroke-width:0.25;"/>
<line x1="173.400000" y1="52.000000" x2="177.400000" y2="52.000000"  style="stroke:black; stroke-linecap:round; stroke-width:0.25;"/>
<line x1="177.400000" y1="52.000000" x2="185.400000" y2="52.000000"  style="stroke:black; stroke-linecap:round; stroke-width:0.25;"/>
<line x1="177.400000" y1="72.000000" x2="185.400000" y2="72.000000"  style="stroke:black; stroke-linecap:round; stroke-width:0.25;"/>
<line x1="177.400000" y1="100.000000" x2="177.400000" y2="72.000000"  style="stroke:black; stroke-linecap:round; stroke-width:0.25;"/>
<line x1="177.400000" y1="100.000000" x2="177.400000" y2="100.000000"  style="stroke:black; stroke-linecap:round; stroke-width:0.25;"/>
<line x1="185.400000" y1="52.000000" x2="185.400000" y2="64.000000"  style="stroke:black; stroke-linecap:round; stroke-width:0.25;"/>
<line x1="185.400000" y1="64.000000" x2="185.400000" y2="64.000000"  style="stroke:black; stroke-linecap:round; stroke-width:0.25;"/>
<line x1="185.400000" y1="64.000000" x2="189.400000" y2="64.000000"  style="stroke:black; stroke-linecap:round; stroke-width:0.25;"/>
<line x1="185.400000" y1="72.000000" x2="189.400000" y2="72.000000"  style="stroke:black; stroke-linecap:round; stroke-width:0.25;"/>
<line x1="213.400000" y1="68.000000" x2="217.400000" y2="68.000000"  style="stroke:black; stroke-linecap:round; stroke-width:0.25;"/>
<line x1="217.400000" y1="68.000000" x2="217.400000" y2="68.000000"  style="stroke:black; stroke-linecap:round; stroke-width:0.25;"/>
<line x1="217.400000" y1="68.000000" x2="221.400000" y2="68.000000"  style="stroke:black; stroke-linecap:round; stroke-width:0.25;"/>
<line x1="221.400000" y1="68.000000" x2="225.400000" y2="68.000000"  style="stroke:black; stroke-linecap:round; stroke-width:0.25;"/>
<line x1="225.400000" y1="68.000000" x2="235.400000" y2="68.000000"  style="stroke:black; stroke-linecap:round; stroke-width:0.25;"/>
</svg>
