<?xml version="1.0"?>
<svg xmlns="http://www.w3.org/2000/svg" xmlns:xlink="http://www.w3.org/1999/xlink" viewBox="0 0 875.200000 140.000000" width="437.600000mm" height="70.000000mm" version="1.1">
<a xlink:href="w1-0x24c5ede0.svg">
<rect x="1.000000" y="1.000000" width="874.200000" height="139.000000" rx="0" ry="0" style="stroke:none;fill:#cccccc;"/>
<rect x="0.000000" y="0.000000" width="874.200000" height="139.000000" rx="0" ry="0" style="stroke:none;fill:#ffffff;"/>
</a>
<text x="10.000000" y="7.000000" font-family="Arial" font-size="7"></text>
<a xlink:href="OSCpitchIsBad-0x316ca30.svg">
<rect x="25.000000" y="27.000000" width="64.500000" height="24.000000" rx="0" ry="0" style="stroke:none;fill:#cccccc;"/>
<rect x="24.000000" y="26.000000" width="64.500000" height="24.000000" rx="0" ry="0" style="stroke:none;fill:#003366;"/>
</a>
<a xlink:href="OSCpitchIsBad-0x316ca30.svg">
<text x="56.250000" y="40.000000" font-family="Arial" font-size="7" text-anchor="middle" fill="#FFFFFF">OSCpitchIsBad</text>
</a>
<circle cx="26.000000" cy="28.000000" r="1"/>
<a xlink:href="goodOSCpitch-0x24c1e410.svg">
<rect x="31.450000" y="59.000000" width="51.600000" height="24.000000" rx="0" ry="0" style="stroke:none;fill:#cccccc;"/>
<rect x="30.450000" y="58.000000" width="51.600000" height="24.000000" rx="0" ry="0" style="stroke:none;fill:#003366;"/>
</a>
<a xlink:href="goodOSCpitch-0x24c1e410.svg">
<text x="56.250000" y="72.000000" font-family="Arial" font-size="7" text-anchor="middle" fill="#FFFFFF">goodOSCpitch</text>
</a>
<circle cx="32.450000" cy="60.000000" r="1"/>
<a xlink:href="internal-0x24c5e6a0.svg">
<rect x="37.900000" y="91.000000" width="38.700000" height="24.000000" rx="0" ry="0" style="stroke:none;fill:#cccccc;"/>
<rect x="36.900000" y="90.000000" width="38.700000" height="24.000000" rx="0" ry="0" style="stroke:none;fill:#003366;"/>
</a>
<a xlink:href="internal-0x24c5e6a0.svg">
<text x="56.250000" y="104.000000" font-family="Arial" font-size="7" text-anchor="middle" fill="#FFFFFF">internal</text>
</a>
<circle cx="38.900000" cy="92.000000" r="1"/>
<rect x="105.500000" y="59.000000" width="38.700000" height="24.000000" rx="0" ry="0" style="stroke:none;fill:#cccccc;"/>
<rect x="104.500000" y="58.000000" width="38.700000" height="24.000000" rx="0" ry="0" style="stroke:none;fill:#4B71A1;"/>
<text x="123.850000" y="72.000000" font-family="Arial" font-size="7" text-anchor="middle" fill="#FFFFFF">select2</text>
<circle cx="106.500000" cy="60.000000" r="1"/>
<line x1="101.500000" y1="61.000000" x2="104.500000" y2="62.000000"  transform="rotate(0.000000,104.500000,62.000000)" style="stroke: black; stroke-width:0.25;"/>
<line x1="101.500000" y1="63.000000" x2="104.500000" y2="62.000000"  transform="rotate(0.000000,104.500000,62.000000)" style="stroke: black; stroke-width:0.25;"/>
<line x1="101.500000" y1="69.000000" x2="104.500000" y2="70.000000"  transform="rotate(0.000000,104.500000,70.000000)" style="stroke: black; stroke-width:0.25;"/>
<line x1="101.500000" y1="71.000000" x2="104.500000" y2="70.000000"  transform="rotate(0.000000,104.500000,70.000000)" style="stroke: black; stroke-width:0.25;"/>
<line x1="101.500000" y1="77.000000" x2="104.500000" y2="78.000000"  transform="rotate(0.000000,104.500000,78.000000)" style="stroke: black; stroke-width:0.25;"/>
<line x1="101.500000" y1="79.000000" x2="104.500000" y2="78.000000"  transform="rotate(0.000000,104.500000,78.000000)" style="stroke: black; stroke-width:0.25;"/>
<rect x="190.200000" y="63.000000" width="232.200000" height="24.000000" rx="0" ry="0" style="stroke:none;fill:#cccccc;"/>
<rect x="189.200000" y="62.000000" width="232.200000" height="24.000000" rx="0" ry="0" style="stroke:none;fill:#477881;"/>
<text x="305.300000" y="76.000000" font-family="Arial" font-size="7" text-anchor="middle" fill="#FFFFFF">nentry(min pitch, 48.9994f, 48.9994f, 2093.0f, 0.001f)</text>
<circle cx="191.200000" cy="64.000000" r="1"/>
<line x1="180.200000" y1="53.000000" x2="180.200000" y2="95.000000"  style="stroke: black; stroke-linecap:round; stroke-width:0.25; stroke-dasharray:3,3;"/>
<line x1="180.200000" y1="95.000000" x2="430.400000" y2="95.000000"  style="stroke: black; stroke-linecap:round; stroke-width:0.25; stroke-dasharray:3,3;"/>
<line x1="430.400000" y1="95.000000" x2="430.400000" y2="53.000000"  style="stroke: black; stroke-linecap:round; stroke-width:0.25; stroke-dasharray:3,3;"/>
<line x1="180.200000" y1="53.000000" x2="185.200000" y2="53.000000"  style="stroke: black; stroke-linecap:round; stroke-width:0.25; stroke-dasharray:3,3;"/>
<line x1="227.125000" y1="53.000000" x2="430.400000" y2="53.000000"  style="stroke: black; stroke-linecap:round; stroke-width:0.25; stroke-dasharray:3,3;"/>
<text x="185.200000" y="55.000000" font-family="Arial" font-size="7">hgroup(OSC)</text>
<line x1="170.200000" y1="43.000000" x2="170.200000" y2="105.000000"  style="stroke: black; stroke-linecap:round; stroke-width:0.25; stroke-dasharray:3,3;"/>
<line x1="170.200000" y1="105.000000" x2="440.400000" y2="105.000000"  style="stroke: black; stroke-linecap:round; stroke-width:0.25; stroke-dasharray:3,3;"/>
<line x1="440.400000" y1="105.000000" x2="440.400000" y2="43.000000"  style="stroke: black; stroke-linecap:round; stroke-width:0.25; stroke-dasharray:3,3;"/>
<line x1="170.200000" y1="43.000000" x2="175.200000" y2="43.000000"  style="stroke: black; stroke-linecap:round; stroke-width:0.25; stroke-dasharray:3,3;"/>
<line x1="246.150000" y1="43.000000" x2="440.400000" y2="43.000000"  style="stroke: black; stroke-linecap:round; stroke-width:0.25; stroke-dasharray:3,3;"/>
<text x="175.200000" y="45.000000" font-family="Arial" font-size="7">vgroup(VoiceOfFaust)</text>
<line x1="160.200000" y1="33.000000" x2="160.200000" y2="115.000000"  style="stroke: black; stroke-linecap:round; stroke-width:0.25; stroke-dasharray:3,3;"/>
<line x1="160.200000" y1="115.000000" x2="450.400000" y2="115.000000"  style="stroke: black; stroke-linecap:round; stroke-width:0.25; stroke-dasharray:3,3;"/>
<line x1="450.400000" y1="115.000000" x2="450.400000" y2="33.000000"  style="stroke: black; stroke-linecap:round; stroke-width:0.25; stroke-dasharray:3,3;"/>
<line x1="160.200000" y1="33.000000" x2="165.200000" y2="33.000000"  style="stroke: black; stroke-linecap:round; stroke-width:0.25; stroke-dasharray:3,3;"/>
<line x1="207.125000" y1="33.000000" x2="450.400000" y2="33.000000"  style="stroke: black; stroke-linecap:round; stroke-width:0.25; stroke-dasharray:3,3;"/>
<text x="165.200000" y="35.000000" font-family="Arial" font-size="7">OSCminPitch</text>
<rect x="468.400000" y="59.000000" width="25.800000" height="24.000000" rx="0" ry="0" style="stroke:none;fill:#cccccc;"/>
<rect x="467.400000" y="58.000000" width="25.800000" height="24.000000" rx="0" ry="0" style="stroke:none;fill:#4B71A1;"/>
<text x="480.300000" y="72.000000" font-family="Arial" font-size="7" text-anchor="middle" fill="#FFFFFF">attach</text>
<circle cx="469.400000" cy="60.000000" r="1"/>
<line x1="464.400000" y1="65.000000" x2="467.400000" y2="66.000000"  transform="rotate(0.000000,467.400000,66.000000)" style="stroke: black; stroke-width:0.25;"/>
<line x1="464.400000" y1="67.000000" x2="467.400000" y2="66.000000"  transform="rotate(0.000000,467.400000,66.000000)" style="stroke: black; stroke-width:0.25;"/>
<line x1="464.400000" y1="73.000000" x2="467.400000" y2="74.000000"  transform="rotate(0.000000,467.400000,74.000000)" style="stroke: black; stroke-width:0.25;"/>
<line x1="464.400000" y1="75.000000" x2="467.400000" y2="74.000000"  transform="rotate(0.000000,467.400000,74.000000)" style="stroke: black; stroke-width:0.25;"/>
<rect x="540.200000" y="63.000000" width="232.200000" height="24.000000" rx="0" ry="0" style="stroke:none;fill:#cccccc;"/>
<rect x="539.200000" y="62.000000" width="232.200000" height="24.000000" rx="0" ry="0" style="stroke:none;fill:#477881;"/>
<text x="655.300000" y="76.000000" font-family="Arial" font-size="7" text-anchor="middle" fill="#FFFFFF">nentry(max pitch, 4.4e+02f, 48.9994f, 2093.0f, 0.001f)</text>
<circle cx="541.200000" cy="64.000000" r="1"/>
<line x1="530.200000" y1="53.000000" x2="530.200000" y2="95.000000"  style="stroke: black; stroke-linecap:round; stroke-width:0.25; stroke-dasharray:3,3;"/>
<line x1="530.200000" y1="95.000000" x2="780.400000" y2="95.000000"  style="stroke: black; stroke-linecap:round; stroke-width:0.25; stroke-dasharray:3,3;"/>
<line x1="780.400000" y1="95.000000" x2="780.400000" y2="53.000000"  style="stroke: black; stroke-linecap:round; stroke-width:0.25; stroke-dasharray:3,3;"/>
<line x1="530.200000" y1="53.000000" x2="535.200000" y2="53.000000"  style="stroke: black; stroke-linecap:round; stroke-width:0.25; stroke-dasharray:3,3;"/>
<line x1="577.125000" y1="53.000000" x2="780.400000" y2="53.000000"  style="stroke: black; stroke-linecap:round; stroke-width:0.25; stroke-dasharray:3,3;"/>
<text x="535.200000" y="55.000000" font-family="Arial" font-size="7">hgroup(OSC)</text>
<line x1="520.200000" y1="43.000000" x2="520.200000" y2="105.000000"  style="stroke: black; stroke-linecap:round; stroke-width:0.25; stroke-dasharray:3,3;"/>
<line x1="520.200000" y1="105.000000" x2="790.400000" y2="105.000000"  style="stroke: black; stroke-linecap:round; stroke-width:0.25; stroke-dasharray:3,3;"/>
<line x1="790.400000" y1="105.000000" x2="790.400000" y2="43.000000"  style="stroke: black; stroke-linecap:round; stroke-width:0.25; stroke-dasharray:3,3;"/>
<line x1="520.200000" y1="43.000000" x2="525.200000" y2="43.000000"  style="stroke: black; stroke-linecap:round; stroke-width:0.25; stroke-dasharray:3,3;"/>
<line x1="596.150000" y1="43.000000" x2="790.400000" y2="43.000000"  style="stroke: black; stroke-linecap:round; stroke-width:0.25; stroke-dasharray:3,3;"/>
<text x="525.200000" y="45.000000" font-family="Arial" font-size="7">vgroup(VoiceOfFaust)</text>
<line x1="510.200000" y1="33.000000" x2="510.200000" y2="115.000000"  style="stroke: black; stroke-linecap:round; stroke-width:0.25; stroke-dasharray:3,3;"/>
<line x1="510.200000" y1="115.000000" x2="800.400000" y2="115.000000"  style="stroke: black; stroke-linecap:round; stroke-width:0.25; stroke-dasharray:3,3;"/>
<line x1="800.400000" y1="115.000000" x2="800.400000" y2="33.000000"  style="stroke: black; stroke-linecap:round; stroke-width:0.25; stroke-dasharray:3,3;"/>
<line x1="510.200000" y1="33.000000" x2="515.200000" y2="33.000000"  style="stroke: black; stroke-linecap:round; stroke-width:0.25; stroke-dasharray:3,3;"/>
<line x1="557.125000" y1="33.000000" x2="800.400000" y2="33.000000"  style="stroke: black; stroke-linecap:round; stroke-width:0.25; stroke-dasharray:3,3;"/>
<text x="515.200000" y="35.000000" font-family="Arial" font-size="7">OSCmaxPitch</text>
<rect x="818.400000" y="59.000000" width="25.800000" height="24.000000" rx="0" ry="0" style="stroke:none;fill:#cccccc;"/>
<rect x="817.400000" y="58.000000" width="25.800000" height="24.000000" rx="0" ry="0" style="stroke:none;fill:#4B71A1;"/>
<text x="830.300000" y="72.000000" font-family="Arial" font-size="7" text-anchor="middle" fill="#FFFFFF">attach</text>
<circle cx="819.400000" cy="60.000000" r="1"/>
<line x1="814.400000" y1="65.000000" x2="817.400000" y2="66.000000"  transform="rotate(0.000000,817.400000,66.000000)" style="stroke: black; stroke-width:0.25;"/>
<line x1="814.400000" y1="67.000000" x2="817.400000" y2="66.000000"  transform="rotate(0.000000,817.400000,66.000000)" style="stroke: black; stroke-width:0.25;"/>
<line x1="814.400000" y1="73.000000" x2="817.400000" y2="74.000000"  transform="rotate(0.000000,817.400000,74.000000)" style="stroke: black; stroke-width:0.25;"/>
<line x1="814.400000" y1="75.000000" x2="817.400000" y2="74.000000"  transform="rotate(0.000000,817.400000,74.000000)" style="stroke: black; stroke-width:0.25;"/>
<line x1="15.000000" y1="15.000000" x2="15.000000" y2="125.000000"  style="stroke: black; stroke-linecap:round; stroke-width:0.25; stroke-dasharray:3,3;"/>
<line x1="15.000000" y1="125.000000" x2="860.200000" y2="125.000000"  style="stroke: black; stroke-linecap:round; stroke-width:0.25; stroke-dasharray:3,3;"/>
<line x1="860.200000" y1="125.000000" x2="860.200000" y2="15.000000"  style="stroke: black; stroke-linecap:round; stroke-width:0.25; stroke-dasharray:3,3;"/>
<line x1="15.000000" y1="15.000000" x2="20.000000" y2="15.000000"  style="stroke: black; stroke-linecap:round; stroke-width:0.25; stroke-dasharray:3,3;"/>
<line x1="119.975000" y1="15.000000" x2="860.200000" y2="15.000000"  style="stroke: black; stroke-linecap:round; stroke-width:0.25; stroke-dasharray:3,3;"/>
<text x="20.000000" y="17.000000" font-family="Arial" font-size="7">masterPitch(x..., lenv = {}])</text>
<line x1="862.200000" y1="69.000000" x2="865.200000" y2="70.000000"  transform="rotate(0.000000,865.200000,70.000000)" style="stroke: black; stroke-width:0.25;"/>
<line x1="862.200000" y1="71.000000" x2="865.200000" y2="70.000000"  transform="rotate(0.000000,865.200000,70.000000)" style="stroke: black; stroke-width:0.25;"/>
<line x1="75.600000" y1="102.000000" x2="79.600000" y2="102.000000"  style="stroke:black; stroke-linecap:round; stroke-width:0.25;"/>
<line x1="79.600000" y1="102.000000" x2="86.050000" y2="102.000000"  style="stroke:black; stroke-linecap:round; stroke-width:0.25;"/>
<line x1="82.050000" y1="70.000000" x2="86.050000" y2="70.000000"  style="stroke:black; stroke-linecap:round; stroke-width:0.25;"/>
<line x1="86.050000" y1="70.000000" x2="92.500000" y2="70.000000"  style="stroke:black; stroke-linecap:round; stroke-width:0.25;"/>
<line x1="86.050000" y1="102.000000" x2="92.500000" y2="102.000000"  style="stroke:black; stroke-linecap:round; stroke-width:0.25;"/>
<line x1="88.500000" y1="38.000000" x2="92.500000" y2="38.000000"  style="stroke:black; stroke-linecap:round; stroke-width:0.25;"/>
<line x1="92.500000" y1="38.000000" x2="100.500000" y2="38.000000"  style="stroke:black; stroke-linecap:round; stroke-width:0.25;"/>
<line x1="92.500000" y1="70.000000" x2="100.500000" y2="70.000000"  style="stroke:black; stroke-linecap:round; stroke-width:0.25;"/>
<line x1="92.500000" y1="78.000000" x2="100.500000" y2="78.000000"  style="stroke:black; stroke-linecap:round; stroke-width:0.25;"/>
<line x1="92.500000" y1="102.000000" x2="92.500000" y2="78.000000"  style="stroke:black; stroke-linecap:round; stroke-width:0.25;"/>
<line x1="92.500000" y1="102.000000" x2="92.500000" y2="102.000000"  style="stroke:black; stroke-linecap:round; stroke-width:0.25;"/>
<line x1="100.500000" y1="38.000000" x2="100.500000" y2="62.000000"  style="stroke:black; stroke-linecap:round; stroke-width:0.25;"/>
<line x1="100.500000" y1="62.000000" x2="100.500000" y2="62.000000"  style="stroke:black; stroke-linecap:round; stroke-width:0.25;"/>
<line x1="100.500000" y1="62.000000" x2="104.500000" y2="62.000000"  style="stroke:black; stroke-linecap:round; stroke-width:0.25;"/>
<line x1="100.500000" y1="70.000000" x2="104.500000" y2="70.000000"  style="stroke:black; stroke-linecap:round; stroke-width:0.25;"/>
<line x1="100.500000" y1="78.000000" x2="104.500000" y2="78.000000"  style="stroke:black; stroke-linecap:round; stroke-width:0.25;"/>
<line x1="143.200000" y1="70.000000" x2="147.200000" y2="70.000000"  style="stroke:black; stroke-linecap:round; stroke-width:0.25;"/>
<line x1="147.200000" y1="24.000000" x2="155.200000" y2="24.000000"  style="stroke:black; stroke-linecap:round; stroke-width:0.25;"/>
<line x1="147.200000" y1="70.000000" x2="147.200000" y2="24.000000"  style="stroke:black; stroke-linecap:round; stroke-width:0.25;"/>
<line x1="147.200000" y1="70.000000" x2="147.200000" y2="70.000000"  style="stroke:black; stroke-linecap:round; stroke-width:0.25;"/>
<line x1="155.200000" y1="24.000000" x2="305.300000" y2="24.000000"  style="stroke:black; stroke-linecap:round; stroke-width:0.25;"/>
<line x1="305.300000" y1="24.000000" x2="455.400000" y2="24.000000"  style="stroke:black; stroke-linecap:round; stroke-width:0.25;"/>
<line x1="421.400000" y1="74.000000" x2="425.400000" y2="74.000000"  style="stroke:black; stroke-linecap:round; stroke-width:0.25;"/>
<line x1="425.400000" y1="74.000000" x2="435.400000" y2="74.000000"  style="stroke:black; stroke-linecap:round; stroke-width:0.25;"/>
<line x1="435.400000" y1="74.000000" x2="445.400000" y2="74.000000"  style="stroke:black; stroke-linecap:round; stroke-width:0.25;"/>
<line x1="445.400000" y1="74.000000" x2="455.400000" y2="74.000000"  style="stroke:black; stroke-linecap:round; stroke-width:0.25;"/>
<line x1="455.400000" y1="24.000000" x2="463.400000" y2="24.000000"  style="stroke:black; stroke-linecap:round; stroke-width:0.25;"/>
<line x1="455.400000" y1="74.000000" x2="463.400000" y2="74.000000"  style="stroke:black; stroke-linecap:round; stroke-width:0.25;"/>
<line x1="463.400000" y1="24.000000" x2="463.400000" y2="66.000000"  style="stroke:black; stroke-linecap:round; stroke-width:0.25;"/>
<line x1="463.400000" y1="66.000000" x2="463.400000" y2="66.000000"  style="stroke:black; stroke-linecap:round; stroke-width:0.25;"/>
<line x1="463.400000" y1="66.000000" x2="467.400000" y2="66.000000"  style="stroke:black; stroke-linecap:round; stroke-width:0.25;"/>
<line x1="463.400000" y1="74.000000" x2="467.400000" y2="74.000000"  style="stroke:black; stroke-linecap:round; stroke-width:0.25;"/>
<line x1="493.200000" y1="70.000000" x2="497.200000" y2="70.000000"  style="stroke:black; stroke-linecap:round; stroke-width:0.25;"/>
<line x1="497.200000" y1="24.000000" x2="505.200000" y2="24.000000"  style="stroke:black; stroke-linecap:round; stroke-width:0.25;"/>
<line x1="497.200000" y1="70.000000" x2="497.200000" y2="24.000000"  style="stroke:black; stroke-linecap:round; stroke-width:0.25;"/>
<line x1="497.200000" y1="70.000000" x2="497.200000" y2="70.000000"  style="stroke:black; stroke-linecap:round; stroke-width:0.25;"/>
<line x1="505.200000" y1="24.000000" x2="655.300000" y2="24.000000"  style="stroke:black; stroke-linecap:round; stroke-width:0.25;"/>
<line x1="655.300000" y1="24.000000" x2="805.400000" y2="24.000000"  style="stroke:black; stroke-linecap:round; stroke-width:0.25;"/>
<line x1="771.400000" y1="74.000000" x2="775.400000" y2="74.000000"  style="stroke:black; stroke-linecap:round; stroke-width:0.25;"/>
<line x1="775.400000" y1="74.000000" x2="785.400000" y2="74.000000"  style="stroke:black; stroke-linecap:round; stroke-width:0.25;"/>
<line x1="785.400000" y1="74.000000" x2="795.400000" y2="74.000000"  style="stroke:black; stroke-linecap:round; stroke-width:0.25;"/>
<line x1="795.400000" y1="74.000000" x2="805.400000" y2="74.000000"  style="stroke:black; stroke-linecap:round; stroke-width:0.25;"/>
<line x1="805.400000" y1="24.000000" x2="813.400000" y2="24.000000"  style="stroke:black; stroke-linecap:round; stroke-width:0.25;"/>
<line x1="805.400000" y1="74.000000" x2="813.400000" y2="74.000000"  style="stroke:black; stroke-linecap:round; stroke-width:0.25;"/>
<line x1="813.400000" y1="24.000000" x2="813.400000" y2="66.000000"  style="stroke:black; stroke-linecap:round; stroke-width:0.25;"/>
<line x1="813.400000" y1="66.000000" x2="813.400000" y2="66.000000"  style="stroke:black; stroke-linecap:round; stroke-width:0.25;"/>
<line x1="813.400000" y1="66.000000" x2="817.400000" y2="66.000000"  style="stroke:black; stroke-linecap:round; stroke-width:0.25;"/>
<line x1="813.400000" y1="74.000000" x2="817.400000" y2="74.000000"  style="stroke:black; stroke-linecap:round; stroke-width:0.25;"/>
<line x1="843.200000" y1="70.000000" x2="847.200000" y2="70.000000"  style="stroke:black; stroke-linecap:round; stroke-width:0.25;"/>
<line x1="847.200000" y1="70.000000" x2="847.200000" y2="70.000000"  style="stroke:black; stroke-linecap:round; stroke-width:0.25;"/>
<line x1="847.200000" y1="70.000000" x2="851.200000" y2="70.000000"  style="stroke:black; stroke-linecap:round; stroke-width:0.25;"/>
<line x1="851.200000" y1="70.000000" x2="855.200000" y2="70.000000"  style="stroke:black; stroke-linecap:round; stroke-width:0.25;"/>
<line x1="855.200000" y1="70.000000" x2="865.200000" y2="70.000000"  style="stroke:black; stroke-linecap:round; stroke-width:0.25;"/>
</svg>
