<?xml version="1.0"?>
<svg xmlns="http://www.w3.org/2000/svg" xmlns:xlink="http://www.w3.org/1999/xlink" viewBox="0 0 870.000000 72.000000" width="435.000000mm" height="36.000000mm" version="1.1">
<a xlink:href="voice-0x24d75aa0.svg">
<rect x="1.000000" y="1.000000" width="869.000000" height="71.000000" rx="0" ry="0" style="stroke:none;fill:#cccccc;"/>
<rect x="0.000000" y="0.000000" width="869.000000" height="71.000000" rx="0" ry="0" style="stroke:none;fill:#ffffff;"/>
</a>
<text x="10.000000" y="7.000000" font-family="Arial" font-size="7"></text>
<rect x="25.000000" y="25.000000" width="25.800000" height="24.000000" rx="0" ry="0" style="stroke:none;fill:#cccccc;"/>
<rect x="24.000000" y="24.000000" width="25.800000" height="24.000000" rx="0" ry="0" style="stroke:none;fill:#47945E;"/>
<text x="36.900000" y="38.000000" font-family="Arial" font-size="7" text-anchor="middle" fill="#FFFFFF">audio</text>
<circle cx="26.000000" cy="26.000000" r="1"/>
<a xlink:href="highpass-0x24d75200.svg">
<rect x="58.800000" y="25.000000" width="129.000000" height="24.000000" rx="0" ry="0" style="stroke:none;fill:#cccccc;"/>
<rect x="57.800000" y="24.000000" width="129.000000" height="24.000000" rx="0" ry="0" style="stroke:none;fill:#003366;"/>
</a>
<a xlink:href="highpass-0x24d75200.svg">
<text x="122.300000" y="38.000000" font-family="Arial" font-size="7" text-anchor="middle" fill="#FFFFFF">highpass(2)((...h),0.75f : *)</text>
</a>
<circle cx="59.800000" cy="26.000000" r="1"/>
<line x1="54.800000" y1="35.000000" x2="57.800000" y2="36.000000"  transform="rotate(0.000000,57.800000,36.000000)" style="stroke: black; stroke-width:0.25;"/>
<line x1="54.800000" y1="37.000000" x2="57.800000" y2="36.000000"  transform="rotate(0.000000,57.800000,36.000000)" style="stroke: black; stroke-width:0.25;"/>
<a xlink:href="tf2-0x2434da10.svg">
<rect x="195.800000" y="25.000000" width="154.800000" height="24.000000" rx="0" ry="0" style="stroke:none;fill:#cccccc;"/>
<rect x="194.800000" y="24.000000" width="154.800000" height="24.000000" rx="0" ry="0" style="stroke:none;fill:#003366;"/>
</a>
<a xlink:href="tf2-0x2434da10.svg">
<text x="272.200000" y="38.000000" font-family="Arial" font-size="7" text-anchor="middle" fill="#FFFFFF">tf2(0.161758f)(0)(-1)(0)(-0.161758f)</text>
</a>
<circle cx="196.800000" cy="26.000000" r="1"/>
<line x1="191.800000" y1="35.000000" x2="194.800000" y2="36.000000"  transform="rotate(0.000000,194.800000,36.000000)" style="stroke: black; stroke-width:0.25;"/>
<line x1="191.800000" y1="37.000000" x2="194.800000" y2="36.000000"  transform="rotate(0.000000,194.800000,36.000000)" style="stroke: black; stroke-width:0.25;"/>
<a xlink:href="tf2-0x2434ff80.svg">
<rect x="358.600000" y="25.000000" width="154.800000" height="24.000000" rx="0" ry="0" style="stroke:none;fill:#cccccc;"/>
<rect x="357.600000" y="24.000000" width="154.800000" height="24.000000" rx="0" ry="0" style="stroke:none;fill:#003366;"/>
</a>
<a xlink:href="tf2-0x2434ff80.svg">
<text x="435.000000" y="38.000000" font-family="Arial" font-size="7" text-anchor="middle" fill="#FFFFFF">tf2(0.733029f)(0)(-1)(0)(-0.733029f)</text>
</a>
<circle cx="359.600000" cy="26.000000" r="1"/>
<line x1="354.600000" y1="35.000000" x2="357.600000" y2="36.000000"  transform="rotate(0.000000,357.600000,36.000000)" style="stroke: black; stroke-width:0.25;"/>
<line x1="354.600000" y1="37.000000" x2="357.600000" y2="36.000000"  transform="rotate(0.000000,357.600000,36.000000)" style="stroke: black; stroke-width:0.25;"/>
<a xlink:href="tf2-0x24350180.svg">
<rect x="521.400000" y="25.000000" width="154.800000" height="24.000000" rx="0" ry="0" style="stroke:none;fill:#cccccc;"/>
<rect x="520.400000" y="24.000000" width="154.800000" height="24.000000" rx="0" ry="0" style="stroke:none;fill:#003366;"/>
</a>
<a xlink:href="tf2-0x24350180.svg">
<text x="597.800000" y="38.000000" font-family="Arial" font-size="7" text-anchor="middle" fill="#FFFFFF">tf2(0.94535f)(0)(-1)(0)(-0.94535f)</text>
</a>
<circle cx="522.400000" cy="26.000000" r="1"/>
<line x1="517.400000" y1="35.000000" x2="520.400000" y2="36.000000"  transform="rotate(0.000000,520.400000,36.000000)" style="stroke: black; stroke-width:0.25;"/>
<line x1="517.400000" y1="37.000000" x2="520.400000" y2="36.000000"  transform="rotate(0.000000,520.400000,36.000000)" style="stroke: black; stroke-width:0.25;"/>
<a xlink:href="tf2-0x243503a0.svg">
<rect x="684.200000" y="25.000000" width="154.800000" height="24.000000" rx="0" ry="0" style="stroke:none;fill:#cccccc;"/>
<rect x="683.200000" y="24.000000" width="154.800000" height="24.000000" rx="0" ry="0" style="stroke:none;fill:#003366;"/>
</a>
<a xlink:href="tf2-0x243503a0.svg">
<text x="760.600000" y="38.000000" font-family="Arial" font-size="7" text-anchor="middle" fill="#FFFFFF">tf2(0.990598f)(0)(-1)(0)(-0.990598f)</text>
</a>
<circle cx="685.200000" cy="26.000000" r="1"/>
<line x1="680.200000" y1="35.000000" x2="683.200000" y2="36.000000"  transform="rotate(0.000000,683.200000,36.000000)" style="stroke: black; stroke-width:0.25;"/>
<line x1="680.200000" y1="37.000000" x2="683.200000" y2="36.000000"  transform="rotate(0.000000,683.200000,36.000000)" style="stroke: black; stroke-width:0.25;"/>
<line x1="15.000000" y1="15.000000" x2="15.000000" y2="57.000000"  style="stroke: black; stroke-linecap:round; stroke-width:0.25; stroke-dasharray:3,3;"/>
<line x1="15.000000" y1="57.000000" x2="855.000000" y2="57.000000"  style="stroke: black; stroke-linecap:round; stroke-width:0.25; stroke-dasharray:3,3;"/>
<line x1="855.000000" y1="57.000000" x2="855.000000" y2="15.000000"  style="stroke: black; stroke-linecap:round; stroke-width:0.25; stroke-dasharray:3,3;"/>
<line x1="15.000000" y1="15.000000" x2="20.000000" y2="15.000000"  style="stroke: black; stroke-linecap:round; stroke-width:0.25; stroke-dasharray:3,3;"/>
<line x1="119.975000" y1="15.000000" x2="855.000000" y2="15.000000"  style="stroke: black; stroke-linecap:round; stroke-width:0.25; stroke-dasharray:3,3;"/>
<text x="20.000000" y="17.000000" font-family="Arial" font-size="7">olli1(x1 : _ ...: /) : *):&gt;_)</text>
<line x1="857.000000" y1="35.000000" x2="860.000000" y2="36.000000"  transform="rotate(0.000000,860.000000,36.000000)" style="stroke: black; stroke-width:0.25;"/>
<line x1="857.000000" y1="37.000000" x2="860.000000" y2="36.000000"  transform="rotate(0.000000,860.000000,36.000000)" style="stroke: black; stroke-width:0.25;"/>
<line x1="49.800000" y1="36.000000" x2="53.800000" y2="36.000000"  style="stroke:black; stroke-linecap:round; stroke-width:0.25;"/>
<line x1="53.800000" y1="36.000000" x2="53.800000" y2="36.000000"  style="stroke:black; stroke-linecap:round; stroke-width:0.25;"/>
<line x1="53.800000" y1="36.000000" x2="57.800000" y2="36.000000"  style="stroke:black; stroke-linecap:round; stroke-width:0.25;"/>
<line x1="186.800000" y1="36.000000" x2="190.800000" y2="36.000000"  style="stroke:black; stroke-linecap:round; stroke-width:0.25;"/>
<line x1="190.800000" y1="36.000000" x2="190.800000" y2="36.000000"  style="stroke:black; stroke-linecap:round; stroke-width:0.25;"/>
<line x1="190.800000" y1="36.000000" x2="194.800000" y2="36.000000"  style="stroke:black; stroke-linecap:round; stroke-width:0.25;"/>
<line x1="349.600000" y1="36.000000" x2="353.600000" y2="36.000000"  style="stroke:black; stroke-linecap:round; stroke-width:0.25;"/>
<line x1="353.600000" y1="36.000000" x2="353.600000" y2="36.000000"  style="stroke:black; stroke-linecap:round; stroke-width:0.25;"/>
<line x1="353.600000" y1="36.000000" x2="357.600000" y2="36.000000"  style="stroke:black; stroke-linecap:round; stroke-width:0.25;"/>
<line x1="512.400000" y1="36.000000" x2="516.400000" y2="36.000000"  style="stroke:black; stroke-linecap:round; stroke-width:0.25;"/>
<line x1="516.400000" y1="36.000000" x2="516.400000" y2="36.000000"  style="stroke:black; stroke-linecap:round; stroke-width:0.25;"/>
<line x1="516.400000" y1="36.000000" x2="520.400000" y2="36.000000"  style="stroke:black; stroke-linecap:round; stroke-width:0.25;"/>
<line x1="675.200000" y1="36.000000" x2="679.200000" y2="36.000000"  style="stroke:black; stroke-linecap:round; stroke-width:0.25;"/>
<line x1="679.200000" y1="36.000000" x2="679.200000" y2="36.000000"  style="stroke:black; stroke-linecap:round; stroke-width:0.25;"/>
<line x1="679.200000" y1="36.000000" x2="683.200000" y2="36.000000"  style="stroke:black; stroke-linecap:round; stroke-width:0.25;"/>
<line x1="838.000000" y1="36.000000" x2="842.000000" y2="36.000000"  style="stroke:black; stroke-linecap:round; stroke-width:0.25;"/>
<line x1="842.000000" y1="36.000000" x2="842.000000" y2="36.000000"  style="stroke:black; stroke-linecap:round; stroke-width:0.25;"/>
<line x1="842.000000" y1="36.000000" x2="846.000000" y2="36.000000"  style="stroke:black; stroke-linecap:round; stroke-width:0.25;"/>
<line x1="846.000000" y1="36.000000" x2="850.000000" y2="36.000000"  style="stroke:black; stroke-linecap:round; stroke-width:0.25;"/>
<line x1="850.000000" y1="36.000000" x2="860.000000" y2="36.000000"  style="stroke:black; stroke-linecap:round; stroke-width:0.25;"/>
</svg>
