<?xml version="1.0"?>
<svg xmlns="http://www.w3.org/2000/svg" xmlns:xlink="http://www.w3.org/1999/xlink" viewBox="0 0 487.400000 172.000000" width="243.700000mm" height="86.000000mm" version="1.1">
<a xlink:href="midToTopVal-0x14af0c90.svg">
<rect x="1.000000" y="1.000000" width="486.400000" height="171.000000" rx="0" ry="0" style="stroke:none;fill:#cccccc;"/>
<rect x="0.000000" y="0.000000" width="486.400000" height="171.000000" rx="0" ry="0" style="stroke:none;fill:#ffffff;"/>
</a>
<text x="10.000000" y="7.000000" font-family="Arial" font-size="7"></text>
<rect x="45.000000" y="75.000000" width="245.100000" height="24.000000" rx="0" ry="0" style="stroke:none;fill:#cccccc;"/>
<rect x="44.000000" y="74.000000" width="245.100000" height="24.000000" rx="0" ry="0" style="stroke:none;fill:#477881;"/>
<text x="166.550000" y="88.000000" font-family="Arial" font-size="7" text-anchor="middle" fill="#FFFFFF">vslider(phase noise amount top, 0.0f, 0.0f, 1.0f, 0.001f)</text>
<circle cx="46.000000" cy="76.000000" r="1"/>
<rect x="319.250000" y="63.000000" width="24.000000" height="24.000000" rx="0" ry="0" style="stroke:none;fill:#cccccc;"/>
<rect x="318.250000" y="62.000000" width="24.000000" height="24.000000" rx="0" ry="0" style="stroke:none;fill:#f44800;"/>
<text x="330.250000" y="76.000000" font-family="Arial" font-size="7" text-anchor="middle" fill="#FFFFFF">2</text>
<circle cx="320.250000" cy="64.000000" r="1"/>
<line x1="309.250000" y1="53.000000" x2="309.250000" y2="95.000000"  style="stroke: black; stroke-linecap:round; stroke-width:0.25; stroke-dasharray:3,3;"/>
<line x1="309.250000" y1="95.000000" x2="351.250000" y2="95.000000"  style="stroke: black; stroke-linecap:round; stroke-width:0.25; stroke-dasharray:3,3;"/>
<line x1="351.250000" y1="95.000000" x2="351.250000" y2="53.000000"  style="stroke: black; stroke-linecap:round; stroke-width:0.25; stroke-dasharray:3,3;"/>
<line x1="309.250000" y1="53.000000" x2="314.250000" y2="53.000000"  style="stroke: black; stroke-linecap:round; stroke-width:0.25; stroke-dasharray:3,3;"/>
<line x1="323.925000" y1="53.000000" x2="351.250000" y2="53.000000"  style="stroke: black; stroke-linecap:round; stroke-width:0.25; stroke-dasharray:3,3;"/>
<text x="314.250000" y="55.000000" font-family="Arial" font-size="7">M</text>
<rect x="369.250000" y="59.000000" width="24.000000" height="24.000000" rx="0" ry="0" style="stroke:none;fill:#cccccc;"/>
<rect x="368.250000" y="58.000000" width="24.000000" height="24.000000" rx="0" ry="0" style="stroke:none;fill:#4B71A1;"/>
<text x="380.250000" y="72.000000" font-family="Arial" font-size="7" text-anchor="middle" fill="#FFFFFF">pow</text>
<circle cx="370.250000" cy="60.000000" r="1"/>
<line x1="365.250000" y1="65.000000" x2="368.250000" y2="66.000000"  transform="rotate(0.000000,368.250000,66.000000)" style="stroke: black; stroke-width:0.25;"/>
<line x1="365.250000" y1="67.000000" x2="368.250000" y2="66.000000"  transform="rotate(0.000000,368.250000,66.000000)" style="stroke: black; stroke-width:0.25;"/>
<line x1="365.250000" y1="73.000000" x2="368.250000" y2="74.000000"  transform="rotate(0.000000,368.250000,74.000000)" style="stroke: black; stroke-width:0.25;"/>
<line x1="365.250000" y1="75.000000" x2="368.250000" y2="74.000000"  transform="rotate(0.000000,368.250000,74.000000)" style="stroke: black; stroke-width:0.25;"/>
<a xlink:href="phaseNoiseAmount-0x14a4a7f0.svg">
<rect x="306.100000" y="105.000000" width="90.300000" height="24.000000" rx="0" ry="0" style="stroke:none;fill:#cccccc;"/>
<rect x="305.100000" y="104.000000" width="90.300000" height="24.000000" rx="0" ry="0" style="stroke:none;fill:#003366;"/>
</a>
<a xlink:href="phaseNoiseAmount-0x14a4a7f0.svg">
<text x="350.250000" y="118.000000" font-family="Arial" font-size="7" text-anchor="middle" fill="#FFFFFF">phaseNoiseAmountScale</text>
</a>
<circle cx="307.100000" cy="106.000000" r="1"/>
<rect x="412.400000" y="75.000000" width="24.000000" height="24.000000" rx="0" ry="0" style="stroke:none;fill:#cccccc;"/>
<rect x="411.400000" y="74.000000" width="24.000000" height="24.000000" rx="0" ry="0" style="stroke:none;fill:#4B71A1;"/>
<text x="423.400000" y="88.000000" font-family="Arial" font-size="7" text-anchor="middle" fill="#FFFFFF">*</text>
<circle cx="413.400000" cy="76.000000" r="1"/>
<line x1="408.400000" y1="81.000000" x2="411.400000" y2="82.000000"  transform="rotate(0.000000,411.400000,82.000000)" style="stroke: black; stroke-width:0.25;"/>
<line x1="408.400000" y1="83.000000" x2="411.400000" y2="82.000000"  transform="rotate(0.000000,411.400000,82.000000)" style="stroke: black; stroke-width:0.25;"/>
<line x1="408.400000" y1="89.000000" x2="411.400000" y2="90.000000"  transform="rotate(0.000000,411.400000,90.000000)" style="stroke: black; stroke-width:0.25;"/>
<line x1="408.400000" y1="91.000000" x2="411.400000" y2="90.000000"  transform="rotate(0.000000,411.400000,90.000000)" style="stroke: black; stroke-width:0.25;"/>
<line x1="35.000000" y1="35.000000" x2="35.000000" y2="137.000000"  style="stroke: black; stroke-linecap:round; stroke-width:0.25; stroke-dasharray:3,3;"/>
<line x1="35.000000" y1="137.000000" x2="444.400000" y2="137.000000"  style="stroke: black; stroke-linecap:round; stroke-width:0.25; stroke-dasharray:3,3;"/>
<line x1="444.400000" y1="137.000000" x2="444.400000" y2="35.000000"  style="stroke: black; stroke-linecap:round; stroke-width:0.25; stroke-dasharray:3,3;"/>
<line x1="35.000000" y1="35.000000" x2="40.000000" y2="35.000000"  style="stroke: black; stroke-linecap:round; stroke-width:0.25; stroke-dasharray:3,3;"/>
<line x1="123.850000" y1="35.000000" x2="444.400000" y2="35.000000"  style="stroke: black; stroke-linecap:round; stroke-width:0.25; stroke-dasharray:3,3;"/>
<text x="40.000000" y="37.000000" font-family="Arial" font-size="7">vgroup(high frequencies)</text>
<line x1="25.000000" y1="25.000000" x2="25.000000" y2="147.000000"  style="stroke: black; stroke-linecap:round; stroke-width:0.25; stroke-dasharray:3,3;"/>
<line x1="25.000000" y1="147.000000" x2="454.400000" y2="147.000000"  style="stroke: black; stroke-linecap:round; stroke-width:0.25; stroke-dasharray:3,3;"/>
<line x1="454.400000" y1="147.000000" x2="454.400000" y2="25.000000"  style="stroke: black; stroke-linecap:round; stroke-width:0.25; stroke-dasharray:3,3;"/>
<line x1="25.000000" y1="25.000000" x2="30.000000" y2="25.000000"  style="stroke: black; stroke-linecap:round; stroke-width:0.25; stroke-dasharray:3,3;"/>
<line x1="94.500000" y1="25.000000" x2="454.400000" y2="25.000000"  style="stroke: black; stroke-linecap:round; stroke-width:0.25; stroke-dasharray:3,3;"/>
<text x="30.000000" y="27.000000" font-family="Arial" font-size="7">hgroup(parameters)</text>
<line x1="15.000000" y1="15.000000" x2="15.000000" y2="157.000000"  style="stroke: black; stroke-linecap:round; stroke-width:0.25; stroke-dasharray:3,3;"/>
<line x1="15.000000" y1="157.000000" x2="472.400000" y2="157.000000"  style="stroke: black; stroke-linecap:round; stroke-width:0.25; stroke-dasharray:3,3;"/>
<line x1="472.400000" y1="157.000000" x2="472.400000" y2="15.000000"  style="stroke: black; stroke-linecap:round; stroke-width:0.25; stroke-dasharray:3,3;"/>
<line x1="15.000000" y1="15.000000" x2="20.000000" y2="15.000000"  style="stroke: black; stroke-linecap:round; stroke-width:0.25; stroke-dasharray:3,3;"/>
<line x1="87.725000" y1="15.000000" x2="472.400000" y2="15.000000"  style="stroke: black; stroke-linecap:round; stroke-width:0.25; stroke-dasharray:3,3;"/>
<text x="20.000000" y="17.000000" font-family="Arial" font-size="7">phaseNoiseAmountTop</text>
<line x1="474.400000" y1="85.000000" x2="477.400000" y2="86.000000"  transform="rotate(0.000000,477.400000,86.000000)" style="stroke: black; stroke-width:0.25;"/>
<line x1="474.400000" y1="87.000000" x2="477.400000" y2="86.000000"  transform="rotate(0.000000,477.400000,86.000000)" style="stroke: black; stroke-width:0.25;"/>
<line x1="289.100000" y1="86.000000" x2="293.100000" y2="86.000000"  style="stroke:black; stroke-linecap:round; stroke-width:0.25;"/>
<line x1="293.100000" y1="44.000000" x2="301.100000" y2="44.000000"  style="stroke:black; stroke-linecap:round; stroke-width:0.25;"/>
<line x1="293.100000" y1="86.000000" x2="293.100000" y2="44.000000"  style="stroke:black; stroke-linecap:round; stroke-width:0.25;"/>
<line x1="293.100000" y1="86.000000" x2="293.100000" y2="86.000000"  style="stroke:black; stroke-linecap:round; stroke-width:0.25;"/>
<line x1="301.100000" y1="44.000000" x2="304.250000" y2="44.000000"  style="stroke:black; stroke-linecap:round; stroke-width:0.25;"/>
<line x1="304.250000" y1="44.000000" x2="330.250000" y2="44.000000"  style="stroke:black; stroke-linecap:round; stroke-width:0.25;"/>
<line x1="330.250000" y1="44.000000" x2="356.250000" y2="44.000000"  style="stroke:black; stroke-linecap:round; stroke-width:0.25;"/>
<line x1="342.250000" y1="74.000000" x2="346.250000" y2="74.000000"  style="stroke:black; stroke-linecap:round; stroke-width:0.25;"/>
<line x1="346.250000" y1="74.000000" x2="356.250000" y2="74.000000"  style="stroke:black; stroke-linecap:round; stroke-width:0.25;"/>
<line x1="356.250000" y1="44.000000" x2="364.250000" y2="44.000000"  style="stroke:black; stroke-linecap:round; stroke-width:0.25;"/>
<line x1="356.250000" y1="74.000000" x2="364.250000" y2="74.000000"  style="stroke:black; stroke-linecap:round; stroke-width:0.25;"/>
<line x1="364.250000" y1="44.000000" x2="364.250000" y2="66.000000"  style="stroke:black; stroke-linecap:round; stroke-width:0.25;"/>
<line x1="364.250000" y1="66.000000" x2="364.250000" y2="66.000000"  style="stroke:black; stroke-linecap:round; stroke-width:0.25;"/>
<line x1="364.250000" y1="66.000000" x2="368.250000" y2="66.000000"  style="stroke:black; stroke-linecap:round; stroke-width:0.25;"/>
<line x1="364.250000" y1="74.000000" x2="368.250000" y2="74.000000"  style="stroke:black; stroke-linecap:round; stroke-width:0.25;"/>
<line x1="392.250000" y1="70.000000" x2="396.250000" y2="70.000000"  style="stroke:black; stroke-linecap:round; stroke-width:0.25;"/>
<line x1="395.400000" y1="116.000000" x2="399.400000" y2="116.000000"  style="stroke:black; stroke-linecap:round; stroke-width:0.25;"/>
<line x1="396.250000" y1="70.000000" x2="399.400000" y2="70.000000"  style="stroke:black; stroke-linecap:round; stroke-width:0.25;"/>
<line x1="399.400000" y1="70.000000" x2="407.400000" y2="70.000000"  style="stroke:black; stroke-linecap:round; stroke-width:0.25;"/>
<line x1="399.400000" y1="90.000000" x2="407.400000" y2="90.000000"  style="stroke:black; stroke-linecap:round; stroke-width:0.25;"/>
<line x1="399.400000" y1="116.000000" x2="399.400000" y2="90.000000"  style="stroke:black; stroke-linecap:round; stroke-width:0.25;"/>
<line x1="399.400000" y1="116.000000" x2="399.400000" y2="116.000000"  style="stroke:black; stroke-linecap:round; stroke-width:0.25;"/>
<line x1="407.400000" y1="70.000000" x2="407.400000" y2="82.000000"  style="stroke:black; stroke-linecap:round; stroke-width:0.25;"/>
<line x1="407.400000" y1="82.000000" x2="407.400000" y2="82.000000"  style="stroke:black; stroke-linecap:round; stroke-width:0.25;"/>
<line x1="407.400000" y1="82.000000" x2="411.400000" y2="82.000000"  style="stroke:black; stroke-linecap:round; stroke-width:0.25;"/>
<line x1="407.400000" y1="90.000000" x2="411.400000" y2="90.000000"  style="stroke:black; stroke-linecap:round; stroke-width:0.25;"/>
<line x1="435.400000" y1="86.000000" x2="439.400000" y2="86.000000"  style="stroke:black; stroke-linecap:round; stroke-width:0.25;"/>
<line x1="439.400000" y1="86.000000" x2="449.400000" y2="86.000000"  style="stroke:black; stroke-linecap:round; stroke-width:0.25;"/>
<line x1="449.400000" y1="86.000000" x2="459.400000" y2="86.000000"  style="stroke:black; stroke-linecap:round; stroke-width:0.25;"/>
<line x1="459.400000" y1="86.000000" x2="459.400000" y2="86.000000"  style="stroke:black; stroke-linecap:round; stroke-width:0.25;"/>
<line x1="459.400000" y1="86.000000" x2="463.400000" y2="86.000000"  style="stroke:black; stroke-linecap:round; stroke-width:0.25;"/>
<line x1="463.400000" y1="86.000000" x2="467.400000" y2="86.000000"  style="stroke:black; stroke-linecap:round; stroke-width:0.25;"/>
<line x1="467.400000" y1="86.000000" x2="477.400000" y2="86.000000"  style="stroke:black; stroke-linecap:round; stroke-width:0.25;"/>
</svg>
