<?xml version="1.0"?>
<svg xmlns="http://www.w3.org/2000/svg" xmlns:xlink="http://www.w3.org/1999/xlink" viewBox="0 0 260.000000 312.000000" width="130.000000mm" height="156.000000mm" version="1.1">
<a xlink:href="resonbpStable-0x1cfdab20.svg">
<rect x="1.000000" y="1.000000" width="259.000000" height="311.000000" rx="0" ry="0" style="stroke:none;fill:#cccccc;"/>
<rect x="0.000000" y="0.000000" width="259.000000" height="311.000000" rx="0" ry="0" style="stroke:none;fill:#ffffff;"/>
</a>
<text x="10.000000" y="7.000000" font-family="Arial" font-size="7"></text>
<rect x="75.000000" y="35.000000" width="24.000000" height="24.000000" rx="0" ry="0" style="stroke:none;fill:#cccccc;"/>
<rect x="74.000000" y="34.000000" width="24.000000" height="24.000000" rx="0" ry="0" style="stroke:none;fill:#f44800;"/>
<text x="86.000000" y="48.000000" font-family="Arial" font-size="7" text-anchor="middle" fill="#FFFFFF">0</text>
<circle cx="76.000000" cy="36.000000" r="1"/>
<line x1="65.000000" y1="25.000000" x2="65.000000" y2="67.000000"  style="stroke: black; stroke-linecap:round; stroke-width:0.25; stroke-dasharray:3,3;"/>
<line x1="65.000000" y1="67.000000" x2="107.000000" y2="67.000000"  style="stroke: black; stroke-linecap:round; stroke-width:0.25; stroke-dasharray:3,3;"/>
<line x1="107.000000" y1="67.000000" x2="107.000000" y2="25.000000"  style="stroke: black; stroke-linecap:round; stroke-width:0.25; stroke-dasharray:3,3;"/>
<line x1="65.000000" y1="25.000000" x2="70.000000" y2="25.000000"  style="stroke: black; stroke-linecap:round; stroke-width:0.25; stroke-dasharray:3,3;"/>
<line x1="82.900000" y1="25.000000" x2="107.000000" y2="25.000000"  style="stroke: black; stroke-linecap:round; stroke-width:0.25; stroke-dasharray:3,3;"/>
<text x="70.000000" y="27.000000" font-family="Arial" font-size="7">b2</text>
<rect x="74.100000" y="87.000000" width="25.800000" height="24.000000" rx="0" ry="0" style="stroke:none;fill:#cccccc;"/>
<rect x="73.100000" y="86.000000" width="25.800000" height="24.000000" rx="0" ry="0" style="stroke:none;fill:#f44800;"/>
<text x="86.000000" y="100.000000" font-family="Arial" font-size="7" text-anchor="middle" fill="#FFFFFF">0.9999</text>
<circle cx="75.100000" cy="88.000000" r="1"/>
<line x1="64.100000" y1="77.000000" x2="64.100000" y2="119.000000"  style="stroke: black; stroke-linecap:round; stroke-width:0.25; stroke-dasharray:3,3;"/>
<line x1="64.100000" y1="119.000000" x2="107.900000" y2="119.000000"  style="stroke: black; stroke-linecap:round; stroke-width:0.25; stroke-dasharray:3,3;"/>
<line x1="107.900000" y1="119.000000" x2="107.900000" y2="77.000000"  style="stroke: black; stroke-linecap:round; stroke-width:0.25; stroke-dasharray:3,3;"/>
<line x1="64.100000" y1="77.000000" x2="69.100000" y2="77.000000"  style="stroke: black; stroke-linecap:round; stroke-width:0.25; stroke-dasharray:3,3;"/>
<line x1="88.450000" y1="77.000000" x2="107.900000" y2="77.000000"  style="stroke: black; stroke-linecap:round; stroke-width:0.25; stroke-dasharray:3,3;"/>
<text x="69.100000" y="79.000000" font-family="Arial" font-size="7">smax</text>
<rect x="125.900000" y="61.000000" width="24.000000" height="24.000000" rx="0" ry="0" style="stroke:none;fill:#cccccc;"/>
<rect x="124.900000" y="60.000000" width="24.000000" height="24.000000" rx="0" ry="0" style="stroke:none;fill:#4B71A1;"/>
<text x="136.900000" y="74.000000" font-family="Arial" font-size="7" text-anchor="middle" fill="#FFFFFF">-</text>
<circle cx="126.900000" cy="62.000000" r="1"/>
<line x1="121.900000" y1="67.000000" x2="124.900000" y2="68.000000"  transform="rotate(0.000000,124.900000,68.000000)" style="stroke: black; stroke-width:0.25;"/>
<line x1="121.900000" y1="69.000000" x2="124.900000" y2="68.000000"  transform="rotate(0.000000,124.900000,68.000000)" style="stroke: black; stroke-width:0.25;"/>
<line x1="121.900000" y1="75.000000" x2="124.900000" y2="76.000000"  transform="rotate(0.000000,124.900000,76.000000)" style="stroke: black; stroke-width:0.25;"/>
<line x1="121.900000" y1="77.000000" x2="124.900000" y2="76.000000"  transform="rotate(0.000000,124.900000,76.000000)" style="stroke: black; stroke-width:0.25;"/>
<rect x="74.100000" y="139.000000" width="25.800000" height="24.000000" rx="0" ry="0" style="stroke:none;fill:#cccccc;"/>
<rect x="73.100000" y="138.000000" width="25.800000" height="24.000000" rx="0" ry="0" style="stroke:none;fill:#f44800;"/>
<text x="86.000000" y="152.000000" font-family="Arial" font-size="7" text-anchor="middle" fill="#FFFFFF">0.9999</text>
<circle cx="75.100000" cy="140.000000" r="1"/>
<line x1="64.100000" y1="129.000000" x2="64.100000" y2="171.000000"  style="stroke: black; stroke-linecap:round; stroke-width:0.25; stroke-dasharray:3,3;"/>
<line x1="64.100000" y1="171.000000" x2="107.900000" y2="171.000000"  style="stroke: black; stroke-linecap:round; stroke-width:0.25; stroke-dasharray:3,3;"/>
<line x1="107.900000" y1="171.000000" x2="107.900000" y2="129.000000"  style="stroke: black; stroke-linecap:round; stroke-width:0.25; stroke-dasharray:3,3;"/>
<line x1="64.100000" y1="129.000000" x2="69.100000" y2="129.000000"  style="stroke: black; stroke-linecap:round; stroke-width:0.25; stroke-dasharray:3,3;"/>
<line x1="88.450000" y1="129.000000" x2="107.900000" y2="129.000000"  style="stroke: black; stroke-linecap:round; stroke-width:0.25; stroke-dasharray:3,3;"/>
<text x="69.100000" y="131.000000" font-family="Arial" font-size="7">smax</text>
<a xlink:href="a1d-0x1ce9a4a0.svg">
<rect x="55.000000" y="181.000000" width="24.000000" height="24.000000" rx="0" ry="0" style="stroke:none;fill:#cccccc;"/>
<rect x="54.000000" y="180.000000" width="24.000000" height="24.000000" rx="0" ry="0" style="stroke:none;fill:#003366;"/>
</a>
<a xlink:href="a1d-0x1ce9a4a0.svg">
<text x="66.000000" y="194.000000" font-family="Arial" font-size="7" text-anchor="middle" fill="#FFFFFF">a1d</text>
</a>
<circle cx="56.000000" cy="182.000000" r="1"/>
<rect x="35.000000" y="223.000000" width="24.000000" height="24.000000" rx="0" ry="0" style="stroke:none;fill:#cccccc;"/>
<rect x="34.000000" y="222.000000" width="24.000000" height="24.000000" rx="0" ry="0" style="stroke:none;fill:#f44800;"/>
<text x="46.000000" y="236.000000" font-family="Arial" font-size="7" text-anchor="middle" fill="#FFFFFF">1</text>
<circle cx="36.000000" cy="224.000000" r="1"/>
<line x1="25.000000" y1="213.000000" x2="25.000000" y2="255.000000"  style="stroke: black; stroke-linecap:round; stroke-width:0.25; stroke-dasharray:3,3;"/>
<line x1="25.000000" y1="255.000000" x2="67.000000" y2="255.000000"  style="stroke: black; stroke-linecap:round; stroke-width:0.25; stroke-dasharray:3,3;"/>
<line x1="67.000000" y1="255.000000" x2="67.000000" y2="213.000000"  style="stroke: black; stroke-linecap:round; stroke-width:0.25; stroke-dasharray:3,3;"/>
<line x1="25.000000" y1="213.000000" x2="30.000000" y2="213.000000"  style="stroke: black; stroke-linecap:round; stroke-width:0.25; stroke-dasharray:3,3;"/>
<line x1="42.900000" y1="213.000000" x2="67.000000" y2="213.000000"  style="stroke: black; stroke-linecap:round; stroke-width:0.25; stroke-dasharray:3,3;"/>
<text x="30.000000" y="215.000000" font-family="Arial" font-size="7">b1</text>
<a xlink:href="a2d-0x1ce99320.svg">
<rect x="35.000000" y="265.000000" width="24.000000" height="24.000000" rx="0" ry="0" style="stroke:none;fill:#cccccc;"/>
<rect x="34.000000" y="264.000000" width="24.000000" height="24.000000" rx="0" ry="0" style="stroke:none;fill:#003366;"/>
</a>
<a xlink:href="a2d-0x1ce99320.svg">
<text x="46.000000" y="278.000000" font-family="Arial" font-size="7" text-anchor="middle" fill="#FFFFFF">a2d</text>
</a>
<circle cx="36.000000" cy="266.000000" r="1"/>
<rect x="85.000000" y="239.000000" width="24.000000" height="24.000000" rx="0" ry="0" style="stroke:none;fill:#cccccc;"/>
<rect x="84.000000" y="238.000000" width="24.000000" height="24.000000" rx="0" ry="0" style="stroke:none;fill:#4B71A1;"/>
<text x="96.000000" y="252.000000" font-family="Arial" font-size="7" text-anchor="middle" fill="#FFFFFF">+</text>
<circle cx="86.000000" cy="240.000000" r="1"/>
<line x1="81.000000" y1="245.000000" x2="84.000000" y2="246.000000"  transform="rotate(0.000000,84.000000,246.000000)" style="stroke: black; stroke-width:0.25;"/>
<line x1="81.000000" y1="247.000000" x2="84.000000" y2="246.000000"  transform="rotate(0.000000,84.000000,246.000000)" style="stroke: black; stroke-width:0.25;"/>
<line x1="81.000000" y1="253.000000" x2="84.000000" y2="254.000000"  transform="rotate(0.000000,84.000000,254.000000)" style="stroke: black; stroke-width:0.25;"/>
<line x1="81.000000" y1="255.000000" x2="84.000000" y2="254.000000"  transform="rotate(0.000000,84.000000,254.000000)" style="stroke: black; stroke-width:0.25;"/>
<rect x="125.000000" y="223.000000" width="24.000000" height="24.000000" rx="0" ry="0" style="stroke:none;fill:#cccccc;"/>
<rect x="124.000000" y="222.000000" width="24.000000" height="24.000000" rx="0" ry="0" style="stroke:none;fill:#4B71A1;"/>
<text x="136.000000" y="236.000000" font-family="Arial" font-size="7" text-anchor="middle" fill="#FFFFFF">/</text>
<circle cx="126.000000" cy="224.000000" r="1"/>
<line x1="121.000000" y1="229.000000" x2="124.000000" y2="230.000000"  transform="rotate(0.000000,124.000000,230.000000)" style="stroke: black; stroke-width:0.25;"/>
<line x1="121.000000" y1="231.000000" x2="124.000000" y2="230.000000"  transform="rotate(0.000000,124.000000,230.000000)" style="stroke: black; stroke-width:0.25;"/>
<line x1="121.000000" y1="237.000000" x2="124.000000" y2="238.000000"  transform="rotate(0.000000,124.000000,238.000000)" style="stroke: black; stroke-width:0.25;"/>
<line x1="121.000000" y1="239.000000" x2="124.000000" y2="238.000000"  transform="rotate(0.000000,124.000000,238.000000)" style="stroke: black; stroke-width:0.25;"/>
<rect x="165.000000" y="197.000000" width="24.000000" height="24.000000" rx="0" ry="0" style="stroke:none;fill:#cccccc;"/>
<rect x="164.000000" y="196.000000" width="24.000000" height="24.000000" rx="0" ry="0" style="stroke:none;fill:#4B71A1;"/>
<text x="176.000000" y="210.000000" font-family="Arial" font-size="7" text-anchor="middle" fill="#FFFFFF">min</text>
<circle cx="166.000000" cy="198.000000" r="1"/>
<line x1="161.000000" y1="203.000000" x2="164.000000" y2="204.000000"  transform="rotate(0.000000,164.000000,204.000000)" style="stroke: black; stroke-width:0.25;"/>
<line x1="161.000000" y1="205.000000" x2="164.000000" y2="204.000000"  transform="rotate(0.000000,164.000000,204.000000)" style="stroke: black; stroke-width:0.25;"/>
<line x1="161.000000" y1="211.000000" x2="164.000000" y2="212.000000"  transform="rotate(0.000000,164.000000,212.000000)" style="stroke: black; stroke-width:0.25;"/>
<line x1="161.000000" y1="213.000000" x2="164.000000" y2="212.000000"  transform="rotate(0.000000,164.000000,212.000000)" style="stroke: black; stroke-width:0.25;"/>
<rect x="205.000000" y="145.000000" width="24.000000" height="24.000000" rx="0" ry="0" style="stroke:none;fill:#cccccc;"/>
<rect x="204.000000" y="144.000000" width="24.000000" height="24.000000" rx="0" ry="0" style="stroke:none;fill:#4B71A1;"/>
<text x="216.000000" y="158.000000" font-family="Arial" font-size="7" text-anchor="middle" fill="#FFFFFF">max</text>
<circle cx="206.000000" cy="146.000000" r="1"/>
<line x1="201.000000" y1="151.000000" x2="204.000000" y2="152.000000"  transform="rotate(0.000000,204.000000,152.000000)" style="stroke: black; stroke-width:0.25;"/>
<line x1="201.000000" y1="153.000000" x2="204.000000" y2="152.000000"  transform="rotate(0.000000,204.000000,152.000000)" style="stroke: black; stroke-width:0.25;"/>
<line x1="201.000000" y1="159.000000" x2="204.000000" y2="160.000000"  transform="rotate(0.000000,204.000000,160.000000)" style="stroke: black; stroke-width:0.25;"/>
<line x1="201.000000" y1="161.000000" x2="204.000000" y2="160.000000"  transform="rotate(0.000000,204.000000,160.000000)" style="stroke: black; stroke-width:0.25;"/>
<line x1="15.000000" y1="15.000000" x2="15.000000" y2="297.000000"  style="stroke: black; stroke-linecap:round; stroke-width:0.25; stroke-dasharray:3,3;"/>
<line x1="15.000000" y1="297.000000" x2="245.000000" y2="297.000000"  style="stroke: black; stroke-linecap:round; stroke-width:0.25; stroke-dasharray:3,3;"/>
<line x1="245.000000" y1="297.000000" x2="245.000000" y2="15.000000"  style="stroke: black; stroke-linecap:round; stroke-width:0.25; stroke-dasharray:3,3;"/>
<line x1="15.000000" y1="15.000000" x2="20.000000" y2="15.000000"  style="stroke: black; stroke-linecap:round; stroke-width:0.25; stroke-dasharray:3,3;"/>
<line x1="29.675000" y1="15.000000" x2="245.000000" y2="15.000000"  style="stroke: black; stroke-linecap:round; stroke-width:0.25; stroke-dasharray:3,3;"/>
<text x="20.000000" y="17.000000" font-family="Arial" font-size="7">s</text>
<line x1="247.000000" y1="155.000000" x2="250.000000" y2="156.000000"  transform="rotate(0.000000,250.000000,156.000000)" style="stroke: black; stroke-width:0.25;"/>
<line x1="247.000000" y1="157.000000" x2="250.000000" y2="156.000000"  transform="rotate(0.000000,250.000000,156.000000)" style="stroke: black; stroke-width:0.25;"/>
<line x1="58.000000" y1="234.000000" x2="62.000000" y2="234.000000"  style="stroke:black; stroke-linecap:round; stroke-width:0.25;"/>
<line x1="58.000000" y1="276.000000" x2="62.000000" y2="276.000000"  style="stroke:black; stroke-linecap:round; stroke-width:0.25;"/>
<line x1="62.000000" y1="234.000000" x2="72.000000" y2="234.000000"  style="stroke:black; stroke-linecap:round; stroke-width:0.25;"/>
<line x1="62.000000" y1="276.000000" x2="72.000000" y2="276.000000"  style="stroke:black; stroke-linecap:round; stroke-width:0.25;"/>
<line x1="72.000000" y1="234.000000" x2="80.000000" y2="234.000000"  style="stroke:black; stroke-linecap:round; stroke-width:0.25;"/>
<line x1="72.000000" y1="254.000000" x2="80.000000" y2="254.000000"  style="stroke:black; stroke-linecap:round; stroke-width:0.25;"/>
<line x1="72.000000" y1="276.000000" x2="72.000000" y2="254.000000"  style="stroke:black; stroke-linecap:round; stroke-width:0.25;"/>
<line x1="72.000000" y1="276.000000" x2="72.000000" y2="276.000000"  style="stroke:black; stroke-linecap:round; stroke-width:0.25;"/>
<line x1="78.000000" y1="192.000000" x2="82.000000" y2="192.000000"  style="stroke:black; stroke-linecap:round; stroke-width:0.25;"/>
<line x1="80.000000" y1="234.000000" x2="80.000000" y2="246.000000"  style="stroke:black; stroke-linecap:round; stroke-width:0.25;"/>
<line x1="80.000000" y1="246.000000" x2="80.000000" y2="246.000000"  style="stroke:black; stroke-linecap:round; stroke-width:0.25;"/>
<line x1="80.000000" y1="246.000000" x2="84.000000" y2="246.000000"  style="stroke:black; stroke-linecap:round; stroke-width:0.25;"/>
<line x1="80.000000" y1="254.000000" x2="84.000000" y2="254.000000"  style="stroke:black; stroke-linecap:round; stroke-width:0.25;"/>
<line x1="82.000000" y1="192.000000" x2="112.000000" y2="192.000000"  style="stroke:black; stroke-linecap:round; stroke-width:0.25;"/>
<line x1="98.000000" y1="46.000000" x2="102.000000" y2="46.000000"  style="stroke:black; stroke-linecap:round; stroke-width:0.25;"/>
<line x1="98.900000" y1="98.000000" x2="102.900000" y2="98.000000"  style="stroke:black; stroke-linecap:round; stroke-width:0.25;"/>
<line x1="98.900000" y1="150.000000" x2="102.900000" y2="150.000000"  style="stroke:black; stroke-linecap:round; stroke-width:0.25;"/>
<line x1="102.000000" y1="46.000000" x2="112.000000" y2="46.000000"  style="stroke:black; stroke-linecap:round; stroke-width:0.25;"/>
<line x1="102.900000" y1="98.000000" x2="112.900000" y2="98.000000"  style="stroke:black; stroke-linecap:round; stroke-width:0.25;"/>
<line x1="102.900000" y1="150.000000" x2="112.900000" y2="150.000000"  style="stroke:black; stroke-linecap:round; stroke-width:0.25;"/>
<line x1="108.000000" y1="250.000000" x2="112.000000" y2="250.000000"  style="stroke:black; stroke-linecap:round; stroke-width:0.25;"/>
<line x1="112.000000" y1="46.000000" x2="112.900000" y2="46.000000"  style="stroke:black; stroke-linecap:round; stroke-width:0.25;"/>
<line x1="112.000000" y1="192.000000" x2="120.000000" y2="192.000000"  style="stroke:black; stroke-linecap:round; stroke-width:0.25;"/>
<line x1="112.000000" y1="238.000000" x2="120.000000" y2="238.000000"  style="stroke:black; stroke-linecap:round; stroke-width:0.25;"/>
<line x1="112.000000" y1="250.000000" x2="112.000000" y2="238.000000"  style="stroke:black; stroke-linecap:round; stroke-width:0.25;"/>
<line x1="112.000000" y1="250.000000" x2="112.000000" y2="250.000000"  style="stroke:black; stroke-linecap:round; stroke-width:0.25;"/>
<line x1="112.900000" y1="76.000000" x2="120.900000" y2="76.000000"  style="stroke:black; stroke-linecap:round; stroke-width:0.25;"/>
<line x1="112.900000" y1="98.000000" x2="112.900000" y2="76.000000"  style="stroke:black; stroke-linecap:round; stroke-width:0.25;"/>
<line x1="112.900000" y1="98.000000" x2="112.900000" y2="98.000000"  style="stroke:black; stroke-linecap:round; stroke-width:0.25;"/>
<line x1="112.900000" y1="150.000000" x2="152.000000" y2="150.000000"  style="stroke:black; stroke-linecap:round; stroke-width:0.25;"/>
<line x1="112.900000" y1="46.000000" x2="120.900000" y2="46.000000"  style="stroke:black; stroke-linecap:round; stroke-width:0.25;"/>
<line x1="120.000000" y1="192.000000" x2="120.000000" y2="230.000000"  style="stroke:black; stroke-linecap:round; stroke-width:0.25;"/>
<line x1="120.000000" y1="230.000000" x2="120.000000" y2="230.000000"  style="stroke:black; stroke-linecap:round; stroke-width:0.25;"/>
<line x1="120.000000" y1="230.000000" x2="124.000000" y2="230.000000"  style="stroke:black; stroke-linecap:round; stroke-width:0.25;"/>
<line x1="120.000000" y1="238.000000" x2="124.000000" y2="238.000000"  style="stroke:black; stroke-linecap:round; stroke-width:0.25;"/>
<line x1="120.900000" y1="46.000000" x2="120.900000" y2="68.000000"  style="stroke:black; stroke-linecap:round; stroke-width:0.25;"/>
<line x1="120.900000" y1="68.000000" x2="120.900000" y2="68.000000"  style="stroke:black; stroke-linecap:round; stroke-width:0.25;"/>
<line x1="120.900000" y1="68.000000" x2="124.900000" y2="68.000000"  style="stroke:black; stroke-linecap:round; stroke-width:0.25;"/>
<line x1="120.900000" y1="76.000000" x2="124.900000" y2="76.000000"  style="stroke:black; stroke-linecap:round; stroke-width:0.25;"/>
<line x1="148.000000" y1="234.000000" x2="152.000000" y2="234.000000"  style="stroke:black; stroke-linecap:round; stroke-width:0.25;"/>
<line x1="148.900000" y1="72.000000" x2="152.900000" y2="72.000000"  style="stroke:black; stroke-linecap:round; stroke-width:0.25;"/>
<line x1="152.000000" y1="150.000000" x2="160.000000" y2="150.000000"  style="stroke:black; stroke-linecap:round; stroke-width:0.25;"/>
<line x1="152.000000" y1="212.000000" x2="160.000000" y2="212.000000"  style="stroke:black; stroke-linecap:round; stroke-width:0.25;"/>
<line x1="152.000000" y1="234.000000" x2="152.000000" y2="212.000000"  style="stroke:black; stroke-linecap:round; stroke-width:0.25;"/>
<line x1="152.000000" y1="234.000000" x2="152.000000" y2="234.000000"  style="stroke:black; stroke-linecap:round; stroke-width:0.25;"/>
<line x1="152.900000" y1="72.000000" x2="192.000000" y2="72.000000"  style="stroke:black; stroke-linecap:round; stroke-width:0.25;"/>
<line x1="160.000000" y1="150.000000" x2="160.000000" y2="204.000000"  style="stroke:black; stroke-linecap:round; stroke-width:0.25;"/>
<line x1="160.000000" y1="204.000000" x2="160.000000" y2="204.000000"  style="stroke:black; stroke-linecap:round; stroke-width:0.25;"/>
<line x1="160.000000" y1="204.000000" x2="164.000000" y2="204.000000"  style="stroke:black; stroke-linecap:round; stroke-width:0.25;"/>
<line x1="160.000000" y1="212.000000" x2="164.000000" y2="212.000000"  style="stroke:black; stroke-linecap:round; stroke-width:0.25;"/>
<line x1="188.000000" y1="208.000000" x2="192.000000" y2="208.000000"  style="stroke:black; stroke-linecap:round; stroke-width:0.25;"/>
<line x1="192.000000" y1="72.000000" x2="200.000000" y2="72.000000"  style="stroke:black; stroke-linecap:round; stroke-width:0.25;"/>
<line x1="192.000000" y1="160.000000" x2="200.000000" y2="160.000000"  style="stroke:black; stroke-linecap:round; stroke-width:0.25;"/>
<line x1="192.000000" y1="208.000000" x2="192.000000" y2="160.000000"  style="stroke:black; stroke-linecap:round; stroke-width:0.25;"/>
<line x1="192.000000" y1="208.000000" x2="192.000000" y2="208.000000"  style="stroke:black; stroke-linecap:round; stroke-width:0.25;"/>
<line x1="200.000000" y1="72.000000" x2="200.000000" y2="152.000000"  style="stroke:black; stroke-linecap:round; stroke-width:0.25;"/>
<line x1="200.000000" y1="152.000000" x2="200.000000" y2="152.000000"  style="stroke:black; stroke-linecap:round; stroke-width:0.25;"/>
<line x1="200.000000" y1="152.000000" x2="204.000000" y2="152.000000"  style="stroke:black; stroke-linecap:round; stroke-width:0.25;"/>
<line x1="200.000000" y1="160.000000" x2="204.000000" y2="160.000000"  style="stroke:black; stroke-linecap:round; stroke-width:0.25;"/>
<line x1="228.000000" y1="156.000000" x2="232.000000" y2="156.000000"  style="stroke:black; stroke-linecap:round; stroke-width:0.25;"/>
<line x1="232.000000" y1="156.000000" x2="232.000000" y2="156.000000"  style="stroke:black; stroke-linecap:round; stroke-width:0.25;"/>
<line x1="232.000000" y1="156.000000" x2="236.000000" y2="156.000000"  style="stroke:black; stroke-linecap:round; stroke-width:0.25;"/>
<line x1="236.000000" y1="156.000000" x2="240.000000" y2="156.000000"  style="stroke:black; stroke-linecap:round; stroke-width:0.25;"/>
<line x1="240.000000" y1="156.000000" x2="250.000000" y2="156.000000"  style="stroke:black; stroke-linecap:round; stroke-width:0.25;"/>
</svg>
