<?xml version="1.0"?>
<svg xmlns="http://www.w3.org/2000/svg" xmlns:xlink="http://www.w3.org/1999/xlink" viewBox="0 0 416.200000 608.000000" width="208.100000mm" height="304.000000mm" version="1.1">
<a xlink:href="h-0x8ec0620.svg">
<rect x="1.000000" y="1.000000" width="415.200000" height="607.000000" rx="0" ry="0" style="stroke:none;fill:#cccccc;"/>
<rect x="0.000000" y="0.000000" width="415.200000" height="607.000000" rx="0" ry="0" style="stroke:none;fill:#ffffff;"/>
</a>
<text x="10.000000" y="7.000000" font-family="Arial" font-size="7"></text>
<rect x="161.750000" y="25.000000" width="24.000000" height="24.000000" rx="0" ry="0" style="stroke:none;fill:#cccccc;"/>
<rect x="160.750000" y="24.000000" width="24.000000" height="24.000000" rx="0" ry="0" style="stroke:none;fill:#f44800;"/>
<text x="172.750000" y="38.000000" font-family="Arial" font-size="7" text-anchor="middle" fill="#FFFFFF">3</text>
<circle cx="162.750000" cy="26.000000" r="1"/>
<rect x="161.750000" y="67.000000" width="24.000000" height="24.000000" rx="0" ry="0" style="stroke:none;fill:#cccccc;"/>
<rect x="160.750000" y="66.000000" width="24.000000" height="24.000000" rx="0" ry="0" style="stroke:none;fill:#f44800;"/>
<text x="172.750000" y="80.000000" font-family="Arial" font-size="7" text-anchor="middle" fill="#FFFFFF">1</text>
<circle cx="162.750000" cy="68.000000" r="1"/>
<line x1="151.750000" y1="57.000000" x2="151.750000" y2="99.000000"  style="stroke: black; stroke-linecap:round; stroke-width:0.25; stroke-dasharray:3,3;"/>
<line x1="151.750000" y1="99.000000" x2="193.750000" y2="99.000000"  style="stroke: black; stroke-linecap:round; stroke-width:0.25; stroke-dasharray:3,3;"/>
<line x1="193.750000" y1="99.000000" x2="193.750000" y2="57.000000"  style="stroke: black; stroke-linecap:round; stroke-width:0.25; stroke-dasharray:3,3;"/>
<line x1="151.750000" y1="57.000000" x2="156.750000" y2="57.000000"  style="stroke: black; stroke-linecap:round; stroke-width:0.25; stroke-dasharray:3,3;"/>
<line x1="166.425000" y1="57.000000" x2="193.750000" y2="57.000000"  style="stroke: black; stroke-linecap:round; stroke-width:0.25; stroke-dasharray:3,3;"/>
<text x="156.750000" y="59.000000" font-family="Arial" font-size="7">N</text>
<rect x="70.400000" y="119.000000" width="24.000000" height="24.000000" rx="0" ry="0" style="stroke:none;fill:#cccccc;"/>
<rect x="69.400000" y="118.000000" width="24.000000" height="24.000000" rx="0" ry="0" style="stroke:none;fill:#f44800;"/>
<text x="81.400000" y="132.000000" font-family="Arial" font-size="7" text-anchor="middle" fill="#FFFFFF">0</text>
<circle cx="71.400000" cy="120.000000" r="1"/>
<line x1="60.400000" y1="109.000000" x2="60.400000" y2="151.000000"  style="stroke: black; stroke-linecap:round; stroke-width:0.25; stroke-dasharray:3,3;"/>
<line x1="60.400000" y1="151.000000" x2="102.400000" y2="151.000000"  style="stroke: black; stroke-linecap:round; stroke-width:0.25; stroke-dasharray:3,3;"/>
<line x1="102.400000" y1="151.000000" x2="102.400000" y2="109.000000"  style="stroke: black; stroke-linecap:round; stroke-width:0.25; stroke-dasharray:3,3;"/>
<line x1="60.400000" y1="109.000000" x2="65.400000" y2="109.000000"  style="stroke: black; stroke-linecap:round; stroke-width:0.25; stroke-dasharray:3,3;"/>
<line x1="102.400000" y1="109.000000" x2="102.400000" y2="109.000000"  style="stroke: black; stroke-linecap:round; stroke-width:0.25; stroke-dasharray:3,3;"/>
<text x="65.400000" y="111.000000" font-family="Arial" font-size="7">enablePitchQuantise</text>
<rect x="70.400000" y="161.000000" width="24.000000" height="24.000000" rx="0" ry="0" style="stroke:none;fill:#cccccc;"/>
<rect x="69.400000" y="160.000000" width="24.000000" height="24.000000" rx="0" ry="0" style="stroke:none;fill:#f44800;"/>
<text x="81.400000" y="174.000000" font-family="Arial" font-size="7" text-anchor="middle" fill="#FFFFFF">3</text>
<circle cx="71.400000" cy="162.000000" r="1"/>
<rect x="120.400000" y="135.000000" width="24.000000" height="24.000000" rx="0" ry="0" style="stroke:none;fill:#cccccc;"/>
<rect x="119.400000" y="134.000000" width="24.000000" height="24.000000" rx="0" ry="0" style="stroke:none;fill:#4B71A1;"/>
<text x="131.400000" y="148.000000" font-family="Arial" font-size="7" text-anchor="middle" fill="#FFFFFF">&lt;</text>
<circle cx="121.400000" cy="136.000000" r="1"/>
<line x1="116.400000" y1="141.000000" x2="119.400000" y2="142.000000"  transform="rotate(0.000000,119.400000,142.000000)" style="stroke: black; stroke-width:0.25;"/>
<line x1="116.400000" y1="143.000000" x2="119.400000" y2="142.000000"  transform="rotate(0.000000,119.400000,142.000000)" style="stroke: black; stroke-width:0.25;"/>
<line x1="116.400000" y1="149.000000" x2="119.400000" y2="150.000000"  transform="rotate(0.000000,119.400000,150.000000)" style="stroke: black; stroke-width:0.25;"/>
<line x1="116.400000" y1="151.000000" x2="119.400000" y2="150.000000"  transform="rotate(0.000000,119.400000,150.000000)" style="stroke: black; stroke-width:0.25;"/>
<rect x="90.400000" y="203.000000" width="24.000000" height="24.000000" rx="0" ry="0" style="stroke:none;fill:#cccccc;"/>
<rect x="89.400000" y="202.000000" width="24.000000" height="24.000000" rx="0" ry="0" style="stroke:none;fill:#f44800;"/>
<text x="101.400000" y="216.000000" font-family="Arial" font-size="7" text-anchor="middle" fill="#FFFFFF">1</text>
<circle cx="91.400000" cy="204.000000" r="1"/>
<line x1="80.400000" y1="193.000000" x2="80.400000" y2="235.000000"  style="stroke: black; stroke-linecap:round; stroke-width:0.25; stroke-dasharray:3,3;"/>
<line x1="80.400000" y1="235.000000" x2="122.400000" y2="235.000000"  style="stroke: black; stroke-linecap:round; stroke-width:0.25; stroke-dasharray:3,3;"/>
<line x1="122.400000" y1="235.000000" x2="122.400000" y2="193.000000"  style="stroke: black; stroke-linecap:round; stroke-width:0.25; stroke-dasharray:3,3;"/>
<line x1="80.400000" y1="193.000000" x2="85.400000" y2="193.000000"  style="stroke: black; stroke-linecap:round; stroke-width:0.25; stroke-dasharray:3,3;"/>
<line x1="95.075000" y1="193.000000" x2="122.400000" y2="193.000000"  style="stroke: black; stroke-linecap:round; stroke-width:0.25; stroke-dasharray:3,3;"/>
<text x="85.400000" y="195.000000" font-family="Arial" font-size="7">N</text>
<a xlink:href="fac-0x8e8f560.svg">
<rect x="25.000000" y="245.000000" width="154.800000" height="24.000000" rx="0" ry="0" style="stroke:none;fill:#cccccc;"/>
<rect x="24.000000" y="244.000000" width="154.800000" height="24.000000" rx="0" ry="0" style="stroke:none;fill:#003366;"/>
</a>
<a xlink:href="fac-0x8e8f560.svg">
<text x="101.400000" y="258.000000" font-family="Arial" font-size="7" text-anchor="middle" fill="#FFFFFF">fac(((3,1.000...nt) : -) : +)(3)(0)</text>
</a>
<circle cx="26.000000" cy="246.000000" r="1"/>
<rect x="203.800000" y="177.000000" width="38.700000" height="24.000000" rx="0" ry="0" style="stroke:none;fill:#cccccc;"/>
<rect x="202.800000" y="176.000000" width="38.700000" height="24.000000" rx="0" ry="0" style="stroke:none;fill:#4B71A1;"/>
<text x="222.150000" y="190.000000" font-family="Arial" font-size="7" text-anchor="middle" fill="#FFFFFF">select2</text>
<circle cx="204.800000" cy="178.000000" r="1"/>
<line x1="199.800000" y1="179.000000" x2="202.800000" y2="180.000000"  transform="rotate(0.000000,202.800000,180.000000)" style="stroke: black; stroke-width:0.25;"/>
<line x1="199.800000" y1="181.000000" x2="202.800000" y2="180.000000"  transform="rotate(0.000000,202.800000,180.000000)" style="stroke: black; stroke-width:0.25;"/>
<line x1="199.800000" y1="187.000000" x2="202.800000" y2="188.000000"  transform="rotate(0.000000,202.800000,188.000000)" style="stroke: black; stroke-width:0.25;"/>
<line x1="199.800000" y1="189.000000" x2="202.800000" y2="188.000000"  transform="rotate(0.000000,202.800000,188.000000)" style="stroke: black; stroke-width:0.25;"/>
<line x1="199.800000" y1="195.000000" x2="202.800000" y2="196.000000"  transform="rotate(0.000000,202.800000,196.000000)" style="stroke: black; stroke-width:0.25;"/>
<line x1="199.800000" y1="197.000000" x2="202.800000" y2="196.000000"  transform="rotate(0.000000,202.800000,196.000000)" style="stroke: black; stroke-width:0.25;"/>
<rect x="70.400000" y="287.000000" width="24.000000" height="24.000000" rx="0" ry="0" style="stroke:none;fill:#cccccc;"/>
<rect x="69.400000" y="286.000000" width="24.000000" height="24.000000" rx="0" ry="0" style="stroke:none;fill:#f44800;"/>
<text x="81.400000" y="300.000000" font-family="Arial" font-size="7" text-anchor="middle" fill="#FFFFFF">1</text>
<circle cx="71.400000" cy="288.000000" r="1"/>
<line x1="60.400000" y1="277.000000" x2="60.400000" y2="319.000000"  style="stroke: black; stroke-linecap:round; stroke-width:0.25; stroke-dasharray:3,3;"/>
<line x1="60.400000" y1="319.000000" x2="102.400000" y2="319.000000"  style="stroke: black; stroke-linecap:round; stroke-width:0.25; stroke-dasharray:3,3;"/>
<line x1="102.400000" y1="319.000000" x2="102.400000" y2="277.000000"  style="stroke: black; stroke-linecap:round; stroke-width:0.25; stroke-dasharray:3,3;"/>
<line x1="60.400000" y1="277.000000" x2="65.400000" y2="277.000000"  style="stroke: black; stroke-linecap:round; stroke-width:0.25; stroke-dasharray:3,3;"/>
<line x1="75.075000" y1="277.000000" x2="102.400000" y2="277.000000"  style="stroke: black; stroke-linecap:round; stroke-width:0.25; stroke-dasharray:3,3;"/>
<text x="65.400000" y="279.000000" font-family="Arial" font-size="7">N</text>
<rect x="70.400000" y="329.000000" width="24.000000" height="24.000000" rx="0" ry="0" style="stroke:none;fill:#cccccc;"/>
<rect x="69.400000" y="328.000000" width="24.000000" height="24.000000" rx="0" ry="0" style="stroke:none;fill:#f44800;"/>
<text x="81.400000" y="342.000000" font-family="Arial" font-size="7" text-anchor="middle" fill="#FFFFFF">3</text>
<circle cx="71.400000" cy="330.000000" r="1"/>
<rect x="120.400000" y="303.000000" width="24.000000" height="24.000000" rx="0" ry="0" style="stroke:none;fill:#cccccc;"/>
<rect x="119.400000" y="302.000000" width="24.000000" height="24.000000" rx="0" ry="0" style="stroke:none;fill:#4B71A1;"/>
<text x="131.400000" y="316.000000" font-family="Arial" font-size="7" text-anchor="middle" fill="#FFFFFF">&lt;</text>
<circle cx="121.400000" cy="304.000000" r="1"/>
<line x1="116.400000" y1="309.000000" x2="119.400000" y2="310.000000"  transform="rotate(0.000000,119.400000,310.000000)" style="stroke: black; stroke-width:0.25;"/>
<line x1="116.400000" y1="311.000000" x2="119.400000" y2="310.000000"  transform="rotate(0.000000,119.400000,310.000000)" style="stroke: black; stroke-width:0.25;"/>
<line x1="116.400000" y1="317.000000" x2="119.400000" y2="318.000000"  transform="rotate(0.000000,119.400000,318.000000)" style="stroke: black; stroke-width:0.25;"/>
<line x1="116.400000" y1="319.000000" x2="119.400000" y2="318.000000"  transform="rotate(0.000000,119.400000,318.000000)" style="stroke: black; stroke-width:0.25;"/>
<rect x="90.400000" y="371.000000" width="24.000000" height="24.000000" rx="0" ry="0" style="stroke:none;fill:#cccccc;"/>
<rect x="89.400000" y="370.000000" width="24.000000" height="24.000000" rx="0" ry="0" style="stroke:none;fill:#f44800;"/>
<text x="101.400000" y="384.000000" font-family="Arial" font-size="7" text-anchor="middle" fill="#FFFFFF">1</text>
<circle cx="91.400000" cy="372.000000" r="1"/>
<line x1="80.400000" y1="361.000000" x2="80.400000" y2="403.000000"  style="stroke: black; stroke-linecap:round; stroke-width:0.25; stroke-dasharray:3,3;"/>
<line x1="80.400000" y1="403.000000" x2="122.400000" y2="403.000000"  style="stroke: black; stroke-linecap:round; stroke-width:0.25; stroke-dasharray:3,3;"/>
<line x1="122.400000" y1="403.000000" x2="122.400000" y2="361.000000"  style="stroke: black; stroke-linecap:round; stroke-width:0.25; stroke-dasharray:3,3;"/>
<line x1="80.400000" y1="361.000000" x2="85.400000" y2="361.000000"  style="stroke: black; stroke-linecap:round; stroke-width:0.25; stroke-dasharray:3,3;"/>
<line x1="95.075000" y1="361.000000" x2="122.400000" y2="361.000000"  style="stroke: black; stroke-linecap:round; stroke-width:0.25; stroke-dasharray:3,3;"/>
<text x="85.400000" y="363.000000" font-family="Arial" font-size="7">N</text>
<a xlink:href="fac-0x8e94100.svg">
<rect x="25.000000" y="413.000000" width="154.800000" height="24.000000" rx="0" ry="0" style="stroke:none;fill:#cccccc;"/>
<rect x="24.000000" y="412.000000" width="154.800000" height="24.000000" rx="0" ry="0" style="stroke:none;fill:#003366;"/>
</a>
<a xlink:href="fac-0x8e94100.svg">
<text x="101.400000" y="426.000000" font-family="Arial" font-size="7" text-anchor="middle" fill="#FFFFFF">fac(((3,1.000...nt) : -) : +)(3)(1)</text>
</a>
<circle cx="26.000000" cy="414.000000" r="1"/>
<rect x="203.800000" y="345.000000" width="38.700000" height="24.000000" rx="0" ry="0" style="stroke:none;fill:#cccccc;"/>
<rect x="202.800000" y="344.000000" width="38.700000" height="24.000000" rx="0" ry="0" style="stroke:none;fill:#4B71A1;"/>
<text x="222.150000" y="358.000000" font-family="Arial" font-size="7" text-anchor="middle" fill="#FFFFFF">select2</text>
<circle cx="204.800000" cy="346.000000" r="1"/>
<line x1="199.800000" y1="347.000000" x2="202.800000" y2="348.000000"  transform="rotate(0.000000,202.800000,348.000000)" style="stroke: black; stroke-width:0.25;"/>
<line x1="199.800000" y1="349.000000" x2="202.800000" y2="348.000000"  transform="rotate(0.000000,202.800000,348.000000)" style="stroke: black; stroke-width:0.25;"/>
<line x1="199.800000" y1="355.000000" x2="202.800000" y2="356.000000"  transform="rotate(0.000000,202.800000,356.000000)" style="stroke: black; stroke-width:0.25;"/>
<line x1="199.800000" y1="357.000000" x2="202.800000" y2="356.000000"  transform="rotate(0.000000,202.800000,356.000000)" style="stroke: black; stroke-width:0.25;"/>
<line x1="199.800000" y1="363.000000" x2="202.800000" y2="364.000000"  transform="rotate(0.000000,202.800000,364.000000)" style="stroke: black; stroke-width:0.25;"/>
<line x1="199.800000" y1="365.000000" x2="202.800000" y2="364.000000"  transform="rotate(0.000000,202.800000,364.000000)" style="stroke: black; stroke-width:0.25;"/>
<rect x="258.500000" y="261.000000" width="24.000000" height="24.000000" rx="0" ry="0" style="stroke:none;fill:#cccccc;"/>
<rect x="257.500000" y="260.000000" width="24.000000" height="24.000000" rx="0" ry="0" style="stroke:none;fill:#4B71A1;"/>
<text x="269.500000" y="274.000000" font-family="Arial" font-size="7" text-anchor="middle" fill="#FFFFFF">*</text>
<circle cx="259.500000" cy="262.000000" r="1"/>
<line x1="254.500000" y1="267.000000" x2="257.500000" y2="268.000000"  transform="rotate(0.000000,257.500000,268.000000)" style="stroke: black; stroke-width:0.25;"/>
<line x1="254.500000" y1="269.000000" x2="257.500000" y2="268.000000"  transform="rotate(0.000000,257.500000,268.000000)" style="stroke: black; stroke-width:0.25;"/>
<line x1="254.500000" y1="275.000000" x2="257.500000" y2="276.000000"  transform="rotate(0.000000,257.500000,276.000000)" style="stroke: black; stroke-width:0.25;"/>
<line x1="254.500000" y1="277.000000" x2="257.500000" y2="276.000000"  transform="rotate(0.000000,257.500000,276.000000)" style="stroke: black; stroke-width:0.25;"/>
<rect x="90.400000" y="445.000000" width="24.000000" height="24.000000" rx="0" ry="0" style="stroke:none;fill:#cccccc;"/>
<rect x="89.400000" y="444.000000" width="24.000000" height="24.000000" rx="0" ry="0" style="stroke:none;fill:#f44800;"/>
<text x="101.400000" y="458.000000" font-family="Arial" font-size="7" text-anchor="middle" fill="#FFFFFF">2</text>
<circle cx="91.400000" cy="446.000000" r="1"/>
<rect x="90.400000" y="477.000000" width="24.000000" height="24.000000" rx="0" ry="0" style="stroke:none;fill:#cccccc;"/>
<rect x="89.400000" y="476.000000" width="24.000000" height="24.000000" rx="0" ry="0" style="stroke:none;fill:#f44800;"/>
<text x="101.400000" y="490.000000" font-family="Arial" font-size="7" text-anchor="middle" fill="#FFFFFF">3</text>
<circle cx="91.400000" cy="478.000000" r="1"/>
<rect x="130.400000" y="461.000000" width="24.000000" height="24.000000" rx="0" ry="0" style="stroke:none;fill:#cccccc;"/>
<rect x="129.400000" y="460.000000" width="24.000000" height="24.000000" rx="0" ry="0" style="stroke:none;fill:#4B71A1;"/>
<text x="141.400000" y="474.000000" font-family="Arial" font-size="7" text-anchor="middle" fill="#FFFFFF">&lt;</text>
<circle cx="131.400000" cy="462.000000" r="1"/>
<line x1="126.400000" y1="467.000000" x2="129.400000" y2="468.000000"  transform="rotate(0.000000,129.400000,468.000000)" style="stroke: black; stroke-width:0.25;"/>
<line x1="126.400000" y1="469.000000" x2="129.400000" y2="468.000000"  transform="rotate(0.000000,129.400000,468.000000)" style="stroke: black; stroke-width:0.25;"/>
<line x1="126.400000" y1="475.000000" x2="129.400000" y2="476.000000"  transform="rotate(0.000000,129.400000,476.000000)" style="stroke: black; stroke-width:0.25;"/>
<line x1="126.400000" y1="477.000000" x2="129.400000" y2="476.000000"  transform="rotate(0.000000,129.400000,476.000000)" style="stroke: black; stroke-width:0.25;"/>
<rect x="110.400000" y="519.000000" width="24.000000" height="24.000000" rx="0" ry="0" style="stroke:none;fill:#cccccc;"/>
<rect x="109.400000" y="518.000000" width="24.000000" height="24.000000" rx="0" ry="0" style="stroke:none;fill:#f44800;"/>
<text x="121.400000" y="532.000000" font-family="Arial" font-size="7" text-anchor="middle" fill="#FFFFFF">1</text>
<circle cx="111.400000" cy="520.000000" r="1"/>
<line x1="100.400000" y1="509.000000" x2="100.400000" y2="551.000000"  style="stroke: black; stroke-linecap:round; stroke-width:0.25; stroke-dasharray:3,3;"/>
<line x1="100.400000" y1="551.000000" x2="142.400000" y2="551.000000"  style="stroke: black; stroke-linecap:round; stroke-width:0.25; stroke-dasharray:3,3;"/>
<line x1="142.400000" y1="551.000000" x2="142.400000" y2="509.000000"  style="stroke: black; stroke-linecap:round; stroke-width:0.25; stroke-dasharray:3,3;"/>
<line x1="100.400000" y1="509.000000" x2="105.400000" y2="509.000000"  style="stroke: black; stroke-linecap:round; stroke-width:0.25; stroke-dasharray:3,3;"/>
<line x1="115.075000" y1="509.000000" x2="142.400000" y2="509.000000"  style="stroke: black; stroke-linecap:round; stroke-width:0.25; stroke-dasharray:3,3;"/>
<text x="105.400000" y="511.000000" font-family="Arial" font-size="7">N</text>
<a xlink:href="fac-0x8e990e0.svg">
<rect x="45.000000" y="561.000000" width="154.800000" height="24.000000" rx="0" ry="0" style="stroke:none;fill:#cccccc;"/>
<rect x="44.000000" y="560.000000" width="154.800000" height="24.000000" rx="0" ry="0" style="stroke:none;fill:#003366;"/>
</a>
<a xlink:href="fac-0x8e990e0.svg">
<text x="121.400000" y="574.000000" font-family="Arial" font-size="7" text-anchor="middle" fill="#FFFFFF">fac(((3,1.000...nt) : -) : +)(3)(2)</text>
</a>
<circle cx="46.000000" cy="562.000000" r="1"/>
<rect x="223.800000" y="503.000000" width="38.700000" height="24.000000" rx="0" ry="0" style="stroke:none;fill:#cccccc;"/>
<rect x="222.800000" y="502.000000" width="38.700000" height="24.000000" rx="0" ry="0" style="stroke:none;fill:#4B71A1;"/>
<text x="242.150000" y="516.000000" font-family="Arial" font-size="7" text-anchor="middle" fill="#FFFFFF">select2</text>
<circle cx="224.800000" cy="504.000000" r="1"/>
<line x1="219.800000" y1="505.000000" x2="222.800000" y2="506.000000"  transform="rotate(0.000000,222.800000,506.000000)" style="stroke: black; stroke-width:0.25;"/>
<line x1="219.800000" y1="507.000000" x2="222.800000" y2="506.000000"  transform="rotate(0.000000,222.800000,506.000000)" style="stroke: black; stroke-width:0.25;"/>
<line x1="219.800000" y1="513.000000" x2="222.800000" y2="514.000000"  transform="rotate(0.000000,222.800000,514.000000)" style="stroke: black; stroke-width:0.25;"/>
<line x1="219.800000" y1="515.000000" x2="222.800000" y2="514.000000"  transform="rotate(0.000000,222.800000,514.000000)" style="stroke: black; stroke-width:0.25;"/>
<line x1="219.800000" y1="521.000000" x2="222.800000" y2="522.000000"  transform="rotate(0.000000,222.800000,522.000000)" style="stroke: black; stroke-width:0.25;"/>
<line x1="219.800000" y1="523.000000" x2="222.800000" y2="522.000000"  transform="rotate(0.000000,222.800000,522.000000)" style="stroke: black; stroke-width:0.25;"/>
<rect x="298.500000" y="335.000000" width="24.000000" height="24.000000" rx="0" ry="0" style="stroke:none;fill:#cccccc;"/>
<rect x="297.500000" y="334.000000" width="24.000000" height="24.000000" rx="0" ry="0" style="stroke:none;fill:#4B71A1;"/>
<text x="309.500000" y="348.000000" font-family="Arial" font-size="7" text-anchor="middle" fill="#FFFFFF">*</text>
<circle cx="299.500000" cy="336.000000" r="1"/>
<line x1="294.500000" y1="341.000000" x2="297.500000" y2="342.000000"  transform="rotate(0.000000,297.500000,342.000000)" style="stroke: black; stroke-width:0.25;"/>
<line x1="294.500000" y1="343.000000" x2="297.500000" y2="342.000000"  transform="rotate(0.000000,297.500000,342.000000)" style="stroke: black; stroke-width:0.25;"/>
<line x1="294.500000" y1="349.000000" x2="297.500000" y2="350.000000"  transform="rotate(0.000000,297.500000,350.000000)" style="stroke: black; stroke-width:0.25;"/>
<line x1="294.500000" y1="351.000000" x2="297.500000" y2="350.000000"  transform="rotate(0.000000,297.500000,350.000000)" style="stroke: black; stroke-width:0.25;"/>
<rect x="346.500000" y="293.000000" width="38.700000" height="24.000000" rx="0" ry="0" style="stroke:none;fill:#cccccc;"/>
<rect x="345.500000" y="292.000000" width="38.700000" height="24.000000" rx="0" ry="0" style="stroke:none;fill:#4B71A1;"/>
<text x="364.850000" y="306.000000" font-family="Arial" font-size="7" text-anchor="middle" fill="#FFFFFF">select2</text>
<circle cx="347.500000" cy="294.000000" r="1"/>
<line x1="342.500000" y1="295.000000" x2="345.500000" y2="296.000000"  transform="rotate(0.000000,345.500000,296.000000)" style="stroke: black; stroke-width:0.25;"/>
<line x1="342.500000" y1="297.000000" x2="345.500000" y2="296.000000"  transform="rotate(0.000000,345.500000,296.000000)" style="stroke: black; stroke-width:0.25;"/>
<line x1="342.500000" y1="303.000000" x2="345.500000" y2="304.000000"  transform="rotate(0.000000,345.500000,304.000000)" style="stroke: black; stroke-width:0.25;"/>
<line x1="342.500000" y1="305.000000" x2="345.500000" y2="304.000000"  transform="rotate(0.000000,345.500000,304.000000)" style="stroke: black; stroke-width:0.25;"/>
<line x1="342.500000" y1="311.000000" x2="345.500000" y2="312.000000"  transform="rotate(0.000000,345.500000,312.000000)" style="stroke: black; stroke-width:0.25;"/>
<line x1="342.500000" y1="313.000000" x2="345.500000" y2="312.000000"  transform="rotate(0.000000,345.500000,312.000000)" style="stroke: black; stroke-width:0.25;"/>
<line x1="15.000000" y1="15.000000" x2="15.000000" y2="593.000000"  style="stroke: black; stroke-linecap:round; stroke-width:0.25; stroke-dasharray:3,3;"/>
<line x1="15.000000" y1="593.000000" x2="401.200000" y2="593.000000"  style="stroke: black; stroke-linecap:round; stroke-width:0.25; stroke-dasharray:3,3;"/>
<line x1="401.200000" y1="593.000000" x2="401.200000" y2="15.000000"  style="stroke: black; stroke-linecap:round; stroke-width:0.25; stroke-dasharray:3,3;"/>
<line x1="15.000000" y1="15.000000" x2="20.000000" y2="15.000000"  style="stroke: black; stroke-linecap:round; stroke-width:0.25; stroke-dasharray:3,3;"/>
<line x1="129.650000" y1="15.000000" x2="401.200000" y2="15.000000"  style="stroke: black; stroke-linecap:round; stroke-width:0.25; stroke-dasharray:3,3;"/>
<text x="20.000000" y="17.000000" font-family="Arial" font-size="7">facs1(3)(((3,...nt) : -) : +)(3)</text>
<line x1="403.200000" y1="303.000000" x2="406.200000" y2="304.000000"  transform="rotate(0.000000,406.200000,304.000000)" style="stroke: black; stroke-width:0.25;"/>
<line x1="403.200000" y1="305.000000" x2="406.200000" y2="304.000000"  transform="rotate(0.000000,406.200000,304.000000)" style="stroke: black; stroke-width:0.25;"/>
<line x1="93.400000" y1="130.000000" x2="97.400000" y2="130.000000"  style="stroke:black; stroke-linecap:round; stroke-width:0.25;"/>
<line x1="93.400000" y1="172.000000" x2="97.400000" y2="172.000000"  style="stroke:black; stroke-linecap:round; stroke-width:0.25;"/>
<line x1="93.400000" y1="298.000000" x2="97.400000" y2="298.000000"  style="stroke:black; stroke-linecap:round; stroke-width:0.25;"/>
<line x1="93.400000" y1="340.000000" x2="97.400000" y2="340.000000"  style="stroke:black; stroke-linecap:round; stroke-width:0.25;"/>
<line x1="97.400000" y1="130.000000" x2="107.400000" y2="130.000000"  style="stroke:black; stroke-linecap:round; stroke-width:0.25;"/>
<line x1="97.400000" y1="172.000000" x2="107.400000" y2="172.000000"  style="stroke:black; stroke-linecap:round; stroke-width:0.25;"/>
<line x1="97.400000" y1="298.000000" x2="107.400000" y2="298.000000"  style="stroke:black; stroke-linecap:round; stroke-width:0.25;"/>
<line x1="97.400000" y1="340.000000" x2="107.400000" y2="340.000000"  style="stroke:black; stroke-linecap:round; stroke-width:0.25;"/>
<line x1="107.400000" y1="130.000000" x2="115.400000" y2="130.000000"  style="stroke:black; stroke-linecap:round; stroke-width:0.25;"/>
<line x1="107.400000" y1="150.000000" x2="115.400000" y2="150.000000"  style="stroke:black; stroke-linecap:round; stroke-width:0.25;"/>
<line x1="107.400000" y1="172.000000" x2="107.400000" y2="150.000000"  style="stroke:black; stroke-linecap:round; stroke-width:0.25;"/>
<line x1="107.400000" y1="172.000000" x2="107.400000" y2="172.000000"  style="stroke:black; stroke-linecap:round; stroke-width:0.25;"/>
<line x1="107.400000" y1="298.000000" x2="115.400000" y2="298.000000"  style="stroke:black; stroke-linecap:round; stroke-width:0.25;"/>
<line x1="107.400000" y1="318.000000" x2="115.400000" y2="318.000000"  style="stroke:black; stroke-linecap:round; stroke-width:0.25;"/>
<line x1="107.400000" y1="340.000000" x2="107.400000" y2="318.000000"  style="stroke:black; stroke-linecap:round; stroke-width:0.25;"/>
<line x1="107.400000" y1="340.000000" x2="107.400000" y2="340.000000"  style="stroke:black; stroke-linecap:round; stroke-width:0.25;"/>
<line x1="113.400000" y1="214.000000" x2="117.400000" y2="214.000000"  style="stroke:black; stroke-linecap:round; stroke-width:0.25;"/>
<line x1="113.400000" y1="382.000000" x2="117.400000" y2="382.000000"  style="stroke:black; stroke-linecap:round; stroke-width:0.25;"/>
<line x1="113.400000" y1="456.000000" x2="117.400000" y2="456.000000"  style="stroke:black; stroke-linecap:round; stroke-width:0.25;"/>
<line x1="113.400000" y1="488.000000" x2="117.400000" y2="488.000000"  style="stroke:black; stroke-linecap:round; stroke-width:0.25;"/>
<line x1="115.400000" y1="130.000000" x2="115.400000" y2="142.000000"  style="stroke:black; stroke-linecap:round; stroke-width:0.25;"/>
<line x1="115.400000" y1="142.000000" x2="115.400000" y2="142.000000"  style="stroke:black; stroke-linecap:round; stroke-width:0.25;"/>
<line x1="115.400000" y1="142.000000" x2="119.400000" y2="142.000000"  style="stroke:black; stroke-linecap:round; stroke-width:0.25;"/>
<line x1="115.400000" y1="150.000000" x2="119.400000" y2="150.000000"  style="stroke:black; stroke-linecap:round; stroke-width:0.25;"/>
<line x1="115.400000" y1="298.000000" x2="115.400000" y2="310.000000"  style="stroke:black; stroke-linecap:round; stroke-width:0.25;"/>
<line x1="115.400000" y1="310.000000" x2="115.400000" y2="310.000000"  style="stroke:black; stroke-linecap:round; stroke-width:0.25;"/>
<line x1="115.400000" y1="310.000000" x2="119.400000" y2="310.000000"  style="stroke:black; stroke-linecap:round; stroke-width:0.25;"/>
<line x1="115.400000" y1="318.000000" x2="119.400000" y2="318.000000"  style="stroke:black; stroke-linecap:round; stroke-width:0.25;"/>
<line x1="117.400000" y1="214.000000" x2="127.400000" y2="214.000000"  style="stroke:black; stroke-linecap:round; stroke-width:0.25;"/>
<line x1="117.400000" y1="382.000000" x2="127.400000" y2="382.000000"  style="stroke:black; stroke-linecap:round; stroke-width:0.25;"/>
<line x1="117.400000" y1="456.000000" x2="125.400000" y2="456.000000"  style="stroke:black; stroke-linecap:round; stroke-width:0.25;"/>
<line x1="117.400000" y1="476.000000" x2="125.400000" y2="476.000000"  style="stroke:black; stroke-linecap:round; stroke-width:0.25;"/>
<line x1="117.400000" y1="488.000000" x2="117.400000" y2="476.000000"  style="stroke:black; stroke-linecap:round; stroke-width:0.25;"/>
<line x1="117.400000" y1="488.000000" x2="117.400000" y2="488.000000"  style="stroke:black; stroke-linecap:round; stroke-width:0.25;"/>
<line x1="125.400000" y1="456.000000" x2="125.400000" y2="468.000000"  style="stroke:black; stroke-linecap:round; stroke-width:0.25;"/>
<line x1="125.400000" y1="468.000000" x2="125.400000" y2="468.000000"  style="stroke:black; stroke-linecap:round; stroke-width:0.25;"/>
<line x1="125.400000" y1="468.000000" x2="129.400000" y2="468.000000"  style="stroke:black; stroke-linecap:round; stroke-width:0.25;"/>
<line x1="125.400000" y1="476.000000" x2="129.400000" y2="476.000000"  style="stroke:black; stroke-linecap:round; stroke-width:0.25;"/>
<line x1="127.400000" y1="214.000000" x2="182.800000" y2="214.000000"  style="stroke:black; stroke-linecap:round; stroke-width:0.25;"/>
<line x1="127.400000" y1="382.000000" x2="182.800000" y2="382.000000"  style="stroke:black; stroke-linecap:round; stroke-width:0.25;"/>
<line x1="133.400000" y1="530.000000" x2="137.400000" y2="530.000000"  style="stroke:black; stroke-linecap:round; stroke-width:0.25;"/>
<line x1="137.400000" y1="530.000000" x2="147.400000" y2="530.000000"  style="stroke:black; stroke-linecap:round; stroke-width:0.25;"/>
<line x1="143.400000" y1="146.000000" x2="147.400000" y2="146.000000"  style="stroke:black; stroke-linecap:round; stroke-width:0.25;"/>
<line x1="143.400000" y1="314.000000" x2="147.400000" y2="314.000000"  style="stroke:black; stroke-linecap:round; stroke-width:0.25;"/>
<line x1="147.400000" y1="146.000000" x2="182.800000" y2="146.000000"  style="stroke:black; stroke-linecap:round; stroke-width:0.25;"/>
<line x1="147.400000" y1="314.000000" x2="182.800000" y2="314.000000"  style="stroke:black; stroke-linecap:round; stroke-width:0.25;"/>
<line x1="147.400000" y1="530.000000" x2="202.800000" y2="530.000000"  style="stroke:black; stroke-linecap:round; stroke-width:0.25;"/>
<line x1="153.400000" y1="472.000000" x2="157.400000" y2="472.000000"  style="stroke:black; stroke-linecap:round; stroke-width:0.25;"/>
<line x1="157.400000" y1="472.000000" x2="202.800000" y2="472.000000"  style="stroke:black; stroke-linecap:round; stroke-width:0.25;"/>
<line x1="178.800000" y1="256.000000" x2="182.800000" y2="256.000000"  style="stroke:black; stroke-linecap:round; stroke-width:0.25;"/>
<line x1="178.800000" y1="424.000000" x2="182.800000" y2="424.000000"  style="stroke:black; stroke-linecap:round; stroke-width:0.25;"/>
<line x1="182.800000" y1="146.000000" x2="198.800000" y2="146.000000"  style="stroke:black; stroke-linecap:round; stroke-width:0.25;"/>
<line x1="182.800000" y1="314.000000" x2="198.800000" y2="314.000000"  style="stroke:black; stroke-linecap:round; stroke-width:0.25;"/>
<line x1="182.800000" y1="188.000000" x2="198.800000" y2="188.000000"  style="stroke:black; stroke-linecap:round; stroke-width:0.25;"/>
<line x1="182.800000" y1="214.000000" x2="182.800000" y2="188.000000"  style="stroke:black; stroke-linecap:round; stroke-width:0.25;"/>
<line x1="182.800000" y1="214.000000" x2="182.800000" y2="214.000000"  style="stroke:black; stroke-linecap:round; stroke-width:0.25;"/>
<line x1="182.800000" y1="256.000000" x2="190.800000" y2="256.000000"  style="stroke:black; stroke-linecap:round; stroke-width:0.25;"/>
<line x1="182.800000" y1="356.000000" x2="198.800000" y2="356.000000"  style="stroke:black; stroke-linecap:round; stroke-width:0.25;"/>
<line x1="182.800000" y1="382.000000" x2="182.800000" y2="356.000000"  style="stroke:black; stroke-linecap:round; stroke-width:0.25;"/>
<line x1="182.800000" y1="382.000000" x2="182.800000" y2="382.000000"  style="stroke:black; stroke-linecap:round; stroke-width:0.25;"/>
<line x1="182.800000" y1="424.000000" x2="190.800000" y2="424.000000"  style="stroke:black; stroke-linecap:round; stroke-width:0.25;"/>
<line x1="184.750000" y1="36.000000" x2="188.750000" y2="36.000000"  style="stroke:black; stroke-linecap:round; stroke-width:0.25;"/>
<line x1="184.750000" y1="78.000000" x2="188.750000" y2="78.000000"  style="stroke:black; stroke-linecap:round; stroke-width:0.25;"/>
<line x1="188.750000" y1="36.000000" x2="325.500000" y2="36.000000"  style="stroke:black; stroke-linecap:round; stroke-width:0.25;"/>
<line x1="188.750000" y1="78.000000" x2="198.750000" y2="78.000000"  style="stroke:black; stroke-linecap:round; stroke-width:0.25;"/>
<line x1="190.800000" y1="196.000000" x2="198.800000" y2="196.000000"  style="stroke:black; stroke-linecap:round; stroke-width:0.25;"/>
<line x1="190.800000" y1="256.000000" x2="190.800000" y2="196.000000"  style="stroke:black; stroke-linecap:round; stroke-width:0.25;"/>
<line x1="190.800000" y1="364.000000" x2="198.800000" y2="364.000000"  style="stroke:black; stroke-linecap:round; stroke-width:0.25;"/>
<line x1="190.800000" y1="424.000000" x2="190.800000" y2="364.000000"  style="stroke:black; stroke-linecap:round; stroke-width:0.25;"/>
<line x1="198.750000" y1="78.000000" x2="325.500000" y2="78.000000"  style="stroke:black; stroke-linecap:round; stroke-width:0.25;"/>
<line x1="198.800000" y1="146.000000" x2="198.800000" y2="180.000000"  style="stroke:black; stroke-linecap:round; stroke-width:0.25;"/>
<line x1="198.800000" y1="180.000000" x2="198.800000" y2="180.000000"  style="stroke:black; stroke-linecap:round; stroke-width:0.25;"/>
<line x1="198.800000" y1="314.000000" x2="198.800000" y2="348.000000"  style="stroke:black; stroke-linecap:round; stroke-width:0.25;"/>
<line x1="198.800000" y1="348.000000" x2="198.800000" y2="348.000000"  style="stroke:black; stroke-linecap:round; stroke-width:0.25;"/>
<line x1="198.800000" y1="180.000000" x2="202.800000" y2="180.000000"  style="stroke:black; stroke-linecap:round; stroke-width:0.25;"/>
<line x1="198.800000" y1="188.000000" x2="202.800000" y2="188.000000"  style="stroke:black; stroke-linecap:round; stroke-width:0.25;"/>
<line x1="198.800000" y1="196.000000" x2="202.800000" y2="196.000000"  style="stroke:black; stroke-linecap:round; stroke-width:0.25;"/>
<line x1="198.800000" y1="348.000000" x2="202.800000" y2="348.000000"  style="stroke:black; stroke-linecap:round; stroke-width:0.25;"/>
<line x1="198.800000" y1="356.000000" x2="202.800000" y2="356.000000"  style="stroke:black; stroke-linecap:round; stroke-width:0.25;"/>
<line x1="198.800000" y1="364.000000" x2="202.800000" y2="364.000000"  style="stroke:black; stroke-linecap:round; stroke-width:0.25;"/>
<line x1="198.800000" y1="572.000000" x2="202.800000" y2="572.000000"  style="stroke:black; stroke-linecap:round; stroke-width:0.25;"/>
<line x1="202.800000" y1="472.000000" x2="218.800000" y2="472.000000"  style="stroke:black; stroke-linecap:round; stroke-width:0.25;"/>
<line x1="202.800000" y1="514.000000" x2="218.800000" y2="514.000000"  style="stroke:black; stroke-linecap:round; stroke-width:0.25;"/>
<line x1="202.800000" y1="530.000000" x2="202.800000" y2="514.000000"  style="stroke:black; stroke-linecap:round; stroke-width:0.25;"/>
<line x1="202.800000" y1="530.000000" x2="202.800000" y2="530.000000"  style="stroke:black; stroke-linecap:round; stroke-width:0.25;"/>
<line x1="202.800000" y1="572.000000" x2="210.800000" y2="572.000000"  style="stroke:black; stroke-linecap:round; stroke-width:0.25;"/>
<line x1="210.800000" y1="522.000000" x2="218.800000" y2="522.000000"  style="stroke:black; stroke-linecap:round; stroke-width:0.25;"/>
<line x1="210.800000" y1="572.000000" x2="210.800000" y2="522.000000"  style="stroke:black; stroke-linecap:round; stroke-width:0.25;"/>
<line x1="218.800000" y1="472.000000" x2="218.800000" y2="506.000000"  style="stroke:black; stroke-linecap:round; stroke-width:0.25;"/>
<line x1="218.800000" y1="506.000000" x2="218.800000" y2="506.000000"  style="stroke:black; stroke-linecap:round; stroke-width:0.25;"/>
<line x1="218.800000" y1="506.000000" x2="222.800000" y2="506.000000"  style="stroke:black; stroke-linecap:round; stroke-width:0.25;"/>
<line x1="218.800000" y1="514.000000" x2="222.800000" y2="514.000000"  style="stroke:black; stroke-linecap:round; stroke-width:0.25;"/>
<line x1="218.800000" y1="522.000000" x2="222.800000" y2="522.000000"  style="stroke:black; stroke-linecap:round; stroke-width:0.25;"/>
<line x1="241.500000" y1="188.000000" x2="245.500000" y2="188.000000"  style="stroke:black; stroke-linecap:round; stroke-width:0.25;"/>
<line x1="241.500000" y1="356.000000" x2="245.500000" y2="356.000000"  style="stroke:black; stroke-linecap:round; stroke-width:0.25;"/>
<line x1="245.500000" y1="188.000000" x2="253.500000" y2="188.000000"  style="stroke:black; stroke-linecap:round; stroke-width:0.25;"/>
<line x1="245.500000" y1="276.000000" x2="253.500000" y2="276.000000"  style="stroke:black; stroke-linecap:round; stroke-width:0.25;"/>
<line x1="245.500000" y1="356.000000" x2="245.500000" y2="276.000000"  style="stroke:black; stroke-linecap:round; stroke-width:0.25;"/>
<line x1="245.500000" y1="356.000000" x2="245.500000" y2="356.000000"  style="stroke:black; stroke-linecap:round; stroke-width:0.25;"/>
<line x1="253.500000" y1="188.000000" x2="253.500000" y2="268.000000"  style="stroke:black; stroke-linecap:round; stroke-width:0.25;"/>
<line x1="253.500000" y1="268.000000" x2="253.500000" y2="268.000000"  style="stroke:black; stroke-linecap:round; stroke-width:0.25;"/>
<line x1="253.500000" y1="268.000000" x2="257.500000" y2="268.000000"  style="stroke:black; stroke-linecap:round; stroke-width:0.25;"/>
<line x1="253.500000" y1="276.000000" x2="257.500000" y2="276.000000"  style="stroke:black; stroke-linecap:round; stroke-width:0.25;"/>
<line x1="261.500000" y1="514.000000" x2="265.500000" y2="514.000000"  style="stroke:black; stroke-linecap:round; stroke-width:0.25;"/>
<line x1="265.500000" y1="514.000000" x2="285.500000" y2="514.000000"  style="stroke:black; stroke-linecap:round; stroke-width:0.25;"/>
<line x1="281.500000" y1="272.000000" x2="285.500000" y2="272.000000"  style="stroke:black; stroke-linecap:round; stroke-width:0.25;"/>
<line x1="285.500000" y1="272.000000" x2="293.500000" y2="272.000000"  style="stroke:black; stroke-linecap:round; stroke-width:0.25;"/>
<line x1="285.500000" y1="350.000000" x2="293.500000" y2="350.000000"  style="stroke:black; stroke-linecap:round; stroke-width:0.25;"/>
<line x1="285.500000" y1="514.000000" x2="285.500000" y2="350.000000"  style="stroke:black; stroke-linecap:round; stroke-width:0.25;"/>
<line x1="285.500000" y1="514.000000" x2="285.500000" y2="514.000000"  style="stroke:black; stroke-linecap:round; stroke-width:0.25;"/>
<line x1="293.500000" y1="272.000000" x2="293.500000" y2="342.000000"  style="stroke:black; stroke-linecap:round; stroke-width:0.25;"/>
<line x1="293.500000" y1="342.000000" x2="293.500000" y2="342.000000"  style="stroke:black; stroke-linecap:round; stroke-width:0.25;"/>
<line x1="293.500000" y1="342.000000" x2="297.500000" y2="342.000000"  style="stroke:black; stroke-linecap:round; stroke-width:0.25;"/>
<line x1="293.500000" y1="350.000000" x2="297.500000" y2="350.000000"  style="stroke:black; stroke-linecap:round; stroke-width:0.25;"/>
<line x1="321.500000" y1="346.000000" x2="325.500000" y2="346.000000"  style="stroke:black; stroke-linecap:round; stroke-width:0.25;"/>
<line x1="325.500000" y1="36.000000" x2="341.500000" y2="36.000000"  style="stroke:black; stroke-linecap:round; stroke-width:0.25;"/>
<line x1="325.500000" y1="78.000000" x2="333.500000" y2="78.000000"  style="stroke:black; stroke-linecap:round; stroke-width:0.25;"/>
<line x1="325.500000" y1="312.000000" x2="341.500000" y2="312.000000"  style="stroke:black; stroke-linecap:round; stroke-width:0.25;"/>
<line x1="325.500000" y1="346.000000" x2="325.500000" y2="312.000000"  style="stroke:black; stroke-linecap:round; stroke-width:0.25;"/>
<line x1="325.500000" y1="346.000000" x2="325.500000" y2="346.000000"  style="stroke:black; stroke-linecap:round; stroke-width:0.25;"/>
<line x1="333.500000" y1="78.000000" x2="333.500000" y2="304.000000"  style="stroke:black; stroke-linecap:round; stroke-width:0.25;"/>
<line x1="333.500000" y1="304.000000" x2="341.500000" y2="304.000000"  style="stroke:black; stroke-linecap:round; stroke-width:0.25;"/>
<line x1="341.500000" y1="36.000000" x2="341.500000" y2="296.000000"  style="stroke:black; stroke-linecap:round; stroke-width:0.25;"/>
<line x1="341.500000" y1="296.000000" x2="341.500000" y2="296.000000"  style="stroke:black; stroke-linecap:round; stroke-width:0.25;"/>
<line x1="341.500000" y1="296.000000" x2="345.500000" y2="296.000000"  style="stroke:black; stroke-linecap:round; stroke-width:0.25;"/>
<line x1="341.500000" y1="304.000000" x2="345.500000" y2="304.000000"  style="stroke:black; stroke-linecap:round; stroke-width:0.25;"/>
<line x1="341.500000" y1="312.000000" x2="345.500000" y2="312.000000"  style="stroke:black; stroke-linecap:round; stroke-width:0.25;"/>
<line x1="384.200000" y1="304.000000" x2="388.200000" y2="304.000000"  style="stroke:black; stroke-linecap:round; stroke-width:0.25;"/>
<line x1="388.200000" y1="304.000000" x2="388.200000" y2="304.000000"  style="stroke:black; stroke-linecap:round; stroke-width:0.25;"/>
<line x1="388.200000" y1="304.000000" x2="392.200000" y2="304.000000"  style="stroke:black; stroke-linecap:round; stroke-width:0.25;"/>
<line x1="392.200000" y1="304.000000" x2="396.200000" y2="304.000000"  style="stroke:black; stroke-linecap:round; stroke-width:0.25;"/>
<line x1="396.200000" y1="304.000000" x2="406.200000" y2="304.000000"  style="stroke:black; stroke-linecap:round; stroke-width:0.25;"/>
</svg>
