<?xml version="1.0"?>
<svg xmlns="http://www.w3.org/2000/svg" xmlns:xlink="http://www.w3.org/1999/xlink" viewBox="0 0 336.200000 332.000000" width="168.100000mm" height="166.000000mm" version="1.1">
<a xlink:href="h-0x9f60450.svg">
<rect x="1.000000" y="1.000000" width="335.200000" height="331.000000" rx="0" ry="0" style="stroke:none;fill:#cccccc;"/>
<rect x="0.000000" y="0.000000" width="335.200000" height="331.000000" rx="0" ry="0" style="stroke:none;fill:#ffffff;"/>
</a>
<text x="10.000000" y="7.000000" font-family="Arial" font-size="7"></text>
<rect x="121.750000" y="35.000000" width="24.000000" height="24.000000" rx="0" ry="0" style="stroke:none;fill:#cccccc;"/>
<rect x="120.750000" y="34.000000" width="24.000000" height="24.000000" rx="0" ry="0" style="stroke:none;fill:#f44800;"/>
<text x="132.750000" y="48.000000" font-family="Arial" font-size="7" text-anchor="middle" fill="#FFFFFF">1</text>
<circle cx="122.750000" cy="36.000000" r="1"/>
<line x1="111.750000" y1="25.000000" x2="111.750000" y2="67.000000"  style="stroke: black; stroke-linecap:round; stroke-width:0.25; stroke-dasharray:3,3;"/>
<line x1="111.750000" y1="67.000000" x2="153.750000" y2="67.000000"  style="stroke: black; stroke-linecap:round; stroke-width:0.25; stroke-dasharray:3,3;"/>
<line x1="153.750000" y1="67.000000" x2="153.750000" y2="25.000000"  style="stroke: black; stroke-linecap:round; stroke-width:0.25; stroke-dasharray:3,3;"/>
<line x1="111.750000" y1="25.000000" x2="116.750000" y2="25.000000"  style="stroke: black; stroke-linecap:round; stroke-width:0.25; stroke-dasharray:3,3;"/>
<line x1="126.425000" y1="25.000000" x2="153.750000" y2="25.000000"  style="stroke: black; stroke-linecap:round; stroke-width:0.25; stroke-dasharray:3,3;"/>
<text x="116.750000" y="27.000000" font-family="Arial" font-size="7">N</text>
<rect x="121.750000" y="87.000000" width="24.000000" height="24.000000" rx="0" ry="0" style="stroke:none;fill:#cccccc;"/>
<rect x="120.750000" y="86.000000" width="24.000000" height="24.000000" rx="0" ry="0" style="stroke:none;fill:#f44800;"/>
<text x="132.750000" y="100.000000" font-family="Arial" font-size="7" text-anchor="middle" fill="#FFFFFF">1</text>
<circle cx="122.750000" cy="88.000000" r="1"/>
<line x1="111.750000" y1="77.000000" x2="111.750000" y2="119.000000"  style="stroke: black; stroke-linecap:round; stroke-width:0.25; stroke-dasharray:3,3;"/>
<line x1="111.750000" y1="119.000000" x2="153.750000" y2="119.000000"  style="stroke: black; stroke-linecap:round; stroke-width:0.25; stroke-dasharray:3,3;"/>
<line x1="153.750000" y1="119.000000" x2="153.750000" y2="77.000000"  style="stroke: black; stroke-linecap:round; stroke-width:0.25; stroke-dasharray:3,3;"/>
<line x1="111.750000" y1="77.000000" x2="116.750000" y2="77.000000"  style="stroke: black; stroke-linecap:round; stroke-width:0.25; stroke-dasharray:3,3;"/>
<line x1="126.425000" y1="77.000000" x2="153.750000" y2="77.000000"  style="stroke: black; stroke-linecap:round; stroke-width:0.25; stroke-dasharray:3,3;"/>
<text x="116.750000" y="79.000000" font-family="Arial" font-size="7">N</text>
<rect x="70.400000" y="139.000000" width="24.000000" height="24.000000" rx="0" ry="0" style="stroke:none;fill:#cccccc;"/>
<rect x="69.400000" y="138.000000" width="24.000000" height="24.000000" rx="0" ry="0" style="stroke:none;fill:#f44800;"/>
<text x="81.400000" y="152.000000" font-family="Arial" font-size="7" text-anchor="middle" fill="#FFFFFF">0</text>
<circle cx="71.400000" cy="140.000000" r="1"/>
<line x1="60.400000" y1="129.000000" x2="60.400000" y2="171.000000"  style="stroke: black; stroke-linecap:round; stroke-width:0.25; stroke-dasharray:3,3;"/>
<line x1="60.400000" y1="171.000000" x2="102.400000" y2="171.000000"  style="stroke: black; stroke-linecap:round; stroke-width:0.25; stroke-dasharray:3,3;"/>
<line x1="102.400000" y1="171.000000" x2="102.400000" y2="129.000000"  style="stroke: black; stroke-linecap:round; stroke-width:0.25; stroke-dasharray:3,3;"/>
<line x1="60.400000" y1="129.000000" x2="65.400000" y2="129.000000"  style="stroke: black; stroke-linecap:round; stroke-width:0.25; stroke-dasharray:3,3;"/>
<line x1="102.400000" y1="129.000000" x2="102.400000" y2="129.000000"  style="stroke: black; stroke-linecap:round; stroke-width:0.25; stroke-dasharray:3,3;"/>
<text x="65.400000" y="131.000000" font-family="Arial" font-size="7">enablePitchQuantise</text>
<rect x="70.400000" y="191.000000" width="24.000000" height="24.000000" rx="0" ry="0" style="stroke:none;fill:#cccccc;"/>
<rect x="69.400000" y="190.000000" width="24.000000" height="24.000000" rx="0" ry="0" style="stroke:none;fill:#f44800;"/>
<text x="81.400000" y="204.000000" font-family="Arial" font-size="7" text-anchor="middle" fill="#FFFFFF">1</text>
<circle cx="71.400000" cy="192.000000" r="1"/>
<line x1="60.400000" y1="181.000000" x2="60.400000" y2="223.000000"  style="stroke: black; stroke-linecap:round; stroke-width:0.25; stroke-dasharray:3,3;"/>
<line x1="60.400000" y1="223.000000" x2="102.400000" y2="223.000000"  style="stroke: black; stroke-linecap:round; stroke-width:0.25; stroke-dasharray:3,3;"/>
<line x1="102.400000" y1="223.000000" x2="102.400000" y2="181.000000"  style="stroke: black; stroke-linecap:round; stroke-width:0.25; stroke-dasharray:3,3;"/>
<line x1="60.400000" y1="181.000000" x2="65.400000" y2="181.000000"  style="stroke: black; stroke-linecap:round; stroke-width:0.25; stroke-dasharray:3,3;"/>
<line x1="75.075000" y1="181.000000" x2="102.400000" y2="181.000000"  style="stroke: black; stroke-linecap:round; stroke-width:0.25; stroke-dasharray:3,3;"/>
<text x="65.400000" y="183.000000" font-family="Arial" font-size="7">N</text>
<rect x="120.400000" y="165.000000" width="24.000000" height="24.000000" rx="0" ry="0" style="stroke:none;fill:#cccccc;"/>
<rect x="119.400000" y="164.000000" width="24.000000" height="24.000000" rx="0" ry="0" style="stroke:none;fill:#4B71A1;"/>
<text x="131.400000" y="178.000000" font-family="Arial" font-size="7" text-anchor="middle" fill="#FFFFFF">&lt;</text>
<circle cx="121.400000" cy="166.000000" r="1"/>
<line x1="116.400000" y1="171.000000" x2="119.400000" y2="172.000000"  transform="rotate(0.000000,119.400000,172.000000)" style="stroke: black; stroke-width:0.25;"/>
<line x1="116.400000" y1="173.000000" x2="119.400000" y2="172.000000"  transform="rotate(0.000000,119.400000,172.000000)" style="stroke: black; stroke-width:0.25;"/>
<line x1="116.400000" y1="179.000000" x2="119.400000" y2="180.000000"  transform="rotate(0.000000,119.400000,180.000000)" style="stroke: black; stroke-width:0.25;"/>
<line x1="116.400000" y1="181.000000" x2="119.400000" y2="180.000000"  transform="rotate(0.000000,119.400000,180.000000)" style="stroke: black; stroke-width:0.25;"/>
<rect x="90.400000" y="243.000000" width="24.000000" height="24.000000" rx="0" ry="0" style="stroke:none;fill:#cccccc;"/>
<rect x="89.400000" y="242.000000" width="24.000000" height="24.000000" rx="0" ry="0" style="stroke:none;fill:#f44800;"/>
<text x="101.400000" y="256.000000" font-family="Arial" font-size="7" text-anchor="middle" fill="#FFFFFF">1</text>
<circle cx="91.400000" cy="244.000000" r="1"/>
<line x1="80.400000" y1="233.000000" x2="80.400000" y2="275.000000"  style="stroke: black; stroke-linecap:round; stroke-width:0.25; stroke-dasharray:3,3;"/>
<line x1="80.400000" y1="275.000000" x2="122.400000" y2="275.000000"  style="stroke: black; stroke-linecap:round; stroke-width:0.25; stroke-dasharray:3,3;"/>
<line x1="122.400000" y1="275.000000" x2="122.400000" y2="233.000000"  style="stroke: black; stroke-linecap:round; stroke-width:0.25; stroke-dasharray:3,3;"/>
<line x1="80.400000" y1="233.000000" x2="85.400000" y2="233.000000"  style="stroke: black; stroke-linecap:round; stroke-width:0.25; stroke-dasharray:3,3;"/>
<line x1="95.075000" y1="233.000000" x2="122.400000" y2="233.000000"  style="stroke: black; stroke-linecap:round; stroke-width:0.25; stroke-dasharray:3,3;"/>
<text x="85.400000" y="235.000000" font-family="Arial" font-size="7">N</text>
<a xlink:href="fac-0x9dc1d40.svg">
<rect x="25.000000" y="285.000000" width="154.800000" height="24.000000" rx="0" ry="0" style="stroke:none;fill:#cccccc;"/>
<rect x="24.000000" y="284.000000" width="154.800000" height="24.000000" rx="0" ry="0" style="stroke:none;fill:#003366;"/>
</a>
<a xlink:href="fac-0x9dc1d40.svg">
<text x="101.400000" y="298.000000" font-family="Arial" font-size="7" text-anchor="middle" fill="#FFFFFF">fac(((4,1.000...nt) : -) : +)(1)(0)</text>
</a>
<circle cx="26.000000" cy="286.000000" r="1"/>
<rect x="203.800000" y="207.000000" width="38.700000" height="24.000000" rx="0" ry="0" style="stroke:none;fill:#cccccc;"/>
<rect x="202.800000" y="206.000000" width="38.700000" height="24.000000" rx="0" ry="0" style="stroke:none;fill:#4B71A1;"/>
<text x="222.150000" y="220.000000" font-family="Arial" font-size="7" text-anchor="middle" fill="#FFFFFF">select2</text>
<circle cx="204.800000" cy="208.000000" r="1"/>
<line x1="199.800000" y1="209.000000" x2="202.800000" y2="210.000000"  transform="rotate(0.000000,202.800000,210.000000)" style="stroke: black; stroke-width:0.25;"/>
<line x1="199.800000" y1="211.000000" x2="202.800000" y2="210.000000"  transform="rotate(0.000000,202.800000,210.000000)" style="stroke: black; stroke-width:0.25;"/>
<line x1="199.800000" y1="217.000000" x2="202.800000" y2="218.000000"  transform="rotate(0.000000,202.800000,218.000000)" style="stroke: black; stroke-width:0.25;"/>
<line x1="199.800000" y1="219.000000" x2="202.800000" y2="218.000000"  transform="rotate(0.000000,202.800000,218.000000)" style="stroke: black; stroke-width:0.25;"/>
<line x1="199.800000" y1="225.000000" x2="202.800000" y2="226.000000"  transform="rotate(0.000000,202.800000,226.000000)" style="stroke: black; stroke-width:0.25;"/>
<line x1="199.800000" y1="227.000000" x2="202.800000" y2="226.000000"  transform="rotate(0.000000,202.800000,226.000000)" style="stroke: black; stroke-width:0.25;"/>
<rect x="266.500000" y="155.000000" width="38.700000" height="24.000000" rx="0" ry="0" style="stroke:none;fill:#cccccc;"/>
<rect x="265.500000" y="154.000000" width="38.700000" height="24.000000" rx="0" ry="0" style="stroke:none;fill:#4B71A1;"/>
<text x="284.850000" y="168.000000" font-family="Arial" font-size="7" text-anchor="middle" fill="#FFFFFF">select2</text>
<circle cx="267.500000" cy="156.000000" r="1"/>
<line x1="262.500000" y1="157.000000" x2="265.500000" y2="158.000000"  transform="rotate(0.000000,265.500000,158.000000)" style="stroke: black; stroke-width:0.25;"/>
<line x1="262.500000" y1="159.000000" x2="265.500000" y2="158.000000"  transform="rotate(0.000000,265.500000,158.000000)" style="stroke: black; stroke-width:0.25;"/>
<line x1="262.500000" y1="165.000000" x2="265.500000" y2="166.000000"  transform="rotate(0.000000,265.500000,166.000000)" style="stroke: black; stroke-width:0.25;"/>
<line x1="262.500000" y1="167.000000" x2="265.500000" y2="166.000000"  transform="rotate(0.000000,265.500000,166.000000)" style="stroke: black; stroke-width:0.25;"/>
<line x1="262.500000" y1="173.000000" x2="265.500000" y2="174.000000"  transform="rotate(0.000000,265.500000,174.000000)" style="stroke: black; stroke-width:0.25;"/>
<line x1="262.500000" y1="175.000000" x2="265.500000" y2="174.000000"  transform="rotate(0.000000,265.500000,174.000000)" style="stroke: black; stroke-width:0.25;"/>
<line x1="15.000000" y1="15.000000" x2="15.000000" y2="317.000000"  style="stroke: black; stroke-linecap:round; stroke-width:0.25; stroke-dasharray:3,3;"/>
<line x1="15.000000" y1="317.000000" x2="321.200000" y2="317.000000"  style="stroke: black; stroke-linecap:round; stroke-width:0.25; stroke-dasharray:3,3;"/>
<line x1="321.200000" y1="317.000000" x2="321.200000" y2="15.000000"  style="stroke: black; stroke-linecap:round; stroke-width:0.25; stroke-dasharray:3,3;"/>
<line x1="15.000000" y1="15.000000" x2="20.000000" y2="15.000000"  style="stroke: black; stroke-linecap:round; stroke-width:0.25; stroke-dasharray:3,3;"/>
<line x1="129.650000" y1="15.000000" x2="321.200000" y2="15.000000"  style="stroke: black; stroke-linecap:round; stroke-width:0.25; stroke-dasharray:3,3;"/>
<text x="20.000000" y="17.000000" font-family="Arial" font-size="7">facs1(4)(((4,...nt) : -) : +)(1)</text>
<line x1="323.200000" y1="165.000000" x2="326.200000" y2="166.000000"  transform="rotate(0.000000,326.200000,166.000000)" style="stroke: black; stroke-width:0.25;"/>
<line x1="323.200000" y1="167.000000" x2="326.200000" y2="166.000000"  transform="rotate(0.000000,326.200000,166.000000)" style="stroke: black; stroke-width:0.25;"/>
<line x1="93.400000" y1="150.000000" x2="97.400000" y2="150.000000"  style="stroke:black; stroke-linecap:round; stroke-width:0.25;"/>
<line x1="93.400000" y1="202.000000" x2="97.400000" y2="202.000000"  style="stroke:black; stroke-linecap:round; stroke-width:0.25;"/>
<line x1="97.400000" y1="150.000000" x2="107.400000" y2="150.000000"  style="stroke:black; stroke-linecap:round; stroke-width:0.25;"/>
<line x1="97.400000" y1="202.000000" x2="107.400000" y2="202.000000"  style="stroke:black; stroke-linecap:round; stroke-width:0.25;"/>
<line x1="107.400000" y1="150.000000" x2="115.400000" y2="150.000000"  style="stroke:black; stroke-linecap:round; stroke-width:0.25;"/>
<line x1="107.400000" y1="180.000000" x2="115.400000" y2="180.000000"  style="stroke:black; stroke-linecap:round; stroke-width:0.25;"/>
<line x1="107.400000" y1="202.000000" x2="107.400000" y2="180.000000"  style="stroke:black; stroke-linecap:round; stroke-width:0.25;"/>
<line x1="107.400000" y1="202.000000" x2="107.400000" y2="202.000000"  style="stroke:black; stroke-linecap:round; stroke-width:0.25;"/>
<line x1="113.400000" y1="254.000000" x2="117.400000" y2="254.000000"  style="stroke:black; stroke-linecap:round; stroke-width:0.25;"/>
<line x1="115.400000" y1="150.000000" x2="115.400000" y2="172.000000"  style="stroke:black; stroke-linecap:round; stroke-width:0.25;"/>
<line x1="115.400000" y1="172.000000" x2="115.400000" y2="172.000000"  style="stroke:black; stroke-linecap:round; stroke-width:0.25;"/>
<line x1="115.400000" y1="172.000000" x2="119.400000" y2="172.000000"  style="stroke:black; stroke-linecap:round; stroke-width:0.25;"/>
<line x1="115.400000" y1="180.000000" x2="119.400000" y2="180.000000"  style="stroke:black; stroke-linecap:round; stroke-width:0.25;"/>
<line x1="117.400000" y1="254.000000" x2="127.400000" y2="254.000000"  style="stroke:black; stroke-linecap:round; stroke-width:0.25;"/>
<line x1="127.400000" y1="254.000000" x2="182.800000" y2="254.000000"  style="stroke:black; stroke-linecap:round; stroke-width:0.25;"/>
<line x1="143.400000" y1="176.000000" x2="147.400000" y2="176.000000"  style="stroke:black; stroke-linecap:round; stroke-width:0.25;"/>
<line x1="144.750000" y1="46.000000" x2="148.750000" y2="46.000000"  style="stroke:black; stroke-linecap:round; stroke-width:0.25;"/>
<line x1="144.750000" y1="98.000000" x2="148.750000" y2="98.000000"  style="stroke:black; stroke-linecap:round; stroke-width:0.25;"/>
<line x1="147.400000" y1="176.000000" x2="182.800000" y2="176.000000"  style="stroke:black; stroke-linecap:round; stroke-width:0.25;"/>
<line x1="148.750000" y1="46.000000" x2="158.750000" y2="46.000000"  style="stroke:black; stroke-linecap:round; stroke-width:0.25;"/>
<line x1="148.750000" y1="98.000000" x2="158.750000" y2="98.000000"  style="stroke:black; stroke-linecap:round; stroke-width:0.25;"/>
<line x1="158.750000" y1="46.000000" x2="245.500000" y2="46.000000"  style="stroke:black; stroke-linecap:round; stroke-width:0.25;"/>
<line x1="158.750000" y1="98.000000" x2="245.500000" y2="98.000000"  style="stroke:black; stroke-linecap:round; stroke-width:0.25;"/>
<line x1="178.800000" y1="296.000000" x2="182.800000" y2="296.000000"  style="stroke:black; stroke-linecap:round; stroke-width:0.25;"/>
<line x1="182.800000" y1="176.000000" x2="198.800000" y2="176.000000"  style="stroke:black; stroke-linecap:round; stroke-width:0.25;"/>
<line x1="182.800000" y1="218.000000" x2="198.800000" y2="218.000000"  style="stroke:black; stroke-linecap:round; stroke-width:0.25;"/>
<line x1="182.800000" y1="254.000000" x2="182.800000" y2="218.000000"  style="stroke:black; stroke-linecap:round; stroke-width:0.25;"/>
<line x1="182.800000" y1="254.000000" x2="182.800000" y2="254.000000"  style="stroke:black; stroke-linecap:round; stroke-width:0.25;"/>
<line x1="182.800000" y1="296.000000" x2="190.800000" y2="296.000000"  style="stroke:black; stroke-linecap:round; stroke-width:0.25;"/>
<line x1="190.800000" y1="226.000000" x2="198.800000" y2="226.000000"  style="stroke:black; stroke-linecap:round; stroke-width:0.25;"/>
<line x1="190.800000" y1="296.000000" x2="190.800000" y2="226.000000"  style="stroke:black; stroke-linecap:round; stroke-width:0.25;"/>
<line x1="198.800000" y1="176.000000" x2="198.800000" y2="210.000000"  style="stroke:black; stroke-linecap:round; stroke-width:0.25;"/>
<line x1="198.800000" y1="210.000000" x2="198.800000" y2="210.000000"  style="stroke:black; stroke-linecap:round; stroke-width:0.25;"/>
<line x1="198.800000" y1="210.000000" x2="202.800000" y2="210.000000"  style="stroke:black; stroke-linecap:round; stroke-width:0.25;"/>
<line x1="198.800000" y1="218.000000" x2="202.800000" y2="218.000000"  style="stroke:black; stroke-linecap:round; stroke-width:0.25;"/>
<line x1="198.800000" y1="226.000000" x2="202.800000" y2="226.000000"  style="stroke:black; stroke-linecap:round; stroke-width:0.25;"/>
<line x1="241.500000" y1="218.000000" x2="245.500000" y2="218.000000"  style="stroke:black; stroke-linecap:round; stroke-width:0.25;"/>
<line x1="245.500000" y1="174.000000" x2="261.500000" y2="174.000000"  style="stroke:black; stroke-linecap:round; stroke-width:0.25;"/>
<line x1="245.500000" y1="218.000000" x2="245.500000" y2="174.000000"  style="stroke:black; stroke-linecap:round; stroke-width:0.25;"/>
<line x1="245.500000" y1="218.000000" x2="245.500000" y2="218.000000"  style="stroke:black; stroke-linecap:round; stroke-width:0.25;"/>
<line x1="245.500000" y1="46.000000" x2="261.500000" y2="46.000000"  style="stroke:black; stroke-linecap:round; stroke-width:0.25;"/>
<line x1="245.500000" y1="98.000000" x2="253.500000" y2="98.000000"  style="stroke:black; stroke-linecap:round; stroke-width:0.25;"/>
<line x1="253.500000" y1="98.000000" x2="253.500000" y2="166.000000"  style="stroke:black; stroke-linecap:round; stroke-width:0.25;"/>
<line x1="253.500000" y1="166.000000" x2="261.500000" y2="166.000000"  style="stroke:black; stroke-linecap:round; stroke-width:0.25;"/>
<line x1="261.500000" y1="46.000000" x2="261.500000" y2="158.000000"  style="stroke:black; stroke-linecap:round; stroke-width:0.25;"/>
<line x1="261.500000" y1="158.000000" x2="261.500000" y2="158.000000"  style="stroke:black; stroke-linecap:round; stroke-width:0.25;"/>
<line x1="261.500000" y1="158.000000" x2="265.500000" y2="158.000000"  style="stroke:black; stroke-linecap:round; stroke-width:0.25;"/>
<line x1="261.500000" y1="166.000000" x2="265.500000" y2="166.000000"  style="stroke:black; stroke-linecap:round; stroke-width:0.25;"/>
<line x1="261.500000" y1="174.000000" x2="265.500000" y2="174.000000"  style="stroke:black; stroke-linecap:round; stroke-width:0.25;"/>
<line x1="304.200000" y1="166.000000" x2="308.200000" y2="166.000000"  style="stroke:black; stroke-linecap:round; stroke-width:0.25;"/>
<line x1="308.200000" y1="166.000000" x2="308.200000" y2="166.000000"  style="stroke:black; stroke-linecap:round; stroke-width:0.25;"/>
<line x1="308.200000" y1="166.000000" x2="312.200000" y2="166.000000"  style="stroke:black; stroke-linecap:round; stroke-width:0.25;"/>
<line x1="312.200000" y1="166.000000" x2="316.200000" y2="166.000000"  style="stroke:black; stroke-linecap:round; stroke-width:0.25;"/>
<line x1="316.200000" y1="166.000000" x2="326.200000" y2="166.000000"  style="stroke:black; stroke-linecap:round; stroke-width:0.25;"/>
</svg>
