<?xml version="1.0"?>
<svg xmlns="http://www.w3.org/2000/svg" xmlns:xlink="http://www.w3.org/1999/xlink" viewBox="0 0 273.500000 188.000000" width="136.750000mm" height="94.000000mm" version="1.1">
<a xlink:href="h-0x97de570.svg">
<rect x="1.000000" y="1.000000" width="272.500000" height="187.000000" rx="0" ry="0" style="stroke:none;fill:#cccccc;"/>
<rect x="0.000000" y="0.000000" width="272.500000" height="187.000000" rx="0" ry="0" style="stroke:none;fill:#ffffff;"/>
</a>
<text x="10.000000" y="7.000000" font-family="Arial" font-size="7"></text>
<rect x="70.400000" y="25.000000" width="24.000000" height="24.000000" rx="0" ry="0" style="stroke:none;fill:#cccccc;"/>
<rect x="69.400000" y="24.000000" width="24.000000" height="24.000000" rx="0" ry="0" style="stroke:none;fill:#f44800;"/>
<text x="81.400000" y="38.000000" font-family="Arial" font-size="7" text-anchor="middle" fill="#FFFFFF">2</text>
<circle cx="71.400000" cy="26.000000" r="1"/>
<rect x="70.400000" y="57.000000" width="24.000000" height="24.000000" rx="0" ry="0" style="stroke:none;fill:#cccccc;"/>
<rect x="69.400000" y="56.000000" width="24.000000" height="24.000000" rx="0" ry="0" style="stroke:none;fill:#f44800;"/>
<text x="81.400000" y="70.000000" font-family="Arial" font-size="7" text-anchor="middle" fill="#FFFFFF">3</text>
<circle cx="71.400000" cy="58.000000" r="1"/>
<rect x="110.400000" y="41.000000" width="24.000000" height="24.000000" rx="0" ry="0" style="stroke:none;fill:#cccccc;"/>
<rect x="109.400000" y="40.000000" width="24.000000" height="24.000000" rx="0" ry="0" style="stroke:none;fill:#4B71A1;"/>
<text x="121.400000" y="54.000000" font-family="Arial" font-size="7" text-anchor="middle" fill="#FFFFFF">&lt;</text>
<circle cx="111.400000" cy="42.000000" r="1"/>
<line x1="106.400000" y1="47.000000" x2="109.400000" y2="48.000000"  transform="rotate(0.000000,109.400000,48.000000)" style="stroke: black; stroke-width:0.25;"/>
<line x1="106.400000" y1="49.000000" x2="109.400000" y2="48.000000"  transform="rotate(0.000000,109.400000,48.000000)" style="stroke: black; stroke-width:0.25;"/>
<line x1="106.400000" y1="55.000000" x2="109.400000" y2="56.000000"  transform="rotate(0.000000,109.400000,56.000000)" style="stroke: black; stroke-width:0.25;"/>
<line x1="106.400000" y1="57.000000" x2="109.400000" y2="56.000000"  transform="rotate(0.000000,109.400000,56.000000)" style="stroke: black; stroke-width:0.25;"/>
<rect x="90.400000" y="99.000000" width="24.000000" height="24.000000" rx="0" ry="0" style="stroke:none;fill:#cccccc;"/>
<rect x="89.400000" y="98.000000" width="24.000000" height="24.000000" rx="0" ry="0" style="stroke:none;fill:#f44800;"/>
<text x="101.400000" y="112.000000" font-family="Arial" font-size="7" text-anchor="middle" fill="#FFFFFF">1</text>
<circle cx="91.400000" cy="100.000000" r="1"/>
<line x1="80.400000" y1="89.000000" x2="80.400000" y2="131.000000"  style="stroke: black; stroke-linecap:round; stroke-width:0.25; stroke-dasharray:3,3;"/>
<line x1="80.400000" y1="131.000000" x2="122.400000" y2="131.000000"  style="stroke: black; stroke-linecap:round; stroke-width:0.25; stroke-dasharray:3,3;"/>
<line x1="122.400000" y1="131.000000" x2="122.400000" y2="89.000000"  style="stroke: black; stroke-linecap:round; stroke-width:0.25; stroke-dasharray:3,3;"/>
<line x1="80.400000" y1="89.000000" x2="85.400000" y2="89.000000"  style="stroke: black; stroke-linecap:round; stroke-width:0.25; stroke-dasharray:3,3;"/>
<line x1="95.075000" y1="89.000000" x2="122.400000" y2="89.000000"  style="stroke: black; stroke-linecap:round; stroke-width:0.25; stroke-dasharray:3,3;"/>
<text x="85.400000" y="91.000000" font-family="Arial" font-size="7">N</text>
<a xlink:href="fac-0x96fab40.svg">
<rect x="25.000000" y="141.000000" width="154.800000" height="24.000000" rx="0" ry="0" style="stroke:none;fill:#cccccc;"/>
<rect x="24.000000" y="140.000000" width="154.800000" height="24.000000" rx="0" ry="0" style="stroke:none;fill:#003366;"/>
</a>
<a xlink:href="fac-0x96fab40.svg">
<text x="101.400000" y="154.000000" font-family="Arial" font-size="7" text-anchor="middle" fill="#FFFFFF">fac(((3,1.000...nt) : -) : +)(2)(3)</text>
</a>
<circle cx="26.000000" cy="142.000000" r="1"/>
<rect x="203.800000" y="83.000000" width="38.700000" height="24.000000" rx="0" ry="0" style="stroke:none;fill:#cccccc;"/>
<rect x="202.800000" y="82.000000" width="38.700000" height="24.000000" rx="0" ry="0" style="stroke:none;fill:#4B71A1;"/>
<text x="222.150000" y="96.000000" font-family="Arial" font-size="7" text-anchor="middle" fill="#FFFFFF">select2</text>
<circle cx="204.800000" cy="84.000000" r="1"/>
<line x1="199.800000" y1="85.000000" x2="202.800000" y2="86.000000"  transform="rotate(0.000000,202.800000,86.000000)" style="stroke: black; stroke-width:0.25;"/>
<line x1="199.800000" y1="87.000000" x2="202.800000" y2="86.000000"  transform="rotate(0.000000,202.800000,86.000000)" style="stroke: black; stroke-width:0.25;"/>
<line x1="199.800000" y1="93.000000" x2="202.800000" y2="94.000000"  transform="rotate(0.000000,202.800000,94.000000)" style="stroke: black; stroke-width:0.25;"/>
<line x1="199.800000" y1="95.000000" x2="202.800000" y2="94.000000"  transform="rotate(0.000000,202.800000,94.000000)" style="stroke: black; stroke-width:0.25;"/>
<line x1="199.800000" y1="101.000000" x2="202.800000" y2="102.000000"  transform="rotate(0.000000,202.800000,102.000000)" style="stroke: black; stroke-width:0.25;"/>
<line x1="199.800000" y1="103.000000" x2="202.800000" y2="102.000000"  transform="rotate(0.000000,202.800000,102.000000)" style="stroke: black; stroke-width:0.25;"/>
<line x1="15.000000" y1="15.000000" x2="15.000000" y2="173.000000"  style="stroke: black; stroke-linecap:round; stroke-width:0.25; stroke-dasharray:3,3;"/>
<line x1="15.000000" y1="173.000000" x2="258.500000" y2="173.000000"  style="stroke: black; stroke-linecap:round; stroke-width:0.25; stroke-dasharray:3,3;"/>
<line x1="258.500000" y1="173.000000" x2="258.500000" y2="15.000000"  style="stroke: black; stroke-linecap:round; stroke-width:0.25; stroke-dasharray:3,3;"/>
<line x1="15.000000" y1="15.000000" x2="20.000000" y2="15.000000"  style="stroke: black; stroke-linecap:round; stroke-width:0.25; stroke-dasharray:3,3;"/>
<line x1="129.650000" y1="15.000000" x2="258.500000" y2="15.000000"  style="stroke: black; stroke-linecap:round; stroke-width:0.25; stroke-dasharray:3,3;"/>
<text x="20.000000" y="17.000000" font-family="Arial" font-size="7">facs2(3)(((3,...nt) : -) : +)(2)</text>
<line x1="260.500000" y1="93.000000" x2="263.500000" y2="94.000000"  transform="rotate(0.000000,263.500000,94.000000)" style="stroke: black; stroke-width:0.25;"/>
<line x1="260.500000" y1="95.000000" x2="263.500000" y2="94.000000"  transform="rotate(0.000000,263.500000,94.000000)" style="stroke: black; stroke-width:0.25;"/>
<line x1="93.400000" y1="36.000000" x2="97.400000" y2="36.000000"  style="stroke:black; stroke-linecap:round; stroke-width:0.25;"/>
<line x1="93.400000" y1="68.000000" x2="97.400000" y2="68.000000"  style="stroke:black; stroke-linecap:round; stroke-width:0.25;"/>
<line x1="97.400000" y1="36.000000" x2="105.400000" y2="36.000000"  style="stroke:black; stroke-linecap:round; stroke-width:0.25;"/>
<line x1="97.400000" y1="56.000000" x2="105.400000" y2="56.000000"  style="stroke:black; stroke-linecap:round; stroke-width:0.25;"/>
<line x1="97.400000" y1="68.000000" x2="97.400000" y2="56.000000"  style="stroke:black; stroke-linecap:round; stroke-width:0.25;"/>
<line x1="97.400000" y1="68.000000" x2="97.400000" y2="68.000000"  style="stroke:black; stroke-linecap:round; stroke-width:0.25;"/>
<line x1="105.400000" y1="36.000000" x2="105.400000" y2="48.000000"  style="stroke:black; stroke-linecap:round; stroke-width:0.25;"/>
<line x1="105.400000" y1="48.000000" x2="105.400000" y2="48.000000"  style="stroke:black; stroke-linecap:round; stroke-width:0.25;"/>
<line x1="105.400000" y1="48.000000" x2="109.400000" y2="48.000000"  style="stroke:black; stroke-linecap:round; stroke-width:0.25;"/>
<line x1="105.400000" y1="56.000000" x2="109.400000" y2="56.000000"  style="stroke:black; stroke-linecap:round; stroke-width:0.25;"/>
<line x1="113.400000" y1="110.000000" x2="117.400000" y2="110.000000"  style="stroke:black; stroke-linecap:round; stroke-width:0.25;"/>
<line x1="117.400000" y1="110.000000" x2="127.400000" y2="110.000000"  style="stroke:black; stroke-linecap:round; stroke-width:0.25;"/>
<line x1="127.400000" y1="110.000000" x2="182.800000" y2="110.000000"  style="stroke:black; stroke-linecap:round; stroke-width:0.25;"/>
<line x1="133.400000" y1="52.000000" x2="137.400000" y2="52.000000"  style="stroke:black; stroke-linecap:round; stroke-width:0.25;"/>
<line x1="137.400000" y1="52.000000" x2="182.800000" y2="52.000000"  style="stroke:black; stroke-linecap:round; stroke-width:0.25;"/>
<line x1="178.800000" y1="152.000000" x2="182.800000" y2="152.000000"  style="stroke:black; stroke-linecap:round; stroke-width:0.25;"/>
<line x1="182.800000" y1="52.000000" x2="198.800000" y2="52.000000"  style="stroke:black; stroke-linecap:round; stroke-width:0.25;"/>
<line x1="182.800000" y1="94.000000" x2="198.800000" y2="94.000000"  style="stroke:black; stroke-linecap:round; stroke-width:0.25;"/>
<line x1="182.800000" y1="110.000000" x2="182.800000" y2="94.000000"  style="stroke:black; stroke-linecap:round; stroke-width:0.25;"/>
<line x1="182.800000" y1="110.000000" x2="182.800000" y2="110.000000"  style="stroke:black; stroke-linecap:round; stroke-width:0.25;"/>
<line x1="182.800000" y1="152.000000" x2="190.800000" y2="152.000000"  style="stroke:black; stroke-linecap:round; stroke-width:0.25;"/>
<line x1="190.800000" y1="102.000000" x2="198.800000" y2="102.000000"  style="stroke:black; stroke-linecap:round; stroke-width:0.25;"/>
<line x1="190.800000" y1="152.000000" x2="190.800000" y2="102.000000"  style="stroke:black; stroke-linecap:round; stroke-width:0.25;"/>
<line x1="198.800000" y1="52.000000" x2="198.800000" y2="86.000000"  style="stroke:black; stroke-linecap:round; stroke-width:0.25;"/>
<line x1="198.800000" y1="86.000000" x2="198.800000" y2="86.000000"  style="stroke:black; stroke-linecap:round; stroke-width:0.25;"/>
<line x1="198.800000" y1="86.000000" x2="202.800000" y2="86.000000"  style="stroke:black; stroke-linecap:round; stroke-width:0.25;"/>
<line x1="198.800000" y1="94.000000" x2="202.800000" y2="94.000000"  style="stroke:black; stroke-linecap:round; stroke-width:0.25;"/>
<line x1="198.800000" y1="102.000000" x2="202.800000" y2="102.000000"  style="stroke:black; stroke-linecap:round; stroke-width:0.25;"/>
<line x1="241.500000" y1="94.000000" x2="245.500000" y2="94.000000"  style="stroke:black; stroke-linecap:round; stroke-width:0.25;"/>
<line x1="245.500000" y1="94.000000" x2="245.500000" y2="94.000000"  style="stroke:black; stroke-linecap:round; stroke-width:0.25;"/>
<line x1="245.500000" y1="94.000000" x2="249.500000" y2="94.000000"  style="stroke:black; stroke-linecap:round; stroke-width:0.25;"/>
<line x1="249.500000" y1="94.000000" x2="253.500000" y2="94.000000"  style="stroke:black; stroke-linecap:round; stroke-width:0.25;"/>
<line x1="253.500000" y1="94.000000" x2="263.500000" y2="94.000000"  style="stroke:black; stroke-linecap:round; stroke-width:0.25;"/>
</svg>
