<?xml version="1.0"?>
<svg xmlns="http://www.w3.org/2000/svg" xmlns:xlink="http://www.w3.org/1999/xlink" viewBox="0 0 495.800000 104.000000" width="247.900000mm" height="52.000000mm" version="1.1">
<a xlink:href="rho-0xa1de380.svg">
<rect x="1.000000" y="1.000000" width="494.800000" height="103.000000" rx="0" ry="0" style="stroke:none;fill:#cccccc;"/>
<rect x="0.000000" y="0.000000" width="494.800000" height="103.000000" rx="0" ry="0" style="stroke:none;fill:#ffffff;"/>
</a>
<text x="10.000000" y="7.000000" font-family="Arial" font-size="7"></text>
<a xlink:href="voice-0x4d0aa90.svg">
<rect x="25.000000" y="25.000000" width="129.000000" height="24.000000" rx="0" ry="0" style="stroke:none;fill:#cccccc;"/>
<rect x="24.000000" y="24.000000" width="129.000000" height="24.000000" rx="0" ry="0" style="stroke:none;fill:#003366;"/>
</a>
<a xlink:href="voice-0x4d0aa90.svg">
<text x="88.500000" y="38.000000" font-family="Arial" font-size="7" text-anchor="middle" fill="#FFFFFF">voice(x1)((((...:&gt;_))))) : *)</text>
</a>
<circle cx="26.000000" cy="26.000000" r="1"/>
<rect x="77.500000" y="57.000000" width="24.000000" height="24.000000" rx="0" ry="0" style="stroke:none;fill:#cccccc;"/>
<rect x="76.500000" y="56.000000" width="24.000000" height="24.000000" rx="0" ry="0" style="stroke:none;fill:#f44800;"/>
<text x="88.500000" y="70.000000" font-family="Arial" font-size="7" text-anchor="middle" fill="#FFFFFF">2</text>
<circle cx="78.500000" cy="58.000000" r="1"/>
<rect x="170.000000" y="41.000000" width="24.000000" height="24.000000" rx="0" ry="0" style="stroke:none;fill:#cccccc;"/>
<rect x="169.000000" y="40.000000" width="24.000000" height="24.000000" rx="0" ry="0" style="stroke:none;fill:#4B71A1;"/>
<text x="181.000000" y="54.000000" font-family="Arial" font-size="7" text-anchor="middle" fill="#FFFFFF">*</text>
<circle cx="171.000000" cy="42.000000" r="1"/>
<line x1="166.000000" y1="47.000000" x2="169.000000" y2="48.000000"  transform="rotate(0.000000,169.000000,48.000000)" style="stroke: black; stroke-width:0.25;"/>
<line x1="166.000000" y1="49.000000" x2="169.000000" y2="48.000000"  transform="rotate(0.000000,169.000000,48.000000)" style="stroke: black; stroke-width:0.25;"/>
<line x1="166.000000" y1="55.000000" x2="169.000000" y2="56.000000"  transform="rotate(0.000000,169.000000,56.000000)" style="stroke: black; stroke-width:0.25;"/>
<line x1="166.000000" y1="57.000000" x2="169.000000" y2="56.000000"  transform="rotate(0.000000,169.000000,56.000000)" style="stroke: black; stroke-width:0.25;"/>
<a xlink:href="amp-0x4d0ae90.svg">
<rect x="202.000000" y="41.000000" width="129.000000" height="24.000000" rx="0" ry="0" style="stroke:none;fill:#cccccc;"/>
<rect x="201.000000" y="40.000000" width="129.000000" height="24.000000" rx="0" ry="0" style="stroke:none;fill:#003366;"/>
</a>
<a xlink:href="amp-0x4d0ae90.svg">
<text x="265.500000" y="54.000000" font-family="Arial" font-size="7" text-anchor="middle" fill="#FFFFFF">amp_follower(...,0.999f : *))</text>
</a>
<circle cx="203.000000" cy="42.000000" r="1"/>
<line x1="198.000000" y1="51.000000" x2="201.000000" y2="52.000000"  transform="rotate(0.000000,201.000000,52.000000)" style="stroke: black; stroke-width:0.25;"/>
<line x1="198.000000" y1="53.000000" x2="201.000000" y2="52.000000"  transform="rotate(0.000000,201.000000,52.000000)" style="stroke: black; stroke-width:0.25;"/>
<rect x="349.000000" y="41.000000" width="25.800000" height="24.000000" rx="0" ry="0" style="stroke:none;fill:#cccccc;"/>
<rect x="348.000000" y="40.000000" width="25.800000" height="24.000000" rx="0" ry="0" style="stroke:none;fill:#4B71A1;"/>
<text x="360.900000" y="54.000000" font-family="Arial" font-size="7" text-anchor="middle" fill="#FFFFFF">tanhf</text>
<circle cx="350.000000" cy="42.000000" r="1"/>
<line x1="345.000000" y1="51.000000" x2="348.000000" y2="52.000000"  transform="rotate(0.000000,348.000000,52.000000)" style="stroke: black; stroke-width:0.25;"/>
<line x1="345.000000" y1="53.000000" x2="348.000000" y2="52.000000"  transform="rotate(0.000000,348.000000,52.000000)" style="stroke: black; stroke-width:0.25;"/>
<line x1="339.000000" y1="31.000000" x2="339.000000" y2="73.000000"  style="stroke: black; stroke-linecap:round; stroke-width:0.25; stroke-dasharray:3,3;"/>
<line x1="339.000000" y1="73.000000" x2="382.800000" y2="73.000000"  style="stroke: black; stroke-linecap:round; stroke-width:0.25; stroke-dasharray:3,3;"/>
<line x1="382.800000" y1="73.000000" x2="382.800000" y2="31.000000"  style="stroke: black; stroke-linecap:round; stroke-width:0.25; stroke-dasharray:3,3;"/>
<line x1="339.000000" y1="31.000000" x2="344.000000" y2="31.000000"  style="stroke: black; stroke-linecap:round; stroke-width:0.25; stroke-dasharray:3,3;"/>
<line x1="363.350000" y1="31.000000" x2="382.800000" y2="31.000000"  style="stroke: black; stroke-linecap:round; stroke-width:0.25; stroke-dasharray:3,3;"/>
<text x="344.000000" y="33.000000" font-family="Arial" font-size="7">tanh</text>
<rect x="400.800000" y="45.000000" width="24.000000" height="24.000000" rx="0" ry="0" style="stroke:none;fill:#cccccc;"/>
<rect x="399.800000" y="44.000000" width="24.000000" height="24.000000" rx="0" ry="0" style="stroke:none;fill:#f44800;"/>
<text x="411.800000" y="58.000000" font-family="Arial" font-size="7" text-anchor="middle" fill="#FFFFFF">4</text>
<circle cx="401.800000" cy="46.000000" r="1"/>
<rect x="440.800000" y="41.000000" width="24.000000" height="24.000000" rx="0" ry="0" style="stroke:none;fill:#cccccc;"/>
<rect x="439.800000" y="40.000000" width="24.000000" height="24.000000" rx="0" ry="0" style="stroke:none;fill:#4B71A1;"/>
<text x="451.800000" y="54.000000" font-family="Arial" font-size="7" text-anchor="middle" fill="#FFFFFF">pow</text>
<circle cx="441.800000" cy="42.000000" r="1"/>
<line x1="436.800000" y1="47.000000" x2="439.800000" y2="48.000000"  transform="rotate(0.000000,439.800000,48.000000)" style="stroke: black; stroke-width:0.25;"/>
<line x1="436.800000" y1="49.000000" x2="439.800000" y2="48.000000"  transform="rotate(0.000000,439.800000,48.000000)" style="stroke: black; stroke-width:0.25;"/>
<line x1="436.800000" y1="55.000000" x2="439.800000" y2="56.000000"  transform="rotate(0.000000,439.800000,56.000000)" style="stroke: black; stroke-width:0.25;"/>
<line x1="436.800000" y1="57.000000" x2="439.800000" y2="56.000000"  transform="rotate(0.000000,439.800000,56.000000)" style="stroke: black; stroke-width:0.25;"/>
<line x1="15.000000" y1="15.000000" x2="15.000000" y2="89.000000"  style="stroke: black; stroke-linecap:round; stroke-width:0.25; stroke-dasharray:3,3;"/>
<line x1="15.000000" y1="89.000000" x2="480.800000" y2="89.000000"  style="stroke: black; stroke-linecap:round; stroke-width:0.25; stroke-dasharray:3,3;"/>
<line x1="480.800000" y1="89.000000" x2="480.800000" y2="15.000000"  style="stroke: black; stroke-linecap:round; stroke-width:0.25; stroke-dasharray:3,3;"/>
<line x1="15.000000" y1="15.000000" x2="20.000000" y2="15.000000"  style="stroke: black; stroke-linecap:round; stroke-width:0.25; stroke-dasharray:3,3;"/>
<line x1="119.975000" y1="15.000000" x2="480.800000" y2="15.000000"  style="stroke: black; stroke-linecap:round; stroke-width:0.25; stroke-dasharray:3,3;"/>
<text x="20.000000" y="17.000000" font-family="Arial" font-size="7">feedbackADSR(...:&gt;_))))) : *)</text>
<line x1="482.800000" y1="51.000000" x2="485.800000" y2="52.000000"  transform="rotate(0.000000,485.800000,52.000000)" style="stroke: black; stroke-width:0.25;"/>
<line x1="482.800000" y1="53.000000" x2="485.800000" y2="52.000000"  transform="rotate(0.000000,485.800000,52.000000)" style="stroke: black; stroke-width:0.25;"/>
<line x1="100.500000" y1="68.000000" x2="104.500000" y2="68.000000"  style="stroke:black; stroke-linecap:round; stroke-width:0.25;"/>
<line x1="104.500000" y1="68.000000" x2="157.000000" y2="68.000000"  style="stroke:black; stroke-linecap:round; stroke-width:0.25;"/>
<line x1="153.000000" y1="36.000000" x2="157.000000" y2="36.000000"  style="stroke:black; stroke-linecap:round; stroke-width:0.25;"/>
<line x1="157.000000" y1="36.000000" x2="165.000000" y2="36.000000"  style="stroke:black; stroke-linecap:round; stroke-width:0.25;"/>
<line x1="157.000000" y1="56.000000" x2="165.000000" y2="56.000000"  style="stroke:black; stroke-linecap:round; stroke-width:0.25;"/>
<line x1="157.000000" y1="68.000000" x2="157.000000" y2="56.000000"  style="stroke:black; stroke-linecap:round; stroke-width:0.25;"/>
<line x1="157.000000" y1="68.000000" x2="157.000000" y2="68.000000"  style="stroke:black; stroke-linecap:round; stroke-width:0.25;"/>
<line x1="165.000000" y1="36.000000" x2="165.000000" y2="48.000000"  style="stroke:black; stroke-linecap:round; stroke-width:0.25;"/>
<line x1="165.000000" y1="48.000000" x2="165.000000" y2="48.000000"  style="stroke:black; stroke-linecap:round; stroke-width:0.25;"/>
<line x1="165.000000" y1="48.000000" x2="169.000000" y2="48.000000"  style="stroke:black; stroke-linecap:round; stroke-width:0.25;"/>
<line x1="165.000000" y1="56.000000" x2="169.000000" y2="56.000000"  style="stroke:black; stroke-linecap:round; stroke-width:0.25;"/>
<line x1="193.000000" y1="52.000000" x2="197.000000" y2="52.000000"  style="stroke:black; stroke-linecap:round; stroke-width:0.25;"/>
<line x1="197.000000" y1="52.000000" x2="197.000000" y2="52.000000"  style="stroke:black; stroke-linecap:round; stroke-width:0.25;"/>
<line x1="197.000000" y1="52.000000" x2="201.000000" y2="52.000000"  style="stroke:black; stroke-linecap:round; stroke-width:0.25;"/>
<line x1="330.000000" y1="52.000000" x2="334.000000" y2="52.000000"  style="stroke:black; stroke-linecap:round; stroke-width:0.25;"/>
<line x1="334.000000" y1="52.000000" x2="334.000000" y2="52.000000"  style="stroke:black; stroke-linecap:round; stroke-width:0.25;"/>
<line x1="334.000000" y1="52.000000" x2="344.000000" y2="52.000000"  style="stroke:black; stroke-linecap:round; stroke-width:0.25;"/>
<line x1="344.000000" y1="52.000000" x2="348.000000" y2="52.000000"  style="stroke:black; stroke-linecap:round; stroke-width:0.25;"/>
<line x1="373.800000" y1="52.000000" x2="377.800000" y2="52.000000"  style="stroke:black; stroke-linecap:round; stroke-width:0.25;"/>
<line x1="377.800000" y1="52.000000" x2="387.800000" y2="52.000000"  style="stroke:black; stroke-linecap:round; stroke-width:0.25;"/>
<line x1="387.800000" y1="36.000000" x2="395.800000" y2="36.000000"  style="stroke:black; stroke-linecap:round; stroke-width:0.25;"/>
<line x1="387.800000" y1="52.000000" x2="387.800000" y2="36.000000"  style="stroke:black; stroke-linecap:round; stroke-width:0.25;"/>
<line x1="387.800000" y1="52.000000" x2="387.800000" y2="52.000000"  style="stroke:black; stroke-linecap:round; stroke-width:0.25;"/>
<line x1="395.800000" y1="36.000000" x2="411.800000" y2="36.000000"  style="stroke:black; stroke-linecap:round; stroke-width:0.25;"/>
<line x1="411.800000" y1="36.000000" x2="427.800000" y2="36.000000"  style="stroke:black; stroke-linecap:round; stroke-width:0.25;"/>
<line x1="423.800000" y1="56.000000" x2="427.800000" y2="56.000000"  style="stroke:black; stroke-linecap:round; stroke-width:0.25;"/>
<line x1="427.800000" y1="36.000000" x2="435.800000" y2="36.000000"  style="stroke:black; stroke-linecap:round; stroke-width:0.25;"/>
<line x1="427.800000" y1="56.000000" x2="435.800000" y2="56.000000"  style="stroke:black; stroke-linecap:round; stroke-width:0.25;"/>
<line x1="435.800000" y1="36.000000" x2="435.800000" y2="48.000000"  style="stroke:black; stroke-linecap:round; stroke-width:0.25;"/>
<line x1="435.800000" y1="48.000000" x2="435.800000" y2="48.000000"  style="stroke:black; stroke-linecap:round; stroke-width:0.25;"/>
<line x1="435.800000" y1="48.000000" x2="439.800000" y2="48.000000"  style="stroke:black; stroke-linecap:round; stroke-width:0.25;"/>
<line x1="435.800000" y1="56.000000" x2="439.800000" y2="56.000000"  style="stroke:black; stroke-linecap:round; stroke-width:0.25;"/>
<line x1="463.800000" y1="52.000000" x2="467.800000" y2="52.000000"  style="stroke:black; stroke-linecap:round; stroke-width:0.25;"/>
<line x1="467.800000" y1="52.000000" x2="467.800000" y2="52.000000"  style="stroke:black; stroke-linecap:round; stroke-width:0.25;"/>
<line x1="467.800000" y1="52.000000" x2="471.800000" y2="52.000000"  style="stroke:black; stroke-linecap:round; stroke-width:0.25;"/>
<line x1="471.800000" y1="52.000000" x2="475.800000" y2="52.000000"  style="stroke:black; stroke-linecap:round; stroke-width:0.25;"/>
<line x1="475.800000" y1="52.000000" x2="485.800000" y2="52.000000"  style="stroke:black; stroke-linecap:round; stroke-width:0.25;"/>
</svg>
