<?xml version="1.0"?>
<svg xmlns="http://www.w3.org/2000/svg" xmlns:xlink="http://www.w3.org/1999/xlink" viewBox="0 0 326.700000 252.000000" width="163.350000mm" height="126.000000mm" version="1.1">
<a xlink:href="lag-0xa1cc790.svg">
<rect x="1.000000" y="1.000000" width="325.700000" height="251.000000" rx="0" ry="0" style="stroke:none;fill:#cccccc;"/>
<rect x="0.000000" y="0.000000" width="325.700000" height="251.000000" rx="0" ry="0" style="stroke:none;fill:#ffffff;"/>
</a>
<text x="10.000000" y="7.000000" font-family="Arial" font-size="7"></text>
<rect x="112.350000" y="25.000000" width="24.000000" height="24.000000" rx="0" ry="0" style="stroke:none;fill:#cccccc;"/>
<rect x="111.350000" y="24.000000" width="24.000000" height="24.000000" rx="0" ry="0" style="stroke:none;fill:#f44800;"/>
<text x="123.350000" y="38.000000" font-family="Arial" font-size="7" text-anchor="middle" fill="#FFFFFF">-1</text>
<circle cx="113.350000" cy="26.000000" r="1"/>
<rect x="72.350000" y="67.000000" width="24.000000" height="24.000000" rx="0" ry="0" style="stroke:none;fill:#cccccc;"/>
<rect x="71.350000" y="66.000000" width="24.000000" height="24.000000" rx="0" ry="0" style="stroke:none;fill:#f44800;"/>
<text x="83.350000" y="80.000000" font-family="Arial" font-size="7" text-anchor="middle" fill="#FFFFFF">1</text>
<circle cx="73.350000" cy="68.000000" r="1"/>
<line x1="62.350000" y1="57.000000" x2="62.350000" y2="99.000000"  style="stroke: black; stroke-linecap:round; stroke-width:0.25; stroke-dasharray:3,3;"/>
<line x1="62.350000" y1="99.000000" x2="104.350000" y2="99.000000"  style="stroke: black; stroke-linecap:round; stroke-width:0.25; stroke-dasharray:3,3;"/>
<line x1="104.350000" y1="99.000000" x2="104.350000" y2="57.000000"  style="stroke: black; stroke-linecap:round; stroke-width:0.25; stroke-dasharray:3,3;"/>
<line x1="62.350000" y1="57.000000" x2="67.350000" y2="57.000000"  style="stroke: black; stroke-linecap:round; stroke-width:0.25; stroke-dasharray:3,3;"/>
<line x1="77.025000" y1="57.000000" x2="104.350000" y2="57.000000"  style="stroke: black; stroke-linecap:round; stroke-width:0.25; stroke-dasharray:3,3;"/>
<text x="67.350000" y="59.000000" font-family="Arial" font-size="7">N</text>
<a xlink:href="freq-0xa1c61c0.svg">
<rect x="31.450000" y="109.000000" width="25.800000" height="24.000000" rx="0" ry="0" style="stroke:none;fill:#cccccc;"/>
<rect x="30.450000" y="108.000000" width="25.800000" height="24.000000" rx="0" ry="0" style="stroke:none;fill:#003366;"/>
</a>
<a xlink:href="freq-0xa1c61c0.svg">
<text x="43.350000" y="122.000000" font-family="Arial" font-size="7" text-anchor="middle" fill="#FFFFFF">freq</text>
</a>
<circle cx="32.450000" cy="110.000000" r="1"/>
<a xlink:href="KPoctave-0x29f0870.svg">
<rect x="25.000000" y="141.000000" width="38.700000" height="24.000000" rx="0" ry="0" style="stroke:none;fill:#cccccc;"/>
<rect x="24.000000" y="140.000000" width="38.700000" height="24.000000" rx="0" ry="0" style="stroke:none;fill:#003366;"/>
</a>
<a xlink:href="KPoctave-0x29f0870.svg">
<text x="43.350000" y="154.000000" font-family="Arial" font-size="7" text-anchor="middle" fill="#FFFFFF">KPoctave</text>
</a>
<circle cx="26.000000" cy="142.000000" r="1"/>
<rect x="79.700000" y="125.000000" width="24.000000" height="24.000000" rx="0" ry="0" style="stroke:none;fill:#cccccc;"/>
<rect x="78.700000" y="124.000000" width="24.000000" height="24.000000" rx="0" ry="0" style="stroke:none;fill:#4B71A1;"/>
<text x="90.700000" y="138.000000" font-family="Arial" font-size="7" text-anchor="middle" fill="#FFFFFF">*</text>
<circle cx="80.700000" cy="126.000000" r="1"/>
<line x1="75.700000" y1="131.000000" x2="78.700000" y2="132.000000"  transform="rotate(0.000000,78.700000,132.000000)" style="stroke: black; stroke-width:0.25;"/>
<line x1="75.700000" y1="133.000000" x2="78.700000" y2="132.000000"  transform="rotate(0.000000,78.700000,132.000000)" style="stroke: black; stroke-width:0.25;"/>
<line x1="75.700000" y1="139.000000" x2="78.700000" y2="140.000000"  transform="rotate(0.000000,78.700000,140.000000)" style="stroke: black; stroke-width:0.25;"/>
<line x1="75.700000" y1="141.000000" x2="78.700000" y2="140.000000"  transform="rotate(0.000000,78.700000,140.000000)" style="stroke: black; stroke-width:0.25;"/>
<rect x="52.350000" y="173.000000" width="24.000000" height="24.000000" rx="0" ry="0" style="stroke:none;fill:#cccccc;"/>
<rect x="51.350000" y="172.000000" width="24.000000" height="24.000000" rx="0" ry="0" style="stroke:none;fill:#f44800;"/>
<text x="63.350000" y="186.000000" font-family="Arial" font-size="7" text-anchor="middle" fill="#FFFFFF">0.5</text>
<circle cx="53.350000" cy="174.000000" r="1"/>
<rect x="119.700000" y="141.000000" width="24.000000" height="24.000000" rx="0" ry="0" style="stroke:none;fill:#cccccc;"/>
<rect x="118.700000" y="140.000000" width="24.000000" height="24.000000" rx="0" ry="0" style="stroke:none;fill:#4B71A1;"/>
<text x="130.700000" y="154.000000" font-family="Arial" font-size="7" text-anchor="middle" fill="#FFFFFF">*</text>
<circle cx="120.700000" cy="142.000000" r="1"/>
<line x1="115.700000" y1="147.000000" x2="118.700000" y2="148.000000"  transform="rotate(0.000000,118.700000,148.000000)" style="stroke: black; stroke-width:0.25;"/>
<line x1="115.700000" y1="149.000000" x2="118.700000" y2="148.000000"  transform="rotate(0.000000,118.700000,148.000000)" style="stroke: black; stroke-width:0.25;"/>
<line x1="115.700000" y1="155.000000" x2="118.700000" y2="156.000000"  transform="rotate(0.000000,118.700000,156.000000)" style="stroke: black; stroke-width:0.25;"/>
<line x1="115.700000" y1="157.000000" x2="118.700000" y2="156.000000"  transform="rotate(0.000000,118.700000,156.000000)" style="stroke: black; stroke-width:0.25;"/>
<rect x="159.700000" y="115.000000" width="24.000000" height="24.000000" rx="0" ry="0" style="stroke:none;fill:#cccccc;"/>
<rect x="158.700000" y="114.000000" width="24.000000" height="24.000000" rx="0" ry="0" style="stroke:none;fill:#4B71A1;"/>
<text x="170.700000" y="128.000000" font-family="Arial" font-size="7" text-anchor="middle" fill="#FFFFFF">/</text>
<circle cx="160.700000" cy="116.000000" r="1"/>
<line x1="155.700000" y1="121.000000" x2="158.700000" y2="122.000000"  transform="rotate(0.000000,158.700000,122.000000)" style="stroke: black; stroke-width:0.25;"/>
<line x1="155.700000" y1="123.000000" x2="158.700000" y2="122.000000"  transform="rotate(0.000000,158.700000,122.000000)" style="stroke: black; stroke-width:0.25;"/>
<line x1="155.700000" y1="129.000000" x2="158.700000" y2="130.000000"  transform="rotate(0.000000,158.700000,130.000000)" style="stroke: black; stroke-width:0.25;"/>
<line x1="155.700000" y1="131.000000" x2="158.700000" y2="130.000000"  transform="rotate(0.000000,158.700000,130.000000)" style="stroke: black; stroke-width:0.25;"/>
<a xlink:href="samplingfreq-0x29c4c10.svg">
<rect x="78.550000" y="205.000000" width="51.600000" height="24.000000" rx="0" ry="0" style="stroke:none;fill:#cccccc;"/>
<rect x="77.550000" y="204.000000" width="51.600000" height="24.000000" rx="0" ry="0" style="stroke:none;fill:#003366;"/>
</a>
<a xlink:href="samplingfreq-0x29c4c10.svg">
<text x="103.350000" y="218.000000" font-family="Arial" font-size="7" text-anchor="middle" fill="#FFFFFF">samplingfreq</text>
</a>
<circle cx="79.550000" cy="206.000000" r="1"/>
<rect x="199.700000" y="131.000000" width="24.000000" height="24.000000" rx="0" ry="0" style="stroke:none;fill:#cccccc;"/>
<rect x="198.700000" y="130.000000" width="24.000000" height="24.000000" rx="0" ry="0" style="stroke:none;fill:#4B71A1;"/>
<text x="210.700000" y="144.000000" font-family="Arial" font-size="7" text-anchor="middle" fill="#FFFFFF">*</text>
<circle cx="200.700000" cy="132.000000" r="1"/>
<line x1="195.700000" y1="137.000000" x2="198.700000" y2="138.000000"  transform="rotate(0.000000,198.700000,138.000000)" style="stroke: black; stroke-width:0.25;"/>
<line x1="195.700000" y1="139.000000" x2="198.700000" y2="138.000000"  transform="rotate(0.000000,198.700000,138.000000)" style="stroke: black; stroke-width:0.25;"/>
<line x1="195.700000" y1="145.000000" x2="198.700000" y2="146.000000"  transform="rotate(0.000000,198.700000,146.000000)" style="stroke: black; stroke-width:0.25;"/>
<line x1="195.700000" y1="147.000000" x2="198.700000" y2="146.000000"  transform="rotate(0.000000,198.700000,146.000000)" style="stroke: black; stroke-width:0.25;"/>
<rect x="239.700000" y="115.000000" width="24.000000" height="24.000000" rx="0" ry="0" style="stroke:none;fill:#cccccc;"/>
<rect x="238.700000" y="114.000000" width="24.000000" height="24.000000" rx="0" ry="0" style="stroke:none;fill:#4B71A1;"/>
<text x="250.700000" y="128.000000" font-family="Arial" font-size="7" text-anchor="middle" fill="#FFFFFF">/</text>
<circle cx="240.700000" cy="116.000000" r="1"/>
<line x1="235.700000" y1="121.000000" x2="238.700000" y2="122.000000"  transform="rotate(0.000000,238.700000,122.000000)" style="stroke: black; stroke-width:0.25;"/>
<line x1="235.700000" y1="123.000000" x2="238.700000" y2="122.000000"  transform="rotate(0.000000,238.700000,122.000000)" style="stroke: black; stroke-width:0.25;"/>
<line x1="235.700000" y1="129.000000" x2="238.700000" y2="130.000000"  transform="rotate(0.000000,238.700000,130.000000)" style="stroke: black; stroke-width:0.25;"/>
<line x1="235.700000" y1="131.000000" x2="238.700000" y2="130.000000"  transform="rotate(0.000000,238.700000,130.000000)" style="stroke: black; stroke-width:0.25;"/>
<rect x="271.700000" y="115.000000" width="24.000000" height="24.000000" rx="0" ry="0" style="stroke:none;fill:#cccccc;"/>
<rect x="270.700000" y="114.000000" width="24.000000" height="24.000000" rx="0" ry="0" style="stroke:none;fill:#4B71A1;"/>
<text x="282.700000" y="128.000000" font-family="Arial" font-size="7" text-anchor="middle" fill="#FFFFFF">exp</text>
<circle cx="272.700000" cy="116.000000" r="1"/>
<line x1="267.700000" y1="125.000000" x2="270.700000" y2="126.000000"  transform="rotate(0.000000,270.700000,126.000000)" style="stroke: black; stroke-width:0.25;"/>
<line x1="267.700000" y1="127.000000" x2="270.700000" y2="126.000000"  transform="rotate(0.000000,270.700000,126.000000)" style="stroke: black; stroke-width:0.25;"/>
<line x1="15.000000" y1="15.000000" x2="15.000000" y2="237.000000"  style="stroke: black; stroke-linecap:round; stroke-width:0.25; stroke-dasharray:3,3;"/>
<line x1="15.000000" y1="237.000000" x2="311.700000" y2="237.000000"  style="stroke: black; stroke-linecap:round; stroke-width:0.25; stroke-dasharray:3,3;"/>
<line x1="311.700000" y1="237.000000" x2="311.700000" y2="15.000000"  style="stroke: black; stroke-linecap:round; stroke-width:0.25; stroke-dasharray:3,3;"/>
<line x1="15.000000" y1="15.000000" x2="20.000000" y2="15.000000"  style="stroke: black; stroke-linecap:round; stroke-width:0.25; stroke-dasharray:3,3;"/>
<line x1="119.975000" y1="15.000000" x2="311.700000" y2="15.000000"  style="stroke: black; stroke-linecap:round; stroke-width:0.25; stroke-dasharray:3,3;"/>
<text x="20.000000" y="17.000000" font-family="Arial" font-size="7">tau2pole(1,((....5f : *) : /)</text>
<line x1="313.700000" y1="125.000000" x2="316.700000" y2="126.000000"  transform="rotate(0.000000,316.700000,126.000000)" style="stroke: black; stroke-width:0.25;"/>
<line x1="313.700000" y1="127.000000" x2="316.700000" y2="126.000000"  transform="rotate(0.000000,316.700000,126.000000)" style="stroke: black; stroke-width:0.25;"/>
<line x1="56.250000" y1="120.000000" x2="60.250000" y2="120.000000"  style="stroke:black; stroke-linecap:round; stroke-width:0.25;"/>
<line x1="60.250000" y1="120.000000" x2="66.700000" y2="120.000000"  style="stroke:black; stroke-linecap:round; stroke-width:0.25;"/>
<line x1="62.700000" y1="152.000000" x2="66.700000" y2="152.000000"  style="stroke:black; stroke-linecap:round; stroke-width:0.25;"/>
<line x1="66.700000" y1="140.000000" x2="74.700000" y2="140.000000"  style="stroke:black; stroke-linecap:round; stroke-width:0.25;"/>
<line x1="66.700000" y1="152.000000" x2="66.700000" y2="140.000000"  style="stroke:black; stroke-linecap:round; stroke-width:0.25;"/>
<line x1="66.700000" y1="152.000000" x2="66.700000" y2="152.000000"  style="stroke:black; stroke-linecap:round; stroke-width:0.25;"/>
<line x1="66.700000" y1="120.000000" x2="74.700000" y2="120.000000"  style="stroke:black; stroke-linecap:round; stroke-width:0.25;"/>
<line x1="74.700000" y1="132.000000" x2="78.700000" y2="132.000000"  style="stroke:black; stroke-linecap:round; stroke-width:0.25;"/>
<line x1="74.700000" y1="140.000000" x2="78.700000" y2="140.000000"  style="stroke:black; stroke-linecap:round; stroke-width:0.25;"/>
<line x1="74.700000" y1="120.000000" x2="74.700000" y2="132.000000"  style="stroke:black; stroke-linecap:round; stroke-width:0.25;"/>
<line x1="74.700000" y1="132.000000" x2="74.700000" y2="132.000000"  style="stroke:black; stroke-linecap:round; stroke-width:0.25;"/>
<line x1="75.350000" y1="184.000000" x2="79.350000" y2="184.000000"  style="stroke:black; stroke-linecap:round; stroke-width:0.25;"/>
<line x1="79.350000" y1="184.000000" x2="106.700000" y2="184.000000"  style="stroke:black; stroke-linecap:round; stroke-width:0.25;"/>
<line x1="95.350000" y1="78.000000" x2="99.350000" y2="78.000000"  style="stroke:black; stroke-linecap:round; stroke-width:0.25;"/>
<line x1="99.350000" y1="78.000000" x2="109.350000" y2="78.000000"  style="stroke:black; stroke-linecap:round; stroke-width:0.25;"/>
<line x1="102.700000" y1="136.000000" x2="106.700000" y2="136.000000"  style="stroke:black; stroke-linecap:round; stroke-width:0.25;"/>
<line x1="106.700000" y1="136.000000" x2="114.700000" y2="136.000000"  style="stroke:black; stroke-linecap:round; stroke-width:0.25;"/>
<line x1="106.700000" y1="156.000000" x2="114.700000" y2="156.000000"  style="stroke:black; stroke-linecap:round; stroke-width:0.25;"/>
<line x1="106.700000" y1="184.000000" x2="106.700000" y2="156.000000"  style="stroke:black; stroke-linecap:round; stroke-width:0.25;"/>
<line x1="106.700000" y1="184.000000" x2="106.700000" y2="184.000000"  style="stroke:black; stroke-linecap:round; stroke-width:0.25;"/>
<line x1="109.350000" y1="78.000000" x2="146.700000" y2="78.000000"  style="stroke:black; stroke-linecap:round; stroke-width:0.25;"/>
<line x1="114.700000" y1="136.000000" x2="114.700000" y2="148.000000"  style="stroke:black; stroke-linecap:round; stroke-width:0.25;"/>
<line x1="114.700000" y1="148.000000" x2="114.700000" y2="148.000000"  style="stroke:black; stroke-linecap:round; stroke-width:0.25;"/>
<line x1="114.700000" y1="148.000000" x2="118.700000" y2="148.000000"  style="stroke:black; stroke-linecap:round; stroke-width:0.25;"/>
<line x1="114.700000" y1="156.000000" x2="118.700000" y2="156.000000"  style="stroke:black; stroke-linecap:round; stroke-width:0.25;"/>
<line x1="129.150000" y1="216.000000" x2="133.150000" y2="216.000000"  style="stroke:black; stroke-linecap:round; stroke-width:0.25;"/>
<line x1="133.150000" y1="216.000000" x2="186.700000" y2="216.000000"  style="stroke:black; stroke-linecap:round; stroke-width:0.25;"/>
<line x1="135.350000" y1="36.000000" x2="139.350000" y2="36.000000"  style="stroke:black; stroke-linecap:round; stroke-width:0.25;"/>
<line x1="139.350000" y1="36.000000" x2="226.700000" y2="36.000000"  style="stroke:black; stroke-linecap:round; stroke-width:0.25;"/>
<line x1="142.700000" y1="152.000000" x2="146.700000" y2="152.000000"  style="stroke:black; stroke-linecap:round; stroke-width:0.25;"/>
<line x1="146.700000" y1="78.000000" x2="154.700000" y2="78.000000"  style="stroke:black; stroke-linecap:round; stroke-width:0.25;"/>
<line x1="146.700000" y1="130.000000" x2="154.700000" y2="130.000000"  style="stroke:black; stroke-linecap:round; stroke-width:0.25;"/>
<line x1="146.700000" y1="152.000000" x2="146.700000" y2="130.000000"  style="stroke:black; stroke-linecap:round; stroke-width:0.25;"/>
<line x1="146.700000" y1="152.000000" x2="146.700000" y2="152.000000"  style="stroke:black; stroke-linecap:round; stroke-width:0.25;"/>
<line x1="154.700000" y1="78.000000" x2="154.700000" y2="122.000000"  style="stroke:black; stroke-linecap:round; stroke-width:0.25;"/>
<line x1="154.700000" y1="122.000000" x2="154.700000" y2="122.000000"  style="stroke:black; stroke-linecap:round; stroke-width:0.25;"/>
<line x1="154.700000" y1="122.000000" x2="158.700000" y2="122.000000"  style="stroke:black; stroke-linecap:round; stroke-width:0.25;"/>
<line x1="154.700000" y1="130.000000" x2="158.700000" y2="130.000000"  style="stroke:black; stroke-linecap:round; stroke-width:0.25;"/>
<line x1="182.700000" y1="126.000000" x2="186.700000" y2="126.000000"  style="stroke:black; stroke-linecap:round; stroke-width:0.25;"/>
<line x1="186.700000" y1="126.000000" x2="194.700000" y2="126.000000"  style="stroke:black; stroke-linecap:round; stroke-width:0.25;"/>
<line x1="186.700000" y1="146.000000" x2="194.700000" y2="146.000000"  style="stroke:black; stroke-linecap:round; stroke-width:0.25;"/>
<line x1="186.700000" y1="216.000000" x2="186.700000" y2="146.000000"  style="stroke:black; stroke-linecap:round; stroke-width:0.25;"/>
<line x1="186.700000" y1="216.000000" x2="186.700000" y2="216.000000"  style="stroke:black; stroke-linecap:round; stroke-width:0.25;"/>
<line x1="194.700000" y1="126.000000" x2="194.700000" y2="138.000000"  style="stroke:black; stroke-linecap:round; stroke-width:0.25;"/>
<line x1="194.700000" y1="138.000000" x2="194.700000" y2="138.000000"  style="stroke:black; stroke-linecap:round; stroke-width:0.25;"/>
<line x1="194.700000" y1="138.000000" x2="198.700000" y2="138.000000"  style="stroke:black; stroke-linecap:round; stroke-width:0.25;"/>
<line x1="194.700000" y1="146.000000" x2="198.700000" y2="146.000000"  style="stroke:black; stroke-linecap:round; stroke-width:0.25;"/>
<line x1="222.700000" y1="142.000000" x2="226.700000" y2="142.000000"  style="stroke:black; stroke-linecap:round; stroke-width:0.25;"/>
<line x1="226.700000" y1="36.000000" x2="234.700000" y2="36.000000"  style="stroke:black; stroke-linecap:round; stroke-width:0.25;"/>
<line x1="226.700000" y1="130.000000" x2="234.700000" y2="130.000000"  style="stroke:black; stroke-linecap:round; stroke-width:0.25;"/>
<line x1="226.700000" y1="142.000000" x2="226.700000" y2="130.000000"  style="stroke:black; stroke-linecap:round; stroke-width:0.25;"/>
<line x1="226.700000" y1="142.000000" x2="226.700000" y2="142.000000"  style="stroke:black; stroke-linecap:round; stroke-width:0.25;"/>
<line x1="234.700000" y1="36.000000" x2="234.700000" y2="122.000000"  style="stroke:black; stroke-linecap:round; stroke-width:0.25;"/>
<line x1="234.700000" y1="122.000000" x2="234.700000" y2="122.000000"  style="stroke:black; stroke-linecap:round; stroke-width:0.25;"/>
<line x1="234.700000" y1="122.000000" x2="238.700000" y2="122.000000"  style="stroke:black; stroke-linecap:round; stroke-width:0.25;"/>
<line x1="234.700000" y1="130.000000" x2="238.700000" y2="130.000000"  style="stroke:black; stroke-linecap:round; stroke-width:0.25;"/>
<line x1="262.700000" y1="126.000000" x2="266.700000" y2="126.000000"  style="stroke:black; stroke-linecap:round; stroke-width:0.25;"/>
<line x1="266.700000" y1="126.000000" x2="266.700000" y2="126.000000"  style="stroke:black; stroke-linecap:round; stroke-width:0.25;"/>
<line x1="266.700000" y1="126.000000" x2="270.700000" y2="126.000000"  style="stroke:black; stroke-linecap:round; stroke-width:0.25;"/>
<line x1="294.700000" y1="126.000000" x2="298.700000" y2="126.000000"  style="stroke:black; stroke-linecap:round; stroke-width:0.25;"/>
<line x1="298.700000" y1="126.000000" x2="298.700000" y2="126.000000"  style="stroke:black; stroke-linecap:round; stroke-width:0.25;"/>
<line x1="298.700000" y1="126.000000" x2="302.700000" y2="126.000000"  style="stroke:black; stroke-linecap:round; stroke-width:0.25;"/>
<line x1="302.700000" y1="126.000000" x2="306.700000" y2="126.000000"  style="stroke:black; stroke-linecap:round; stroke-width:0.25;"/>
<line x1="306.700000" y1="126.000000" x2="316.700000" y2="126.000000"  style="stroke:black; stroke-linecap:round; stroke-width:0.25;"/>
</svg>
