<?xml version="1.0"?>
<svg xmlns="http://www.w3.org/2000/svg" xmlns:xlink="http://www.w3.org/1999/xlink" viewBox="0 0 321.120000 296.000000" width="160.560000mm" height="148.000000mm" version="1.1">
<a xlink:href="StereoVocoder-0x2aa43b70.svg">
<rect x="1.000000" y="1.000000" width="320.120000" height="295.000000" rx="0" ry="0" style="stroke:none;fill:#cccccc;"/>
<rect x="0.000000" y="0.000000" width="320.120000" height="295.000000" rx="0" ry="0" style="stroke:none;fill:#ffffff;"/>
</a>
<text x="10.000000" y="7.000000" font-family="Arial" font-size="7"></text>
<rect x="234.120000" y="25.000000" width="24.000000" height="24.000000" rx="0" ry="0" style="stroke:none;fill:#cccccc;"/>
<rect x="233.120000" y="24.000000" width="24.000000" height="24.000000" rx="0" ry="0" style="stroke:none;fill:#4B71A1;"/>
<text x="245.120000" y="38.000000" font-family="Arial" font-size="7" text-anchor="middle" fill="#FFFFFF">+</text>
<circle cx="235.120000" cy="26.000000" r="1"/>
<line x1="230.120000" y1="31.000000" x2="233.120000" y2="32.000000"  transform="rotate(0.000000,233.120000,32.000000)" style="stroke: black; stroke-width:0.25;"/>
<line x1="230.120000" y1="33.000000" x2="233.120000" y2="32.000000"  transform="rotate(0.000000,233.120000,32.000000)" style="stroke: black; stroke-width:0.25;"/>
<line x1="230.120000" y1="39.000000" x2="233.120000" y2="40.000000"  transform="rotate(0.000000,233.120000,40.000000)" style="stroke: black; stroke-width:0.25;"/>
<line x1="230.120000" y1="41.000000" x2="233.120000" y2="40.000000"  transform="rotate(0.000000,233.120000,40.000000)" style="stroke: black; stroke-width:0.25;"/>
<rect x="234.120000" y="57.000000" width="24.000000" height="24.000000" rx="0" ry="0" style="stroke:none;fill:#cccccc;"/>
<rect x="233.120000" y="56.000000" width="24.000000" height="24.000000" rx="0" ry="0" style="stroke:none;fill:#4B71A1;"/>
<text x="245.120000" y="70.000000" font-family="Arial" font-size="7" text-anchor="middle" fill="#FFFFFF">+</text>
<circle cx="235.120000" cy="58.000000" r="1"/>
<line x1="230.120000" y1="63.000000" x2="233.120000" y2="64.000000"  transform="rotate(0.000000,233.120000,64.000000)" style="stroke: black; stroke-width:0.25;"/>
<line x1="230.120000" y1="65.000000" x2="233.120000" y2="64.000000"  transform="rotate(0.000000,233.120000,64.000000)" style="stroke: black; stroke-width:0.25;"/>
<line x1="230.120000" y1="71.000000" x2="233.120000" y2="72.000000"  transform="rotate(0.000000,233.120000,72.000000)" style="stroke: black; stroke-width:0.25;"/>
<line x1="230.120000" y1="73.000000" x2="233.120000" y2="72.000000"  transform="rotate(0.000000,233.120000,72.000000)" style="stroke: black; stroke-width:0.25;"/>
<rect x="234.120000" y="89.000000" width="24.000000" height="24.000000" rx="0" ry="0" style="stroke:none;fill:#cccccc;"/>
<rect x="233.120000" y="88.000000" width="24.000000" height="24.000000" rx="0" ry="0" style="stroke:none;fill:#4B71A1;"/>
<text x="245.120000" y="102.000000" font-family="Arial" font-size="7" text-anchor="middle" fill="#FFFFFF">+</text>
<circle cx="235.120000" cy="90.000000" r="1"/>
<line x1="230.120000" y1="95.000000" x2="233.120000" y2="96.000000"  transform="rotate(0.000000,233.120000,96.000000)" style="stroke: black; stroke-width:0.25;"/>
<line x1="230.120000" y1="97.000000" x2="233.120000" y2="96.000000"  transform="rotate(0.000000,233.120000,96.000000)" style="stroke: black; stroke-width:0.25;"/>
<line x1="230.120000" y1="103.000000" x2="233.120000" y2="104.000000"  transform="rotate(0.000000,233.120000,104.000000)" style="stroke: black; stroke-width:0.25;"/>
<line x1="230.120000" y1="105.000000" x2="233.120000" y2="104.000000"  transform="rotate(0.000000,233.120000,104.000000)" style="stroke: black; stroke-width:0.25;"/>
<rect x="234.120000" y="121.000000" width="24.000000" height="24.000000" rx="0" ry="0" style="stroke:none;fill:#cccccc;"/>
<rect x="233.120000" y="120.000000" width="24.000000" height="24.000000" rx="0" ry="0" style="stroke:none;fill:#4B71A1;"/>
<text x="245.120000" y="134.000000" font-family="Arial" font-size="7" text-anchor="middle" fill="#FFFFFF">+</text>
<circle cx="235.120000" cy="122.000000" r="1"/>
<line x1="230.120000" y1="127.000000" x2="233.120000" y2="128.000000"  transform="rotate(0.000000,233.120000,128.000000)" style="stroke: black; stroke-width:0.25;"/>
<line x1="230.120000" y1="129.000000" x2="233.120000" y2="128.000000"  transform="rotate(0.000000,233.120000,128.000000)" style="stroke: black; stroke-width:0.25;"/>
<line x1="230.120000" y1="135.000000" x2="233.120000" y2="136.000000"  transform="rotate(0.000000,233.120000,136.000000)" style="stroke: black; stroke-width:0.25;"/>
<line x1="230.120000" y1="137.000000" x2="233.120000" y2="136.000000"  transform="rotate(0.000000,233.120000,136.000000)" style="stroke: black; stroke-width:0.25;"/>
<rect x="234.120000" y="153.000000" width="24.000000" height="24.000000" rx="0" ry="0" style="stroke:none;fill:#cccccc;"/>
<rect x="233.120000" y="152.000000" width="24.000000" height="24.000000" rx="0" ry="0" style="stroke:none;fill:#4B71A1;"/>
<text x="245.120000" y="166.000000" font-family="Arial" font-size="7" text-anchor="middle" fill="#FFFFFF">-</text>
<circle cx="235.120000" cy="154.000000" r="1"/>
<line x1="230.120000" y1="159.000000" x2="233.120000" y2="160.000000"  transform="rotate(0.000000,233.120000,160.000000)" style="stroke: black; stroke-width:0.25;"/>
<line x1="230.120000" y1="161.000000" x2="233.120000" y2="160.000000"  transform="rotate(0.000000,233.120000,160.000000)" style="stroke: black; stroke-width:0.25;"/>
<line x1="230.120000" y1="167.000000" x2="233.120000" y2="168.000000"  transform="rotate(0.000000,233.120000,168.000000)" style="stroke: black; stroke-width:0.25;"/>
<line x1="230.120000" y1="169.000000" x2="233.120000" y2="168.000000"  transform="rotate(0.000000,233.120000,168.000000)" style="stroke: black; stroke-width:0.25;"/>
<rect x="234.120000" y="185.000000" width="24.000000" height="24.000000" rx="0" ry="0" style="stroke:none;fill:#cccccc;"/>
<rect x="233.120000" y="184.000000" width="24.000000" height="24.000000" rx="0" ry="0" style="stroke:none;fill:#4B71A1;"/>
<text x="245.120000" y="198.000000" font-family="Arial" font-size="7" text-anchor="middle" fill="#FFFFFF">-</text>
<circle cx="235.120000" cy="186.000000" r="1"/>
<line x1="230.120000" y1="191.000000" x2="233.120000" y2="192.000000"  transform="rotate(0.000000,233.120000,192.000000)" style="stroke: black; stroke-width:0.25;"/>
<line x1="230.120000" y1="193.000000" x2="233.120000" y2="192.000000"  transform="rotate(0.000000,233.120000,192.000000)" style="stroke: black; stroke-width:0.25;"/>
<line x1="230.120000" y1="199.000000" x2="233.120000" y2="200.000000"  transform="rotate(0.000000,233.120000,200.000000)" style="stroke: black; stroke-width:0.25;"/>
<line x1="230.120000" y1="201.000000" x2="233.120000" y2="200.000000"  transform="rotate(0.000000,233.120000,200.000000)" style="stroke: black; stroke-width:0.25;"/>
<rect x="234.120000" y="217.000000" width="24.000000" height="24.000000" rx="0" ry="0" style="stroke:none;fill:#cccccc;"/>
<rect x="233.120000" y="216.000000" width="24.000000" height="24.000000" rx="0" ry="0" style="stroke:none;fill:#4B71A1;"/>
<text x="245.120000" y="230.000000" font-family="Arial" font-size="7" text-anchor="middle" fill="#FFFFFF">-</text>
<circle cx="235.120000" cy="218.000000" r="1"/>
<line x1="230.120000" y1="223.000000" x2="233.120000" y2="224.000000"  transform="rotate(0.000000,233.120000,224.000000)" style="stroke: black; stroke-width:0.25;"/>
<line x1="230.120000" y1="225.000000" x2="233.120000" y2="224.000000"  transform="rotate(0.000000,233.120000,224.000000)" style="stroke: black; stroke-width:0.25;"/>
<line x1="230.120000" y1="231.000000" x2="233.120000" y2="232.000000"  transform="rotate(0.000000,233.120000,232.000000)" style="stroke: black; stroke-width:0.25;"/>
<line x1="230.120000" y1="233.000000" x2="233.120000" y2="232.000000"  transform="rotate(0.000000,233.120000,232.000000)" style="stroke: black; stroke-width:0.25;"/>
<rect x="234.120000" y="249.000000" width="24.000000" height="24.000000" rx="0" ry="0" style="stroke:none;fill:#cccccc;"/>
<rect x="233.120000" y="248.000000" width="24.000000" height="24.000000" rx="0" ry="0" style="stroke:none;fill:#4B71A1;"/>
<text x="245.120000" y="262.000000" font-family="Arial" font-size="7" text-anchor="middle" fill="#FFFFFF">-</text>
<circle cx="235.120000" cy="250.000000" r="1"/>
<line x1="230.120000" y1="255.000000" x2="233.120000" y2="256.000000"  transform="rotate(0.000000,233.120000,256.000000)" style="stroke: black; stroke-width:0.25;"/>
<line x1="230.120000" y1="257.000000" x2="233.120000" y2="256.000000"  transform="rotate(0.000000,233.120000,256.000000)" style="stroke: black; stroke-width:0.25;"/>
<line x1="230.120000" y1="263.000000" x2="233.120000" y2="264.000000"  transform="rotate(0.000000,233.120000,264.000000)" style="stroke: black; stroke-width:0.25;"/>
<line x1="230.120000" y1="265.000000" x2="233.120000" y2="264.000000"  transform="rotate(0.000000,233.120000,264.000000)" style="stroke: black; stroke-width:0.25;"/>
<line x1="15.000000" y1="15.000000" x2="15.000000" y2="281.000000"  style="stroke: black; stroke-linecap:round; stroke-width:0.25; stroke-dasharray:3,3;"/>
<line x1="15.000000" y1="281.000000" x2="306.120000" y2="281.000000"  style="stroke: black; stroke-linecap:round; stroke-width:0.25; stroke-dasharray:3,3;"/>
<line x1="306.120000" y1="281.000000" x2="306.120000" y2="15.000000"  style="stroke: black; stroke-linecap:round; stroke-width:0.25; stroke-dasharray:3,3;"/>
<line x1="15.000000" y1="15.000000" x2="20.000000" y2="15.000000"  style="stroke: black; stroke-linecap:round; stroke-width:0.25; stroke-dasharray:3,3;"/>
<line x1="65.150000" y1="15.000000" x2="306.120000" y2="15.000000"  style="stroke: black; stroke-linecap:round; stroke-width:0.25; stroke-dasharray:3,3;"/>
<text x="20.000000" y="17.000000" font-family="Arial" font-size="7">butterfly(8)</text>
<line x1="308.120000" y1="119.000000" x2="311.120000" y2="120.000000"  transform="rotate(0.000000,311.120000,120.000000)" style="stroke: black; stroke-width:0.25;"/>
<line x1="308.120000" y1="121.000000" x2="311.120000" y2="120.000000"  transform="rotate(0.000000,311.120000,120.000000)" style="stroke: black; stroke-width:0.25;"/>
<line x1="308.120000" y1="127.000000" x2="311.120000" y2="128.000000"  transform="rotate(0.000000,311.120000,128.000000)" style="stroke: black; stroke-width:0.25;"/>
<line x1="308.120000" y1="129.000000" x2="311.120000" y2="128.000000"  transform="rotate(0.000000,311.120000,128.000000)" style="stroke: black; stroke-width:0.25;"/>
<line x1="308.120000" y1="135.000000" x2="311.120000" y2="136.000000"  transform="rotate(0.000000,311.120000,136.000000)" style="stroke: black; stroke-width:0.25;"/>
<line x1="308.120000" y1="137.000000" x2="311.120000" y2="136.000000"  transform="rotate(0.000000,311.120000,136.000000)" style="stroke: black; stroke-width:0.25;"/>
<line x1="308.120000" y1="143.000000" x2="311.120000" y2="144.000000"  transform="rotate(0.000000,311.120000,144.000000)" style="stroke: black; stroke-width:0.25;"/>
<line x1="308.120000" y1="145.000000" x2="311.120000" y2="144.000000"  transform="rotate(0.000000,311.120000,144.000000)" style="stroke: black; stroke-width:0.25;"/>
<line x1="308.120000" y1="151.000000" x2="311.120000" y2="152.000000"  transform="rotate(0.000000,311.120000,152.000000)" style="stroke: black; stroke-width:0.25;"/>
<line x1="308.120000" y1="153.000000" x2="311.120000" y2="152.000000"  transform="rotate(0.000000,311.120000,152.000000)" style="stroke: black; stroke-width:0.25;"/>
<line x1="308.120000" y1="159.000000" x2="311.120000" y2="160.000000"  transform="rotate(0.000000,311.120000,160.000000)" style="stroke: black; stroke-width:0.25;"/>
<line x1="308.120000" y1="161.000000" x2="311.120000" y2="160.000000"  transform="rotate(0.000000,311.120000,160.000000)" style="stroke: black; stroke-width:0.25;"/>
<line x1="308.120000" y1="167.000000" x2="311.120000" y2="168.000000"  transform="rotate(0.000000,311.120000,168.000000)" style="stroke: black; stroke-width:0.25;"/>
<line x1="308.120000" y1="169.000000" x2="311.120000" y2="168.000000"  transform="rotate(0.000000,311.120000,168.000000)" style="stroke: black; stroke-width:0.25;"/>
<line x1="308.120000" y1="175.000000" x2="311.120000" y2="176.000000"  transform="rotate(0.000000,311.120000,176.000000)" style="stroke: black; stroke-width:0.25;"/>
<line x1="308.120000" y1="177.000000" x2="311.120000" y2="176.000000"  transform="rotate(0.000000,311.120000,176.000000)" style="stroke: black; stroke-width:0.25;"/>
<line x1="10.000000" y1="120.000000" x2="20.000000" y2="120.000000"  style="stroke:black; stroke-linecap:round; stroke-width:0.25;"/>
<line x1="10.000000" y1="128.000000" x2="20.000000" y2="128.000000"  style="stroke:black; stroke-linecap:round; stroke-width:0.25;"/>
<line x1="10.000000" y1="136.000000" x2="20.000000" y2="136.000000"  style="stroke:black; stroke-linecap:round; stroke-width:0.25;"/>
<line x1="10.000000" y1="144.000000" x2="20.000000" y2="144.000000"  style="stroke:black; stroke-linecap:round; stroke-width:0.25;"/>
<line x1="10.000000" y1="152.000000" x2="20.000000" y2="152.000000"  style="stroke:black; stroke-linecap:round; stroke-width:0.25;"/>
<line x1="10.000000" y1="160.000000" x2="20.000000" y2="160.000000"  style="stroke:black; stroke-linecap:round; stroke-width:0.25;"/>
<line x1="10.000000" y1="168.000000" x2="20.000000" y2="168.000000"  style="stroke:black; stroke-linecap:round; stroke-width:0.25;"/>
<line x1="10.000000" y1="176.000000" x2="20.000000" y2="176.000000"  style="stroke:black; stroke-linecap:round; stroke-width:0.25;"/>
<line x1="20.000000" y1="120.000000" x2="24.000000" y2="120.000000"  style="stroke:black; stroke-linecap:round; stroke-width:0.25;"/>
<line x1="20.000000" y1="128.000000" x2="24.000000" y2="128.000000"  style="stroke:black; stroke-linecap:round; stroke-width:0.25;"/>
<line x1="20.000000" y1="136.000000" x2="24.000000" y2="136.000000"  style="stroke:black; stroke-linecap:round; stroke-width:0.25;"/>
<line x1="20.000000" y1="144.000000" x2="24.000000" y2="144.000000"  style="stroke:black; stroke-linecap:round; stroke-width:0.25;"/>
<line x1="20.000000" y1="152.000000" x2="24.000000" y2="152.000000"  style="stroke:black; stroke-linecap:round; stroke-width:0.25;"/>
<line x1="20.000000" y1="160.000000" x2="24.000000" y2="160.000000"  style="stroke:black; stroke-linecap:round; stroke-width:0.25;"/>
<line x1="20.000000" y1="168.000000" x2="24.000000" y2="168.000000"  style="stroke:black; stroke-linecap:round; stroke-width:0.25;"/>
<line x1="20.000000" y1="176.000000" x2="24.000000" y2="176.000000"  style="stroke:black; stroke-linecap:round; stroke-width:0.25;"/>
<line x1="24.000000" y1="120.000000" x2="28.000000" y2="120.000000"  style="stroke:black; stroke-linecap:round; stroke-width:0.25;"/>
<line x1="24.000000" y1="128.000000" x2="28.000000" y2="128.000000"  style="stroke:black; stroke-linecap:round; stroke-width:0.25;"/>
<line x1="24.000000" y1="136.000000" x2="28.000000" y2="136.000000"  style="stroke:black; stroke-linecap:round; stroke-width:0.25;"/>
<line x1="24.000000" y1="144.000000" x2="28.000000" y2="144.000000"  style="stroke:black; stroke-linecap:round; stroke-width:0.25;"/>
<line x1="24.000000" y1="152.000000" x2="28.000000" y2="152.000000"  style="stroke:black; stroke-linecap:round; stroke-width:0.25;"/>
<line x1="24.000000" y1="160.000000" x2="28.000000" y2="160.000000"  style="stroke:black; stroke-linecap:round; stroke-width:0.25;"/>
<line x1="24.000000" y1="168.000000" x2="28.000000" y2="168.000000"  style="stroke:black; stroke-linecap:round; stroke-width:0.25;"/>
<line x1="24.000000" y1="176.000000" x2="28.000000" y2="176.000000"  style="stroke:black; stroke-linecap:round; stroke-width:0.25;"/>
<line x1="28.000000" y1="120.000000" x2="28.000000" y2="120.000000"  style="stroke:black; stroke-linecap:round; stroke-width:0.25;"/>
<line x1="28.000000" y1="120.000000" x2="32.000000" y2="120.000000"  style="stroke:black; stroke-linecap:round; stroke-width:0.25;"/>
<line x1="28.000000" y1="128.000000" x2="28.000000" y2="128.000000"  style="stroke:black; stroke-linecap:round; stroke-width:0.25;"/>
<line x1="28.000000" y1="128.000000" x2="32.000000" y2="128.000000"  style="stroke:black; stroke-linecap:round; stroke-width:0.25;"/>
<line x1="28.000000" y1="136.000000" x2="28.000000" y2="136.000000"  style="stroke:black; stroke-linecap:round; stroke-width:0.25;"/>
<line x1="28.000000" y1="136.000000" x2="32.000000" y2="136.000000"  style="stroke:black; stroke-linecap:round; stroke-width:0.25;"/>
<line x1="28.000000" y1="144.000000" x2="28.000000" y2="144.000000"  style="stroke:black; stroke-linecap:round; stroke-width:0.25;"/>
<line x1="28.000000" y1="144.000000" x2="32.000000" y2="144.000000"  style="stroke:black; stroke-linecap:round; stroke-width:0.25;"/>
<line x1="28.000000" y1="152.000000" x2="28.000000" y2="152.000000"  style="stroke:black; stroke-linecap:round; stroke-width:0.25;"/>
<line x1="28.000000" y1="152.000000" x2="32.000000" y2="152.000000"  style="stroke:black; stroke-linecap:round; stroke-width:0.25;"/>
<line x1="28.000000" y1="160.000000" x2="28.000000" y2="160.000000"  style="stroke:black; stroke-linecap:round; stroke-width:0.25;"/>
<line x1="28.000000" y1="160.000000" x2="32.000000" y2="160.000000"  style="stroke:black; stroke-linecap:round; stroke-width:0.25;"/>
<line x1="28.000000" y1="168.000000" x2="28.000000" y2="168.000000"  style="stroke:black; stroke-linecap:round; stroke-width:0.25;"/>
<line x1="28.000000" y1="168.000000" x2="32.000000" y2="168.000000"  style="stroke:black; stroke-linecap:round; stroke-width:0.25;"/>
<line x1="28.000000" y1="176.000000" x2="28.000000" y2="176.000000"  style="stroke:black; stroke-linecap:round; stroke-width:0.25;"/>
<line x1="28.000000" y1="176.000000" x2="32.000000" y2="176.000000"  style="stroke:black; stroke-linecap:round; stroke-width:0.25;"/>
<line x1="32.000000" y1="120.000000" x2="36.000000" y2="120.000000"  style="stroke:black; stroke-linecap:round; stroke-width:0.25;"/>
<line x1="32.000000" y1="128.000000" x2="36.000000" y2="128.000000"  style="stroke:black; stroke-linecap:round; stroke-width:0.25;"/>
<line x1="32.000000" y1="136.000000" x2="36.000000" y2="136.000000"  style="stroke:black; stroke-linecap:round; stroke-width:0.25;"/>
<line x1="32.000000" y1="144.000000" x2="36.000000" y2="144.000000"  style="stroke:black; stroke-linecap:round; stroke-width:0.25;"/>
<line x1="32.000000" y1="152.000000" x2="36.000000" y2="152.000000"  style="stroke:black; stroke-linecap:round; stroke-width:0.25;"/>
<line x1="32.000000" y1="160.000000" x2="36.000000" y2="160.000000"  style="stroke:black; stroke-linecap:round; stroke-width:0.25;"/>
<line x1="32.000000" y1="168.000000" x2="36.000000" y2="168.000000"  style="stroke:black; stroke-linecap:round; stroke-width:0.25;"/>
<line x1="32.000000" y1="176.000000" x2="36.000000" y2="176.000000"  style="stroke:black; stroke-linecap:round; stroke-width:0.25;"/>
<line x1="36.000000" y1="120.000000" x2="116.000000" y2="85.760000"  style="stroke:black; stroke-linecap:round; stroke-width:0.25;"/>
<line x1="36.000000" y1="120.000000" x2="116.000000" y2="154.240000"  style="stroke:black; stroke-linecap:round; stroke-width:0.25;"/>
<line x1="36.000000" y1="128.000000" x2="116.000000" y2="93.760000"  style="stroke:black; stroke-linecap:round; stroke-width:0.25;"/>
<line x1="36.000000" y1="128.000000" x2="116.000000" y2="162.240000"  style="stroke:black; stroke-linecap:round; stroke-width:0.25;"/>
<line x1="36.000000" y1="136.000000" x2="116.000000" y2="101.760000"  style="stroke:black; stroke-linecap:round; stroke-width:0.25;"/>
<line x1="36.000000" y1="136.000000" x2="116.000000" y2="170.240000"  style="stroke:black; stroke-linecap:round; stroke-width:0.25;"/>
<line x1="36.000000" y1="144.000000" x2="116.000000" y2="109.760000"  style="stroke:black; stroke-linecap:round; stroke-width:0.25;"/>
<line x1="36.000000" y1="144.000000" x2="116.000000" y2="178.240000"  style="stroke:black; stroke-linecap:round; stroke-width:0.25;"/>
<line x1="36.000000" y1="152.000000" x2="116.000000" y2="117.760000"  style="stroke:black; stroke-linecap:round; stroke-width:0.25;"/>
<line x1="36.000000" y1="152.000000" x2="116.000000" y2="186.240000"  style="stroke:black; stroke-linecap:round; stroke-width:0.25;"/>
<line x1="36.000000" y1="160.000000" x2="116.000000" y2="125.760000"  style="stroke:black; stroke-linecap:round; stroke-width:0.25;"/>
<line x1="36.000000" y1="160.000000" x2="116.000000" y2="194.240000"  style="stroke:black; stroke-linecap:round; stroke-width:0.25;"/>
<line x1="36.000000" y1="168.000000" x2="116.000000" y2="133.760000"  style="stroke:black; stroke-linecap:round; stroke-width:0.25;"/>
<line x1="36.000000" y1="168.000000" x2="116.000000" y2="202.240000"  style="stroke:black; stroke-linecap:round; stroke-width:0.25;"/>
<line x1="36.000000" y1="176.000000" x2="116.000000" y2="141.760000"  style="stroke:black; stroke-linecap:round; stroke-width:0.25;"/>
<line x1="36.000000" y1="176.000000" x2="116.000000" y2="210.240000"  style="stroke:black; stroke-linecap:round; stroke-width:0.25;"/>
<line x1="116.000000" y1="85.760000" x2="120.000000" y2="85.760000"  style="stroke:black; stroke-linecap:round; stroke-width:0.25;"/>
<line x1="116.000000" y1="93.760000" x2="120.000000" y2="93.760000"  style="stroke:black; stroke-linecap:round; stroke-width:0.25;"/>
<line x1="116.000000" y1="101.760000" x2="120.000000" y2="101.760000"  style="stroke:black; stroke-linecap:round; stroke-width:0.25;"/>
<line x1="116.000000" y1="109.760000" x2="120.000000" y2="109.760000"  style="stroke:black; stroke-linecap:round; stroke-width:0.25;"/>
<line x1="116.000000" y1="117.760000" x2="120.000000" y2="117.760000"  style="stroke:black; stroke-linecap:round; stroke-width:0.25;"/>
<line x1="116.000000" y1="125.760000" x2="120.000000" y2="125.760000"  style="stroke:black; stroke-linecap:round; stroke-width:0.25;"/>
<line x1="116.000000" y1="133.760000" x2="120.000000" y2="133.760000"  style="stroke:black; stroke-linecap:round; stroke-width:0.25;"/>
<line x1="116.000000" y1="141.760000" x2="120.000000" y2="141.760000"  style="stroke:black; stroke-linecap:round; stroke-width:0.25;"/>
<line x1="116.000000" y1="154.240000" x2="120.000000" y2="154.240000"  style="stroke:black; stroke-linecap:round; stroke-width:0.25;"/>
<line x1="116.000000" y1="162.240000" x2="120.000000" y2="162.240000"  style="stroke:black; stroke-linecap:round; stroke-width:0.25;"/>
<line x1="116.000000" y1="170.240000" x2="120.000000" y2="170.240000"  style="stroke:black; stroke-linecap:round; stroke-width:0.25;"/>
<line x1="116.000000" y1="178.240000" x2="120.000000" y2="178.240000"  style="stroke:black; stroke-linecap:round; stroke-width:0.25;"/>
<line x1="116.000000" y1="186.240000" x2="120.000000" y2="186.240000"  style="stroke:black; stroke-linecap:round; stroke-width:0.25;"/>
<line x1="116.000000" y1="194.240000" x2="120.000000" y2="194.240000"  style="stroke:black; stroke-linecap:round; stroke-width:0.25;"/>
<line x1="116.000000" y1="202.240000" x2="120.000000" y2="202.240000"  style="stroke:black; stroke-linecap:round; stroke-width:0.25;"/>
<line x1="116.000000" y1="210.240000" x2="120.000000" y2="210.240000"  style="stroke:black; stroke-linecap:round; stroke-width:0.25;"/>
<line x1="120.000000" y1="85.760000" x2="124.000000" y2="85.760000"  style="stroke:black; stroke-linecap:round; stroke-width:0.25;"/>
<line x1="120.000000" y1="93.760000" x2="124.000000" y2="93.760000"  style="stroke:black; stroke-linecap:round; stroke-width:0.25;"/>
<line x1="120.000000" y1="101.760000" x2="124.000000" y2="101.760000"  style="stroke:black; stroke-linecap:round; stroke-width:0.25;"/>
<line x1="120.000000" y1="109.760000" x2="124.000000" y2="109.760000"  style="stroke:black; stroke-linecap:round; stroke-width:0.25;"/>
<line x1="120.000000" y1="117.760000" x2="124.000000" y2="117.760000"  style="stroke:black; stroke-linecap:round; stroke-width:0.25;"/>
<line x1="120.000000" y1="125.760000" x2="124.000000" y2="125.760000"  style="stroke:black; stroke-linecap:round; stroke-width:0.25;"/>
<line x1="120.000000" y1="133.760000" x2="124.000000" y2="133.760000"  style="stroke:black; stroke-linecap:round; stroke-width:0.25;"/>
<line x1="120.000000" y1="141.760000" x2="124.000000" y2="141.760000"  style="stroke:black; stroke-linecap:round; stroke-width:0.25;"/>
<line x1="120.000000" y1="154.240000" x2="124.000000" y2="154.240000"  style="stroke:black; stroke-linecap:round; stroke-width:0.25;"/>
<line x1="120.000000" y1="162.240000" x2="124.000000" y2="162.240000"  style="stroke:black; stroke-linecap:round; stroke-width:0.25;"/>
<line x1="120.000000" y1="170.240000" x2="124.000000" y2="170.240000"  style="stroke:black; stroke-linecap:round; stroke-width:0.25;"/>
<line x1="120.000000" y1="178.240000" x2="124.000000" y2="178.240000"  style="stroke:black; stroke-linecap:round; stroke-width:0.25;"/>
<line x1="120.000000" y1="186.240000" x2="124.000000" y2="186.240000"  style="stroke:black; stroke-linecap:round; stroke-width:0.25;"/>
<line x1="120.000000" y1="194.240000" x2="124.000000" y2="194.240000"  style="stroke:black; stroke-linecap:round; stroke-width:0.25;"/>
<line x1="120.000000" y1="202.240000" x2="124.000000" y2="202.240000"  style="stroke:black; stroke-linecap:round; stroke-width:0.25;"/>
<line x1="120.000000" y1="210.240000" x2="124.000000" y2="210.240000"  style="stroke:black; stroke-linecap:round; stroke-width:0.25;"/>
<line x1="124.000000" y1="85.760000" x2="157.120000" y2="83.520000"  style="stroke:black; stroke-linecap:round; stroke-width:0.25;"/>
<line x1="124.000000" y1="93.760000" x2="157.120000" y2="100.720000"  style="stroke:black; stroke-linecap:round; stroke-width:0.25;"/>
<line x1="124.000000" y1="101.760000" x2="157.120000" y2="117.920000"  style="stroke:black; stroke-linecap:round; stroke-width:0.25;"/>
<line x1="124.000000" y1="109.760000" x2="157.120000" y2="135.120000"  style="stroke:black; stroke-linecap:round; stroke-width:0.25;"/>
<line x1="124.000000" y1="117.760000" x2="157.120000" y2="92.400000"  style="stroke:black; stroke-linecap:round; stroke-width:0.25;"/>
<line x1="124.000000" y1="125.760000" x2="157.120000" y2="109.600000"  style="stroke:black; stroke-linecap:round; stroke-width:0.25;"/>
<line x1="124.000000" y1="133.760000" x2="157.120000" y2="126.800000"  style="stroke:black; stroke-linecap:round; stroke-width:0.25;"/>
<line x1="124.000000" y1="141.760000" x2="157.120000" y2="144.000000"  style="stroke:black; stroke-linecap:round; stroke-width:0.25;"/>
<line x1="124.000000" y1="154.240000" x2="157.120000" y2="152.000000"  style="stroke:black; stroke-linecap:round; stroke-width:0.25;"/>
<line x1="124.000000" y1="162.240000" x2="157.120000" y2="169.200000"  style="stroke:black; stroke-linecap:round; stroke-width:0.25;"/>
<line x1="124.000000" y1="170.240000" x2="157.120000" y2="186.400000"  style="stroke:black; stroke-linecap:round; stroke-width:0.25;"/>
<line x1="124.000000" y1="178.240000" x2="157.120000" y2="203.600000"  style="stroke:black; stroke-linecap:round; stroke-width:0.25;"/>
<line x1="124.000000" y1="186.240000" x2="157.120000" y2="160.880000"  style="stroke:black; stroke-linecap:round; stroke-width:0.25;"/>
<line x1="124.000000" y1="194.240000" x2="157.120000" y2="178.080000"  style="stroke:black; stroke-linecap:round; stroke-width:0.25;"/>
<line x1="124.000000" y1="202.240000" x2="157.120000" y2="195.280000"  style="stroke:black; stroke-linecap:round; stroke-width:0.25;"/>
<line x1="124.000000" y1="210.240000" x2="157.120000" y2="212.480000"  style="stroke:black; stroke-linecap:round; stroke-width:0.25;"/>
<line x1="157.120000" y1="83.520000" x2="161.120000" y2="83.520000"  style="stroke:black; stroke-linecap:round; stroke-width:0.25;"/>
<line x1="157.120000" y1="92.400000" x2="161.120000" y2="92.400000"  style="stroke:black; stroke-linecap:round; stroke-width:0.25;"/>
<line x1="157.120000" y1="100.720000" x2="161.120000" y2="100.720000"  style="stroke:black; stroke-linecap:round; stroke-width:0.25;"/>
<line x1="157.120000" y1="109.600000" x2="161.120000" y2="109.600000"  style="stroke:black; stroke-linecap:round; stroke-width:0.25;"/>
<line x1="157.120000" y1="117.920000" x2="161.120000" y2="117.920000"  style="stroke:black; stroke-linecap:round; stroke-width:0.25;"/>
<line x1="157.120000" y1="126.800000" x2="161.120000" y2="126.800000"  style="stroke:black; stroke-linecap:round; stroke-width:0.25;"/>
<line x1="157.120000" y1="135.120000" x2="161.120000" y2="135.120000"  style="stroke:black; stroke-linecap:round; stroke-width:0.25;"/>
<line x1="157.120000" y1="144.000000" x2="161.120000" y2="144.000000"  style="stroke:black; stroke-linecap:round; stroke-width:0.25;"/>
<line x1="157.120000" y1="152.000000" x2="161.120000" y2="152.000000"  style="stroke:black; stroke-linecap:round; stroke-width:0.25;"/>
<line x1="157.120000" y1="160.880000" x2="161.120000" y2="160.880000"  style="stroke:black; stroke-linecap:round; stroke-width:0.25;"/>
<line x1="157.120000" y1="169.200000" x2="161.120000" y2="169.200000"  style="stroke:black; stroke-linecap:round; stroke-width:0.25;"/>
<line x1="157.120000" y1="178.080000" x2="161.120000" y2="178.080000"  style="stroke:black; stroke-linecap:round; stroke-width:0.25;"/>
<line x1="157.120000" y1="186.400000" x2="161.120000" y2="186.400000"  style="stroke:black; stroke-linecap:round; stroke-width:0.25;"/>
<line x1="157.120000" y1="195.280000" x2="161.120000" y2="195.280000"  style="stroke:black; stroke-linecap:round; stroke-width:0.25;"/>
<line x1="157.120000" y1="203.600000" x2="161.120000" y2="203.600000"  style="stroke:black; stroke-linecap:round; stroke-width:0.25;"/>
<line x1="157.120000" y1="212.480000" x2="161.120000" y2="212.480000"  style="stroke:black; stroke-linecap:round; stroke-width:0.25;"/>
<line x1="161.120000" y1="83.520000" x2="165.120000" y2="83.520000"  style="stroke:black; stroke-linecap:round; stroke-width:0.25;"/>
<line x1="161.120000" y1="92.400000" x2="165.120000" y2="92.400000"  style="stroke:black; stroke-linecap:round; stroke-width:0.25;"/>
<line x1="161.120000" y1="100.720000" x2="165.120000" y2="100.720000"  style="stroke:black; stroke-linecap:round; stroke-width:0.25;"/>
<line x1="161.120000" y1="109.600000" x2="165.120000" y2="109.600000"  style="stroke:black; stroke-linecap:round; stroke-width:0.25;"/>
<line x1="161.120000" y1="117.920000" x2="165.120000" y2="117.920000"  style="stroke:black; stroke-linecap:round; stroke-width:0.25;"/>
<line x1="161.120000" y1="126.800000" x2="165.120000" y2="126.800000"  style="stroke:black; stroke-linecap:round; stroke-width:0.25;"/>
<line x1="161.120000" y1="135.120000" x2="165.120000" y2="135.120000"  style="stroke:black; stroke-linecap:round; stroke-width:0.25;"/>
<line x1="161.120000" y1="144.000000" x2="165.120000" y2="144.000000"  style="stroke:black; stroke-linecap:round; stroke-width:0.25;"/>
<line x1="161.120000" y1="152.000000" x2="165.120000" y2="152.000000"  style="stroke:black; stroke-linecap:round; stroke-width:0.25;"/>
<line x1="161.120000" y1="160.880000" x2="165.120000" y2="160.880000"  style="stroke:black; stroke-linecap:round; stroke-width:0.25;"/>
<line x1="161.120000" y1="169.200000" x2="165.120000" y2="169.200000"  style="stroke:black; stroke-linecap:round; stroke-width:0.25;"/>
<line x1="161.120000" y1="178.080000" x2="165.120000" y2="178.080000"  style="stroke:black; stroke-linecap:round; stroke-width:0.25;"/>
<line x1="161.120000" y1="186.400000" x2="165.120000" y2="186.400000"  style="stroke:black; stroke-linecap:round; stroke-width:0.25;"/>
<line x1="161.120000" y1="195.280000" x2="165.120000" y2="195.280000"  style="stroke:black; stroke-linecap:round; stroke-width:0.25;"/>
<line x1="161.120000" y1="203.600000" x2="165.120000" y2="203.600000"  style="stroke:black; stroke-linecap:round; stroke-width:0.25;"/>
<line x1="161.120000" y1="212.480000" x2="165.120000" y2="212.480000"  style="stroke:black; stroke-linecap:round; stroke-width:0.25;"/>
<line x1="165.120000" y1="32.000000" x2="229.120000" y2="32.000000"  style="stroke:black; stroke-linecap:round; stroke-width:0.25;"/>
<line x1="165.120000" y1="83.520000" x2="165.120000" y2="32.000000"  style="stroke:black; stroke-linecap:round; stroke-width:0.25;"/>
<line x1="165.120000" y1="83.520000" x2="165.120000" y2="83.520000"  style="stroke:black; stroke-linecap:round; stroke-width:0.25;"/>
<line x1="165.120000" y1="92.400000" x2="173.120000" y2="92.400000"  style="stroke:black; stroke-linecap:round; stroke-width:0.25;"/>
<line x1="165.120000" y1="100.720000" x2="181.120000" y2="100.720000"  style="stroke:black; stroke-linecap:round; stroke-width:0.25;"/>
<line x1="165.120000" y1="109.600000" x2="189.120000" y2="109.600000"  style="stroke:black; stroke-linecap:round; stroke-width:0.25;"/>
<line x1="165.120000" y1="117.920000" x2="197.120000" y2="117.920000"  style="stroke:black; stroke-linecap:round; stroke-width:0.25;"/>
<line x1="165.120000" y1="126.800000" x2="205.120000" y2="126.800000"  style="stroke:black; stroke-linecap:round; stroke-width:0.25;"/>
<line x1="165.120000" y1="135.120000" x2="213.120000" y2="135.120000"  style="stroke:black; stroke-linecap:round; stroke-width:0.25;"/>
<line x1="165.120000" y1="144.000000" x2="221.120000" y2="144.000000"  style="stroke:black; stroke-linecap:round; stroke-width:0.25;"/>
<line x1="165.120000" y1="152.000000" x2="229.120000" y2="152.000000"  style="stroke:black; stroke-linecap:round; stroke-width:0.25;"/>
<line x1="165.120000" y1="160.880000" x2="221.120000" y2="160.880000"  style="stroke:black; stroke-linecap:round; stroke-width:0.25;"/>
<line x1="165.120000" y1="169.200000" x2="213.120000" y2="169.200000"  style="stroke:black; stroke-linecap:round; stroke-width:0.25;"/>
<line x1="165.120000" y1="178.080000" x2="205.120000" y2="178.080000"  style="stroke:black; stroke-linecap:round; stroke-width:0.25;"/>
<line x1="165.120000" y1="186.400000" x2="197.120000" y2="186.400000"  style="stroke:black; stroke-linecap:round; stroke-width:0.25;"/>
<line x1="165.120000" y1="195.280000" x2="189.120000" y2="195.280000"  style="stroke:black; stroke-linecap:round; stroke-width:0.25;"/>
<line x1="165.120000" y1="203.600000" x2="181.120000" y2="203.600000"  style="stroke:black; stroke-linecap:round; stroke-width:0.25;"/>
<line x1="165.120000" y1="212.480000" x2="173.120000" y2="212.480000"  style="stroke:black; stroke-linecap:round; stroke-width:0.25;"/>
<line x1="173.120000" y1="40.000000" x2="229.120000" y2="40.000000"  style="stroke:black; stroke-linecap:round; stroke-width:0.25;"/>
<line x1="173.120000" y1="92.400000" x2="173.120000" y2="40.000000"  style="stroke:black; stroke-linecap:round; stroke-width:0.25;"/>
<line x1="173.120000" y1="212.480000" x2="173.120000" y2="264.000000"  style="stroke:black; stroke-linecap:round; stroke-width:0.25;"/>
<line x1="173.120000" y1="264.000000" x2="229.120000" y2="264.000000"  style="stroke:black; stroke-linecap:round; stroke-width:0.25;"/>
<line x1="181.120000" y1="64.000000" x2="229.120000" y2="64.000000"  style="stroke:black; stroke-linecap:round; stroke-width:0.25;"/>
<line x1="181.120000" y1="100.720000" x2="181.120000" y2="64.000000"  style="stroke:black; stroke-linecap:round; stroke-width:0.25;"/>
<line x1="181.120000" y1="203.600000" x2="181.120000" y2="256.000000"  style="stroke:black; stroke-linecap:round; stroke-width:0.25;"/>
<line x1="181.120000" y1="256.000000" x2="229.120000" y2="256.000000"  style="stroke:black; stroke-linecap:round; stroke-width:0.25;"/>
<line x1="189.120000" y1="72.000000" x2="229.120000" y2="72.000000"  style="stroke:black; stroke-linecap:round; stroke-width:0.25;"/>
<line x1="189.120000" y1="109.600000" x2="189.120000" y2="72.000000"  style="stroke:black; stroke-linecap:round; stroke-width:0.25;"/>
<line x1="189.120000" y1="195.280000" x2="189.120000" y2="232.000000"  style="stroke:black; stroke-linecap:round; stroke-width:0.25;"/>
<line x1="189.120000" y1="232.000000" x2="229.120000" y2="232.000000"  style="stroke:black; stroke-linecap:round; stroke-width:0.25;"/>
<line x1="197.120000" y1="96.000000" x2="229.120000" y2="96.000000"  style="stroke:black; stroke-linecap:round; stroke-width:0.25;"/>
<line x1="197.120000" y1="117.920000" x2="197.120000" y2="96.000000"  style="stroke:black; stroke-linecap:round; stroke-width:0.25;"/>
<line x1="197.120000" y1="186.400000" x2="197.120000" y2="224.000000"  style="stroke:black; stroke-linecap:round; stroke-width:0.25;"/>
<line x1="197.120000" y1="224.000000" x2="229.120000" y2="224.000000"  style="stroke:black; stroke-linecap:round; stroke-width:0.25;"/>
<line x1="205.120000" y1="104.000000" x2="229.120000" y2="104.000000"  style="stroke:black; stroke-linecap:round; stroke-width:0.25;"/>
<line x1="205.120000" y1="126.800000" x2="205.120000" y2="104.000000"  style="stroke:black; stroke-linecap:round; stroke-width:0.25;"/>
<line x1="205.120000" y1="178.080000" x2="205.120000" y2="200.000000"  style="stroke:black; stroke-linecap:round; stroke-width:0.25;"/>
<line x1="205.120000" y1="200.000000" x2="229.120000" y2="200.000000"  style="stroke:black; stroke-linecap:round; stroke-width:0.25;"/>
<line x1="213.120000" y1="128.000000" x2="229.120000" y2="128.000000"  style="stroke:black; stroke-linecap:round; stroke-width:0.25;"/>
<line x1="213.120000" y1="135.120000" x2="213.120000" y2="128.000000"  style="stroke:black; stroke-linecap:round; stroke-width:0.25;"/>
<line x1="213.120000" y1="169.200000" x2="213.120000" y2="192.000000"  style="stroke:black; stroke-linecap:round; stroke-width:0.25;"/>
<line x1="213.120000" y1="192.000000" x2="229.120000" y2="192.000000"  style="stroke:black; stroke-linecap:round; stroke-width:0.25;"/>
<line x1="221.120000" y1="136.000000" x2="229.120000" y2="136.000000"  style="stroke:black; stroke-linecap:round; stroke-width:0.25;"/>
<line x1="221.120000" y1="144.000000" x2="221.120000" y2="136.000000"  style="stroke:black; stroke-linecap:round; stroke-width:0.25;"/>
<line x1="221.120000" y1="160.880000" x2="221.120000" y2="168.000000"  style="stroke:black; stroke-linecap:round; stroke-width:0.25;"/>
<line x1="221.120000" y1="168.000000" x2="229.120000" y2="168.000000"  style="stroke:black; stroke-linecap:round; stroke-width:0.25;"/>
<line x1="229.120000" y1="32.000000" x2="233.120000" y2="32.000000"  style="stroke:black; stroke-linecap:round; stroke-width:0.25;"/>
<line x1="229.120000" y1="40.000000" x2="233.120000" y2="40.000000"  style="stroke:black; stroke-linecap:round; stroke-width:0.25;"/>
<line x1="229.120000" y1="64.000000" x2="233.120000" y2="64.000000"  style="stroke:black; stroke-linecap:round; stroke-width:0.25;"/>
<line x1="229.120000" y1="72.000000" x2="233.120000" y2="72.000000"  style="stroke:black; stroke-linecap:round; stroke-width:0.25;"/>
<line x1="229.120000" y1="96.000000" x2="233.120000" y2="96.000000"  style="stroke:black; stroke-linecap:round; stroke-width:0.25;"/>
<line x1="229.120000" y1="104.000000" x2="233.120000" y2="104.000000"  style="stroke:black; stroke-linecap:round; stroke-width:0.25;"/>
<line x1="229.120000" y1="128.000000" x2="233.120000" y2="128.000000"  style="stroke:black; stroke-linecap:round; stroke-width:0.25;"/>
<line x1="229.120000" y1="136.000000" x2="233.120000" y2="136.000000"  style="stroke:black; stroke-linecap:round; stroke-width:0.25;"/>
<line x1="229.120000" y1="152.000000" x2="229.120000" y2="160.000000"  style="stroke:black; stroke-linecap:round; stroke-width:0.25;"/>
<line x1="229.120000" y1="160.000000" x2="229.120000" y2="160.000000"  style="stroke:black; stroke-linecap:round; stroke-width:0.25;"/>
<line x1="229.120000" y1="160.000000" x2="233.120000" y2="160.000000"  style="stroke:black; stroke-linecap:round; stroke-width:0.25;"/>
<line x1="229.120000" y1="168.000000" x2="233.120000" y2="168.000000"  style="stroke:black; stroke-linecap:round; stroke-width:0.25;"/>
<line x1="229.120000" y1="192.000000" x2="233.120000" y2="192.000000"  style="stroke:black; stroke-linecap:round; stroke-width:0.25;"/>
<line x1="229.120000" y1="200.000000" x2="233.120000" y2="200.000000"  style="stroke:black; stroke-linecap:round; stroke-width:0.25;"/>
<line x1="229.120000" y1="224.000000" x2="233.120000" y2="224.000000"  style="stroke:black; stroke-linecap:round; stroke-width:0.25;"/>
<line x1="229.120000" y1="232.000000" x2="233.120000" y2="232.000000"  style="stroke:black; stroke-linecap:round; stroke-width:0.25;"/>
<line x1="229.120000" y1="256.000000" x2="233.120000" y2="256.000000"  style="stroke:black; stroke-linecap:round; stroke-width:0.25;"/>
<line x1="229.120000" y1="264.000000" x2="233.120000" y2="264.000000"  style="stroke:black; stroke-linecap:round; stroke-width:0.25;"/>
<line x1="257.120000" y1="36.000000" x2="261.120000" y2="36.000000"  style="stroke:black; stroke-linecap:round; stroke-width:0.25;"/>
<line x1="257.120000" y1="68.000000" x2="261.120000" y2="68.000000"  style="stroke:black; stroke-linecap:round; stroke-width:0.25;"/>
<line x1="257.120000" y1="100.000000" x2="261.120000" y2="100.000000"  style="stroke:black; stroke-linecap:round; stroke-width:0.25;"/>
<line x1="257.120000" y1="132.000000" x2="261.120000" y2="132.000000"  style="stroke:black; stroke-linecap:round; stroke-width:0.25;"/>
<line x1="257.120000" y1="164.000000" x2="261.120000" y2="164.000000"  style="stroke:black; stroke-linecap:round; stroke-width:0.25;"/>
<line x1="257.120000" y1="196.000000" x2="261.120000" y2="196.000000"  style="stroke:black; stroke-linecap:round; stroke-width:0.25;"/>
<line x1="257.120000" y1="228.000000" x2="261.120000" y2="228.000000"  style="stroke:black; stroke-linecap:round; stroke-width:0.25;"/>
<line x1="257.120000" y1="260.000000" x2="261.120000" y2="260.000000"  style="stroke:black; stroke-linecap:round; stroke-width:0.25;"/>
<line x1="261.120000" y1="36.000000" x2="293.120000" y2="36.000000"  style="stroke:black; stroke-linecap:round; stroke-width:0.25;"/>
<line x1="261.120000" y1="68.000000" x2="285.120000" y2="68.000000"  style="stroke:black; stroke-linecap:round; stroke-width:0.25;"/>
<line x1="261.120000" y1="100.000000" x2="277.120000" y2="100.000000"  style="stroke:black; stroke-linecap:round; stroke-width:0.25;"/>
<line x1="261.120000" y1="132.000000" x2="269.120000" y2="132.000000"  style="stroke:black; stroke-linecap:round; stroke-width:0.25;"/>
<line x1="261.120000" y1="152.000000" x2="293.120000" y2="152.000000"  style="stroke:black; stroke-linecap:round; stroke-width:0.25;"/>
<line x1="261.120000" y1="164.000000" x2="261.120000" y2="152.000000"  style="stroke:black; stroke-linecap:round; stroke-width:0.25;"/>
<line x1="261.120000" y1="164.000000" x2="261.120000" y2="164.000000"  style="stroke:black; stroke-linecap:round; stroke-width:0.25;"/>
<line x1="261.120000" y1="196.000000" x2="269.120000" y2="196.000000"  style="stroke:black; stroke-linecap:round; stroke-width:0.25;"/>
<line x1="261.120000" y1="228.000000" x2="277.120000" y2="228.000000"  style="stroke:black; stroke-linecap:round; stroke-width:0.25;"/>
<line x1="261.120000" y1="260.000000" x2="285.120000" y2="260.000000"  style="stroke:black; stroke-linecap:round; stroke-width:0.25;"/>
<line x1="269.120000" y1="132.000000" x2="269.120000" y2="144.000000"  style="stroke:black; stroke-linecap:round; stroke-width:0.25;"/>
<line x1="269.120000" y1="144.000000" x2="293.120000" y2="144.000000"  style="stroke:black; stroke-linecap:round; stroke-width:0.25;"/>
<line x1="269.120000" y1="160.000000" x2="293.120000" y2="160.000000"  style="stroke:black; stroke-linecap:round; stroke-width:0.25;"/>
<line x1="269.120000" y1="196.000000" x2="269.120000" y2="160.000000"  style="stroke:black; stroke-linecap:round; stroke-width:0.25;"/>
<line x1="277.120000" y1="100.000000" x2="277.120000" y2="136.000000"  style="stroke:black; stroke-linecap:round; stroke-width:0.25;"/>
<line x1="277.120000" y1="136.000000" x2="293.120000" y2="136.000000"  style="stroke:black; stroke-linecap:round; stroke-width:0.25;"/>
<line x1="277.120000" y1="168.000000" x2="293.120000" y2="168.000000"  style="stroke:black; stroke-linecap:round; stroke-width:0.25;"/>
<line x1="277.120000" y1="228.000000" x2="277.120000" y2="168.000000"  style="stroke:black; stroke-linecap:round; stroke-width:0.25;"/>
<line x1="285.120000" y1="68.000000" x2="285.120000" y2="128.000000"  style="stroke:black; stroke-linecap:round; stroke-width:0.25;"/>
<line x1="285.120000" y1="128.000000" x2="293.120000" y2="128.000000"  style="stroke:black; stroke-linecap:round; stroke-width:0.25;"/>
<line x1="285.120000" y1="176.000000" x2="293.120000" y2="176.000000"  style="stroke:black; stroke-linecap:round; stroke-width:0.25;"/>
<line x1="285.120000" y1="260.000000" x2="285.120000" y2="176.000000"  style="stroke:black; stroke-linecap:round; stroke-width:0.25;"/>
<line x1="293.120000" y1="36.000000" x2="293.120000" y2="120.000000"  style="stroke:black; stroke-linecap:round; stroke-width:0.25;"/>
<line x1="293.120000" y1="120.000000" x2="293.120000" y2="120.000000"  style="stroke:black; stroke-linecap:round; stroke-width:0.25;"/>
<line x1="293.120000" y1="120.000000" x2="297.120000" y2="120.000000"  style="stroke:black; stroke-linecap:round; stroke-width:0.25;"/>
<line x1="293.120000" y1="128.000000" x2="297.120000" y2="128.000000"  style="stroke:black; stroke-linecap:round; stroke-width:0.25;"/>
<line x1="293.120000" y1="136.000000" x2="297.120000" y2="136.000000"  style="stroke:black; stroke-linecap:round; stroke-width:0.25;"/>
<line x1="293.120000" y1="144.000000" x2="297.120000" y2="144.000000"  style="stroke:black; stroke-linecap:round; stroke-width:0.25;"/>
<line x1="293.120000" y1="152.000000" x2="297.120000" y2="152.000000"  style="stroke:black; stroke-linecap:round; stroke-width:0.25;"/>
<line x1="293.120000" y1="160.000000" x2="297.120000" y2="160.000000"  style="stroke:black; stroke-linecap:round; stroke-width:0.25;"/>
<line x1="293.120000" y1="168.000000" x2="297.120000" y2="168.000000"  style="stroke:black; stroke-linecap:round; stroke-width:0.25;"/>
<line x1="293.120000" y1="176.000000" x2="297.120000" y2="176.000000"  style="stroke:black; stroke-linecap:round; stroke-width:0.25;"/>
<line x1="297.120000" y1="120.000000" x2="301.120000" y2="120.000000"  style="stroke:black; stroke-linecap:round; stroke-width:0.25;"/>
<line x1="297.120000" y1="128.000000" x2="301.120000" y2="128.000000"  style="stroke:black; stroke-linecap:round; stroke-width:0.25;"/>
<line x1="297.120000" y1="136.000000" x2="301.120000" y2="136.000000"  style="stroke:black; stroke-linecap:round; stroke-width:0.25;"/>
<line x1="297.120000" y1="144.000000" x2="301.120000" y2="144.000000"  style="stroke:black; stroke-linecap:round; stroke-width:0.25;"/>
<line x1="297.120000" y1="152.000000" x2="301.120000" y2="152.000000"  style="stroke:black; stroke-linecap:round; stroke-width:0.25;"/>
<line x1="297.120000" y1="160.000000" x2="301.120000" y2="160.000000"  style="stroke:black; stroke-linecap:round; stroke-width:0.25;"/>
<line x1="297.120000" y1="168.000000" x2="301.120000" y2="168.000000"  style="stroke:black; stroke-linecap:round; stroke-width:0.25;"/>
<line x1="297.120000" y1="176.000000" x2="301.120000" y2="176.000000"  style="stroke:black; stroke-linecap:round; stroke-width:0.25;"/>
<line x1="301.120000" y1="120.000000" x2="311.120000" y2="120.000000"  style="stroke:black; stroke-linecap:round; stroke-width:0.25;"/>
<line x1="301.120000" y1="128.000000" x2="311.120000" y2="128.000000"  style="stroke:black; stroke-linecap:round; stroke-width:0.25;"/>
<line x1="301.120000" y1="136.000000" x2="311.120000" y2="136.000000"  style="stroke:black; stroke-linecap:round; stroke-width:0.25;"/>
<line x1="301.120000" y1="144.000000" x2="311.120000" y2="144.000000"  style="stroke:black; stroke-linecap:round; stroke-width:0.25;"/>
<line x1="301.120000" y1="152.000000" x2="311.120000" y2="152.000000"  style="stroke:black; stroke-linecap:round; stroke-width:0.25;"/>
<line x1="301.120000" y1="160.000000" x2="311.120000" y2="160.000000"  style="stroke:black; stroke-linecap:round; stroke-width:0.25;"/>
<line x1="301.120000" y1="168.000000" x2="311.120000" y2="168.000000"  style="stroke:black; stroke-linecap:round; stroke-width:0.25;"/>
<line x1="301.120000" y1="176.000000" x2="311.120000" y2="176.000000"  style="stroke:black; stroke-linecap:round; stroke-width:0.25;"/>
</svg>
