<?xml version="1.0"?>
<svg xmlns="http://www.w3.org/2000/svg" xmlns:xlink="http://www.w3.org/1999/xlink" viewBox="0 0 320.500000 156.000000" width="160.250000mm" height="78.000000mm" version="1.1">
<a xlink:href="volFilter-0x29fe0d20.svg">
<rect x="1.000000" y="1.000000" width="319.500000" height="155.000000" rx="0" ry="0" style="stroke:none;fill:#cccccc;"/>
<rect x="0.000000" y="0.000000" width="319.500000" height="155.000000" rx="0" ry="0" style="stroke:none;fill:#ffffff;"/>
</a>
<text x="10.000000" y="7.000000" font-family="Arial" font-size="7"></text>
<rect x="137.400000" y="35.000000" width="24.000000" height="24.000000" rx="0" ry="0" style="stroke:none;fill:#cccccc;"/>
<rect x="136.400000" y="34.000000" width="24.000000" height="24.000000" rx="0" ry="0" style="stroke:none;fill:#f44800;"/>
<text x="148.400000" y="48.000000" font-family="Arial" font-size="7" text-anchor="middle" fill="#FFFFFF">1</text>
<circle cx="138.400000" cy="36.000000" r="1"/>
<line x1="127.400000" y1="25.000000" x2="127.400000" y2="67.000000"  style="stroke: black; stroke-linecap:round; stroke-width:0.25; stroke-dasharray:3,3;"/>
<line x1="127.400000" y1="67.000000" x2="169.400000" y2="67.000000"  style="stroke: black; stroke-linecap:round; stroke-width:0.25; stroke-dasharray:3,3;"/>
<line x1="169.400000" y1="67.000000" x2="169.400000" y2="25.000000"  style="stroke: black; stroke-linecap:round; stroke-width:0.25; stroke-dasharray:3,3;"/>
<line x1="127.400000" y1="25.000000" x2="132.400000" y2="25.000000"  style="stroke: black; stroke-linecap:round; stroke-width:0.25; stroke-dasharray:3,3;"/>
<line x1="145.300000" y1="25.000000" x2="169.400000" y2="25.000000"  style="stroke: black; stroke-linecap:round; stroke-width:0.25; stroke-dasharray:3,3;"/>
<text x="132.400000" y="27.000000" font-family="Arial" font-size="7">a0</text>
<a xlink:href="resonbp-0x2a19fe10.svg">
<rect x="72.000000" y="77.000000" width="154.800000" height="24.000000" rx="0" ry="0" style="stroke:none;fill:#cccccc;"/>
<rect x="71.000000" y="76.000000" width="154.800000" height="24.000000" rx="0" ry="0" style="stroke:none;fill:#003366;"/>
</a>
<a xlink:href="resonbp-0x2a19fe10.svg">
<text x="148.400000" y="90.000000" font-family="Arial" font-size="7" text-anchor="middle" fill="#FFFFFF">resonbp(x2580... *) : +) : *)(x2581)</text>
</a>
<circle cx="73.000000" cy="78.000000" r="1"/>
<line x1="68.000000" y1="87.000000" x2="71.000000" y2="88.000000"  transform="rotate(0.000000,71.000000,88.000000)" style="stroke: black; stroke-width:0.25;"/>
<line x1="68.000000" y1="89.000000" x2="71.000000" y2="88.000000"  transform="rotate(0.000000,71.000000,88.000000)" style="stroke: black; stroke-width:0.25;"/>
<a xlink:href="resonbpStable-0x2a164850.svg">
<rect x="72.000000" y="109.000000" width="154.800000" height="24.000000" rx="0" ry="0" style="stroke:none;fill:#cccccc;"/>
<rect x="71.000000" y="108.000000" width="154.800000" height="24.000000" rx="0" ry="0" style="stroke:none;fill:#003366;"/>
</a>
<a xlink:href="resonbpStable-0x2a164850.svg">
<text x="148.400000" y="122.000000" font-family="Arial" font-size="7" text-anchor="middle" fill="#FFFFFF">resonbpStable... *) : +) : *)(x2581)</text>
</a>
<circle cx="73.000000" cy="110.000000" r="1"/>
<line x1="68.000000" y1="119.000000" x2="71.000000" y2="120.000000"  transform="rotate(0.000000,71.000000,120.000000)" style="stroke: black; stroke-width:0.25;"/>
<line x1="68.000000" y1="121.000000" x2="71.000000" y2="120.000000"  transform="rotate(0.000000,71.000000,120.000000)" style="stroke: black; stroke-width:0.25;"/>
<rect x="250.800000" y="67.000000" width="38.700000" height="24.000000" rx="0" ry="0" style="stroke:none;fill:#cccccc;"/>
<rect x="249.800000" y="66.000000" width="38.700000" height="24.000000" rx="0" ry="0" style="stroke:none;fill:#4B71A1;"/>
<text x="269.150000" y="80.000000" font-family="Arial" font-size="7" text-anchor="middle" fill="#FFFFFF">select2</text>
<circle cx="251.800000" cy="68.000000" r="1"/>
<line x1="246.800000" y1="69.000000" x2="249.800000" y2="70.000000"  transform="rotate(0.000000,249.800000,70.000000)" style="stroke: black; stroke-width:0.25;"/>
<line x1="246.800000" y1="71.000000" x2="249.800000" y2="70.000000"  transform="rotate(0.000000,249.800000,70.000000)" style="stroke: black; stroke-width:0.25;"/>
<line x1="246.800000" y1="77.000000" x2="249.800000" y2="78.000000"  transform="rotate(0.000000,249.800000,78.000000)" style="stroke: black; stroke-width:0.25;"/>
<line x1="246.800000" y1="79.000000" x2="249.800000" y2="78.000000"  transform="rotate(0.000000,249.800000,78.000000)" style="stroke: black; stroke-width:0.25;"/>
<line x1="246.800000" y1="85.000000" x2="249.800000" y2="86.000000"  transform="rotate(0.000000,249.800000,86.000000)" style="stroke: black; stroke-width:0.25;"/>
<line x1="246.800000" y1="87.000000" x2="249.800000" y2="86.000000"  transform="rotate(0.000000,249.800000,86.000000)" style="stroke: black; stroke-width:0.25;"/>
<line x1="15.000000" y1="15.000000" x2="15.000000" y2="141.000000"  style="stroke: black; stroke-linecap:round; stroke-width:0.25; stroke-dasharray:3,3;"/>
<line x1="15.000000" y1="141.000000" x2="305.500000" y2="141.000000"  style="stroke: black; stroke-linecap:round; stroke-width:0.25; stroke-dasharray:3,3;"/>
<line x1="305.500000" y1="141.000000" x2="305.500000" y2="15.000000"  style="stroke: black; stroke-linecap:round; stroke-width:0.25; stroke-dasharray:3,3;"/>
<line x1="15.000000" y1="15.000000" x2="20.000000" y2="15.000000"  style="stroke: black; stroke-linecap:round; stroke-width:0.25; stroke-dasharray:3,3;"/>
<line x1="142.550000" y1="15.000000" x2="305.500000" y2="15.000000"  style="stroke: black; stroke-linecap:round; stroke-width:0.25; stroke-dasharray:3,3;"/>
<text x="20.000000" y="17.000000" font-family="Arial" font-size="7">chooseResonBP... *) : +) : *)(x2581)</text>
<line x1="307.500000" y1="77.000000" x2="310.500000" y2="78.000000"  transform="rotate(0.000000,310.500000,78.000000)" style="stroke: black; stroke-width:0.25;"/>
<line x1="307.500000" y1="79.000000" x2="310.500000" y2="78.000000"  transform="rotate(0.000000,310.500000,78.000000)" style="stroke: black; stroke-width:0.25;"/>
<line x1="10.000000" y1="78.000000" x2="20.000000" y2="78.000000"  style="stroke:black; stroke-linecap:round; stroke-width:0.25;"/>
<line x1="20.000000" y1="78.000000" x2="24.000000" y2="78.000000"  style="stroke:black; stroke-linecap:round; stroke-width:0.25;"/>
<line x1="24.000000" y1="78.000000" x2="28.000000" y2="78.000000"  style="stroke:black; stroke-linecap:round; stroke-width:0.25;"/>
<line x1="28.000000" y1="78.000000" x2="28.000000" y2="78.000000"  style="stroke:black; stroke-linecap:round; stroke-width:0.25;"/>
<line x1="28.000000" y1="78.000000" x2="32.000000" y2="78.000000"  style="stroke:black; stroke-linecap:round; stroke-width:0.25;"/>
<line x1="32.000000" y1="78.000000" x2="36.000000" y2="78.000000"  style="stroke:black; stroke-linecap:round; stroke-width:0.25;"/>
<line x1="36.000000" y1="78.000000" x2="67.000000" y2="88.000000"  style="stroke:black; stroke-linecap:round; stroke-width:0.25;"/>
<line x1="36.000000" y1="78.000000" x2="67.000000" y2="120.000000"  style="stroke:black; stroke-linecap:round; stroke-width:0.25;"/>
<line x1="67.000000" y1="88.000000" x2="71.000000" y2="88.000000"  style="stroke:black; stroke-linecap:round; stroke-width:0.25;"/>
<line x1="67.000000" y1="120.000000" x2="71.000000" y2="120.000000"  style="stroke:black; stroke-linecap:round; stroke-width:0.25;"/>
<line x1="160.400000" y1="46.000000" x2="164.400000" y2="46.000000"  style="stroke:black; stroke-linecap:round; stroke-width:0.25;"/>
<line x1="164.400000" y1="46.000000" x2="174.400000" y2="46.000000"  style="stroke:black; stroke-linecap:round; stroke-width:0.25;"/>
<line x1="174.400000" y1="46.000000" x2="229.800000" y2="46.000000"  style="stroke:black; stroke-linecap:round; stroke-width:0.25;"/>
<line x1="225.800000" y1="88.000000" x2="229.800000" y2="88.000000"  style="stroke:black; stroke-linecap:round; stroke-width:0.25;"/>
<line x1="225.800000" y1="120.000000" x2="229.800000" y2="120.000000"  style="stroke:black; stroke-linecap:round; stroke-width:0.25;"/>
<line x1="229.800000" y1="46.000000" x2="245.800000" y2="46.000000"  style="stroke:black; stroke-linecap:round; stroke-width:0.25;"/>
<line x1="229.800000" y1="78.000000" x2="245.800000" y2="78.000000"  style="stroke:black; stroke-linecap:round; stroke-width:0.25;"/>
<line x1="229.800000" y1="88.000000" x2="229.800000" y2="78.000000"  style="stroke:black; stroke-linecap:round; stroke-width:0.25;"/>
<line x1="229.800000" y1="88.000000" x2="229.800000" y2="88.000000"  style="stroke:black; stroke-linecap:round; stroke-width:0.25;"/>
<line x1="229.800000" y1="120.000000" x2="237.800000" y2="120.000000"  style="stroke:black; stroke-linecap:round; stroke-width:0.25;"/>
<line x1="237.800000" y1="86.000000" x2="245.800000" y2="86.000000"  style="stroke:black; stroke-linecap:round; stroke-width:0.25;"/>
<line x1="237.800000" y1="120.000000" x2="237.800000" y2="86.000000"  style="stroke:black; stroke-linecap:round; stroke-width:0.25;"/>
<line x1="245.800000" y1="46.000000" x2="245.800000" y2="70.000000"  style="stroke:black; stroke-linecap:round; stroke-width:0.25;"/>
<line x1="245.800000" y1="70.000000" x2="245.800000" y2="70.000000"  style="stroke:black; stroke-linecap:round; stroke-width:0.25;"/>
<line x1="245.800000" y1="70.000000" x2="249.800000" y2="70.000000"  style="stroke:black; stroke-linecap:round; stroke-width:0.25;"/>
<line x1="245.800000" y1="78.000000" x2="249.800000" y2="78.000000"  style="stroke:black; stroke-linecap:round; stroke-width:0.25;"/>
<line x1="245.800000" y1="86.000000" x2="249.800000" y2="86.000000"  style="stroke:black; stroke-linecap:round; stroke-width:0.25;"/>
<line x1="288.500000" y1="78.000000" x2="292.500000" y2="78.000000"  style="stroke:black; stroke-linecap:round; stroke-width:0.25;"/>
<line x1="292.500000" y1="78.000000" x2="292.500000" y2="78.000000"  style="stroke:black; stroke-linecap:round; stroke-width:0.25;"/>
<line x1="292.500000" y1="78.000000" x2="296.500000" y2="78.000000"  style="stroke:black; stroke-linecap:round; stroke-width:0.25;"/>
<line x1="296.500000" y1="78.000000" x2="300.500000" y2="78.000000"  style="stroke:black; stroke-linecap:round; stroke-width:0.25;"/>
<line x1="300.500000" y1="78.000000" x2="310.500000" y2="78.000000"  style="stroke:black; stroke-linecap:round; stroke-width:0.25;"/>
</svg>
