<?xml version="1.0"?>
<svg xmlns="http://www.w3.org/2000/svg" xmlns:xlink="http://www.w3.org/1999/xlink" viewBox="0 0 495.300000 520.000000" width="247.650000mm" height="260.000000mm" version="1.1">
<a xlink:href="midToBottomVal-0x2524e9a0.svg">
<rect x="1.000000" y="1.000000" width="494.300000" height="519.000000" rx="0" ry="0" style="stroke:none;fill:#cccccc;"/>
<rect x="0.000000" y="0.000000" width="494.300000" height="519.000000" rx="0" ry="0" style="stroke:none;fill:#ffffff;"/>
</a>
<text x="10.000000" y="7.000000" font-family="Arial" font-size="7"></text>
<rect x="95.000000" y="95.000000" width="219.300000" height="24.000000" rx="0" ry="0" style="stroke:none;fill:#cccccc;"/>
<rect x="94.000000" y="94.000000" width="219.300000" height="24.000000" rx="0" ry="0" style="stroke:none;fill:#477881;"/>
<text x="203.650000" y="108.000000" font-family="Arial" font-size="7" text-anchor="middle" fill="#FFFFFF">vslider(frequency-band, 8.0f, 1.0f, 16.0f, 0.001f)</text>
<circle cx="96.000000" cy="96.000000" r="1"/>
<line x1="85.000000" y1="85.000000" x2="85.000000" y2="127.000000"  style="stroke: black; stroke-linecap:round; stroke-width:0.25; stroke-dasharray:3,3;"/>
<line x1="85.000000" y1="127.000000" x2="322.300000" y2="127.000000"  style="stroke: black; stroke-linecap:round; stroke-width:0.25; stroke-dasharray:3,3;"/>
<line x1="322.300000" y1="127.000000" x2="322.300000" y2="85.000000"  style="stroke: black; stroke-linecap:round; stroke-width:0.25; stroke-dasharray:3,3;"/>
<line x1="85.000000" y1="85.000000" x2="90.000000" y2="85.000000"  style="stroke: black; stroke-linecap:round; stroke-width:0.25; stroke-dasharray:3,3;"/>
<line x1="148.050000" y1="85.000000" x2="322.300000" y2="85.000000"  style="stroke: black; stroke-linecap:round; stroke-width:0.25; stroke-dasharray:3,3;"/>
<text x="90.000000" y="87.000000" font-family="Arial" font-size="7">vgroup(mid band)</text>
<line x1="75.000000" y1="75.000000" x2="75.000000" y2="137.000000"  style="stroke: black; stroke-linecap:round; stroke-width:0.25; stroke-dasharray:3,3;"/>
<line x1="75.000000" y1="137.000000" x2="332.300000" y2="137.000000"  style="stroke: black; stroke-linecap:round; stroke-width:0.25; stroke-dasharray:3,3;"/>
<line x1="332.300000" y1="137.000000" x2="332.300000" y2="75.000000"  style="stroke: black; stroke-linecap:round; stroke-width:0.25; stroke-dasharray:3,3;"/>
<line x1="75.000000" y1="75.000000" x2="80.000000" y2="75.000000"  style="stroke: black; stroke-linecap:round; stroke-width:0.25; stroke-dasharray:3,3;"/>
<line x1="134.825000" y1="75.000000" x2="332.300000" y2="75.000000"  style="stroke: black; stroke-linecap:round; stroke-width:0.25; stroke-dasharray:3,3;"/>
<text x="80.000000" y="77.000000" font-family="Arial" font-size="7">hgroup(filters)</text>
<line x1="65.000000" y1="65.000000" x2="65.000000" y2="147.000000"  style="stroke: black; stroke-linecap:round; stroke-width:0.25; stroke-dasharray:3,3;"/>
<line x1="65.000000" y1="147.000000" x2="342.300000" y2="147.000000"  style="stroke: black; stroke-linecap:round; stroke-width:0.25; stroke-dasharray:3,3;"/>
<line x1="342.300000" y1="147.000000" x2="342.300000" y2="65.000000"  style="stroke: black; stroke-linecap:round; stroke-width:0.25; stroke-dasharray:3,3;"/>
<line x1="65.000000" y1="65.000000" x2="70.000000" y2="65.000000"  style="stroke: black; stroke-linecap:round; stroke-width:0.25; stroke-dasharray:3,3;"/>
<line x1="124.825000" y1="65.000000" x2="342.300000" y2="65.000000"  style="stroke: black; stroke-linecap:round; stroke-width:0.25; stroke-dasharray:3,3;"/>
<text x="70.000000" y="67.000000" font-family="Arial" font-size="7">hgroup(vocoder)</text>
<line x1="55.000000" y1="55.000000" x2="55.000000" y2="157.000000"  style="stroke: black; stroke-linecap:round; stroke-width:0.25; stroke-dasharray:3,3;"/>
<line x1="55.000000" y1="157.000000" x2="352.300000" y2="157.000000"  style="stroke: black; stroke-linecap:round; stroke-width:0.25; stroke-dasharray:3,3;"/>
<line x1="352.300000" y1="157.000000" x2="352.300000" y2="55.000000"  style="stroke: black; stroke-linecap:round; stroke-width:0.25; stroke-dasharray:3,3;"/>
<line x1="55.000000" y1="55.000000" x2="60.000000" y2="55.000000"  style="stroke: black; stroke-linecap:round; stroke-width:0.25; stroke-dasharray:3,3;"/>
<line x1="111.600000" y1="55.000000" x2="352.300000" y2="55.000000"  style="stroke: black; stroke-linecap:round; stroke-width:0.25; stroke-dasharray:3,3;"/>
<text x="60.000000" y="57.000000" font-family="Arial" font-size="7">hgroup(synths)</text>
<line x1="45.000000" y1="45.000000" x2="45.000000" y2="167.000000"  style="stroke: black; stroke-linecap:round; stroke-width:0.25; stroke-dasharray:3,3;"/>
<line x1="45.000000" y1="167.000000" x2="362.300000" y2="167.000000"  style="stroke: black; stroke-linecap:round; stroke-width:0.25; stroke-dasharray:3,3;"/>
<line x1="362.300000" y1="167.000000" x2="362.300000" y2="45.000000"  style="stroke: black; stroke-linecap:round; stroke-width:0.25; stroke-dasharray:3,3;"/>
<line x1="45.000000" y1="45.000000" x2="50.000000" y2="45.000000"  style="stroke: black; stroke-linecap:round; stroke-width:0.25; stroke-dasharray:3,3;"/>
<line x1="82.250000" y1="45.000000" x2="362.300000" y2="45.000000"  style="stroke: black; stroke-linecap:round; stroke-width:0.25; stroke-dasharray:3,3;"/>
<text x="50.000000" y="47.000000" font-family="Arial" font-size="7">tgroup()</text>
<line x1="35.000000" y1="35.000000" x2="35.000000" y2="177.000000"  style="stroke: black; stroke-linecap:round; stroke-width:0.25; stroke-dasharray:3,3;"/>
<line x1="35.000000" y1="177.000000" x2="372.300000" y2="177.000000"  style="stroke: black; stroke-linecap:round; stroke-width:0.25; stroke-dasharray:3,3;"/>
<line x1="372.300000" y1="177.000000" x2="372.300000" y2="35.000000"  style="stroke: black; stroke-linecap:round; stroke-width:0.25; stroke-dasharray:3,3;"/>
<line x1="35.000000" y1="35.000000" x2="40.000000" y2="35.000000"  style="stroke: black; stroke-linecap:round; stroke-width:0.25; stroke-dasharray:3,3;"/>
<line x1="110.950000" y1="35.000000" x2="372.300000" y2="35.000000"  style="stroke: black; stroke-linecap:round; stroke-width:0.25; stroke-dasharray:3,3;"/>
<text x="40.000000" y="37.000000" font-family="Arial" font-size="7">vgroup(VoiceOfFaust)</text>
<line x1="25.000000" y1="25.000000" x2="25.000000" y2="187.000000"  style="stroke: black; stroke-linecap:round; stroke-width:0.25; stroke-dasharray:3,3;"/>
<line x1="25.000000" y1="187.000000" x2="382.300000" y2="187.000000"  style="stroke: black; stroke-linecap:round; stroke-width:0.25; stroke-dasharray:3,3;"/>
<line x1="382.300000" y1="187.000000" x2="382.300000" y2="25.000000"  style="stroke: black; stroke-linecap:round; stroke-width:0.25; stroke-dasharray:3,3;"/>
<line x1="25.000000" y1="25.000000" x2="30.000000" y2="25.000000"  style="stroke: black; stroke-linecap:round; stroke-width:0.25; stroke-dasharray:3,3;"/>
<line x1="71.925000" y1="25.000000" x2="382.300000" y2="25.000000"  style="stroke: black; stroke-linecap:round; stroke-width:0.25; stroke-dasharray:3,3;"/>
<text x="30.000000" y="27.000000" font-family="Arial" font-size="7">vocoderBand</text>
<rect x="172.650000" y="197.000000" width="24.000000" height="24.000000" rx="0" ry="0" style="stroke:none;fill:#cccccc;"/>
<rect x="171.650000" y="196.000000" width="24.000000" height="24.000000" rx="0" ry="0" style="stroke:none;fill:#f44800;"/>
<text x="183.650000" y="210.000000" font-family="Arial" font-size="7" text-anchor="middle" fill="#FFFFFF">9</text>
<circle cx="173.650000" cy="198.000000" r="1"/>
<rect x="172.650000" y="239.000000" width="24.000000" height="24.000000" rx="0" ry="0" style="stroke:none;fill:#cccccc;"/>
<rect x="171.650000" y="238.000000" width="24.000000" height="24.000000" rx="0" ry="0" style="stroke:none;fill:#f44800;"/>
<text x="183.650000" y="252.000000" font-family="Arial" font-size="7" text-anchor="middle" fill="#FFFFFF">1</text>
<circle cx="173.650000" cy="240.000000" r="1"/>
<line x1="162.650000" y1="229.000000" x2="162.650000" y2="271.000000"  style="stroke: black; stroke-linecap:round; stroke-width:0.25; stroke-dasharray:3,3;"/>
<line x1="162.650000" y1="271.000000" x2="204.650000" y2="271.000000"  style="stroke: black; stroke-linecap:round; stroke-width:0.25; stroke-dasharray:3,3;"/>
<line x1="204.650000" y1="271.000000" x2="204.650000" y2="229.000000"  style="stroke: black; stroke-linecap:round; stroke-width:0.25; stroke-dasharray:3,3;"/>
<line x1="162.650000" y1="229.000000" x2="167.650000" y2="229.000000"  style="stroke: black; stroke-linecap:round; stroke-width:0.25; stroke-dasharray:3,3;"/>
<line x1="180.550000" y1="229.000000" x2="204.650000" y2="229.000000"  style="stroke: black; stroke-linecap:round; stroke-width:0.25; stroke-dasharray:3,3;"/>
<text x="167.650000" y="231.000000" font-family="Arial" font-size="7">a0</text>
<rect x="222.650000" y="223.000000" width="24.000000" height="24.000000" rx="0" ry="0" style="stroke:none;fill:#cccccc;"/>
<rect x="221.650000" y="222.000000" width="24.000000" height="24.000000" rx="0" ry="0" style="stroke:none;fill:#4B71A1;"/>
<text x="233.650000" y="236.000000" font-family="Arial" font-size="7" text-anchor="middle" fill="#FFFFFF">+</text>
<circle cx="223.650000" cy="224.000000" r="1"/>
<line x1="218.650000" y1="229.000000" x2="221.650000" y2="230.000000"  transform="rotate(0.000000,221.650000,230.000000)" style="stroke: black; stroke-width:0.25;"/>
<line x1="218.650000" y1="231.000000" x2="221.650000" y2="230.000000"  transform="rotate(0.000000,221.650000,230.000000)" style="stroke: black; stroke-width:0.25;"/>
<line x1="218.650000" y1="237.000000" x2="221.650000" y2="238.000000"  transform="rotate(0.000000,221.650000,238.000000)" style="stroke: black; stroke-width:0.25;"/>
<line x1="218.650000" y1="239.000000" x2="221.650000" y2="238.000000"  transform="rotate(0.000000,221.650000,238.000000)" style="stroke: black; stroke-width:0.25;"/>
<rect x="400.300000" y="137.000000" width="24.000000" height="24.000000" rx="0" ry="0" style="stroke:none;fill:#cccccc;"/>
<rect x="399.300000" y="136.000000" width="24.000000" height="24.000000" rx="0" ry="0" style="stroke:none;fill:#4B71A1;"/>
<text x="411.300000" y="150.000000" font-family="Arial" font-size="7" text-anchor="middle" fill="#FFFFFF">-</text>
<circle cx="401.300000" cy="138.000000" r="1"/>
<line x1="396.300000" y1="143.000000" x2="399.300000" y2="144.000000"  transform="rotate(0.000000,399.300000,144.000000)" style="stroke: black; stroke-width:0.25;"/>
<line x1="396.300000" y1="145.000000" x2="399.300000" y2="144.000000"  transform="rotate(0.000000,399.300000,144.000000)" style="stroke: black; stroke-width:0.25;"/>
<line x1="396.300000" y1="151.000000" x2="399.300000" y2="152.000000"  transform="rotate(0.000000,399.300000,152.000000)" style="stroke: black; stroke-width:0.25;"/>
<line x1="396.300000" y1="153.000000" x2="399.300000" y2="152.000000"  transform="rotate(0.000000,399.300000,152.000000)" style="stroke: black; stroke-width:0.25;"/>
<rect x="95.000000" y="351.000000" width="219.300000" height="24.000000" rx="0" ry="0" style="stroke:none;fill:#cccccc;"/>
<rect x="94.000000" y="350.000000" width="219.300000" height="24.000000" rx="0" ry="0" style="stroke:none;fill:#477881;"/>
<text x="203.650000" y="364.000000" font-family="Arial" font-size="7" text-anchor="middle" fill="#FFFFFF">vslider(frequency-band, 8.0f, 1.0f, 16.0f, 0.001f)</text>
<circle cx="96.000000" cy="352.000000" r="1"/>
<line x1="85.000000" y1="341.000000" x2="85.000000" y2="383.000000"  style="stroke: black; stroke-linecap:round; stroke-width:0.25; stroke-dasharray:3,3;"/>
<line x1="85.000000" y1="383.000000" x2="322.300000" y2="383.000000"  style="stroke: black; stroke-linecap:round; stroke-width:0.25; stroke-dasharray:3,3;"/>
<line x1="322.300000" y1="383.000000" x2="322.300000" y2="341.000000"  style="stroke: black; stroke-linecap:round; stroke-width:0.25; stroke-dasharray:3,3;"/>
<line x1="85.000000" y1="341.000000" x2="90.000000" y2="341.000000"  style="stroke: black; stroke-linecap:round; stroke-width:0.25; stroke-dasharray:3,3;"/>
<line x1="148.050000" y1="341.000000" x2="322.300000" y2="341.000000"  style="stroke: black; stroke-linecap:round; stroke-width:0.25; stroke-dasharray:3,3;"/>
<text x="90.000000" y="343.000000" font-family="Arial" font-size="7">vgroup(mid band)</text>
<line x1="75.000000" y1="331.000000" x2="75.000000" y2="393.000000"  style="stroke: black; stroke-linecap:round; stroke-width:0.25; stroke-dasharray:3,3;"/>
<line x1="75.000000" y1="393.000000" x2="332.300000" y2="393.000000"  style="stroke: black; stroke-linecap:round; stroke-width:0.25; stroke-dasharray:3,3;"/>
<line x1="332.300000" y1="393.000000" x2="332.300000" y2="331.000000"  style="stroke: black; stroke-linecap:round; stroke-width:0.25; stroke-dasharray:3,3;"/>
<line x1="75.000000" y1="331.000000" x2="80.000000" y2="331.000000"  style="stroke: black; stroke-linecap:round; stroke-width:0.25; stroke-dasharray:3,3;"/>
<line x1="134.825000" y1="331.000000" x2="332.300000" y2="331.000000"  style="stroke: black; stroke-linecap:round; stroke-width:0.25; stroke-dasharray:3,3;"/>
<text x="80.000000" y="333.000000" font-family="Arial" font-size="7">hgroup(filters)</text>
<line x1="65.000000" y1="321.000000" x2="65.000000" y2="403.000000"  style="stroke: black; stroke-linecap:round; stroke-width:0.25; stroke-dasharray:3,3;"/>
<line x1="65.000000" y1="403.000000" x2="342.300000" y2="403.000000"  style="stroke: black; stroke-linecap:round; stroke-width:0.25; stroke-dasharray:3,3;"/>
<line x1="342.300000" y1="403.000000" x2="342.300000" y2="321.000000"  style="stroke: black; stroke-linecap:round; stroke-width:0.25; stroke-dasharray:3,3;"/>
<line x1="65.000000" y1="321.000000" x2="70.000000" y2="321.000000"  style="stroke: black; stroke-linecap:round; stroke-width:0.25; stroke-dasharray:3,3;"/>
<line x1="124.825000" y1="321.000000" x2="342.300000" y2="321.000000"  style="stroke: black; stroke-linecap:round; stroke-width:0.25; stroke-dasharray:3,3;"/>
<text x="70.000000" y="323.000000" font-family="Arial" font-size="7">hgroup(vocoder)</text>
<line x1="55.000000" y1="311.000000" x2="55.000000" y2="413.000000"  style="stroke: black; stroke-linecap:round; stroke-width:0.25; stroke-dasharray:3,3;"/>
<line x1="55.000000" y1="413.000000" x2="352.300000" y2="413.000000"  style="stroke: black; stroke-linecap:round; stroke-width:0.25; stroke-dasharray:3,3;"/>
<line x1="352.300000" y1="413.000000" x2="352.300000" y2="311.000000"  style="stroke: black; stroke-linecap:round; stroke-width:0.25; stroke-dasharray:3,3;"/>
<line x1="55.000000" y1="311.000000" x2="60.000000" y2="311.000000"  style="stroke: black; stroke-linecap:round; stroke-width:0.25; stroke-dasharray:3,3;"/>
<line x1="111.600000" y1="311.000000" x2="352.300000" y2="311.000000"  style="stroke: black; stroke-linecap:round; stroke-width:0.25; stroke-dasharray:3,3;"/>
<text x="60.000000" y="313.000000" font-family="Arial" font-size="7">hgroup(synths)</text>
<line x1="45.000000" y1="301.000000" x2="45.000000" y2="423.000000"  style="stroke: black; stroke-linecap:round; stroke-width:0.25; stroke-dasharray:3,3;"/>
<line x1="45.000000" y1="423.000000" x2="362.300000" y2="423.000000"  style="stroke: black; stroke-linecap:round; stroke-width:0.25; stroke-dasharray:3,3;"/>
<line x1="362.300000" y1="423.000000" x2="362.300000" y2="301.000000"  style="stroke: black; stroke-linecap:round; stroke-width:0.25; stroke-dasharray:3,3;"/>
<line x1="45.000000" y1="301.000000" x2="50.000000" y2="301.000000"  style="stroke: black; stroke-linecap:round; stroke-width:0.25; stroke-dasharray:3,3;"/>
<line x1="82.250000" y1="301.000000" x2="362.300000" y2="301.000000"  style="stroke: black; stroke-linecap:round; stroke-width:0.25; stroke-dasharray:3,3;"/>
<text x="50.000000" y="303.000000" font-family="Arial" font-size="7">tgroup()</text>
<line x1="35.000000" y1="291.000000" x2="35.000000" y2="433.000000"  style="stroke: black; stroke-linecap:round; stroke-width:0.25; stroke-dasharray:3,3;"/>
<line x1="35.000000" y1="433.000000" x2="372.300000" y2="433.000000"  style="stroke: black; stroke-linecap:round; stroke-width:0.25; stroke-dasharray:3,3;"/>
<line x1="372.300000" y1="433.000000" x2="372.300000" y2="291.000000"  style="stroke: black; stroke-linecap:round; stroke-width:0.25; stroke-dasharray:3,3;"/>
<line x1="35.000000" y1="291.000000" x2="40.000000" y2="291.000000"  style="stroke: black; stroke-linecap:round; stroke-width:0.25; stroke-dasharray:3,3;"/>
<line x1="110.950000" y1="291.000000" x2="372.300000" y2="291.000000"  style="stroke: black; stroke-linecap:round; stroke-width:0.25; stroke-dasharray:3,3;"/>
<text x="40.000000" y="293.000000" font-family="Arial" font-size="7">vgroup(VoiceOfFaust)</text>
<line x1="25.000000" y1="281.000000" x2="25.000000" y2="443.000000"  style="stroke: black; stroke-linecap:round; stroke-width:0.25; stroke-dasharray:3,3;"/>
<line x1="25.000000" y1="443.000000" x2="382.300000" y2="443.000000"  style="stroke: black; stroke-linecap:round; stroke-width:0.25; stroke-dasharray:3,3;"/>
<line x1="382.300000" y1="443.000000" x2="382.300000" y2="281.000000"  style="stroke: black; stroke-linecap:round; stroke-width:0.25; stroke-dasharray:3,3;"/>
<line x1="25.000000" y1="281.000000" x2="30.000000" y2="281.000000"  style="stroke: black; stroke-linecap:round; stroke-width:0.25; stroke-dasharray:3,3;"/>
<line x1="71.925000" y1="281.000000" x2="382.300000" y2="281.000000"  style="stroke: black; stroke-linecap:round; stroke-width:0.25; stroke-dasharray:3,3;"/>
<text x="30.000000" y="283.000000" font-family="Arial" font-size="7">vocoderBand</text>
<rect x="192.650000" y="463.000000" width="24.000000" height="24.000000" rx="0" ry="0" style="stroke:none;fill:#cccccc;"/>
<rect x="191.650000" y="462.000000" width="24.000000" height="24.000000" rx="0" ry="0" style="stroke:none;fill:#f44800;"/>
<text x="203.650000" y="476.000000" font-family="Arial" font-size="7" text-anchor="middle" fill="#FFFFFF">1</text>
<circle cx="193.650000" cy="464.000000" r="1"/>
<line x1="182.650000" y1="453.000000" x2="182.650000" y2="495.000000"  style="stroke: black; stroke-linecap:round; stroke-width:0.25; stroke-dasharray:3,3;"/>
<line x1="182.650000" y1="495.000000" x2="224.650000" y2="495.000000"  style="stroke: black; stroke-linecap:round; stroke-width:0.25; stroke-dasharray:3,3;"/>
<line x1="224.650000" y1="495.000000" x2="224.650000" y2="453.000000"  style="stroke: black; stroke-linecap:round; stroke-width:0.25; stroke-dasharray:3,3;"/>
<line x1="182.650000" y1="453.000000" x2="187.650000" y2="453.000000"  style="stroke: black; stroke-linecap:round; stroke-width:0.25; stroke-dasharray:3,3;"/>
<line x1="200.550000" y1="453.000000" x2="224.650000" y2="453.000000"  style="stroke: black; stroke-linecap:round; stroke-width:0.25; stroke-dasharray:3,3;"/>
<text x="187.650000" y="455.000000" font-family="Arial" font-size="7">a0</text>
<rect x="400.300000" y="377.000000" width="24.000000" height="24.000000" rx="0" ry="0" style="stroke:none;fill:#cccccc;"/>
<rect x="399.300000" y="376.000000" width="24.000000" height="24.000000" rx="0" ry="0" style="stroke:none;fill:#4B71A1;"/>
<text x="411.300000" y="390.000000" font-family="Arial" font-size="7" text-anchor="middle" fill="#FFFFFF">-</text>
<circle cx="401.300000" cy="378.000000" r="1"/>
<line x1="396.300000" y1="383.000000" x2="399.300000" y2="384.000000"  transform="rotate(0.000000,399.300000,384.000000)" style="stroke: black; stroke-width:0.25;"/>
<line x1="396.300000" y1="385.000000" x2="399.300000" y2="384.000000"  transform="rotate(0.000000,399.300000,384.000000)" style="stroke: black; stroke-width:0.25;"/>
<line x1="396.300000" y1="391.000000" x2="399.300000" y2="392.000000"  transform="rotate(0.000000,399.300000,392.000000)" style="stroke: black; stroke-width:0.25;"/>
<line x1="396.300000" y1="393.000000" x2="399.300000" y2="392.000000"  transform="rotate(0.000000,399.300000,392.000000)" style="stroke: black; stroke-width:0.25;"/>
<rect x="440.300000" y="249.000000" width="24.000000" height="24.000000" rx="0" ry="0" style="stroke:none;fill:#cccccc;"/>
<rect x="439.300000" y="248.000000" width="24.000000" height="24.000000" rx="0" ry="0" style="stroke:none;fill:#4B71A1;"/>
<text x="451.300000" y="262.000000" font-family="Arial" font-size="7" text-anchor="middle" fill="#FFFFFF">/</text>
<circle cx="441.300000" cy="250.000000" r="1"/>
<line x1="436.300000" y1="255.000000" x2="439.300000" y2="256.000000"  transform="rotate(0.000000,439.300000,256.000000)" style="stroke: black; stroke-width:0.25;"/>
<line x1="436.300000" y1="257.000000" x2="439.300000" y2="256.000000"  transform="rotate(0.000000,439.300000,256.000000)" style="stroke: black; stroke-width:0.25;"/>
<line x1="436.300000" y1="263.000000" x2="439.300000" y2="264.000000"  transform="rotate(0.000000,439.300000,264.000000)" style="stroke: black; stroke-width:0.25;"/>
<line x1="436.300000" y1="265.000000" x2="439.300000" y2="264.000000"  transform="rotate(0.000000,439.300000,264.000000)" style="stroke: black; stroke-width:0.25;"/>
<line x1="15.000000" y1="15.000000" x2="15.000000" y2="505.000000"  style="stroke: black; stroke-linecap:round; stroke-width:0.25; stroke-dasharray:3,3;"/>
<line x1="15.000000" y1="505.000000" x2="480.300000" y2="505.000000"  style="stroke: black; stroke-linecap:round; stroke-width:0.25; stroke-dasharray:3,3;"/>
<line x1="480.300000" y1="505.000000" x2="480.300000" y2="15.000000"  style="stroke: black; stroke-linecap:round; stroke-width:0.25; stroke-dasharray:3,3;"/>
<line x1="15.000000" y1="15.000000" x2="20.000000" y2="15.000000"  style="stroke: black; stroke-linecap:round; stroke-width:0.25; stroke-dasharray:3,3;"/>
<line x1="71.600000" y1="15.000000" x2="480.300000" y2="15.000000"  style="stroke: black; stroke-linecap:round; stroke-width:0.25; stroke-dasharray:3,3;"/>
<text x="20.000000" y="17.000000" font-family="Arial" font-size="7">midToBottom(9)</text>
<line x1="482.300000" y1="259.000000" x2="485.300000" y2="260.000000"  transform="rotate(0.000000,485.300000,260.000000)" style="stroke: black; stroke-width:0.25;"/>
<line x1="482.300000" y1="261.000000" x2="485.300000" y2="260.000000"  transform="rotate(0.000000,485.300000,260.000000)" style="stroke: black; stroke-width:0.25;"/>
<line x1="195.650000" y1="208.000000" x2="199.650000" y2="208.000000"  style="stroke:black; stroke-linecap:round; stroke-width:0.25;"/>
<line x1="195.650000" y1="250.000000" x2="199.650000" y2="250.000000"  style="stroke:black; stroke-linecap:round; stroke-width:0.25;"/>
<line x1="199.650000" y1="208.000000" x2="209.650000" y2="208.000000"  style="stroke:black; stroke-linecap:round; stroke-width:0.25;"/>
<line x1="199.650000" y1="250.000000" x2="209.650000" y2="250.000000"  style="stroke:black; stroke-linecap:round; stroke-width:0.25;"/>
<line x1="209.650000" y1="208.000000" x2="217.650000" y2="208.000000"  style="stroke:black; stroke-linecap:round; stroke-width:0.25;"/>
<line x1="209.650000" y1="238.000000" x2="217.650000" y2="238.000000"  style="stroke:black; stroke-linecap:round; stroke-width:0.25;"/>
<line x1="209.650000" y1="250.000000" x2="209.650000" y2="238.000000"  style="stroke:black; stroke-linecap:round; stroke-width:0.25;"/>
<line x1="209.650000" y1="250.000000" x2="209.650000" y2="250.000000"  style="stroke:black; stroke-linecap:round; stroke-width:0.25;"/>
<line x1="215.650000" y1="474.000000" x2="219.650000" y2="474.000000"  style="stroke:black; stroke-linecap:round; stroke-width:0.25;"/>
<line x1="217.650000" y1="208.000000" x2="217.650000" y2="230.000000"  style="stroke:black; stroke-linecap:round; stroke-width:0.25;"/>
<line x1="217.650000" y1="230.000000" x2="217.650000" y2="230.000000"  style="stroke:black; stroke-linecap:round; stroke-width:0.25;"/>
<line x1="217.650000" y1="230.000000" x2="221.650000" y2="230.000000"  style="stroke:black; stroke-linecap:round; stroke-width:0.25;"/>
<line x1="217.650000" y1="238.000000" x2="221.650000" y2="238.000000"  style="stroke:black; stroke-linecap:round; stroke-width:0.25;"/>
<line x1="219.650000" y1="474.000000" x2="229.650000" y2="474.000000"  style="stroke:black; stroke-linecap:round; stroke-width:0.25;"/>
<line x1="229.650000" y1="474.000000" x2="387.300000" y2="474.000000"  style="stroke:black; stroke-linecap:round; stroke-width:0.25;"/>
<line x1="245.650000" y1="234.000000" x2="249.650000" y2="234.000000"  style="stroke:black; stroke-linecap:round; stroke-width:0.25;"/>
<line x1="249.650000" y1="234.000000" x2="387.300000" y2="234.000000"  style="stroke:black; stroke-linecap:round; stroke-width:0.25;"/>
<line x1="313.300000" y1="106.000000" x2="317.300000" y2="106.000000"  style="stroke:black; stroke-linecap:round; stroke-width:0.25;"/>
<line x1="313.300000" y1="362.000000" x2="317.300000" y2="362.000000"  style="stroke:black; stroke-linecap:round; stroke-width:0.25;"/>
<line x1="317.300000" y1="106.000000" x2="327.300000" y2="106.000000"  style="stroke:black; stroke-linecap:round; stroke-width:0.25;"/>
<line x1="317.300000" y1="362.000000" x2="327.300000" y2="362.000000"  style="stroke:black; stroke-linecap:round; stroke-width:0.25;"/>
<line x1="327.300000" y1="106.000000" x2="337.300000" y2="106.000000"  style="stroke:black; stroke-linecap:round; stroke-width:0.25;"/>
<line x1="327.300000" y1="362.000000" x2="337.300000" y2="362.000000"  style="stroke:black; stroke-linecap:round; stroke-width:0.25;"/>
<line x1="337.300000" y1="106.000000" x2="347.300000" y2="106.000000"  style="stroke:black; stroke-linecap:round; stroke-width:0.25;"/>
<line x1="337.300000" y1="362.000000" x2="347.300000" y2="362.000000"  style="stroke:black; stroke-linecap:round; stroke-width:0.25;"/>
<line x1="347.300000" y1="106.000000" x2="357.300000" y2="106.000000"  style="stroke:black; stroke-linecap:round; stroke-width:0.25;"/>
<line x1="347.300000" y1="362.000000" x2="357.300000" y2="362.000000"  style="stroke:black; stroke-linecap:round; stroke-width:0.25;"/>
<line x1="357.300000" y1="106.000000" x2="367.300000" y2="106.000000"  style="stroke:black; stroke-linecap:round; stroke-width:0.25;"/>
<line x1="357.300000" y1="362.000000" x2="367.300000" y2="362.000000"  style="stroke:black; stroke-linecap:round; stroke-width:0.25;"/>
<line x1="367.300000" y1="106.000000" x2="377.300000" y2="106.000000"  style="stroke:black; stroke-linecap:round; stroke-width:0.25;"/>
<line x1="367.300000" y1="362.000000" x2="377.300000" y2="362.000000"  style="stroke:black; stroke-linecap:round; stroke-width:0.25;"/>
<line x1="377.300000" y1="106.000000" x2="387.300000" y2="106.000000"  style="stroke:black; stroke-linecap:round; stroke-width:0.25;"/>
<line x1="377.300000" y1="362.000000" x2="387.300000" y2="362.000000"  style="stroke:black; stroke-linecap:round; stroke-width:0.25;"/>
<line x1="387.300000" y1="106.000000" x2="395.300000" y2="106.000000"  style="stroke:black; stroke-linecap:round; stroke-width:0.25;"/>
<line x1="387.300000" y1="152.000000" x2="395.300000" y2="152.000000"  style="stroke:black; stroke-linecap:round; stroke-width:0.25;"/>
<line x1="387.300000" y1="234.000000" x2="387.300000" y2="152.000000"  style="stroke:black; stroke-linecap:round; stroke-width:0.25;"/>
<line x1="387.300000" y1="234.000000" x2="387.300000" y2="234.000000"  style="stroke:black; stroke-linecap:round; stroke-width:0.25;"/>
<line x1="387.300000" y1="362.000000" x2="395.300000" y2="362.000000"  style="stroke:black; stroke-linecap:round; stroke-width:0.25;"/>
<line x1="387.300000" y1="392.000000" x2="395.300000" y2="392.000000"  style="stroke:black; stroke-linecap:round; stroke-width:0.25;"/>
<line x1="387.300000" y1="474.000000" x2="387.300000" y2="392.000000"  style="stroke:black; stroke-linecap:round; stroke-width:0.25;"/>
<line x1="387.300000" y1="474.000000" x2="387.300000" y2="474.000000"  style="stroke:black; stroke-linecap:round; stroke-width:0.25;"/>
<line x1="395.300000" y1="106.000000" x2="395.300000" y2="144.000000"  style="stroke:black; stroke-linecap:round; stroke-width:0.25;"/>
<line x1="395.300000" y1="144.000000" x2="395.300000" y2="144.000000"  style="stroke:black; stroke-linecap:round; stroke-width:0.25;"/>
<line x1="395.300000" y1="144.000000" x2="399.300000" y2="144.000000"  style="stroke:black; stroke-linecap:round; stroke-width:0.25;"/>
<line x1="395.300000" y1="152.000000" x2="399.300000" y2="152.000000"  style="stroke:black; stroke-linecap:round; stroke-width:0.25;"/>
<line x1="395.300000" y1="362.000000" x2="395.300000" y2="384.000000"  style="stroke:black; stroke-linecap:round; stroke-width:0.25;"/>
<line x1="395.300000" y1="384.000000" x2="395.300000" y2="384.000000"  style="stroke:black; stroke-linecap:round; stroke-width:0.25;"/>
<line x1="395.300000" y1="384.000000" x2="399.300000" y2="384.000000"  style="stroke:black; stroke-linecap:round; stroke-width:0.25;"/>
<line x1="395.300000" y1="392.000000" x2="399.300000" y2="392.000000"  style="stroke:black; stroke-linecap:round; stroke-width:0.25;"/>
<line x1="423.300000" y1="148.000000" x2="427.300000" y2="148.000000"  style="stroke:black; stroke-linecap:round; stroke-width:0.25;"/>
<line x1="423.300000" y1="388.000000" x2="427.300000" y2="388.000000"  style="stroke:black; stroke-linecap:round; stroke-width:0.25;"/>
<line x1="427.300000" y1="148.000000" x2="435.300000" y2="148.000000"  style="stroke:black; stroke-linecap:round; stroke-width:0.25;"/>
<line x1="427.300000" y1="264.000000" x2="435.300000" y2="264.000000"  style="stroke:black; stroke-linecap:round; stroke-width:0.25;"/>
<line x1="427.300000" y1="388.000000" x2="427.300000" y2="264.000000"  style="stroke:black; stroke-linecap:round; stroke-width:0.25;"/>
<line x1="427.300000" y1="388.000000" x2="427.300000" y2="388.000000"  style="stroke:black; stroke-linecap:round; stroke-width:0.25;"/>
<line x1="435.300000" y1="148.000000" x2="435.300000" y2="256.000000"  style="stroke:black; stroke-linecap:round; stroke-width:0.25;"/>
<line x1="435.300000" y1="256.000000" x2="435.300000" y2="256.000000"  style="stroke:black; stroke-linecap:round; stroke-width:0.25;"/>
<line x1="435.300000" y1="256.000000" x2="439.300000" y2="256.000000"  style="stroke:black; stroke-linecap:round; stroke-width:0.25;"/>
<line x1="435.300000" y1="264.000000" x2="439.300000" y2="264.000000"  style="stroke:black; stroke-linecap:round; stroke-width:0.25;"/>
<line x1="463.300000" y1="260.000000" x2="467.300000" y2="260.000000"  style="stroke:black; stroke-linecap:round; stroke-width:0.25;"/>
<line x1="467.300000" y1="260.000000" x2="467.300000" y2="260.000000"  style="stroke:black; stroke-linecap:round; stroke-width:0.25;"/>
<line x1="467.300000" y1="260.000000" x2="471.300000" y2="260.000000"  style="stroke:black; stroke-linecap:round; stroke-width:0.25;"/>
<line x1="471.300000" y1="260.000000" x2="475.300000" y2="260.000000"  style="stroke:black; stroke-linecap:round; stroke-width:0.25;"/>
<line x1="475.300000" y1="260.000000" x2="485.300000" y2="260.000000"  style="stroke:black; stroke-linecap:round; stroke-width:0.25;"/>
</svg>
