<?xml version="1.0"?>
<svg xmlns="http://www.w3.org/2000/svg" xmlns:xlink="http://www.w3.org/1999/xlink" viewBox="0 0 521.100000 500.000000" width="260.550000mm" height="250.000000mm" version="1.1">
<a xlink:href="midToTopVal-0x13f8a4f0.svg">
<rect x="1.000000" y="1.000000" width="520.100000" height="499.000000" rx="0" ry="0" style="stroke:none;fill:#cccccc;"/>
<rect x="0.000000" y="0.000000" width="520.100000" height="499.000000" rx="0" ry="0" style="stroke:none;fill:#ffffff;"/>
</a>
<text x="10.000000" y="7.000000" font-family="Arial" font-size="7"></text>
<rect x="185.550000" y="25.000000" width="24.000000" height="24.000000" rx="0" ry="0" style="stroke:none;fill:#cccccc;"/>
<rect x="184.550000" y="24.000000" width="24.000000" height="24.000000" rx="0" ry="0" style="stroke:none;fill:#f44800;"/>
<text x="196.550000" y="38.000000" font-family="Arial" font-size="7" text-anchor="middle" fill="#FFFFFF">12</text>
<circle cx="186.550000" cy="26.000000" r="1"/>
<rect x="185.550000" y="67.000000" width="24.000000" height="24.000000" rx="0" ry="0" style="stroke:none;fill:#cccccc;"/>
<rect x="184.550000" y="66.000000" width="24.000000" height="24.000000" rx="0" ry="0" style="stroke:none;fill:#f44800;"/>
<text x="196.550000" y="80.000000" font-family="Arial" font-size="7" text-anchor="middle" fill="#FFFFFF">1</text>
<circle cx="186.550000" cy="68.000000" r="1"/>
<line x1="175.550000" y1="57.000000" x2="175.550000" y2="99.000000"  style="stroke: black; stroke-linecap:round; stroke-width:0.25; stroke-dasharray:3,3;"/>
<line x1="175.550000" y1="99.000000" x2="217.550000" y2="99.000000"  style="stroke: black; stroke-linecap:round; stroke-width:0.25; stroke-dasharray:3,3;"/>
<line x1="217.550000" y1="99.000000" x2="217.550000" y2="57.000000"  style="stroke: black; stroke-linecap:round; stroke-width:0.25; stroke-dasharray:3,3;"/>
<line x1="175.550000" y1="57.000000" x2="180.550000" y2="57.000000"  style="stroke: black; stroke-linecap:round; stroke-width:0.25; stroke-dasharray:3,3;"/>
<line x1="193.450000" y1="57.000000" x2="217.550000" y2="57.000000"  style="stroke: black; stroke-linecap:round; stroke-width:0.25; stroke-dasharray:3,3;"/>
<text x="180.550000" y="59.000000" font-family="Arial" font-size="7">a0</text>
<rect x="235.550000" y="51.000000" width="24.000000" height="24.000000" rx="0" ry="0" style="stroke:none;fill:#cccccc;"/>
<rect x="234.550000" y="50.000000" width="24.000000" height="24.000000" rx="0" ry="0" style="stroke:none;fill:#4B71A1;"/>
<text x="246.550000" y="64.000000" font-family="Arial" font-size="7" text-anchor="middle" fill="#FFFFFF">+</text>
<circle cx="236.550000" cy="52.000000" r="1"/>
<line x1="231.550000" y1="57.000000" x2="234.550000" y2="58.000000"  transform="rotate(0.000000,234.550000,58.000000)" style="stroke: black; stroke-width:0.25;"/>
<line x1="231.550000" y1="59.000000" x2="234.550000" y2="58.000000"  transform="rotate(0.000000,234.550000,58.000000)" style="stroke: black; stroke-width:0.25;"/>
<line x1="231.550000" y1="65.000000" x2="234.550000" y2="66.000000"  transform="rotate(0.000000,234.550000,66.000000)" style="stroke: black; stroke-width:0.25;"/>
<line x1="231.550000" y1="67.000000" x2="234.550000" y2="66.000000"  transform="rotate(0.000000,234.550000,66.000000)" style="stroke: black; stroke-width:0.25;"/>
<rect x="95.000000" y="179.000000" width="245.100000" height="24.000000" rx="0" ry="0" style="stroke:none;fill:#cccccc;"/>
<rect x="94.000000" y="178.000000" width="245.100000" height="24.000000" rx="0" ry="0" style="stroke:none;fill:#477881;"/>
<text x="216.550000" y="192.000000" font-family="Arial" font-size="7" text-anchor="middle" fill="#FFFFFF">vslider(lower filter FB band, 8.0f, 1.0f, 16.0f, 0.001f)</text>
<circle cx="96.000000" cy="180.000000" r="1"/>
<line x1="85.000000" y1="169.000000" x2="85.000000" y2="211.000000"  style="stroke: black; stroke-linecap:round; stroke-width:0.25; stroke-dasharray:3,3;"/>
<line x1="85.000000" y1="211.000000" x2="348.100000" y2="211.000000"  style="stroke: black; stroke-linecap:round; stroke-width:0.25; stroke-dasharray:3,3;"/>
<line x1="348.100000" y1="211.000000" x2="348.100000" y2="169.000000"  style="stroke: black; stroke-linecap:round; stroke-width:0.25; stroke-dasharray:3,3;"/>
<line x1="85.000000" y1="169.000000" x2="90.000000" y2="169.000000"  style="stroke: black; stroke-linecap:round; stroke-width:0.25; stroke-dasharray:3,3;"/>
<line x1="148.050000" y1="169.000000" x2="348.100000" y2="169.000000"  style="stroke: black; stroke-linecap:round; stroke-width:0.25; stroke-dasharray:3,3;"/>
<text x="90.000000" y="171.000000" font-family="Arial" font-size="7">vgroup(mid band)</text>
<line x1="75.000000" y1="159.000000" x2="75.000000" y2="221.000000"  style="stroke: black; stroke-linecap:round; stroke-width:0.25; stroke-dasharray:3,3;"/>
<line x1="75.000000" y1="221.000000" x2="358.100000" y2="221.000000"  style="stroke: black; stroke-linecap:round; stroke-width:0.25; stroke-dasharray:3,3;"/>
<line x1="358.100000" y1="221.000000" x2="358.100000" y2="159.000000"  style="stroke: black; stroke-linecap:round; stroke-width:0.25; stroke-dasharray:3,3;"/>
<line x1="75.000000" y1="159.000000" x2="80.000000" y2="159.000000"  style="stroke: black; stroke-linecap:round; stroke-width:0.25; stroke-dasharray:3,3;"/>
<line x1="134.825000" y1="159.000000" x2="358.100000" y2="159.000000"  style="stroke: black; stroke-linecap:round; stroke-width:0.25; stroke-dasharray:3,3;"/>
<text x="80.000000" y="161.000000" font-family="Arial" font-size="7">hgroup(filters)</text>
<line x1="65.000000" y1="149.000000" x2="65.000000" y2="231.000000"  style="stroke: black; stroke-linecap:round; stroke-width:0.25; stroke-dasharray:3,3;"/>
<line x1="65.000000" y1="231.000000" x2="368.100000" y2="231.000000"  style="stroke: black; stroke-linecap:round; stroke-width:0.25; stroke-dasharray:3,3;"/>
<line x1="368.100000" y1="231.000000" x2="368.100000" y2="149.000000"  style="stroke: black; stroke-linecap:round; stroke-width:0.25; stroke-dasharray:3,3;"/>
<line x1="65.000000" y1="149.000000" x2="70.000000" y2="149.000000"  style="stroke: black; stroke-linecap:round; stroke-width:0.25; stroke-dasharray:3,3;"/>
<line x1="124.825000" y1="149.000000" x2="368.100000" y2="149.000000"  style="stroke: black; stroke-linecap:round; stroke-width:0.25; stroke-dasharray:3,3;"/>
<text x="70.000000" y="151.000000" font-family="Arial" font-size="7">hgroup(vocoder)</text>
<line x1="55.000000" y1="139.000000" x2="55.000000" y2="241.000000"  style="stroke: black; stroke-linecap:round; stroke-width:0.25; stroke-dasharray:3,3;"/>
<line x1="55.000000" y1="241.000000" x2="378.100000" y2="241.000000"  style="stroke: black; stroke-linecap:round; stroke-width:0.25; stroke-dasharray:3,3;"/>
<line x1="378.100000" y1="241.000000" x2="378.100000" y2="139.000000"  style="stroke: black; stroke-linecap:round; stroke-width:0.25; stroke-dasharray:3,3;"/>
<line x1="55.000000" y1="139.000000" x2="60.000000" y2="139.000000"  style="stroke: black; stroke-linecap:round; stroke-width:0.25; stroke-dasharray:3,3;"/>
<line x1="111.600000" y1="139.000000" x2="378.100000" y2="139.000000"  style="stroke: black; stroke-linecap:round; stroke-width:0.25; stroke-dasharray:3,3;"/>
<text x="60.000000" y="141.000000" font-family="Arial" font-size="7">hgroup(synths)</text>
<line x1="45.000000" y1="129.000000" x2="45.000000" y2="251.000000"  style="stroke: black; stroke-linecap:round; stroke-width:0.25; stroke-dasharray:3,3;"/>
<line x1="45.000000" y1="251.000000" x2="388.100000" y2="251.000000"  style="stroke: black; stroke-linecap:round; stroke-width:0.25; stroke-dasharray:3,3;"/>
<line x1="388.100000" y1="251.000000" x2="388.100000" y2="129.000000"  style="stroke: black; stroke-linecap:round; stroke-width:0.25; stroke-dasharray:3,3;"/>
<line x1="45.000000" y1="129.000000" x2="50.000000" y2="129.000000"  style="stroke: black; stroke-linecap:round; stroke-width:0.25; stroke-dasharray:3,3;"/>
<line x1="82.250000" y1="129.000000" x2="388.100000" y2="129.000000"  style="stroke: black; stroke-linecap:round; stroke-width:0.25; stroke-dasharray:3,3;"/>
<text x="50.000000" y="131.000000" font-family="Arial" font-size="7">tgroup()</text>
<line x1="35.000000" y1="119.000000" x2="35.000000" y2="261.000000"  style="stroke: black; stroke-linecap:round; stroke-width:0.25; stroke-dasharray:3,3;"/>
<line x1="35.000000" y1="261.000000" x2="398.100000" y2="261.000000"  style="stroke: black; stroke-linecap:round; stroke-width:0.25; stroke-dasharray:3,3;"/>
<line x1="398.100000" y1="261.000000" x2="398.100000" y2="119.000000"  style="stroke: black; stroke-linecap:round; stroke-width:0.25; stroke-dasharray:3,3;"/>
<line x1="35.000000" y1="119.000000" x2="40.000000" y2="119.000000"  style="stroke: black; stroke-linecap:round; stroke-width:0.25; stroke-dasharray:3,3;"/>
<line x1="110.950000" y1="119.000000" x2="398.100000" y2="119.000000"  style="stroke: black; stroke-linecap:round; stroke-width:0.25; stroke-dasharray:3,3;"/>
<text x="40.000000" y="121.000000" font-family="Arial" font-size="7">vgroup(VoiceOfFaust)</text>
<line x1="25.000000" y1="109.000000" x2="25.000000" y2="271.000000"  style="stroke: black; stroke-linecap:round; stroke-width:0.25; stroke-dasharray:3,3;"/>
<line x1="25.000000" y1="271.000000" x2="408.100000" y2="271.000000"  style="stroke: black; stroke-linecap:round; stroke-width:0.25; stroke-dasharray:3,3;"/>
<line x1="408.100000" y1="271.000000" x2="408.100000" y2="109.000000"  style="stroke: black; stroke-linecap:round; stroke-width:0.25; stroke-dasharray:3,3;"/>
<line x1="25.000000" y1="109.000000" x2="30.000000" y2="109.000000"  style="stroke: black; stroke-linecap:round; stroke-width:0.25; stroke-dasharray:3,3;"/>
<line x1="71.925000" y1="109.000000" x2="408.100000" y2="109.000000"  style="stroke: black; stroke-linecap:round; stroke-width:0.25; stroke-dasharray:3,3;"/>
<text x="30.000000" y="111.000000" font-family="Arial" font-size="7">lowerFBband</text>
<rect x="426.100000" y="137.000000" width="24.000000" height="24.000000" rx="0" ry="0" style="stroke:none;fill:#cccccc;"/>
<rect x="425.100000" y="136.000000" width="24.000000" height="24.000000" rx="0" ry="0" style="stroke:none;fill:#4B71A1;"/>
<text x="437.100000" y="150.000000" font-family="Arial" font-size="7" text-anchor="middle" fill="#FFFFFF">-</text>
<circle cx="427.100000" cy="138.000000" r="1"/>
<line x1="422.100000" y1="143.000000" x2="425.100000" y2="144.000000"  transform="rotate(0.000000,425.100000,144.000000)" style="stroke: black; stroke-width:0.25;"/>
<line x1="422.100000" y1="145.000000" x2="425.100000" y2="144.000000"  transform="rotate(0.000000,425.100000,144.000000)" style="stroke: black; stroke-width:0.25;"/>
<line x1="422.100000" y1="151.000000" x2="425.100000" y2="152.000000"  transform="rotate(0.000000,425.100000,152.000000)" style="stroke: black; stroke-width:0.25;"/>
<line x1="422.100000" y1="153.000000" x2="425.100000" y2="152.000000"  transform="rotate(0.000000,425.100000,152.000000)" style="stroke: black; stroke-width:0.25;"/>
<a xlink:href="nrBands-0x35281f0.svg">
<rect x="198.200000" y="281.000000" width="38.700000" height="24.000000" rx="0" ry="0" style="stroke:none;fill:#cccccc;"/>
<rect x="197.200000" y="280.000000" width="38.700000" height="24.000000" rx="0" ry="0" style="stroke:none;fill:#003366;"/>
</a>
<a xlink:href="nrBands-0x35281f0.svg">
<text x="216.550000" y="294.000000" font-family="Arial" font-size="7" text-anchor="middle" fill="#FFFFFF">nrBands</text>
</a>
<circle cx="199.200000" cy="282.000000" r="1"/>
<rect x="95.000000" y="383.000000" width="245.100000" height="24.000000" rx="0" ry="0" style="stroke:none;fill:#cccccc;"/>
<rect x="94.000000" y="382.000000" width="245.100000" height="24.000000" rx="0" ry="0" style="stroke:none;fill:#477881;"/>
<text x="216.550000" y="396.000000" font-family="Arial" font-size="7" text-anchor="middle" fill="#FFFFFF">vslider(lower filter FB band, 8.0f, 1.0f, 16.0f, 0.001f)</text>
<circle cx="96.000000" cy="384.000000" r="1"/>
<line x1="85.000000" y1="373.000000" x2="85.000000" y2="415.000000"  style="stroke: black; stroke-linecap:round; stroke-width:0.25; stroke-dasharray:3,3;"/>
<line x1="85.000000" y1="415.000000" x2="348.100000" y2="415.000000"  style="stroke: black; stroke-linecap:round; stroke-width:0.25; stroke-dasharray:3,3;"/>
<line x1="348.100000" y1="415.000000" x2="348.100000" y2="373.000000"  style="stroke: black; stroke-linecap:round; stroke-width:0.25; stroke-dasharray:3,3;"/>
<line x1="85.000000" y1="373.000000" x2="90.000000" y2="373.000000"  style="stroke: black; stroke-linecap:round; stroke-width:0.25; stroke-dasharray:3,3;"/>
<line x1="148.050000" y1="373.000000" x2="348.100000" y2="373.000000"  style="stroke: black; stroke-linecap:round; stroke-width:0.25; stroke-dasharray:3,3;"/>
<text x="90.000000" y="375.000000" font-family="Arial" font-size="7">vgroup(mid band)</text>
<line x1="75.000000" y1="363.000000" x2="75.000000" y2="425.000000"  style="stroke: black; stroke-linecap:round; stroke-width:0.25; stroke-dasharray:3,3;"/>
<line x1="75.000000" y1="425.000000" x2="358.100000" y2="425.000000"  style="stroke: black; stroke-linecap:round; stroke-width:0.25; stroke-dasharray:3,3;"/>
<line x1="358.100000" y1="425.000000" x2="358.100000" y2="363.000000"  style="stroke: black; stroke-linecap:round; stroke-width:0.25; stroke-dasharray:3,3;"/>
<line x1="75.000000" y1="363.000000" x2="80.000000" y2="363.000000"  style="stroke: black; stroke-linecap:round; stroke-width:0.25; stroke-dasharray:3,3;"/>
<line x1="134.825000" y1="363.000000" x2="358.100000" y2="363.000000"  style="stroke: black; stroke-linecap:round; stroke-width:0.25; stroke-dasharray:3,3;"/>
<text x="80.000000" y="365.000000" font-family="Arial" font-size="7">hgroup(filters)</text>
<line x1="65.000000" y1="353.000000" x2="65.000000" y2="435.000000"  style="stroke: black; stroke-linecap:round; stroke-width:0.25; stroke-dasharray:3,3;"/>
<line x1="65.000000" y1="435.000000" x2="368.100000" y2="435.000000"  style="stroke: black; stroke-linecap:round; stroke-width:0.25; stroke-dasharray:3,3;"/>
<line x1="368.100000" y1="435.000000" x2="368.100000" y2="353.000000"  style="stroke: black; stroke-linecap:round; stroke-width:0.25; stroke-dasharray:3,3;"/>
<line x1="65.000000" y1="353.000000" x2="70.000000" y2="353.000000"  style="stroke: black; stroke-linecap:round; stroke-width:0.25; stroke-dasharray:3,3;"/>
<line x1="124.825000" y1="353.000000" x2="368.100000" y2="353.000000"  style="stroke: black; stroke-linecap:round; stroke-width:0.25; stroke-dasharray:3,3;"/>
<text x="70.000000" y="355.000000" font-family="Arial" font-size="7">hgroup(vocoder)</text>
<line x1="55.000000" y1="343.000000" x2="55.000000" y2="445.000000"  style="stroke: black; stroke-linecap:round; stroke-width:0.25; stroke-dasharray:3,3;"/>
<line x1="55.000000" y1="445.000000" x2="378.100000" y2="445.000000"  style="stroke: black; stroke-linecap:round; stroke-width:0.25; stroke-dasharray:3,3;"/>
<line x1="378.100000" y1="445.000000" x2="378.100000" y2="343.000000"  style="stroke: black; stroke-linecap:round; stroke-width:0.25; stroke-dasharray:3,3;"/>
<line x1="55.000000" y1="343.000000" x2="60.000000" y2="343.000000"  style="stroke: black; stroke-linecap:round; stroke-width:0.25; stroke-dasharray:3,3;"/>
<line x1="111.600000" y1="343.000000" x2="378.100000" y2="343.000000"  style="stroke: black; stroke-linecap:round; stroke-width:0.25; stroke-dasharray:3,3;"/>
<text x="60.000000" y="345.000000" font-family="Arial" font-size="7">hgroup(synths)</text>
<line x1="45.000000" y1="333.000000" x2="45.000000" y2="455.000000"  style="stroke: black; stroke-linecap:round; stroke-width:0.25; stroke-dasharray:3,3;"/>
<line x1="45.000000" y1="455.000000" x2="388.100000" y2="455.000000"  style="stroke: black; stroke-linecap:round; stroke-width:0.25; stroke-dasharray:3,3;"/>
<line x1="388.100000" y1="455.000000" x2="388.100000" y2="333.000000"  style="stroke: black; stroke-linecap:round; stroke-width:0.25; stroke-dasharray:3,3;"/>
<line x1="45.000000" y1="333.000000" x2="50.000000" y2="333.000000"  style="stroke: black; stroke-linecap:round; stroke-width:0.25; stroke-dasharray:3,3;"/>
<line x1="82.250000" y1="333.000000" x2="388.100000" y2="333.000000"  style="stroke: black; stroke-linecap:round; stroke-width:0.25; stroke-dasharray:3,3;"/>
<text x="50.000000" y="335.000000" font-family="Arial" font-size="7">tgroup()</text>
<line x1="35.000000" y1="323.000000" x2="35.000000" y2="465.000000"  style="stroke: black; stroke-linecap:round; stroke-width:0.25; stroke-dasharray:3,3;"/>
<line x1="35.000000" y1="465.000000" x2="398.100000" y2="465.000000"  style="stroke: black; stroke-linecap:round; stroke-width:0.25; stroke-dasharray:3,3;"/>
<line x1="398.100000" y1="465.000000" x2="398.100000" y2="323.000000"  style="stroke: black; stroke-linecap:round; stroke-width:0.25; stroke-dasharray:3,3;"/>
<line x1="35.000000" y1="323.000000" x2="40.000000" y2="323.000000"  style="stroke: black; stroke-linecap:round; stroke-width:0.25; stroke-dasharray:3,3;"/>
<line x1="110.950000" y1="323.000000" x2="398.100000" y2="323.000000"  style="stroke: black; stroke-linecap:round; stroke-width:0.25; stroke-dasharray:3,3;"/>
<text x="40.000000" y="325.000000" font-family="Arial" font-size="7">vgroup(VoiceOfFaust)</text>
<line x1="25.000000" y1="313.000000" x2="25.000000" y2="475.000000"  style="stroke: black; stroke-linecap:round; stroke-width:0.25; stroke-dasharray:3,3;"/>
<line x1="25.000000" y1="475.000000" x2="408.100000" y2="475.000000"  style="stroke: black; stroke-linecap:round; stroke-width:0.25; stroke-dasharray:3,3;"/>
<line x1="408.100000" y1="475.000000" x2="408.100000" y2="313.000000"  style="stroke: black; stroke-linecap:round; stroke-width:0.25; stroke-dasharray:3,3;"/>
<line x1="25.000000" y1="313.000000" x2="30.000000" y2="313.000000"  style="stroke: black; stroke-linecap:round; stroke-width:0.25; stroke-dasharray:3,3;"/>
<line x1="71.925000" y1="313.000000" x2="408.100000" y2="313.000000"  style="stroke: black; stroke-linecap:round; stroke-width:0.25; stroke-dasharray:3,3;"/>
<text x="30.000000" y="315.000000" font-family="Arial" font-size="7">lowerFBband</text>
<rect x="426.100000" y="367.000000" width="24.000000" height="24.000000" rx="0" ry="0" style="stroke:none;fill:#cccccc;"/>
<rect x="425.100000" y="366.000000" width="24.000000" height="24.000000" rx="0" ry="0" style="stroke:none;fill:#4B71A1;"/>
<text x="437.100000" y="380.000000" font-family="Arial" font-size="7" text-anchor="middle" fill="#FFFFFF">-</text>
<circle cx="427.100000" cy="368.000000" r="1"/>
<line x1="422.100000" y1="373.000000" x2="425.100000" y2="374.000000"  transform="rotate(0.000000,425.100000,374.000000)" style="stroke: black; stroke-width:0.25;"/>
<line x1="422.100000" y1="375.000000" x2="425.100000" y2="374.000000"  transform="rotate(0.000000,425.100000,374.000000)" style="stroke: black; stroke-width:0.25;"/>
<line x1="422.100000" y1="381.000000" x2="425.100000" y2="382.000000"  transform="rotate(0.000000,425.100000,382.000000)" style="stroke: black; stroke-width:0.25;"/>
<line x1="422.100000" y1="383.000000" x2="425.100000" y2="382.000000"  transform="rotate(0.000000,425.100000,382.000000)" style="stroke: black; stroke-width:0.25;"/>
<rect x="466.100000" y="239.000000" width="24.000000" height="24.000000" rx="0" ry="0" style="stroke:none;fill:#cccccc;"/>
<rect x="465.100000" y="238.000000" width="24.000000" height="24.000000" rx="0" ry="0" style="stroke:none;fill:#4B71A1;"/>
<text x="477.100000" y="252.000000" font-family="Arial" font-size="7" text-anchor="middle" fill="#FFFFFF">/</text>
<circle cx="467.100000" cy="240.000000" r="1"/>
<line x1="462.100000" y1="245.000000" x2="465.100000" y2="246.000000"  transform="rotate(0.000000,465.100000,246.000000)" style="stroke: black; stroke-width:0.25;"/>
<line x1="462.100000" y1="247.000000" x2="465.100000" y2="246.000000"  transform="rotate(0.000000,465.100000,246.000000)" style="stroke: black; stroke-width:0.25;"/>
<line x1="462.100000" y1="253.000000" x2="465.100000" y2="254.000000"  transform="rotate(0.000000,465.100000,254.000000)" style="stroke: black; stroke-width:0.25;"/>
<line x1="462.100000" y1="255.000000" x2="465.100000" y2="254.000000"  transform="rotate(0.000000,465.100000,254.000000)" style="stroke: black; stroke-width:0.25;"/>
<line x1="15.000000" y1="15.000000" x2="15.000000" y2="485.000000"  style="stroke: black; stroke-linecap:round; stroke-width:0.25; stroke-dasharray:3,3;"/>
<line x1="15.000000" y1="485.000000" x2="506.100000" y2="485.000000"  style="stroke: black; stroke-linecap:round; stroke-width:0.25; stroke-dasharray:3,3;"/>
<line x1="506.100000" y1="485.000000" x2="506.100000" y2="15.000000"  style="stroke: black; stroke-linecap:round; stroke-width:0.25; stroke-dasharray:3,3;"/>
<line x1="15.000000" y1="15.000000" x2="20.000000" y2="15.000000"  style="stroke: black; stroke-linecap:round; stroke-width:0.25; stroke-dasharray:3,3;"/>
<line x1="65.150000" y1="15.000000" x2="506.100000" y2="15.000000"  style="stroke: black; stroke-linecap:round; stroke-width:0.25; stroke-dasharray:3,3;"/>
<text x="20.000000" y="17.000000" font-family="Arial" font-size="7">midToTop(12)</text>
<line x1="508.100000" y1="249.000000" x2="511.100000" y2="250.000000"  transform="rotate(0.000000,511.100000,250.000000)" style="stroke: black; stroke-width:0.25;"/>
<line x1="508.100000" y1="251.000000" x2="511.100000" y2="250.000000"  transform="rotate(0.000000,511.100000,250.000000)" style="stroke: black; stroke-width:0.25;"/>
<line x1="208.550000" y1="36.000000" x2="212.550000" y2="36.000000"  style="stroke:black; stroke-linecap:round; stroke-width:0.25;"/>
<line x1="208.550000" y1="78.000000" x2="212.550000" y2="78.000000"  style="stroke:black; stroke-linecap:round; stroke-width:0.25;"/>
<line x1="212.550000" y1="36.000000" x2="222.550000" y2="36.000000"  style="stroke:black; stroke-linecap:round; stroke-width:0.25;"/>
<line x1="212.550000" y1="78.000000" x2="222.550000" y2="78.000000"  style="stroke:black; stroke-linecap:round; stroke-width:0.25;"/>
<line x1="222.550000" y1="36.000000" x2="230.550000" y2="36.000000"  style="stroke:black; stroke-linecap:round; stroke-width:0.25;"/>
<line x1="222.550000" y1="66.000000" x2="230.550000" y2="66.000000"  style="stroke:black; stroke-linecap:round; stroke-width:0.25;"/>
<line x1="222.550000" y1="78.000000" x2="222.550000" y2="66.000000"  style="stroke:black; stroke-linecap:round; stroke-width:0.25;"/>
<line x1="222.550000" y1="78.000000" x2="222.550000" y2="78.000000"  style="stroke:black; stroke-linecap:round; stroke-width:0.25;"/>
<line x1="230.550000" y1="36.000000" x2="230.550000" y2="58.000000"  style="stroke:black; stroke-linecap:round; stroke-width:0.25;"/>
<line x1="230.550000" y1="58.000000" x2="230.550000" y2="58.000000"  style="stroke:black; stroke-linecap:round; stroke-width:0.25;"/>
<line x1="230.550000" y1="58.000000" x2="234.550000" y2="58.000000"  style="stroke:black; stroke-linecap:round; stroke-width:0.25;"/>
<line x1="230.550000" y1="66.000000" x2="234.550000" y2="66.000000"  style="stroke:black; stroke-linecap:round; stroke-width:0.25;"/>
<line x1="235.900000" y1="292.000000" x2="239.900000" y2="292.000000"  style="stroke:black; stroke-linecap:round; stroke-width:0.25;"/>
<line x1="239.900000" y1="292.000000" x2="413.100000" y2="292.000000"  style="stroke:black; stroke-linecap:round; stroke-width:0.25;"/>
<line x1="258.550000" y1="62.000000" x2="262.550000" y2="62.000000"  style="stroke:black; stroke-linecap:round; stroke-width:0.25;"/>
<line x1="262.550000" y1="62.000000" x2="413.100000" y2="62.000000"  style="stroke:black; stroke-linecap:round; stroke-width:0.25;"/>
<line x1="339.100000" y1="190.000000" x2="343.100000" y2="190.000000"  style="stroke:black; stroke-linecap:round; stroke-width:0.25;"/>
<line x1="339.100000" y1="394.000000" x2="343.100000" y2="394.000000"  style="stroke:black; stroke-linecap:round; stroke-width:0.25;"/>
<line x1="343.100000" y1="190.000000" x2="353.100000" y2="190.000000"  style="stroke:black; stroke-linecap:round; stroke-width:0.25;"/>
<line x1="343.100000" y1="394.000000" x2="353.100000" y2="394.000000"  style="stroke:black; stroke-linecap:round; stroke-width:0.25;"/>
<line x1="353.100000" y1="190.000000" x2="363.100000" y2="190.000000"  style="stroke:black; stroke-linecap:round; stroke-width:0.25;"/>
<line x1="353.100000" y1="394.000000" x2="363.100000" y2="394.000000"  style="stroke:black; stroke-linecap:round; stroke-width:0.25;"/>
<line x1="363.100000" y1="190.000000" x2="373.100000" y2="190.000000"  style="stroke:black; stroke-linecap:round; stroke-width:0.25;"/>
<line x1="363.100000" y1="394.000000" x2="373.100000" y2="394.000000"  style="stroke:black; stroke-linecap:round; stroke-width:0.25;"/>
<line x1="373.100000" y1="190.000000" x2="383.100000" y2="190.000000"  style="stroke:black; stroke-linecap:round; stroke-width:0.25;"/>
<line x1="373.100000" y1="394.000000" x2="383.100000" y2="394.000000"  style="stroke:black; stroke-linecap:round; stroke-width:0.25;"/>
<line x1="383.100000" y1="190.000000" x2="393.100000" y2="190.000000"  style="stroke:black; stroke-linecap:round; stroke-width:0.25;"/>
<line x1="383.100000" y1="394.000000" x2="393.100000" y2="394.000000"  style="stroke:black; stroke-linecap:round; stroke-width:0.25;"/>
<line x1="393.100000" y1="190.000000" x2="403.100000" y2="190.000000"  style="stroke:black; stroke-linecap:round; stroke-width:0.25;"/>
<line x1="393.100000" y1="394.000000" x2="403.100000" y2="394.000000"  style="stroke:black; stroke-linecap:round; stroke-width:0.25;"/>
<line x1="403.100000" y1="190.000000" x2="413.100000" y2="190.000000"  style="stroke:black; stroke-linecap:round; stroke-width:0.25;"/>
<line x1="403.100000" y1="394.000000" x2="413.100000" y2="394.000000"  style="stroke:black; stroke-linecap:round; stroke-width:0.25;"/>
<line x1="413.100000" y1="62.000000" x2="421.100000" y2="62.000000"  style="stroke:black; stroke-linecap:round; stroke-width:0.25;"/>
<line x1="413.100000" y1="152.000000" x2="421.100000" y2="152.000000"  style="stroke:black; stroke-linecap:round; stroke-width:0.25;"/>
<line x1="413.100000" y1="190.000000" x2="413.100000" y2="152.000000"  style="stroke:black; stroke-linecap:round; stroke-width:0.25;"/>
<line x1="413.100000" y1="190.000000" x2="413.100000" y2="190.000000"  style="stroke:black; stroke-linecap:round; stroke-width:0.25;"/>
<line x1="413.100000" y1="292.000000" x2="421.100000" y2="292.000000"  style="stroke:black; stroke-linecap:round; stroke-width:0.25;"/>
<line x1="413.100000" y1="382.000000" x2="421.100000" y2="382.000000"  style="stroke:black; stroke-linecap:round; stroke-width:0.25;"/>
<line x1="413.100000" y1="394.000000" x2="413.100000" y2="382.000000"  style="stroke:black; stroke-linecap:round; stroke-width:0.25;"/>
<line x1="413.100000" y1="394.000000" x2="413.100000" y2="394.000000"  style="stroke:black; stroke-linecap:round; stroke-width:0.25;"/>
<line x1="421.100000" y1="62.000000" x2="421.100000" y2="144.000000"  style="stroke:black; stroke-linecap:round; stroke-width:0.25;"/>
<line x1="421.100000" y1="144.000000" x2="421.100000" y2="144.000000"  style="stroke:black; stroke-linecap:round; stroke-width:0.25;"/>
<line x1="421.100000" y1="144.000000" x2="425.100000" y2="144.000000"  style="stroke:black; stroke-linecap:round; stroke-width:0.25;"/>
<line x1="421.100000" y1="152.000000" x2="425.100000" y2="152.000000"  style="stroke:black; stroke-linecap:round; stroke-width:0.25;"/>
<line x1="421.100000" y1="292.000000" x2="421.100000" y2="374.000000"  style="stroke:black; stroke-linecap:round; stroke-width:0.25;"/>
<line x1="421.100000" y1="374.000000" x2="421.100000" y2="374.000000"  style="stroke:black; stroke-linecap:round; stroke-width:0.25;"/>
<line x1="421.100000" y1="374.000000" x2="425.100000" y2="374.000000"  style="stroke:black; stroke-linecap:round; stroke-width:0.25;"/>
<line x1="421.100000" y1="382.000000" x2="425.100000" y2="382.000000"  style="stroke:black; stroke-linecap:round; stroke-width:0.25;"/>
<line x1="449.100000" y1="148.000000" x2="453.100000" y2="148.000000"  style="stroke:black; stroke-linecap:round; stroke-width:0.25;"/>
<line x1="449.100000" y1="378.000000" x2="453.100000" y2="378.000000"  style="stroke:black; stroke-linecap:round; stroke-width:0.25;"/>
<line x1="453.100000" y1="148.000000" x2="461.100000" y2="148.000000"  style="stroke:black; stroke-linecap:round; stroke-width:0.25;"/>
<line x1="453.100000" y1="254.000000" x2="461.100000" y2="254.000000"  style="stroke:black; stroke-linecap:round; stroke-width:0.25;"/>
<line x1="453.100000" y1="378.000000" x2="453.100000" y2="254.000000"  style="stroke:black; stroke-linecap:round; stroke-width:0.25;"/>
<line x1="453.100000" y1="378.000000" x2="453.100000" y2="378.000000"  style="stroke:black; stroke-linecap:round; stroke-width:0.25;"/>
<line x1="461.100000" y1="148.000000" x2="461.100000" y2="246.000000"  style="stroke:black; stroke-linecap:round; stroke-width:0.25;"/>
<line x1="461.100000" y1="246.000000" x2="461.100000" y2="246.000000"  style="stroke:black; stroke-linecap:round; stroke-width:0.25;"/>
<line x1="461.100000" y1="246.000000" x2="465.100000" y2="246.000000"  style="stroke:black; stroke-linecap:round; stroke-width:0.25;"/>
<line x1="461.100000" y1="254.000000" x2="465.100000" y2="254.000000"  style="stroke:black; stroke-linecap:round; stroke-width:0.25;"/>
<line x1="489.100000" y1="250.000000" x2="493.100000" y2="250.000000"  style="stroke:black; stroke-linecap:round; stroke-width:0.25;"/>
<line x1="493.100000" y1="250.000000" x2="493.100000" y2="250.000000"  style="stroke:black; stroke-linecap:round; stroke-width:0.25;"/>
<line x1="493.100000" y1="250.000000" x2="497.100000" y2="250.000000"  style="stroke:black; stroke-linecap:round; stroke-width:0.25;"/>
<line x1="497.100000" y1="250.000000" x2="501.100000" y2="250.000000"  style="stroke:black; stroke-linecap:round; stroke-width:0.25;"/>
<line x1="501.100000" y1="250.000000" x2="511.100000" y2="250.000000"  style="stroke:black; stroke-linecap:round; stroke-width:0.25;"/>
</svg>
