<?xml version="1.0"?>
<svg xmlns="http://www.w3.org/2000/svg" xmlns:xlink="http://www.w3.org/1999/xlink" viewBox="0 0 464.800000 96.000000" width="232.400000mm" height="48.000000mm" version="1.1">
<a xlink:href="multinoise-0x28fc3e70.svg">
<rect x="1.000000" y="1.000000" width="463.800000" height="95.000000" rx="0" ry="0" style="stroke:none;fill:#cccccc;"/>
<rect x="0.000000" y="0.000000" width="463.800000" height="95.000000" rx="0" ry="0" style="stroke:none;fill:#ffffff;"/>
</a>
<text x="10.000000" y="7.000000" font-family="Arial" font-size="7"></text>
<rect x="33.000000" y="45.000000" width="25.800000" height="24.000000" rx="0" ry="0" style="stroke:none;fill:#cccccc;"/>
<rect x="32.000000" y="44.000000" width="25.800000" height="24.000000" rx="0" ry="0" style="stroke:none;fill:#f44800;"/>
<text x="44.900000" y="58.000000" font-family="Arial" font-size="7" text-anchor="middle" fill="#FFFFFF">12345</text>
<circle cx="34.000000" cy="46.000000" r="1"/>
<rect x="74.800000" y="41.000000" width="24.000000" height="24.000000" rx="0" ry="0" style="stroke:none;fill:#cccccc;"/>
<rect x="73.800000" y="40.000000" width="24.000000" height="24.000000" rx="0" ry="0" style="stroke:none;fill:#4B71A1;"/>
<text x="85.800000" y="54.000000" font-family="Arial" font-size="7" text-anchor="middle" fill="#FFFFFF">+</text>
<circle cx="75.800000" cy="42.000000" r="1"/>
<line x1="70.800000" y1="47.000000" x2="73.800000" y2="48.000000"  transform="rotate(0.000000,73.800000,48.000000)" style="stroke: black; stroke-width:0.25;"/>
<line x1="70.800000" y1="49.000000" x2="73.800000" y2="48.000000"  transform="rotate(0.000000,73.800000,48.000000)" style="stroke: black; stroke-width:0.25;"/>
<line x1="70.800000" y1="55.000000" x2="73.800000" y2="56.000000"  transform="rotate(0.000000,73.800000,56.000000)" style="stroke: black; stroke-width:0.25;"/>
<line x1="70.800000" y1="57.000000" x2="73.800000" y2="56.000000"  transform="rotate(0.000000,73.800000,56.000000)" style="stroke: black; stroke-width:0.25;"/>
<rect x="114.800000" y="45.000000" width="51.600000" height="24.000000" rx="0" ry="0" style="stroke:none;fill:#cccccc;"/>
<rect x="113.800000" y="44.000000" width="51.600000" height="24.000000" rx="0" ry="0" style="stroke:none;fill:#f44800;"/>
<text x="139.600000" y="58.000000" font-family="Arial" font-size="7" text-anchor="middle" fill="#FFFFFF">1103515245</text>
<circle cx="115.800000" cy="46.000000" r="1"/>
<rect x="182.400000" y="41.000000" width="24.000000" height="24.000000" rx="0" ry="0" style="stroke:none;fill:#cccccc;"/>
<rect x="181.400000" y="40.000000" width="24.000000" height="24.000000" rx="0" ry="0" style="stroke:none;fill:#4B71A1;"/>
<text x="193.400000" y="54.000000" font-family="Arial" font-size="7" text-anchor="middle" fill="#FFFFFF">*</text>
<circle cx="183.400000" cy="42.000000" r="1"/>
<line x1="178.400000" y1="47.000000" x2="181.400000" y2="48.000000"  transform="rotate(0.000000,181.400000,48.000000)" style="stroke: black; stroke-width:0.25;"/>
<line x1="178.400000" y1="49.000000" x2="181.400000" y2="48.000000"  transform="rotate(0.000000,181.400000,48.000000)" style="stroke: black; stroke-width:0.25;"/>
<line x1="178.400000" y1="55.000000" x2="181.400000" y2="56.000000"  transform="rotate(0.000000,181.400000,56.000000)" style="stroke: black; stroke-width:0.25;"/>
<line x1="178.400000" y1="57.000000" x2="181.400000" y2="56.000000"  transform="rotate(0.000000,181.400000,56.000000)" style="stroke: black; stroke-width:0.25;"/>
<rect x="236.400000" y="41.000000" width="25.800000" height="24.000000" rx="0" ry="0" style="stroke:none;fill:#cccccc;"/>
<rect x="235.400000" y="40.000000" width="25.800000" height="24.000000" rx="0" ry="0" style="stroke:none;fill:#f44800;"/>
<text x="248.300000" y="54.000000" font-family="Arial" font-size="7" text-anchor="middle" fill="#FFFFFF">12345</text>
<circle cx="237.400000" cy="42.000000" r="1"/>
<rect x="278.200000" y="37.000000" width="24.000000" height="24.000000" rx="0" ry="0" style="stroke:none;fill:#cccccc;"/>
<rect x="277.200000" y="36.000000" width="24.000000" height="24.000000" rx="0" ry="0" style="stroke:none;fill:#4B71A1;"/>
<text x="289.200000" y="50.000000" font-family="Arial" font-size="7" text-anchor="middle" fill="#FFFFFF">+</text>
<circle cx="279.200000" cy="38.000000" r="1"/>
<line x1="274.200000" y1="43.000000" x2="277.200000" y2="44.000000"  transform="rotate(0.000000,277.200000,44.000000)" style="stroke: black; stroke-width:0.25;"/>
<line x1="274.200000" y1="45.000000" x2="277.200000" y2="44.000000"  transform="rotate(0.000000,277.200000,44.000000)" style="stroke: black; stroke-width:0.25;"/>
<line x1="274.200000" y1="51.000000" x2="277.200000" y2="52.000000"  transform="rotate(0.000000,277.200000,52.000000)" style="stroke: black; stroke-width:0.25;"/>
<line x1="274.200000" y1="53.000000" x2="277.200000" y2="52.000000"  transform="rotate(0.000000,277.200000,52.000000)" style="stroke: black; stroke-width:0.25;"/>
<rect x="318.200000" y="41.000000" width="51.600000" height="24.000000" rx="0" ry="0" style="stroke:none;fill:#cccccc;"/>
<rect x="317.200000" y="40.000000" width="51.600000" height="24.000000" rx="0" ry="0" style="stroke:none;fill:#f44800;"/>
<text x="343.000000" y="54.000000" font-family="Arial" font-size="7" text-anchor="middle" fill="#FFFFFF">1103515245</text>
<circle cx="319.200000" cy="42.000000" r="1"/>
<rect x="385.800000" y="37.000000" width="24.000000" height="24.000000" rx="0" ry="0" style="stroke:none;fill:#cccccc;"/>
<rect x="384.800000" y="36.000000" width="24.000000" height="24.000000" rx="0" ry="0" style="stroke:none;fill:#4B71A1;"/>
<text x="396.800000" y="50.000000" font-family="Arial" font-size="7" text-anchor="middle" fill="#FFFFFF">*</text>
<circle cx="386.800000" cy="38.000000" r="1"/>
<line x1="381.800000" y1="43.000000" x2="384.800000" y2="44.000000"  transform="rotate(0.000000,384.800000,44.000000)" style="stroke: black; stroke-width:0.25;"/>
<line x1="381.800000" y1="45.000000" x2="384.800000" y2="44.000000"  transform="rotate(0.000000,384.800000,44.000000)" style="stroke: black; stroke-width:0.25;"/>
<line x1="381.800000" y1="51.000000" x2="384.800000" y2="52.000000"  transform="rotate(0.000000,384.800000,52.000000)" style="stroke: black; stroke-width:0.25;"/>
<line x1="381.800000" y1="53.000000" x2="384.800000" y2="52.000000"  transform="rotate(0.000000,384.800000,52.000000)" style="stroke: black; stroke-width:0.25;"/>
<line x1="410.800000" y1="48.000000" x2="410.800000" y2="44.000000"  style="stroke:black; stroke-linecap:round; stroke-width:0.25;"/>
<line x1="410.800000" y1="44.000000" x2="414.800000" y2="44.000000"  style="stroke:black; stroke-linecap:round; stroke-width:0.25;"/>
<line x1="414.800000" y1="44.000000" x2="414.800000" y2="48.000000"  style="stroke:black; stroke-linecap:round; stroke-width:0.25;"/>
<line x1="15.000000" y1="15.000000" x2="15.000000" y2="81.000000"  style="stroke: black; stroke-linecap:round; stroke-width:0.25; stroke-dasharray:3,3;"/>
<line x1="15.000000" y1="81.000000" x2="449.800000" y2="81.000000"  style="stroke: black; stroke-linecap:round; stroke-width:0.25; stroke-dasharray:3,3;"/>
<line x1="449.800000" y1="81.000000" x2="449.800000" y2="15.000000"  style="stroke: black; stroke-linecap:round; stroke-width:0.25; stroke-dasharray:3,3;"/>
<line x1="15.000000" y1="15.000000" x2="20.000000" y2="15.000000"  style="stroke: black; stroke-linecap:round; stroke-width:0.25; stroke-dasharray:3,3;"/>
<line x1="71.600000" y1="15.000000" x2="449.800000" y2="15.000000"  style="stroke: black; stroke-linecap:round; stroke-width:0.25; stroke-dasharray:3,3;"/>
<text x="20.000000" y="17.000000" font-family="Arial" font-size="7">multirandom(2)</text>
<line x1="451.800000" y1="43.000000" x2="454.800000" y2="44.000000"  transform="rotate(0.000000,454.800000,44.000000)" style="stroke: black; stroke-width:0.25;"/>
<line x1="451.800000" y1="45.000000" x2="454.800000" y2="44.000000"  transform="rotate(0.000000,454.800000,44.000000)" style="stroke: black; stroke-width:0.25;"/>
<line x1="451.800000" y1="51.000000" x2="454.800000" y2="52.000000"  transform="rotate(0.000000,454.800000,52.000000)" style="stroke: black; stroke-width:0.25;"/>
<line x1="451.800000" y1="53.000000" x2="454.800000" y2="52.000000"  transform="rotate(0.000000,454.800000,52.000000)" style="stroke: black; stroke-width:0.25;"/>
<line x1="28.000000" y1="24.000000" x2="28.000000" y2="24.000000"  style="stroke:black; stroke-linecap:round; stroke-width:0.25;"/>
<line x1="28.000000" y1="24.000000" x2="28.000000" y2="36.000000"  style="stroke:black; stroke-linecap:round; stroke-width:0.25;"/>
<line x1="28.000000" y1="36.000000" x2="28.000000" y2="36.000000"  style="stroke:black; stroke-linecap:round; stroke-width:0.25;"/>
<line x1="28.000000" y1="36.000000" x2="44.900000" y2="36.000000"  style="stroke:black; stroke-linecap:round; stroke-width:0.25;"/>
<line x1="44.900000" y1="36.000000" x2="61.800000" y2="36.000000"  style="stroke:black; stroke-linecap:round; stroke-width:0.25;"/>
<line x1="57.800000" y1="56.000000" x2="61.800000" y2="56.000000"  style="stroke:black; stroke-linecap:round; stroke-width:0.25;"/>
<line x1="61.800000" y1="36.000000" x2="69.800000" y2="36.000000"  style="stroke:black; stroke-linecap:round; stroke-width:0.25;"/>
<line x1="61.800000" y1="56.000000" x2="69.800000" y2="56.000000"  style="stroke:black; stroke-linecap:round; stroke-width:0.25;"/>
<line x1="69.800000" y1="36.000000" x2="69.800000" y2="48.000000"  style="stroke:black; stroke-linecap:round; stroke-width:0.25;"/>
<line x1="69.800000" y1="48.000000" x2="69.800000" y2="48.000000"  style="stroke:black; stroke-linecap:round; stroke-width:0.25;"/>
<line x1="69.800000" y1="48.000000" x2="73.800000" y2="48.000000"  style="stroke:black; stroke-linecap:round; stroke-width:0.25;"/>
<line x1="69.800000" y1="56.000000" x2="73.800000" y2="56.000000"  style="stroke:black; stroke-linecap:round; stroke-width:0.25;"/>
<line x1="97.800000" y1="52.000000" x2="101.800000" y2="52.000000"  style="stroke:black; stroke-linecap:round; stroke-width:0.25;"/>
<line x1="101.800000" y1="36.000000" x2="109.800000" y2="36.000000"  style="stroke:black; stroke-linecap:round; stroke-width:0.25;"/>
<line x1="101.800000" y1="52.000000" x2="101.800000" y2="36.000000"  style="stroke:black; stroke-linecap:round; stroke-width:0.25;"/>
<line x1="101.800000" y1="52.000000" x2="101.800000" y2="52.000000"  style="stroke:black; stroke-linecap:round; stroke-width:0.25;"/>
<line x1="109.800000" y1="36.000000" x2="139.600000" y2="36.000000"  style="stroke:black; stroke-linecap:round; stroke-width:0.25;"/>
<line x1="139.600000" y1="36.000000" x2="169.400000" y2="36.000000"  style="stroke:black; stroke-linecap:round; stroke-width:0.25;"/>
<line x1="165.400000" y1="56.000000" x2="169.400000" y2="56.000000"  style="stroke:black; stroke-linecap:round; stroke-width:0.25;"/>
<line x1="169.400000" y1="36.000000" x2="177.400000" y2="36.000000"  style="stroke:black; stroke-linecap:round; stroke-width:0.25;"/>
<line x1="169.400000" y1="56.000000" x2="177.400000" y2="56.000000"  style="stroke:black; stroke-linecap:round; stroke-width:0.25;"/>
<line x1="177.400000" y1="36.000000" x2="177.400000" y2="48.000000"  style="stroke:black; stroke-linecap:round; stroke-width:0.25;"/>
<line x1="177.400000" y1="48.000000" x2="177.400000" y2="48.000000"  style="stroke:black; stroke-linecap:round; stroke-width:0.25;"/>
<line x1="177.400000" y1="48.000000" x2="181.400000" y2="48.000000"  style="stroke:black; stroke-linecap:round; stroke-width:0.25;"/>
<line x1="177.400000" y1="56.000000" x2="181.400000" y2="56.000000"  style="stroke:black; stroke-linecap:round; stroke-width:0.25;"/>
<line x1="205.400000" y1="52.000000" x2="209.400000" y2="52.000000"  style="stroke:black; stroke-linecap:round; stroke-width:0.25;"/>
<line x1="209.400000" y1="52.000000" x2="231.400000" y2="32.000000"  style="stroke:black; stroke-linecap:round; stroke-width:0.25;"/>
<line x1="209.400000" y1="52.000000" x2="231.400000" y2="72.000000"  style="stroke:black; stroke-linecap:round; stroke-width:0.25;"/>
<line x1="220.400000" y1="24.000000" x2="28.000000" y2="24.000000"  style="stroke:black; stroke-linecap:round; stroke-width:0.25;"/>
<line x1="231.400000" y1="32.000000" x2="248.300000" y2="32.000000"  style="stroke:black; stroke-linecap:round; stroke-width:0.25;"/>
<line x1="231.400000" y1="72.000000" x2="322.100000" y2="72.000000"  style="stroke:black; stroke-linecap:round; stroke-width:0.25;"/>
<line x1="248.300000" y1="32.000000" x2="265.200000" y2="32.000000"  style="stroke:black; stroke-linecap:round; stroke-width:0.25;"/>
<line x1="261.200000" y1="52.000000" x2="265.200000" y2="52.000000"  style="stroke:black; stroke-linecap:round; stroke-width:0.25;"/>
<line x1="265.200000" y1="32.000000" x2="273.200000" y2="32.000000"  style="stroke:black; stroke-linecap:round; stroke-width:0.25;"/>
<line x1="265.200000" y1="52.000000" x2="273.200000" y2="52.000000"  style="stroke:black; stroke-linecap:round; stroke-width:0.25;"/>
<line x1="273.200000" y1="32.000000" x2="273.200000" y2="44.000000"  style="stroke:black; stroke-linecap:round; stroke-width:0.25;"/>
<line x1="273.200000" y1="44.000000" x2="273.200000" y2="44.000000"  style="stroke:black; stroke-linecap:round; stroke-width:0.25;"/>
<line x1="273.200000" y1="44.000000" x2="277.200000" y2="44.000000"  style="stroke:black; stroke-linecap:round; stroke-width:0.25;"/>
<line x1="273.200000" y1="52.000000" x2="277.200000" y2="52.000000"  style="stroke:black; stroke-linecap:round; stroke-width:0.25;"/>
<line x1="301.200000" y1="48.000000" x2="305.200000" y2="48.000000"  style="stroke:black; stroke-linecap:round; stroke-width:0.25;"/>
<line x1="305.200000" y1="32.000000" x2="313.200000" y2="32.000000"  style="stroke:black; stroke-linecap:round; stroke-width:0.25;"/>
<line x1="305.200000" y1="48.000000" x2="305.200000" y2="32.000000"  style="stroke:black; stroke-linecap:round; stroke-width:0.25;"/>
<line x1="305.200000" y1="48.000000" x2="305.200000" y2="48.000000"  style="stroke:black; stroke-linecap:round; stroke-width:0.25;"/>
<line x1="313.200000" y1="32.000000" x2="343.000000" y2="32.000000"  style="stroke:black; stroke-linecap:round; stroke-width:0.25;"/>
<line x1="322.100000" y1="72.000000" x2="412.800000" y2="72.000000"  style="stroke:black; stroke-linecap:round; stroke-width:0.25;"/>
<line x1="343.000000" y1="32.000000" x2="372.800000" y2="32.000000"  style="stroke:black; stroke-linecap:round; stroke-width:0.25;"/>
<line x1="368.800000" y1="52.000000" x2="372.800000" y2="52.000000"  style="stroke:black; stroke-linecap:round; stroke-width:0.25;"/>
<line x1="372.800000" y1="52.000000" x2="380.800000" y2="52.000000"  style="stroke:black; stroke-linecap:round; stroke-width:0.25;"/>
<line x1="372.800000" y1="32.000000" x2="380.800000" y2="32.000000"  style="stroke:black; stroke-linecap:round; stroke-width:0.25;"/>
<line x1="380.800000" y1="44.000000" x2="384.800000" y2="44.000000"  style="stroke:black; stroke-linecap:round; stroke-width:0.25;"/>
<line x1="380.800000" y1="52.000000" x2="384.800000" y2="52.000000"  style="stroke:black; stroke-linecap:round; stroke-width:0.25;"/>
<line x1="380.800000" y1="32.000000" x2="380.800000" y2="44.000000"  style="stroke:black; stroke-linecap:round; stroke-width:0.25;"/>
<line x1="380.800000" y1="44.000000" x2="380.800000" y2="44.000000"  style="stroke:black; stroke-linecap:round; stroke-width:0.25;"/>
<line x1="408.800000" y1="48.000000" x2="412.800000" y2="48.000000"  style="stroke:black; stroke-linecap:round; stroke-width:0.25;"/>
<line x1="412.800000" y1="24.000000" x2="220.400000" y2="24.000000"  style="stroke:black; stroke-linecap:round; stroke-width:0.25;"/>
<line x1="412.800000" y1="24.000000" x2="412.800000" y2="24.000000"  style="stroke:black; stroke-linecap:round; stroke-width:0.25;"/>
<line x1="412.800000" y1="44.000000" x2="412.800000" y2="24.000000"  style="stroke:black; stroke-linecap:round; stroke-width:0.25;"/>
<line x1="412.800000" y1="48.000000" x2="414.800000" y2="48.000000"  style="stroke:black; stroke-linecap:round; stroke-width:0.25;"/>
<line x1="412.800000" y1="72.000000" x2="420.800000" y2="72.000000"  style="stroke:black; stroke-linecap:round; stroke-width:0.25;"/>
<line x1="414.800000" y1="48.000000" x2="420.800000" y2="48.000000"  style="stroke:black; stroke-linecap:round; stroke-width:0.25;"/>
<line x1="420.800000" y1="44.000000" x2="436.800000" y2="44.000000"  style="stroke:black; stroke-linecap:round; stroke-width:0.25;"/>
<line x1="420.800000" y1="48.000000" x2="420.800000" y2="44.000000"  style="stroke:black; stroke-linecap:round; stroke-width:0.25;"/>
<line x1="420.800000" y1="48.000000" x2="420.800000" y2="48.000000"  style="stroke:black; stroke-linecap:round; stroke-width:0.25;"/>
<line x1="420.800000" y1="72.000000" x2="428.800000" y2="72.000000"  style="stroke:black; stroke-linecap:round; stroke-width:0.25;"/>
<line x1="428.800000" y1="52.000000" x2="436.800000" y2="52.000000"  style="stroke:black; stroke-linecap:round; stroke-width:0.25;"/>
<line x1="428.800000" y1="72.000000" x2="428.800000" y2="52.000000"  style="stroke:black; stroke-linecap:round; stroke-width:0.25;"/>
<line x1="436.800000" y1="44.000000" x2="440.800000" y2="44.000000"  style="stroke:black; stroke-linecap:round; stroke-width:0.25;"/>
<line x1="436.800000" y1="52.000000" x2="440.800000" y2="52.000000"  style="stroke:black; stroke-linecap:round; stroke-width:0.25;"/>
<line x1="440.800000" y1="44.000000" x2="444.800000" y2="44.000000"  style="stroke:black; stroke-linecap:round; stroke-width:0.25;"/>
<line x1="440.800000" y1="52.000000" x2="444.800000" y2="52.000000"  style="stroke:black; stroke-linecap:round; stroke-width:0.25;"/>
<line x1="444.800000" y1="44.000000" x2="454.800000" y2="44.000000"  style="stroke:black; stroke-linecap:round; stroke-width:0.25;"/>
<line x1="444.800000" y1="52.000000" x2="454.800000" y2="52.000000"  style="stroke:black; stroke-linecap:round; stroke-width:0.25;"/>
</svg>
