<?xml version="1.0"?>
<svg xmlns="http://www.w3.org/2000/svg" xmlns:xlink="http://www.w3.org/1999/xlink" viewBox="0 0 318.700000 220.000000" width="159.350000mm" height="110.000000mm" version="1.1">
<a xlink:href="mapping-0x6c6fa20.svg">
<rect x="1.000000" y="1.000000" width="317.700000" height="219.000000" rx="0" ry="0" style="stroke:none;fill:#cccccc;"/>
<rect x="0.000000" y="0.000000" width="317.700000" height="219.000000" rx="0" ry="0" style="stroke:none;fill:#ffffff;"/>
</a>
<text x="10.000000" y="7.000000" font-family="Arial" font-size="7"></text>
<a xlink:href="magnitude-0x6c6d420.svg">
<rect x="101.000000" y="25.000000" width="38.700000" height="24.000000" rx="0" ry="0" style="stroke:none;fill:#cccccc;"/>
<rect x="100.000000" y="24.000000" width="38.700000" height="24.000000" rx="0" ry="0" style="stroke:none;fill:#003366;"/>
</a>
<a xlink:href="magnitude-0x6c6d420.svg">
<text x="119.350000" y="38.000000" font-family="Arial" font-size="7" text-anchor="middle" fill="#FFFFFF">magnitude</text>
</a>
<circle cx="102.000000" cy="26.000000" r="1"/>
<rect x="147.700000" y="25.000000" width="24.000000" height="24.000000" rx="0" ry="0" style="stroke:none;fill:#cccccc;"/>
<rect x="146.700000" y="24.000000" width="24.000000" height="24.000000" rx="0" ry="0" style="stroke:none;fill:#4B71A1;"/>
<text x="158.700000" y="38.000000" font-family="Arial" font-size="7" text-anchor="middle" fill="#FFFFFF">log</text>
<circle cx="148.700000" cy="26.000000" r="1"/>
<line x1="143.700000" y1="35.000000" x2="146.700000" y2="36.000000"  transform="rotate(0.000000,146.700000,36.000000)" style="stroke: black; stroke-width:0.25;"/>
<line x1="143.700000" y1="37.000000" x2="146.700000" y2="36.000000"  transform="rotate(0.000000,146.700000,36.000000)" style="stroke: black; stroke-width:0.25;"/>
<a xlink:href="qfactor-0x3dcca50.svg">
<rect x="25.000000" y="57.000000" width="38.700000" height="24.000000" rx="0" ry="0" style="stroke:none;fill:#cccccc;"/>
<rect x="24.000000" y="56.000000" width="38.700000" height="24.000000" rx="0" ry="0" style="stroke:none;fill:#003366;"/>
</a>
<a xlink:href="qfactor-0x3dcca50.svg">
<text x="43.350000" y="70.000000" font-family="Arial" font-size="7" text-anchor="middle" fill="#FFFFFF">qfactor</text>
</a>
<circle cx="26.000000" cy="58.000000" r="1"/>
<a xlink:href="magnitude-0x6c6d420.svg">
<rect x="25.000000" y="89.000000" width="38.700000" height="24.000000" rx="0" ry="0" style="stroke:none;fill:#cccccc;"/>
<rect x="24.000000" y="88.000000" width="38.700000" height="24.000000" rx="0" ry="0" style="stroke:none;fill:#003366;"/>
</a>
<a xlink:href="magnitude-0x6c6d420.svg">
<text x="43.350000" y="102.000000" font-family="Arial" font-size="7" text-anchor="middle" fill="#FFFFFF">magnitude</text>
</a>
<circle cx="26.000000" cy="90.000000" r="1"/>
<rect x="79.700000" y="73.000000" width="24.000000" height="24.000000" rx="0" ry="0" style="stroke:none;fill:#cccccc;"/>
<rect x="78.700000" y="72.000000" width="24.000000" height="24.000000" rx="0" ry="0" style="stroke:none;fill:#4B71A1;"/>
<text x="90.700000" y="86.000000" font-family="Arial" font-size="7" text-anchor="middle" fill="#FFFFFF">*</text>
<circle cx="80.700000" cy="74.000000" r="1"/>
<line x1="75.700000" y1="79.000000" x2="78.700000" y2="80.000000"  transform="rotate(0.000000,78.700000,80.000000)" style="stroke: black; stroke-width:0.25;"/>
<line x1="75.700000" y1="81.000000" x2="78.700000" y2="80.000000"  transform="rotate(0.000000,78.700000,80.000000)" style="stroke: black; stroke-width:0.25;"/>
<line x1="75.700000" y1="87.000000" x2="78.700000" y2="88.000000"  transform="rotate(0.000000,78.700000,88.000000)" style="stroke: black; stroke-width:0.25;"/>
<line x1="75.700000" y1="89.000000" x2="78.700000" y2="88.000000"  transform="rotate(0.000000,78.700000,88.000000)" style="stroke: black; stroke-width:0.25;"/>
<rect x="45.000000" y="131.000000" width="38.700000" height="24.000000" rx="0" ry="0" style="stroke:none;fill:#cccccc;"/>
<rect x="44.000000" y="130.000000" width="38.700000" height="24.000000" rx="0" ry="0" style="stroke:none;fill:#f44800;"/>
<text x="63.350000" y="144.000000" font-family="Arial" font-size="7" text-anchor="middle" fill="#FFFFFF">3.14159</text>
<circle cx="46.000000" cy="132.000000" r="1"/>
<line x1="35.000000" y1="121.000000" x2="35.000000" y2="163.000000"  style="stroke: black; stroke-linecap:round; stroke-width:0.25; stroke-dasharray:3,3;"/>
<line x1="35.000000" y1="163.000000" x2="91.700000" y2="163.000000"  style="stroke: black; stroke-linecap:round; stroke-width:0.25; stroke-dasharray:3,3;"/>
<line x1="91.700000" y1="163.000000" x2="91.700000" y2="121.000000"  style="stroke: black; stroke-linecap:round; stroke-width:0.25; stroke-dasharray:3,3;"/>
<line x1="35.000000" y1="121.000000" x2="40.000000" y2="121.000000"  style="stroke: black; stroke-linecap:round; stroke-width:0.25; stroke-dasharray:3,3;"/>
<line x1="52.900000" y1="121.000000" x2="91.700000" y2="121.000000"  style="stroke: black; stroke-linecap:round; stroke-width:0.25; stroke-dasharray:3,3;"/>
<text x="40.000000" y="123.000000" font-family="Arial" font-size="7">PI</text>
<rect x="119.700000" y="99.000000" width="24.000000" height="24.000000" rx="0" ry="0" style="stroke:none;fill:#cccccc;"/>
<rect x="118.700000" y="98.000000" width="24.000000" height="24.000000" rx="0" ry="0" style="stroke:none;fill:#4B71A1;"/>
<text x="130.700000" y="112.000000" font-family="Arial" font-size="7" text-anchor="middle" fill="#FFFFFF">*</text>
<circle cx="120.700000" cy="100.000000" r="1"/>
<line x1="115.700000" y1="105.000000" x2="118.700000" y2="106.000000"  transform="rotate(0.000000,118.700000,106.000000)" style="stroke: black; stroke-width:0.25;"/>
<line x1="115.700000" y1="107.000000" x2="118.700000" y2="106.000000"  transform="rotate(0.000000,118.700000,106.000000)" style="stroke: black; stroke-width:0.25;"/>
<line x1="115.700000" y1="113.000000" x2="118.700000" y2="114.000000"  transform="rotate(0.000000,118.700000,114.000000)" style="stroke: black; stroke-width:0.25;"/>
<line x1="115.700000" y1="115.000000" x2="118.700000" y2="114.000000"  transform="rotate(0.000000,118.700000,114.000000)" style="stroke: black; stroke-width:0.25;"/>
<rect x="72.350000" y="173.000000" width="24.000000" height="24.000000" rx="0" ry="0" style="stroke:none;fill:#cccccc;"/>
<rect x="71.350000" y="172.000000" width="24.000000" height="24.000000" rx="0" ry="0" style="stroke:none;fill:#f44800;"/>
<text x="83.350000" y="186.000000" font-family="Arial" font-size="7" text-anchor="middle" fill="#FFFFFF">2</text>
<circle cx="73.350000" cy="174.000000" r="1"/>
<rect x="159.700000" y="115.000000" width="24.000000" height="24.000000" rx="0" ry="0" style="stroke:none;fill:#cccccc;"/>
<rect x="158.700000" y="114.000000" width="24.000000" height="24.000000" rx="0" ry="0" style="stroke:none;fill:#4B71A1;"/>
<text x="170.700000" y="128.000000" font-family="Arial" font-size="7" text-anchor="middle" fill="#FFFFFF">/</text>
<circle cx="160.700000" cy="116.000000" r="1"/>
<line x1="155.700000" y1="121.000000" x2="158.700000" y2="122.000000"  transform="rotate(0.000000,158.700000,122.000000)" style="stroke: black; stroke-width:0.25;"/>
<line x1="155.700000" y1="123.000000" x2="158.700000" y2="122.000000"  transform="rotate(0.000000,158.700000,122.000000)" style="stroke: black; stroke-width:0.25;"/>
<line x1="155.700000" y1="129.000000" x2="158.700000" y2="130.000000"  transform="rotate(0.000000,158.700000,130.000000)" style="stroke: black; stroke-width:0.25;"/>
<line x1="155.700000" y1="131.000000" x2="158.700000" y2="130.000000"  transform="rotate(0.000000,158.700000,130.000000)" style="stroke: black; stroke-width:0.25;"/>
<rect x="191.700000" y="115.000000" width="24.000000" height="24.000000" rx="0" ry="0" style="stroke:none;fill:#cccccc;"/>
<rect x="190.700000" y="114.000000" width="24.000000" height="24.000000" rx="0" ry="0" style="stroke:none;fill:#4B71A1;"/>
<text x="202.700000" y="128.000000" font-family="Arial" font-size="7" text-anchor="middle" fill="#FFFFFF">sin</text>
<circle cx="192.700000" cy="116.000000" r="1"/>
<line x1="187.700000" y1="125.000000" x2="190.700000" y2="126.000000"  transform="rotate(0.000000,190.700000,126.000000)" style="stroke: black; stroke-width:0.25;"/>
<line x1="187.700000" y1="127.000000" x2="190.700000" y2="126.000000"  transform="rotate(0.000000,190.700000,126.000000)" style="stroke: black; stroke-width:0.25;"/>
<rect x="223.700000" y="115.000000" width="24.000000" height="24.000000" rx="0" ry="0" style="stroke:none;fill:#cccccc;"/>
<rect x="222.700000" y="114.000000" width="24.000000" height="24.000000" rx="0" ry="0" style="stroke:none;fill:#4B71A1;"/>
<text x="234.700000" y="128.000000" font-family="Arial" font-size="7" text-anchor="middle" fill="#FFFFFF">log</text>
<circle cx="224.700000" cy="116.000000" r="1"/>
<line x1="219.700000" y1="125.000000" x2="222.700000" y2="126.000000"  transform="rotate(0.000000,222.700000,126.000000)" style="stroke: black; stroke-width:0.25;"/>
<line x1="219.700000" y1="127.000000" x2="222.700000" y2="126.000000"  transform="rotate(0.000000,222.700000,126.000000)" style="stroke: black; stroke-width:0.25;"/>
<rect x="263.700000" y="99.000000" width="24.000000" height="24.000000" rx="0" ry="0" style="stroke:none;fill:#cccccc;"/>
<rect x="262.700000" y="98.000000" width="24.000000" height="24.000000" rx="0" ry="0" style="stroke:none;fill:#4B71A1;"/>
<text x="274.700000" y="112.000000" font-family="Arial" font-size="7" text-anchor="middle" fill="#FFFFFF">/</text>
<circle cx="264.700000" cy="100.000000" r="1"/>
<line x1="259.700000" y1="105.000000" x2="262.700000" y2="106.000000"  transform="rotate(0.000000,262.700000,106.000000)" style="stroke: black; stroke-width:0.25;"/>
<line x1="259.700000" y1="107.000000" x2="262.700000" y2="106.000000"  transform="rotate(0.000000,262.700000,106.000000)" style="stroke: black; stroke-width:0.25;"/>
<line x1="259.700000" y1="113.000000" x2="262.700000" y2="114.000000"  transform="rotate(0.000000,262.700000,114.000000)" style="stroke: black; stroke-width:0.25;"/>
<line x1="259.700000" y1="115.000000" x2="262.700000" y2="114.000000"  transform="rotate(0.000000,262.700000,114.000000)" style="stroke: black; stroke-width:0.25;"/>
<line x1="15.000000" y1="15.000000" x2="15.000000" y2="205.000000"  style="stroke: black; stroke-linecap:round; stroke-width:0.25; stroke-dasharray:3,3;"/>
<line x1="15.000000" y1="205.000000" x2="303.700000" y2="205.000000"  style="stroke: black; stroke-linecap:round; stroke-width:0.25; stroke-dasharray:3,3;"/>
<line x1="303.700000" y1="205.000000" x2="303.700000" y2="15.000000"  style="stroke: black; stroke-linecap:round; stroke-width:0.25; stroke-dasharray:3,3;"/>
<line x1="15.000000" y1="15.000000" x2="20.000000" y2="15.000000"  style="stroke: black; stroke-linecap:round; stroke-width:0.25; stroke-dasharray:3,3;"/>
<line x1="52.250000" y1="15.000000" x2="303.700000" y2="15.000000"  style="stroke: black; stroke-linecap:round; stroke-width:0.25; stroke-dasharray:3,3;"/>
<text x="20.000000" y="17.000000" font-family="Arial" font-size="7">exponent</text>
<line x1="305.700000" y1="109.000000" x2="308.700000" y2="110.000000"  transform="rotate(0.000000,308.700000,110.000000)" style="stroke: black; stroke-width:0.25;"/>
<line x1="305.700000" y1="111.000000" x2="308.700000" y2="110.000000"  transform="rotate(0.000000,308.700000,110.000000)" style="stroke: black; stroke-width:0.25;"/>
<line x1="62.700000" y1="68.000000" x2="66.700000" y2="68.000000"  style="stroke:black; stroke-linecap:round; stroke-width:0.25;"/>
<line x1="62.700000" y1="100.000000" x2="66.700000" y2="100.000000"  style="stroke:black; stroke-linecap:round; stroke-width:0.25;"/>
<line x1="66.700000" y1="68.000000" x2="74.700000" y2="68.000000"  style="stroke:black; stroke-linecap:round; stroke-width:0.25;"/>
<line x1="66.700000" y1="88.000000" x2="74.700000" y2="88.000000"  style="stroke:black; stroke-linecap:round; stroke-width:0.25;"/>
<line x1="66.700000" y1="100.000000" x2="66.700000" y2="88.000000"  style="stroke:black; stroke-linecap:round; stroke-width:0.25;"/>
<line x1="66.700000" y1="100.000000" x2="66.700000" y2="100.000000"  style="stroke:black; stroke-linecap:round; stroke-width:0.25;"/>
<line x1="74.700000" y1="68.000000" x2="74.700000" y2="80.000000"  style="stroke:black; stroke-linecap:round; stroke-width:0.25;"/>
<line x1="74.700000" y1="80.000000" x2="74.700000" y2="80.000000"  style="stroke:black; stroke-linecap:round; stroke-width:0.25;"/>
<line x1="74.700000" y1="80.000000" x2="78.700000" y2="80.000000"  style="stroke:black; stroke-linecap:round; stroke-width:0.25;"/>
<line x1="74.700000" y1="88.000000" x2="78.700000" y2="88.000000"  style="stroke:black; stroke-linecap:round; stroke-width:0.25;"/>
<line x1="82.700000" y1="142.000000" x2="86.700000" y2="142.000000"  style="stroke:black; stroke-linecap:round; stroke-width:0.25;"/>
<line x1="86.700000" y1="142.000000" x2="96.700000" y2="142.000000"  style="stroke:black; stroke-linecap:round; stroke-width:0.25;"/>
<line x1="95.350000" y1="184.000000" x2="99.350000" y2="184.000000"  style="stroke:black; stroke-linecap:round; stroke-width:0.25;"/>
<line x1="96.700000" y1="142.000000" x2="106.700000" y2="142.000000"  style="stroke:black; stroke-linecap:round; stroke-width:0.25;"/>
<line x1="99.350000" y1="184.000000" x2="146.700000" y2="184.000000"  style="stroke:black; stroke-linecap:round; stroke-width:0.25;"/>
<line x1="102.700000" y1="84.000000" x2="106.700000" y2="84.000000"  style="stroke:black; stroke-linecap:round; stroke-width:0.25;"/>
<line x1="106.700000" y1="84.000000" x2="114.700000" y2="84.000000"  style="stroke:black; stroke-linecap:round; stroke-width:0.25;"/>
<line x1="106.700000" y1="114.000000" x2="114.700000" y2="114.000000"  style="stroke:black; stroke-linecap:round; stroke-width:0.25;"/>
<line x1="106.700000" y1="142.000000" x2="106.700000" y2="114.000000"  style="stroke:black; stroke-linecap:round; stroke-width:0.25;"/>
<line x1="106.700000" y1="142.000000" x2="106.700000" y2="142.000000"  style="stroke:black; stroke-linecap:round; stroke-width:0.25;"/>
<line x1="114.700000" y1="84.000000" x2="114.700000" y2="106.000000"  style="stroke:black; stroke-linecap:round; stroke-width:0.25;"/>
<line x1="114.700000" y1="106.000000" x2="114.700000" y2="106.000000"  style="stroke:black; stroke-linecap:round; stroke-width:0.25;"/>
<line x1="114.700000" y1="106.000000" x2="118.700000" y2="106.000000"  style="stroke:black; stroke-linecap:round; stroke-width:0.25;"/>
<line x1="114.700000" y1="114.000000" x2="118.700000" y2="114.000000"  style="stroke:black; stroke-linecap:round; stroke-width:0.25;"/>
<line x1="138.700000" y1="36.000000" x2="142.700000" y2="36.000000"  style="stroke:black; stroke-linecap:round; stroke-width:0.25;"/>
<line x1="142.700000" y1="36.000000" x2="142.700000" y2="36.000000"  style="stroke:black; stroke-linecap:round; stroke-width:0.25;"/>
<line x1="142.700000" y1="36.000000" x2="146.700000" y2="36.000000"  style="stroke:black; stroke-linecap:round; stroke-width:0.25;"/>
<line x1="142.700000" y1="110.000000" x2="146.700000" y2="110.000000"  style="stroke:black; stroke-linecap:round; stroke-width:0.25;"/>
<line x1="146.700000" y1="110.000000" x2="154.700000" y2="110.000000"  style="stroke:black; stroke-linecap:round; stroke-width:0.25;"/>
<line x1="146.700000" y1="130.000000" x2="154.700000" y2="130.000000"  style="stroke:black; stroke-linecap:round; stroke-width:0.25;"/>
<line x1="146.700000" y1="184.000000" x2="146.700000" y2="130.000000"  style="stroke:black; stroke-linecap:round; stroke-width:0.25;"/>
<line x1="146.700000" y1="184.000000" x2="146.700000" y2="184.000000"  style="stroke:black; stroke-linecap:round; stroke-width:0.25;"/>
<line x1="154.700000" y1="110.000000" x2="154.700000" y2="122.000000"  style="stroke:black; stroke-linecap:round; stroke-width:0.25;"/>
<line x1="154.700000" y1="122.000000" x2="154.700000" y2="122.000000"  style="stroke:black; stroke-linecap:round; stroke-width:0.25;"/>
<line x1="154.700000" y1="122.000000" x2="158.700000" y2="122.000000"  style="stroke:black; stroke-linecap:round; stroke-width:0.25;"/>
<line x1="154.700000" y1="130.000000" x2="158.700000" y2="130.000000"  style="stroke:black; stroke-linecap:round; stroke-width:0.25;"/>
<line x1="170.700000" y1="36.000000" x2="174.700000" y2="36.000000"  style="stroke:black; stroke-linecap:round; stroke-width:0.25;"/>
<line x1="174.700000" y1="36.000000" x2="250.700000" y2="36.000000"  style="stroke:black; stroke-linecap:round; stroke-width:0.25;"/>
<line x1="182.700000" y1="126.000000" x2="186.700000" y2="126.000000"  style="stroke:black; stroke-linecap:round; stroke-width:0.25;"/>
<line x1="186.700000" y1="126.000000" x2="186.700000" y2="126.000000"  style="stroke:black; stroke-linecap:round; stroke-width:0.25;"/>
<line x1="186.700000" y1="126.000000" x2="190.700000" y2="126.000000"  style="stroke:black; stroke-linecap:round; stroke-width:0.25;"/>
<line x1="214.700000" y1="126.000000" x2="218.700000" y2="126.000000"  style="stroke:black; stroke-linecap:round; stroke-width:0.25;"/>
<line x1="218.700000" y1="126.000000" x2="218.700000" y2="126.000000"  style="stroke:black; stroke-linecap:round; stroke-width:0.25;"/>
<line x1="218.700000" y1="126.000000" x2="222.700000" y2="126.000000"  style="stroke:black; stroke-linecap:round; stroke-width:0.25;"/>
<line x1="246.700000" y1="126.000000" x2="250.700000" y2="126.000000"  style="stroke:black; stroke-linecap:round; stroke-width:0.25;"/>
<line x1="250.700000" y1="36.000000" x2="258.700000" y2="36.000000"  style="stroke:black; stroke-linecap:round; stroke-width:0.25;"/>
<line x1="250.700000" y1="114.000000" x2="258.700000" y2="114.000000"  style="stroke:black; stroke-linecap:round; stroke-width:0.25;"/>
<line x1="250.700000" y1="126.000000" x2="250.700000" y2="114.000000"  style="stroke:black; stroke-linecap:round; stroke-width:0.25;"/>
<line x1="250.700000" y1="126.000000" x2="250.700000" y2="126.000000"  style="stroke:black; stroke-linecap:round; stroke-width:0.25;"/>
<line x1="258.700000" y1="36.000000" x2="258.700000" y2="106.000000"  style="stroke:black; stroke-linecap:round; stroke-width:0.25;"/>
<line x1="258.700000" y1="106.000000" x2="258.700000" y2="106.000000"  style="stroke:black; stroke-linecap:round; stroke-width:0.25;"/>
<line x1="258.700000" y1="106.000000" x2="262.700000" y2="106.000000"  style="stroke:black; stroke-linecap:round; stroke-width:0.25;"/>
<line x1="258.700000" y1="114.000000" x2="262.700000" y2="114.000000"  style="stroke:black; stroke-linecap:round; stroke-width:0.25;"/>
<line x1="286.700000" y1="110.000000" x2="290.700000" y2="110.000000"  style="stroke:black; stroke-linecap:round; stroke-width:0.25;"/>
<line x1="290.700000" y1="110.000000" x2="290.700000" y2="110.000000"  style="stroke:black; stroke-linecap:round; stroke-width:0.25;"/>
<line x1="290.700000" y1="110.000000" x2="294.700000" y2="110.000000"  style="stroke:black; stroke-linecap:round; stroke-width:0.25;"/>
<line x1="294.700000" y1="110.000000" x2="298.700000" y2="110.000000"  style="stroke:black; stroke-linecap:round; stroke-width:0.25;"/>
<line x1="298.700000" y1="110.000000" x2="308.700000" y2="110.000000"  style="stroke:black; stroke-linecap:round; stroke-width:0.25;"/>
</svg>
