<?xml version="1.0"?>
<svg xmlns="http://www.w3.org/2000/svg" xmlns:xlink="http://www.w3.org/1999/xlink" viewBox="0 0 224.500000 172.000000" width="112.250000mm" height="86.000000mm" version="1.1">
<a xlink:href="holdsig-0x6ebd960.svg">
<rect x="1.000000" y="1.000000" width="223.500000" height="171.000000" rx="0" ry="0" style="stroke:none;fill:#cccccc;"/>
<rect x="0.000000" y="0.000000" width="223.500000" height="171.000000" rx="0" ry="0" style="stroke:none;fill:#ffffff;"/>
</a>
<text x="10.000000" y="7.000000" font-family="Arial" font-size="7"></text>
<a xlink:href="holdreset-0x6eb9ee0.svg">
<rect x="33.000000" y="85.000000" width="64.500000" height="24.000000" rx="0" ry="0" style="stroke:none;fill:#cccccc;"/>
<rect x="32.000000" y="84.000000" width="64.500000" height="24.000000" rx="0" ry="0" style="stroke:none;fill:#003366;"/>
</a>
<a xlink:href="holdreset-0x6eb9ee0.svg">
<text x="64.250000" y="98.000000" font-family="Arial" font-size="7" text-anchor="middle" fill="#FFFFFF">holdreset(x678)</text>
</a>
<circle cx="34.000000" cy="86.000000" r="1"/>
<a xlink:href="holdsamps-0x51eb5d0.svg">
<rect x="45.900000" y="117.000000" width="38.700000" height="24.000000" rx="0" ry="0" style="stroke:none;fill:#cccccc;"/>
<rect x="44.900000" y="116.000000" width="38.700000" height="24.000000" rx="0" ry="0" style="stroke:none;fill:#003366;"/>
</a>
<a xlink:href="holdsamps-0x51eb5d0.svg">
<text x="64.250000" y="130.000000" font-family="Arial" font-size="7" text-anchor="middle" fill="#FFFFFF">holdsamps</text>
</a>
<circle cx="46.900000" cy="118.000000" r="1"/>
<rect x="113.500000" y="101.000000" width="24.000000" height="24.000000" rx="0" ry="0" style="stroke:none;fill:#cccccc;"/>
<rect x="112.500000" y="100.000000" width="24.000000" height="24.000000" rx="0" ry="0" style="stroke:none;fill:#4B71A1;"/>
<text x="124.500000" y="114.000000" font-family="Arial" font-size="7" text-anchor="middle" fill="#FFFFFF">*</text>
<circle cx="114.500000" cy="102.000000" r="1"/>
<line x1="109.500000" y1="107.000000" x2="112.500000" y2="108.000000"  transform="rotate(0.000000,112.500000,108.000000)" style="stroke: black; stroke-width:0.25;"/>
<line x1="109.500000" y1="109.000000" x2="112.500000" y2="108.000000"  transform="rotate(0.000000,112.500000,108.000000)" style="stroke: black; stroke-width:0.25;"/>
<line x1="109.500000" y1="115.000000" x2="112.500000" y2="116.000000"  transform="rotate(0.000000,112.500000,116.000000)" style="stroke: black; stroke-width:0.25;"/>
<line x1="109.500000" y1="117.000000" x2="112.500000" y2="116.000000"  transform="rotate(0.000000,112.500000,116.000000)" style="stroke: black; stroke-width:0.25;"/>
<rect x="153.500000" y="105.000000" width="24.000000" height="24.000000" rx="0" ry="0" style="stroke:none;fill:#cccccc;"/>
<rect x="152.500000" y="104.000000" width="24.000000" height="24.000000" rx="0" ry="0" style="stroke:none;fill:#4B71A1;"/>
<text x="164.500000" y="118.000000" font-family="Arial" font-size="7" text-anchor="middle" fill="#FFFFFF">max</text>
<circle cx="154.500000" cy="106.000000" r="1"/>
<line x1="149.500000" y1="111.000000" x2="152.500000" y2="112.000000"  transform="rotate(0.000000,152.500000,112.000000)" style="stroke: black; stroke-width:0.25;"/>
<line x1="149.500000" y1="113.000000" x2="152.500000" y2="112.000000"  transform="rotate(0.000000,152.500000,112.000000)" style="stroke: black; stroke-width:0.25;"/>
<line x1="149.500000" y1="119.000000" x2="152.500000" y2="120.000000"  transform="rotate(0.000000,152.500000,120.000000)" style="stroke: black; stroke-width:0.25;"/>
<line x1="149.500000" y1="121.000000" x2="152.500000" y2="120.000000"  transform="rotate(0.000000,152.500000,120.000000)" style="stroke: black; stroke-width:0.25;"/>
<rect x="113.250000" y="35.000000" width="24.000000" height="24.000000" rx="0" ry="0" style="stroke:none;fill:#cccccc;"/>
<rect x="112.250000" y="34.000000" width="24.000000" height="24.000000" rx="0" ry="0" style="stroke:none;fill:#f44800;"/>
<text x="124.250000" y="48.000000" font-family="Arial" font-size="7" text-anchor="middle" fill="#FFFFFF">1</text>
<circle cx="134.250000" cy="56.000000" r="1"/>
<line x1="103.250000" y1="25.000000" x2="103.250000" y2="67.000000"  style="stroke: black; stroke-linecap:round; stroke-width:0.25; stroke-dasharray:3,3;"/>
<line x1="103.250000" y1="67.000000" x2="145.250000" y2="67.000000"  style="stroke: black; stroke-linecap:round; stroke-width:0.25; stroke-dasharray:3,3;"/>
<line x1="145.250000" y1="67.000000" x2="145.250000" y2="25.000000"  style="stroke: black; stroke-linecap:round; stroke-width:0.25; stroke-dasharray:3,3;"/>
<line x1="103.250000" y1="25.000000" x2="108.250000" y2="25.000000"  style="stroke: black; stroke-linecap:round; stroke-width:0.25; stroke-dasharray:3,3;"/>
<line x1="145.250000" y1="25.000000" x2="145.250000" y2="25.000000"  style="stroke: black; stroke-linecap:round; stroke-width:0.25; stroke-dasharray:3,3;"/>
<text x="108.250000" y="27.000000" font-family="Arial" font-size="7">maxOctavation</text>
<rect x="63.250000" y="39.000000" width="24.000000" height="24.000000" rx="0" ry="0" style="stroke:none;fill:#cccccc;"/>
<rect x="62.250000" y="38.000000" width="24.000000" height="24.000000" rx="0" ry="0" style="stroke:none;fill:#4B71A1;"/>
<text x="74.250000" y="52.000000" font-family="Arial" font-size="7" text-anchor="middle" fill="#FFFFFF">-</text>
<circle cx="84.250000" cy="60.000000" r="1"/>
<line x1="89.250000" y1="53.000000" x2="86.250000" y2="54.000000"  transform="rotate(0.000000,86.250000,54.000000)" style="stroke: black; stroke-width:0.25;"/>
<line x1="89.250000" y1="55.000000" x2="86.250000" y2="54.000000"  transform="rotate(0.000000,86.250000,54.000000)" style="stroke: black; stroke-width:0.25;"/>
<line x1="89.250000" y1="45.000000" x2="86.250000" y2="46.000000"  transform="rotate(0.000000,86.250000,46.000000)" style="stroke: black; stroke-width:0.25;"/>
<line x1="89.250000" y1="47.000000" x2="86.250000" y2="46.000000"  transform="rotate(0.000000,86.250000,46.000000)" style="stroke: black; stroke-width:0.25;"/>
<line x1="178.500000" y1="116.000000" x2="178.500000" y2="112.000000"  style="stroke:black; stroke-linecap:round; stroke-width:0.25;"/>
<line x1="178.500000" y1="112.000000" x2="182.500000" y2="112.000000"  style="stroke:black; stroke-linecap:round; stroke-width:0.25;"/>
<line x1="182.500000" y1="112.000000" x2="182.500000" y2="116.000000"  style="stroke:black; stroke-linecap:round; stroke-width:0.25;"/>
<line x1="15.000000" y1="15.000000" x2="15.000000" y2="157.000000"  style="stroke: black; stroke-linecap:round; stroke-width:0.25; stroke-dasharray:3,3;"/>
<line x1="15.000000" y1="157.000000" x2="209.500000" y2="157.000000"  style="stroke: black; stroke-linecap:round; stroke-width:0.25; stroke-dasharray:3,3;"/>
<line x1="209.500000" y1="157.000000" x2="209.500000" y2="15.000000"  style="stroke: black; stroke-linecap:round; stroke-width:0.25; stroke-dasharray:3,3;"/>
<line x1="15.000000" y1="15.000000" x2="20.000000" y2="15.000000"  style="stroke: black; stroke-linecap:round; stroke-width:0.25; stroke-dasharray:3,3;"/>
<line x1="81.275000" y1="15.000000" x2="209.500000" y2="15.000000"  style="stroke: black; stroke-linecap:round; stroke-width:0.25; stroke-dasharray:3,3;"/>
<text x="20.000000" y="17.000000" font-family="Arial" font-size="7">holdcounter(x678)</text>
<line x1="211.500000" y1="85.000000" x2="214.500000" y2="86.000000"  transform="rotate(0.000000,214.500000,86.000000)" style="stroke: black; stroke-width:0.25;"/>
<line x1="211.500000" y1="87.000000" x2="214.500000" y2="86.000000"  transform="rotate(0.000000,214.500000,86.000000)" style="stroke: black; stroke-width:0.25;"/>
<line x1="28.000000" y1="50.000000" x2="28.000000" y2="50.000000"  style="stroke:black; stroke-linecap:round; stroke-width:0.25;"/>
<line x1="28.000000" y1="50.000000" x2="28.000000" y2="148.000000"  style="stroke:black; stroke-linecap:round; stroke-width:0.25;"/>
<line x1="28.000000" y1="148.000000" x2="28.000000" y2="148.000000"  style="stroke:black; stroke-linecap:round; stroke-width:0.25;"/>
<line x1="28.000000" y1="148.000000" x2="84.250000" y2="148.000000"  style="stroke:black; stroke-linecap:round; stroke-width:0.25;"/>
<line x1="58.250000" y1="50.000000" x2="28.000000" y2="50.000000"  style="stroke:black; stroke-linecap:round; stroke-width:0.25;"/>
<line x1="62.250000" y1="50.000000" x2="58.250000" y2="50.000000"  style="stroke:black; stroke-linecap:round; stroke-width:0.25;"/>
<line x1="83.600000" y1="128.000000" x2="87.600000" y2="128.000000"  style="stroke:black; stroke-linecap:round; stroke-width:0.25;"/>
<line x1="84.250000" y1="148.000000" x2="140.500000" y2="148.000000"  style="stroke:black; stroke-linecap:round; stroke-width:0.25;"/>
<line x1="87.600000" y1="128.000000" x2="100.500000" y2="128.000000"  style="stroke:black; stroke-linecap:round; stroke-width:0.25;"/>
<line x1="90.250000" y1="46.000000" x2="86.250000" y2="46.000000"  style="stroke:black; stroke-linecap:round; stroke-width:0.25;"/>
<line x1="90.250000" y1="54.000000" x2="86.250000" y2="54.000000"  style="stroke:black; stroke-linecap:round; stroke-width:0.25;"/>
<line x1="90.250000" y1="54.000000" x2="90.250000" y2="54.000000"  style="stroke:black; stroke-linecap:round; stroke-width:0.25;"/>
<line x1="90.250000" y1="76.000000" x2="90.250000" y2="54.000000"  style="stroke:black; stroke-linecap:round; stroke-width:0.25;"/>
<line x1="96.500000" y1="96.000000" x2="100.500000" y2="96.000000"  style="stroke:black; stroke-linecap:round; stroke-width:0.25;"/>
<line x1="98.250000" y1="46.000000" x2="90.250000" y2="46.000000"  style="stroke:black; stroke-linecap:round; stroke-width:0.25;"/>
<line x1="98.250000" y1="76.000000" x2="90.250000" y2="76.000000"  style="stroke:black; stroke-linecap:round; stroke-width:0.25;"/>
<line x1="100.500000" y1="96.000000" x2="108.500000" y2="96.000000"  style="stroke:black; stroke-linecap:round; stroke-width:0.25;"/>
<line x1="100.500000" y1="116.000000" x2="108.500000" y2="116.000000"  style="stroke:black; stroke-linecap:round; stroke-width:0.25;"/>
<line x1="100.500000" y1="128.000000" x2="100.500000" y2="116.000000"  style="stroke:black; stroke-linecap:round; stroke-width:0.25;"/>
<line x1="100.500000" y1="128.000000" x2="100.500000" y2="128.000000"  style="stroke:black; stroke-linecap:round; stroke-width:0.25;"/>
<line x1="108.250000" y1="46.000000" x2="98.250000" y2="46.000000"  style="stroke:black; stroke-linecap:round; stroke-width:0.25;"/>
<line x1="108.500000" y1="96.000000" x2="108.500000" y2="108.000000"  style="stroke:black; stroke-linecap:round; stroke-width:0.25;"/>
<line x1="108.500000" y1="108.000000" x2="108.500000" y2="108.000000"  style="stroke:black; stroke-linecap:round; stroke-width:0.25;"/>
<line x1="108.500000" y1="108.000000" x2="112.500000" y2="108.000000"  style="stroke:black; stroke-linecap:round; stroke-width:0.25;"/>
<line x1="108.500000" y1="116.000000" x2="112.500000" y2="116.000000"  style="stroke:black; stroke-linecap:round; stroke-width:0.25;"/>
<line x1="112.250000" y1="46.000000" x2="108.250000" y2="46.000000"  style="stroke:black; stroke-linecap:round; stroke-width:0.25;"/>
<line x1="124.250000" y1="76.000000" x2="98.250000" y2="76.000000"  style="stroke:black; stroke-linecap:round; stroke-width:0.25;"/>
<line x1="136.500000" y1="112.000000" x2="140.500000" y2="112.000000"  style="stroke:black; stroke-linecap:round; stroke-width:0.25;"/>
<line x1="140.500000" y1="112.000000" x2="148.500000" y2="112.000000"  style="stroke:black; stroke-linecap:round; stroke-width:0.25;"/>
<line x1="140.500000" y1="120.000000" x2="148.500000" y2="120.000000"  style="stroke:black; stroke-linecap:round; stroke-width:0.25;"/>
<line x1="140.500000" y1="148.000000" x2="140.500000" y2="120.000000"  style="stroke:black; stroke-linecap:round; stroke-width:0.25;"/>
<line x1="140.500000" y1="148.000000" x2="140.500000" y2="148.000000"  style="stroke:black; stroke-linecap:round; stroke-width:0.25;"/>
<line x1="148.500000" y1="112.000000" x2="152.500000" y2="112.000000"  style="stroke:black; stroke-linecap:round; stroke-width:0.25;"/>
<line x1="148.500000" y1="120.000000" x2="152.500000" y2="120.000000"  style="stroke:black; stroke-linecap:round; stroke-width:0.25;"/>
<line x1="150.250000" y1="76.000000" x2="124.250000" y2="76.000000"  style="stroke:black; stroke-linecap:round; stroke-width:0.25;"/>
<line x1="176.500000" y1="116.000000" x2="180.500000" y2="116.000000"  style="stroke:black; stroke-linecap:round; stroke-width:0.25;"/>
<line x1="180.500000" y1="76.000000" x2="150.250000" y2="76.000000"  style="stroke:black; stroke-linecap:round; stroke-width:0.25;"/>
<line x1="180.500000" y1="76.000000" x2="180.500000" y2="76.000000"  style="stroke:black; stroke-linecap:round; stroke-width:0.25;"/>
<line x1="180.500000" y1="112.000000" x2="180.500000" y2="76.000000"  style="stroke:black; stroke-linecap:round; stroke-width:0.25;"/>
<line x1="180.500000" y1="116.000000" x2="182.500000" y2="116.000000"  style="stroke:black; stroke-linecap:round; stroke-width:0.25;"/>
<line x1="182.500000" y1="116.000000" x2="188.500000" y2="116.000000"  style="stroke:black; stroke-linecap:round; stroke-width:0.25;"/>
<line x1="188.500000" y1="86.000000" x2="196.500000" y2="86.000000"  style="stroke:black; stroke-linecap:round; stroke-width:0.25;"/>
<line x1="188.500000" y1="116.000000" x2="188.500000" y2="86.000000"  style="stroke:black; stroke-linecap:round; stroke-width:0.25;"/>
<line x1="188.500000" y1="116.000000" x2="188.500000" y2="116.000000"  style="stroke:black; stroke-linecap:round; stroke-width:0.25;"/>
<line x1="196.500000" y1="86.000000" x2="200.500000" y2="86.000000"  style="stroke:black; stroke-linecap:round; stroke-width:0.25;"/>
<line x1="200.500000" y1="86.000000" x2="204.500000" y2="86.000000"  style="stroke:black; stroke-linecap:round; stroke-width:0.25;"/>
<line x1="204.500000" y1="86.000000" x2="214.500000" y2="86.000000"  style="stroke:black; stroke-linecap:round; stroke-width:0.25;"/>
</svg>
