<?xml version="1.0"?>
<svg xmlns="http://www.w3.org/2000/svg" xmlns:xlink="http://www.w3.org/1999/xlink" viewBox="0 0 299.900000 152.000000" width="149.950000mm" height="76.000000mm" version="1.1">
<a xlink:href="amp-0x4d74f00.svg">
<rect x="1.000000" y="1.000000" width="298.900000" height="151.000000" rx="0" ry="0" style="stroke:none;fill:#cccccc;"/>
<rect x="0.000000" y="0.000000" width="298.900000" height="151.000000" rx="0" ry="0" style="stroke:none;fill:#ffffff;"/>
</a>
<text x="10.000000" y="7.000000" font-family="Arial" font-size="7"></text>
<rect x="105.700000" y="33.000000" width="24.000000" height="24.000000" rx="0" ry="0" style="stroke:none;fill:#cccccc;"/>
<rect x="104.700000" y="32.000000" width="24.000000" height="24.000000" rx="0" ry="0" style="stroke:none;fill:#4B71A1;"/>
<text x="116.700000" y="46.000000" font-family="Arial" font-size="7" text-anchor="middle" fill="#FFFFFF">&gt;</text>
<circle cx="106.700000" cy="34.000000" r="1"/>
<line x1="101.700000" y1="39.000000" x2="104.700000" y2="40.000000"  transform="rotate(0.000000,104.700000,40.000000)" style="stroke: black; stroke-width:0.25;"/>
<line x1="101.700000" y1="41.000000" x2="104.700000" y2="40.000000"  transform="rotate(0.000000,104.700000,40.000000)" style="stroke: black; stroke-width:0.25;"/>
<line x1="101.700000" y1="47.000000" x2="104.700000" y2="48.000000"  transform="rotate(0.000000,104.700000,48.000000)" style="stroke: black; stroke-width:0.25;"/>
<line x1="101.700000" y1="49.000000" x2="104.700000" y2="48.000000"  transform="rotate(0.000000,104.700000,48.000000)" style="stroke: black; stroke-width:0.25;"/>
<a xlink:href="tau2pole-0x4d72010.svg">
<rect x="79.000000" y="65.000000" width="77.400000" height="24.000000" rx="0" ry="0" style="stroke:none;fill:#cccccc;"/>
<rect x="78.000000" y="64.000000" width="77.400000" height="24.000000" rx="0" ry="0" style="stroke:none;fill:#003366;"/>
</a>
<a xlink:href="tau2pole-0x4d72010.svg">
<text x="116.700000" y="78.000000" font-family="Arial" font-size="7" text-anchor="middle" fill="#FFFFFF">tau2pole(0.0008f)</text>
</a>
<circle cx="80.000000" cy="66.000000" r="1"/>
<a xlink:href="tau2pole-0x4d70330.svg">
<rect x="79.000000" y="97.000000" width="77.400000" height="24.000000" rx="0" ry="0" style="stroke:none;fill:#cccccc;"/>
<rect x="78.000000" y="96.000000" width="77.400000" height="24.000000" rx="0" ry="0" style="stroke:none;fill:#003366;"/>
</a>
<a xlink:href="tau2pole-0x4d70330.svg">
<text x="116.700000" y="110.000000" font-family="Arial" font-size="7" text-anchor="middle" fill="#FFFFFF">tau2pole(0.002f)</text>
</a>
<circle cx="80.000000" cy="98.000000" r="1"/>
<rect x="172.400000" y="65.000000" width="38.700000" height="24.000000" rx="0" ry="0" style="stroke:none;fill:#cccccc;"/>
<rect x="171.400000" y="64.000000" width="38.700000" height="24.000000" rx="0" ry="0" style="stroke:none;fill:#4B71A1;"/>
<text x="190.750000" y="78.000000" font-family="Arial" font-size="7" text-anchor="middle" fill="#FFFFFF">select2</text>
<circle cx="173.400000" cy="66.000000" r="1"/>
<line x1="168.400000" y1="67.000000" x2="171.400000" y2="68.000000"  transform="rotate(0.000000,171.400000,68.000000)" style="stroke: black; stroke-width:0.25;"/>
<line x1="168.400000" y1="69.000000" x2="171.400000" y2="68.000000"  transform="rotate(0.000000,171.400000,68.000000)" style="stroke: black; stroke-width:0.25;"/>
<line x1="168.400000" y1="75.000000" x2="171.400000" y2="76.000000"  transform="rotate(0.000000,171.400000,76.000000)" style="stroke: black; stroke-width:0.25;"/>
<line x1="168.400000" y1="77.000000" x2="171.400000" y2="76.000000"  transform="rotate(0.000000,171.400000,76.000000)" style="stroke: black; stroke-width:0.25;"/>
<line x1="168.400000" y1="83.000000" x2="171.400000" y2="84.000000"  transform="rotate(0.000000,171.400000,84.000000)" style="stroke: black; stroke-width:0.25;"/>
<line x1="168.400000" y1="85.000000" x2="171.400000" y2="84.000000"  transform="rotate(0.000000,171.400000,84.000000)" style="stroke: black; stroke-width:0.25;"/>
<a xlink:href="smooth-0x4d74d80.svg">
<rect x="227.100000" y="69.000000" width="25.800000" height="24.000000" rx="0" ry="0" style="stroke:none;fill:#cccccc;"/>
<rect x="226.100000" y="68.000000" width="25.800000" height="24.000000" rx="0" ry="0" style="stroke:none;fill:#003366;"/>
</a>
<a xlink:href="smooth-0x4d74d80.svg">
<text x="239.000000" y="82.000000" font-family="Arial" font-size="7" text-anchor="middle" fill="#FFFFFF">smooth</text>
</a>
<circle cx="228.100000" cy="70.000000" r="1"/>
<line x1="223.100000" y1="75.000000" x2="226.100000" y2="76.000000"  transform="rotate(0.000000,226.100000,76.000000)" style="stroke: black; stroke-width:0.25;"/>
<line x1="223.100000" y1="77.000000" x2="226.100000" y2="76.000000"  transform="rotate(0.000000,226.100000,76.000000)" style="stroke: black; stroke-width:0.25;"/>
<line x1="223.100000" y1="83.000000" x2="226.100000" y2="84.000000"  transform="rotate(0.000000,226.100000,84.000000)" style="stroke: black; stroke-width:0.25;"/>
<line x1="223.100000" y1="85.000000" x2="226.100000" y2="84.000000"  transform="rotate(0.000000,226.100000,84.000000)" style="stroke: black; stroke-width:0.25;"/>
<line x1="253.900000" y1="80.000000" x2="253.900000" y2="76.000000"  style="stroke:black; stroke-linecap:round; stroke-width:0.25;"/>
<line x1="253.900000" y1="76.000000" x2="257.900000" y2="76.000000"  style="stroke:black; stroke-linecap:round; stroke-width:0.25;"/>
<line x1="257.900000" y1="76.000000" x2="257.900000" y2="80.000000"  style="stroke:black; stroke-linecap:round; stroke-width:0.25;"/>
<line x1="15.000000" y1="15.000000" x2="15.000000" y2="137.000000"  style="stroke: black; stroke-linecap:round; stroke-width:0.25; stroke-dasharray:3,3;"/>
<line x1="15.000000" y1="137.000000" x2="284.900000" y2="137.000000"  style="stroke: black; stroke-linecap:round; stroke-width:0.25; stroke-dasharray:3,3;"/>
<line x1="284.900000" y1="137.000000" x2="284.900000" y2="15.000000"  style="stroke: black; stroke-linecap:round; stroke-width:0.25; stroke-dasharray:3,3;"/>
<line x1="15.000000" y1="15.000000" x2="20.000000" y2="15.000000"  style="stroke: black; stroke-linecap:round; stroke-width:0.25; stroke-dasharray:3,3;"/>
<line x1="100.625000" y1="15.000000" x2="284.900000" y2="15.000000"  style="stroke: black; stroke-linecap:round; stroke-width:0.25; stroke-dasharray:3,3;"/>
<text x="20.000000" y="17.000000" font-family="Arial" font-size="7">lag_ud(0.0008f)(0.002f)</text>
<line x1="286.900000" y1="75.000000" x2="289.900000" y2="76.000000"  transform="rotate(0.000000,289.900000,76.000000)" style="stroke: black; stroke-width:0.25;"/>
<line x1="286.900000" y1="77.000000" x2="289.900000" y2="76.000000"  transform="rotate(0.000000,289.900000,76.000000)" style="stroke: black; stroke-width:0.25;"/>
<line x1="10.000000" y1="76.000000" x2="20.000000" y2="76.000000"  style="stroke:black; stroke-linecap:round; stroke-width:0.25;"/>
<line x1="20.000000" y1="76.000000" x2="24.000000" y2="76.000000"  style="stroke:black; stroke-linecap:round; stroke-width:0.25;"/>
<line x1="24.000000" y1="76.000000" x2="28.000000" y2="76.000000"  style="stroke:black; stroke-linecap:round; stroke-width:0.25;"/>
<line x1="28.000000" y1="76.000000" x2="28.000000" y2="76.000000"  style="stroke:black; stroke-linecap:round; stroke-width:0.25;"/>
<line x1="28.000000" y1="76.000000" x2="32.000000" y2="76.000000"  style="stroke:black; stroke-linecap:round; stroke-width:0.25;"/>
<line x1="32.000000" y1="76.000000" x2="36.000000" y2="76.000000"  style="stroke:black; stroke-linecap:round; stroke-width:0.25;"/>
<line x1="36.000000" y1="76.000000" x2="66.000000" y2="48.000000"  style="stroke:black; stroke-linecap:round; stroke-width:0.25;"/>
<line x1="36.000000" y1="76.000000" x2="66.000000" y2="128.000000"  style="stroke:black; stroke-linecap:round; stroke-width:0.25;"/>
<line x1="66.000000" y1="48.000000" x2="74.000000" y2="48.000000"  style="stroke:black; stroke-linecap:round; stroke-width:0.25;"/>
<line x1="66.000000" y1="128.000000" x2="74.000000" y2="128.000000"  style="stroke:black; stroke-linecap:round; stroke-width:0.25;"/>
<line x1="74.000000" y1="24.000000" x2="74.000000" y2="24.000000"  style="stroke:black; stroke-linecap:round; stroke-width:0.25;"/>
<line x1="74.000000" y1="24.000000" x2="74.000000" y2="40.000000"  style="stroke:black; stroke-linecap:round; stroke-width:0.25;"/>
<line x1="74.000000" y1="40.000000" x2="74.000000" y2="40.000000"  style="stroke:black; stroke-linecap:round; stroke-width:0.25;"/>
<line x1="74.000000" y1="40.000000" x2="100.700000" y2="40.000000"  style="stroke:black; stroke-linecap:round; stroke-width:0.25;"/>
<line x1="74.000000" y1="48.000000" x2="100.700000" y2="48.000000"  style="stroke:black; stroke-linecap:round; stroke-width:0.25;"/>
<line x1="74.000000" y1="128.000000" x2="144.050000" y2="128.000000"  style="stroke:black; stroke-linecap:round; stroke-width:0.25;"/>
<line x1="100.700000" y1="40.000000" x2="104.700000" y2="40.000000"  style="stroke:black; stroke-linecap:round; stroke-width:0.25;"/>
<line x1="100.700000" y1="48.000000" x2="104.700000" y2="48.000000"  style="stroke:black; stroke-linecap:round; stroke-width:0.25;"/>
<line x1="128.700000" y1="44.000000" x2="132.700000" y2="44.000000"  style="stroke:black; stroke-linecap:round; stroke-width:0.25;"/>
<line x1="132.700000" y1="44.000000" x2="159.400000" y2="44.000000"  style="stroke:black; stroke-linecap:round; stroke-width:0.25;"/>
<line x1="144.050000" y1="128.000000" x2="214.100000" y2="128.000000"  style="stroke:black; stroke-linecap:round; stroke-width:0.25;"/>
<line x1="155.400000" y1="76.000000" x2="159.400000" y2="76.000000"  style="stroke:black; stroke-linecap:round; stroke-width:0.25;"/>
<line x1="155.400000" y1="108.000000" x2="159.400000" y2="108.000000"  style="stroke:black; stroke-linecap:round; stroke-width:0.25;"/>
<line x1="159.400000" y1="44.000000" x2="167.400000" y2="44.000000"  style="stroke:black; stroke-linecap:round; stroke-width:0.25;"/>
<line x1="159.400000" y1="76.000000" x2="167.400000" y2="76.000000"  style="stroke:black; stroke-linecap:round; stroke-width:0.25;"/>
<line x1="159.400000" y1="84.000000" x2="167.400000" y2="84.000000"  style="stroke:black; stroke-linecap:round; stroke-width:0.25;"/>
<line x1="159.400000" y1="108.000000" x2="159.400000" y2="84.000000"  style="stroke:black; stroke-linecap:round; stroke-width:0.25;"/>
<line x1="159.400000" y1="108.000000" x2="159.400000" y2="108.000000"  style="stroke:black; stroke-linecap:round; stroke-width:0.25;"/>
<line x1="164.950000" y1="24.000000" x2="74.000000" y2="24.000000"  style="stroke:black; stroke-linecap:round; stroke-width:0.25;"/>
<line x1="167.400000" y1="44.000000" x2="167.400000" y2="68.000000"  style="stroke:black; stroke-linecap:round; stroke-width:0.25;"/>
<line x1="167.400000" y1="68.000000" x2="167.400000" y2="68.000000"  style="stroke:black; stroke-linecap:round; stroke-width:0.25;"/>
<line x1="167.400000" y1="68.000000" x2="171.400000" y2="68.000000"  style="stroke:black; stroke-linecap:round; stroke-width:0.25;"/>
<line x1="167.400000" y1="76.000000" x2="171.400000" y2="76.000000"  style="stroke:black; stroke-linecap:round; stroke-width:0.25;"/>
<line x1="167.400000" y1="84.000000" x2="171.400000" y2="84.000000"  style="stroke:black; stroke-linecap:round; stroke-width:0.25;"/>
<line x1="210.100000" y1="76.000000" x2="214.100000" y2="76.000000"  style="stroke:black; stroke-linecap:round; stroke-width:0.25;"/>
<line x1="214.100000" y1="76.000000" x2="222.100000" y2="76.000000"  style="stroke:black; stroke-linecap:round; stroke-width:0.25;"/>
<line x1="214.100000" y1="84.000000" x2="222.100000" y2="84.000000"  style="stroke:black; stroke-linecap:round; stroke-width:0.25;"/>
<line x1="214.100000" y1="128.000000" x2="214.100000" y2="84.000000"  style="stroke:black; stroke-linecap:round; stroke-width:0.25;"/>
<line x1="214.100000" y1="128.000000" x2="214.100000" y2="128.000000"  style="stroke:black; stroke-linecap:round; stroke-width:0.25;"/>
<line x1="222.100000" y1="76.000000" x2="226.100000" y2="76.000000"  style="stroke:black; stroke-linecap:round; stroke-width:0.25;"/>
<line x1="222.100000" y1="84.000000" x2="226.100000" y2="84.000000"  style="stroke:black; stroke-linecap:round; stroke-width:0.25;"/>
<line x1="251.900000" y1="80.000000" x2="255.900000" y2="80.000000"  style="stroke:black; stroke-linecap:round; stroke-width:0.25;"/>
<line x1="255.900000" y1="24.000000" x2="164.950000" y2="24.000000"  style="stroke:black; stroke-linecap:round; stroke-width:0.25;"/>
<line x1="255.900000" y1="24.000000" x2="255.900000" y2="24.000000"  style="stroke:black; stroke-linecap:round; stroke-width:0.25;"/>
<line x1="255.900000" y1="76.000000" x2="255.900000" y2="24.000000"  style="stroke:black; stroke-linecap:round; stroke-width:0.25;"/>
<line x1="255.900000" y1="80.000000" x2="257.900000" y2="80.000000"  style="stroke:black; stroke-linecap:round; stroke-width:0.25;"/>
<line x1="257.900000" y1="80.000000" x2="263.900000" y2="80.000000"  style="stroke:black; stroke-linecap:round; stroke-width:0.25;"/>
<line x1="263.900000" y1="76.000000" x2="271.900000" y2="76.000000"  style="stroke:black; stroke-linecap:round; stroke-width:0.25;"/>
<line x1="263.900000" y1="80.000000" x2="263.900000" y2="76.000000"  style="stroke:black; stroke-linecap:round; stroke-width:0.25;"/>
<line x1="263.900000" y1="80.000000" x2="263.900000" y2="80.000000"  style="stroke:black; stroke-linecap:round; stroke-width:0.25;"/>
<line x1="271.900000" y1="76.000000" x2="275.900000" y2="76.000000"  style="stroke:black; stroke-linecap:round; stroke-width:0.25;"/>
<line x1="275.900000" y1="76.000000" x2="279.900000" y2="76.000000"  style="stroke:black; stroke-linecap:round; stroke-width:0.25;"/>
<line x1="279.900000" y1="76.000000" x2="289.900000" y2="76.000000"  style="stroke:black; stroke-linecap:round; stroke-width:0.25;"/>
</svg>
