<?xml version="1.0"?>
<svg xmlns="http://www.w3.org/2000/svg" xmlns:xlink="http://www.w3.org/1999/xlink" viewBox="0 0 646.200000 104.000000" width="323.100000mm" height="52.000000mm" version="1.1">
<a xlink:href="FMvoc-0x6ec1870.svg">
<rect x="1.000000" y="1.000000" width="645.200000" height="103.000000" rx="0" ry="0" style="stroke:none;fill:#cccccc;"/>
<rect x="0.000000" y="0.000000" width="645.200000" height="103.000000" rx="0" ry="0" style="stroke:none;fill:#ffffff;"/>
</a>
<text x="10.000000" y="7.000000" font-family="Arial" font-size="7"></text>
<a xlink:href="voice-0x6e9d160.svg">
<rect x="25.000000" y="41.000000" width="129.000000" height="24.000000" rx="0" ry="0" style="stroke:none;fill:#cccccc;"/>
<rect x="24.000000" y="40.000000" width="129.000000" height="24.000000" rx="0" ry="0" style="stroke:none;fill:#003366;"/>
</a>
<a xlink:href="voice-0x6e9d160.svg">
<text x="88.500000" y="54.000000" font-family="Arial" font-size="7" text-anchor="middle" fill="#FFFFFF">voice(x1)((((...))) : attach)</text>
</a>
<circle cx="26.000000" cy="42.000000" r="1"/>
<a xlink:href="gate-0x6ebe280.svg">
<rect x="162.000000" y="41.000000" width="129.000000" height="24.000000" rx="0" ry="0" style="stroke:none;fill:#cccccc;"/>
<rect x="161.000000" y="40.000000" width="129.000000" height="24.000000" rx="0" ry="0" style="stroke:none;fill:#003366;"/>
</a>
<a xlink:href="gate-0x6ebe280.svg">
<text x="225.500000" y="54.000000" font-family="Arial" font-size="7" text-anchor="middle" fill="#FFFFFF">gate_mono(vgr...(0.1f)(0.05f)</text>
</a>
<circle cx="163.000000" cy="42.000000" r="1"/>
<line x1="158.000000" y1="51.000000" x2="161.000000" y2="52.000000"  transform="rotate(0.000000,161.000000,52.000000)" style="stroke: black; stroke-width:0.25;"/>
<line x1="158.000000" y1="53.000000" x2="161.000000" y2="52.000000"  transform="rotate(0.000000,161.000000,52.000000)" style="stroke: black; stroke-width:0.25;"/>
<a xlink:href="lowpass-0x6ebe3e0.svg">
<rect x="299.000000" y="41.000000" width="64.500000" height="24.000000" rx="0" ry="0" style="stroke:none;fill:#cccccc;"/>
<rect x="298.000000" y="40.000000" width="64.500000" height="24.000000" rx="0" ry="0" style="stroke:none;fill:#003366;"/>
</a>
<a xlink:href="lowpass-0x6ebe3e0.svg">
<text x="330.250000" y="54.000000" font-family="Arial" font-size="7" text-anchor="middle" fill="#FFFFFF">lowpass(3)(300)</text>
</a>
<circle cx="300.000000" cy="42.000000" r="1"/>
<line x1="295.000000" y1="51.000000" x2="298.000000" y2="52.000000"  transform="rotate(0.000000,298.000000,52.000000)" style="stroke: black; stroke-width:0.25;"/>
<line x1="295.000000" y1="53.000000" x2="298.000000" y2="52.000000"  transform="rotate(0.000000,298.000000,52.000000)" style="stroke: black; stroke-width:0.25;"/>
<a xlink:href="amp-0x6ebe7e0.svg">
<rect x="379.500000" y="25.000000" width="141.900000" height="24.000000" rx="0" ry="0" style="stroke:none;fill:#cccccc;"/>
<rect x="378.500000" y="24.000000" width="141.900000" height="24.000000" rx="0" ry="0" style="stroke:none;fill:#003366;"/>
</a>
<a xlink:href="amp-0x6ebe7e0.svg">
<text x="449.450000" y="38.000000" font-family="Arial" font-size="7" text-anchor="middle" fill="#FFFFFF">amp_follower_ud(0.003f)(0.005f)</text>
</a>
<circle cx="380.500000" cy="26.000000" r="1"/>
<line x1="375.500000" y1="35.000000" x2="378.500000" y2="36.000000"  transform="rotate(0.000000,378.500000,36.000000)" style="stroke: black; stroke-width:0.25;"/>
<line x1="375.500000" y1="37.000000" x2="378.500000" y2="36.000000"  transform="rotate(0.000000,378.500000,36.000000)" style="stroke: black; stroke-width:0.25;"/>
<rect x="438.450000" y="57.000000" width="24.000000" height="24.000000" rx="0" ry="0" style="stroke:none;fill:#cccccc;"/>
<rect x="437.450000" y="56.000000" width="24.000000" height="24.000000" rx="0" ry="0" style="stroke:none;fill:#f44800;"/>
<text x="449.450000" y="70.000000" font-family="Arial" font-size="7" text-anchor="middle" fill="#FFFFFF">4</text>
<circle cx="439.450000" cy="58.000000" r="1"/>
<rect x="537.400000" y="41.000000" width="24.000000" height="24.000000" rx="0" ry="0" style="stroke:none;fill:#cccccc;"/>
<rect x="536.400000" y="40.000000" width="24.000000" height="24.000000" rx="0" ry="0" style="stroke:none;fill:#4B71A1;"/>
<text x="548.400000" y="54.000000" font-family="Arial" font-size="7" text-anchor="middle" fill="#FFFFFF">*</text>
<circle cx="538.400000" cy="42.000000" r="1"/>
<line x1="533.400000" y1="47.000000" x2="536.400000" y2="48.000000"  transform="rotate(0.000000,536.400000,48.000000)" style="stroke: black; stroke-width:0.25;"/>
<line x1="533.400000" y1="49.000000" x2="536.400000" y2="48.000000"  transform="rotate(0.000000,536.400000,48.000000)" style="stroke: black; stroke-width:0.25;"/>
<line x1="533.400000" y1="55.000000" x2="536.400000" y2="56.000000"  transform="rotate(0.000000,536.400000,56.000000)" style="stroke: black; stroke-width:0.25;"/>
<line x1="533.400000" y1="57.000000" x2="536.400000" y2="56.000000"  transform="rotate(0.000000,536.400000,56.000000)" style="stroke: black; stroke-width:0.25;"/>
<rect x="579.400000" y="41.000000" width="25.800000" height="24.000000" rx="0" ry="0" style="stroke:none;fill:#cccccc;"/>
<rect x="578.400000" y="40.000000" width="25.800000" height="24.000000" rx="0" ry="0" style="stroke:none;fill:#4B71A1;"/>
<text x="591.300000" y="54.000000" font-family="Arial" font-size="7" text-anchor="middle" fill="#FFFFFF">tanhf</text>
<circle cx="580.400000" cy="42.000000" r="1"/>
<line x1="575.400000" y1="51.000000" x2="578.400000" y2="52.000000"  transform="rotate(0.000000,578.400000,52.000000)" style="stroke: black; stroke-width:0.25;"/>
<line x1="575.400000" y1="53.000000" x2="578.400000" y2="52.000000"  transform="rotate(0.000000,578.400000,52.000000)" style="stroke: black; stroke-width:0.25;"/>
<line x1="569.400000" y1="31.000000" x2="569.400000" y2="73.000000"  style="stroke: black; stroke-linecap:round; stroke-width:0.25; stroke-dasharray:3,3;"/>
<line x1="569.400000" y1="73.000000" x2="613.200000" y2="73.000000"  style="stroke: black; stroke-linecap:round; stroke-width:0.25; stroke-dasharray:3,3;"/>
<line x1="613.200000" y1="73.000000" x2="613.200000" y2="31.000000"  style="stroke: black; stroke-linecap:round; stroke-width:0.25; stroke-dasharray:3,3;"/>
<line x1="569.400000" y1="31.000000" x2="574.400000" y2="31.000000"  style="stroke: black; stroke-linecap:round; stroke-width:0.25; stroke-dasharray:3,3;"/>
<line x1="593.750000" y1="31.000000" x2="613.200000" y2="31.000000"  style="stroke: black; stroke-linecap:round; stroke-width:0.25; stroke-dasharray:3,3;"/>
<text x="574.400000" y="33.000000" font-family="Arial" font-size="7">tanh</text>
<line x1="15.000000" y1="15.000000" x2="15.000000" y2="89.000000"  style="stroke: black; stroke-linecap:round; stroke-width:0.25; stroke-dasharray:3,3;"/>
<line x1="15.000000" y1="89.000000" x2="631.200000" y2="89.000000"  style="stroke: black; stroke-linecap:round; stroke-width:0.25; stroke-dasharray:3,3;"/>
<line x1="631.200000" y1="89.000000" x2="631.200000" y2="15.000000"  style="stroke: black; stroke-linecap:round; stroke-width:0.25; stroke-dasharray:3,3;"/>
<line x1="15.000000" y1="15.000000" x2="20.000000" y2="15.000000"  style="stroke: black; stroke-linecap:round; stroke-width:0.25; stroke-dasharray:3,3;"/>
<line x1="119.975000" y1="15.000000" x2="631.200000" y2="15.000000"  style="stroke: black; stroke-linecap:round; stroke-width:0.25; stroke-dasharray:3,3;"/>
<text x="20.000000" y="17.000000" font-family="Arial" font-size="7">subLevel(x1)(...))) : attach)</text>
<line x1="633.200000" y1="51.000000" x2="636.200000" y2="52.000000"  transform="rotate(0.000000,636.200000,52.000000)" style="stroke: black; stroke-width:0.25;"/>
<line x1="633.200000" y1="53.000000" x2="636.200000" y2="52.000000"  transform="rotate(0.000000,636.200000,52.000000)" style="stroke: black; stroke-width:0.25;"/>
<line x1="153.000000" y1="52.000000" x2="157.000000" y2="52.000000"  style="stroke:black; stroke-linecap:round; stroke-width:0.25;"/>
<line x1="157.000000" y1="52.000000" x2="157.000000" y2="52.000000"  style="stroke:black; stroke-linecap:round; stroke-width:0.25;"/>
<line x1="157.000000" y1="52.000000" x2="161.000000" y2="52.000000"  style="stroke:black; stroke-linecap:round; stroke-width:0.25;"/>
<line x1="290.000000" y1="52.000000" x2="294.000000" y2="52.000000"  style="stroke:black; stroke-linecap:round; stroke-width:0.25;"/>
<line x1="294.000000" y1="52.000000" x2="294.000000" y2="52.000000"  style="stroke:black; stroke-linecap:round; stroke-width:0.25;"/>
<line x1="294.000000" y1="52.000000" x2="298.000000" y2="52.000000"  style="stroke:black; stroke-linecap:round; stroke-width:0.25;"/>
<line x1="362.500000" y1="52.000000" x2="366.500000" y2="52.000000"  style="stroke:black; stroke-linecap:round; stroke-width:0.25;"/>
<line x1="366.500000" y1="36.000000" x2="374.500000" y2="36.000000"  style="stroke:black; stroke-linecap:round; stroke-width:0.25;"/>
<line x1="366.500000" y1="52.000000" x2="366.500000" y2="36.000000"  style="stroke:black; stroke-linecap:round; stroke-width:0.25;"/>
<line x1="366.500000" y1="52.000000" x2="366.500000" y2="52.000000"  style="stroke:black; stroke-linecap:round; stroke-width:0.25;"/>
<line x1="374.500000" y1="36.000000" x2="378.500000" y2="36.000000"  style="stroke:black; stroke-linecap:round; stroke-width:0.25;"/>
<line x1="461.450000" y1="68.000000" x2="465.450000" y2="68.000000"  style="stroke:black; stroke-linecap:round; stroke-width:0.25;"/>
<line x1="465.450000" y1="68.000000" x2="524.400000" y2="68.000000"  style="stroke:black; stroke-linecap:round; stroke-width:0.25;"/>
<line x1="520.400000" y1="36.000000" x2="524.400000" y2="36.000000"  style="stroke:black; stroke-linecap:round; stroke-width:0.25;"/>
<line x1="524.400000" y1="36.000000" x2="532.400000" y2="36.000000"  style="stroke:black; stroke-linecap:round; stroke-width:0.25;"/>
<line x1="524.400000" y1="56.000000" x2="532.400000" y2="56.000000"  style="stroke:black; stroke-linecap:round; stroke-width:0.25;"/>
<line x1="524.400000" y1="68.000000" x2="524.400000" y2="56.000000"  style="stroke:black; stroke-linecap:round; stroke-width:0.25;"/>
<line x1="524.400000" y1="68.000000" x2="524.400000" y2="68.000000"  style="stroke:black; stroke-linecap:round; stroke-width:0.25;"/>
<line x1="532.400000" y1="36.000000" x2="532.400000" y2="48.000000"  style="stroke:black; stroke-linecap:round; stroke-width:0.25;"/>
<line x1="532.400000" y1="48.000000" x2="532.400000" y2="48.000000"  style="stroke:black; stroke-linecap:round; stroke-width:0.25;"/>
<line x1="532.400000" y1="48.000000" x2="536.400000" y2="48.000000"  style="stroke:black; stroke-linecap:round; stroke-width:0.25;"/>
<line x1="532.400000" y1="56.000000" x2="536.400000" y2="56.000000"  style="stroke:black; stroke-linecap:round; stroke-width:0.25;"/>
<line x1="560.400000" y1="52.000000" x2="564.400000" y2="52.000000"  style="stroke:black; stroke-linecap:round; stroke-width:0.25;"/>
<line x1="564.400000" y1="52.000000" x2="564.400000" y2="52.000000"  style="stroke:black; stroke-linecap:round; stroke-width:0.25;"/>
<line x1="564.400000" y1="52.000000" x2="574.400000" y2="52.000000"  style="stroke:black; stroke-linecap:round; stroke-width:0.25;"/>
<line x1="574.400000" y1="52.000000" x2="578.400000" y2="52.000000"  style="stroke:black; stroke-linecap:round; stroke-width:0.25;"/>
<line x1="604.200000" y1="52.000000" x2="608.200000" y2="52.000000"  style="stroke:black; stroke-linecap:round; stroke-width:0.25;"/>
<line x1="608.200000" y1="52.000000" x2="618.200000" y2="52.000000"  style="stroke:black; stroke-linecap:round; stroke-width:0.25;"/>
<line x1="618.200000" y1="52.000000" x2="618.200000" y2="52.000000"  style="stroke:black; stroke-linecap:round; stroke-width:0.25;"/>
<line x1="618.200000" y1="52.000000" x2="622.200000" y2="52.000000"  style="stroke:black; stroke-linecap:round; stroke-width:0.25;"/>
<line x1="622.200000" y1="52.000000" x2="626.200000" y2="52.000000"  style="stroke:black; stroke-linecap:round; stroke-width:0.25;"/>
<line x1="626.200000" y1="52.000000" x2="636.200000" y2="52.000000"  style="stroke:black; stroke-linecap:round; stroke-width:0.25;"/>
</svg>
