<?xml version="1.0"?>
<svg xmlns="http://www.w3.org/2000/svg" xmlns:xlink="http://www.w3.org/1999/xlink" viewBox="0 0 353.500000 272.000000" width="176.750000mm" height="136.000000mm" version="1.1">
<a xlink:href="h-0x2946aab0.svg">
<rect x="1.000000" y="1.000000" width="352.500000" height="271.000000" rx="0" ry="0" style="stroke:none;fill:#cccccc;"/>
<rect x="0.000000" y="0.000000" width="352.500000" height="271.000000" rx="0" ry="0" style="stroke:none;fill:#ffffff;"/>
</a>
<text x="10.000000" y="7.000000" font-family="Arial" font-size="7"></text>
<rect x="110.400000" y="35.000000" width="24.000000" height="24.000000" rx="0" ry="0" style="stroke:none;fill:#cccccc;"/>
<rect x="109.400000" y="34.000000" width="24.000000" height="24.000000" rx="0" ry="0" style="stroke:none;fill:#f44800;"/>
<text x="121.400000" y="48.000000" font-family="Arial" font-size="7" text-anchor="middle" fill="#FFFFFF">0</text>
<circle cx="111.400000" cy="36.000000" r="1"/>
<line x1="100.400000" y1="25.000000" x2="100.400000" y2="67.000000"  style="stroke: black; stroke-linecap:round; stroke-width:0.25; stroke-dasharray:3,3;"/>
<line x1="100.400000" y1="67.000000" x2="142.400000" y2="67.000000"  style="stroke: black; stroke-linecap:round; stroke-width:0.25; stroke-dasharray:3,3;"/>
<line x1="142.400000" y1="67.000000" x2="142.400000" y2="25.000000"  style="stroke: black; stroke-linecap:round; stroke-width:0.25; stroke-dasharray:3,3;"/>
<line x1="100.400000" y1="25.000000" x2="105.400000" y2="25.000000"  style="stroke: black; stroke-linecap:round; stroke-width:0.25; stroke-dasharray:3,3;"/>
<line x1="118.300000" y1="25.000000" x2="142.400000" y2="25.000000"  style="stroke: black; stroke-linecap:round; stroke-width:0.25; stroke-dasharray:3,3;"/>
<text x="105.400000" y="27.000000" font-family="Arial" font-size="7">b2</text>
<rect x="110.400000" y="77.000000" width="24.000000" height="24.000000" rx="0" ry="0" style="stroke:none;fill:#cccccc;"/>
<rect x="109.400000" y="76.000000" width="24.000000" height="24.000000" rx="0" ry="0" style="stroke:none;fill:#f44800;"/>
<text x="121.400000" y="90.000000" font-family="Arial" font-size="7" text-anchor="middle" fill="#FFFFFF">3</text>
<circle cx="111.400000" cy="78.000000" r="1"/>
<rect x="160.400000" y="51.000000" width="24.000000" height="24.000000" rx="0" ry="0" style="stroke:none;fill:#cccccc;"/>
<rect x="159.400000" y="50.000000" width="24.000000" height="24.000000" rx="0" ry="0" style="stroke:none;fill:#4B71A1;"/>
<text x="171.400000" y="64.000000" font-family="Arial" font-size="7" text-anchor="middle" fill="#FFFFFF">&lt;</text>
<circle cx="161.400000" cy="52.000000" r="1"/>
<line x1="156.400000" y1="57.000000" x2="159.400000" y2="58.000000"  transform="rotate(0.000000,159.400000,58.000000)" style="stroke: black; stroke-width:0.25;"/>
<line x1="156.400000" y1="59.000000" x2="159.400000" y2="58.000000"  transform="rotate(0.000000,159.400000,58.000000)" style="stroke: black; stroke-width:0.25;"/>
<line x1="156.400000" y1="65.000000" x2="159.400000" y2="66.000000"  transform="rotate(0.000000,159.400000,66.000000)" style="stroke: black; stroke-width:0.25;"/>
<line x1="156.400000" y1="67.000000" x2="159.400000" y2="66.000000"  transform="rotate(0.000000,159.400000,66.000000)" style="stroke: black; stroke-width:0.25;"/>
<rect x="130.400000" y="119.000000" width="24.000000" height="24.000000" rx="0" ry="0" style="stroke:none;fill:#cccccc;"/>
<rect x="129.400000" y="118.000000" width="24.000000" height="24.000000" rx="0" ry="0" style="stroke:none;fill:#f44800;"/>
<text x="141.400000" y="132.000000" font-family="Arial" font-size="7" text-anchor="middle" fill="#FFFFFF">1</text>
<circle cx="131.400000" cy="120.000000" r="1"/>
<line x1="120.400000" y1="109.000000" x2="120.400000" y2="151.000000"  style="stroke: black; stroke-linecap:round; stroke-width:0.25; stroke-dasharray:3,3;"/>
<line x1="120.400000" y1="151.000000" x2="162.400000" y2="151.000000"  style="stroke: black; stroke-linecap:round; stroke-width:0.25; stroke-dasharray:3,3;"/>
<line x1="162.400000" y1="151.000000" x2="162.400000" y2="109.000000"  style="stroke: black; stroke-linecap:round; stroke-width:0.25; stroke-dasharray:3,3;"/>
<line x1="120.400000" y1="109.000000" x2="125.400000" y2="109.000000"  style="stroke: black; stroke-linecap:round; stroke-width:0.25; stroke-dasharray:3,3;"/>
<line x1="138.300000" y1="109.000000" x2="162.400000" y2="109.000000"  style="stroke: black; stroke-linecap:round; stroke-width:0.25; stroke-dasharray:3,3;"/>
<text x="125.400000" y="111.000000" font-family="Arial" font-size="7">b1</text>
<a xlink:href="fac-0x28fa9b10.svg">
<rect x="25.000000" y="161.000000" width="154.800000" height="24.000000" rx="0" ry="0" style="stroke:none;fill:#cccccc;"/>
<rect x="24.000000" y="160.000000" width="154.800000" height="24.000000" rx="0" ry="0" style="stroke:none;fill:#003366;"/>
</a>
<a xlink:href="fac-0x28fa9b10.svg">
<text x="101.400000" y="174.000000" font-family="Arial" font-size="7" text-anchor="middle" fill="#FFFFFF">fac(((3,1.000...nt) : -) : +)(0)(1)</text>
</a>
<circle cx="26.000000" cy="162.000000" r="1"/>
<a xlink:href="fac-0x28fa9e70.svg">
<rect x="25.000000" y="193.000000" width="154.800000" height="24.000000" rx="0" ry="0" style="stroke:none;fill:#cccccc;"/>
<rect x="24.000000" y="192.000000" width="154.800000" height="24.000000" rx="0" ry="0" style="stroke:none;fill:#003366;"/>
</a>
<a xlink:href="fac-0x28fa9e70.svg">
<text x="101.400000" y="206.000000" font-family="Arial" font-size="7" text-anchor="middle" fill="#FFFFFF">fac(((3,1.000...nt) : -) : +)(0)(2)</text>
</a>
<circle cx="26.000000" cy="194.000000" r="1"/>
<rect x="195.800000" y="177.000000" width="24.000000" height="24.000000" rx="0" ry="0" style="stroke:none;fill:#cccccc;"/>
<rect x="194.800000" y="176.000000" width="24.000000" height="24.000000" rx="0" ry="0" style="stroke:none;fill:#4B71A1;"/>
<text x="206.800000" y="190.000000" font-family="Arial" font-size="7" text-anchor="middle" fill="#FFFFFF">*</text>
<circle cx="196.800000" cy="178.000000" r="1"/>
<line x1="191.800000" y1="183.000000" x2="194.800000" y2="184.000000"  transform="rotate(0.000000,194.800000,184.000000)" style="stroke: black; stroke-width:0.25;"/>
<line x1="191.800000" y1="185.000000" x2="194.800000" y2="184.000000"  transform="rotate(0.000000,194.800000,184.000000)" style="stroke: black; stroke-width:0.25;"/>
<line x1="191.800000" y1="191.000000" x2="194.800000" y2="192.000000"  transform="rotate(0.000000,194.800000,192.000000)" style="stroke: black; stroke-width:0.25;"/>
<line x1="191.800000" y1="193.000000" x2="194.800000" y2="192.000000"  transform="rotate(0.000000,194.800000,192.000000)" style="stroke: black; stroke-width:0.25;"/>
<a xlink:href="fac-0x28faa3b0.svg">
<rect x="45.000000" y="225.000000" width="154.800000" height="24.000000" rx="0" ry="0" style="stroke:none;fill:#cccccc;"/>
<rect x="44.000000" y="224.000000" width="154.800000" height="24.000000" rx="0" ry="0" style="stroke:none;fill:#003366;"/>
</a>
<a xlink:href="fac-0x28faa3b0.svg">
<text x="121.400000" y="238.000000" font-family="Arial" font-size="7" text-anchor="middle" fill="#FFFFFF">fac(((3,1.000...nt) : -) : +)(0)(3)</text>
</a>
<circle cx="46.000000" cy="226.000000" r="1"/>
<rect x="235.800000" y="193.000000" width="24.000000" height="24.000000" rx="0" ry="0" style="stroke:none;fill:#cccccc;"/>
<rect x="234.800000" y="192.000000" width="24.000000" height="24.000000" rx="0" ry="0" style="stroke:none;fill:#4B71A1;"/>
<text x="246.800000" y="206.000000" font-family="Arial" font-size="7" text-anchor="middle" fill="#FFFFFF">*</text>
<circle cx="236.800000" cy="194.000000" r="1"/>
<line x1="231.800000" y1="199.000000" x2="234.800000" y2="200.000000"  transform="rotate(0.000000,234.800000,200.000000)" style="stroke: black; stroke-width:0.25;"/>
<line x1="231.800000" y1="201.000000" x2="234.800000" y2="200.000000"  transform="rotate(0.000000,234.800000,200.000000)" style="stroke: black; stroke-width:0.25;"/>
<line x1="231.800000" y1="207.000000" x2="234.800000" y2="208.000000"  transform="rotate(0.000000,234.800000,208.000000)" style="stroke: black; stroke-width:0.25;"/>
<line x1="231.800000" y1="209.000000" x2="234.800000" y2="208.000000"  transform="rotate(0.000000,234.800000,208.000000)" style="stroke: black; stroke-width:0.25;"/>
<rect x="283.800000" y="125.000000" width="38.700000" height="24.000000" rx="0" ry="0" style="stroke:none;fill:#cccccc;"/>
<rect x="282.800000" y="124.000000" width="38.700000" height="24.000000" rx="0" ry="0" style="stroke:none;fill:#4B71A1;"/>
<text x="302.150000" y="138.000000" font-family="Arial" font-size="7" text-anchor="middle" fill="#FFFFFF">select2</text>
<circle cx="284.800000" cy="126.000000" r="1"/>
<line x1="279.800000" y1="127.000000" x2="282.800000" y2="128.000000"  transform="rotate(0.000000,282.800000,128.000000)" style="stroke: black; stroke-width:0.25;"/>
<line x1="279.800000" y1="129.000000" x2="282.800000" y2="128.000000"  transform="rotate(0.000000,282.800000,128.000000)" style="stroke: black; stroke-width:0.25;"/>
<line x1="279.800000" y1="135.000000" x2="282.800000" y2="136.000000"  transform="rotate(0.000000,282.800000,136.000000)" style="stroke: black; stroke-width:0.25;"/>
<line x1="279.800000" y1="137.000000" x2="282.800000" y2="136.000000"  transform="rotate(0.000000,282.800000,136.000000)" style="stroke: black; stroke-width:0.25;"/>
<line x1="279.800000" y1="143.000000" x2="282.800000" y2="144.000000"  transform="rotate(0.000000,282.800000,144.000000)" style="stroke: black; stroke-width:0.25;"/>
<line x1="279.800000" y1="145.000000" x2="282.800000" y2="144.000000"  transform="rotate(0.000000,282.800000,144.000000)" style="stroke: black; stroke-width:0.25;"/>
<line x1="15.000000" y1="15.000000" x2="15.000000" y2="257.000000"  style="stroke: black; stroke-linecap:round; stroke-width:0.25; stroke-dasharray:3,3;"/>
<line x1="15.000000" y1="257.000000" x2="338.500000" y2="257.000000"  style="stroke: black; stroke-linecap:round; stroke-width:0.25; stroke-dasharray:3,3;"/>
<line x1="338.500000" y1="257.000000" x2="338.500000" y2="15.000000"  style="stroke: black; stroke-linecap:round; stroke-width:0.25; stroke-dasharray:3,3;"/>
<line x1="15.000000" y1="15.000000" x2="20.000000" y2="15.000000"  style="stroke: black; stroke-linecap:round; stroke-width:0.25; stroke-dasharray:3,3;"/>
<line x1="129.650000" y1="15.000000" x2="338.500000" y2="15.000000"  style="stroke: black; stroke-linecap:round; stroke-width:0.25; stroke-dasharray:3,3;"/>
<text x="20.000000" y="17.000000" font-family="Arial" font-size="7">facs2(3)(((3,...nt) : -) : +)(0)</text>
<line x1="340.500000" y1="135.000000" x2="343.500000" y2="136.000000"  transform="rotate(0.000000,343.500000,136.000000)" style="stroke: black; stroke-width:0.25;"/>
<line x1="340.500000" y1="137.000000" x2="343.500000" y2="136.000000"  transform="rotate(0.000000,343.500000,136.000000)" style="stroke: black; stroke-width:0.25;"/>
<line x1="133.400000" y1="46.000000" x2="137.400000" y2="46.000000"  style="stroke:black; stroke-linecap:round; stroke-width:0.25;"/>
<line x1="133.400000" y1="88.000000" x2="137.400000" y2="88.000000"  style="stroke:black; stroke-linecap:round; stroke-width:0.25;"/>
<line x1="137.400000" y1="46.000000" x2="147.400000" y2="46.000000"  style="stroke:black; stroke-linecap:round; stroke-width:0.25;"/>
<line x1="137.400000" y1="88.000000" x2="147.400000" y2="88.000000"  style="stroke:black; stroke-linecap:round; stroke-width:0.25;"/>
<line x1="147.400000" y1="46.000000" x2="155.400000" y2="46.000000"  style="stroke:black; stroke-linecap:round; stroke-width:0.25;"/>
<line x1="147.400000" y1="66.000000" x2="155.400000" y2="66.000000"  style="stroke:black; stroke-linecap:round; stroke-width:0.25;"/>
<line x1="147.400000" y1="88.000000" x2="147.400000" y2="66.000000"  style="stroke:black; stroke-linecap:round; stroke-width:0.25;"/>
<line x1="147.400000" y1="88.000000" x2="147.400000" y2="88.000000"  style="stroke:black; stroke-linecap:round; stroke-width:0.25;"/>
<line x1="153.400000" y1="130.000000" x2="157.400000" y2="130.000000"  style="stroke:black; stroke-linecap:round; stroke-width:0.25;"/>
<line x1="155.400000" y1="46.000000" x2="155.400000" y2="58.000000"  style="stroke:black; stroke-linecap:round; stroke-width:0.25;"/>
<line x1="155.400000" y1="58.000000" x2="155.400000" y2="58.000000"  style="stroke:black; stroke-linecap:round; stroke-width:0.25;"/>
<line x1="155.400000" y1="58.000000" x2="159.400000" y2="58.000000"  style="stroke:black; stroke-linecap:round; stroke-width:0.25;"/>
<line x1="155.400000" y1="66.000000" x2="159.400000" y2="66.000000"  style="stroke:black; stroke-linecap:round; stroke-width:0.25;"/>
<line x1="157.400000" y1="130.000000" x2="167.400000" y2="130.000000"  style="stroke:black; stroke-linecap:round; stroke-width:0.25;"/>
<line x1="167.400000" y1="130.000000" x2="262.800000" y2="130.000000"  style="stroke:black; stroke-linecap:round; stroke-width:0.25;"/>
<line x1="178.800000" y1="172.000000" x2="182.800000" y2="172.000000"  style="stroke:black; stroke-linecap:round; stroke-width:0.25;"/>
<line x1="178.800000" y1="204.000000" x2="182.800000" y2="204.000000"  style="stroke:black; stroke-linecap:round; stroke-width:0.25;"/>
<line x1="182.800000" y1="172.000000" x2="190.800000" y2="172.000000"  style="stroke:black; stroke-linecap:round; stroke-width:0.25;"/>
<line x1="182.800000" y1="192.000000" x2="190.800000" y2="192.000000"  style="stroke:black; stroke-linecap:round; stroke-width:0.25;"/>
<line x1="182.800000" y1="204.000000" x2="182.800000" y2="192.000000"  style="stroke:black; stroke-linecap:round; stroke-width:0.25;"/>
<line x1="182.800000" y1="204.000000" x2="182.800000" y2="204.000000"  style="stroke:black; stroke-linecap:round; stroke-width:0.25;"/>
<line x1="183.400000" y1="62.000000" x2="187.400000" y2="62.000000"  style="stroke:black; stroke-linecap:round; stroke-width:0.25;"/>
<line x1="187.400000" y1="62.000000" x2="262.800000" y2="62.000000"  style="stroke:black; stroke-linecap:round; stroke-width:0.25;"/>
<line x1="190.800000" y1="172.000000" x2="190.800000" y2="184.000000"  style="stroke:black; stroke-linecap:round; stroke-width:0.25;"/>
<line x1="190.800000" y1="184.000000" x2="190.800000" y2="184.000000"  style="stroke:black; stroke-linecap:round; stroke-width:0.25;"/>
<line x1="190.800000" y1="184.000000" x2="194.800000" y2="184.000000"  style="stroke:black; stroke-linecap:round; stroke-width:0.25;"/>
<line x1="190.800000" y1="192.000000" x2="194.800000" y2="192.000000"  style="stroke:black; stroke-linecap:round; stroke-width:0.25;"/>
<line x1="198.800000" y1="236.000000" x2="202.800000" y2="236.000000"  style="stroke:black; stroke-linecap:round; stroke-width:0.25;"/>
<line x1="202.800000" y1="236.000000" x2="222.800000" y2="236.000000"  style="stroke:black; stroke-linecap:round; stroke-width:0.25;"/>
<line x1="218.800000" y1="188.000000" x2="222.800000" y2="188.000000"  style="stroke:black; stroke-linecap:round; stroke-width:0.25;"/>
<line x1="222.800000" y1="188.000000" x2="230.800000" y2="188.000000"  style="stroke:black; stroke-linecap:round; stroke-width:0.25;"/>
<line x1="222.800000" y1="208.000000" x2="230.800000" y2="208.000000"  style="stroke:black; stroke-linecap:round; stroke-width:0.25;"/>
<line x1="222.800000" y1="236.000000" x2="222.800000" y2="208.000000"  style="stroke:black; stroke-linecap:round; stroke-width:0.25;"/>
<line x1="222.800000" y1="236.000000" x2="222.800000" y2="236.000000"  style="stroke:black; stroke-linecap:round; stroke-width:0.25;"/>
<line x1="230.800000" y1="188.000000" x2="230.800000" y2="200.000000"  style="stroke:black; stroke-linecap:round; stroke-width:0.25;"/>
<line x1="230.800000" y1="200.000000" x2="230.800000" y2="200.000000"  style="stroke:black; stroke-linecap:round; stroke-width:0.25;"/>
<line x1="230.800000" y1="200.000000" x2="234.800000" y2="200.000000"  style="stroke:black; stroke-linecap:round; stroke-width:0.25;"/>
<line x1="230.800000" y1="208.000000" x2="234.800000" y2="208.000000"  style="stroke:black; stroke-linecap:round; stroke-width:0.25;"/>
<line x1="258.800000" y1="204.000000" x2="262.800000" y2="204.000000"  style="stroke:black; stroke-linecap:round; stroke-width:0.25;"/>
<line x1="262.800000" y1="62.000000" x2="278.800000" y2="62.000000"  style="stroke:black; stroke-linecap:round; stroke-width:0.25;"/>
<line x1="262.800000" y1="130.000000" x2="270.800000" y2="130.000000"  style="stroke:black; stroke-linecap:round; stroke-width:0.25;"/>
<line x1="262.800000" y1="144.000000" x2="278.800000" y2="144.000000"  style="stroke:black; stroke-linecap:round; stroke-width:0.25;"/>
<line x1="262.800000" y1="204.000000" x2="262.800000" y2="144.000000"  style="stroke:black; stroke-linecap:round; stroke-width:0.25;"/>
<line x1="262.800000" y1="204.000000" x2="262.800000" y2="204.000000"  style="stroke:black; stroke-linecap:round; stroke-width:0.25;"/>
<line x1="270.800000" y1="130.000000" x2="270.800000" y2="136.000000"  style="stroke:black; stroke-linecap:round; stroke-width:0.25;"/>
<line x1="270.800000" y1="136.000000" x2="278.800000" y2="136.000000"  style="stroke:black; stroke-linecap:round; stroke-width:0.25;"/>
<line x1="278.800000" y1="62.000000" x2="278.800000" y2="128.000000"  style="stroke:black; stroke-linecap:round; stroke-width:0.25;"/>
<line x1="278.800000" y1="128.000000" x2="278.800000" y2="128.000000"  style="stroke:black; stroke-linecap:round; stroke-width:0.25;"/>
<line x1="278.800000" y1="128.000000" x2="282.800000" y2="128.000000"  style="stroke:black; stroke-linecap:round; stroke-width:0.25;"/>
<line x1="278.800000" y1="136.000000" x2="282.800000" y2="136.000000"  style="stroke:black; stroke-linecap:round; stroke-width:0.25;"/>
<line x1="278.800000" y1="144.000000" x2="282.800000" y2="144.000000"  style="stroke:black; stroke-linecap:round; stroke-width:0.25;"/>
<line x1="321.500000" y1="136.000000" x2="325.500000" y2="136.000000"  style="stroke:black; stroke-linecap:round; stroke-width:0.25;"/>
<line x1="325.500000" y1="136.000000" x2="325.500000" y2="136.000000"  style="stroke:black; stroke-linecap:round; stroke-width:0.25;"/>
<line x1="325.500000" y1="136.000000" x2="329.500000" y2="136.000000"  style="stroke:black; stroke-linecap:round; stroke-width:0.25;"/>
<line x1="329.500000" y1="136.000000" x2="333.500000" y2="136.000000"  style="stroke:black; stroke-linecap:round; stroke-width:0.25;"/>
<line x1="333.500000" y1="136.000000" x2="343.500000" y2="136.000000"  style="stroke:black; stroke-linecap:round; stroke-width:0.25;"/>
</svg>
