<?xml version="1.0"?>
<svg xmlns="http://www.w3.org/2000/svg" xmlns:xlink="http://www.w3.org/1999/xlink" viewBox="0 0 257.500000 72.000000" width="128.750000mm" height="36.000000mm" version="1.1">
<a xlink:href="p-0x15186550.svg">
<rect x="1.000000" y="1.000000" width="256.500000" height="71.000000" rx="0" ry="0" style="stroke:none;fill:#cccccc;"/>
<rect x="0.000000" y="0.000000" width="256.500000" height="71.000000" rx="0" ry="0" style="stroke:none;fill:#ffffff;"/>
</a>
<text x="10.000000" y="7.000000" font-family="Arial" font-size="7"></text>
<a xlink:href="mainKPgroup-0x14081800.svg">
<rect x="25.000000" y="25.000000" width="129.000000" height="24.000000" rx="0" ry="0" style="stroke:none;fill:#cccccc;"/>
<rect x="24.000000" y="24.000000" width="129.000000" height="24.000000" rx="0" ry="0" style="stroke:none;fill:#003366;"/>
</a>
<a xlink:href="mainKPgroup-0x14081800.svg">
<text x="88.500000" y="38.000000" font-family="Arial" font-size="7" text-anchor="middle" fill="#FFFFFF">mainKPgroup(v...: pow),8 : *)</text>
</a>
<circle cx="26.000000" cy="26.000000" r="1"/>
<a xlink:href="smooth-0x356dc40.svg">
<rect x="162.000000" y="25.000000" width="64.500000" height="24.000000" rx="0" ry="0" style="stroke:none;fill:#cccccc;"/>
<rect x="161.000000" y="24.000000" width="64.500000" height="24.000000" rx="0" ry="0" style="stroke:none;fill:#003366;"/>
</a>
<a xlink:href="smooth-0x356dc40.svg">
<text x="193.250000" y="38.000000" font-family="Arial" font-size="7" text-anchor="middle" fill="#FFFFFF">smooth(0.999f)</text>
</a>
<circle cx="163.000000" cy="26.000000" r="1"/>
<line x1="158.000000" y1="35.000000" x2="161.000000" y2="36.000000"  transform="rotate(0.000000,161.000000,36.000000)" style="stroke: black; stroke-width:0.25;"/>
<line x1="158.000000" y1="37.000000" x2="161.000000" y2="36.000000"  transform="rotate(0.000000,161.000000,36.000000)" style="stroke: black; stroke-width:0.25;"/>
<line x1="15.000000" y1="15.000000" x2="15.000000" y2="57.000000"  style="stroke: black; stroke-linecap:round; stroke-width:0.25; stroke-dasharray:3,3;"/>
<line x1="15.000000" y1="57.000000" x2="242.500000" y2="57.000000"  style="stroke: black; stroke-linecap:round; stroke-width:0.25; stroke-dasharray:3,3;"/>
<line x1="242.500000" y1="57.000000" x2="242.500000" y2="15.000000"  style="stroke: black; stroke-linecap:round; stroke-width:0.25; stroke-dasharray:3,3;"/>
<line x1="15.000000" y1="15.000000" x2="20.000000" y2="15.000000"  style="stroke: black; stroke-linecap:round; stroke-width:0.25; stroke-dasharray:3,3;"/>
<line x1="55.475000" y1="15.000000" x2="242.500000" y2="15.000000"  style="stroke: black; stroke-linecap:round; stroke-width:0.25; stroke-dasharray:3,3;"/>
<text x="20.000000" y="17.000000" font-family="Arial" font-size="7">KPrelease</text>
<line x1="244.500000" y1="35.000000" x2="247.500000" y2="36.000000"  transform="rotate(0.000000,247.500000,36.000000)" style="stroke: black; stroke-width:0.25;"/>
<line x1="244.500000" y1="37.000000" x2="247.500000" y2="36.000000"  transform="rotate(0.000000,247.500000,36.000000)" style="stroke: black; stroke-width:0.25;"/>
<line x1="153.000000" y1="36.000000" x2="157.000000" y2="36.000000"  style="stroke:black; stroke-linecap:round; stroke-width:0.25;"/>
<line x1="157.000000" y1="36.000000" x2="157.000000" y2="36.000000"  style="stroke:black; stroke-linecap:round; stroke-width:0.25;"/>
<line x1="157.000000" y1="36.000000" x2="161.000000" y2="36.000000"  style="stroke:black; stroke-linecap:round; stroke-width:0.25;"/>
<line x1="225.500000" y1="36.000000" x2="229.500000" y2="36.000000"  style="stroke:black; stroke-linecap:round; stroke-width:0.25;"/>
<line x1="229.500000" y1="36.000000" x2="229.500000" y2="36.000000"  style="stroke:black; stroke-linecap:round; stroke-width:0.25;"/>
<line x1="229.500000" y1="36.000000" x2="233.500000" y2="36.000000"  style="stroke:black; stroke-linecap:round; stroke-width:0.25;"/>
<line x1="233.500000" y1="36.000000" x2="237.500000" y2="36.000000"  style="stroke:black; stroke-linecap:round; stroke-width:0.25;"/>
<line x1="237.500000" y1="36.000000" x2="247.500000" y2="36.000000"  style="stroke:black; stroke-linecap:round; stroke-width:0.25;"/>
</svg>
