<?xml version="1.0"?>
<svg xmlns="http://www.w3.org/2000/svg" xmlns:xlink="http://www.w3.org/1999/xlink" viewBox="0 0 284.000000 360.000000" width="142.000000mm" height="180.000000mm" version="1.1">
<a xlink:href="Pitch-0x2b848750.svg">
<rect x="1.000000" y="1.000000" width="283.000000" height="359.000000" rx="0" ry="0" style="stroke:none;fill:#cccccc;"/>
<rect x="0.000000" y="0.000000" width="283.000000" height="359.000000" rx="0" ry="0" style="stroke:none;fill:#ffffff;"/>
</a>
<text x="10.000000" y="7.000000" font-family="Arial" font-size="7"></text>
<rect x="63.000000" y="51.000000" width="24.000000" height="24.000000" rx="0" ry="0" style="stroke:none;fill:#cccccc;"/>
<rect x="62.000000" y="50.000000" width="24.000000" height="24.000000" rx="0" ry="0" style="stroke:none;fill:#f44800;"/>
<text x="74.000000" y="64.000000" font-family="Arial" font-size="7" text-anchor="middle" fill="#FFFFFF">1</text>
<circle cx="64.000000" cy="52.000000" r="1"/>
<line x1="53.000000" y1="41.000000" x2="53.000000" y2="83.000000"  style="stroke: black; stroke-linecap:round; stroke-width:0.25; stroke-dasharray:3,3;"/>
<line x1="53.000000" y1="83.000000" x2="95.000000" y2="83.000000"  style="stroke: black; stroke-linecap:round; stroke-width:0.25; stroke-dasharray:3,3;"/>
<line x1="95.000000" y1="83.000000" x2="95.000000" y2="41.000000"  style="stroke: black; stroke-linecap:round; stroke-width:0.25; stroke-dasharray:3,3;"/>
<line x1="53.000000" y1="41.000000" x2="58.000000" y2="41.000000"  style="stroke: black; stroke-linecap:round; stroke-width:0.25; stroke-dasharray:3,3;"/>
<line x1="70.900000" y1="41.000000" x2="95.000000" y2="41.000000"  style="stroke: black; stroke-linecap:round; stroke-width:0.25; stroke-dasharray:3,3;"/>
<text x="58.000000" y="43.000000" font-family="Arial" font-size="7">b1</text>
<a xlink:href="N-0x2b838ef0.svg">
<rect x="43.000000" y="93.000000" width="24.000000" height="24.000000" rx="0" ry="0" style="stroke:none;fill:#cccccc;"/>
<rect x="42.000000" y="92.000000" width="24.000000" height="24.000000" rx="0" ry="0" style="stroke:none;fill:#003366;"/>
</a>
<a xlink:href="N-0x2b838ef0.svg">
<text x="54.000000" y="106.000000" font-family="Arial" font-size="7" text-anchor="middle" fill="#FFFFFF">N</text>
</a>
<circle cx="44.000000" cy="94.000000" r="1"/>
<rect x="43.000000" y="135.000000" width="24.000000" height="24.000000" rx="0" ry="0" style="stroke:none;fill:#cccccc;"/>
<rect x="42.000000" y="134.000000" width="24.000000" height="24.000000" rx="0" ry="0" style="stroke:none;fill:#f44800;"/>
<text x="54.000000" y="148.000000" font-family="Arial" font-size="7" text-anchor="middle" fill="#FFFFFF">0</text>
<circle cx="44.000000" cy="136.000000" r="1"/>
<line x1="33.000000" y1="125.000000" x2="33.000000" y2="167.000000"  style="stroke: black; stroke-linecap:round; stroke-width:0.25; stroke-dasharray:3,3;"/>
<line x1="33.000000" y1="167.000000" x2="75.000000" y2="167.000000"  style="stroke: black; stroke-linecap:round; stroke-width:0.25; stroke-dasharray:3,3;"/>
<line x1="75.000000" y1="167.000000" x2="75.000000" y2="125.000000"  style="stroke: black; stroke-linecap:round; stroke-width:0.25; stroke-dasharray:3,3;"/>
<line x1="33.000000" y1="125.000000" x2="38.000000" y2="125.000000"  style="stroke: black; stroke-linecap:round; stroke-width:0.25; stroke-dasharray:3,3;"/>
<line x1="50.900000" y1="125.000000" x2="75.000000" y2="125.000000"  style="stroke: black; stroke-linecap:round; stroke-width:0.25; stroke-dasharray:3,3;"/>
<text x="38.000000" y="127.000000" font-family="Arial" font-size="7">b2</text>
<rect x="93.000000" y="119.000000" width="24.000000" height="24.000000" rx="0" ry="0" style="stroke:none;fill:#cccccc;"/>
<rect x="92.000000" y="118.000000" width="24.000000" height="24.000000" rx="0" ry="0" style="stroke:none;fill:#4B71A1;"/>
<text x="104.000000" y="132.000000" font-family="Arial" font-size="7" text-anchor="middle" fill="#FFFFFF">==</text>
<circle cx="94.000000" cy="120.000000" r="1"/>
<line x1="89.000000" y1="125.000000" x2="92.000000" y2="126.000000"  transform="rotate(0.000000,92.000000,126.000000)" style="stroke: black; stroke-width:0.25;"/>
<line x1="89.000000" y1="127.000000" x2="92.000000" y2="126.000000"  transform="rotate(0.000000,92.000000,126.000000)" style="stroke: black; stroke-width:0.25;"/>
<line x1="89.000000" y1="133.000000" x2="92.000000" y2="134.000000"  transform="rotate(0.000000,92.000000,134.000000)" style="stroke: black; stroke-width:0.25;"/>
<line x1="89.000000" y1="135.000000" x2="92.000000" y2="134.000000"  transform="rotate(0.000000,92.000000,134.000000)" style="stroke: black; stroke-width:0.25;"/>
<rect x="133.000000" y="93.000000" width="24.000000" height="24.000000" rx="0" ry="0" style="stroke:none;fill:#cccccc;"/>
<rect x="132.000000" y="92.000000" width="24.000000" height="24.000000" rx="0" ry="0" style="stroke:none;fill:#4B71A1;"/>
<text x="144.000000" y="106.000000" font-family="Arial" font-size="7" text-anchor="middle" fill="#FFFFFF">-</text>
<circle cx="134.000000" cy="94.000000" r="1"/>
<line x1="129.000000" y1="99.000000" x2="132.000000" y2="100.000000"  transform="rotate(0.000000,132.000000,100.000000)" style="stroke: black; stroke-width:0.25;"/>
<line x1="129.000000" y1="101.000000" x2="132.000000" y2="100.000000"  transform="rotate(0.000000,132.000000,100.000000)" style="stroke: black; stroke-width:0.25;"/>
<line x1="129.000000" y1="107.000000" x2="132.000000" y2="108.000000"  transform="rotate(0.000000,132.000000,108.000000)" style="stroke: black; stroke-width:0.25;"/>
<line x1="129.000000" y1="109.000000" x2="132.000000" y2="108.000000"  transform="rotate(0.000000,132.000000,108.000000)" style="stroke: black; stroke-width:0.25;"/>
<rect x="173.000000" y="89.000000" width="24.000000" height="24.000000" rx="0" ry="0" style="stroke:none;fill:#cccccc;"/>
<rect x="172.000000" y="88.000000" width="24.000000" height="24.000000" rx="0" ry="0" style="stroke:none;fill:#4B71A1;"/>
<text x="184.000000" y="102.000000" font-family="Arial" font-size="7" text-anchor="middle" fill="#FFFFFF">*</text>
<circle cx="174.000000" cy="90.000000" r="1"/>
<line x1="169.000000" y1="95.000000" x2="172.000000" y2="96.000000"  transform="rotate(0.000000,172.000000,96.000000)" style="stroke: black; stroke-width:0.25;"/>
<line x1="169.000000" y1="97.000000" x2="172.000000" y2="96.000000"  transform="rotate(0.000000,172.000000,96.000000)" style="stroke: black; stroke-width:0.25;"/>
<line x1="169.000000" y1="103.000000" x2="172.000000" y2="104.000000"  transform="rotate(0.000000,172.000000,104.000000)" style="stroke: black; stroke-width:0.25;"/>
<line x1="169.000000" y1="105.000000" x2="172.000000" y2="104.000000"  transform="rotate(0.000000,172.000000,104.000000)" style="stroke: black; stroke-width:0.25;"/>
<a xlink:href="N-0x2b838ef0.svg">
<rect x="47.000000" y="177.000000" width="24.000000" height="24.000000" rx="0" ry="0" style="stroke:none;fill:#cccccc;"/>
<rect x="46.000000" y="176.000000" width="24.000000" height="24.000000" rx="0" ry="0" style="stroke:none;fill:#003366;"/>
</a>
<a xlink:href="N-0x2b838ef0.svg">
<text x="58.000000" y="190.000000" font-family="Arial" font-size="7" text-anchor="middle" fill="#FFFFFF">N</text>
</a>
<circle cx="48.000000" cy="178.000000" r="1"/>
<rect x="79.000000" y="177.000000" width="24.000000" height="24.000000" rx="0" ry="0" style="stroke:none;fill:#cccccc;"/>
<rect x="78.000000" y="176.000000" width="24.000000" height="24.000000" rx="0" ry="0" style="stroke:none;fill:#4B71A1;"/>
<text x="90.000000" y="190.000000" font-family="Arial" font-size="7" text-anchor="middle" fill="#FFFFFF">mem</text>
<circle cx="80.000000" cy="178.000000" r="1"/>
<line x1="75.000000" y1="187.000000" x2="78.000000" y2="188.000000"  transform="rotate(0.000000,78.000000,188.000000)" style="stroke: black; stroke-width:0.25;"/>
<line x1="75.000000" y1="189.000000" x2="78.000000" y2="188.000000"  transform="rotate(0.000000,78.000000,188.000000)" style="stroke: black; stroke-width:0.25;"/>
<rect x="63.000000" y="219.000000" width="24.000000" height="24.000000" rx="0" ry="0" style="stroke:none;fill:#cccccc;"/>
<rect x="62.000000" y="218.000000" width="24.000000" height="24.000000" rx="0" ry="0" style="stroke:none;fill:#f44800;"/>
<text x="74.000000" y="232.000000" font-family="Arial" font-size="7" text-anchor="middle" fill="#FFFFFF">1</text>
<circle cx="64.000000" cy="220.000000" r="1"/>
<line x1="53.000000" y1="209.000000" x2="53.000000" y2="251.000000"  style="stroke: black; stroke-linecap:round; stroke-width:0.25; stroke-dasharray:3,3;"/>
<line x1="53.000000" y1="251.000000" x2="95.000000" y2="251.000000"  style="stroke: black; stroke-linecap:round; stroke-width:0.25; stroke-dasharray:3,3;"/>
<line x1="95.000000" y1="251.000000" x2="95.000000" y2="209.000000"  style="stroke: black; stroke-linecap:round; stroke-width:0.25; stroke-dasharray:3,3;"/>
<line x1="53.000000" y1="209.000000" x2="58.000000" y2="209.000000"  style="stroke: black; stroke-linecap:round; stroke-width:0.25; stroke-dasharray:3,3;"/>
<line x1="70.900000" y1="209.000000" x2="95.000000" y2="209.000000"  style="stroke: black; stroke-linecap:round; stroke-width:0.25; stroke-dasharray:3,3;"/>
<text x="58.000000" y="211.000000" font-family="Arial" font-size="7">b1</text>
<rect x="119.000000" y="203.000000" width="24.000000" height="24.000000" rx="0" ry="0" style="stroke:none;fill:#cccccc;"/>
<rect x="118.000000" y="202.000000" width="24.000000" height="24.000000" rx="0" ry="0" style="stroke:none;fill:#4B71A1;"/>
<text x="130.000000" y="216.000000" font-family="Arial" font-size="7" text-anchor="middle" fill="#FFFFFF">+</text>
<circle cx="120.000000" cy="204.000000" r="1"/>
<line x1="115.000000" y1="209.000000" x2="118.000000" y2="210.000000"  transform="rotate(0.000000,118.000000,210.000000)" style="stroke: black; stroke-width:0.25;"/>
<line x1="115.000000" y1="211.000000" x2="118.000000" y2="210.000000"  transform="rotate(0.000000,118.000000,210.000000)" style="stroke: black; stroke-width:0.25;"/>
<line x1="115.000000" y1="217.000000" x2="118.000000" y2="218.000000"  transform="rotate(0.000000,118.000000,218.000000)" style="stroke: black; stroke-width:0.25;"/>
<line x1="115.000000" y1="219.000000" x2="118.000000" y2="218.000000"  transform="rotate(0.000000,118.000000,218.000000)" style="stroke: black; stroke-width:0.25;"/>
<a xlink:href="N-0x2b838ef0.svg">
<rect x="63.000000" y="261.000000" width="24.000000" height="24.000000" rx="0" ry="0" style="stroke:none;fill:#cccccc;"/>
<rect x="62.000000" y="260.000000" width="24.000000" height="24.000000" rx="0" ry="0" style="stroke:none;fill:#003366;"/>
</a>
<a xlink:href="N-0x2b838ef0.svg">
<text x="74.000000" y="274.000000" font-family="Arial" font-size="7" text-anchor="middle" fill="#FFFFFF">N</text>
</a>
<circle cx="64.000000" cy="262.000000" r="1"/>
<rect x="63.000000" y="303.000000" width="24.000000" height="24.000000" rx="0" ry="0" style="stroke:none;fill:#cccccc;"/>
<rect x="62.000000" y="302.000000" width="24.000000" height="24.000000" rx="0" ry="0" style="stroke:none;fill:#f44800;"/>
<text x="74.000000" y="316.000000" font-family="Arial" font-size="7" text-anchor="middle" fill="#FFFFFF">0</text>
<circle cx="64.000000" cy="304.000000" r="1"/>
<line x1="53.000000" y1="293.000000" x2="53.000000" y2="335.000000"  style="stroke: black; stroke-linecap:round; stroke-width:0.25; stroke-dasharray:3,3;"/>
<line x1="53.000000" y1="335.000000" x2="95.000000" y2="335.000000"  style="stroke: black; stroke-linecap:round; stroke-width:0.25; stroke-dasharray:3,3;"/>
<line x1="95.000000" y1="335.000000" x2="95.000000" y2="293.000000"  style="stroke: black; stroke-linecap:round; stroke-width:0.25; stroke-dasharray:3,3;"/>
<line x1="53.000000" y1="293.000000" x2="58.000000" y2="293.000000"  style="stroke: black; stroke-linecap:round; stroke-width:0.25; stroke-dasharray:3,3;"/>
<line x1="70.900000" y1="293.000000" x2="95.000000" y2="293.000000"  style="stroke: black; stroke-linecap:round; stroke-width:0.25; stroke-dasharray:3,3;"/>
<text x="58.000000" y="295.000000" font-family="Arial" font-size="7">b2</text>
<rect x="113.000000" y="287.000000" width="24.000000" height="24.000000" rx="0" ry="0" style="stroke:none;fill:#cccccc;"/>
<rect x="112.000000" y="286.000000" width="24.000000" height="24.000000" rx="0" ry="0" style="stroke:none;fill:#4B71A1;"/>
<text x="124.000000" y="300.000000" font-family="Arial" font-size="7" text-anchor="middle" fill="#FFFFFF">==</text>
<circle cx="114.000000" cy="288.000000" r="1"/>
<line x1="109.000000" y1="293.000000" x2="112.000000" y2="294.000000"  transform="rotate(0.000000,112.000000,294.000000)" style="stroke: black; stroke-width:0.25;"/>
<line x1="109.000000" y1="295.000000" x2="112.000000" y2="294.000000"  transform="rotate(0.000000,112.000000,294.000000)" style="stroke: black; stroke-width:0.25;"/>
<line x1="109.000000" y1="301.000000" x2="112.000000" y2="302.000000"  transform="rotate(0.000000,112.000000,302.000000)" style="stroke: black; stroke-width:0.25;"/>
<line x1="109.000000" y1="303.000000" x2="112.000000" y2="302.000000"  transform="rotate(0.000000,112.000000,302.000000)" style="stroke: black; stroke-width:0.25;"/>
<rect x="159.000000" y="245.000000" width="24.000000" height="24.000000" rx="0" ry="0" style="stroke:none;fill:#cccccc;"/>
<rect x="158.000000" y="244.000000" width="24.000000" height="24.000000" rx="0" ry="0" style="stroke:none;fill:#4B71A1;"/>
<text x="170.000000" y="258.000000" font-family="Arial" font-size="7" text-anchor="middle" fill="#FFFFFF">*</text>
<circle cx="160.000000" cy="246.000000" r="1"/>
<line x1="155.000000" y1="251.000000" x2="158.000000" y2="252.000000"  transform="rotate(0.000000,158.000000,252.000000)" style="stroke: black; stroke-width:0.25;"/>
<line x1="155.000000" y1="253.000000" x2="158.000000" y2="252.000000"  transform="rotate(0.000000,158.000000,252.000000)" style="stroke: black; stroke-width:0.25;"/>
<line x1="155.000000" y1="259.000000" x2="158.000000" y2="260.000000"  transform="rotate(0.000000,158.000000,260.000000)" style="stroke: black; stroke-width:0.25;"/>
<line x1="155.000000" y1="261.000000" x2="158.000000" y2="260.000000"  transform="rotate(0.000000,158.000000,260.000000)" style="stroke: black; stroke-width:0.25;"/>
<rect x="213.000000" y="173.000000" width="24.000000" height="24.000000" rx="0" ry="0" style="stroke:none;fill:#cccccc;"/>
<rect x="212.000000" y="172.000000" width="24.000000" height="24.000000" rx="0" ry="0" style="stroke:none;fill:#4B71A1;"/>
<text x="224.000000" y="186.000000" font-family="Arial" font-size="7" text-anchor="middle" fill="#FFFFFF">+</text>
<circle cx="214.000000" cy="174.000000" r="1"/>
<line x1="209.000000" y1="179.000000" x2="212.000000" y2="180.000000"  transform="rotate(0.000000,212.000000,180.000000)" style="stroke: black; stroke-width:0.25;"/>
<line x1="209.000000" y1="181.000000" x2="212.000000" y2="180.000000"  transform="rotate(0.000000,212.000000,180.000000)" style="stroke: black; stroke-width:0.25;"/>
<line x1="209.000000" y1="187.000000" x2="212.000000" y2="188.000000"  transform="rotate(0.000000,212.000000,188.000000)" style="stroke: black; stroke-width:0.25;"/>
<line x1="209.000000" y1="189.000000" x2="212.000000" y2="188.000000"  transform="rotate(0.000000,212.000000,188.000000)" style="stroke: black; stroke-width:0.25;"/>
<line x1="238.000000" y1="184.000000" x2="238.000000" y2="180.000000"  style="stroke:black; stroke-linecap:round; stroke-width:0.25;"/>
<line x1="238.000000" y1="180.000000" x2="242.000000" y2="180.000000"  style="stroke:black; stroke-linecap:round; stroke-width:0.25;"/>
<line x1="242.000000" y1="180.000000" x2="242.000000" y2="184.000000"  style="stroke:black; stroke-linecap:round; stroke-width:0.25;"/>
<line x1="15.000000" y1="15.000000" x2="15.000000" y2="345.000000"  style="stroke: black; stroke-linecap:round; stroke-width:0.25; stroke-dasharray:3,3;"/>
<line x1="15.000000" y1="345.000000" x2="269.000000" y2="345.000000"  style="stroke: black; stroke-linecap:round; stroke-width:0.25; stroke-dasharray:3,3;"/>
<line x1="269.000000" y1="345.000000" x2="269.000000" y2="15.000000"  style="stroke: black; stroke-linecap:round; stroke-width:0.25; stroke-dasharray:3,3;"/>
<line x1="15.000000" y1="15.000000" x2="20.000000" y2="15.000000"  style="stroke: black; stroke-linecap:round; stroke-width:0.25; stroke-dasharray:3,3;"/>
<line x1="29.675000" y1="15.000000" x2="269.000000" y2="15.000000"  style="stroke: black; stroke-linecap:round; stroke-width:0.25; stroke-dasharray:3,3;"/>
<text x="20.000000" y="17.000000" font-family="Arial" font-size="7">M</text>
<line x1="271.000000" y1="179.000000" x2="274.000000" y2="180.000000"  transform="rotate(0.000000,274.000000,180.000000)" style="stroke: black; stroke-width:0.25;"/>
<line x1="271.000000" y1="181.000000" x2="274.000000" y2="180.000000"  transform="rotate(0.000000,274.000000,180.000000)" style="stroke: black; stroke-width:0.25;"/>
<line x1="28.000000" y1="24.000000" x2="28.000000" y2="24.000000"  style="stroke:black; stroke-linecap:round; stroke-width:0.25;"/>
<line x1="28.000000" y1="24.000000" x2="28.000000" y2="32.000000"  style="stroke:black; stroke-linecap:round; stroke-width:0.25;"/>
<line x1="28.000000" y1="32.000000" x2="28.000000" y2="32.000000"  style="stroke:black; stroke-linecap:round; stroke-width:0.25;"/>
<line x1="28.000000" y1="32.000000" x2="94.000000" y2="32.000000"  style="stroke:black; stroke-linecap:round; stroke-width:0.25;"/>
<line x1="66.000000" y1="104.000000" x2="70.000000" y2="104.000000"  style="stroke:black; stroke-linecap:round; stroke-width:0.25;"/>
<line x1="66.000000" y1="146.000000" x2="70.000000" y2="146.000000"  style="stroke:black; stroke-linecap:round; stroke-width:0.25;"/>
<line x1="70.000000" y1="104.000000" x2="80.000000" y2="104.000000"  style="stroke:black; stroke-linecap:round; stroke-width:0.25;"/>
<line x1="70.000000" y1="146.000000" x2="80.000000" y2="146.000000"  style="stroke:black; stroke-linecap:round; stroke-width:0.25;"/>
<line x1="70.000000" y1="188.000000" x2="74.000000" y2="188.000000"  style="stroke:black; stroke-linecap:round; stroke-width:0.25;"/>
<line x1="74.000000" y1="188.000000" x2="74.000000" y2="188.000000"  style="stroke:black; stroke-linecap:round; stroke-width:0.25;"/>
<line x1="74.000000" y1="188.000000" x2="78.000000" y2="188.000000"  style="stroke:black; stroke-linecap:round; stroke-width:0.25;"/>
<line x1="80.000000" y1="104.000000" x2="88.000000" y2="104.000000"  style="stroke:black; stroke-linecap:round; stroke-width:0.25;"/>
<line x1="80.000000" y1="134.000000" x2="88.000000" y2="134.000000"  style="stroke:black; stroke-linecap:round; stroke-width:0.25;"/>
<line x1="80.000000" y1="146.000000" x2="80.000000" y2="134.000000"  style="stroke:black; stroke-linecap:round; stroke-width:0.25;"/>
<line x1="80.000000" y1="146.000000" x2="80.000000" y2="146.000000"  style="stroke:black; stroke-linecap:round; stroke-width:0.25;"/>
<line x1="86.000000" y1="62.000000" x2="90.000000" y2="62.000000"  style="stroke:black; stroke-linecap:round; stroke-width:0.25;"/>
<line x1="86.000000" y1="230.000000" x2="90.000000" y2="230.000000"  style="stroke:black; stroke-linecap:round; stroke-width:0.25;"/>
<line x1="86.000000" y1="272.000000" x2="90.000000" y2="272.000000"  style="stroke:black; stroke-linecap:round; stroke-width:0.25;"/>
<line x1="86.000000" y1="314.000000" x2="90.000000" y2="314.000000"  style="stroke:black; stroke-linecap:round; stroke-width:0.25;"/>
<line x1="88.000000" y1="104.000000" x2="88.000000" y2="126.000000"  style="stroke:black; stroke-linecap:round; stroke-width:0.25;"/>
<line x1="88.000000" y1="126.000000" x2="88.000000" y2="126.000000"  style="stroke:black; stroke-linecap:round; stroke-width:0.25;"/>
<line x1="88.000000" y1="126.000000" x2="92.000000" y2="126.000000"  style="stroke:black; stroke-linecap:round; stroke-width:0.25;"/>
<line x1="88.000000" y1="134.000000" x2="92.000000" y2="134.000000"  style="stroke:black; stroke-linecap:round; stroke-width:0.25;"/>
<line x1="90.000000" y1="62.000000" x2="100.000000" y2="62.000000"  style="stroke:black; stroke-linecap:round; stroke-width:0.25;"/>
<line x1="90.000000" y1="230.000000" x2="100.000000" y2="230.000000"  style="stroke:black; stroke-linecap:round; stroke-width:0.25;"/>
<line x1="90.000000" y1="272.000000" x2="100.000000" y2="272.000000"  style="stroke:black; stroke-linecap:round; stroke-width:0.25;"/>
<line x1="90.000000" y1="314.000000" x2="100.000000" y2="314.000000"  style="stroke:black; stroke-linecap:round; stroke-width:0.25;"/>
<line x1="94.000000" y1="32.000000" x2="160.000000" y2="32.000000"  style="stroke:black; stroke-linecap:round; stroke-width:0.25;"/>
<line x1="100.000000" y1="62.000000" x2="120.000000" y2="62.000000"  style="stroke:black; stroke-linecap:round; stroke-width:0.25;"/>
<line x1="100.000000" y1="230.000000" x2="106.000000" y2="230.000000"  style="stroke:black; stroke-linecap:round; stroke-width:0.25;"/>
<line x1="100.000000" y1="272.000000" x2="108.000000" y2="272.000000"  style="stroke:black; stroke-linecap:round; stroke-width:0.25;"/>
<line x1="100.000000" y1="302.000000" x2="108.000000" y2="302.000000"  style="stroke:black; stroke-linecap:round; stroke-width:0.25;"/>
<line x1="100.000000" y1="314.000000" x2="100.000000" y2="302.000000"  style="stroke:black; stroke-linecap:round; stroke-width:0.25;"/>
<line x1="100.000000" y1="314.000000" x2="100.000000" y2="314.000000"  style="stroke:black; stroke-linecap:round; stroke-width:0.25;"/>
<line x1="102.000000" y1="188.000000" x2="106.000000" y2="188.000000"  style="stroke:black; stroke-linecap:round; stroke-width:0.25;"/>
<line x1="106.000000" y1="188.000000" x2="114.000000" y2="188.000000"  style="stroke:black; stroke-linecap:round; stroke-width:0.25;"/>
<line x1="106.000000" y1="218.000000" x2="114.000000" y2="218.000000"  style="stroke:black; stroke-linecap:round; stroke-width:0.25;"/>
<line x1="106.000000" y1="230.000000" x2="106.000000" y2="218.000000"  style="stroke:black; stroke-linecap:round; stroke-width:0.25;"/>
<line x1="106.000000" y1="230.000000" x2="106.000000" y2="230.000000"  style="stroke:black; stroke-linecap:round; stroke-width:0.25;"/>
<line x1="108.000000" y1="272.000000" x2="108.000000" y2="294.000000"  style="stroke:black; stroke-linecap:round; stroke-width:0.25;"/>
<line x1="108.000000" y1="294.000000" x2="108.000000" y2="294.000000"  style="stroke:black; stroke-linecap:round; stroke-width:0.25;"/>
<line x1="108.000000" y1="294.000000" x2="112.000000" y2="294.000000"  style="stroke:black; stroke-linecap:round; stroke-width:0.25;"/>
<line x1="108.000000" y1="302.000000" x2="112.000000" y2="302.000000"  style="stroke:black; stroke-linecap:round; stroke-width:0.25;"/>
<line x1="114.000000" y1="188.000000" x2="114.000000" y2="210.000000"  style="stroke:black; stroke-linecap:round; stroke-width:0.25;"/>
<line x1="114.000000" y1="210.000000" x2="114.000000" y2="210.000000"  style="stroke:black; stroke-linecap:round; stroke-width:0.25;"/>
<line x1="114.000000" y1="210.000000" x2="118.000000" y2="210.000000"  style="stroke:black; stroke-linecap:round; stroke-width:0.25;"/>
<line x1="114.000000" y1="218.000000" x2="118.000000" y2="218.000000"  style="stroke:black; stroke-linecap:round; stroke-width:0.25;"/>
<line x1="116.000000" y1="130.000000" x2="120.000000" y2="130.000000"  style="stroke:black; stroke-linecap:round; stroke-width:0.25;"/>
<line x1="120.000000" y1="62.000000" x2="128.000000" y2="62.000000"  style="stroke:black; stroke-linecap:round; stroke-width:0.25;"/>
<line x1="120.000000" y1="108.000000" x2="128.000000" y2="108.000000"  style="stroke:black; stroke-linecap:round; stroke-width:0.25;"/>
<line x1="120.000000" y1="130.000000" x2="120.000000" y2="108.000000"  style="stroke:black; stroke-linecap:round; stroke-width:0.25;"/>
<line x1="120.000000" y1="130.000000" x2="120.000000" y2="130.000000"  style="stroke:black; stroke-linecap:round; stroke-width:0.25;"/>
<line x1="128.000000" y1="62.000000" x2="128.000000" y2="100.000000"  style="stroke:black; stroke-linecap:round; stroke-width:0.25;"/>
<line x1="128.000000" y1="100.000000" x2="128.000000" y2="100.000000"  style="stroke:black; stroke-linecap:round; stroke-width:0.25;"/>
<line x1="128.000000" y1="100.000000" x2="132.000000" y2="100.000000"  style="stroke:black; stroke-linecap:round; stroke-width:0.25;"/>
<line x1="128.000000" y1="108.000000" x2="132.000000" y2="108.000000"  style="stroke:black; stroke-linecap:round; stroke-width:0.25;"/>
<line x1="134.000000" y1="24.000000" x2="28.000000" y2="24.000000"  style="stroke:black; stroke-linecap:round; stroke-width:0.25;"/>
<line x1="136.000000" y1="298.000000" x2="140.000000" y2="298.000000"  style="stroke:black; stroke-linecap:round; stroke-width:0.25;"/>
<line x1="140.000000" y1="298.000000" x2="146.000000" y2="298.000000"  style="stroke:black; stroke-linecap:round; stroke-width:0.25;"/>
<line x1="142.000000" y1="214.000000" x2="146.000000" y2="214.000000"  style="stroke:black; stroke-linecap:round; stroke-width:0.25;"/>
<line x1="146.000000" y1="214.000000" x2="154.000000" y2="214.000000"  style="stroke:black; stroke-linecap:round; stroke-width:0.25;"/>
<line x1="146.000000" y1="260.000000" x2="154.000000" y2="260.000000"  style="stroke:black; stroke-linecap:round; stroke-width:0.25;"/>
<line x1="146.000000" y1="298.000000" x2="146.000000" y2="260.000000"  style="stroke:black; stroke-linecap:round; stroke-width:0.25;"/>
<line x1="146.000000" y1="298.000000" x2="146.000000" y2="298.000000"  style="stroke:black; stroke-linecap:round; stroke-width:0.25;"/>
<line x1="154.000000" y1="214.000000" x2="154.000000" y2="252.000000"  style="stroke:black; stroke-linecap:round; stroke-width:0.25;"/>
<line x1="154.000000" y1="252.000000" x2="154.000000" y2="252.000000"  style="stroke:black; stroke-linecap:round; stroke-width:0.25;"/>
<line x1="154.000000" y1="252.000000" x2="158.000000" y2="252.000000"  style="stroke:black; stroke-linecap:round; stroke-width:0.25;"/>
<line x1="154.000000" y1="260.000000" x2="158.000000" y2="260.000000"  style="stroke:black; stroke-linecap:round; stroke-width:0.25;"/>
<line x1="156.000000" y1="104.000000" x2="160.000000" y2="104.000000"  style="stroke:black; stroke-linecap:round; stroke-width:0.25;"/>
<line x1="160.000000" y1="32.000000" x2="168.000000" y2="32.000000"  style="stroke:black; stroke-linecap:round; stroke-width:0.25;"/>
<line x1="160.000000" y1="104.000000" x2="168.000000" y2="104.000000"  style="stroke:black; stroke-linecap:round; stroke-width:0.25;"/>
<line x1="168.000000" y1="32.000000" x2="168.000000" y2="96.000000"  style="stroke:black; stroke-linecap:round; stroke-width:0.25;"/>
<line x1="168.000000" y1="96.000000" x2="168.000000" y2="96.000000"  style="stroke:black; stroke-linecap:round; stroke-width:0.25;"/>
<line x1="168.000000" y1="96.000000" x2="172.000000" y2="96.000000"  style="stroke:black; stroke-linecap:round; stroke-width:0.25;"/>
<line x1="168.000000" y1="104.000000" x2="172.000000" y2="104.000000"  style="stroke:black; stroke-linecap:round; stroke-width:0.25;"/>
<line x1="182.000000" y1="256.000000" x2="186.000000" y2="256.000000"  style="stroke:black; stroke-linecap:round; stroke-width:0.25;"/>
<line x1="186.000000" y1="256.000000" x2="200.000000" y2="256.000000"  style="stroke:black; stroke-linecap:round; stroke-width:0.25;"/>
<line x1="196.000000" y1="100.000000" x2="200.000000" y2="100.000000"  style="stroke:black; stroke-linecap:round; stroke-width:0.25;"/>
<line x1="200.000000" y1="100.000000" x2="208.000000" y2="100.000000"  style="stroke:black; stroke-linecap:round; stroke-width:0.25;"/>
<line x1="200.000000" y1="188.000000" x2="208.000000" y2="188.000000"  style="stroke:black; stroke-linecap:round; stroke-width:0.25;"/>
<line x1="200.000000" y1="256.000000" x2="200.000000" y2="188.000000"  style="stroke:black; stroke-linecap:round; stroke-width:0.25;"/>
<line x1="200.000000" y1="256.000000" x2="200.000000" y2="256.000000"  style="stroke:black; stroke-linecap:round; stroke-width:0.25;"/>
<line x1="208.000000" y1="100.000000" x2="208.000000" y2="180.000000"  style="stroke:black; stroke-linecap:round; stroke-width:0.25;"/>
<line x1="208.000000" y1="180.000000" x2="208.000000" y2="180.000000"  style="stroke:black; stroke-linecap:round; stroke-width:0.25;"/>
<line x1="208.000000" y1="180.000000" x2="212.000000" y2="180.000000"  style="stroke:black; stroke-linecap:round; stroke-width:0.25;"/>
<line x1="208.000000" y1="188.000000" x2="212.000000" y2="188.000000"  style="stroke:black; stroke-linecap:round; stroke-width:0.25;"/>
<line x1="236.000000" y1="184.000000" x2="240.000000" y2="184.000000"  style="stroke:black; stroke-linecap:round; stroke-width:0.25;"/>
<line x1="240.000000" y1="24.000000" x2="134.000000" y2="24.000000"  style="stroke:black; stroke-linecap:round; stroke-width:0.25;"/>
<line x1="240.000000" y1="24.000000" x2="240.000000" y2="24.000000"  style="stroke:black; stroke-linecap:round; stroke-width:0.25;"/>
<line x1="240.000000" y1="180.000000" x2="240.000000" y2="24.000000"  style="stroke:black; stroke-linecap:round; stroke-width:0.25;"/>
<line x1="240.000000" y1="184.000000" x2="242.000000" y2="184.000000"  style="stroke:black; stroke-linecap:round; stroke-width:0.25;"/>
<line x1="242.000000" y1="184.000000" x2="248.000000" y2="184.000000"  style="stroke:black; stroke-linecap:round; stroke-width:0.25;"/>
<line x1="248.000000" y1="180.000000" x2="256.000000" y2="180.000000"  style="stroke:black; stroke-linecap:round; stroke-width:0.25;"/>
<line x1="248.000000" y1="184.000000" x2="248.000000" y2="180.000000"  style="stroke:black; stroke-linecap:round; stroke-width:0.25;"/>
<line x1="248.000000" y1="184.000000" x2="248.000000" y2="184.000000"  style="stroke:black; stroke-linecap:round; stroke-width:0.25;"/>
<line x1="256.000000" y1="180.000000" x2="260.000000" y2="180.000000"  style="stroke:black; stroke-linecap:round; stroke-width:0.25;"/>
<line x1="260.000000" y1="180.000000" x2="264.000000" y2="180.000000"  style="stroke:black; stroke-linecap:round; stroke-width:0.25;"/>
<line x1="264.000000" y1="180.000000" x2="274.000000" y2="180.000000"  style="stroke:black; stroke-linecap:round; stroke-width:0.25;"/>
</svg>
