<?xml version="1.0"?>
<svg xmlns="http://www.w3.org/2000/svg" xmlns:xlink="http://www.w3.org/1999/xlink" viewBox="0 0 566.600000 72.000000" width="283.300000mm" height="36.000000mm" version="1.1">
<a xlink:href="stereoLimiter-0x2ee390e0.svg">
<rect x="1.000000" y="1.000000" width="565.600000" height="71.000000" rx="0" ry="0" style="stroke:none;fill:#cccccc;"/>
<rect x="0.000000" y="0.000000" width="565.600000" height="71.000000" rx="0" ry="0" style="stroke:none;fill:#ffffff;"/>
</a>
<text x="10.000000" y="7.000000" font-family="Arial" font-size="7"></text>
<rect x="33.000000" y="25.000000" width="24.000000" height="24.000000" rx="0" ry="0" style="stroke:none;fill:#cccccc;"/>
<rect x="32.000000" y="24.000000" width="24.000000" height="24.000000" rx="0" ry="0" style="stroke:none;fill:#4B71A1;"/>
<text x="44.000000" y="38.000000" font-family="Arial" font-size="7" text-anchor="middle" fill="#FFFFFF">abs</text>
<circle cx="34.000000" cy="26.000000" r="1"/>
<line x1="29.000000" y1="35.000000" x2="32.000000" y2="36.000000"  transform="rotate(0.000000,32.000000,36.000000)" style="stroke: black; stroke-width:0.25;"/>
<line x1="29.000000" y1="37.000000" x2="32.000000" y2="36.000000"  transform="rotate(0.000000,32.000000,36.000000)" style="stroke: black; stroke-width:0.25;"/>
<a xlink:href="bypass-0x2ee29100.svg">
<rect x="65.000000" y="25.000000" width="129.000000" height="24.000000" rx="0" ry="0" style="stroke:none;fill:#cccccc;"/>
<rect x="64.000000" y="24.000000" width="129.000000" height="24.000000" rx="0" ry="0" style="stroke:none;fill:#003366;"/>
</a>
<a xlink:href="bypass-0x2ee29100.svg">
<text x="128.500000" y="38.000000" font-family="Arial" font-size="7" text-anchor="middle" fill="#FFFFFF">bypass(1)(_&lt;:...env = {}])~_)</text>
</a>
<circle cx="66.000000" cy="26.000000" r="1"/>
<line x1="61.000000" y1="35.000000" x2="64.000000" y2="36.000000"  transform="rotate(0.000000,64.000000,36.000000)" style="stroke: black; stroke-width:0.25;"/>
<line x1="61.000000" y1="37.000000" x2="64.000000" y2="36.000000"  transform="rotate(0.000000,64.000000,36.000000)" style="stroke: black; stroke-width:0.25;"/>
<a xlink:href="linear2db-0x2b7c50e0.svg">
<rect x="202.000000" y="25.000000" width="38.700000" height="24.000000" rx="0" ry="0" style="stroke:none;fill:#cccccc;"/>
<rect x="201.000000" y="24.000000" width="38.700000" height="24.000000" rx="0" ry="0" style="stroke:none;fill:#003366;"/>
</a>
<a xlink:href="linear2db-0x2b7c50e0.svg">
<text x="220.350000" y="38.000000" font-family="Arial" font-size="7" text-anchor="middle" fill="#FFFFFF">linear2db</text>
</a>
<circle cx="203.000000" cy="26.000000" r="1"/>
<line x1="198.000000" y1="35.000000" x2="201.000000" y2="36.000000"  transform="rotate(0.000000,201.000000,36.000000)" style="stroke: black; stroke-width:0.25;"/>
<line x1="198.000000" y1="37.000000" x2="201.000000" y2="36.000000"  transform="rotate(0.000000,201.000000,36.000000)" style="stroke: black; stroke-width:0.25;"/>
<a xlink:href="gain-0x2ee2ea80.svg">
<rect x="248.700000" y="25.000000" width="103.200000" height="24.000000" rx="0" ry="0" style="stroke:none;fill:#cccccc;"/>
<rect x="247.700000" y="24.000000" width="103.200000" height="24.000000" rx="0" ry="0" style="stroke:none;fill:#003366;"/>
</a>
<a xlink:href="gain-0x2ee2ea80.svg">
<text x="299.300000" y="38.000000" font-family="Arial" font-size="7" text-anchor="middle" fill="#FFFFFF">gain_computer(1)(-3)(12)</text>
</a>
<circle cx="249.700000" cy="26.000000" r="1"/>
<line x1="244.700000" y1="35.000000" x2="247.700000" y2="36.000000"  transform="rotate(0.000000,247.700000,36.000000)" style="stroke: black; stroke-width:0.25;"/>
<line x1="244.700000" y1="37.000000" x2="247.700000" y2="36.000000"  transform="rotate(0.000000,247.700000,36.000000)" style="stroke: black; stroke-width:0.25;"/>
<a xlink:href="bypass-0x2ee2ed80.svg">
<rect x="359.900000" y="25.000000" width="129.000000" height="24.000000" rx="0" ry="0" style="stroke:none;fill:#cccccc;"/>
<rect x="358.900000" y="24.000000" width="129.000000" height="24.000000" rx="0" ry="0" style="stroke:none;fill:#003366;"/>
</a>
<a xlink:href="bypass-0x2ee2ed80.svg">
<text x="423.400000" y="38.000000" font-family="Arial" font-size="7" text-anchor="middle" fill="#FFFFFF">bypass(0)(_&lt;:...env = {}])~_)</text>
</a>
<circle cx="360.900000" cy="26.000000" r="1"/>
<line x1="355.900000" y1="35.000000" x2="358.900000" y2="36.000000"  transform="rotate(0.000000,358.900000,36.000000)" style="stroke: black; stroke-width:0.25;"/>
<line x1="355.900000" y1="37.000000" x2="358.900000" y2="36.000000"  transform="rotate(0.000000,358.900000,36.000000)" style="stroke: black; stroke-width:0.25;"/>
<a xlink:href="db2linear-0x4ca1870.svg">
<rect x="496.900000" y="25.000000" width="38.700000" height="24.000000" rx="0" ry="0" style="stroke:none;fill:#cccccc;"/>
<rect x="495.900000" y="24.000000" width="38.700000" height="24.000000" rx="0" ry="0" style="stroke:none;fill:#003366;"/>
</a>
<a xlink:href="db2linear-0x4ca1870.svg">
<text x="515.250000" y="38.000000" font-family="Arial" font-size="7" text-anchor="middle" fill="#FFFFFF">db2linear</text>
</a>
<circle cx="497.900000" cy="26.000000" r="1"/>
<line x1="492.900000" y1="35.000000" x2="495.900000" y2="36.000000"  transform="rotate(0.000000,495.900000,36.000000)" style="stroke: black; stroke-width:0.25;"/>
<line x1="492.900000" y1="37.000000" x2="495.900000" y2="36.000000"  transform="rotate(0.000000,495.900000,36.000000)" style="stroke: black; stroke-width:0.25;"/>
<line x1="15.000000" y1="15.000000" x2="15.000000" y2="57.000000"  style="stroke: black; stroke-linecap:round; stroke-width:0.25; stroke-dasharray:3,3;"/>
<line x1="15.000000" y1="57.000000" x2="551.600000" y2="57.000000"  style="stroke: black; stroke-linecap:round; stroke-width:0.25; stroke-dasharray:3,3;"/>
<line x1="551.600000" y1="57.000000" x2="551.600000" y2="15.000000"  style="stroke: black; stroke-linecap:round; stroke-width:0.25; stroke-dasharray:3,3;"/>
<line x1="15.000000" y1="15.000000" x2="20.000000" y2="15.000000"  style="stroke: black; stroke-linecap:round; stroke-width:0.25; stroke-dasharray:3,3;"/>
<line x1="142.550000" y1="15.000000" x2="551.600000" y2="15.000000"  style="stroke: black; stroke-linecap:round; stroke-width:0.25; stroke-dasharray:3,3;"/>
<text x="20.000000" y="17.000000" font-family="Arial" font-size="7">my_compressio...25f : *) : /)(12)(1)</text>
<line x1="553.600000" y1="35.000000" x2="556.600000" y2="36.000000"  transform="rotate(0.000000,556.600000,36.000000)" style="stroke: black; stroke-width:0.25;"/>
<line x1="553.600000" y1="37.000000" x2="556.600000" y2="36.000000"  transform="rotate(0.000000,556.600000,36.000000)" style="stroke: black; stroke-width:0.25;"/>
<line x1="10.000000" y1="36.000000" x2="20.000000" y2="36.000000"  style="stroke:black; stroke-linecap:round; stroke-width:0.25;"/>
<line x1="20.000000" y1="36.000000" x2="24.000000" y2="36.000000"  style="stroke:black; stroke-linecap:round; stroke-width:0.25;"/>
<line x1="24.000000" y1="36.000000" x2="28.000000" y2="36.000000"  style="stroke:black; stroke-linecap:round; stroke-width:0.25;"/>
<line x1="28.000000" y1="36.000000" x2="28.000000" y2="36.000000"  style="stroke:black; stroke-linecap:round; stroke-width:0.25;"/>
<line x1="28.000000" y1="36.000000" x2="32.000000" y2="36.000000"  style="stroke:black; stroke-linecap:round; stroke-width:0.25;"/>
<line x1="56.000000" y1="36.000000" x2="60.000000" y2="36.000000"  style="stroke:black; stroke-linecap:round; stroke-width:0.25;"/>
<line x1="60.000000" y1="36.000000" x2="60.000000" y2="36.000000"  style="stroke:black; stroke-linecap:round; stroke-width:0.25;"/>
<line x1="60.000000" y1="36.000000" x2="64.000000" y2="36.000000"  style="stroke:black; stroke-linecap:round; stroke-width:0.25;"/>
<line x1="193.000000" y1="36.000000" x2="197.000000" y2="36.000000"  style="stroke:black; stroke-linecap:round; stroke-width:0.25;"/>
<line x1="197.000000" y1="36.000000" x2="197.000000" y2="36.000000"  style="stroke:black; stroke-linecap:round; stroke-width:0.25;"/>
<line x1="197.000000" y1="36.000000" x2="201.000000" y2="36.000000"  style="stroke:black; stroke-linecap:round; stroke-width:0.25;"/>
<line x1="239.700000" y1="36.000000" x2="243.700000" y2="36.000000"  style="stroke:black; stroke-linecap:round; stroke-width:0.25;"/>
<line x1="243.700000" y1="36.000000" x2="243.700000" y2="36.000000"  style="stroke:black; stroke-linecap:round; stroke-width:0.25;"/>
<line x1="243.700000" y1="36.000000" x2="247.700000" y2="36.000000"  style="stroke:black; stroke-linecap:round; stroke-width:0.25;"/>
<line x1="350.900000" y1="36.000000" x2="354.900000" y2="36.000000"  style="stroke:black; stroke-linecap:round; stroke-width:0.25;"/>
<line x1="354.900000" y1="36.000000" x2="354.900000" y2="36.000000"  style="stroke:black; stroke-linecap:round; stroke-width:0.25;"/>
<line x1="354.900000" y1="36.000000" x2="358.900000" y2="36.000000"  style="stroke:black; stroke-linecap:round; stroke-width:0.25;"/>
<line x1="487.900000" y1="36.000000" x2="491.900000" y2="36.000000"  style="stroke:black; stroke-linecap:round; stroke-width:0.25;"/>
<line x1="491.900000" y1="36.000000" x2="491.900000" y2="36.000000"  style="stroke:black; stroke-linecap:round; stroke-width:0.25;"/>
<line x1="491.900000" y1="36.000000" x2="495.900000" y2="36.000000"  style="stroke:black; stroke-linecap:round; stroke-width:0.25;"/>
<line x1="534.600000" y1="36.000000" x2="538.600000" y2="36.000000"  style="stroke:black; stroke-linecap:round; stroke-width:0.25;"/>
<line x1="538.600000" y1="36.000000" x2="542.600000" y2="36.000000"  style="stroke:black; stroke-linecap:round; stroke-width:0.25;"/>
<line x1="538.600000" y1="36.000000" x2="538.600000" y2="36.000000"  style="stroke:black; stroke-linecap:round; stroke-width:0.25;"/>
<line x1="542.600000" y1="36.000000" x2="546.600000" y2="36.000000"  style="stroke:black; stroke-linecap:round; stroke-width:0.25;"/>
<line x1="546.600000" y1="36.000000" x2="556.600000" y2="36.000000"  style="stroke:black; stroke-linecap:round; stroke-width:0.25;"/>
</svg>
