<?xml version="1.0"?>
<svg xmlns="http://www.w3.org/2000/svg" xmlns:xlink="http://www.w3.org/1999/xlink" viewBox="0 0 576.700000 232.000000" width="288.350000mm" height="116.000000mm" version="1.1">
<a xlink:href="VoiceOfFaust-0x2ee39cc0.svg">
<rect x="1.000000" y="1.000000" width="575.700000" height="231.000000" rx="0" ry="0" style="stroke:none;fill:#cccccc;"/>
<rect x="0.000000" y="0.000000" width="575.700000" height="231.000000" rx="0" ry="0" style="stroke:none;fill:#ffffff;"/>
</a>
<text x="10.000000" y="7.000000" font-family="Arial" font-size="7"></text>
<rect x="49.000000" y="121.000000" width="24.000000" height="24.000000" rx="0" ry="0" style="stroke:none;fill:#cccccc;"/>
<rect x="48.000000" y="120.000000" width="24.000000" height="24.000000" rx="0" ry="0" style="stroke:none;fill:#4B71A1;"/>
<text x="60.000000" y="134.000000" font-family="Arial" font-size="7" text-anchor="middle" fill="#FFFFFF">+</text>
<circle cx="50.000000" cy="122.000000" r="1"/>
<line x1="45.000000" y1="127.000000" x2="48.000000" y2="128.000000"  transform="rotate(0.000000,48.000000,128.000000)" style="stroke: black; stroke-width:0.25;"/>
<line x1="45.000000" y1="129.000000" x2="48.000000" y2="128.000000"  transform="rotate(0.000000,48.000000,128.000000)" style="stroke: black; stroke-width:0.25;"/>
<line x1="45.000000" y1="135.000000" x2="48.000000" y2="136.000000"  transform="rotate(0.000000,48.000000,136.000000)" style="stroke: black; stroke-width:0.25;"/>
<line x1="45.000000" y1="137.000000" x2="48.000000" y2="136.000000"  transform="rotate(0.000000,48.000000,136.000000)" style="stroke: black; stroke-width:0.25;"/>
<a xlink:href="stringloopFBp-0x29bbd240.svg">
<rect x="129.000000" y="57.000000" width="129.000000" height="24.000000" rx="0" ry="0" style="stroke:none;fill:#cccccc;"/>
<rect x="128.000000" y="56.000000" width="129.000000" height="24.000000" rx="0" ry="0" style="stroke:none;fill:#003366;"/>
</a>
<a xlink:href="stringloopFBp-0x29bbd240.svg">
<text x="192.500000" y="70.000000" font-family="Arial" font-size="7" text-anchor="middle" fill="#FFFFFF">stringloopFBp...*))))))) : +)</text>
</a>
<circle cx="130.000000" cy="58.000000" r="1"/>
<line x1="125.000000" y1="67.000000" x2="128.000000" y2="68.000000"  transform="rotate(0.000000,128.000000,68.000000)" style="stroke: black; stroke-width:0.25;"/>
<line x1="125.000000" y1="69.000000" x2="128.000000" y2="68.000000"  transform="rotate(0.000000,128.000000,68.000000)" style="stroke: black; stroke-width:0.25;"/>
<a xlink:href="stringloopFBp-0x2a129180.svg">
<rect x="129.000000" y="89.000000" width="129.000000" height="24.000000" rx="0" ry="0" style="stroke:none;fill:#cccccc;"/>
<rect x="128.000000" y="88.000000" width="129.000000" height="24.000000" rx="0" ry="0" style="stroke:none;fill:#003366;"/>
</a>
<a xlink:href="stringloopFBp-0x2a129180.svg">
<text x="192.500000" y="102.000000" font-family="Arial" font-size="7" text-anchor="middle" fill="#FFFFFF">stringloopFBp...*))))))) : +)</text>
</a>
<circle cx="130.000000" cy="90.000000" r="1"/>
<line x1="125.000000" y1="99.000000" x2="128.000000" y2="100.000000"  transform="rotate(0.000000,128.000000,100.000000)" style="stroke: black; stroke-width:0.25;"/>
<line x1="125.000000" y1="101.000000" x2="128.000000" y2="100.000000"  transform="rotate(0.000000,128.000000,100.000000)" style="stroke: black; stroke-width:0.25;"/>
<a xlink:href="stringloopFBp-0x2a6950e0.svg">
<rect x="129.000000" y="121.000000" width="129.000000" height="24.000000" rx="0" ry="0" style="stroke:none;fill:#cccccc;"/>
<rect x="128.000000" y="120.000000" width="129.000000" height="24.000000" rx="0" ry="0" style="stroke:none;fill:#003366;"/>
</a>
<a xlink:href="stringloopFBp-0x2a6950e0.svg">
<text x="192.500000" y="134.000000" font-family="Arial" font-size="7" text-anchor="middle" fill="#FFFFFF">stringloopFBp...*))))))) : +)</text>
</a>
<circle cx="130.000000" cy="122.000000" r="1"/>
<line x1="125.000000" y1="131.000000" x2="128.000000" y2="132.000000"  transform="rotate(0.000000,128.000000,132.000000)" style="stroke: black; stroke-width:0.25;"/>
<line x1="125.000000" y1="133.000000" x2="128.000000" y2="132.000000"  transform="rotate(0.000000,128.000000,132.000000)" style="stroke: black; stroke-width:0.25;"/>
<a xlink:href="stringloopFBp-0x2ac00fb0.svg">
<rect x="129.000000" y="153.000000" width="129.000000" height="24.000000" rx="0" ry="0" style="stroke:none;fill:#cccccc;"/>
<rect x="128.000000" y="152.000000" width="129.000000" height="24.000000" rx="0" ry="0" style="stroke:none;fill:#003366;"/>
</a>
<a xlink:href="stringloopFBp-0x2ac00fb0.svg">
<text x="192.500000" y="166.000000" font-family="Arial" font-size="7" text-anchor="middle" fill="#FFFFFF">stringloopFBp...*))))))) : +)</text>
</a>
<circle cx="130.000000" cy="154.000000" r="1"/>
<line x1="125.000000" y1="163.000000" x2="128.000000" y2="164.000000"  transform="rotate(0.000000,128.000000,164.000000)" style="stroke: black; stroke-width:0.25;"/>
<line x1="125.000000" y1="165.000000" x2="128.000000" y2="164.000000"  transform="rotate(0.000000,128.000000,164.000000)" style="stroke: black; stroke-width:0.25;"/>
<a xlink:href="stringloopFBp-0x2b16cf00.svg">
<rect x="129.000000" y="185.000000" width="129.000000" height="24.000000" rx="0" ry="0" style="stroke:none;fill:#cccccc;"/>
<rect x="128.000000" y="184.000000" width="129.000000" height="24.000000" rx="0" ry="0" style="stroke:none;fill:#003366;"/>
</a>
<a xlink:href="stringloopFBp-0x2b16cf00.svg">
<text x="192.500000" y="198.000000" font-family="Arial" font-size="7" text-anchor="middle" fill="#FFFFFF">stringloopFBp...*))))))) : +)</text>
</a>
<circle cx="130.000000" cy="186.000000" r="1"/>
<line x1="125.000000" y1="195.000000" x2="128.000000" y2="196.000000"  transform="rotate(0.000000,128.000000,196.000000)" style="stroke: black; stroke-width:0.25;"/>
<line x1="125.000000" y1="197.000000" x2="128.000000" y2="196.000000"  transform="rotate(0.000000,128.000000,196.000000)" style="stroke: black; stroke-width:0.25;"/>
<a xlink:href="KPvocoder-0x2bcc7790.svg">
<rect x="314.000000" y="121.000000" width="129.000000" height="24.000000" rx="0" ry="0" style="stroke:none;fill:#cccccc;"/>
<rect x="313.000000" y="120.000000" width="129.000000" height="24.000000" rx="0" ry="0" style="stroke:none;fill:#003366;"/>
</a>
<a xlink:href="KPvocoder-0x2bcc7790.svg">
<text x="377.500000" y="134.000000" font-family="Arial" font-size="7" text-anchor="middle" fill="#FFFFFF">KPvocoder(x1)...: select2)~_)</text>
</a>
<circle cx="315.000000" cy="122.000000" r="1"/>
<line x1="310.000000" y1="131.000000" x2="313.000000" y2="132.000000"  transform="rotate(0.000000,313.000000,132.000000)" style="stroke: black; stroke-width:0.25;"/>
<line x1="310.000000" y1="133.000000" x2="313.000000" y2="132.000000"  transform="rotate(0.000000,313.000000,132.000000)" style="stroke: black; stroke-width:0.25;"/>
<a xlink:href="compressor-0x2cc1c120.svg">
<rect x="181.500000" y="25.000000" width="129.000000" height="24.000000" rx="0" ry="0" style="stroke:none;fill:#cccccc;"/>
<rect x="180.500000" y="24.000000" width="129.000000" height="24.000000" rx="0" ry="0" style="stroke:none;fill:#003366;"/>
</a>
<a xlink:href="compressor-0x2cc1c120.svg">
<text x="245.000000" y="38.000000" font-family="Arial" font-size="7" text-anchor="middle" fill="#FFFFFF">compressor_mo...25f : *) : /)</text>
</a>
<circle cx="307.500000" cy="46.000000" r="1"/>
<line x1="312.500000" y1="35.000000" x2="309.500000" y2="36.000000"  transform="rotate(0.000000,309.500000,36.000000)" style="stroke: black; stroke-width:0.25;"/>
<line x1="312.500000" y1="37.000000" x2="309.500000" y2="36.000000"  transform="rotate(0.000000,309.500000,36.000000)" style="stroke: black; stroke-width:0.25;"/>
<line x1="444.000000" y1="132.000000" x2="444.000000" y2="128.000000"  style="stroke:black; stroke-linecap:round; stroke-width:0.25;"/>
<line x1="444.000000" y1="128.000000" x2="448.000000" y2="128.000000"  style="stroke:black; stroke-linecap:round; stroke-width:0.25;"/>
<line x1="448.000000" y1="128.000000" x2="448.000000" y2="132.000000"  style="stroke:black; stroke-linecap:round; stroke-width:0.25;"/>
<a xlink:href="KPvolume-0x3cbd250.svg">
<rect x="467.000000" y="109.000000" width="38.700000" height="24.000000" rx="0" ry="0" style="stroke:none;fill:#cccccc;"/>
<rect x="466.000000" y="108.000000" width="38.700000" height="24.000000" rx="0" ry="0" style="stroke:none;fill:#003366;"/>
</a>
<a xlink:href="KPvolume-0x3cbd250.svg">
<text x="485.350000" y="122.000000" font-family="Arial" font-size="7" text-anchor="middle" fill="#FFFFFF">KPvolume</text>
</a>
<circle cx="468.000000" cy="110.000000" r="1"/>
<rect x="521.700000" y="105.000000" width="24.000000" height="24.000000" rx="0" ry="0" style="stroke:none;fill:#cccccc;"/>
<rect x="520.700000" y="104.000000" width="24.000000" height="24.000000" rx="0" ry="0" style="stroke:none;fill:#4B71A1;"/>
<text x="532.700000" y="118.000000" font-family="Arial" font-size="7" text-anchor="middle" fill="#FFFFFF">*</text>
<circle cx="522.700000" cy="106.000000" r="1"/>
<line x1="517.700000" y1="111.000000" x2="520.700000" y2="112.000000"  transform="rotate(0.000000,520.700000,112.000000)" style="stroke: black; stroke-width:0.25;"/>
<line x1="517.700000" y1="113.000000" x2="520.700000" y2="112.000000"  transform="rotate(0.000000,520.700000,112.000000)" style="stroke: black; stroke-width:0.25;"/>
<line x1="517.700000" y1="119.000000" x2="520.700000" y2="120.000000"  transform="rotate(0.000000,520.700000,120.000000)" style="stroke: black; stroke-width:0.25;"/>
<line x1="517.700000" y1="121.000000" x2="520.700000" y2="120.000000"  transform="rotate(0.000000,520.700000,120.000000)" style="stroke: black; stroke-width:0.25;"/>
<line x1="15.000000" y1="15.000000" x2="15.000000" y2="217.000000"  style="stroke: black; stroke-linecap:round; stroke-width:0.25; stroke-dasharray:3,3;"/>
<line x1="15.000000" y1="217.000000" x2="561.700000" y2="217.000000"  style="stroke: black; stroke-linecap:round; stroke-width:0.25; stroke-dasharray:3,3;"/>
<line x1="561.700000" y1="217.000000" x2="561.700000" y2="15.000000"  style="stroke: black; stroke-linecap:round; stroke-width:0.25; stroke-dasharray:3,3;"/>
<line x1="15.000000" y1="15.000000" x2="20.000000" y2="15.000000"  style="stroke: black; stroke-linecap:round; stroke-width:0.25; stroke-dasharray:3,3;"/>
<line x1="119.975000" y1="15.000000" x2="561.700000" y2="15.000000"  style="stroke: black; stroke-linecap:round; stroke-width:0.25; stroke-dasharray:3,3;"/>
<text x="20.000000" y="17.000000" font-family="Arial" font-size="7">stringloopBan...*))))))) : +)</text>
<line x1="563.700000" y1="115.000000" x2="566.700000" y2="116.000000"  transform="rotate(0.000000,566.700000,116.000000)" style="stroke: black; stroke-width:0.25;"/>
<line x1="563.700000" y1="117.000000" x2="566.700000" y2="116.000000"  transform="rotate(0.000000,566.700000,116.000000)" style="stroke: black; stroke-width:0.25;"/>
<line x1="10.000000" y1="116.000000" x2="20.000000" y2="116.000000"  style="stroke:black; stroke-linecap:round; stroke-width:0.25;"/>
<line x1="20.000000" y1="116.000000" x2="24.000000" y2="116.000000"  style="stroke:black; stroke-linecap:round; stroke-width:0.25;"/>
<line x1="24.000000" y1="116.000000" x2="28.000000" y2="116.000000"  style="stroke:black; stroke-linecap:round; stroke-width:0.25;"/>
<line x1="28.000000" y1="116.000000" x2="36.000000" y2="116.000000"  style="stroke:black; stroke-linecap:round; stroke-width:0.25;"/>
<line x1="36.000000" y1="116.000000" x2="36.000000" y2="136.000000"  style="stroke:black; stroke-linecap:round; stroke-width:0.25;"/>
<line x1="36.000000" y1="136.000000" x2="36.000000" y2="136.000000"  style="stroke:black; stroke-linecap:round; stroke-width:0.25;"/>
<line x1="36.000000" y1="136.000000" x2="44.000000" y2="136.000000"  style="stroke:black; stroke-linecap:round; stroke-width:0.25;"/>
<line x1="44.000000" y1="36.000000" x2="44.000000" y2="36.000000"  style="stroke:black; stroke-linecap:round; stroke-width:0.25;"/>
<line x1="44.000000" y1="36.000000" x2="44.000000" y2="128.000000"  style="stroke:black; stroke-linecap:round; stroke-width:0.25;"/>
<line x1="44.000000" y1="128.000000" x2="44.000000" y2="128.000000"  style="stroke:black; stroke-linecap:round; stroke-width:0.25;"/>
<line x1="44.000000" y1="128.000000" x2="48.000000" y2="128.000000"  style="stroke:black; stroke-linecap:round; stroke-width:0.25;"/>
<line x1="44.000000" y1="136.000000" x2="44.000000" y2="136.000000"  style="stroke:black; stroke-linecap:round; stroke-width:0.25;"/>
<line x1="44.000000" y1="136.000000" x2="48.000000" y2="136.000000"  style="stroke:black; stroke-linecap:round; stroke-width:0.25;"/>
<line x1="72.000000" y1="132.000000" x2="76.000000" y2="132.000000"  style="stroke:black; stroke-linecap:round; stroke-width:0.25;"/>
<line x1="76.000000" y1="132.000000" x2="124.000000" y2="68.000000"  style="stroke:black; stroke-linecap:round; stroke-width:0.25;"/>
<line x1="76.000000" y1="132.000000" x2="124.000000" y2="100.000000"  style="stroke:black; stroke-linecap:round; stroke-width:0.25;"/>
<line x1="76.000000" y1="132.000000" x2="124.000000" y2="132.000000"  style="stroke:black; stroke-linecap:round; stroke-width:0.25;"/>
<line x1="76.000000" y1="132.000000" x2="124.000000" y2="164.000000"  style="stroke:black; stroke-linecap:round; stroke-width:0.25;"/>
<line x1="76.000000" y1="132.000000" x2="124.000000" y2="196.000000"  style="stroke:black; stroke-linecap:round; stroke-width:0.25;"/>
<line x1="124.000000" y1="68.000000" x2="128.000000" y2="68.000000"  style="stroke:black; stroke-linecap:round; stroke-width:0.25;"/>
<line x1="124.000000" y1="100.000000" x2="128.000000" y2="100.000000"  style="stroke:black; stroke-linecap:round; stroke-width:0.25;"/>
<line x1="124.000000" y1="132.000000" x2="128.000000" y2="132.000000"  style="stroke:black; stroke-linecap:round; stroke-width:0.25;"/>
<line x1="124.000000" y1="164.000000" x2="128.000000" y2="164.000000"  style="stroke:black; stroke-linecap:round; stroke-width:0.25;"/>
<line x1="124.000000" y1="196.000000" x2="128.000000" y2="196.000000"  style="stroke:black; stroke-linecap:round; stroke-width:0.25;"/>
<line x1="176.500000" y1="36.000000" x2="44.000000" y2="36.000000"  style="stroke:black; stroke-linecap:round; stroke-width:0.25;"/>
<line x1="180.500000" y1="36.000000" x2="176.500000" y2="36.000000"  style="stroke:black; stroke-linecap:round; stroke-width:0.25;"/>
<line x1="257.000000" y1="68.000000" x2="261.000000" y2="68.000000"  style="stroke:black; stroke-linecap:round; stroke-width:0.25;"/>
<line x1="257.000000" y1="100.000000" x2="261.000000" y2="100.000000"  style="stroke:black; stroke-linecap:round; stroke-width:0.25;"/>
<line x1="257.000000" y1="132.000000" x2="261.000000" y2="132.000000"  style="stroke:black; stroke-linecap:round; stroke-width:0.25;"/>
<line x1="257.000000" y1="164.000000" x2="261.000000" y2="164.000000"  style="stroke:black; stroke-linecap:round; stroke-width:0.25;"/>
<line x1="257.000000" y1="196.000000" x2="261.000000" y2="196.000000"  style="stroke:black; stroke-linecap:round; stroke-width:0.25;"/>
<line x1="261.000000" y1="68.000000" x2="309.000000" y2="132.000000"  style="stroke:black; stroke-linecap:round; stroke-width:0.25;"/>
<line x1="261.000000" y1="100.000000" x2="309.000000" y2="132.000000"  style="stroke:black; stroke-linecap:round; stroke-width:0.25;"/>
<line x1="261.000000" y1="132.000000" x2="309.000000" y2="132.000000"  style="stroke:black; stroke-linecap:round; stroke-width:0.25;"/>
<line x1="261.000000" y1="164.000000" x2="309.000000" y2="132.000000"  style="stroke:black; stroke-linecap:round; stroke-width:0.25;"/>
<line x1="261.000000" y1="196.000000" x2="309.000000" y2="132.000000"  style="stroke:black; stroke-linecap:round; stroke-width:0.25;"/>
<line x1="309.000000" y1="132.000000" x2="313.000000" y2="132.000000"  style="stroke:black; stroke-linecap:round; stroke-width:0.25;"/>
<line x1="313.500000" y1="36.000000" x2="309.500000" y2="36.000000"  style="stroke:black; stroke-linecap:round; stroke-width:0.25;"/>
<line x1="442.000000" y1="132.000000" x2="446.000000" y2="132.000000"  style="stroke:black; stroke-linecap:round; stroke-width:0.25;"/>
<line x1="446.000000" y1="36.000000" x2="313.500000" y2="36.000000"  style="stroke:black; stroke-linecap:round; stroke-width:0.25;"/>
<line x1="446.000000" y1="36.000000" x2="446.000000" y2="36.000000"  style="stroke:black; stroke-linecap:round; stroke-width:0.25;"/>
<line x1="446.000000" y1="128.000000" x2="446.000000" y2="36.000000"  style="stroke:black; stroke-linecap:round; stroke-width:0.25;"/>
<line x1="446.000000" y1="132.000000" x2="448.000000" y2="132.000000"  style="stroke:black; stroke-linecap:round; stroke-width:0.25;"/>
<line x1="448.000000" y1="132.000000" x2="454.000000" y2="132.000000"  style="stroke:black; stroke-linecap:round; stroke-width:0.25;"/>
<line x1="454.000000" y1="100.000000" x2="462.000000" y2="100.000000"  style="stroke:black; stroke-linecap:round; stroke-width:0.25;"/>
<line x1="454.000000" y1="132.000000" x2="454.000000" y2="100.000000"  style="stroke:black; stroke-linecap:round; stroke-width:0.25;"/>
<line x1="454.000000" y1="132.000000" x2="454.000000" y2="132.000000"  style="stroke:black; stroke-linecap:round; stroke-width:0.25;"/>
<line x1="462.000000" y1="100.000000" x2="485.350000" y2="100.000000"  style="stroke:black; stroke-linecap:round; stroke-width:0.25;"/>
<line x1="485.350000" y1="100.000000" x2="508.700000" y2="100.000000"  style="stroke:black; stroke-linecap:round; stroke-width:0.25;"/>
<line x1="504.700000" y1="120.000000" x2="508.700000" y2="120.000000"  style="stroke:black; stroke-linecap:round; stroke-width:0.25;"/>
<line x1="508.700000" y1="120.000000" x2="516.700000" y2="120.000000"  style="stroke:black; stroke-linecap:round; stroke-width:0.25;"/>
<line x1="508.700000" y1="100.000000" x2="516.700000" y2="100.000000"  style="stroke:black; stroke-linecap:round; stroke-width:0.25;"/>
<line x1="516.700000" y1="100.000000" x2="516.700000" y2="112.000000"  style="stroke:black; stroke-linecap:round; stroke-width:0.25;"/>
<line x1="516.700000" y1="112.000000" x2="516.700000" y2="112.000000"  style="stroke:black; stroke-linecap:round; stroke-width:0.25;"/>
<line x1="516.700000" y1="112.000000" x2="520.700000" y2="112.000000"  style="stroke:black; stroke-linecap:round; stroke-width:0.25;"/>
<line x1="516.700000" y1="120.000000" x2="520.700000" y2="120.000000"  style="stroke:black; stroke-linecap:round; stroke-width:0.25;"/>
<line x1="544.700000" y1="116.000000" x2="548.700000" y2="116.000000"  style="stroke:black; stroke-linecap:round; stroke-width:0.25;"/>
<line x1="548.700000" y1="116.000000" x2="548.700000" y2="116.000000"  style="stroke:black; stroke-linecap:round; stroke-width:0.25;"/>
<line x1="548.700000" y1="116.000000" x2="552.700000" y2="116.000000"  style="stroke:black; stroke-linecap:round; stroke-width:0.25;"/>
<line x1="552.700000" y1="116.000000" x2="556.700000" y2="116.000000"  style="stroke:black; stroke-linecap:round; stroke-width:0.25;"/>
<line x1="556.700000" y1="116.000000" x2="566.700000" y2="116.000000"  style="stroke:black; stroke-linecap:round; stroke-width:0.25;"/>
</svg>
