<?xml version="1.0"?>
<svg xmlns="http://www.w3.org/2000/svg" xmlns:xlink="http://www.w3.org/1999/xlink" viewBox="0 0 1015.600000 240.000000" width="507.800000mm" height="120.000000mm" version="1.1">
<a xlink:href="process.svg">
<rect x="1.000000" y="1.000000" width="1014.600000" height="239.000000" rx="0" ry="0" style="stroke:none;fill:#cccccc;"/>
<rect x="0.000000" y="0.000000" width="1014.600000" height="239.000000" rx="0" ry="0" style="stroke:none;fill:#ffffff;"/>
</a>
<text x="10.000000" y="7.000000" font-family="Arial" font-size="7"></text>
<a xlink:href="voice-0x27bf1850.svg">
<rect x="25.000000" y="109.000000" width="129.000000" height="24.000000" rx="0" ry="0" style="stroke:none;fill:#cccccc;"/>
<rect x="24.000000" y="108.000000" width="129.000000" height="24.000000" rx="0" ry="0" style="stroke:none;fill:#003366;"/>
</a>
<a xlink:href="voice-0x27bf1850.svg">
<text x="88.500000" y="122.000000" font-family="Arial" font-size="7" text-anchor="middle" fill="#FFFFFF">voice(x1)((((...))) : attach)</text>
</a>
<circle cx="26.000000" cy="110.000000" r="1"/>
<a xlink:href="pmFX-0x27e93b90.svg">
<rect x="190.000000" y="93.000000" width="129.000000" height="24.000000" rx="0" ry="0" style="stroke:none;fill:#cccccc;"/>
<rect x="189.000000" y="92.000000" width="129.000000" height="24.000000" rx="0" ry="0" style="stroke:none;fill:#003366;"/>
</a>
<a xlink:href="pmFX-0x27e93b90.svg">
<text x="253.500000" y="106.000000" font-family="Arial" font-size="7" text-anchor="middle" fill="#FFFFFF">pmFX((((vgrou...99f : *))))))</text>
</a>
<circle cx="191.000000" cy="94.000000" r="1"/>
<line x1="186.000000" y1="103.000000" x2="189.000000" y2="104.000000"  transform="rotate(0.000000,189.000000,104.000000)" style="stroke: black; stroke-width:0.25;"/>
<line x1="186.000000" y1="105.000000" x2="189.000000" y2="104.000000"  transform="rotate(0.000000,189.000000,104.000000)" style="stroke: black; stroke-width:0.25;"/>
<a xlink:href="pmFX-0x28b8ed90.svg">
<rect x="190.000000" y="125.000000" width="129.000000" height="24.000000" rx="0" ry="0" style="stroke:none;fill:#cccccc;"/>
<rect x="189.000000" y="124.000000" width="129.000000" height="24.000000" rx="0" ry="0" style="stroke:none;fill:#003366;"/>
</a>
<a xlink:href="pmFX-0x28b8ed90.svg">
<text x="253.500000" y="138.000000" font-family="Arial" font-size="7" text-anchor="middle" fill="#FFFFFF">pmFX((((vgrou...: *))))) : -)</text>
</a>
<circle cx="191.000000" cy="126.000000" r="1"/>
<line x1="186.000000" y1="135.000000" x2="189.000000" y2="136.000000"  transform="rotate(0.000000,189.000000,136.000000)" style="stroke: black; stroke-width:0.25;"/>
<line x1="186.000000" y1="137.000000" x2="189.000000" y2="136.000000"  transform="rotate(0.000000,189.000000,136.000000)" style="stroke: black; stroke-width:0.25;"/>
<a xlink:href="DryPath-0x29473a50.svg">
<rect x="361.000000" y="61.000000" width="129.000000" height="24.000000" rx="0" ry="0" style="stroke:none;fill:#cccccc;"/>
<rect x="360.000000" y="60.000000" width="129.000000" height="24.000000" rx="0" ry="0" style="stroke:none;fill:#003366;"/>
</a>
<a xlink:href="DryPath-0x29473a50.svg">
<text x="424.500000" y="74.000000" font-family="Arial" font-size="7" text-anchor="middle" fill="#FFFFFF">DryPath(vgrou...*))))))) : +)</text>
</a>
<circle cx="362.000000" cy="62.000000" r="1"/>
<line x1="357.000000" y1="71.000000" x2="360.000000" y2="72.000000"  transform="rotate(0.000000,360.000000,72.000000)" style="stroke: black; stroke-width:0.25;"/>
<line x1="357.000000" y1="73.000000" x2="360.000000" y2="72.000000"  transform="rotate(0.000000,360.000000,72.000000)" style="stroke: black; stroke-width:0.25;"/>
<a xlink:href="stringloopBan-0x2cc1c200.svg">
<rect x="361.000000" y="93.000000" width="129.000000" height="24.000000" rx="0" ry="0" style="stroke:none;fill:#cccccc;"/>
<rect x="360.000000" y="92.000000" width="129.000000" height="24.000000" rx="0" ry="0" style="stroke:none;fill:#003366;"/>
</a>
<a xlink:href="stringloopBan-0x2cc1c200.svg">
<text x="424.500000" y="106.000000" font-family="Arial" font-size="7" text-anchor="middle" fill="#FFFFFF">stringloopBan...*))))))) : +)</text>
</a>
<circle cx="362.000000" cy="94.000000" r="1"/>
<line x1="357.000000" y1="103.000000" x2="360.000000" y2="104.000000"  transform="rotate(0.000000,360.000000,104.000000)" style="stroke: black; stroke-width:0.25;"/>
<line x1="357.000000" y1="105.000000" x2="360.000000" y2="104.000000"  transform="rotate(0.000000,360.000000,104.000000)" style="stroke: black; stroke-width:0.25;"/>
<a xlink:href="DryPath-0x2cc22280.svg">
<rect x="361.000000" y="125.000000" width="129.000000" height="24.000000" rx="0" ry="0" style="stroke:none;fill:#cccccc;"/>
<rect x="360.000000" y="124.000000" width="129.000000" height="24.000000" rx="0" ry="0" style="stroke:none;fill:#003366;"/>
</a>
<a xlink:href="DryPath-0x2cc22280.svg">
<text x="424.500000" y="138.000000" font-family="Arial" font-size="7" text-anchor="middle" fill="#FFFFFF">DryPath(0,vgr...*))))))) : -)</text>
</a>
<circle cx="362.000000" cy="126.000000" r="1"/>
<line x1="357.000000" y1="135.000000" x2="360.000000" y2="136.000000"  transform="rotate(0.000000,360.000000,136.000000)" style="stroke: black; stroke-width:0.25;"/>
<line x1="357.000000" y1="137.000000" x2="360.000000" y2="136.000000"  transform="rotate(0.000000,360.000000,136.000000)" style="stroke: black; stroke-width:0.25;"/>
<a xlink:href="stringloopBan-0x2edd7e30.svg">
<rect x="361.000000" y="157.000000" width="129.000000" height="24.000000" rx="0" ry="0" style="stroke:none;fill:#cccccc;"/>
<rect x="360.000000" y="156.000000" width="129.000000" height="24.000000" rx="0" ry="0" style="stroke:none;fill:#003366;"/>
</a>
<a xlink:href="stringloopBan-0x2edd7e30.svg">
<text x="424.500000" y="170.000000" font-family="Arial" font-size="7" text-anchor="middle" fill="#FFFFFF">stringloopBan...*))))))) : -)</text>
</a>
<circle cx="362.000000" cy="158.000000" r="1"/>
<line x1="357.000000" y1="167.000000" x2="360.000000" y2="168.000000"  transform="rotate(0.000000,360.000000,168.000000)" style="stroke: black; stroke-width:0.25;"/>
<line x1="357.000000" y1="169.000000" x2="360.000000" y2="168.000000"  transform="rotate(0.000000,360.000000,168.000000)" style="stroke: black; stroke-width:0.25;"/>
<a xlink:href="stereoLimiter-0x2ee390e0.svg">
<rect x="532.000000" y="109.000000" width="129.000000" height="24.000000" rx="0" ry="0" style="stroke:none;fill:#cccccc;"/>
<rect x="531.000000" y="108.000000" width="129.000000" height="24.000000" rx="0" ry="0" style="stroke:none;fill:#003366;"/>
</a>
<a xlink:href="stereoLimiter-0x2ee390e0.svg">
<text x="595.500000" y="122.000000" font-family="Arial" font-size="7" text-anchor="middle" fill="#FFFFFF">stereoLimiter...h),0.25f : *)</text>
</a>
<circle cx="533.000000" cy="110.000000" r="1"/>
<line x1="528.000000" y1="115.000000" x2="531.000000" y2="116.000000"  transform="rotate(0.000000,531.000000,116.000000)" style="stroke: black; stroke-width:0.25;"/>
<line x1="528.000000" y1="117.000000" x2="531.000000" y2="116.000000"  transform="rotate(0.000000,531.000000,116.000000)" style="stroke: black; stroke-width:0.25;"/>
<line x1="528.000000" y1="123.000000" x2="531.000000" y2="124.000000"  transform="rotate(0.000000,531.000000,124.000000)" style="stroke: black; stroke-width:0.25;"/>
<line x1="528.000000" y1="125.000000" x2="531.000000" y2="124.000000"  transform="rotate(0.000000,531.000000,124.000000)" style="stroke: black; stroke-width:0.25;"/>
<a xlink:href="envelop-0x2ee39580.svg">
<rect x="712.000000" y="63.000000" width="38.700000" height="24.000000" rx="0" ry="0" style="stroke:none;fill:#cccccc;"/>
<rect x="711.000000" y="62.000000" width="38.700000" height="24.000000" rx="0" ry="0" style="stroke:none;fill:#003366;"/>
</a>
<a xlink:href="envelop-0x2ee39580.svg">
<text x="730.350000" y="76.000000" font-family="Arial" font-size="7" text-anchor="middle" fill="#FFFFFF">envelop</text>
</a>
<circle cx="713.000000" cy="64.000000" r="1"/>
<line x1="708.000000" y1="73.000000" x2="711.000000" y2="74.000000"  transform="rotate(0.000000,711.000000,74.000000)" style="stroke: black; stroke-width:0.25;"/>
<line x1="708.000000" y1="75.000000" x2="711.000000" y2="74.000000"  transform="rotate(0.000000,711.000000,74.000000)" style="stroke: black; stroke-width:0.25;"/>
<rect x="788.700000" y="63.000000" width="116.100000" height="24.000000" rx="0" ry="0" style="stroke:none;fill:#cccccc;"/>
<rect x="787.700000" y="62.000000" width="116.100000" height="24.000000" rx="0" ry="0" style="stroke:none;fill:#477881;"/>
<text x="845.750000" y="76.000000" font-family="Arial" font-size="7" text-anchor="middle" fill="#FFFFFF">hbargraph(, -7e+01f, 0.0f)</text>
<circle cx="789.700000" cy="64.000000" r="1"/>
<line x1="784.700000" y1="73.000000" x2="787.700000" y2="74.000000"  transform="rotate(0.000000,787.700000,74.000000)" style="stroke: black; stroke-width:0.25;"/>
<line x1="784.700000" y1="75.000000" x2="787.700000" y2="74.000000"  transform="rotate(0.000000,787.700000,74.000000)" style="stroke: black; stroke-width:0.25;"/>
<line x1="778.700000" y1="53.000000" x2="778.700000" y2="95.000000"  style="stroke: black; stroke-linecap:round; stroke-width:0.25; stroke-dasharray:3,3;"/>
<line x1="778.700000" y1="95.000000" x2="912.800000" y2="95.000000"  style="stroke: black; stroke-linecap:round; stroke-width:0.25; stroke-dasharray:3,3;"/>
<line x1="912.800000" y1="95.000000" x2="912.800000" y2="53.000000"  style="stroke: black; stroke-linecap:round; stroke-width:0.25; stroke-dasharray:3,3;"/>
<line x1="778.700000" y1="53.000000" x2="783.700000" y2="53.000000"  style="stroke: black; stroke-linecap:round; stroke-width:0.25; stroke-dasharray:3,3;"/>
<line x1="854.650000" y1="53.000000" x2="912.800000" y2="53.000000"  style="stroke: black; stroke-linecap:round; stroke-width:0.25; stroke-dasharray:3,3;"/>
<text x="783.700000" y="55.000000" font-family="Arial" font-size="7">vgroup(output level)</text>
<line x1="768.700000" y1="43.000000" x2="768.700000" y2="105.000000"  style="stroke: black; stroke-linecap:round; stroke-width:0.25; stroke-dasharray:3,3;"/>
<line x1="768.700000" y1="105.000000" x2="922.800000" y2="105.000000"  style="stroke: black; stroke-linecap:round; stroke-width:0.25; stroke-dasharray:3,3;"/>
<line x1="922.800000" y1="105.000000" x2="922.800000" y2="43.000000"  style="stroke: black; stroke-linecap:round; stroke-width:0.25; stroke-dasharray:3,3;"/>
<line x1="768.700000" y1="43.000000" x2="773.700000" y2="43.000000"  style="stroke: black; stroke-linecap:round; stroke-width:0.25; stroke-dasharray:3,3;"/>
<line x1="844.650000" y1="43.000000" x2="922.800000" y2="43.000000"  style="stroke: black; stroke-linecap:round; stroke-width:0.25; stroke-dasharray:3,3;"/>
<text x="773.700000" y="45.000000" font-family="Arial" font-size="7">vgroup(VoiceOfFaust)</text>
<line x1="758.700000" y1="33.000000" x2="758.700000" y2="115.000000"  style="stroke: black; stroke-linecap:round; stroke-width:0.25; stroke-dasharray:3,3;"/>
<line x1="758.700000" y1="115.000000" x2="932.800000" y2="115.000000"  style="stroke: black; stroke-linecap:round; stroke-width:0.25; stroke-dasharray:3,3;"/>
<line x1="932.800000" y1="115.000000" x2="932.800000" y2="33.000000"  style="stroke: black; stroke-linecap:round; stroke-width:0.25; stroke-dasharray:3,3;"/>
<line x1="758.700000" y1="33.000000" x2="763.700000" y2="33.000000"  style="stroke: black; stroke-linecap:round; stroke-width:0.25; stroke-dasharray:3,3;"/>
<line x1="863.675000" y1="33.000000" x2="932.800000" y2="33.000000"  style="stroke: black; stroke-linecap:round; stroke-width:0.25; stroke-dasharray:3,3;"/>
<text x="763.700000" y="35.000000" font-family="Arial" font-size="7">MeterGroup(hb...e+01f, 0.0f))</text>
<rect x="950.800000" y="59.000000" width="25.800000" height="24.000000" rx="0" ry="0" style="stroke:none;fill:#cccccc;"/>
<rect x="949.800000" y="58.000000" width="25.800000" height="24.000000" rx="0" ry="0" style="stroke:none;fill:#4B71A1;"/>
<text x="962.700000" y="72.000000" font-family="Arial" font-size="7" text-anchor="middle" fill="#FFFFFF">attach</text>
<circle cx="951.800000" cy="60.000000" r="1"/>
<line x1="946.800000" y1="65.000000" x2="949.800000" y2="66.000000"  transform="rotate(0.000000,949.800000,66.000000)" style="stroke: black; stroke-width:0.25;"/>
<line x1="946.800000" y1="67.000000" x2="949.800000" y2="66.000000"  transform="rotate(0.000000,949.800000,66.000000)" style="stroke: black; stroke-width:0.25;"/>
<line x1="946.800000" y1="73.000000" x2="949.800000" y2="74.000000"  transform="rotate(0.000000,949.800000,74.000000)" style="stroke: black; stroke-width:0.25;"/>
<line x1="946.800000" y1="75.000000" x2="949.800000" y2="74.000000"  transform="rotate(0.000000,949.800000,74.000000)" style="stroke: black; stroke-width:0.25;"/>
<a xlink:href="envelop-0x2ee39580.svg">
<rect x="712.000000" y="163.000000" width="38.700000" height="24.000000" rx="0" ry="0" style="stroke:none;fill:#cccccc;"/>
<rect x="711.000000" y="162.000000" width="38.700000" height="24.000000" rx="0" ry="0" style="stroke:none;fill:#003366;"/>
</a>
<a xlink:href="envelop-0x2ee39580.svg">
<text x="730.350000" y="176.000000" font-family="Arial" font-size="7" text-anchor="middle" fill="#FFFFFF">envelop</text>
</a>
<circle cx="713.000000" cy="164.000000" r="1"/>
<line x1="708.000000" y1="173.000000" x2="711.000000" y2="174.000000"  transform="rotate(0.000000,711.000000,174.000000)" style="stroke: black; stroke-width:0.25;"/>
<line x1="708.000000" y1="175.000000" x2="711.000000" y2="174.000000"  transform="rotate(0.000000,711.000000,174.000000)" style="stroke: black; stroke-width:0.25;"/>
<rect x="788.700000" y="163.000000" width="116.100000" height="24.000000" rx="0" ry="0" style="stroke:none;fill:#cccccc;"/>
<rect x="787.700000" y="162.000000" width="116.100000" height="24.000000" rx="0" ry="0" style="stroke:none;fill:#477881;"/>
<text x="845.750000" y="176.000000" font-family="Arial" font-size="7" text-anchor="middle" fill="#FFFFFF">hbargraph(, -7e+01f, 0.0f)</text>
<circle cx="789.700000" cy="164.000000" r="1"/>
<line x1="784.700000" y1="173.000000" x2="787.700000" y2="174.000000"  transform="rotate(0.000000,787.700000,174.000000)" style="stroke: black; stroke-width:0.25;"/>
<line x1="784.700000" y1="175.000000" x2="787.700000" y2="174.000000"  transform="rotate(0.000000,787.700000,174.000000)" style="stroke: black; stroke-width:0.25;"/>
<line x1="778.700000" y1="153.000000" x2="778.700000" y2="195.000000"  style="stroke: black; stroke-linecap:round; stroke-width:0.25; stroke-dasharray:3,3;"/>
<line x1="778.700000" y1="195.000000" x2="912.800000" y2="195.000000"  style="stroke: black; stroke-linecap:round; stroke-width:0.25; stroke-dasharray:3,3;"/>
<line x1="912.800000" y1="195.000000" x2="912.800000" y2="153.000000"  style="stroke: black; stroke-linecap:round; stroke-width:0.25; stroke-dasharray:3,3;"/>
<line x1="778.700000" y1="153.000000" x2="783.700000" y2="153.000000"  style="stroke: black; stroke-linecap:round; stroke-width:0.25; stroke-dasharray:3,3;"/>
<line x1="854.650000" y1="153.000000" x2="912.800000" y2="153.000000"  style="stroke: black; stroke-linecap:round; stroke-width:0.25; stroke-dasharray:3,3;"/>
<text x="783.700000" y="155.000000" font-family="Arial" font-size="7">vgroup(output level)</text>
<line x1="768.700000" y1="143.000000" x2="768.700000" y2="205.000000"  style="stroke: black; stroke-linecap:round; stroke-width:0.25; stroke-dasharray:3,3;"/>
<line x1="768.700000" y1="205.000000" x2="922.800000" y2="205.000000"  style="stroke: black; stroke-linecap:round; stroke-width:0.25; stroke-dasharray:3,3;"/>
<line x1="922.800000" y1="205.000000" x2="922.800000" y2="143.000000"  style="stroke: black; stroke-linecap:round; stroke-width:0.25; stroke-dasharray:3,3;"/>
<line x1="768.700000" y1="143.000000" x2="773.700000" y2="143.000000"  style="stroke: black; stroke-linecap:round; stroke-width:0.25; stroke-dasharray:3,3;"/>
<line x1="844.650000" y1="143.000000" x2="922.800000" y2="143.000000"  style="stroke: black; stroke-linecap:round; stroke-width:0.25; stroke-dasharray:3,3;"/>
<text x="773.700000" y="145.000000" font-family="Arial" font-size="7">vgroup(VoiceOfFaust)</text>
<line x1="758.700000" y1="133.000000" x2="758.700000" y2="215.000000"  style="stroke: black; stroke-linecap:round; stroke-width:0.25; stroke-dasharray:3,3;"/>
<line x1="758.700000" y1="215.000000" x2="932.800000" y2="215.000000"  style="stroke: black; stroke-linecap:round; stroke-width:0.25; stroke-dasharray:3,3;"/>
<line x1="932.800000" y1="215.000000" x2="932.800000" y2="133.000000"  style="stroke: black; stroke-linecap:round; stroke-width:0.25; stroke-dasharray:3,3;"/>
<line x1="758.700000" y1="133.000000" x2="763.700000" y2="133.000000"  style="stroke: black; stroke-linecap:round; stroke-width:0.25; stroke-dasharray:3,3;"/>
<line x1="863.675000" y1="133.000000" x2="932.800000" y2="133.000000"  style="stroke: black; stroke-linecap:round; stroke-width:0.25; stroke-dasharray:3,3;"/>
<text x="763.700000" y="135.000000" font-family="Arial" font-size="7">MeterGroup(hb...e+01f, 0.0f))</text>
<rect x="950.800000" y="159.000000" width="25.800000" height="24.000000" rx="0" ry="0" style="stroke:none;fill:#cccccc;"/>
<rect x="949.800000" y="158.000000" width="25.800000" height="24.000000" rx="0" ry="0" style="stroke:none;fill:#4B71A1;"/>
<text x="962.700000" y="172.000000" font-family="Arial" font-size="7" text-anchor="middle" fill="#FFFFFF">attach</text>
<circle cx="951.800000" cy="160.000000" r="1"/>
<line x1="946.800000" y1="165.000000" x2="949.800000" y2="166.000000"  transform="rotate(0.000000,949.800000,166.000000)" style="stroke: black; stroke-width:0.25;"/>
<line x1="946.800000" y1="167.000000" x2="949.800000" y2="166.000000"  transform="rotate(0.000000,949.800000,166.000000)" style="stroke: black; stroke-width:0.25;"/>
<line x1="946.800000" y1="173.000000" x2="949.800000" y2="174.000000"  transform="rotate(0.000000,949.800000,174.000000)" style="stroke: black; stroke-width:0.25;"/>
<line x1="946.800000" y1="175.000000" x2="949.800000" y2="174.000000"  transform="rotate(0.000000,949.800000,174.000000)" style="stroke: black; stroke-width:0.25;"/>
<line x1="15.000000" y1="15.000000" x2="15.000000" y2="225.000000"  style="stroke: black; stroke-linecap:round; stroke-width:0.25; stroke-dasharray:3,3;"/>
<line x1="15.000000" y1="225.000000" x2="1000.600000" y2="225.000000"  style="stroke: black; stroke-linecap:round; stroke-width:0.25; stroke-dasharray:3,3;"/>
<line x1="1000.600000" y1="225.000000" x2="1000.600000" y2="15.000000"  style="stroke: black; stroke-linecap:round; stroke-width:0.25; stroke-dasharray:3,3;"/>
<line x1="15.000000" y1="15.000000" x2="20.000000" y2="15.000000"  style="stroke: black; stroke-linecap:round; stroke-width:0.25; stroke-dasharray:3,3;"/>
<line x1="119.975000" y1="15.000000" x2="1000.600000" y2="15.000000"  style="stroke: black; stroke-linecap:round; stroke-width:0.25; stroke-dasharray:3,3;"/>
<text x="20.000000" y="17.000000" font-family="Arial" font-size="7">VoiceOfFaust(...: select2)~_)</text>
<line x1="1002.600000" y1="115.000000" x2="1005.600000" y2="116.000000"  transform="rotate(0.000000,1005.600000,116.000000)" style="stroke: black; stroke-width:0.25;"/>
<line x1="1002.600000" y1="117.000000" x2="1005.600000" y2="116.000000"  transform="rotate(0.000000,1005.600000,116.000000)" style="stroke: black; stroke-width:0.25;"/>
<line x1="1002.600000" y1="123.000000" x2="1005.600000" y2="124.000000"  transform="rotate(0.000000,1005.600000,124.000000)" style="stroke: black; stroke-width:0.25;"/>
<line x1="1002.600000" y1="125.000000" x2="1005.600000" y2="124.000000"  transform="rotate(0.000000,1005.600000,124.000000)" style="stroke: black; stroke-width:0.25;"/>
<line x1="153.000000" y1="120.000000" x2="157.000000" y2="120.000000"  style="stroke:black; stroke-linecap:round; stroke-width:0.25;"/>
<line x1="157.000000" y1="120.000000" x2="169.000000" y2="116.000000"  style="stroke:black; stroke-linecap:round; stroke-width:0.25;"/>
<line x1="157.000000" y1="120.000000" x2="169.000000" y2="124.000000"  style="stroke:black; stroke-linecap:round; stroke-width:0.25;"/>
<line x1="169.000000" y1="116.000000" x2="173.000000" y2="116.000000"  style="stroke:black; stroke-linecap:round; stroke-width:0.25;"/>
<line x1="169.000000" y1="124.000000" x2="173.000000" y2="124.000000"  style="stroke:black; stroke-linecap:round; stroke-width:0.25;"/>
<line x1="173.000000" y1="116.000000" x2="177.000000" y2="116.000000"  style="stroke:black; stroke-linecap:round; stroke-width:0.25;"/>
<line x1="173.000000" y1="124.000000" x2="177.000000" y2="124.000000"  style="stroke:black; stroke-linecap:round; stroke-width:0.25;"/>
<line x1="177.000000" y1="104.000000" x2="185.000000" y2="104.000000"  style="stroke:black; stroke-linecap:round; stroke-width:0.25;"/>
<line x1="177.000000" y1="116.000000" x2="177.000000" y2="104.000000"  style="stroke:black; stroke-linecap:round; stroke-width:0.25;"/>
<line x1="177.000000" y1="116.000000" x2="177.000000" y2="116.000000"  style="stroke:black; stroke-linecap:round; stroke-width:0.25;"/>
<line x1="177.000000" y1="124.000000" x2="185.000000" y2="124.000000"  style="stroke:black; stroke-linecap:round; stroke-width:0.25;"/>
<line x1="185.000000" y1="104.000000" x2="189.000000" y2="104.000000"  style="stroke:black; stroke-linecap:round; stroke-width:0.25;"/>
<line x1="185.000000" y1="124.000000" x2="185.000000" y2="136.000000"  style="stroke:black; stroke-linecap:round; stroke-width:0.25;"/>
<line x1="185.000000" y1="136.000000" x2="185.000000" y2="136.000000"  style="stroke:black; stroke-linecap:round; stroke-width:0.25;"/>
<line x1="185.000000" y1="136.000000" x2="189.000000" y2="136.000000"  style="stroke:black; stroke-linecap:round; stroke-width:0.25;"/>
<line x1="318.000000" y1="104.000000" x2="322.000000" y2="104.000000"  style="stroke:black; stroke-linecap:round; stroke-width:0.25;"/>
<line x1="318.000000" y1="136.000000" x2="322.000000" y2="136.000000"  style="stroke:black; stroke-linecap:round; stroke-width:0.25;"/>
<line x1="322.000000" y1="88.000000" x2="330.000000" y2="88.000000"  style="stroke:black; stroke-linecap:round; stroke-width:0.25;"/>
<line x1="322.000000" y1="104.000000" x2="322.000000" y2="88.000000"  style="stroke:black; stroke-linecap:round; stroke-width:0.25;"/>
<line x1="322.000000" y1="104.000000" x2="322.000000" y2="104.000000"  style="stroke:black; stroke-linecap:round; stroke-width:0.25;"/>
<line x1="322.000000" y1="136.000000" x2="330.000000" y2="136.000000"  style="stroke:black; stroke-linecap:round; stroke-width:0.25;"/>
<line x1="330.000000" y1="88.000000" x2="334.000000" y2="88.000000"  style="stroke:black; stroke-linecap:round; stroke-width:0.25;"/>
<line x1="330.000000" y1="136.000000" x2="330.000000" y2="152.000000"  style="stroke:black; stroke-linecap:round; stroke-width:0.25;"/>
<line x1="330.000000" y1="152.000000" x2="330.000000" y2="152.000000"  style="stroke:black; stroke-linecap:round; stroke-width:0.25;"/>
<line x1="330.000000" y1="152.000000" x2="334.000000" y2="152.000000"  style="stroke:black; stroke-linecap:round; stroke-width:0.25;"/>
<line x1="334.000000" y1="88.000000" x2="338.000000" y2="88.000000"  style="stroke:black; stroke-linecap:round; stroke-width:0.25;"/>
<line x1="334.000000" y1="152.000000" x2="338.000000" y2="152.000000"  style="stroke:black; stroke-linecap:round; stroke-width:0.25;"/>
<line x1="338.000000" y1="88.000000" x2="356.000000" y2="72.000000"  style="stroke:black; stroke-linecap:round; stroke-width:0.25;"/>
<line x1="338.000000" y1="88.000000" x2="356.000000" y2="104.000000"  style="stroke:black; stroke-linecap:round; stroke-width:0.25;"/>
<line x1="338.000000" y1="152.000000" x2="356.000000" y2="136.000000"  style="stroke:black; stroke-linecap:round; stroke-width:0.25;"/>
<line x1="338.000000" y1="152.000000" x2="356.000000" y2="168.000000"  style="stroke:black; stroke-linecap:round; stroke-width:0.25;"/>
<line x1="356.000000" y1="72.000000" x2="360.000000" y2="72.000000"  style="stroke:black; stroke-linecap:round; stroke-width:0.25;"/>
<line x1="356.000000" y1="104.000000" x2="360.000000" y2="104.000000"  style="stroke:black; stroke-linecap:round; stroke-width:0.25;"/>
<line x1="356.000000" y1="136.000000" x2="360.000000" y2="136.000000"  style="stroke:black; stroke-linecap:round; stroke-width:0.25;"/>
<line x1="356.000000" y1="168.000000" x2="360.000000" y2="168.000000"  style="stroke:black; stroke-linecap:round; stroke-width:0.25;"/>
<line x1="489.000000" y1="72.000000" x2="493.000000" y2="72.000000"  style="stroke:black; stroke-linecap:round; stroke-width:0.25;"/>
<line x1="489.000000" y1="104.000000" x2="493.000000" y2="104.000000"  style="stroke:black; stroke-linecap:round; stroke-width:0.25;"/>
<line x1="489.000000" y1="136.000000" x2="493.000000" y2="136.000000"  style="stroke:black; stroke-linecap:round; stroke-width:0.25;"/>
<line x1="489.000000" y1="168.000000" x2="493.000000" y2="168.000000"  style="stroke:black; stroke-linecap:round; stroke-width:0.25;"/>
<line x1="493.000000" y1="72.000000" x2="511.000000" y2="88.000000"  style="stroke:black; stroke-linecap:round; stroke-width:0.25;"/>
<line x1="493.000000" y1="104.000000" x2="511.000000" y2="88.000000"  style="stroke:black; stroke-linecap:round; stroke-width:0.25;"/>
<line x1="493.000000" y1="136.000000" x2="511.000000" y2="152.000000"  style="stroke:black; stroke-linecap:round; stroke-width:0.25;"/>
<line x1="493.000000" y1="168.000000" x2="511.000000" y2="152.000000"  style="stroke:black; stroke-linecap:round; stroke-width:0.25;"/>
<line x1="511.000000" y1="88.000000" x2="515.000000" y2="88.000000"  style="stroke:black; stroke-linecap:round; stroke-width:0.25;"/>
<line x1="511.000000" y1="152.000000" x2="515.000000" y2="152.000000"  style="stroke:black; stroke-linecap:round; stroke-width:0.25;"/>
<line x1="515.000000" y1="88.000000" x2="519.000000" y2="88.000000"  style="stroke:black; stroke-linecap:round; stroke-width:0.25;"/>
<line x1="515.000000" y1="152.000000" x2="519.000000" y2="152.000000"  style="stroke:black; stroke-linecap:round; stroke-width:0.25;"/>
<line x1="519.000000" y1="88.000000" x2="527.000000" y2="88.000000"  style="stroke:black; stroke-linecap:round; stroke-width:0.25;"/>
<line x1="519.000000" y1="124.000000" x2="527.000000" y2="124.000000"  style="stroke:black; stroke-linecap:round; stroke-width:0.25;"/>
<line x1="519.000000" y1="152.000000" x2="519.000000" y2="124.000000"  style="stroke:black; stroke-linecap:round; stroke-width:0.25;"/>
<line x1="519.000000" y1="152.000000" x2="519.000000" y2="152.000000"  style="stroke:black; stroke-linecap:round; stroke-width:0.25;"/>
<line x1="527.000000" y1="88.000000" x2="527.000000" y2="116.000000"  style="stroke:black; stroke-linecap:round; stroke-width:0.25;"/>
<line x1="527.000000" y1="116.000000" x2="527.000000" y2="116.000000"  style="stroke:black; stroke-linecap:round; stroke-width:0.25;"/>
<line x1="527.000000" y1="116.000000" x2="531.000000" y2="116.000000"  style="stroke:black; stroke-linecap:round; stroke-width:0.25;"/>
<line x1="527.000000" y1="124.000000" x2="531.000000" y2="124.000000"  style="stroke:black; stroke-linecap:round; stroke-width:0.25;"/>
<line x1="660.000000" y1="116.000000" x2="664.000000" y2="116.000000"  style="stroke:black; stroke-linecap:round; stroke-width:0.25;"/>
<line x1="660.000000" y1="124.000000" x2="664.000000" y2="124.000000"  style="stroke:black; stroke-linecap:round; stroke-width:0.25;"/>
<line x1="664.000000" y1="70.000000" x2="672.000000" y2="70.000000"  style="stroke:black; stroke-linecap:round; stroke-width:0.25;"/>
<line x1="664.000000" y1="116.000000" x2="664.000000" y2="70.000000"  style="stroke:black; stroke-linecap:round; stroke-width:0.25;"/>
<line x1="664.000000" y1="116.000000" x2="664.000000" y2="116.000000"  style="stroke:black; stroke-linecap:round; stroke-width:0.25;"/>
<line x1="664.000000" y1="124.000000" x2="672.000000" y2="124.000000"  style="stroke:black; stroke-linecap:round; stroke-width:0.25;"/>
<line x1="672.000000" y1="70.000000" x2="676.000000" y2="70.000000"  style="stroke:black; stroke-linecap:round; stroke-width:0.25;"/>
<line x1="672.000000" y1="124.000000" x2="672.000000" y2="170.000000"  style="stroke:black; stroke-linecap:round; stroke-width:0.25;"/>
<line x1="672.000000" y1="170.000000" x2="672.000000" y2="170.000000"  style="stroke:black; stroke-linecap:round; stroke-width:0.25;"/>
<line x1="672.000000" y1="170.000000" x2="676.000000" y2="170.000000"  style="stroke:black; stroke-linecap:round; stroke-width:0.25;"/>
<line x1="676.000000" y1="70.000000" x2="680.000000" y2="70.000000"  style="stroke:black; stroke-linecap:round; stroke-width:0.25;"/>
<line x1="676.000000" y1="170.000000" x2="680.000000" y2="170.000000"  style="stroke:black; stroke-linecap:round; stroke-width:0.25;"/>
<line x1="680.000000" y1="70.000000" x2="707.000000" y2="24.000000"  style="stroke:black; stroke-linecap:round; stroke-width:0.25;"/>
<line x1="680.000000" y1="70.000000" x2="707.000000" y2="74.000000"  style="stroke:black; stroke-linecap:round; stroke-width:0.25;"/>
<line x1="680.000000" y1="170.000000" x2="707.000000" y2="124.000000"  style="stroke:black; stroke-linecap:round; stroke-width:0.25;"/>
<line x1="680.000000" y1="170.000000" x2="707.000000" y2="174.000000"  style="stroke:black; stroke-linecap:round; stroke-width:0.25;"/>
<line x1="707.000000" y1="24.000000" x2="822.400000" y2="24.000000"  style="stroke:black; stroke-linecap:round; stroke-width:0.25;"/>
<line x1="707.000000" y1="74.000000" x2="711.000000" y2="74.000000"  style="stroke:black; stroke-linecap:round; stroke-width:0.25;"/>
<line x1="707.000000" y1="124.000000" x2="822.400000" y2="124.000000"  style="stroke:black; stroke-linecap:round; stroke-width:0.25;"/>
<line x1="707.000000" y1="174.000000" x2="711.000000" y2="174.000000"  style="stroke:black; stroke-linecap:round; stroke-width:0.25;"/>
<line x1="749.700000" y1="74.000000" x2="753.700000" y2="74.000000"  style="stroke:black; stroke-linecap:round; stroke-width:0.25;"/>
<line x1="749.700000" y1="174.000000" x2="753.700000" y2="174.000000"  style="stroke:black; stroke-linecap:round; stroke-width:0.25;"/>
<line x1="753.700000" y1="74.000000" x2="753.700000" y2="74.000000"  style="stroke:black; stroke-linecap:round; stroke-width:0.25;"/>
<line x1="753.700000" y1="74.000000" x2="763.700000" y2="74.000000"  style="stroke:black; stroke-linecap:round; stroke-width:0.25;"/>
<line x1="753.700000" y1="174.000000" x2="753.700000" y2="174.000000"  style="stroke:black; stroke-linecap:round; stroke-width:0.25;"/>
<line x1="753.700000" y1="174.000000" x2="763.700000" y2="174.000000"  style="stroke:black; stroke-linecap:round; stroke-width:0.25;"/>
<line x1="763.700000" y1="74.000000" x2="773.700000" y2="74.000000"  style="stroke:black; stroke-linecap:round; stroke-width:0.25;"/>
<line x1="763.700000" y1="174.000000" x2="773.700000" y2="174.000000"  style="stroke:black; stroke-linecap:round; stroke-width:0.25;"/>
<line x1="773.700000" y1="74.000000" x2="783.700000" y2="74.000000"  style="stroke:black; stroke-linecap:round; stroke-width:0.25;"/>
<line x1="773.700000" y1="174.000000" x2="783.700000" y2="174.000000"  style="stroke:black; stroke-linecap:round; stroke-width:0.25;"/>
<line x1="783.700000" y1="74.000000" x2="787.700000" y2="74.000000"  style="stroke:black; stroke-linecap:round; stroke-width:0.25;"/>
<line x1="783.700000" y1="174.000000" x2="787.700000" y2="174.000000"  style="stroke:black; stroke-linecap:round; stroke-width:0.25;"/>
<line x1="822.400000" y1="24.000000" x2="937.800000" y2="24.000000"  style="stroke:black; stroke-linecap:round; stroke-width:0.25;"/>
<line x1="822.400000" y1="124.000000" x2="937.800000" y2="124.000000"  style="stroke:black; stroke-linecap:round; stroke-width:0.25;"/>
<line x1="903.800000" y1="74.000000" x2="907.800000" y2="74.000000"  style="stroke:black; stroke-linecap:round; stroke-width:0.25;"/>
<line x1="903.800000" y1="174.000000" x2="907.800000" y2="174.000000"  style="stroke:black; stroke-linecap:round; stroke-width:0.25;"/>
<line x1="907.800000" y1="74.000000" x2="917.800000" y2="74.000000"  style="stroke:black; stroke-linecap:round; stroke-width:0.25;"/>
<line x1="907.800000" y1="174.000000" x2="917.800000" y2="174.000000"  style="stroke:black; stroke-linecap:round; stroke-width:0.25;"/>
<line x1="917.800000" y1="74.000000" x2="927.800000" y2="74.000000"  style="stroke:black; stroke-linecap:round; stroke-width:0.25;"/>
<line x1="917.800000" y1="174.000000" x2="927.800000" y2="174.000000"  style="stroke:black; stroke-linecap:round; stroke-width:0.25;"/>
<line x1="927.800000" y1="74.000000" x2="937.800000" y2="74.000000"  style="stroke:black; stroke-linecap:round; stroke-width:0.25;"/>
<line x1="927.800000" y1="174.000000" x2="937.800000" y2="174.000000"  style="stroke:black; stroke-linecap:round; stroke-width:0.25;"/>
<line x1="937.800000" y1="24.000000" x2="945.800000" y2="24.000000"  style="stroke:black; stroke-linecap:round; stroke-width:0.25;"/>
<line x1="937.800000" y1="124.000000" x2="945.800000" y2="124.000000"  style="stroke:black; stroke-linecap:round; stroke-width:0.25;"/>
<line x1="937.800000" y1="74.000000" x2="945.800000" y2="74.000000"  style="stroke:black; stroke-linecap:round; stroke-width:0.25;"/>
<line x1="937.800000" y1="174.000000" x2="945.800000" y2="174.000000"  style="stroke:black; stroke-linecap:round; stroke-width:0.25;"/>
<line x1="945.800000" y1="24.000000" x2="945.800000" y2="66.000000"  style="stroke:black; stroke-linecap:round; stroke-width:0.25;"/>
<line x1="945.800000" y1="66.000000" x2="945.800000" y2="66.000000"  style="stroke:black; stroke-linecap:round; stroke-width:0.25;"/>
<line x1="945.800000" y1="66.000000" x2="949.800000" y2="66.000000"  style="stroke:black; stroke-linecap:round; stroke-width:0.25;"/>
<line x1="945.800000" y1="74.000000" x2="949.800000" y2="74.000000"  style="stroke:black; stroke-linecap:round; stroke-width:0.25;"/>
<line x1="945.800000" y1="124.000000" x2="945.800000" y2="166.000000"  style="stroke:black; stroke-linecap:round; stroke-width:0.25;"/>
<line x1="945.800000" y1="166.000000" x2="945.800000" y2="166.000000"  style="stroke:black; stroke-linecap:round; stroke-width:0.25;"/>
<line x1="945.800000" y1="166.000000" x2="949.800000" y2="166.000000"  style="stroke:black; stroke-linecap:round; stroke-width:0.25;"/>
<line x1="945.800000" y1="174.000000" x2="949.800000" y2="174.000000"  style="stroke:black; stroke-linecap:round; stroke-width:0.25;"/>
<line x1="975.600000" y1="70.000000" x2="979.600000" y2="70.000000"  style="stroke:black; stroke-linecap:round; stroke-width:0.25;"/>
<line x1="975.600000" y1="170.000000" x2="979.600000" y2="170.000000"  style="stroke:black; stroke-linecap:round; stroke-width:0.25;"/>
<line x1="979.600000" y1="70.000000" x2="987.600000" y2="70.000000"  style="stroke:black; stroke-linecap:round; stroke-width:0.25;"/>
<line x1="979.600000" y1="124.000000" x2="987.600000" y2="124.000000"  style="stroke:black; stroke-linecap:round; stroke-width:0.25;"/>
<line x1="979.600000" y1="170.000000" x2="979.600000" y2="124.000000"  style="stroke:black; stroke-linecap:round; stroke-width:0.25;"/>
<line x1="979.600000" y1="170.000000" x2="979.600000" y2="170.000000"  style="stroke:black; stroke-linecap:round; stroke-width:0.25;"/>
<line x1="987.600000" y1="70.000000" x2="987.600000" y2="116.000000"  style="stroke:black; stroke-linecap:round; stroke-width:0.25;"/>
<line x1="987.600000" y1="116.000000" x2="987.600000" y2="116.000000"  style="stroke:black; stroke-linecap:round; stroke-width:0.25;"/>
<line x1="987.600000" y1="116.000000" x2="991.600000" y2="116.000000"  style="stroke:black; stroke-linecap:round; stroke-width:0.25;"/>
<line x1="987.600000" y1="124.000000" x2="991.600000" y2="124.000000"  style="stroke:black; stroke-linecap:round; stroke-width:0.25;"/>
<line x1="991.600000" y1="116.000000" x2="995.600000" y2="116.000000"  style="stroke:black; stroke-linecap:round; stroke-width:0.25;"/>
<line x1="991.600000" y1="124.000000" x2="995.600000" y2="124.000000"  style="stroke:black; stroke-linecap:round; stroke-width:0.25;"/>
<line x1="995.600000" y1="116.000000" x2="1005.600000" y2="116.000000"  style="stroke:black; stroke-linecap:round; stroke-width:0.25;"/>
<line x1="995.600000" y1="124.000000" x2="1005.600000" y2="124.000000"  style="stroke:black; stroke-linecap:round; stroke-width:0.25;"/>
</svg>
