<?xml version="1.0"?>
<svg xmlns="http://www.w3.org/2000/svg" xmlns:xlink="http://www.w3.org/1999/xlink" viewBox="0 0 235.600000 208.000000" width="117.800000mm" height="104.000000mm" version="1.1">
<a xlink:href="resonbpStable-0x7fa5fc2145d0.svg">
<rect x="1.000000" y="1.000000" width="234.600000" height="207.000000" rx="0" ry="0" style="stroke:none;fill:#cccccc;"/>
<rect x="0.000000" y="0.000000" width="234.600000" height="207.000000" rx="0" ry="0" style="stroke:none;fill:#ffffff;"/>
</a>
<text x="10.000000" y="7.000000" font-family="Arial" font-size="7"></text>
<rect x="65.900000" y="35.000000" width="24.000000" height="24.000000" rx="0" ry="0" style="stroke:none;fill:#cccccc;"/>
<rect x="64.900000" y="34.000000" width="24.000000" height="24.000000" rx="0" ry="0" style="stroke:none;fill:#f44800;"/>
<text x="76.900000" y="48.000000" font-family="Arial" font-size="7" text-anchor="middle" fill="#FFFFFF">0</text>
<circle cx="66.900000" cy="36.000000" r="1"/>
<line x1="55.900000" y1="25.000000" x2="55.900000" y2="67.000000"  style="stroke: black; stroke-linecap:round; stroke-width:0.25; stroke-dasharray:3,3;"/>
<line x1="55.900000" y1="67.000000" x2="97.900000" y2="67.000000"  style="stroke: black; stroke-linecap:round; stroke-width:0.25; stroke-dasharray:3,3;"/>
<line x1="97.900000" y1="67.000000" x2="97.900000" y2="25.000000"  style="stroke: black; stroke-linecap:round; stroke-width:0.25; stroke-dasharray:3,3;"/>
<line x1="55.900000" y1="25.000000" x2="60.900000" y2="25.000000"  style="stroke: black; stroke-linecap:round; stroke-width:0.25; stroke-dasharray:3,3;"/>
<line x1="93.150000" y1="25.000000" x2="97.900000" y2="25.000000"  style="stroke: black; stroke-linecap:round; stroke-width:0.25; stroke-dasharray:3,3;"/>
<text x="60.900000" y="27.000000" font-family="Arial" font-size="7">clipCond</text>
<rect x="45.900000" y="87.000000" width="24.000000" height="24.000000" rx="0" ry="0" style="stroke:none;fill:#cccccc;"/>
<rect x="44.900000" y="86.000000" width="24.000000" height="24.000000" rx="0" ry="0" style="stroke:none;fill:#f44800;"/>
<text x="56.900000" y="100.000000" font-family="Arial" font-size="7" text-anchor="middle" fill="#FFFFFF">1</text>
<circle cx="46.900000" cy="88.000000" r="1"/>
<line x1="35.900000" y1="77.000000" x2="35.900000" y2="119.000000"  style="stroke: black; stroke-linecap:round; stroke-width:0.25; stroke-dasharray:3,3;"/>
<line x1="35.900000" y1="119.000000" x2="77.900000" y2="119.000000"  style="stroke: black; stroke-linecap:round; stroke-width:0.25; stroke-dasharray:3,3;"/>
<line x1="77.900000" y1="119.000000" x2="77.900000" y2="77.000000"  style="stroke: black; stroke-linecap:round; stroke-width:0.25; stroke-dasharray:3,3;"/>
<line x1="35.900000" y1="77.000000" x2="40.900000" y2="77.000000"  style="stroke: black; stroke-linecap:round; stroke-width:0.25; stroke-dasharray:3,3;"/>
<line x1="73.150000" y1="77.000000" x2="77.900000" y2="77.000000"  style="stroke: black; stroke-linecap:round; stroke-width:0.25; stroke-dasharray:3,3;"/>
<text x="40.900000" y="79.000000" font-family="Arial" font-size="7">clipCond</text>
<a xlink:href="s-0x7fa5fc1b23b0.svg">
<rect x="25.000000" y="129.000000" width="25.800000" height="24.000000" rx="0" ry="0" style="stroke:none;fill:#cccccc;"/>
<rect x="24.000000" y="128.000000" width="25.800000" height="24.000000" rx="0" ry="0" style="stroke:none;fill:#003366;"/>
</a>
<a xlink:href="s-0x7fa5fc1b23b0.svg">
<text x="36.900000" y="142.000000" font-family="Arial" font-size="7" text-anchor="middle" fill="#FFFFFF">s(1)</text>
</a>
<circle cx="26.000000" cy="130.000000" r="1"/>
<a xlink:href="s-0x7fa5fc1b23b0.svg">
<rect x="25.000000" y="161.000000" width="25.800000" height="24.000000" rx="0" ry="0" style="stroke:none;fill:#cccccc;"/>
<rect x="24.000000" y="160.000000" width="25.800000" height="24.000000" rx="0" ry="0" style="stroke:none;fill:#003366;"/>
</a>
<a xlink:href="s-0x7fa5fc1b23b0.svg">
<text x="36.900000" y="174.000000" font-family="Arial" font-size="7" text-anchor="middle" fill="#FFFFFF">s(1)</text>
</a>
<circle cx="26.000000" cy="162.000000" r="1"/>
<rect x="66.800000" y="145.000000" width="24.000000" height="24.000000" rx="0" ry="0" style="stroke:none;fill:#cccccc;"/>
<rect x="65.800000" y="144.000000" width="24.000000" height="24.000000" rx="0" ry="0" style="stroke:none;fill:#4B71A1;"/>
<text x="77.800000" y="158.000000" font-family="Arial" font-size="7" text-anchor="middle" fill="#FFFFFF">*</text>
<circle cx="67.800000" cy="146.000000" r="1"/>
<line x1="62.800000" y1="151.000000" x2="65.800000" y2="152.000000"  transform="rotate(0.000000,65.800000,152.000000)" style="stroke: black; stroke-width:0.25;"/>
<line x1="62.800000" y1="153.000000" x2="65.800000" y2="152.000000"  transform="rotate(0.000000,65.800000,152.000000)" style="stroke: black; stroke-width:0.25;"/>
<line x1="62.800000" y1="159.000000" x2="65.800000" y2="160.000000"  transform="rotate(0.000000,65.800000,160.000000)" style="stroke: black; stroke-width:0.25;"/>
<line x1="62.800000" y1="161.000000" x2="65.800000" y2="160.000000"  transform="rotate(0.000000,65.800000,160.000000)" style="stroke: black; stroke-width:0.25;"/>
<rect x="106.800000" y="119.000000" width="24.000000" height="24.000000" rx="0" ry="0" style="stroke:none;fill:#cccccc;"/>
<rect x="105.800000" y="118.000000" width="24.000000" height="24.000000" rx="0" ry="0" style="stroke:none;fill:#4B71A1;"/>
<text x="117.800000" y="132.000000" font-family="Arial" font-size="7" text-anchor="middle" fill="#FFFFFF">-</text>
<circle cx="107.800000" cy="120.000000" r="1"/>
<line x1="102.800000" y1="125.000000" x2="105.800000" y2="126.000000"  transform="rotate(0.000000,105.800000,126.000000)" style="stroke: black; stroke-width:0.25;"/>
<line x1="102.800000" y1="127.000000" x2="105.800000" y2="126.000000"  transform="rotate(0.000000,105.800000,126.000000)" style="stroke: black; stroke-width:0.25;"/>
<line x1="102.800000" y1="133.000000" x2="105.800000" y2="134.000000"  transform="rotate(0.000000,105.800000,134.000000)" style="stroke: black; stroke-width:0.25;"/>
<line x1="102.800000" y1="135.000000" x2="105.800000" y2="134.000000"  transform="rotate(0.000000,105.800000,134.000000)" style="stroke: black; stroke-width:0.25;"/>
<rect x="146.800000" y="93.000000" width="24.000000" height="24.000000" rx="0" ry="0" style="stroke:none;fill:#cccccc;"/>
<rect x="145.800000" y="92.000000" width="24.000000" height="24.000000" rx="0" ry="0" style="stroke:none;fill:#4B71A1;"/>
<text x="157.800000" y="106.000000" font-family="Arial" font-size="7" text-anchor="middle" fill="#FFFFFF">max</text>
<circle cx="147.800000" cy="94.000000" r="1"/>
<line x1="142.800000" y1="99.000000" x2="145.800000" y2="100.000000"  transform="rotate(0.000000,145.800000,100.000000)" style="stroke: black; stroke-width:0.25;"/>
<line x1="142.800000" y1="101.000000" x2="145.800000" y2="100.000000"  transform="rotate(0.000000,145.800000,100.000000)" style="stroke: black; stroke-width:0.25;"/>
<line x1="142.800000" y1="107.000000" x2="145.800000" y2="108.000000"  transform="rotate(0.000000,145.800000,108.000000)" style="stroke: black; stroke-width:0.25;"/>
<line x1="142.800000" y1="109.000000" x2="145.800000" y2="108.000000"  transform="rotate(0.000000,145.800000,108.000000)" style="stroke: black; stroke-width:0.25;"/>
<rect x="178.800000" y="93.000000" width="25.800000" height="24.000000" rx="0" ry="0" style="stroke:none;fill:#cccccc;"/>
<rect x="177.800000" y="92.000000" width="25.800000" height="24.000000" rx="0" ry="0" style="stroke:none;fill:#4B71A1;"/>
<text x="190.700000" y="106.000000" font-family="Arial" font-size="7" text-anchor="middle" fill="#FFFFFF">sqrt</text>
<circle cx="179.800000" cy="94.000000" r="1"/>
<line x1="174.800000" y1="103.000000" x2="177.800000" y2="104.000000"  transform="rotate(0.000000,177.800000,104.000000)" style="stroke: black; stroke-width:0.25;"/>
<line x1="174.800000" y1="105.000000" x2="177.800000" y2="104.000000"  transform="rotate(0.000000,177.800000,104.000000)" style="stroke: black; stroke-width:0.25;"/>
<line x1="15.000000" y1="15.000000" x2="15.000000" y2="193.000000"  style="stroke: black; stroke-linecap:round; stroke-width:0.25; stroke-dasharray:3,3;"/>
<line x1="15.000000" y1="193.000000" x2="220.600000" y2="193.000000"  style="stroke: black; stroke-linecap:round; stroke-width:0.25; stroke-dasharray:3,3;"/>
<line x1="220.600000" y1="193.000000" x2="220.600000" y2="15.000000"  style="stroke: black; stroke-linecap:round; stroke-width:0.25; stroke-dasharray:3,3;"/>
<line x1="15.000000" y1="15.000000" x2="20.000000" y2="15.000000"  style="stroke: black; stroke-linecap:round; stroke-width:0.25; stroke-dasharray:3,3;"/>
<line x1="29.675000" y1="15.000000" x2="220.600000" y2="15.000000"  style="stroke: black; stroke-linecap:round; stroke-width:0.25; stroke-dasharray:3,3;"/>
<text x="20.000000" y="17.000000" font-family="Arial" font-size="7">c</text>
<line x1="222.600000" y1="103.000000" x2="225.600000" y2="104.000000"  transform="rotate(0.000000,225.600000,104.000000)" style="stroke: black; stroke-width:0.25;"/>
<line x1="222.600000" y1="105.000000" x2="225.600000" y2="104.000000"  transform="rotate(0.000000,225.600000,104.000000)" style="stroke: black; stroke-width:0.25;"/>
<line x1="49.800000" y1="140.000000" x2="53.800000" y2="140.000000"  style="stroke:black; stroke-linecap:round; stroke-width:0.25;"/>
<line x1="49.800000" y1="172.000000" x2="53.800000" y2="172.000000"  style="stroke:black; stroke-linecap:round; stroke-width:0.25;"/>
<line x1="53.800000" y1="140.000000" x2="61.800000" y2="140.000000"  style="stroke:black; stroke-linecap:round; stroke-width:0.25;"/>
<line x1="53.800000" y1="160.000000" x2="61.800000" y2="160.000000"  style="stroke:black; stroke-linecap:round; stroke-width:0.25;"/>
<line x1="53.800000" y1="172.000000" x2="53.800000" y2="160.000000"  style="stroke:black; stroke-linecap:round; stroke-width:0.25;"/>
<line x1="53.800000" y1="172.000000" x2="53.800000" y2="172.000000"  style="stroke:black; stroke-linecap:round; stroke-width:0.25;"/>
<line x1="61.800000" y1="140.000000" x2="61.800000" y2="152.000000"  style="stroke:black; stroke-linecap:round; stroke-width:0.25;"/>
<line x1="61.800000" y1="152.000000" x2="61.800000" y2="152.000000"  style="stroke:black; stroke-linecap:round; stroke-width:0.25;"/>
<line x1="61.800000" y1="152.000000" x2="65.800000" y2="152.000000"  style="stroke:black; stroke-linecap:round; stroke-width:0.25;"/>
<line x1="61.800000" y1="160.000000" x2="65.800000" y2="160.000000"  style="stroke:black; stroke-linecap:round; stroke-width:0.25;"/>
<line x1="68.900000" y1="98.000000" x2="72.900000" y2="98.000000"  style="stroke:black; stroke-linecap:round; stroke-width:0.25;"/>
<line x1="72.900000" y1="98.000000" x2="82.900000" y2="98.000000"  style="stroke:black; stroke-linecap:round; stroke-width:0.25;"/>
<line x1="82.900000" y1="98.000000" x2="93.800000" y2="98.000000"  style="stroke:black; stroke-linecap:round; stroke-width:0.25;"/>
<line x1="88.900000" y1="46.000000" x2="92.900000" y2="46.000000"  style="stroke:black; stroke-linecap:round; stroke-width:0.25;"/>
<line x1="89.800000" y1="156.000000" x2="93.800000" y2="156.000000"  style="stroke:black; stroke-linecap:round; stroke-width:0.25;"/>
<line x1="92.900000" y1="46.000000" x2="102.900000" y2="46.000000"  style="stroke:black; stroke-linecap:round; stroke-width:0.25;"/>
<line x1="93.800000" y1="134.000000" x2="101.800000" y2="134.000000"  style="stroke:black; stroke-linecap:round; stroke-width:0.25;"/>
<line x1="93.800000" y1="156.000000" x2="93.800000" y2="134.000000"  style="stroke:black; stroke-linecap:round; stroke-width:0.25;"/>
<line x1="93.800000" y1="156.000000" x2="93.800000" y2="156.000000"  style="stroke:black; stroke-linecap:round; stroke-width:0.25;"/>
<line x1="93.800000" y1="98.000000" x2="101.800000" y2="98.000000"  style="stroke:black; stroke-linecap:round; stroke-width:0.25;"/>
<line x1="101.800000" y1="126.000000" x2="105.800000" y2="126.000000"  style="stroke:black; stroke-linecap:round; stroke-width:0.25;"/>
<line x1="101.800000" y1="134.000000" x2="105.800000" y2="134.000000"  style="stroke:black; stroke-linecap:round; stroke-width:0.25;"/>
<line x1="101.800000" y1="98.000000" x2="101.800000" y2="126.000000"  style="stroke:black; stroke-linecap:round; stroke-width:0.25;"/>
<line x1="101.800000" y1="126.000000" x2="101.800000" y2="126.000000"  style="stroke:black; stroke-linecap:round; stroke-width:0.25;"/>
<line x1="102.900000" y1="46.000000" x2="133.800000" y2="46.000000"  style="stroke:black; stroke-linecap:round; stroke-width:0.25;"/>
<line x1="129.800000" y1="130.000000" x2="133.800000" y2="130.000000"  style="stroke:black; stroke-linecap:round; stroke-width:0.25;"/>
<line x1="133.800000" y1="46.000000" x2="141.800000" y2="46.000000"  style="stroke:black; stroke-linecap:round; stroke-width:0.25;"/>
<line x1="133.800000" y1="108.000000" x2="141.800000" y2="108.000000"  style="stroke:black; stroke-linecap:round; stroke-width:0.25;"/>
<line x1="133.800000" y1="130.000000" x2="133.800000" y2="108.000000"  style="stroke:black; stroke-linecap:round; stroke-width:0.25;"/>
<line x1="133.800000" y1="130.000000" x2="133.800000" y2="130.000000"  style="stroke:black; stroke-linecap:round; stroke-width:0.25;"/>
<line x1="141.800000" y1="46.000000" x2="141.800000" y2="100.000000"  style="stroke:black; stroke-linecap:round; stroke-width:0.25;"/>
<line x1="141.800000" y1="100.000000" x2="141.800000" y2="100.000000"  style="stroke:black; stroke-linecap:round; stroke-width:0.25;"/>
<line x1="141.800000" y1="100.000000" x2="145.800000" y2="100.000000"  style="stroke:black; stroke-linecap:round; stroke-width:0.25;"/>
<line x1="141.800000" y1="108.000000" x2="145.800000" y2="108.000000"  style="stroke:black; stroke-linecap:round; stroke-width:0.25;"/>
<line x1="169.800000" y1="104.000000" x2="173.800000" y2="104.000000"  style="stroke:black; stroke-linecap:round; stroke-width:0.25;"/>
<line x1="173.800000" y1="104.000000" x2="173.800000" y2="104.000000"  style="stroke:black; stroke-linecap:round; stroke-width:0.25;"/>
<line x1="173.800000" y1="104.000000" x2="177.800000" y2="104.000000"  style="stroke:black; stroke-linecap:round; stroke-width:0.25;"/>
<line x1="203.600000" y1="104.000000" x2="207.600000" y2="104.000000"  style="stroke:black; stroke-linecap:round; stroke-width:0.25;"/>
<line x1="207.600000" y1="104.000000" x2="207.600000" y2="104.000000"  style="stroke:black; stroke-linecap:round; stroke-width:0.25;"/>
<line x1="207.600000" y1="104.000000" x2="211.600000" y2="104.000000"  style="stroke:black; stroke-linecap:round; stroke-width:0.25;"/>
<line x1="211.600000" y1="104.000000" x2="215.600000" y2="104.000000"  style="stroke:black; stroke-linecap:round; stroke-width:0.25;"/>
<line x1="215.600000" y1="104.000000" x2="225.600000" y2="104.000000"  style="stroke:black; stroke-linecap:round; stroke-width:0.25;"/>
</svg>
