<?xml version="1.0"?>
<svg xmlns="http://www.w3.org/2000/svg" xmlns:xlink="http://www.w3.org/1999/xlink" viewBox="0 0 240.000000 220.000000" width="120.000000mm" height="110.000000mm" version="1.1">
<a xlink:href="fdelay3-0x7fa5fb3f21b0.svg">
<rect x="1.000000" y="1.000000" width="239.000000" height="219.000000" rx="0" ry="0" style="stroke:none;fill:#cccccc;"/>
<rect x="0.000000" y="0.000000" width="239.000000" height="219.000000" rx="0" ry="0" style="stroke:none;fill:#ffffff;"/>
</a>
<text x="10.000000" y="7.000000" font-family="Arial" font-size="7"></text>
<rect x="85.000000" y="25.000000" width="24.000000" height="24.000000" rx="0" ry="0" style="stroke:none;fill:#cccccc;"/>
<rect x="84.000000" y="24.000000" width="24.000000" height="24.000000" rx="0" ry="0" style="stroke:none;fill:#47945E;"/>
<text x="96.000000" y="38.000000" font-family="Arial" font-size="7" text-anchor="middle" fill="#FFFFFF">x</text>
<circle cx="86.000000" cy="26.000000" r="1"/>
<rect x="64.100000" y="57.000000" width="25.800000" height="24.000000" rx="0" ry="0" style="stroke:none;fill:#cccccc;"/>
<rect x="63.100000" y="56.000000" width="25.800000" height="24.000000" rx="0" ry="0" style="stroke:none;fill:#f44800;"/>
<text x="76.000000" y="70.000000" font-family="Arial" font-size="7" text-anchor="middle" fill="#FFFFFF">131072</text>
<circle cx="65.100000" cy="58.000000" r="1"/>
<rect x="45.000000" y="99.000000" width="24.000000" height="24.000000" rx="0" ry="0" style="stroke:none;fill:#cccccc;"/>
<rect x="44.000000" y="98.000000" width="24.000000" height="24.000000" rx="0" ry="0" style="stroke:none;fill:#f44800;"/>
<text x="56.000000" y="112.000000" font-family="Arial" font-size="7" text-anchor="middle" fill="#FFFFFF">0</text>
<circle cx="46.000000" cy="100.000000" r="1"/>
<line x1="35.000000" y1="89.000000" x2="35.000000" y2="131.000000"  style="stroke: black; stroke-linecap:round; stroke-width:0.25; stroke-dasharray:3,3;"/>
<line x1="35.000000" y1="131.000000" x2="77.000000" y2="131.000000"  style="stroke: black; stroke-linecap:round; stroke-width:0.25; stroke-dasharray:3,3;"/>
<line x1="77.000000" y1="131.000000" x2="77.000000" y2="89.000000"  style="stroke: black; stroke-linecap:round; stroke-width:0.25; stroke-dasharray:3,3;"/>
<line x1="35.000000" y1="89.000000" x2="40.000000" y2="89.000000"  style="stroke: black; stroke-linecap:round; stroke-width:0.25; stroke-dasharray:3,3;"/>
<line x1="72.250000" y1="89.000000" x2="77.000000" y2="89.000000"  style="stroke: black; stroke-linecap:round; stroke-width:0.25; stroke-dasharray:3,3;"/>
<text x="40.000000" y="91.000000" font-family="Arial" font-size="7">clipCond</text>
<a xlink:href="id-0x7fa5fb2e3880.svg">
<rect x="25.000000" y="141.000000" width="24.000000" height="24.000000" rx="0" ry="0" style="stroke:none;fill:#cccccc;"/>
<rect x="24.000000" y="140.000000" width="24.000000" height="24.000000" rx="0" ry="0" style="stroke:none;fill:#003366;"/>
</a>
<a xlink:href="id-0x7fa5fb2e3880.svg">
<text x="36.000000" y="154.000000" font-family="Arial" font-size="7" text-anchor="middle" fill="#FFFFFF">id</text>
</a>
<circle cx="26.000000" cy="142.000000" r="1"/>
<rect x="25.000000" y="173.000000" width="24.000000" height="24.000000" rx="0" ry="0" style="stroke:none;fill:#cccccc;"/>
<rect x="24.000000" y="172.000000" width="24.000000" height="24.000000" rx="0" ry="0" style="stroke:none;fill:#f44800;"/>
<text x="36.000000" y="186.000000" font-family="Arial" font-size="7" text-anchor="middle" fill="#FFFFFF">3</text>
<circle cx="26.000000" cy="174.000000" r="1"/>
<rect x="65.000000" y="157.000000" width="24.000000" height="24.000000" rx="0" ry="0" style="stroke:none;fill:#cccccc;"/>
<rect x="64.000000" y="156.000000" width="24.000000" height="24.000000" rx="0" ry="0" style="stroke:none;fill:#4B71A1;"/>
<text x="76.000000" y="170.000000" font-family="Arial" font-size="7" text-anchor="middle" fill="#FFFFFF">+</text>
<circle cx="66.000000" cy="158.000000" r="1"/>
<line x1="61.000000" y1="163.000000" x2="64.000000" y2="164.000000"  transform="rotate(0.000000,64.000000,164.000000)" style="stroke: black; stroke-width:0.25;"/>
<line x1="61.000000" y1="165.000000" x2="64.000000" y2="164.000000"  transform="rotate(0.000000,64.000000,164.000000)" style="stroke: black; stroke-width:0.25;"/>
<line x1="61.000000" y1="171.000000" x2="64.000000" y2="172.000000"  transform="rotate(0.000000,64.000000,172.000000)" style="stroke: black; stroke-width:0.25;"/>
<line x1="61.000000" y1="173.000000" x2="64.000000" y2="172.000000"  transform="rotate(0.000000,64.000000,172.000000)" style="stroke: black; stroke-width:0.25;"/>
<rect x="105.000000" y="131.000000" width="24.000000" height="24.000000" rx="0" ry="0" style="stroke:none;fill:#cccccc;"/>
<rect x="104.000000" y="130.000000" width="24.000000" height="24.000000" rx="0" ry="0" style="stroke:none;fill:#4B71A1;"/>
<text x="116.000000" y="144.000000" font-family="Arial" font-size="7" text-anchor="middle" fill="#FFFFFF">max</text>
<circle cx="106.000000" cy="132.000000" r="1"/>
<line x1="101.000000" y1="137.000000" x2="104.000000" y2="138.000000"  transform="rotate(0.000000,104.000000,138.000000)" style="stroke: black; stroke-width:0.25;"/>
<line x1="101.000000" y1="139.000000" x2="104.000000" y2="138.000000"  transform="rotate(0.000000,104.000000,138.000000)" style="stroke: black; stroke-width:0.25;"/>
<line x1="101.000000" y1="145.000000" x2="104.000000" y2="146.000000"  transform="rotate(0.000000,104.000000,146.000000)" style="stroke: black; stroke-width:0.25;"/>
<line x1="101.000000" y1="147.000000" x2="104.000000" y2="146.000000"  transform="rotate(0.000000,104.000000,146.000000)" style="stroke: black; stroke-width:0.25;"/>
<rect x="145.000000" y="115.000000" width="24.000000" height="24.000000" rx="0" ry="0" style="stroke:none;fill:#cccccc;"/>
<rect x="144.000000" y="114.000000" width="24.000000" height="24.000000" rx="0" ry="0" style="stroke:none;fill:#4B71A1;"/>
<text x="156.000000" y="128.000000" font-family="Arial" font-size="7" text-anchor="middle" fill="#FFFFFF">min</text>
<circle cx="146.000000" cy="116.000000" r="1"/>
<line x1="141.000000" y1="121.000000" x2="144.000000" y2="122.000000"  transform="rotate(0.000000,144.000000,122.000000)" style="stroke: black; stroke-width:0.25;"/>
<line x1="141.000000" y1="123.000000" x2="144.000000" y2="122.000000"  transform="rotate(0.000000,144.000000,122.000000)" style="stroke: black; stroke-width:0.25;"/>
<line x1="141.000000" y1="129.000000" x2="144.000000" y2="130.000000"  transform="rotate(0.000000,144.000000,130.000000)" style="stroke: black; stroke-width:0.25;"/>
<line x1="141.000000" y1="131.000000" x2="144.000000" y2="130.000000"  transform="rotate(0.000000,144.000000,130.000000)" style="stroke: black; stroke-width:0.25;"/>
<rect x="185.000000" y="99.000000" width="24.000000" height="24.000000" rx="0" ry="0" style="stroke:none;fill:#cccccc;"/>
<rect x="184.000000" y="98.000000" width="24.000000" height="24.000000" rx="0" ry="0" style="stroke:none;fill:#4B71A1;"/>
<text x="196.000000" y="112.000000" font-family="Arial" font-size="7" text-anchor="middle" fill="#FFFFFF">@</text>
<circle cx="186.000000" cy="100.000000" r="1"/>
<line x1="181.000000" y1="105.000000" x2="184.000000" y2="106.000000"  transform="rotate(0.000000,184.000000,106.000000)" style="stroke: black; stroke-width:0.25;"/>
<line x1="181.000000" y1="107.000000" x2="184.000000" y2="106.000000"  transform="rotate(0.000000,184.000000,106.000000)" style="stroke: black; stroke-width:0.25;"/>
<line x1="181.000000" y1="113.000000" x2="184.000000" y2="114.000000"  transform="rotate(0.000000,184.000000,114.000000)" style="stroke: black; stroke-width:0.25;"/>
<line x1="181.000000" y1="115.000000" x2="184.000000" y2="114.000000"  transform="rotate(0.000000,184.000000,114.000000)" style="stroke: black; stroke-width:0.25;"/>
<line x1="15.000000" y1="15.000000" x2="15.000000" y2="205.000000"  style="stroke: black; stroke-linecap:round; stroke-width:0.25; stroke-dasharray:3,3;"/>
<line x1="15.000000" y1="205.000000" x2="225.000000" y2="205.000000"  style="stroke: black; stroke-linecap:round; stroke-width:0.25; stroke-dasharray:3,3;"/>
<line x1="225.000000" y1="205.000000" x2="225.000000" y2="15.000000"  style="stroke: black; stroke-linecap:round; stroke-width:0.25; stroke-dasharray:3,3;"/>
<line x1="15.000000" y1="15.000000" x2="20.000000" y2="15.000000"  style="stroke: black; stroke-linecap:round; stroke-width:0.25; stroke-dasharray:3,3;"/>
<line x1="142.550000" y1="15.000000" x2="225.000000" y2="15.000000"  style="stroke: black; stroke-linecap:round; stroke-width:0.25; stroke-dasharray:3,3;"/>
<text x="20.000000" y="17.000000" font-family="Arial" font-size="7">delay(131072)...: int),3 : +)(x3051)</text>
<line x1="227.000000" y1="109.000000" x2="230.000000" y2="110.000000"  transform="rotate(0.000000,230.000000,110.000000)" style="stroke: black; stroke-width:0.25;"/>
<line x1="227.000000" y1="111.000000" x2="230.000000" y2="110.000000"  transform="rotate(0.000000,230.000000,110.000000)" style="stroke: black; stroke-width:0.25;"/>
<line x1="48.000000" y1="152.000000" x2="52.000000" y2="152.000000"  style="stroke:black; stroke-linecap:round; stroke-width:0.25;"/>
<line x1="48.000000" y1="184.000000" x2="52.000000" y2="184.000000"  style="stroke:black; stroke-linecap:round; stroke-width:0.25;"/>
<line x1="52.000000" y1="152.000000" x2="60.000000" y2="152.000000"  style="stroke:black; stroke-linecap:round; stroke-width:0.25;"/>
<line x1="52.000000" y1="172.000000" x2="60.000000" y2="172.000000"  style="stroke:black; stroke-linecap:round; stroke-width:0.25;"/>
<line x1="52.000000" y1="184.000000" x2="52.000000" y2="172.000000"  style="stroke:black; stroke-linecap:round; stroke-width:0.25;"/>
<line x1="52.000000" y1="184.000000" x2="52.000000" y2="184.000000"  style="stroke:black; stroke-linecap:round; stroke-width:0.25;"/>
<line x1="60.000000" y1="152.000000" x2="60.000000" y2="164.000000"  style="stroke:black; stroke-linecap:round; stroke-width:0.25;"/>
<line x1="60.000000" y1="164.000000" x2="60.000000" y2="164.000000"  style="stroke:black; stroke-linecap:round; stroke-width:0.25;"/>
<line x1="60.000000" y1="164.000000" x2="64.000000" y2="164.000000"  style="stroke:black; stroke-linecap:round; stroke-width:0.25;"/>
<line x1="60.000000" y1="172.000000" x2="64.000000" y2="172.000000"  style="stroke:black; stroke-linecap:round; stroke-width:0.25;"/>
<line x1="68.000000" y1="110.000000" x2="72.000000" y2="110.000000"  style="stroke:black; stroke-linecap:round; stroke-width:0.25;"/>
<line x1="72.000000" y1="110.000000" x2="82.000000" y2="110.000000"  style="stroke:black; stroke-linecap:round; stroke-width:0.25;"/>
<line x1="82.000000" y1="110.000000" x2="92.000000" y2="110.000000"  style="stroke:black; stroke-linecap:round; stroke-width:0.25;"/>
<line x1="88.000000" y1="168.000000" x2="92.000000" y2="168.000000"  style="stroke:black; stroke-linecap:round; stroke-width:0.25;"/>
<line x1="88.900000" y1="68.000000" x2="92.900000" y2="68.000000"  style="stroke:black; stroke-linecap:round; stroke-width:0.25;"/>
<line x1="92.000000" y1="110.000000" x2="100.000000" y2="110.000000"  style="stroke:black; stroke-linecap:round; stroke-width:0.25;"/>
<line x1="92.000000" y1="146.000000" x2="100.000000" y2="146.000000"  style="stroke:black; stroke-linecap:round; stroke-width:0.25;"/>
<line x1="92.000000" y1="168.000000" x2="92.000000" y2="146.000000"  style="stroke:black; stroke-linecap:round; stroke-width:0.25;"/>
<line x1="92.000000" y1="168.000000" x2="92.000000" y2="168.000000"  style="stroke:black; stroke-linecap:round; stroke-width:0.25;"/>
<line x1="92.900000" y1="68.000000" x2="132.000000" y2="68.000000"  style="stroke:black; stroke-linecap:round; stroke-width:0.25;"/>
<line x1="100.000000" y1="110.000000" x2="100.000000" y2="138.000000"  style="stroke:black; stroke-linecap:round; stroke-width:0.25;"/>
<line x1="100.000000" y1="138.000000" x2="100.000000" y2="138.000000"  style="stroke:black; stroke-linecap:round; stroke-width:0.25;"/>
<line x1="100.000000" y1="138.000000" x2="104.000000" y2="138.000000"  style="stroke:black; stroke-linecap:round; stroke-width:0.25;"/>
<line x1="100.000000" y1="146.000000" x2="104.000000" y2="146.000000"  style="stroke:black; stroke-linecap:round; stroke-width:0.25;"/>
<line x1="108.000000" y1="36.000000" x2="112.000000" y2="36.000000"  style="stroke:black; stroke-linecap:round; stroke-width:0.25;"/>
<line x1="112.000000" y1="36.000000" x2="172.000000" y2="36.000000"  style="stroke:black; stroke-linecap:round; stroke-width:0.25;"/>
<line x1="128.000000" y1="142.000000" x2="132.000000" y2="142.000000"  style="stroke:black; stroke-linecap:round; stroke-width:0.25;"/>
<line x1="132.000000" y1="68.000000" x2="140.000000" y2="68.000000"  style="stroke:black; stroke-linecap:round; stroke-width:0.25;"/>
<line x1="132.000000" y1="130.000000" x2="140.000000" y2="130.000000"  style="stroke:black; stroke-linecap:round; stroke-width:0.25;"/>
<line x1="132.000000" y1="142.000000" x2="132.000000" y2="130.000000"  style="stroke:black; stroke-linecap:round; stroke-width:0.25;"/>
<line x1="132.000000" y1="142.000000" x2="132.000000" y2="142.000000"  style="stroke:black; stroke-linecap:round; stroke-width:0.25;"/>
<line x1="140.000000" y1="68.000000" x2="140.000000" y2="122.000000"  style="stroke:black; stroke-linecap:round; stroke-width:0.25;"/>
<line x1="140.000000" y1="122.000000" x2="140.000000" y2="122.000000"  style="stroke:black; stroke-linecap:round; stroke-width:0.25;"/>
<line x1="140.000000" y1="122.000000" x2="144.000000" y2="122.000000"  style="stroke:black; stroke-linecap:round; stroke-width:0.25;"/>
<line x1="140.000000" y1="130.000000" x2="144.000000" y2="130.000000"  style="stroke:black; stroke-linecap:round; stroke-width:0.25;"/>
<line x1="168.000000" y1="126.000000" x2="172.000000" y2="126.000000"  style="stroke:black; stroke-linecap:round; stroke-width:0.25;"/>
<line x1="172.000000" y1="36.000000" x2="180.000000" y2="36.000000"  style="stroke:black; stroke-linecap:round; stroke-width:0.25;"/>
<line x1="172.000000" y1="114.000000" x2="180.000000" y2="114.000000"  style="stroke:black; stroke-linecap:round; stroke-width:0.25;"/>
<line x1="172.000000" y1="126.000000" x2="172.000000" y2="114.000000"  style="stroke:black; stroke-linecap:round; stroke-width:0.25;"/>
<line x1="172.000000" y1="126.000000" x2="172.000000" y2="126.000000"  style="stroke:black; stroke-linecap:round; stroke-width:0.25;"/>
<line x1="180.000000" y1="36.000000" x2="180.000000" y2="106.000000"  style="stroke:black; stroke-linecap:round; stroke-width:0.25;"/>
<line x1="180.000000" y1="106.000000" x2="180.000000" y2="106.000000"  style="stroke:black; stroke-linecap:round; stroke-width:0.25;"/>
<line x1="180.000000" y1="106.000000" x2="184.000000" y2="106.000000"  style="stroke:black; stroke-linecap:round; stroke-width:0.25;"/>
<line x1="180.000000" y1="114.000000" x2="184.000000" y2="114.000000"  style="stroke:black; stroke-linecap:round; stroke-width:0.25;"/>
<line x1="208.000000" y1="110.000000" x2="212.000000" y2="110.000000"  style="stroke:black; stroke-linecap:round; stroke-width:0.25;"/>
<line x1="212.000000" y1="110.000000" x2="212.000000" y2="110.000000"  style="stroke:black; stroke-linecap:round; stroke-width:0.25;"/>
<line x1="212.000000" y1="110.000000" x2="216.000000" y2="110.000000"  style="stroke:black; stroke-linecap:round; stroke-width:0.25;"/>
<line x1="216.000000" y1="110.000000" x2="220.000000" y2="110.000000"  style="stroke:black; stroke-linecap:round; stroke-width:0.25;"/>
<line x1="220.000000" y1="110.000000" x2="230.000000" y2="110.000000"  style="stroke:black; stroke-linecap:round; stroke-width:0.25;"/>
</svg>
