<?xml version="1.0"?>
<svg xmlns="http://www.w3.org/2000/svg" xmlns:xlink="http://www.w3.org/1999/xlink" viewBox="0 0 376.200000 416.000000" width="188.100000mm" height="208.000000mm" version="1.1">
<a xlink:href="h-0x7fa5fd72de40.svg">
<rect x="1.000000" y="1.000000" width="375.200000" height="415.000000" rx="0" ry="0" style="stroke:none;fill:#cccccc;"/>
<rect x="0.000000" y="0.000000" width="375.200000" height="415.000000" rx="0" ry="0" style="stroke:none;fill:#ffffff;"/>
</a>
<text x="10.000000" y="7.000000" font-family="Arial" font-size="7"></text>
<rect x="141.750000" y="35.000000" width="24.000000" height="24.000000" rx="0" ry="0" style="stroke:none;fill:#cccccc;"/>
<rect x="140.750000" y="34.000000" width="24.000000" height="24.000000" rx="0" ry="0" style="stroke:none;fill:#f44800;"/>
<text x="152.750000" y="48.000000" font-family="Arial" font-size="7" text-anchor="middle" fill="#FFFFFF">2</text>
<circle cx="142.750000" cy="36.000000" r="1"/>
<line x1="131.750000" y1="25.000000" x2="131.750000" y2="67.000000"  style="stroke: black; stroke-linecap:round; stroke-width:0.25; stroke-dasharray:3,3;"/>
<line x1="131.750000" y1="67.000000" x2="173.750000" y2="67.000000"  style="stroke: black; stroke-linecap:round; stroke-width:0.25; stroke-dasharray:3,3;"/>
<line x1="173.750000" y1="67.000000" x2="173.750000" y2="25.000000"  style="stroke: black; stroke-linecap:round; stroke-width:0.25; stroke-dasharray:3,3;"/>
<line x1="131.750000" y1="25.000000" x2="136.750000" y2="25.000000"  style="stroke: black; stroke-linecap:round; stroke-width:0.25; stroke-dasharray:3,3;"/>
<line x1="146.425000" y1="25.000000" x2="173.750000" y2="25.000000"  style="stroke: black; stroke-linecap:round; stroke-width:0.25; stroke-dasharray:3,3;"/>
<text x="136.750000" y="27.000000" font-family="Arial" font-size="7">M</text>
<rect x="141.750000" y="87.000000" width="24.000000" height="24.000000" rx="0" ry="0" style="stroke:none;fill:#cccccc;"/>
<rect x="140.750000" y="86.000000" width="24.000000" height="24.000000" rx="0" ry="0" style="stroke:none;fill:#f44800;"/>
<text x="152.750000" y="100.000000" font-family="Arial" font-size="7" text-anchor="middle" fill="#FFFFFF">1</text>
<circle cx="142.750000" cy="88.000000" r="1"/>
<line x1="131.750000" y1="77.000000" x2="131.750000" y2="119.000000"  style="stroke: black; stroke-linecap:round; stroke-width:0.25; stroke-dasharray:3,3;"/>
<line x1="131.750000" y1="119.000000" x2="173.750000" y2="119.000000"  style="stroke: black; stroke-linecap:round; stroke-width:0.25; stroke-dasharray:3,3;"/>
<line x1="173.750000" y1="119.000000" x2="173.750000" y2="77.000000"  style="stroke: black; stroke-linecap:round; stroke-width:0.25; stroke-dasharray:3,3;"/>
<line x1="131.750000" y1="77.000000" x2="136.750000" y2="77.000000"  style="stroke: black; stroke-linecap:round; stroke-width:0.25; stroke-dasharray:3,3;"/>
<line x1="169.000000" y1="77.000000" x2="173.750000" y2="77.000000"  style="stroke: black; stroke-linecap:round; stroke-width:0.25; stroke-dasharray:3,3;"/>
<text x="136.750000" y="79.000000" font-family="Arial" font-size="7">clipCond</text>
<rect x="90.400000" y="139.000000" width="24.000000" height="24.000000" rx="0" ry="0" style="stroke:none;fill:#cccccc;"/>
<rect x="89.400000" y="138.000000" width="24.000000" height="24.000000" rx="0" ry="0" style="stroke:none;fill:#f44800;"/>
<text x="101.400000" y="152.000000" font-family="Arial" font-size="7" text-anchor="middle" fill="#FFFFFF">1</text>
<circle cx="91.400000" cy="140.000000" r="1"/>
<line x1="80.400000" y1="129.000000" x2="80.400000" y2="171.000000"  style="stroke: black; stroke-linecap:round; stroke-width:0.25; stroke-dasharray:3,3;"/>
<line x1="80.400000" y1="171.000000" x2="122.400000" y2="171.000000"  style="stroke: black; stroke-linecap:round; stroke-width:0.25; stroke-dasharray:3,3;"/>
<line x1="122.400000" y1="171.000000" x2="122.400000" y2="129.000000"  style="stroke: black; stroke-linecap:round; stroke-width:0.25; stroke-dasharray:3,3;"/>
<line x1="80.400000" y1="129.000000" x2="85.400000" y2="129.000000"  style="stroke: black; stroke-linecap:round; stroke-width:0.25; stroke-dasharray:3,3;"/>
<line x1="117.650000" y1="129.000000" x2="122.400000" y2="129.000000"  style="stroke: black; stroke-linecap:round; stroke-width:0.25; stroke-dasharray:3,3;"/>
<text x="85.400000" y="131.000000" font-family="Arial" font-size="7">clipCond</text>
<rect x="90.400000" y="191.000000" width="24.000000" height="24.000000" rx="0" ry="0" style="stroke:none;fill:#cccccc;"/>
<rect x="89.400000" y="190.000000" width="24.000000" height="24.000000" rx="0" ry="0" style="stroke:none;fill:#f44800;"/>
<text x="101.400000" y="204.000000" font-family="Arial" font-size="7" text-anchor="middle" fill="#FFFFFF">1</text>
<circle cx="91.400000" cy="192.000000" r="1"/>
<line x1="80.400000" y1="181.000000" x2="80.400000" y2="223.000000"  style="stroke: black; stroke-linecap:round; stroke-width:0.25; stroke-dasharray:3,3;"/>
<line x1="80.400000" y1="223.000000" x2="122.400000" y2="223.000000"  style="stroke: black; stroke-linecap:round; stroke-width:0.25; stroke-dasharray:3,3;"/>
<line x1="122.400000" y1="223.000000" x2="122.400000" y2="181.000000"  style="stroke: black; stroke-linecap:round; stroke-width:0.25; stroke-dasharray:3,3;"/>
<line x1="80.400000" y1="181.000000" x2="85.400000" y2="181.000000"  style="stroke: black; stroke-linecap:round; stroke-width:0.25; stroke-dasharray:3,3;"/>
<line x1="117.650000" y1="181.000000" x2="122.400000" y2="181.000000"  style="stroke: black; stroke-linecap:round; stroke-width:0.25; stroke-dasharray:3,3;"/>
<text x="85.400000" y="183.000000" font-family="Arial" font-size="7">clipCond</text>
<a xlink:href="fac-0x7fa5fd6afa20.svg">
<rect x="25.000000" y="233.000000" width="154.800000" height="24.000000" rx="0" ry="0" style="stroke:none;fill:#cccccc;"/>
<rect x="24.000000" y="232.000000" width="154.800000" height="24.000000" rx="0" ry="0" style="stroke:none;fill:#003366;"/>
</a>
<a xlink:href="fac-0x7fa5fd6afa20.svg">
<text x="101.400000" y="246.000000" font-family="Arial" font-size="7" text-anchor="middle" fill="#FFFFFF">fac(1.499995f...or) : -) : +)(2)(0)</text>
</a>
<circle cx="26.000000" cy="234.000000" r="1"/>
<rect x="203.800000" y="181.000000" width="38.700000" height="24.000000" rx="0" ry="0" style="stroke:none;fill:#cccccc;"/>
<rect x="202.800000" y="180.000000" width="38.700000" height="24.000000" rx="0" ry="0" style="stroke:none;fill:#4B71A1;"/>
<text x="222.150000" y="194.000000" font-family="Arial" font-size="7" text-anchor="middle" fill="#FFFFFF">select2</text>
<circle cx="204.800000" cy="182.000000" r="1"/>
<line x1="199.800000" y1="183.000000" x2="202.800000" y2="184.000000"  transform="rotate(0.000000,202.800000,184.000000)" style="stroke: black; stroke-width:0.25;"/>
<line x1="199.800000" y1="185.000000" x2="202.800000" y2="184.000000"  transform="rotate(0.000000,202.800000,184.000000)" style="stroke: black; stroke-width:0.25;"/>
<line x1="199.800000" y1="191.000000" x2="202.800000" y2="192.000000"  transform="rotate(0.000000,202.800000,192.000000)" style="stroke: black; stroke-width:0.25;"/>
<line x1="199.800000" y1="193.000000" x2="202.800000" y2="192.000000"  transform="rotate(0.000000,202.800000,192.000000)" style="stroke: black; stroke-width:0.25;"/>
<line x1="199.800000" y1="199.000000" x2="202.800000" y2="200.000000"  transform="rotate(0.000000,202.800000,200.000000)" style="stroke: black; stroke-width:0.25;"/>
<line x1="199.800000" y1="201.000000" x2="202.800000" y2="200.000000"  transform="rotate(0.000000,202.800000,200.000000)" style="stroke: black; stroke-width:0.25;"/>
<rect x="90.400000" y="275.000000" width="24.000000" height="24.000000" rx="0" ry="0" style="stroke:none;fill:#cccccc;"/>
<rect x="89.400000" y="274.000000" width="24.000000" height="24.000000" rx="0" ry="0" style="stroke:none;fill:#f44800;"/>
<text x="101.400000" y="288.000000" font-family="Arial" font-size="7" text-anchor="middle" fill="#FFFFFF">1</text>
<circle cx="91.400000" cy="276.000000" r="1"/>
<line x1="80.400000" y1="265.000000" x2="80.400000" y2="307.000000"  style="stroke: black; stroke-linecap:round; stroke-width:0.25; stroke-dasharray:3,3;"/>
<line x1="80.400000" y1="307.000000" x2="122.400000" y2="307.000000"  style="stroke: black; stroke-linecap:round; stroke-width:0.25; stroke-dasharray:3,3;"/>
<line x1="122.400000" y1="307.000000" x2="122.400000" y2="265.000000"  style="stroke: black; stroke-linecap:round; stroke-width:0.25; stroke-dasharray:3,3;"/>
<line x1="80.400000" y1="265.000000" x2="85.400000" y2="265.000000"  style="stroke: black; stroke-linecap:round; stroke-width:0.25; stroke-dasharray:3,3;"/>
<line x1="117.650000" y1="265.000000" x2="122.400000" y2="265.000000"  style="stroke: black; stroke-linecap:round; stroke-width:0.25; stroke-dasharray:3,3;"/>
<text x="85.400000" y="267.000000" font-family="Arial" font-size="7">clipCond</text>
<rect x="90.400000" y="327.000000" width="24.000000" height="24.000000" rx="0" ry="0" style="stroke:none;fill:#cccccc;"/>
<rect x="89.400000" y="326.000000" width="24.000000" height="24.000000" rx="0" ry="0" style="stroke:none;fill:#f44800;"/>
<text x="101.400000" y="340.000000" font-family="Arial" font-size="7" text-anchor="middle" fill="#FFFFFF">1</text>
<circle cx="91.400000" cy="328.000000" r="1"/>
<line x1="80.400000" y1="317.000000" x2="80.400000" y2="359.000000"  style="stroke: black; stroke-linecap:round; stroke-width:0.25; stroke-dasharray:3,3;"/>
<line x1="80.400000" y1="359.000000" x2="122.400000" y2="359.000000"  style="stroke: black; stroke-linecap:round; stroke-width:0.25; stroke-dasharray:3,3;"/>
<line x1="122.400000" y1="359.000000" x2="122.400000" y2="317.000000"  style="stroke: black; stroke-linecap:round; stroke-width:0.25; stroke-dasharray:3,3;"/>
<line x1="80.400000" y1="317.000000" x2="85.400000" y2="317.000000"  style="stroke: black; stroke-linecap:round; stroke-width:0.25; stroke-dasharray:3,3;"/>
<line x1="117.650000" y1="317.000000" x2="122.400000" y2="317.000000"  style="stroke: black; stroke-linecap:round; stroke-width:0.25; stroke-dasharray:3,3;"/>
<text x="85.400000" y="319.000000" font-family="Arial" font-size="7">clipCond</text>
<a xlink:href="fac-0x7fa5fd6b4ce0.svg">
<rect x="25.000000" y="369.000000" width="154.800000" height="24.000000" rx="0" ry="0" style="stroke:none;fill:#cccccc;"/>
<rect x="24.000000" y="368.000000" width="154.800000" height="24.000000" rx="0" ry="0" style="stroke:none;fill:#003366;"/>
</a>
<a xlink:href="fac-0x7fa5fd6b4ce0.svg">
<text x="101.400000" y="382.000000" font-family="Arial" font-size="7" text-anchor="middle" fill="#FFFFFF">fac(1.499995f...or) : -) : +)(2)(1)</text>
</a>
<circle cx="26.000000" cy="370.000000" r="1"/>
<rect x="203.800000" y="317.000000" width="38.700000" height="24.000000" rx="0" ry="0" style="stroke:none;fill:#cccccc;"/>
<rect x="202.800000" y="316.000000" width="38.700000" height="24.000000" rx="0" ry="0" style="stroke:none;fill:#4B71A1;"/>
<text x="222.150000" y="330.000000" font-family="Arial" font-size="7" text-anchor="middle" fill="#FFFFFF">select2</text>
<circle cx="204.800000" cy="318.000000" r="1"/>
<line x1="199.800000" y1="319.000000" x2="202.800000" y2="320.000000"  transform="rotate(0.000000,202.800000,320.000000)" style="stroke: black; stroke-width:0.25;"/>
<line x1="199.800000" y1="321.000000" x2="202.800000" y2="320.000000"  transform="rotate(0.000000,202.800000,320.000000)" style="stroke: black; stroke-width:0.25;"/>
<line x1="199.800000" y1="327.000000" x2="202.800000" y2="328.000000"  transform="rotate(0.000000,202.800000,328.000000)" style="stroke: black; stroke-width:0.25;"/>
<line x1="199.800000" y1="329.000000" x2="202.800000" y2="328.000000"  transform="rotate(0.000000,202.800000,328.000000)" style="stroke: black; stroke-width:0.25;"/>
<line x1="199.800000" y1="335.000000" x2="202.800000" y2="336.000000"  transform="rotate(0.000000,202.800000,336.000000)" style="stroke: black; stroke-width:0.25;"/>
<line x1="199.800000" y1="337.000000" x2="202.800000" y2="336.000000"  transform="rotate(0.000000,202.800000,336.000000)" style="stroke: black; stroke-width:0.25;"/>
<rect x="258.500000" y="249.000000" width="24.000000" height="24.000000" rx="0" ry="0" style="stroke:none;fill:#cccccc;"/>
<rect x="257.500000" y="248.000000" width="24.000000" height="24.000000" rx="0" ry="0" style="stroke:none;fill:#4B71A1;"/>
<text x="269.500000" y="262.000000" font-family="Arial" font-size="7" text-anchor="middle" fill="#FFFFFF">*</text>
<circle cx="259.500000" cy="250.000000" r="1"/>
<line x1="254.500000" y1="255.000000" x2="257.500000" y2="256.000000"  transform="rotate(0.000000,257.500000,256.000000)" style="stroke: black; stroke-width:0.25;"/>
<line x1="254.500000" y1="257.000000" x2="257.500000" y2="256.000000"  transform="rotate(0.000000,257.500000,256.000000)" style="stroke: black; stroke-width:0.25;"/>
<line x1="254.500000" y1="263.000000" x2="257.500000" y2="264.000000"  transform="rotate(0.000000,257.500000,264.000000)" style="stroke: black; stroke-width:0.25;"/>
<line x1="254.500000" y1="265.000000" x2="257.500000" y2="264.000000"  transform="rotate(0.000000,257.500000,264.000000)" style="stroke: black; stroke-width:0.25;"/>
<rect x="306.500000" y="197.000000" width="38.700000" height="24.000000" rx="0" ry="0" style="stroke:none;fill:#cccccc;"/>
<rect x="305.500000" y="196.000000" width="38.700000" height="24.000000" rx="0" ry="0" style="stroke:none;fill:#4B71A1;"/>
<text x="324.850000" y="210.000000" font-family="Arial" font-size="7" text-anchor="middle" fill="#FFFFFF">select2</text>
<circle cx="307.500000" cy="198.000000" r="1"/>
<line x1="302.500000" y1="199.000000" x2="305.500000" y2="200.000000"  transform="rotate(0.000000,305.500000,200.000000)" style="stroke: black; stroke-width:0.25;"/>
<line x1="302.500000" y1="201.000000" x2="305.500000" y2="200.000000"  transform="rotate(0.000000,305.500000,200.000000)" style="stroke: black; stroke-width:0.25;"/>
<line x1="302.500000" y1="207.000000" x2="305.500000" y2="208.000000"  transform="rotate(0.000000,305.500000,208.000000)" style="stroke: black; stroke-width:0.25;"/>
<line x1="302.500000" y1="209.000000" x2="305.500000" y2="208.000000"  transform="rotate(0.000000,305.500000,208.000000)" style="stroke: black; stroke-width:0.25;"/>
<line x1="302.500000" y1="215.000000" x2="305.500000" y2="216.000000"  transform="rotate(0.000000,305.500000,216.000000)" style="stroke: black; stroke-width:0.25;"/>
<line x1="302.500000" y1="217.000000" x2="305.500000" y2="216.000000"  transform="rotate(0.000000,305.500000,216.000000)" style="stroke: black; stroke-width:0.25;"/>
<line x1="15.000000" y1="15.000000" x2="15.000000" y2="401.000000"  style="stroke: black; stroke-linecap:round; stroke-width:0.25; stroke-dasharray:3,3;"/>
<line x1="15.000000" y1="401.000000" x2="361.200000" y2="401.000000"  style="stroke: black; stroke-linecap:round; stroke-width:0.25; stroke-dasharray:3,3;"/>
<line x1="361.200000" y1="401.000000" x2="361.200000" y2="15.000000"  style="stroke: black; stroke-linecap:round; stroke-width:0.25; stroke-dasharray:3,3;"/>
<line x1="15.000000" y1="15.000000" x2="20.000000" y2="15.000000"  style="stroke: black; stroke-linecap:round; stroke-width:0.25; stroke-dasharray:3,3;"/>
<line x1="129.650000" y1="15.000000" x2="361.200000" y2="15.000000"  style="stroke: black; stroke-linecap:round; stroke-width:0.25; stroke-dasharray:3,3;"/>
<text x="20.000000" y="17.000000" font-family="Arial" font-size="7">facs1(4)(1.49...or) : -) : +)(2)</text>
<line x1="363.200000" y1="207.000000" x2="366.200000" y2="208.000000"  transform="rotate(0.000000,366.200000,208.000000)" style="stroke: black; stroke-width:0.25;"/>
<line x1="363.200000" y1="209.000000" x2="366.200000" y2="208.000000"  transform="rotate(0.000000,366.200000,208.000000)" style="stroke: black; stroke-width:0.25;"/>
<line x1="113.400000" y1="150.000000" x2="117.400000" y2="150.000000"  style="stroke:black; stroke-linecap:round; stroke-width:0.25;"/>
<line x1="113.400000" y1="202.000000" x2="117.400000" y2="202.000000"  style="stroke:black; stroke-linecap:round; stroke-width:0.25;"/>
<line x1="113.400000" y1="286.000000" x2="117.400000" y2="286.000000"  style="stroke:black; stroke-linecap:round; stroke-width:0.25;"/>
<line x1="113.400000" y1="338.000000" x2="117.400000" y2="338.000000"  style="stroke:black; stroke-linecap:round; stroke-width:0.25;"/>
<line x1="117.400000" y1="150.000000" x2="127.400000" y2="150.000000"  style="stroke:black; stroke-linecap:round; stroke-width:0.25;"/>
<line x1="117.400000" y1="202.000000" x2="127.400000" y2="202.000000"  style="stroke:black; stroke-linecap:round; stroke-width:0.25;"/>
<line x1="117.400000" y1="286.000000" x2="127.400000" y2="286.000000"  style="stroke:black; stroke-linecap:round; stroke-width:0.25;"/>
<line x1="117.400000" y1="338.000000" x2="127.400000" y2="338.000000"  style="stroke:black; stroke-linecap:round; stroke-width:0.25;"/>
<line x1="127.400000" y1="150.000000" x2="182.800000" y2="150.000000"  style="stroke:black; stroke-linecap:round; stroke-width:0.25;"/>
<line x1="127.400000" y1="202.000000" x2="182.800000" y2="202.000000"  style="stroke:black; stroke-linecap:round; stroke-width:0.25;"/>
<line x1="127.400000" y1="286.000000" x2="182.800000" y2="286.000000"  style="stroke:black; stroke-linecap:round; stroke-width:0.25;"/>
<line x1="127.400000" y1="338.000000" x2="182.800000" y2="338.000000"  style="stroke:black; stroke-linecap:round; stroke-width:0.25;"/>
<line x1="164.750000" y1="46.000000" x2="168.750000" y2="46.000000"  style="stroke:black; stroke-linecap:round; stroke-width:0.25;"/>
<line x1="164.750000" y1="98.000000" x2="168.750000" y2="98.000000"  style="stroke:black; stroke-linecap:round; stroke-width:0.25;"/>
<line x1="168.750000" y1="46.000000" x2="178.750000" y2="46.000000"  style="stroke:black; stroke-linecap:round; stroke-width:0.25;"/>
<line x1="168.750000" y1="98.000000" x2="178.750000" y2="98.000000"  style="stroke:black; stroke-linecap:round; stroke-width:0.25;"/>
<line x1="178.750000" y1="46.000000" x2="285.500000" y2="46.000000"  style="stroke:black; stroke-linecap:round; stroke-width:0.25;"/>
<line x1="178.750000" y1="98.000000" x2="285.500000" y2="98.000000"  style="stroke:black; stroke-linecap:round; stroke-width:0.25;"/>
<line x1="178.800000" y1="244.000000" x2="182.800000" y2="244.000000"  style="stroke:black; stroke-linecap:round; stroke-width:0.25;"/>
<line x1="178.800000" y1="380.000000" x2="182.800000" y2="380.000000"  style="stroke:black; stroke-linecap:round; stroke-width:0.25;"/>
<line x1="182.800000" y1="150.000000" x2="198.800000" y2="150.000000"  style="stroke:black; stroke-linecap:round; stroke-width:0.25;"/>
<line x1="182.800000" y1="192.000000" x2="198.800000" y2="192.000000"  style="stroke:black; stroke-linecap:round; stroke-width:0.25;"/>
<line x1="182.800000" y1="202.000000" x2="182.800000" y2="192.000000"  style="stroke:black; stroke-linecap:round; stroke-width:0.25;"/>
<line x1="182.800000" y1="202.000000" x2="182.800000" y2="202.000000"  style="stroke:black; stroke-linecap:round; stroke-width:0.25;"/>
<line x1="182.800000" y1="244.000000" x2="190.800000" y2="244.000000"  style="stroke:black; stroke-linecap:round; stroke-width:0.25;"/>
<line x1="182.800000" y1="286.000000" x2="198.800000" y2="286.000000"  style="stroke:black; stroke-linecap:round; stroke-width:0.25;"/>
<line x1="182.800000" y1="328.000000" x2="198.800000" y2="328.000000"  style="stroke:black; stroke-linecap:round; stroke-width:0.25;"/>
<line x1="182.800000" y1="338.000000" x2="182.800000" y2="328.000000"  style="stroke:black; stroke-linecap:round; stroke-width:0.25;"/>
<line x1="182.800000" y1="338.000000" x2="182.800000" y2="338.000000"  style="stroke:black; stroke-linecap:round; stroke-width:0.25;"/>
<line x1="182.800000" y1="380.000000" x2="190.800000" y2="380.000000"  style="stroke:black; stroke-linecap:round; stroke-width:0.25;"/>
<line x1="190.800000" y1="200.000000" x2="198.800000" y2="200.000000"  style="stroke:black; stroke-linecap:round; stroke-width:0.25;"/>
<line x1="190.800000" y1="244.000000" x2="190.800000" y2="200.000000"  style="stroke:black; stroke-linecap:round; stroke-width:0.25;"/>
<line x1="190.800000" y1="336.000000" x2="198.800000" y2="336.000000"  style="stroke:black; stroke-linecap:round; stroke-width:0.25;"/>
<line x1="190.800000" y1="380.000000" x2="190.800000" y2="336.000000"  style="stroke:black; stroke-linecap:round; stroke-width:0.25;"/>
<line x1="198.800000" y1="150.000000" x2="198.800000" y2="184.000000"  style="stroke:black; stroke-linecap:round; stroke-width:0.25;"/>
<line x1="198.800000" y1="184.000000" x2="198.800000" y2="184.000000"  style="stroke:black; stroke-linecap:round; stroke-width:0.25;"/>
<line x1="198.800000" y1="184.000000" x2="202.800000" y2="184.000000"  style="stroke:black; stroke-linecap:round; stroke-width:0.25;"/>
<line x1="198.800000" y1="192.000000" x2="202.800000" y2="192.000000"  style="stroke:black; stroke-linecap:round; stroke-width:0.25;"/>
<line x1="198.800000" y1="200.000000" x2="202.800000" y2="200.000000"  style="stroke:black; stroke-linecap:round; stroke-width:0.25;"/>
<line x1="198.800000" y1="286.000000" x2="198.800000" y2="320.000000"  style="stroke:black; stroke-linecap:round; stroke-width:0.25;"/>
<line x1="198.800000" y1="320.000000" x2="198.800000" y2="320.000000"  style="stroke:black; stroke-linecap:round; stroke-width:0.25;"/>
<line x1="198.800000" y1="320.000000" x2="202.800000" y2="320.000000"  style="stroke:black; stroke-linecap:round; stroke-width:0.25;"/>
<line x1="198.800000" y1="328.000000" x2="202.800000" y2="328.000000"  style="stroke:black; stroke-linecap:round; stroke-width:0.25;"/>
<line x1="198.800000" y1="336.000000" x2="202.800000" y2="336.000000"  style="stroke:black; stroke-linecap:round; stroke-width:0.25;"/>
<line x1="241.500000" y1="192.000000" x2="245.500000" y2="192.000000"  style="stroke:black; stroke-linecap:round; stroke-width:0.25;"/>
<line x1="241.500000" y1="328.000000" x2="245.500000" y2="328.000000"  style="stroke:black; stroke-linecap:round; stroke-width:0.25;"/>
<line x1="245.500000" y1="192.000000" x2="253.500000" y2="192.000000"  style="stroke:black; stroke-linecap:round; stroke-width:0.25;"/>
<line x1="245.500000" y1="264.000000" x2="253.500000" y2="264.000000"  style="stroke:black; stroke-linecap:round; stroke-width:0.25;"/>
<line x1="245.500000" y1="328.000000" x2="245.500000" y2="264.000000"  style="stroke:black; stroke-linecap:round; stroke-width:0.25;"/>
<line x1="245.500000" y1="328.000000" x2="245.500000" y2="328.000000"  style="stroke:black; stroke-linecap:round; stroke-width:0.25;"/>
<line x1="253.500000" y1="192.000000" x2="253.500000" y2="256.000000"  style="stroke:black; stroke-linecap:round; stroke-width:0.25;"/>
<line x1="253.500000" y1="256.000000" x2="253.500000" y2="256.000000"  style="stroke:black; stroke-linecap:round; stroke-width:0.25;"/>
<line x1="253.500000" y1="256.000000" x2="257.500000" y2="256.000000"  style="stroke:black; stroke-linecap:round; stroke-width:0.25;"/>
<line x1="253.500000" y1="264.000000" x2="257.500000" y2="264.000000"  style="stroke:black; stroke-linecap:round; stroke-width:0.25;"/>
<line x1="281.500000" y1="260.000000" x2="285.500000" y2="260.000000"  style="stroke:black; stroke-linecap:round; stroke-width:0.25;"/>
<line x1="285.500000" y1="46.000000" x2="301.500000" y2="46.000000"  style="stroke:black; stroke-linecap:round; stroke-width:0.25;"/>
<line x1="285.500000" y1="98.000000" x2="293.500000" y2="98.000000"  style="stroke:black; stroke-linecap:round; stroke-width:0.25;"/>
<line x1="285.500000" y1="216.000000" x2="301.500000" y2="216.000000"  style="stroke:black; stroke-linecap:round; stroke-width:0.25;"/>
<line x1="285.500000" y1="260.000000" x2="285.500000" y2="216.000000"  style="stroke:black; stroke-linecap:round; stroke-width:0.25;"/>
<line x1="285.500000" y1="260.000000" x2="285.500000" y2="260.000000"  style="stroke:black; stroke-linecap:round; stroke-width:0.25;"/>
<line x1="293.500000" y1="98.000000" x2="293.500000" y2="208.000000"  style="stroke:black; stroke-linecap:round; stroke-width:0.25;"/>
<line x1="293.500000" y1="208.000000" x2="301.500000" y2="208.000000"  style="stroke:black; stroke-linecap:round; stroke-width:0.25;"/>
<line x1="301.500000" y1="46.000000" x2="301.500000" y2="200.000000"  style="stroke:black; stroke-linecap:round; stroke-width:0.25;"/>
<line x1="301.500000" y1="200.000000" x2="301.500000" y2="200.000000"  style="stroke:black; stroke-linecap:round; stroke-width:0.25;"/>
<line x1="301.500000" y1="200.000000" x2="305.500000" y2="200.000000"  style="stroke:black; stroke-linecap:round; stroke-width:0.25;"/>
<line x1="301.500000" y1="208.000000" x2="305.500000" y2="208.000000"  style="stroke:black; stroke-linecap:round; stroke-width:0.25;"/>
<line x1="301.500000" y1="216.000000" x2="305.500000" y2="216.000000"  style="stroke:black; stroke-linecap:round; stroke-width:0.25;"/>
<line x1="344.200000" y1="208.000000" x2="348.200000" y2="208.000000"  style="stroke:black; stroke-linecap:round; stroke-width:0.25;"/>
<line x1="348.200000" y1="208.000000" x2="348.200000" y2="208.000000"  style="stroke:black; stroke-linecap:round; stroke-width:0.25;"/>
<line x1="348.200000" y1="208.000000" x2="352.200000" y2="208.000000"  style="stroke:black; stroke-linecap:round; stroke-width:0.25;"/>
<line x1="352.200000" y1="208.000000" x2="356.200000" y2="208.000000"  style="stroke:black; stroke-linecap:round; stroke-width:0.25;"/>
<line x1="356.200000" y1="208.000000" x2="366.200000" y2="208.000000"  style="stroke:black; stroke-linecap:round; stroke-width:0.25;"/>
</svg>
