<?xml version="1.0"?>
<svg xmlns="http://www.w3.org/2000/svg" xmlns:xlink="http://www.w3.org/1999/xlink" viewBox="0 0 403.200000 216.000000" width="201.600000mm" height="108.000000mm" version="1.1">
<a xlink:href="freqWeighting-0x7fa5fc5cbe80.svg">
<rect x="1.000000" y="1.000000" width="402.200000" height="215.000000" rx="0" ry="0" style="stroke:none;fill:#cccccc;"/>
<rect x="0.000000" y="0.000000" width="402.200000" height="215.000000" rx="0" ry="0" style="stroke:none;fill:#ffffff;"/>
</a>
<text x="10.000000" y="7.000000" font-family="Arial" font-size="7"></text>
<rect x="118.350000" y="25.000000" width="25.800000" height="24.000000" rx="0" ry="0" style="stroke:none;fill:#cccccc;"/>
<rect x="117.350000" y="24.000000" width="25.800000" height="24.000000" rx="0" ry="0" style="stroke:none;fill:#f44800;"/>
<text x="130.250000" y="38.000000" font-family="Arial" font-size="7" text-anchor="middle" fill="#FFFFFF">48000</text>
<circle cx="119.350000" cy="26.000000" r="1"/>
<rect x="152.150000" y="25.000000" width="24.000000" height="24.000000" rx="0" ry="0" style="stroke:none;fill:#cccccc;"/>
<rect x="151.150000" y="24.000000" width="24.000000" height="24.000000" rx="0" ry="0" style="stroke:none;fill:#4B71A1;"/>
<text x="163.150000" y="38.000000" font-family="Arial" font-size="7" text-anchor="middle" fill="#FFFFFF">int</text>
<circle cx="153.150000" cy="26.000000" r="1"/>
<line x1="148.150000" y1="35.000000" x2="151.150000" y2="36.000000"  transform="rotate(0.000000,151.150000,36.000000)" style="stroke: black; stroke-width:0.25;"/>
<line x1="148.150000" y1="37.000000" x2="151.150000" y2="36.000000"  transform="rotate(0.000000,151.150000,36.000000)" style="stroke: black; stroke-width:0.25;"/>
<rect x="135.250000" y="67.000000" width="24.000000" height="24.000000" rx="0" ry="0" style="stroke:none;fill:#cccccc;"/>
<rect x="134.250000" y="66.000000" width="24.000000" height="24.000000" rx="0" ry="0" style="stroke:none;fill:#f44800;"/>
<text x="146.250000" y="80.000000" font-family="Arial" font-size="7" text-anchor="middle" fill="#FFFFFF">1</text>
<circle cx="136.250000" cy="68.000000" r="1"/>
<line x1="125.250000" y1="57.000000" x2="125.250000" y2="99.000000"  style="stroke: black; stroke-linecap:round; stroke-width:0.25; stroke-dasharray:3,3;"/>
<line x1="125.250000" y1="99.000000" x2="167.250000" y2="99.000000"  style="stroke: black; stroke-linecap:round; stroke-width:0.25; stroke-dasharray:3,3;"/>
<line x1="167.250000" y1="99.000000" x2="167.250000" y2="57.000000"  style="stroke: black; stroke-linecap:round; stroke-width:0.25; stroke-dasharray:3,3;"/>
<line x1="125.250000" y1="57.000000" x2="130.250000" y2="57.000000"  style="stroke: black; stroke-linecap:round; stroke-width:0.25; stroke-dasharray:3,3;"/>
<line x1="162.500000" y1="57.000000" x2="167.250000" y2="57.000000"  style="stroke: black; stroke-linecap:round; stroke-width:0.25; stroke-dasharray:3,3;"/>
<text x="130.250000" y="59.000000" font-family="Arial" font-size="7">clipCond</text>
<rect x="192.150000" y="51.000000" width="24.000000" height="24.000000" rx="0" ry="0" style="stroke:none;fill:#cccccc;"/>
<rect x="191.150000" y="50.000000" width="24.000000" height="24.000000" rx="0" ry="0" style="stroke:none;fill:#4B71A1;"/>
<text x="203.150000" y="64.000000" font-family="Arial" font-size="7" text-anchor="middle" fill="#FFFFFF">+</text>
<circle cx="193.150000" cy="52.000000" r="1"/>
<line x1="188.150000" y1="57.000000" x2="191.150000" y2="58.000000"  transform="rotate(0.000000,191.150000,58.000000)" style="stroke: black; stroke-width:0.25;"/>
<line x1="188.150000" y1="59.000000" x2="191.150000" y2="58.000000"  transform="rotate(0.000000,191.150000,58.000000)" style="stroke: black; stroke-width:0.25;"/>
<line x1="188.150000" y1="65.000000" x2="191.150000" y2="66.000000"  transform="rotate(0.000000,191.150000,66.000000)" style="stroke: black; stroke-width:0.25;"/>
<line x1="188.150000" y1="67.000000" x2="191.150000" y2="66.000000"  transform="rotate(0.000000,191.150000,66.000000)" style="stroke: black; stroke-width:0.25;"/>
<a xlink:href="ITUs-0x7fa623aa3780.svg">
<rect x="154.350000" y="109.000000" width="25.800000" height="24.000000" rx="0" ry="0" style="stroke:none;fill:#cccccc;"/>
<rect x="153.350000" y="108.000000" width="25.800000" height="24.000000" rx="0" ry="0" style="stroke:none;fill:#003366;"/>
</a>
<a xlink:href="ITUs-0x7fa623aa3780.svg">
<text x="166.250000" y="122.000000" font-family="Arial" font-size="7" text-anchor="middle" fill="#FFFFFF">ITUs</text>
</a>
<circle cx="155.350000" cy="110.000000" r="1"/>
<a xlink:href="freq-0x7fa6181059e0.svg">
<rect x="25.000000" y="155.000000" width="38.700000" height="24.000000" rx="0" ry="0" style="stroke:none;fill:#cccccc;"/>
<rect x="24.000000" y="154.000000" width="38.700000" height="24.000000" rx="0" ry="0" style="stroke:none;fill:#003366;"/>
</a>
<a xlink:href="freq-0x7fa6181059e0.svg">
<text x="43.350000" y="168.000000" font-family="Arial" font-size="7" text-anchor="middle" fill="#FFFFFF">freq(4)</text>
</a>
<circle cx="26.000000" cy="156.000000" r="1"/>
<rect x="89.700000" y="151.000000" width="24.000000" height="24.000000" rx="0" ry="0" style="stroke:none;fill:#cccccc;"/>
<rect x="88.700000" y="150.000000" width="24.000000" height="24.000000" rx="0" ry="0" style="stroke:none;fill:#f44800;"/>
<text x="100.700000" y="164.000000" font-family="Arial" font-size="7" text-anchor="middle" fill="#FFFFFF">1</text>
<circle cx="90.700000" cy="152.000000" r="1"/>
<line x1="79.700000" y1="141.000000" x2="79.700000" y2="183.000000"  style="stroke: black; stroke-linecap:round; stroke-width:0.25; stroke-dasharray:3,3;"/>
<line x1="79.700000" y1="183.000000" x2="121.700000" y2="183.000000"  style="stroke: black; stroke-linecap:round; stroke-width:0.25; stroke-dasharray:3,3;"/>
<line x1="121.700000" y1="183.000000" x2="121.700000" y2="141.000000"  style="stroke: black; stroke-linecap:round; stroke-width:0.25; stroke-dasharray:3,3;"/>
<line x1="79.700000" y1="141.000000" x2="84.700000" y2="141.000000"  style="stroke: black; stroke-linecap:round; stroke-width:0.25; stroke-dasharray:3,3;"/>
<line x1="116.950000" y1="141.000000" x2="121.700000" y2="141.000000"  style="stroke: black; stroke-linecap:round; stroke-width:0.25; stroke-dasharray:3,3;"/>
<text x="84.700000" y="143.000000" font-family="Arial" font-size="7">clipCond</text>
<rect x="139.700000" y="155.000000" width="24.000000" height="24.000000" rx="0" ry="0" style="stroke:none;fill:#cccccc;"/>
<rect x="138.700000" y="154.000000" width="24.000000" height="24.000000" rx="0" ry="0" style="stroke:none;fill:#4B71A1;"/>
<text x="150.700000" y="168.000000" font-family="Arial" font-size="7" text-anchor="middle" fill="#FFFFFF">max</text>
<circle cx="140.700000" cy="156.000000" r="1"/>
<line x1="135.700000" y1="161.000000" x2="138.700000" y2="162.000000"  transform="rotate(0.000000,138.700000,162.000000)" style="stroke: black; stroke-width:0.25;"/>
<line x1="135.700000" y1="163.000000" x2="138.700000" y2="162.000000"  transform="rotate(0.000000,138.700000,162.000000)" style="stroke: black; stroke-width:0.25;"/>
<line x1="135.700000" y1="169.000000" x2="138.700000" y2="170.000000"  transform="rotate(0.000000,138.700000,170.000000)" style="stroke: black; stroke-width:0.25;"/>
<line x1="135.700000" y1="171.000000" x2="138.700000" y2="170.000000"  transform="rotate(0.000000,138.700000,170.000000)" style="stroke: black; stroke-width:0.25;"/>
<rect x="179.700000" y="151.000000" width="25.800000" height="24.000000" rx="0" ry="0" style="stroke:none;fill:#cccccc;"/>
<rect x="178.700000" y="150.000000" width="25.800000" height="24.000000" rx="0" ry="0" style="stroke:none;fill:#f44800;"/>
<text x="191.600000" y="164.000000" font-family="Arial" font-size="7" text-anchor="middle" fill="#FFFFFF">48000</text>
<circle cx="180.700000" cy="152.000000" r="1"/>
<rect x="221.500000" y="155.000000" width="24.000000" height="24.000000" rx="0" ry="0" style="stroke:none;fill:#cccccc;"/>
<rect x="220.500000" y="154.000000" width="24.000000" height="24.000000" rx="0" ry="0" style="stroke:none;fill:#4B71A1;"/>
<text x="232.500000" y="168.000000" font-family="Arial" font-size="7" text-anchor="middle" fill="#FFFFFF">min</text>
<circle cx="222.500000" cy="156.000000" r="1"/>
<line x1="217.500000" y1="161.000000" x2="220.500000" y2="162.000000"  transform="rotate(0.000000,220.500000,162.000000)" style="stroke: black; stroke-width:0.25;"/>
<line x1="217.500000" y1="163.000000" x2="220.500000" y2="162.000000"  transform="rotate(0.000000,220.500000,162.000000)" style="stroke: black; stroke-width:0.25;"/>
<line x1="217.500000" y1="169.000000" x2="220.500000" y2="170.000000"  transform="rotate(0.000000,220.500000,170.000000)" style="stroke: black; stroke-width:0.25;"/>
<line x1="217.500000" y1="171.000000" x2="220.500000" y2="170.000000"  transform="rotate(0.000000,220.500000,170.000000)" style="stroke: black; stroke-width:0.25;"/>
<rect x="253.500000" y="155.000000" width="24.000000" height="24.000000" rx="0" ry="0" style="stroke:none;fill:#cccccc;"/>
<rect x="252.500000" y="154.000000" width="24.000000" height="24.000000" rx="0" ry="0" style="stroke:none;fill:#4B71A1;"/>
<text x="264.500000" y="168.000000" font-family="Arial" font-size="7" text-anchor="middle" fill="#FFFFFF">int</text>
<circle cx="254.500000" cy="156.000000" r="1"/>
<line x1="249.500000" y1="165.000000" x2="252.500000" y2="166.000000"  transform="rotate(0.000000,252.500000,166.000000)" style="stroke: black; stroke-width:0.25;"/>
<line x1="249.500000" y1="167.000000" x2="252.500000" y2="166.000000"  transform="rotate(0.000000,252.500000,166.000000)" style="stroke: black; stroke-width:0.25;"/>
<rect x="285.500000" y="155.000000" width="24.000000" height="24.000000" rx="0" ry="0" style="stroke:none;fill:#cccccc;"/>
<rect x="284.500000" y="154.000000" width="24.000000" height="24.000000" rx="0" ry="0" style="stroke:none;fill:#4B71A1;"/>
<text x="296.500000" y="168.000000" font-family="Arial" font-size="7" text-anchor="middle" fill="#FFFFFF">int</text>
<circle cx="286.500000" cy="156.000000" r="1"/>
<line x1="281.500000" y1="165.000000" x2="284.500000" y2="166.000000"  transform="rotate(0.000000,284.500000,166.000000)" style="stroke: black; stroke-width:0.25;"/>
<line x1="281.500000" y1="167.000000" x2="284.500000" y2="166.000000"  transform="rotate(0.000000,284.500000,166.000000)" style="stroke: black; stroke-width:0.25;"/>
<rect x="333.500000" y="97.000000" width="38.700000" height="24.000000" rx="0" ry="0" style="stroke:none;fill:#cccccc;"/>
<rect x="332.500000" y="96.000000" width="38.700000" height="24.000000" rx="0" ry="0" style="stroke:none;fill:#4B71A1;"/>
<text x="351.850000" y="110.000000" font-family="Arial" font-size="7" text-anchor="middle" fill="#FFFFFF">rdtable</text>
<circle cx="334.500000" cy="98.000000" r="1"/>
<line x1="329.500000" y1="99.000000" x2="332.500000" y2="100.000000"  transform="rotate(0.000000,332.500000,100.000000)" style="stroke: black; stroke-width:0.25;"/>
<line x1="329.500000" y1="101.000000" x2="332.500000" y2="100.000000"  transform="rotate(0.000000,332.500000,100.000000)" style="stroke: black; stroke-width:0.25;"/>
<line x1="329.500000" y1="107.000000" x2="332.500000" y2="108.000000"  transform="rotate(0.000000,332.500000,108.000000)" style="stroke: black; stroke-width:0.25;"/>
<line x1="329.500000" y1="109.000000" x2="332.500000" y2="108.000000"  transform="rotate(0.000000,332.500000,108.000000)" style="stroke: black; stroke-width:0.25;"/>
<line x1="329.500000" y1="115.000000" x2="332.500000" y2="116.000000"  transform="rotate(0.000000,332.500000,116.000000)" style="stroke: black; stroke-width:0.25;"/>
<line x1="329.500000" y1="117.000000" x2="332.500000" y2="116.000000"  transform="rotate(0.000000,332.500000,116.000000)" style="stroke: black; stroke-width:0.25;"/>
<line x1="15.000000" y1="15.000000" x2="15.000000" y2="201.000000"  style="stroke: black; stroke-linecap:round; stroke-width:0.25; stroke-dasharray:3,3;"/>
<line x1="15.000000" y1="201.000000" x2="388.200000" y2="201.000000"  style="stroke: black; stroke-linecap:round; stroke-width:0.25; stroke-dasharray:3,3;"/>
<line x1="388.200000" y1="201.000000" x2="388.200000" y2="15.000000"  style="stroke: black; stroke-linecap:round; stroke-width:0.25; stroke-dasharray:3,3;"/>
<line x1="15.000000" y1="15.000000" x2="20.000000" y2="15.000000"  style="stroke: black; stroke-linecap:round; stroke-width:0.25; stroke-dasharray:3,3;"/>
<line x1="119.975000" y1="15.000000" x2="388.200000" y2="15.000000"  style="stroke: black; stroke-linecap:round; stroke-width:0.25; stroke-dasharray:3,3;"/>
<text x="20.000000" y="17.000000" font-family="Arial" font-size="7">ITUtable(0.70...,!,!,!,!,!,!)</text>
<line x1="390.200000" y1="107.000000" x2="393.200000" y2="108.000000"  transform="rotate(0.000000,393.200000,108.000000)" style="stroke: black; stroke-width:0.25;"/>
<line x1="390.200000" y1="109.000000" x2="393.200000" y2="108.000000"  transform="rotate(0.000000,393.200000,108.000000)" style="stroke: black; stroke-width:0.25;"/>
<line x1="62.700000" y1="166.000000" x2="66.700000" y2="166.000000"  style="stroke:black; stroke-linecap:round; stroke-width:0.25;"/>
<line x1="66.700000" y1="166.000000" x2="74.700000" y2="166.000000"  style="stroke:black; stroke-linecap:round; stroke-width:0.25;"/>
<line x1="74.700000" y1="166.000000" x2="74.700000" y2="192.000000"  style="stroke:black; stroke-linecap:round; stroke-width:0.25;"/>
<line x1="74.700000" y1="192.000000" x2="74.700000" y2="192.000000"  style="stroke:black; stroke-linecap:round; stroke-width:0.25;"/>
<line x1="74.700000" y1="192.000000" x2="100.700000" y2="192.000000"  style="stroke:black; stroke-linecap:round; stroke-width:0.25;"/>
<line x1="100.700000" y1="192.000000" x2="126.700000" y2="192.000000"  style="stroke:black; stroke-linecap:round; stroke-width:0.25;"/>
<line x1="112.700000" y1="162.000000" x2="116.700000" y2="162.000000"  style="stroke:black; stroke-linecap:round; stroke-width:0.25;"/>
<line x1="116.700000" y1="162.000000" x2="126.700000" y2="162.000000"  style="stroke:black; stroke-linecap:round; stroke-width:0.25;"/>
<line x1="126.700000" y1="162.000000" x2="134.700000" y2="162.000000"  style="stroke:black; stroke-linecap:round; stroke-width:0.25;"/>
<line x1="126.700000" y1="170.000000" x2="134.700000" y2="170.000000"  style="stroke:black; stroke-linecap:round; stroke-width:0.25;"/>
<line x1="126.700000" y1="192.000000" x2="126.700000" y2="170.000000"  style="stroke:black; stroke-linecap:round; stroke-width:0.25;"/>
<line x1="126.700000" y1="192.000000" x2="126.700000" y2="192.000000"  style="stroke:black; stroke-linecap:round; stroke-width:0.25;"/>
<line x1="134.700000" y1="162.000000" x2="138.700000" y2="162.000000"  style="stroke:black; stroke-linecap:round; stroke-width:0.25;"/>
<line x1="134.700000" y1="170.000000" x2="138.700000" y2="170.000000"  style="stroke:black; stroke-linecap:round; stroke-width:0.25;"/>
<line x1="143.150000" y1="36.000000" x2="147.150000" y2="36.000000"  style="stroke:black; stroke-linecap:round; stroke-width:0.25;"/>
<line x1="147.150000" y1="36.000000" x2="147.150000" y2="36.000000"  style="stroke:black; stroke-linecap:round; stroke-width:0.25;"/>
<line x1="147.150000" y1="36.000000" x2="151.150000" y2="36.000000"  style="stroke:black; stroke-linecap:round; stroke-width:0.25;"/>
<line x1="158.250000" y1="78.000000" x2="162.250000" y2="78.000000"  style="stroke:black; stroke-linecap:round; stroke-width:0.25;"/>
<line x1="162.250000" y1="78.000000" x2="172.250000" y2="78.000000"  style="stroke:black; stroke-linecap:round; stroke-width:0.25;"/>
<line x1="162.700000" y1="166.000000" x2="166.700000" y2="166.000000"  style="stroke:black; stroke-linecap:round; stroke-width:0.25;"/>
<line x1="166.700000" y1="166.000000" x2="174.700000" y2="166.000000"  style="stroke:black; stroke-linecap:round; stroke-width:0.25;"/>
<line x1="172.250000" y1="78.000000" x2="179.150000" y2="78.000000"  style="stroke:black; stroke-linecap:round; stroke-width:0.25;"/>
<line x1="174.700000" y1="166.000000" x2="174.700000" y2="182.000000"  style="stroke:black; stroke-linecap:round; stroke-width:0.25;"/>
<line x1="174.700000" y1="182.000000" x2="174.700000" y2="182.000000"  style="stroke:black; stroke-linecap:round; stroke-width:0.25;"/>
<line x1="174.700000" y1="182.000000" x2="191.600000" y2="182.000000"  style="stroke:black; stroke-linecap:round; stroke-width:0.25;"/>
<line x1="175.150000" y1="36.000000" x2="179.150000" y2="36.000000"  style="stroke:black; stroke-linecap:round; stroke-width:0.25;"/>
<line x1="179.150000" y1="36.000000" x2="187.150000" y2="36.000000"  style="stroke:black; stroke-linecap:round; stroke-width:0.25;"/>
<line x1="179.150000" y1="120.000000" x2="183.150000" y2="120.000000"  style="stroke:black; stroke-linecap:round; stroke-width:0.25;"/>
<line x1="179.150000" y1="66.000000" x2="187.150000" y2="66.000000"  style="stroke:black; stroke-linecap:round; stroke-width:0.25;"/>
<line x1="179.150000" y1="78.000000" x2="179.150000" y2="66.000000"  style="stroke:black; stroke-linecap:round; stroke-width:0.25;"/>
<line x1="179.150000" y1="78.000000" x2="179.150000" y2="78.000000"  style="stroke:black; stroke-linecap:round; stroke-width:0.25;"/>
<line x1="183.150000" y1="120.000000" x2="312.500000" y2="120.000000"  style="stroke:black; stroke-linecap:round; stroke-width:0.25;"/>
<line x1="187.150000" y1="36.000000" x2="187.150000" y2="58.000000"  style="stroke:black; stroke-linecap:round; stroke-width:0.25;"/>
<line x1="187.150000" y1="58.000000" x2="187.150000" y2="58.000000"  style="stroke:black; stroke-linecap:round; stroke-width:0.25;"/>
<line x1="187.150000" y1="58.000000" x2="191.150000" y2="58.000000"  style="stroke:black; stroke-linecap:round; stroke-width:0.25;"/>
<line x1="187.150000" y1="66.000000" x2="191.150000" y2="66.000000"  style="stroke:black; stroke-linecap:round; stroke-width:0.25;"/>
<line x1="191.600000" y1="182.000000" x2="208.500000" y2="182.000000"  style="stroke:black; stroke-linecap:round; stroke-width:0.25;"/>
<line x1="204.500000" y1="162.000000" x2="208.500000" y2="162.000000"  style="stroke:black; stroke-linecap:round; stroke-width:0.25;"/>
<line x1="208.500000" y1="162.000000" x2="216.500000" y2="162.000000"  style="stroke:black; stroke-linecap:round; stroke-width:0.25;"/>
<line x1="208.500000" y1="170.000000" x2="216.500000" y2="170.000000"  style="stroke:black; stroke-linecap:round; stroke-width:0.25;"/>
<line x1="208.500000" y1="182.000000" x2="208.500000" y2="170.000000"  style="stroke:black; stroke-linecap:round; stroke-width:0.25;"/>
<line x1="208.500000" y1="182.000000" x2="208.500000" y2="182.000000"  style="stroke:black; stroke-linecap:round; stroke-width:0.25;"/>
<line x1="215.150000" y1="62.000000" x2="219.150000" y2="62.000000"  style="stroke:black; stroke-linecap:round; stroke-width:0.25;"/>
<line x1="216.500000" y1="162.000000" x2="220.500000" y2="162.000000"  style="stroke:black; stroke-linecap:round; stroke-width:0.25;"/>
<line x1="216.500000" y1="170.000000" x2="220.500000" y2="170.000000"  style="stroke:black; stroke-linecap:round; stroke-width:0.25;"/>
<line x1="219.150000" y1="62.000000" x2="312.500000" y2="62.000000"  style="stroke:black; stroke-linecap:round; stroke-width:0.25;"/>
<line x1="244.500000" y1="166.000000" x2="248.500000" y2="166.000000"  style="stroke:black; stroke-linecap:round; stroke-width:0.25;"/>
<line x1="248.500000" y1="166.000000" x2="248.500000" y2="166.000000"  style="stroke:black; stroke-linecap:round; stroke-width:0.25;"/>
<line x1="248.500000" y1="166.000000" x2="252.500000" y2="166.000000"  style="stroke:black; stroke-linecap:round; stroke-width:0.25;"/>
<line x1="276.500000" y1="166.000000" x2="280.500000" y2="166.000000"  style="stroke:black; stroke-linecap:round; stroke-width:0.25;"/>
<line x1="280.500000" y1="166.000000" x2="280.500000" y2="166.000000"  style="stroke:black; stroke-linecap:round; stroke-width:0.25;"/>
<line x1="280.500000" y1="166.000000" x2="284.500000" y2="166.000000"  style="stroke:black; stroke-linecap:round; stroke-width:0.25;"/>
<line x1="308.500000" y1="166.000000" x2="312.500000" y2="166.000000"  style="stroke:black; stroke-linecap:round; stroke-width:0.25;"/>
<line x1="312.500000" y1="62.000000" x2="328.500000" y2="62.000000"  style="stroke:black; stroke-linecap:round; stroke-width:0.25;"/>
<line x1="312.500000" y1="108.000000" x2="328.500000" y2="108.000000"  style="stroke:black; stroke-linecap:round; stroke-width:0.25;"/>
<line x1="312.500000" y1="120.000000" x2="312.500000" y2="108.000000"  style="stroke:black; stroke-linecap:round; stroke-width:0.25;"/>
<line x1="312.500000" y1="120.000000" x2="312.500000" y2="120.000000"  style="stroke:black; stroke-linecap:round; stroke-width:0.25;"/>
<line x1="312.500000" y1="166.000000" x2="320.500000" y2="166.000000"  style="stroke:black; stroke-linecap:round; stroke-width:0.25;"/>
<line x1="320.500000" y1="116.000000" x2="328.500000" y2="116.000000"  style="stroke:black; stroke-linecap:round; stroke-width:0.25;"/>
<line x1="320.500000" y1="166.000000" x2="320.500000" y2="116.000000"  style="stroke:black; stroke-linecap:round; stroke-width:0.25;"/>
<line x1="328.500000" y1="62.000000" x2="328.500000" y2="100.000000"  style="stroke:black; stroke-linecap:round; stroke-width:0.25;"/>
<line x1="328.500000" y1="100.000000" x2="328.500000" y2="100.000000"  style="stroke:black; stroke-linecap:round; stroke-width:0.25;"/>
<line x1="328.500000" y1="100.000000" x2="332.500000" y2="100.000000"  style="stroke:black; stroke-linecap:round; stroke-width:0.25;"/>
<line x1="328.500000" y1="108.000000" x2="332.500000" y2="108.000000"  style="stroke:black; stroke-linecap:round; stroke-width:0.25;"/>
<line x1="328.500000" y1="116.000000" x2="332.500000" y2="116.000000"  style="stroke:black; stroke-linecap:round; stroke-width:0.25;"/>
<line x1="371.200000" y1="108.000000" x2="375.200000" y2="108.000000"  style="stroke:black; stroke-linecap:round; stroke-width:0.25;"/>
<line x1="375.200000" y1="108.000000" x2="375.200000" y2="108.000000"  style="stroke:black; stroke-linecap:round; stroke-width:0.25;"/>
<line x1="375.200000" y1="108.000000" x2="379.200000" y2="108.000000"  style="stroke:black; stroke-linecap:round; stroke-width:0.25;"/>
<line x1="379.200000" y1="108.000000" x2="383.200000" y2="108.000000"  style="stroke:black; stroke-linecap:round; stroke-width:0.25;"/>
<line x1="383.200000" y1="108.000000" x2="393.200000" y2="108.000000"  style="stroke:black; stroke-linecap:round; stroke-width:0.25;"/>
</svg>
