<?xml version="1.0"?>
<svg xmlns="http://www.w3.org/2000/svg" xmlns:xlink="http://www.w3.org/1999/xlink" viewBox="0 0 265.000000 220.000000" width="132.500000mm" height="110.000000mm" version="1.1">
<a xlink:href="s-0x7fa608c995a0.svg">
<rect x="1.000000" y="1.000000" width="264.000000" height="219.000000" rx="0" ry="0" style="stroke:none;fill:#cccccc;"/>
<rect x="0.000000" y="0.000000" width="264.000000" height="219.000000" rx="0" ry="0" style="stroke:none;fill:#ffffff;"/>
</a>
<text x="10.000000" y="7.000000" font-family="Arial" font-size="7"></text>
<a xlink:href="nonLinDry-0x7fa608c4fd10.svg">
<rect x="50.150000" y="25.000000" width="38.700000" height="24.000000" rx="0" ry="0" style="stroke:none;fill:#cccccc;"/>
<rect x="49.150000" y="24.000000" width="38.700000" height="24.000000" rx="0" ry="0" style="stroke:none;fill:#003366;"/>
</a>
<a xlink:href="nonLinDry-0x7fa608c4fd10.svg">
<text x="68.500000" y="38.000000" font-family="Arial" font-size="7" text-anchor="middle" fill="#FFFFFF">nonLinDry</text>
</a>
<circle cx="51.150000" cy="26.000000" r="1"/>
<rect x="50.150000" y="67.000000" width="38.700000" height="24.000000" rx="0" ry="0" style="stroke:none;fill:#cccccc;"/>
<rect x="49.150000" y="66.000000" width="38.700000" height="24.000000" rx="0" ry="0" style="stroke:none;fill:#f44800;"/>
<text x="68.500000" y="80.000000" font-family="Arial" font-size="7" text-anchor="middle" fill="#FFFFFF">3.14159</text>
<circle cx="51.150000" cy="68.000000" r="1"/>
<line x1="40.150000" y1="57.000000" x2="40.150000" y2="99.000000"  style="stroke: black; stroke-linecap:round; stroke-width:0.25; stroke-dasharray:3,3;"/>
<line x1="40.150000" y1="99.000000" x2="96.850000" y2="99.000000"  style="stroke: black; stroke-linecap:round; stroke-width:0.25; stroke-dasharray:3,3;"/>
<line x1="96.850000" y1="99.000000" x2="96.850000" y2="57.000000"  style="stroke: black; stroke-linecap:round; stroke-width:0.25; stroke-dasharray:3,3;"/>
<line x1="40.150000" y1="57.000000" x2="45.150000" y2="57.000000"  style="stroke: black; stroke-linecap:round; stroke-width:0.25; stroke-dasharray:3,3;"/>
<line x1="58.050000" y1="57.000000" x2="96.850000" y2="57.000000"  style="stroke: black; stroke-linecap:round; stroke-width:0.25; stroke-dasharray:3,3;"/>
<text x="45.150000" y="59.000000" font-family="Arial" font-size="7">PI</text>
<rect x="114.850000" y="51.000000" width="24.000000" height="24.000000" rx="0" ry="0" style="stroke:none;fill:#cccccc;"/>
<rect x="113.850000" y="50.000000" width="24.000000" height="24.000000" rx="0" ry="0" style="stroke:none;fill:#4B71A1;"/>
<text x="125.850000" y="64.000000" font-family="Arial" font-size="7" text-anchor="middle" fill="#FFFFFF">*</text>
<circle cx="115.850000" cy="52.000000" r="1"/>
<line x1="110.850000" y1="57.000000" x2="113.850000" y2="58.000000"  transform="rotate(0.000000,113.850000,58.000000)" style="stroke: black; stroke-width:0.25;"/>
<line x1="110.850000" y1="59.000000" x2="113.850000" y2="58.000000"  transform="rotate(0.000000,113.850000,58.000000)" style="stroke: black; stroke-width:0.25;"/>
<line x1="110.850000" y1="65.000000" x2="113.850000" y2="66.000000"  transform="rotate(0.000000,113.850000,66.000000)" style="stroke: black; stroke-width:0.25;"/>
<line x1="110.850000" y1="67.000000" x2="113.850000" y2="66.000000"  transform="rotate(0.000000,113.850000,66.000000)" style="stroke: black; stroke-width:0.25;"/>
<a xlink:href="PHosci-0x7fa608c8aa50.svg">
<rect x="25.000000" y="109.000000" width="129.000000" height="24.000000" rx="0" ry="0" style="stroke:none;fill:#cccccc;"/>
<rect x="24.000000" y="108.000000" width="129.000000" height="24.000000" rx="0" ry="0" style="stroke:none;fill:#003366;"/>
</a>
<a xlink:href="PHosci-0x7fa608c8aa50.svg">
<text x="88.500000" y="122.000000" font-family="Arial" font-size="7" text-anchor="middle" fill="#FFFFFF">PHosci(vgroup...}])))))) : -)</text>
</a>
<circle cx="26.000000" cy="110.000000" r="1"/>
<rect x="170.000000" y="67.000000" width="24.000000" height="24.000000" rx="0" ry="0" style="stroke:none;fill:#cccccc;"/>
<rect x="169.000000" y="66.000000" width="24.000000" height="24.000000" rx="0" ry="0" style="stroke:none;fill:#4B71A1;"/>
<text x="181.000000" y="80.000000" font-family="Arial" font-size="7" text-anchor="middle" fill="#FFFFFF">*</text>
<circle cx="171.000000" cy="68.000000" r="1"/>
<line x1="166.000000" y1="73.000000" x2="169.000000" y2="74.000000"  transform="rotate(0.000000,169.000000,74.000000)" style="stroke: black; stroke-width:0.25;"/>
<line x1="166.000000" y1="75.000000" x2="169.000000" y2="74.000000"  transform="rotate(0.000000,169.000000,74.000000)" style="stroke: black; stroke-width:0.25;"/>
<line x1="166.000000" y1="81.000000" x2="169.000000" y2="82.000000"  transform="rotate(0.000000,169.000000,82.000000)" style="stroke: black; stroke-width:0.25;"/>
<line x1="166.000000" y1="83.000000" x2="169.000000" y2="82.000000"  transform="rotate(0.000000,169.000000,82.000000)" style="stroke: black; stroke-width:0.25;"/>
<a xlink:href="DCnonlinDry-0x7fa608c94340.svg">
<rect x="63.700000" y="141.000000" width="51.600000" height="24.000000" rx="0" ry="0" style="stroke:none;fill:#cccccc;"/>
<rect x="62.700000" y="140.000000" width="51.600000" height="24.000000" rx="0" ry="0" style="stroke:none;fill:#003366;"/>
</a>
<a xlink:href="DCnonlinDry-0x7fa608c94340.svg">
<text x="88.500000" y="154.000000" font-family="Arial" font-size="7" text-anchor="middle" fill="#FFFFFF">DCnonlinDry</text>
</a>
<circle cx="64.700000" cy="142.000000" r="1"/>
<a xlink:href="DCleftRightDry-0x7fa608c94bd0.svg">
<rect x="57.250000" y="173.000000" width="64.500000" height="24.000000" rx="0" ry="0" style="stroke:none;fill:#cccccc;"/>
<rect x="56.250000" y="172.000000" width="64.500000" height="24.000000" rx="0" ry="0" style="stroke:none;fill:#003366;"/>
</a>
<a xlink:href="DCleftRightDry-0x7fa608c94bd0.svg">
<text x="88.500000" y="186.000000" font-family="Arial" font-size="7" text-anchor="middle" fill="#FFFFFF">DCleftRightDry</text>
</a>
<circle cx="58.250000" cy="174.000000" r="1"/>
<rect x="137.750000" y="157.000000" width="24.000000" height="24.000000" rx="0" ry="0" style="stroke:none;fill:#cccccc;"/>
<rect x="136.750000" y="156.000000" width="24.000000" height="24.000000" rx="0" ry="0" style="stroke:none;fill:#4B71A1;"/>
<text x="148.750000" y="170.000000" font-family="Arial" font-size="7" text-anchor="middle" fill="#FFFFFF">-</text>
<circle cx="138.750000" cy="158.000000" r="1"/>
<line x1="133.750000" y1="163.000000" x2="136.750000" y2="164.000000"  transform="rotate(0.000000,136.750000,164.000000)" style="stroke: black; stroke-width:0.25;"/>
<line x1="133.750000" y1="165.000000" x2="136.750000" y2="164.000000"  transform="rotate(0.000000,136.750000,164.000000)" style="stroke: black; stroke-width:0.25;"/>
<line x1="133.750000" y1="171.000000" x2="136.750000" y2="172.000000"  transform="rotate(0.000000,136.750000,172.000000)" style="stroke: black; stroke-width:0.25;"/>
<line x1="133.750000" y1="173.000000" x2="136.750000" y2="172.000000"  transform="rotate(0.000000,136.750000,172.000000)" style="stroke: black; stroke-width:0.25;"/>
<rect x="210.000000" y="99.000000" width="24.000000" height="24.000000" rx="0" ry="0" style="stroke:none;fill:#cccccc;"/>
<rect x="209.000000" y="98.000000" width="24.000000" height="24.000000" rx="0" ry="0" style="stroke:none;fill:#4B71A1;"/>
<text x="221.000000" y="112.000000" font-family="Arial" font-size="7" text-anchor="middle" fill="#FFFFFF">+</text>
<circle cx="211.000000" cy="100.000000" r="1"/>
<line x1="206.000000" y1="105.000000" x2="209.000000" y2="106.000000"  transform="rotate(0.000000,209.000000,106.000000)" style="stroke: black; stroke-width:0.25;"/>
<line x1="206.000000" y1="107.000000" x2="209.000000" y2="106.000000"  transform="rotate(0.000000,209.000000,106.000000)" style="stroke: black; stroke-width:0.25;"/>
<line x1="206.000000" y1="113.000000" x2="209.000000" y2="114.000000"  transform="rotate(0.000000,209.000000,114.000000)" style="stroke: black; stroke-width:0.25;"/>
<line x1="206.000000" y1="115.000000" x2="209.000000" y2="114.000000"  transform="rotate(0.000000,209.000000,114.000000)" style="stroke: black; stroke-width:0.25;"/>
<line x1="15.000000" y1="15.000000" x2="15.000000" y2="205.000000"  style="stroke: black; stroke-linecap:round; stroke-width:0.25; stroke-dasharray:3,3;"/>
<line x1="15.000000" y1="205.000000" x2="250.000000" y2="205.000000"  style="stroke: black; stroke-linecap:round; stroke-width:0.25; stroke-dasharray:3,3;"/>
<line x1="250.000000" y1="205.000000" x2="250.000000" y2="15.000000"  style="stroke: black; stroke-linecap:round; stroke-width:0.25; stroke-dasharray:3,3;"/>
<line x1="15.000000" y1="15.000000" x2="20.000000" y2="15.000000"  style="stroke: black; stroke-linecap:round; stroke-width:0.25; stroke-dasharray:3,3;"/>
<line x1="39.350000" y1="15.000000" x2="250.000000" y2="15.000000"  style="stroke: black; stroke-linecap:round; stroke-width:0.25; stroke-dasharray:3,3;"/>
<text x="20.000000" y="17.000000" font-family="Arial" font-size="7">tosc</text>
<line x1="252.000000" y1="109.000000" x2="255.000000" y2="110.000000"  transform="rotate(0.000000,255.000000,110.000000)" style="stroke: black; stroke-width:0.25;"/>
<line x1="252.000000" y1="111.000000" x2="255.000000" y2="110.000000"  transform="rotate(0.000000,255.000000,110.000000)" style="stroke: black; stroke-width:0.25;"/>
<line x1="87.850000" y1="36.000000" x2="91.850000" y2="36.000000"  style="stroke:black; stroke-linecap:round; stroke-width:0.25;"/>
<line x1="87.850000" y1="78.000000" x2="91.850000" y2="78.000000"  style="stroke:black; stroke-linecap:round; stroke-width:0.25;"/>
<line x1="91.850000" y1="36.000000" x2="101.850000" y2="36.000000"  style="stroke:black; stroke-linecap:round; stroke-width:0.25;"/>
<line x1="91.850000" y1="78.000000" x2="101.850000" y2="78.000000"  style="stroke:black; stroke-linecap:round; stroke-width:0.25;"/>
<line x1="101.850000" y1="36.000000" x2="109.850000" y2="36.000000"  style="stroke:black; stroke-linecap:round; stroke-width:0.25;"/>
<line x1="101.850000" y1="66.000000" x2="109.850000" y2="66.000000"  style="stroke:black; stroke-linecap:round; stroke-width:0.25;"/>
<line x1="101.850000" y1="78.000000" x2="101.850000" y2="66.000000"  style="stroke:black; stroke-linecap:round; stroke-width:0.25;"/>
<line x1="101.850000" y1="78.000000" x2="101.850000" y2="78.000000"  style="stroke:black; stroke-linecap:round; stroke-width:0.25;"/>
<line x1="109.850000" y1="36.000000" x2="109.850000" y2="58.000000"  style="stroke:black; stroke-linecap:round; stroke-width:0.25;"/>
<line x1="109.850000" y1="58.000000" x2="109.850000" y2="58.000000"  style="stroke:black; stroke-linecap:round; stroke-width:0.25;"/>
<line x1="109.850000" y1="58.000000" x2="113.850000" y2="58.000000"  style="stroke:black; stroke-linecap:round; stroke-width:0.25;"/>
<line x1="109.850000" y1="66.000000" x2="113.850000" y2="66.000000"  style="stroke:black; stroke-linecap:round; stroke-width:0.25;"/>
<line x1="114.300000" y1="152.000000" x2="118.300000" y2="152.000000"  style="stroke:black; stroke-linecap:round; stroke-width:0.25;"/>
<line x1="118.300000" y1="152.000000" x2="124.750000" y2="152.000000"  style="stroke:black; stroke-linecap:round; stroke-width:0.25;"/>
<line x1="120.750000" y1="184.000000" x2="124.750000" y2="184.000000"  style="stroke:black; stroke-linecap:round; stroke-width:0.25;"/>
<line x1="124.750000" y1="152.000000" x2="132.750000" y2="152.000000"  style="stroke:black; stroke-linecap:round; stroke-width:0.25;"/>
<line x1="124.750000" y1="172.000000" x2="132.750000" y2="172.000000"  style="stroke:black; stroke-linecap:round; stroke-width:0.25;"/>
<line x1="124.750000" y1="184.000000" x2="124.750000" y2="172.000000"  style="stroke:black; stroke-linecap:round; stroke-width:0.25;"/>
<line x1="124.750000" y1="184.000000" x2="124.750000" y2="184.000000"  style="stroke:black; stroke-linecap:round; stroke-width:0.25;"/>
<line x1="132.750000" y1="152.000000" x2="132.750000" y2="164.000000"  style="stroke:black; stroke-linecap:round; stroke-width:0.25;"/>
<line x1="132.750000" y1="164.000000" x2="132.750000" y2="164.000000"  style="stroke:black; stroke-linecap:round; stroke-width:0.25;"/>
<line x1="132.750000" y1="164.000000" x2="136.750000" y2="164.000000"  style="stroke:black; stroke-linecap:round; stroke-width:0.25;"/>
<line x1="132.750000" y1="172.000000" x2="136.750000" y2="172.000000"  style="stroke:black; stroke-linecap:round; stroke-width:0.25;"/>
<line x1="137.850000" y1="62.000000" x2="141.850000" y2="62.000000"  style="stroke:black; stroke-linecap:round; stroke-width:0.25;"/>
<line x1="141.850000" y1="62.000000" x2="157.000000" y2="62.000000"  style="stroke:black; stroke-linecap:round; stroke-width:0.25;"/>
<line x1="153.000000" y1="120.000000" x2="157.000000" y2="120.000000"  style="stroke:black; stroke-linecap:round; stroke-width:0.25;"/>
<line x1="157.000000" y1="62.000000" x2="165.000000" y2="62.000000"  style="stroke:black; stroke-linecap:round; stroke-width:0.25;"/>
<line x1="157.000000" y1="82.000000" x2="165.000000" y2="82.000000"  style="stroke:black; stroke-linecap:round; stroke-width:0.25;"/>
<line x1="157.000000" y1="120.000000" x2="157.000000" y2="82.000000"  style="stroke:black; stroke-linecap:round; stroke-width:0.25;"/>
<line x1="157.000000" y1="120.000000" x2="157.000000" y2="120.000000"  style="stroke:black; stroke-linecap:round; stroke-width:0.25;"/>
<line x1="160.750000" y1="168.000000" x2="164.750000" y2="168.000000"  style="stroke:black; stroke-linecap:round; stroke-width:0.25;"/>
<line x1="164.750000" y1="168.000000" x2="197.000000" y2="168.000000"  style="stroke:black; stroke-linecap:round; stroke-width:0.25;"/>
<line x1="165.000000" y1="62.000000" x2="165.000000" y2="74.000000"  style="stroke:black; stroke-linecap:round; stroke-width:0.25;"/>
<line x1="165.000000" y1="74.000000" x2="165.000000" y2="74.000000"  style="stroke:black; stroke-linecap:round; stroke-width:0.25;"/>
<line x1="165.000000" y1="74.000000" x2="169.000000" y2="74.000000"  style="stroke:black; stroke-linecap:round; stroke-width:0.25;"/>
<line x1="165.000000" y1="82.000000" x2="169.000000" y2="82.000000"  style="stroke:black; stroke-linecap:round; stroke-width:0.25;"/>
<line x1="193.000000" y1="78.000000" x2="197.000000" y2="78.000000"  style="stroke:black; stroke-linecap:round; stroke-width:0.25;"/>
<line x1="197.000000" y1="78.000000" x2="205.000000" y2="78.000000"  style="stroke:black; stroke-linecap:round; stroke-width:0.25;"/>
<line x1="197.000000" y1="114.000000" x2="205.000000" y2="114.000000"  style="stroke:black; stroke-linecap:round; stroke-width:0.25;"/>
<line x1="197.000000" y1="168.000000" x2="197.000000" y2="114.000000"  style="stroke:black; stroke-linecap:round; stroke-width:0.25;"/>
<line x1="197.000000" y1="168.000000" x2="197.000000" y2="168.000000"  style="stroke:black; stroke-linecap:round; stroke-width:0.25;"/>
<line x1="205.000000" y1="78.000000" x2="205.000000" y2="106.000000"  style="stroke:black; stroke-linecap:round; stroke-width:0.25;"/>
<line x1="205.000000" y1="106.000000" x2="205.000000" y2="106.000000"  style="stroke:black; stroke-linecap:round; stroke-width:0.25;"/>
<line x1="205.000000" y1="106.000000" x2="209.000000" y2="106.000000"  style="stroke:black; stroke-linecap:round; stroke-width:0.25;"/>
<line x1="205.000000" y1="114.000000" x2="209.000000" y2="114.000000"  style="stroke:black; stroke-linecap:round; stroke-width:0.25;"/>
<line x1="233.000000" y1="110.000000" x2="237.000000" y2="110.000000"  style="stroke:black; stroke-linecap:round; stroke-width:0.25;"/>
<line x1="237.000000" y1="110.000000" x2="237.000000" y2="110.000000"  style="stroke:black; stroke-linecap:round; stroke-width:0.25;"/>
<line x1="237.000000" y1="110.000000" x2="241.000000" y2="110.000000"  style="stroke:black; stroke-linecap:round; stroke-width:0.25;"/>
<line x1="241.000000" y1="110.000000" x2="245.000000" y2="110.000000"  style="stroke:black; stroke-linecap:round; stroke-width:0.25;"/>
<line x1="245.000000" y1="110.000000" x2="255.000000" y2="110.000000"  style="stroke:black; stroke-linecap:round; stroke-width:0.25;"/>
</svg>
