<?xml version="1.0"?>
<svg xmlns="http://www.w3.org/2000/svg" xmlns:xlink="http://www.w3.org/1999/xlink" viewBox="0 0 592.700000 120.000000" width="296.350000mm" height="60.000000mm" version="1.1">
<a xlink:href="simpleAnalize-0x7fa5fdb07580.svg">
<rect x="1.000000" y="1.000000" width="591.700000" height="119.000000" rx="0" ry="0" style="stroke:none;fill:#cccccc;"/>
<rect x="0.000000" y="0.000000" width="591.700000" height="119.000000" rx="0" ry="0" style="stroke:none;fill:#ffffff;"/>
</a>
<text x="10.000000" y="7.000000" font-family="Arial" font-size="7"></text>
<a xlink:href="mapping-0x7fa5fda81c80.svg">
<rect x="25.000000" y="33.000000" width="129.000000" height="24.000000" rx="0" ry="0" style="stroke:none;fill:#cccccc;"/>
<rect x="24.000000" y="32.000000" width="129.000000" height="24.000000" rx="0" ry="0" style="stroke:none;fill:#003366;"/>
</a>
<a xlink:href="mapping-0x7fa5fda81c80.svg">
<text x="88.500000" y="46.000000" font-family="Arial" font-size="7" text-anchor="middle" fill="#FFFFFF">mapping(x1 : ...nv = {}])))))</text>
</a>
<circle cx="26.000000" cy="34.000000" r="1"/>
<a xlink:href="attackDecay-0x7fa5fdac87b0.svg">
<rect x="25.000000" y="65.000000" width="129.000000" height="24.000000" rx="0" ry="0" style="stroke:none;fill:#cccccc;"/>
<rect x="24.000000" y="64.000000" width="129.000000" height="24.000000" rx="0" ry="0" style="stroke:none;fill:#003366;"/>
</a>
<a xlink:href="attackDecay-0x7fa5fdac87b0.svg">
<text x="88.500000" y="78.000000" font-family="Arial" font-size="7" text-anchor="middle" fill="#FFFFFF">attackDecay(x...nv = {}])))))</text>
</a>
<circle cx="26.000000" cy="66.000000" r="1"/>
<rect x="170.000000" y="49.000000" width="24.000000" height="24.000000" rx="0" ry="0" style="stroke:none;fill:#cccccc;"/>
<rect x="169.000000" y="48.000000" width="24.000000" height="24.000000" rx="0" ry="0" style="stroke:none;fill:#4B71A1;"/>
<text x="181.000000" y="62.000000" font-family="Arial" font-size="7" text-anchor="middle" fill="#FFFFFF">/</text>
<circle cx="171.000000" cy="50.000000" r="1"/>
<line x1="166.000000" y1="55.000000" x2="169.000000" y2="56.000000"  transform="rotate(0.000000,169.000000,56.000000)" style="stroke: black; stroke-width:0.25;"/>
<line x1="166.000000" y1="57.000000" x2="169.000000" y2="56.000000"  transform="rotate(0.000000,169.000000,56.000000)" style="stroke: black; stroke-width:0.25;"/>
<line x1="166.000000" y1="63.000000" x2="169.000000" y2="64.000000"  transform="rotate(0.000000,169.000000,64.000000)" style="stroke: black; stroke-width:0.25;"/>
<line x1="166.000000" y1="65.000000" x2="169.000000" y2="64.000000"  transform="rotate(0.000000,169.000000,64.000000)" style="stroke: black; stroke-width:0.25;"/>
<a xlink:href="olli1-0x7fa5fdb068b0.svg">
<rect x="238.000000" y="33.000000" width="129.000000" height="24.000000" rx="0" ry="0" style="stroke:none;fill:#cccccc;"/>
<rect x="237.000000" y="32.000000" width="129.000000" height="24.000000" rx="0" ry="0" style="stroke:none;fill:#003366;"/>
</a>
<a xlink:href="olli1-0x7fa5fdb068b0.svg">
<text x="301.500000" y="46.000000" font-family="Arial" font-size="7" text-anchor="middle" fill="#FFFFFF">olli1(x1 : _ ...: /) : *):&gt;_)</text>
</a>
<circle cx="239.000000" cy="34.000000" r="1"/>
<rect x="383.000000" y="29.000000" width="24.000000" height="24.000000" rx="0" ry="0" style="stroke:none;fill:#cccccc;"/>
<rect x="382.000000" y="28.000000" width="24.000000" height="24.000000" rx="0" ry="0" style="stroke:none;fill:#4B71A1;"/>
<text x="394.000000" y="42.000000" font-family="Arial" font-size="7" text-anchor="middle" fill="#FFFFFF">*</text>
<circle cx="384.000000" cy="30.000000" r="1"/>
<line x1="379.000000" y1="35.000000" x2="382.000000" y2="36.000000"  transform="rotate(0.000000,382.000000,36.000000)" style="stroke: black; stroke-width:0.25;"/>
<line x1="379.000000" y1="37.000000" x2="382.000000" y2="36.000000"  transform="rotate(0.000000,382.000000,36.000000)" style="stroke: black; stroke-width:0.25;"/>
<line x1="379.000000" y1="43.000000" x2="382.000000" y2="44.000000"  transform="rotate(0.000000,382.000000,44.000000)" style="stroke: black; stroke-width:0.25;"/>
<line x1="379.000000" y1="45.000000" x2="382.000000" y2="44.000000"  transform="rotate(0.000000,382.000000,44.000000)" style="stroke: black; stroke-width:0.25;"/>
<a xlink:href="olli2-0x7fa5fdb06c60.svg">
<rect x="238.000000" y="73.000000" width="129.000000" height="24.000000" rx="0" ry="0" style="stroke:none;fill:#cccccc;"/>
<rect x="237.000000" y="72.000000" width="129.000000" height="24.000000" rx="0" ry="0" style="stroke:none;fill:#003366;"/>
</a>
<a xlink:href="olli2-0x7fa5fdb06c60.svg">
<text x="301.500000" y="86.000000" font-family="Arial" font-size="7" text-anchor="middle" fill="#FFFFFF">olli2(x1 : _ ...: /) : *):&gt;_)</text>
</a>
<circle cx="239.000000" cy="74.000000" r="1"/>
<rect x="383.000000" y="69.000000" width="24.000000" height="24.000000" rx="0" ry="0" style="stroke:none;fill:#cccccc;"/>
<rect x="382.000000" y="68.000000" width="24.000000" height="24.000000" rx="0" ry="0" style="stroke:none;fill:#4B71A1;"/>
<text x="394.000000" y="82.000000" font-family="Arial" font-size="7" text-anchor="middle" fill="#FFFFFF">*</text>
<circle cx="384.000000" cy="70.000000" r="1"/>
<line x1="379.000000" y1="75.000000" x2="382.000000" y2="76.000000"  transform="rotate(0.000000,382.000000,76.000000)" style="stroke: black; stroke-width:0.25;"/>
<line x1="379.000000" y1="77.000000" x2="382.000000" y2="76.000000"  transform="rotate(0.000000,382.000000,76.000000)" style="stroke: black; stroke-width:0.25;"/>
<line x1="379.000000" y1="83.000000" x2="382.000000" y2="84.000000"  transform="rotate(0.000000,382.000000,84.000000)" style="stroke: black; stroke-width:0.25;"/>
<line x1="379.000000" y1="85.000000" x2="382.000000" y2="84.000000"  transform="rotate(0.000000,382.000000,84.000000)" style="stroke: black; stroke-width:0.25;"/>
<rect x="423.000000" y="49.000000" width="24.000000" height="24.000000" rx="0" ry="0" style="stroke:none;fill:#cccccc;"/>
<rect x="422.000000" y="48.000000" width="24.000000" height="24.000000" rx="0" ry="0" style="stroke:none;fill:#4B71A1;"/>
<text x="434.000000" y="62.000000" font-family="Arial" font-size="7" text-anchor="middle" fill="#FFFFFF">+</text>
<circle cx="424.000000" cy="50.000000" r="1"/>
<line x1="419.000000" y1="55.000000" x2="422.000000" y2="56.000000"  transform="rotate(0.000000,422.000000,56.000000)" style="stroke: black; stroke-width:0.25;"/>
<line x1="419.000000" y1="57.000000" x2="422.000000" y2="56.000000"  transform="rotate(0.000000,422.000000,56.000000)" style="stroke: black; stroke-width:0.25;"/>
<line x1="419.000000" y1="63.000000" x2="422.000000" y2="64.000000"  transform="rotate(0.000000,422.000000,64.000000)" style="stroke: black; stroke-width:0.25;"/>
<line x1="419.000000" y1="65.000000" x2="422.000000" y2="64.000000"  transform="rotate(0.000000,422.000000,64.000000)" style="stroke: black; stroke-width:0.25;"/>
<rect x="473.000000" y="53.000000" width="38.700000" height="24.000000" rx="0" ry="0" style="stroke:none;fill:#cccccc;"/>
<rect x="472.000000" y="52.000000" width="38.700000" height="24.000000" rx="0" ry="0" style="stroke:none;fill:#f44800;"/>
<text x="491.350000" y="66.000000" font-family="Arial" font-size="7" text-anchor="middle" fill="#FFFFFF">0.707107</text>
<circle cx="474.000000" cy="54.000000" r="1"/>
<line x1="463.000000" y1="43.000000" x2="463.000000" y2="85.000000"  style="stroke: black; stroke-linecap:round; stroke-width:0.25; stroke-dasharray:3,3;"/>
<line x1="463.000000" y1="85.000000" x2="519.700000" y2="85.000000"  style="stroke: black; stroke-linecap:round; stroke-width:0.25; stroke-dasharray:3,3;"/>
<line x1="519.700000" y1="85.000000" x2="519.700000" y2="43.000000"  style="stroke: black; stroke-linecap:round; stroke-width:0.25; stroke-dasharray:3,3;"/>
<line x1="463.000000" y1="43.000000" x2="468.000000" y2="43.000000"  style="stroke: black; stroke-linecap:round; stroke-width:0.25; stroke-dasharray:3,3;"/>
<line x1="519.600000" y1="43.000000" x2="519.700000" y2="43.000000"  style="stroke: black; stroke-linecap:round; stroke-width:0.25; stroke-dasharray:3,3;"/>
<text x="468.000000" y="45.000000" font-family="Arial" font-size="7">analizerBottom</text>
<rect x="537.700000" y="49.000000" width="24.000000" height="24.000000" rx="0" ry="0" style="stroke:none;fill:#cccccc;"/>
<rect x="536.700000" y="48.000000" width="24.000000" height="24.000000" rx="0" ry="0" style="stroke:none;fill:#4B71A1;"/>
<text x="548.700000" y="62.000000" font-family="Arial" font-size="7" text-anchor="middle" fill="#FFFFFF">*</text>
<circle cx="538.700000" cy="50.000000" r="1"/>
<line x1="533.700000" y1="55.000000" x2="536.700000" y2="56.000000"  transform="rotate(0.000000,536.700000,56.000000)" style="stroke: black; stroke-width:0.25;"/>
<line x1="533.700000" y1="57.000000" x2="536.700000" y2="56.000000"  transform="rotate(0.000000,536.700000,56.000000)" style="stroke: black; stroke-width:0.25;"/>
<line x1="533.700000" y1="63.000000" x2="536.700000" y2="64.000000"  transform="rotate(0.000000,536.700000,64.000000)" style="stroke: black; stroke-width:0.25;"/>
<line x1="533.700000" y1="65.000000" x2="536.700000" y2="64.000000"  transform="rotate(0.000000,536.700000,64.000000)" style="stroke: black; stroke-width:0.25;"/>
<line x1="15.000000" y1="15.000000" x2="15.000000" y2="105.000000"  style="stroke: black; stroke-linecap:round; stroke-width:0.25; stroke-dasharray:3,3;"/>
<line x1="15.000000" y1="105.000000" x2="577.700000" y2="105.000000"  style="stroke: black; stroke-linecap:round; stroke-width:0.25; stroke-dasharray:3,3;"/>
<line x1="577.700000" y1="105.000000" x2="577.700000" y2="15.000000"  style="stroke: black; stroke-linecap:round; stroke-width:0.25; stroke-dasharray:3,3;"/>
<line x1="15.000000" y1="15.000000" x2="20.000000" y2="15.000000"  style="stroke: black; stroke-linecap:round; stroke-width:0.25; stroke-dasharray:3,3;"/>
<line x1="119.975000" y1="15.000000" x2="577.700000" y2="15.000000"  style="stroke: black; stroke-linecap:round; stroke-width:0.25; stroke-dasharray:3,3;"/>
<text x="20.000000" y="17.000000" font-family="Arial" font-size="7">voice(x1)(vgr...))) : attach)</text>
<line x1="579.700000" y1="59.000000" x2="582.700000" y2="60.000000"  transform="rotate(0.000000,582.700000,60.000000)" style="stroke: black; stroke-width:0.25;"/>
<line x1="579.700000" y1="61.000000" x2="582.700000" y2="60.000000"  transform="rotate(0.000000,582.700000,60.000000)" style="stroke: black; stroke-width:0.25;"/>
<line x1="153.000000" y1="44.000000" x2="157.000000" y2="44.000000"  style="stroke:black; stroke-linecap:round; stroke-width:0.25;"/>
<line x1="153.000000" y1="76.000000" x2="157.000000" y2="76.000000"  style="stroke:black; stroke-linecap:round; stroke-width:0.25;"/>
<line x1="157.000000" y1="44.000000" x2="165.000000" y2="44.000000"  style="stroke:black; stroke-linecap:round; stroke-width:0.25;"/>
<line x1="157.000000" y1="64.000000" x2="165.000000" y2="64.000000"  style="stroke:black; stroke-linecap:round; stroke-width:0.25;"/>
<line x1="157.000000" y1="76.000000" x2="157.000000" y2="64.000000"  style="stroke:black; stroke-linecap:round; stroke-width:0.25;"/>
<line x1="157.000000" y1="76.000000" x2="157.000000" y2="76.000000"  style="stroke:black; stroke-linecap:round; stroke-width:0.25;"/>
<line x1="165.000000" y1="44.000000" x2="165.000000" y2="56.000000"  style="stroke:black; stroke-linecap:round; stroke-width:0.25;"/>
<line x1="165.000000" y1="56.000000" x2="165.000000" y2="56.000000"  style="stroke:black; stroke-linecap:round; stroke-width:0.25;"/>
<line x1="165.000000" y1="56.000000" x2="169.000000" y2="56.000000"  style="stroke:black; stroke-linecap:round; stroke-width:0.25;"/>
<line x1="165.000000" y1="64.000000" x2="169.000000" y2="64.000000"  style="stroke:black; stroke-linecap:round; stroke-width:0.25;"/>
<line x1="193.000000" y1="60.000000" x2="197.000000" y2="60.000000"  style="stroke:black; stroke-linecap:round; stroke-width:0.25;"/>
<line x1="197.000000" y1="60.000000" x2="233.000000" y2="24.000000"  style="stroke:black; stroke-linecap:round; stroke-width:0.25;"/>
<line x1="197.000000" y1="60.000000" x2="233.000000" y2="64.000000"  style="stroke:black; stroke-linecap:round; stroke-width:0.25;"/>
<line x1="233.000000" y1="24.000000" x2="301.500000" y2="24.000000"  style="stroke:black; stroke-linecap:round; stroke-width:0.25;"/>
<line x1="233.000000" y1="64.000000" x2="301.500000" y2="64.000000"  style="stroke:black; stroke-linecap:round; stroke-width:0.25;"/>
<line x1="301.500000" y1="24.000000" x2="370.000000" y2="24.000000"  style="stroke:black; stroke-linecap:round; stroke-width:0.25;"/>
<line x1="301.500000" y1="64.000000" x2="370.000000" y2="64.000000"  style="stroke:black; stroke-linecap:round; stroke-width:0.25;"/>
<line x1="366.000000" y1="44.000000" x2="370.000000" y2="44.000000"  style="stroke:black; stroke-linecap:round; stroke-width:0.25;"/>
<line x1="366.000000" y1="84.000000" x2="370.000000" y2="84.000000"  style="stroke:black; stroke-linecap:round; stroke-width:0.25;"/>
<line x1="370.000000" y1="24.000000" x2="378.000000" y2="24.000000"  style="stroke:black; stroke-linecap:round; stroke-width:0.25;"/>
<line x1="370.000000" y1="44.000000" x2="378.000000" y2="44.000000"  style="stroke:black; stroke-linecap:round; stroke-width:0.25;"/>
<line x1="370.000000" y1="64.000000" x2="378.000000" y2="64.000000"  style="stroke:black; stroke-linecap:round; stroke-width:0.25;"/>
<line x1="370.000000" y1="84.000000" x2="378.000000" y2="84.000000"  style="stroke:black; stroke-linecap:round; stroke-width:0.25;"/>
<line x1="378.000000" y1="24.000000" x2="378.000000" y2="36.000000"  style="stroke:black; stroke-linecap:round; stroke-width:0.25;"/>
<line x1="378.000000" y1="36.000000" x2="378.000000" y2="36.000000"  style="stroke:black; stroke-linecap:round; stroke-width:0.25;"/>
<line x1="378.000000" y1="36.000000" x2="382.000000" y2="36.000000"  style="stroke:black; stroke-linecap:round; stroke-width:0.25;"/>
<line x1="378.000000" y1="44.000000" x2="382.000000" y2="44.000000"  style="stroke:black; stroke-linecap:round; stroke-width:0.25;"/>
<line x1="378.000000" y1="64.000000" x2="378.000000" y2="76.000000"  style="stroke:black; stroke-linecap:round; stroke-width:0.25;"/>
<line x1="378.000000" y1="76.000000" x2="378.000000" y2="76.000000"  style="stroke:black; stroke-linecap:round; stroke-width:0.25;"/>
<line x1="378.000000" y1="76.000000" x2="382.000000" y2="76.000000"  style="stroke:black; stroke-linecap:round; stroke-width:0.25;"/>
<line x1="378.000000" y1="84.000000" x2="382.000000" y2="84.000000"  style="stroke:black; stroke-linecap:round; stroke-width:0.25;"/>
<line x1="406.000000" y1="40.000000" x2="410.000000" y2="40.000000"  style="stroke:black; stroke-linecap:round; stroke-width:0.25;"/>
<line x1="406.000000" y1="80.000000" x2="410.000000" y2="80.000000"  style="stroke:black; stroke-linecap:round; stroke-width:0.25;"/>
<line x1="410.000000" y1="40.000000" x2="418.000000" y2="40.000000"  style="stroke:black; stroke-linecap:round; stroke-width:0.25;"/>
<line x1="410.000000" y1="64.000000" x2="418.000000" y2="64.000000"  style="stroke:black; stroke-linecap:round; stroke-width:0.25;"/>
<line x1="410.000000" y1="80.000000" x2="410.000000" y2="64.000000"  style="stroke:black; stroke-linecap:round; stroke-width:0.25;"/>
<line x1="410.000000" y1="80.000000" x2="410.000000" y2="80.000000"  style="stroke:black; stroke-linecap:round; stroke-width:0.25;"/>
<line x1="418.000000" y1="40.000000" x2="418.000000" y2="56.000000"  style="stroke:black; stroke-linecap:round; stroke-width:0.25;"/>
<line x1="418.000000" y1="56.000000" x2="418.000000" y2="56.000000"  style="stroke:black; stroke-linecap:round; stroke-width:0.25;"/>
<line x1="418.000000" y1="56.000000" x2="422.000000" y2="56.000000"  style="stroke:black; stroke-linecap:round; stroke-width:0.25;"/>
<line x1="418.000000" y1="64.000000" x2="422.000000" y2="64.000000"  style="stroke:black; stroke-linecap:round; stroke-width:0.25;"/>
<line x1="446.000000" y1="60.000000" x2="450.000000" y2="60.000000"  style="stroke:black; stroke-linecap:round; stroke-width:0.25;"/>
<line x1="450.000000" y1="34.000000" x2="458.000000" y2="34.000000"  style="stroke:black; stroke-linecap:round; stroke-width:0.25;"/>
<line x1="450.000000" y1="60.000000" x2="450.000000" y2="34.000000"  style="stroke:black; stroke-linecap:round; stroke-width:0.25;"/>
<line x1="450.000000" y1="60.000000" x2="450.000000" y2="60.000000"  style="stroke:black; stroke-linecap:round; stroke-width:0.25;"/>
<line x1="458.000000" y1="34.000000" x2="491.350000" y2="34.000000"  style="stroke:black; stroke-linecap:round; stroke-width:0.25;"/>
<line x1="491.350000" y1="34.000000" x2="524.700000" y2="34.000000"  style="stroke:black; stroke-linecap:round; stroke-width:0.25;"/>
<line x1="510.700000" y1="64.000000" x2="514.700000" y2="64.000000"  style="stroke:black; stroke-linecap:round; stroke-width:0.25;"/>
<line x1="514.700000" y1="64.000000" x2="524.700000" y2="64.000000"  style="stroke:black; stroke-linecap:round; stroke-width:0.25;"/>
<line x1="524.700000" y1="34.000000" x2="532.700000" y2="34.000000"  style="stroke:black; stroke-linecap:round; stroke-width:0.25;"/>
<line x1="524.700000" y1="64.000000" x2="532.700000" y2="64.000000"  style="stroke:black; stroke-linecap:round; stroke-width:0.25;"/>
<line x1="532.700000" y1="34.000000" x2="532.700000" y2="56.000000"  style="stroke:black; stroke-linecap:round; stroke-width:0.25;"/>
<line x1="532.700000" y1="56.000000" x2="532.700000" y2="56.000000"  style="stroke:black; stroke-linecap:round; stroke-width:0.25;"/>
<line x1="532.700000" y1="56.000000" x2="536.700000" y2="56.000000"  style="stroke:black; stroke-linecap:round; stroke-width:0.25;"/>
<line x1="532.700000" y1="64.000000" x2="536.700000" y2="64.000000"  style="stroke:black; stroke-linecap:round; stroke-width:0.25;"/>
<line x1="560.700000" y1="60.000000" x2="564.700000" y2="60.000000"  style="stroke:black; stroke-linecap:round; stroke-width:0.25;"/>
<line x1="564.700000" y1="60.000000" x2="564.700000" y2="60.000000"  style="stroke:black; stroke-linecap:round; stroke-width:0.25;"/>
<line x1="564.700000" y1="60.000000" x2="568.700000" y2="60.000000"  style="stroke:black; stroke-linecap:round; stroke-width:0.25;"/>
<line x1="568.700000" y1="60.000000" x2="572.700000" y2="60.000000"  style="stroke:black; stroke-linecap:round; stroke-width:0.25;"/>
<line x1="572.700000" y1="60.000000" x2="582.700000" y2="60.000000"  style="stroke:black; stroke-linecap:round; stroke-width:0.25;"/>
</svg>
